<svg xmlns="http://www.w3.org/2000/svg" width="694.759" height="483.894" viewBox="0 0 694.759 483.894">
  <defs>
    <style>
      .cls-1, .cls-10 {
        fill: #8167f2;
      }

      .cls-2, .cls-3, .cls-5 {
        fill: #fff;
      }

      .cls-2 {
        opacity: 0.5;
      }

      .cls-13, .cls-4 {
        fill: #263238;
      }

      .cls-10, .cls-11, .cls-4, .cls-5, .cls-6, .cls-8, .cls-9 {
        stroke: #263238;
      }

      .cls-10, .cls-11, .cls-4, .cls-5, .cls-6, .cls-7, .cls-8, .cls-9 {
        stroke-linecap: round;
        stroke-linejoin: round;
      }

      .cls-6 {
        fill: #8a51e4;
      }

      .cls-11, .cls-7 {
        fill: none;
      }

      .cls-7 {
        stroke: #fff;
        stroke-width: 0.5px;
      }

      .cls-8 {
        fill: #8d3ddc;
      }

      .cls-12, .cls-9 {
        fill: #64b4d2;
      }
    </style>
  </defs>
  <g id="Team-bro" transform="translate(-36.839 -91.006)">
    <g id="background-simple--inject-1" transform="translate(55.886 91.006)">
      <path id="Path_1813" data-name="Path 1813" class="cls-1" d="M682.809,565.126c4.765-17.427,20.282-75.924,30.823-135.172,12.564-70.735,23.562-168.166-26.728-209.04s-116.309,7.865-150.886-7.849S499.877,118.752,407.113,95.19s-144.6,58.138-185.462,102.146-86.481,14.147-146.17,61.3c-59.068,46.635-8.974,257.813,34.707,306.487Z" transform="translate(-48.512 -91.006)"/>
      <path id="Path_1814" data-name="Path 1814" class="cls-2" d="M682.809,565.126c4.765-17.427,20.282-75.924,30.823-135.172,12.564-70.735,23.562-168.166-26.728-209.04s-116.309,7.865-150.886-7.849S499.877,118.752,407.113,95.19s-144.6,58.138-185.462,102.146-86.481,14.147-146.17,61.3c-59.068,46.635-8.974,257.813,34.707,306.487Z" transform="translate(-48.512 -91.006)"/>
      <path id="Path_1815" data-name="Path 1815" class="cls-3" d="M497.71,178.71H369.62a2.366,2.366,0,0,0-2.35,2.35V510.668a2.366,2.366,0,0,0,2.35,2.366H497.71a2.366,2.366,0,0,0,2.366-2.366V181.06A2.366,2.366,0,0,0,497.71,178.71Zm-2.35,329.609H371.986V183.426H495.36Z" transform="translate(152.856 -35.602)"/>
      <path id="Path_1816" data-name="Path 1816" class="cls-3" d="M376.556,246.546H482.047a2.35,2.35,0,0,0,2.35-2.366V188.49a2.333,2.333,0,0,0-2.35-2.35H376.556a2.35,2.35,0,0,0-2.366,2.35V244.18a2.366,2.366,0,0,0,2.366,2.366Zm2.35-55.74H479.681v50.975H378.906Z" transform="translate(157.227 -30.908)"/>
      <path id="Path_1817" data-name="Path 1817" class="cls-3" d="M376.556,295.026H482.047a2.333,2.333,0,0,0,2.35-2.35V236.986a2.35,2.35,0,0,0-2.35-2.366H376.556a2.366,2.366,0,0,0-2.366,2.366v55.691a2.35,2.35,0,0,0,2.366,2.35Zm2.35-55.691H479.681v50.991H378.906Z" transform="translate(157.227 -0.282)"/>
      <path id="Path_1818" data-name="Path 1818" class="cls-3" d="M376.556,343.516H482.047a2.35,2.35,0,0,0,2.35-2.35V285.46a2.35,2.35,0,0,0-2.35-2.35H376.556a2.366,2.366,0,0,0-2.366,2.35v55.707A2.366,2.366,0,0,0,376.556,343.516Zm2.35-55.691H479.681V338.8H378.906Z" transform="translate(157.227 30.35)"/>
      <path id="Path_1819" data-name="Path 1819" class="cls-3" d="M376.556,392.032H482.047a2.35,2.35,0,0,0,2.35-2.366V333.91a2.333,2.333,0,0,0-2.35-2.35H376.556a2.349,2.349,0,0,0-2.366,2.35V389.6a2.366,2.366,0,0,0,2.366,2.431Zm2.35-55.691H479.681v50.975H378.906Z" transform="translate(157.227 60.957)"/>
      <path id="Path_1820" data-name="Path 1820" class="cls-3" d="M483.362,107H138.35a2.35,2.35,0,0,0-2.35,2.284V281.138a2.35,2.35,0,0,0,2.366,2.35h345a2.334,2.334,0,0,0,2.35-2.35V109.284a2.333,2.333,0,0,0-2.35-2.284ZM481,111.716V271.168H140.7V111.65Z" transform="translate(6.757 -80.903)"/>
    </g>
    <g id="character-4--inject-1" transform="translate(471.553 249.404)">
      <path id="Path_1821" data-name="Path 1821" class="cls-4" d="M401.042,315.28l-7.424,112.132a2.268,2.268,0,0,1-2.252,2.1h0a2.235,2.235,0,0,1-2.235-2.317l3.051-111.92Z" transform="translate(-249.002 -107.725)"/>
      <path id="Path_1822" data-name="Path 1822" class="cls-4" d="M408.07,315.28l7.424,112.132a2.252,2.252,0,0,0,2.235,2.1h0a2.252,2.252,0,0,0,2.252-2.317L416.9,315.345Z" transform="translate(-237.037 -107.725)"/>
      <path id="Path_1823" data-name="Path 1823" class="cls-4" d="M362.45,315.28l7.424,112.132a2.252,2.252,0,0,0,2.235,2.1h0a2.252,2.252,0,0,0,2.252-2.317l-3.1-111.855Z" transform="translate(-265.856 -107.725)"/>
      <path id="Path_1824" data-name="Path 1824" class="cls-4" d="M348.478,315.28l-7.424,112.132a2.268,2.268,0,0,1-2.252,2.1h0a2.268,2.268,0,0,1-2.252-2.317l3.1-111.855Z" transform="translate(-282.218 -107.725)"/>
      <path id="Path_1825" data-name="Path 1825" class="cls-5" d="M477.4,247.074s-74.08-2.774-80.346-2.774-7.718,2.774-7.718,2.774l-10.574,74.554s-32.879-9.382-39.325-8.159,3.182,48.005,3.182,48.005h37.2l.669-2.807h84L486.8,252.41C485.447,247.547,477.4,247.074,477.4,247.074Z" transform="translate(-281.796 -152.565)"/>
      <path id="Path_1826" data-name="Path 1826" class="cls-5" d="M431.781,274.58s7.539,48.952-1.11,54.663c-1.338.881-8.6,5.058-15.387,4.373-5.45-.555-43.959,0-43.959,0s-5.352-10.182-6.429-17.688,7.343-39.716,7.343-39.716Z" transform="translate(-264.37 -133.436)"/>
      <path id="Path_1827" data-name="Path 1827" class="cls-6" d="M394.857,290.65s-55.74,5.793-58.367,7.359S321.8,310.1,323.876,316.937s-3.149,7.359,1.632,8.42,72.546,1.044,72.546,1.044" transform="translate(-290.512 -123.284)"/>
      <rect id="Rectangle_743" data-name="Rectangle 743" class="cls-5" width="132.447" height="9.888" transform="translate(186.094 208.828) rotate(180)"/>
      <path id="Path_1828" data-name="Path 1828" class="cls-6" d="M430.9,291.94H351.108s-4.194,4.732-4.732,14.686.538,12.091,7.9,14.686S427,322.584,427,322.584" transform="translate(-276.085 -122.469)"/>
      <path id="Path_1829" data-name="Path 1829" class="cls-5" d="M371.529,377.2l-8.354-19.793L349.485,360,359.96,377.66l-6.037,12.091-13.054,8.534s-1.517,1.5,5.009,1,20.07,0,20.07,0l8.534-10.035S377.583,384.138,371.529,377.2Z" transform="translate(-279.586 -81.11)"/>
      <path id="Path_1830" data-name="Path 1830" class="cls-4" d="M363.552,374.84l.343,12.94h-2.04l-2.725-6.462Z" transform="translate(-267.953 -70.099)"/>
      <path id="Path_1831" data-name="Path 1831" class="cls-4" d="M365.959,390.526l8.534-10.035s2.2-3.737-.832-9.121c-6.07,10.378-14.147,13.494-14.147,13.494l-8.42-2.023-10.215,6.69s-1.517,1.5,5.009,1S365.959,390.526,365.959,390.526Z" transform="translate(-279.579 -72.291)"/>
      <path id="Path_1832" data-name="Path 1832" class="cls-6" d="M351.729,316.884l27.984,84.6-19.858,3.525L320.694,316.9s-3.149-13.152,5.254-17.345,33.124-6.315,33.124-6.315" transform="translate(-292.6 -121.648)"/>
      <path id="Path_1833" data-name="Path 1833" class="cls-4" d="M396.595,360.349s-9.644-46.847-3.182-48.005,39.325,8.159,39.325,8.159l10.574-74.456s11.161-1.762,12.336,8.159S433.8,360.349,433.8,360.349Z" transform="translate(-247.704 -151.538)"/>
      <path id="Path_1834" data-name="Path 1834" class="cls-5" d="M338.592,236.59l-4.977-8.159a5.27,5.27,0,0,0-4.585-2.513l-4.683.082-8.012-2.4a2.676,2.676,0,0,0-2.839.9l-.294.375,7.375,3.263-7.359,2.709-7.816-3.965a1.469,1.469,0,0,0-1.844.424h0a1.469,1.469,0,0,0,.261,2.056l10.933,8.436a3.052,3.052,0,0,0,2.448.587l12.091-2.431,3.378,3.688Z" transform="translate(-303.253 -165.708)"/>
      <path id="Path_1835" data-name="Path 1835" class="cls-5" d="M412.774,221.26l-44.824,46.88-42.784-34.576-5.907,4.291L366.335,291.2l40.809-21.979Z" transform="translate(-293.14 -167.12)"/>
      <path id="Path_1836" data-name="Path 1836" class="cls-5" d="M424.221,228.6l23.5,72.2-20.266.587L407.3,267.5S418.624,233.316,424.221,228.6Z" transform="translate(-237.523 -162.483)"/>
      <path id="Path_1837" data-name="Path 1837" class="cls-5" d="M422.619,222.371l25.569,12.483L426.78,294.722l2.529,16.693-59.95.1,7.147-26.891-4.9-17.231a13.2,13.2,0,0,1-.1-6.853l9.595-37.66L406.3,218.83Z" transform="translate(-261.491 -168.655)"/>
      <path id="Path_1838" data-name="Path 1838" class="cls-5" d="M410.854,219.851s5.026,3.394,5.189,6.413c.082,1.779,0,4.9-.163,7.278a15.455,15.455,0,0,1-1.256,5.4l-9.056,10.933L395.092,241.6l-8.7,4.438s-1.632-13.331,2.17-22.632S408.913,217.517,410.854,219.851Z" transform="translate(-250.949 -169.643)"/>
      <path id="Path_1839" data-name="Path 1839" class="cls-5" d="M416.09,204.476s-2.056,7.392-3.019,12.287-2.9,14.686-2.725,18.357-15.273,19.3-17.215,16.97S389.15,236.2,389.15,236.2l1.925-21.93S411.211,191.961,416.09,204.476Z" transform="translate(-248.989 -180.131)"/>
      <path id="Path_1840" data-name="Path 1840" class="cls-5" d="M387.94,197.29s-2.758,4.553-2.758,6.527.963,5.842.8,6.967-2.9,4.9-3.263,6.168a2.252,2.252,0,0,0,1.126,2.758,21.531,21.531,0,0,1,1.942,1.126s.816,10.051,2.121,12.646,2.431,3.737,6.315,4.063,13.135-3.737,14.424-6.984,1.469-7.131,1.632-11.83-3.084-11.422-5.515-17.835S392.15,190.959,387.94,197.29Z" transform="translate(-253.131 -184.367)"/>
      <circle id="Ellipse_130" data-name="Ellipse 130" class="cls-4" cx="12.45" cy="12.45" r="12.45" transform="translate(164.213 21.212)"/>
      <path id="Path_1841" data-name="Path 1841" class="cls-4" d="M385.83,200.3s5.009-4.324,14.017,4.275,5.581,21.033,11.6,23.611,17.166-10.312,18.455-16.742-2.578-19.76-14.6-22.338S388.539,188.292,385.83,200.3Z" transform="translate(-251.086 -188.08)"/>
      <path id="Path_1842" data-name="Path 1842" class="cls-4" d="M385.844,198.432a6.69,6.69,0,0,1,7.587-7.326c8.159.441,9.007,13.315,13.3,18.471s6.445,4.291,6.445,4.291-7.294,2.138-12.026-.441S394.133,196.311,385.844,198.432Z" transform="translate(-251.101 -186.211)"/>
      <path id="Path_1843" data-name="Path 1843" class="cls-7" d="M397.367,190.16a25.454,25.454,0,0,1,9.79,11.112c3.7,7.849,3.7,14.327,12.5,13.87,0,0-4.161.93-10.639-2.317s-7.865-12.483-12.026-16.187a13.69,13.69,0,0,0-8.322-3.7" transform="translate(-249.292 -186.766)"/>
      <path id="Path_1844" data-name="Path 1844" class="cls-7" d="M416.485,202.4s-.375,11.781-9.415,14.261" transform="translate(-237.669 -179.034)"/>
      <path id="Path_1845" data-name="Path 1845" class="cls-5" d="M397.515,212.084s8.615-11.275,10.639-2.855-4.9,10.476-8.159,9.513-2.807-2.709-2.807-2.709" transform="translate(-243.925 -176.693)"/>
      <path id="Path_1846" data-name="Path 1846" class="cls-5" d="M396.774,268.9s-16.448,2.284-19.189,2.284-9.595,8.681-9.595,8.681h30.154Z" transform="translate(-262.356 -137.024)"/>
      <path id="Path_1847" data-name="Path 1847" class="cls-5" d="M455.665,262.12l5.907,13.315a5.254,5.254,0,0,1-4.9,6.935l-71.307.408.457-9.595,55.283-8.746" transform="translate(-251.377 -141.307)"/>
      <path id="Path_1848" data-name="Path 1848" class="cls-4" d="M371.672,374.84l.343,12.94h-2.04l-2.725-6.462Z" transform="translate(-262.824 -70.099)"/>
      <path id="Path_1849" data-name="Path 1849" class="cls-5" d="M379.648,376.83,377.021,358l-13.674.881,4.732,18.536-6.037,12.091-13.054,8.534s-1.5,1.5,5.026,1,20.07,0,20.07,0L382.617,389S385.7,383.765,379.648,376.83Z" transform="translate(-274.455 -80.737)"/>
      <path id="Path_1850" data-name="Path 1850" class="cls-4" d="M374.084,390.526l8.534-10.035s2.2-3.737-.848-9.121c-6.07,10.378-14.147,13.494-14.147,13.494l-8.4-2.023-10.231,6.69s-1.5,1.5,5.026,1S374.084,390.526,374.084,390.526Z" transform="translate(-274.455 -72.291)"/>
      <path id="Path_1851" data-name="Path 1851" class="cls-6" d="M375.807,302.887l5.858,100.057-18.553.441L345,312.482s.343-17.313,5.874-19.3,20.217.147,20.217.147" transform="translate(-276.88 -122.223)"/>
    </g>
    <g id="character-3--inject-1" transform="translate(357.001 137.206)">
      <path id="Path_1852" data-name="Path 1852" class="cls-5" d="M317.756,166.81l23.024,64.535s-3.035,14.6-12.173,14-11.569-13.4-14-15.224-6.086-15.828-6.086-15.828Z" transform="translate(-185.374 -89.319)"/>
      <path id="Path_1853" data-name="Path 1853" class="cls-5" d="M292.172,158.88,254.74,172.391,269.1,276.185h67.537L351.73,171.82l-40.4-12.646Z" transform="translate(-219.348 -94.329)"/>
      <path id="Path_1854" data-name="Path 1854" class="cls-8" d="M279.89,174.215l5.4,8.142-4.683,69.055,6.886,17.982,7.065-17.492-6.054-68.516,4.863-11.765-6.739-8.86Z" transform="translate(-203.46 -91.878)"/>
      <path id="Path_1855" data-name="Path 1855" class="cls-5" d="M290.661,176.1l-9.643,7.229-6.347-18.846,4.422-9.546,19.728-.473,4.814,4.324-.963,24.052Z" transform="translate(-206.758 -97.121)"/>
      <path id="Path_1856" data-name="Path 1856" class="cls-5" d="M298.61,155.932l-1.5,12.124-10.8,13.935L278.23,167.86V145.13S292.377,148.671,298.61,155.932Z" transform="translate(-204.509 -103.015)"/>
      <path id="Path_1857" data-name="Path 1857" class="cls-5" d="M274.83,144.03c0-11.014,8.028-19.94,17.949-19.94s15.42,9.415,15.42,20.429c0,3.557-.734,9.66-1.028,12.907-.506,5.548-2.186,7.9-5.466,12.874-10.753,16.317-19.581-7.62-24.1-15.665A21.408,21.408,0,0,1,274.83,144.03Z" transform="translate(-206.657 -116.307)"/>
      <path id="Path_1858" data-name="Path 1858" class="cls-5" d="M292.088,138.43l1.518,11.373-5.336-.147" transform="translate(-198.166 -107.248)"/>
      <path id="Path_1859" data-name="Path 1859" class="cls-5" d="M307.948,137.22l-25.651.114a5.988,5.988,0,0,0,1.273,5.825c1.632,1.632,8.273,1.061,9.333.636s1.632-5.091,1.632-5.091h1.909s.212,4.9,2.953,5.3,6.315.277,7-.212C309.433,141.756,307.948,137.22,307.948,137.22Z" transform="translate(-202.115 -108.012)"/>
      <path id="Path_1860" data-name="Path 1860" class="cls-4" d="M278.557,159.493s5.776,11.83,7.147,15.926,8.159,7.294,15.028,5.009,5.009-12.45,5.009-12.45-7.294-6.233-8.648-4.9-8.664,7.294-9.121,5.923-3.639-9.562-3.639-9.562l-1.485-5.809,3.051-1.958a2.284,2.284,0,0,0,.408-3.068l-1.436-2.072a2.317,2.317,0,0,1-.375-1.762c.375-1.779,1.4-5.466,3.786-6.527,3.263-1.354,7.229.62,10.884,1.534s7.62-2.382,7.62-2.382l1.632,5.417a25.993,25.993,0,0,0,7.408-12.564c1.828-7.751-16.856-10.933-22.844-10.933s-15.485,3.263-18.226,11.846S276.942,157.959,278.557,159.493Z" transform="translate(-207.218 -119.32)"/>
      <path id="Path_1861" data-name="Path 1861" class="cls-7" d="M292.8,126.05s3.394,5.091-1.061,6.152-13.135-2.758-16.954-1.273" transform="translate(-206.682 -115.068)"/>
      <path id="Path_1862" data-name="Path 1862" class="cls-7" d="M284.94,132.973s-6.984-.848-9.79,2.121" transform="translate(-206.454 -110.766)"/>
      <path id="Path_1863" data-name="Path 1863" class="cls-7" d="M294.425,148.9s-5.14,2.676-7.685-.506" transform="translate(-199.133 -100.956)"/>
      <path id="Path_1864" data-name="Path 1864" class="cls-5" d="M279.252,142.629s-5.042-5.548-5.042.506,1.517,6.054,4.536,8.159,4.047-.506,4.047-.506" transform="translate(-207.048 -106.062)"/>
      <path id="Path_1865" data-name="Path 1865" class="cls-4" d="M361.915,461.6h.229l-.441-2.219-22.028-228.6H272.138L249.93,461.588h.245l14.327,1.224s15.893-53.357,15.893-57.339,4.536-40.793,4.536-40.793l22.534-79.22,19.923,79.22s4.536,36.893,4.536,40.793,15.909,57.371,15.909,57.371l13.478-1.159h.6Z" transform="translate(-222.386 -48.908)"/>
      <line id="Line_192" data-name="Line 192" class="cls-7" x1="15.028" y2="21.457" transform="translate(97.218 195.318)"/>
      <line id="Line_193" data-name="Line 193" class="cls-7" x1="9.121" y2="15.028" transform="translate(95.081 200.147)"/>
      <line id="Line_194" data-name="Line 194" class="cls-7" x2="13.396" y2="14.473" transform="translate(61.288 199.087)"/>
      <line id="Line_195" data-name="Line 195" class="cls-7" x2="19.303" y2="19.32" transform="translate(60.211 204.439)"/>
      <line id="Line_196" data-name="Line 196" class="cls-7" x2="59.558" transform="translate(53.765 184.059)"/>
      <path id="Path_1866" data-name="Path 1866" class="cls-4" d="M260.838,372.23s-8.6,6.772-13.56,8.632-14.229,6.8-14.229,6.8,0,3.1,8.044,3.1h31.574l-.538-18.536Z" transform="translate(-233.05 40.45)"/>
      <path id="Path_1867" data-name="Path 1867" class="cls-5" d="M272.535,381.754a307.15,307.15,0,0,1-37.823-.6l-1.632.881s0,3.1,8.044,3.1H272.7Z" transform="translate(-233.031 46.085)"/>
      <path id="Path_1868" data-name="Path 1868" class="cls-4" d="M322.334,372.23s8.616,6.772,13.56,8.632,14.245,6.8,14.245,6.8,0,3.1-8.061,3.1H310.52l.571-18.536Z" transform="translate(-184.11 40.45)"/>
      <path id="Path_1869" data-name="Path 1869" class="cls-5" d="M310.618,381.754a307.157,307.157,0,0,0,37.823-.6l1.632.881s0,3.1-8.061,3.1H310.52Z" transform="translate(-184.11 46.085)"/>
      <path id="Path_1870" data-name="Path 1870" class="cls-5" d="M264.367,167.16,239.5,233.555h23.856l8.909-18.112Z" transform="translate(-228.975 -89.098)"/>
      <path id="Path_1871" data-name="Path 1871" class="cls-5" d="M364.2,205.838c-9.954-4.112-41.886-6.152-43.551-6.152s-53.57-4.275-57.828-4.9-9.138,9.138-9.138,9.138l22.518-.62,27.4,5.483s55.479,20.087,59.656,18.879a3.72,3.72,0,0,0,1.5-.946" transform="translate(-220.018 -71.661)"/>
      <path id="Path_1872" data-name="Path 1872" class="cls-5" d="M257.253,202.938l85.829-8.518.62,7.294-74.276,22.534s-13.38,3.035-23.742,1.207-5.466-12.173-3.035-18.259" transform="translate(-229.073 -71.877)"/>
      <path id="Path_1873" data-name="Path 1873" class="cls-5" d="M302.93,194.66l16.432-.62,4.863,9.741-20.69-1.811Z" transform="translate(-188.905 -72.117)"/>
    </g>
    <g id="Table--inject-1" transform="translate(189.423 342.722)">
      <path id="Path_1874" data-name="Path 1874" class="cls-4" d="M370,282.16l14.017,166.876a1.844,1.844,0,0,0,2.2,1.534,1.8,1.8,0,0,0,1.354-1.925l-9.546-166.436Z" transform="translate(21.043 -221.966)"/>
      <path id="Path_1875" data-name="Path 1875" class="cls-4" d="M427.73,282.16,441.8,449.591a1.827,1.827,0,0,0,2.2,1.534,1.8,1.8,0,0,0,1.354-1.925l-9.578-167.04Z" transform="translate(57.513 -221.966)"/>
      <path id="Path_1876" data-name="Path 1876" class="cls-4" d="M192.33,282.16,185,447.584a1.828,1.828,0,0,0,1.371,1.942h0a1.746,1.746,0,0,0,2.17-1.5L200.407,282.16Z" transform="translate(-95.829 -221.966)"/>
      <path id="Path_1877" data-name="Path 1877" class="cls-4" d="M139.138,282.185l-7.375,164.8a1.844,1.844,0,0,0,1.387,1.942,1.762,1.762,0,0,0,2.17-1.5l11.814-165.31Z" transform="translate(-129.462 -221.991)"/>
      <rect id="Rectangle_744" data-name="Rectangle 744" class="cls-9" width="499.129" height="14.327" transform="translate(4.455 50.942)"/>
      <rect id="Rectangle_745" data-name="Rectangle 745" class="cls-4" width="499.129" height="4.911" transform="translate(4.455 50.942)"/>
      <rect id="Rectangle_746" data-name="Rectangle 746" class="cls-4" width="124.892" height="14.327" transform="translate(378.674 50.942)"/>
      <rect id="Rectangle_747" data-name="Rectangle 747" class="cls-9" width="508.021" height="5.466" transform="translate(0 46.178)"/>
      <rect id="Rectangle_748" data-name="Rectangle 748" class="cls-4" width="124.125" height="5.466" transform="translate(383.88 46.178)"/>
      <path id="Path_1878" data-name="Path 1878" class="cls-5" d="M200.187,290.958H268.36a1.322,1.322,0,0,0,1.224-.8l18.879-43.045a1.322,1.322,0,0,0-1.224-1.844H219.066a1.322,1.322,0,0,0-1.207.783L199.045,289.1a1.322,1.322,0,0,0,1.142,1.86Z" transform="translate(-87.027 -245.27)"/>
      <path id="Path_1879" data-name="Path 1879" class="cls-10" d="M204.049,286.321H262.22a1.126,1.126,0,0,0,1.028-.669l16.105-36.73a1.126,1.126,0,0,0-1.028-1.632H220.154a1.126,1.126,0,0,0-1.044.685l-16.072,36.763a1.126,1.126,0,0,0,1.012,1.583Z" transform="translate(-84.493 -243.994)"/>
      <rect id="Rectangle_749" data-name="Rectangle 749" class="cls-5" width="102.423" height="3.345" transform="translate(79.857 42.833)"/>
      <rect id="Rectangle_750" data-name="Rectangle 750" class="cls-5" width="49.653" height="3.345" transform="translate(132.643 42.833)"/>
      <rect id="Rectangle_751" data-name="Rectangle 751" class="cls-5" width="18.063" height="26.695" transform="translate(197.129 19.548)"/>
      <path id="Path_1880" data-name="Path 1880" class="cls-5" d="M263.256,278.392h-1.893a1.485,1.485,0,0,1,0-2.97h1.893a2.839,2.839,0,0,0,2.823-2.823v-6.527a2.839,2.839,0,0,0-2.823-2.823h-2.431a1.485,1.485,0,0,1,0-2.97h2.431a5.793,5.793,0,0,1,5.793,5.793V272.6a5.793,5.793,0,0,1-5.793,5.793Z" transform="translate(-48.864 -235.788)"/>
      <path id="Path_1881" data-name="Path 1881" class="cls-5" d="M382.932,290.958H314.758a1.322,1.322,0,0,1-1.207-.8l-18.879-43.045a1.322,1.322,0,0,1,1.207-1.844h68.173a1.338,1.338,0,0,1,1.224.783L384.155,289.1a1.338,1.338,0,0,1-1.224,1.86Z" transform="translate(-26.612 -245.27)"/>
      <rect id="Rectangle_752" data-name="Rectangle 752" class="cls-5" width="102.423" height="3.345" transform="translate(389.623 46.178) rotate(180)"/>
      <rect id="Rectangle_753" data-name="Rectangle 753" class="cls-5" width="70.621" height="3.345" transform="translate(357.821 46.178) rotate(180)"/>
      <path id="Path_1882" data-name="Path 1882" class="cls-5" d="M325.668,257.041a4.014,4.014,0,1,1-5.5-1.632A4.063,4.063,0,0,1,325.668,257.041Z" transform="translate(-11.74 -239.173)"/>
    </g>
    <g id="character-1--inject-1" transform="translate(108.654 149.249)">
      <path id="Path_1883" data-name="Path 1883" class="cls-5" d="M135.214,182.83l5.026,49.653,22.844,66.134-7.816,4.471-26.826-60.537-13.4-51.97s-1.126-15.632,4.471-17.949S132.979,172.779,135.214,182.83Z" transform="translate(-59.308 -98.193)"/>
      <path id="Path_1884" data-name="Path 1884" class="cls-5" d="M147.516,249.57s5.026,10.623,5.6,13.413,1.142,8.485-1.061,11.03c-2.66,3.068-5.091.7-5.091.7s-6.706-1.632-6.706-7.261-.555-13.413-.555-13.413Z" transform="translate(-43.674 -49.08)"/>
      <line id="Line_197" data-name="Line 197" class="cls-11" x2="9.415" y2="2.448" transform="translate(98.359 217.15)"/>
      <path id="Path_1885" data-name="Path 1885" class="cls-5" d="M142.974,257.949l2.676,4.21s-6.233,10.655-2.888,7.865,9.595-6.184,9.04-8.974a44.381,44.381,0,0,0-3.72-8.42" transform="translate(-42.363 -47.147)"/>
      <path id="Path_1886" data-name="Path 1886" class="cls-4" d="M126.925,143.376s-5.744-6.2-18.993-2.219S91.615,166.35,92.023,176.94s10.606,22.534,7.522,27.837-14.588,17.672-13.706,31,11.928,23.856,27.837,18.993,13.25-24.329,10.084-31.443S127.3,213.164,129.5,197.7s-11.928-28.278-11.928-39.325S129,149.1,129,149.1Z" transform="translate(-77.73 -118.41)"/>
      <path id="Path_1887" data-name="Path 1887" class="cls-7" d="M103.663,167.7c2.089,4.308,4.52,8.909,6.935,13.87,8.061,16.448,1.762,22.387-10.492,31.492s-9.448,20.3-6.3,22.028" transform="translate(-74.375 -100.799)"/>
      <path id="Path_1888" data-name="Path 1888" class="cls-7" d="M116.863,144.67s-16.448,1.4-20.658,11.9c-2.545,6.38-.587,13.527,3.166,21.849" transform="translate(-71.878 -115.348)"/>
      <path id="Path_1889" data-name="Path 1889" class="cls-7" d="M101.05,206.49a9.887,9.887,0,0,0,3.965.62" transform="translate(-68.091 -76.295)"/>
      <path id="Path_1890" data-name="Path 1890" class="cls-7" d="M119.563,144s-15.4,2.79-18.9,13.984,17.149,27.739,18.194,39.912S105.2,217.183,99.983,226.631c-3.671,6.625-3.263,13.919.6,17.59" transform="translate(-70.368 -115.771)"/>
      <path id="Path_1891" data-name="Path 1891" class="cls-5" d="M148.74,282.07s-3.8,32.83-7.62,43.306-12.368,92.8-12.842,97.561,12.368,15.7,17.606,19.042,2.856,4.275-2.856,4.748-12.368-.473-15.224-5.711-9.529-6.657-9.529-6.657l-.946,11.422H115.42L114,431.5a16.448,16.448,0,0,1,1.42-9.513c2.382-5.238,3.263-16.187,3.263-31s-2.856-38.558-1.436-49.98,7.147-19.989,7.147-29.5.473-23.79.473-23.79Z" transform="translate(-60.024 -28.549)"/>
      <path id="Path_1892" data-name="Path 1892" class="cls-4" d="M114,376.486a15.762,15.762,0,0,1,.6-7.326c2.953,4.993,11.422,11.765,17.949,14.457A23.806,23.806,0,0,0,143.8,385.51c.767.571,1.485,1.061,2.089,1.452,5.238,3.263,2.856,4.275-2.856,4.748s-12.368-.473-15.224-5.711-9.529-6.657-9.529-6.657l-.946,11.422h-1.909Z" transform="translate(-60.025 26.468)"/>
      <path id="Path_1893" data-name="Path 1893" class="cls-5" d="M141.958,286.758s-8.159,24.264-15.7,45.2-25.7,69.006-27.609,77.572S95.8,433.809,90.493,441.9s-10.476,11.9-9.529-2.382,9.529-24.753,11.422-35.7,2.856-50.437,9.513-68.043,13.8-31.884,14.686-37.122a122.984,122.984,0,0,0,.946-15.714Z" transform="translate(-80.851 -27.999)"/>
      <path id="Path_1894" data-name="Path 1894" class="cls-4" d="M81.917,375.15a14.131,14.131,0,0,0,2.415,7.539c2.741,3.068,7.163-2.888,9.464-6.527a30.889,30.889,0,0,1-3.263,7.473c-5.238,8.077-10.476,11.9-9.529-2.382a42.819,42.819,0,0,1,.914-6.1Z" transform="translate(-80.825 30.252)"/>
      <path id="Path_1895" data-name="Path 1895" class="cls-5" d="M126.689,167.9s-2.856,2.382-4.765,18.569,10,66.623,10,66.623-20.462,33.516-25.226,50.176-7.62,79.073-7.62,79.073,10,3.818,30.464,5.238,31.411-3.8,31.411-3.8.946-89.076.946-102.8.963-44.938,2.382-48.74,5.711-13.8,5.711-17.606-28.62-44.35-28.62-44.35Z" transform="translate(-69.335 -100.673)"/>
      <path id="Path_1896" data-name="Path 1896" class="cls-4" d="M106.67,271.669c3.753-13.054,19.287-47.777,24.835-53.749,8.436,2.807,23.823,5.58,30.693,3.525-.212,4.9-.326,23.17-.326,27.854,0,13.8-.946,102.8-.946,102.8s-10.949,5.238-31.411,3.8-30.464-5.238-30.464-5.238S101.906,288.329,106.67,271.669Z" transform="translate(-69.354 -69.074)"/>
      <path id="Path_1897" data-name="Path 1897" class="cls-4" d="M122.47,137.828s5.107-11.128,15.208-11.128,14.588,8.975,12.352,16.823,6.723,5.613,7.849,10.671-7.294,8.4-11.781,8.4S122.47,137.828,122.47,137.828Z" transform="translate(-54.559 -126.7)"/>
      <path id="Path_1898" data-name="Path 1898" class="cls-7" d="M131.51,133.494c3-1.632,6.527-2.807,8.159-.261,3.149,4.9-6.641,8.746-3.492,14s10.851,3.851,10.492,5.6-5.238,2.79-5.238,2.79" transform="translate(-48.848 -123.508)"/>
      <path id="Path_1899" data-name="Path 1899" class="cls-7" d="M128.36,135.714s.963-.832,2.4-1.844" transform="translate(-50.838 -122.171)"/>
      <path id="Path_1900" data-name="Path 1900" class="cls-5" d="M156.4,159.469a5.091,5.091,0,0,1-1.632-2.056c-.816-6.021-2.578-11.944-5.907-15.273a32.358,32.358,0,0,0-18.324-8.567,12.908,12.908,0,0,0-6.054.555c-8.664,3.035-16.105,9.023-14.506,23.464,1.762,15.909,14.147,19.891,14.147,19.891l.881,9.79,12.368,5.744.441-10.606s8.387,3.525,11.422,3.084,3.981-4.422,5.3-10.166a42.985,42.985,0,0,0,.718-7.946l3.7-3.688C161.064,161.557,158.991,161.035,156.4,159.469Z" transform="translate(-62.591 -122.445)"/>
      <path id="Path_1901" data-name="Path 1901" class="cls-4" d="M109.957,157.592c-1.632-14.441,5.842-20.429,14.506-23.464a12.908,12.908,0,0,1,6.054-.555,35.066,35.066,0,0,1,13.25,4.6c-2.48-.506,1.746,6.788-2.138,11.422a36.109,36.109,0,0,1-12.679,10.149s-4.406-3.541-5.744,1.322-.881,8.387,2.66,9.285,4.9,0,4.9,0-2.35,5.564-6.527,7.865v-.8S111.8,173.518,109.957,157.592Z" transform="translate(-62.606 -122.445)"/>
      <path id="Path_1902" data-name="Path 1902" class="cls-5" d="M141.232,172.978l-2.366,12.858L113.64,172.505l2.382-11.9Z" transform="translate(-60.137 -105.278)"/>
      <path id="Path_1903" data-name="Path 1903" class="cls-5" d="M123.434,234.877a52.867,52.867,0,0,0,7.93,1.077c2.072-.131,4.9-2.464,6.984-1.469s5.009,7.278,5.009,7.278,2.774,1.4,1.974,2.888-4.226,2.856-4.226,2.856-3.263,3.084-5.156,3.394-13.429-8.159-13.429-8.159Z" transform="translate(-54.527 -58.765)"/>
      <path id="Path_1904" data-name="Path 1904" class="cls-5" d="M144.074,280.115a4,4,0,0,0-1.224-6.1l-31.7-29.7,34.527-53.684a12.417,12.417,0,0,0-21.457-12.483L94.29,237.625a8.256,8.256,0,0,0-.261,11.585l.114.114c3,4.634,36.028,28.865,45.688,32.031a3.965,3.965,0,0,0,4.243-1.24Z" transform="translate(-73.944 -97.9)"/>
    </g>
    <g id="character-2--inject-1" transform="translate(182.131 228.451)">
      <path id="Path_1905" data-name="Path 1905" class="cls-5" d="M217.331,188.976s4.1,12.679,4.1,15.142a44.774,44.774,0,0,1-.408,5.319l3.606,5.6a1.632,1.632,0,0,1-.506,2.187l-5.564,3.263s-.816,13.054-1.632,14.686-14.686,1.24-14.686,1.24l-4.5,8.583L174.4,236l6.135-16.79-1.273-25.341S193.589,181.209,217.331,188.976Z" transform="translate(-95.23 -168.153)"/>
      <path id="Path_1906" data-name="Path 1906" class="cls-4" d="M201.851,226.9s-4.063,3.818-7.114,4.079-12.972-2.04-13.739-3.051-7.62-15.257-7.375-22.126.522-17.035,7.881-20.331,19.075-2.3,25.178-6.1,15.762-6.87,20.853-.261,1.273,15.762-2.79,19.581-9.154,4.9-8.648,6.527,3.557,3.557,1.779,6.1-8.159,4.9-8.159,5.842,1.534,4.585-.245,5.091-3.573-3.557-5.352-3.557S198.555,223.605,201.851,226.9Z" transform="translate(-95.725 -175.239)"/>
      <path id="Path_1907" data-name="Path 1907" class="cls-7" d="M185.13,199.75a12.907,12.907,0,0,0-1.86,2.709" transform="translate(-89.627 -159.755)"/>
      <path id="Path_1908" data-name="Path 1908" class="cls-7" d="M216.621,183.6a16.839,16.839,0,0,1-9.3,13.184c-6.527,3.378-15.224,6.135-21,10.378" transform="translate(-87.7 -169.957)"/>
      <path id="Path_1909" data-name="Path 1909" class="cls-7" d="M209.694,193.66s-5.793,4.9-11.993,9.937a52.835,52.835,0,0,1-13.951,7.751" transform="translate(-89.323 -163.602)"/>
      <path id="Path_1910" data-name="Path 1910" class="cls-5" d="M190.67,207.32l3.263.816a11.275,11.275,0,0,0,2.464,8.6" transform="translate(-84.952 -154.972)"/>
      <line id="Line_198" data-name="Line 198" class="cls-11" y1="5.711" x2="23.04" transform="translate(109.504 37.874)"/>
      <path id="Path_1911" data-name="Path 1911" class="cls-11" d="M203.48,198.17l5.254.228s1.811,5.939-3.655,6.625" transform="translate(-76.859 -160.753)"/>
      <path id="Path_1912" data-name="Path 1912" class="cls-4" d="M198.019,371.409s21.212,13.4,24.949,13.4,5.6,3.361,3.737,3.737-13.413.734-21.212,1.11-13.054-.375-17.508-.375-9.692.375-11.928-.734,1.5-13.788,1.5-16.024S195.408,369.908,198.019,371.409Z" transform="translate(-94.634 -51.883)"/>
      <path id="Path_1913" data-name="Path 1913" class="cls-5" d="M225.385,379.818c-8.24,2.709-21.6.93-29.632.2-6.347-.571-16.317-.7-20.38-.734-.163,1.909,0,3.361.636,3.72,2.235,1.109,7.457.734,11.928.734s9.676.751,17.508.375,19.369-.751,21.212-1.11C228.11,382.707,227.425,380.781,225.385,379.818Z" transform="translate(-94.653 -46.341)"/>
      <path id="Path_1914" data-name="Path 1914" class="cls-6" d="M214.786,314.66l-16.741,83.952,3.492,8.713a17.541,17.541,0,0,1-10.59,7.147,80.23,80.23,0,0,1-14.522,1.5s-1.86-9.317-.734-10.443,1.485-5.581,1.485-5.581l9.676-84.556Z" transform="translate(-94.644 -87.163)"/>
      <path id="Path_1915" data-name="Path 1915" class="cls-4" d="M241.473,370.776s13.054,10.8,19.01,12.662,12.287,3.72,12.287,5.581-14.147,3.72-24.949,2.611-27.2-5.956-30.921-5.956-2.986-9.692-2.986-11.177S232.172,361.084,241.473,370.776Z" transform="translate(-70.306 -54.089)"/>
      <path id="Path_1916" data-name="Path 1916" class="cls-5" d="M272.666,383.2c0-.669-.832-1.338-2.154-2.007a114.968,114.968,0,0,1-32.112-.229c-10.72-1.534-19.695-3.59-24.28-4.732.392,2.007,1.159,3.622,2.676,3.622,3.72,0,20.119,4.9,30.921,5.956S272.666,385.058,272.666,383.2Z" transform="translate(-70.138 -48.268)"/>
      <path id="Path_1917" data-name="Path 1917" class="cls-10" d="M217.1,291.792a169.941,169.941,0,0,1,33.516.751c18.993,2.235,61.434,4.9,62.169,9.692s-32.928,105.622-32.928,108.216,2.97,5.222,3.72,6.706a8.633,8.633,0,0,1,.751,3.361s-9.121,9.79-16.2,12.45-13.054.163-14.522.163-1.485-10.051-.359-14.9,2.97-17.133,3.345-18.243,20.772-72.808,20.772-72.808-55.479,8.942-88.619,5.205-36.5-8.926-38.362-16.758,1.86-23.464,1.86-23.464Z" transform="translate(-110.732 -101.923)"/>
      <path id="Path_1918" data-name="Path 1918" class="cls-11" d="M189.473,306.39a24.359,24.359,0,0,1-2.513,3.068" transform="translate(-87.296 -92.387)"/>
      <path id="Path_1919" data-name="Path 1919" class="cls-11" d="M197.582,294.11a140.948,140.948,0,0,1-7.392,15.648" transform="translate(-85.255 -100.145)"/>
      <path id="Path_1920" data-name="Path 1920" class="cls-11" d="M199.5,296.4a39.57,39.57,0,0,1-19.369,16.317" transform="translate(-91.61 -98.698)"/>
      <path id="Path_1921" data-name="Path 1921" class="cls-5" d="M243.82,309.588c1.273-.49,2.5-1,3.655-1.518" transform="translate(-51.376 -91.326)"/>
      <path id="Path_1922" data-name="Path 1922" class="cls-5" d="M228,315.368A191.675,191.675,0,0,0,249.212,310" transform="translate(-61.37 -90.107)"/>
      <path id="Path_1923" data-name="Path 1923" class="cls-5" d="M280.259,239.509c.783-3.117,2.089-2.872,1.044-3.9-1.436-1.436-2.594.261-6.755,2.594s-8.306,5.189-8.306,5.189a4.177,4.177,0,0,1,1.028-2.333,11.112,11.112,0,0,0,1.632-5.711c0-1.632-1.305-1.305-1.827.261s-5.189,4.406-5.45,5.711-1.191,6.429-1.191,6.429c-1.485,2.235-1.485,12.662-1.485,12.662l-30.236,22.714L213.44,301.074s6.706,10.8,10.427,9.317,5.58-2.986,14.522-10.443c7.571-6.315,26.548-35.441,26.548-35.441a70.486,70.486,0,0,0,9.35-7.016,22.665,22.665,0,0,0,5.646-13.706A17.2,17.2,0,0,1,280.259,239.509Z" transform="translate(-70.567 -137.948)"/>
      <path id="Path_1924" data-name="Path 1924" class="cls-5" d="M168.928,219.806s2.872-10.769,15.077-8.616,21.539,12.205,23.693,15.8-39.488-1.436-39.488-1.436Z" transform="translate(-99.14 -152.707)"/>
      <path id="Path_1925" data-name="Path 1925" class="cls-5" d="M212.258,283.536s-2.839,3.068,0,7.9c1.942,3.345,5.368,5.907,11.928,4.781,6.135-1.077,15.355-16.317,15.355-27.038s-7.9-11.422-10.769-9.333S212.258,283.536,212.258,283.536Z" transform="translate(-72.111 -122.385)"/>
      <path id="Path_1926" data-name="Path 1926" class="cls-5" d="M187.317,216.068s-29.045,13.788-33.14,16.317-6.706,35-6.706,40.6,4.1,60.374,5.205,69.642,36.877,15.648,48.8,12.287,23.546-11.83,23.546-14.816-1.126-28.294-.375-33.14,7.441-25.324,7.441-25.324l20.331,32.439s2.138,3.981,9.692.848c10.8-4.471,11.7-21.751,11.7-21.751s-11.912-20.853-15.273-31.28-4.9-18.259-6.331-20.119-35.017-17.508-40.973-21.6a26.483,26.483,0,0,0-23.921-4.1Z" transform="translate(-112.242 -150.226)"/>
      <line id="Line_199" data-name="Line 199" class="cls-11" x1="9.676" y1="14.163" transform="translate(110.091 117.241)"/>
      <line id="Line_200" data-name="Line 200" class="cls-11" x1="17.052" y1="8.403" transform="translate(101.149 120.978)"/>
      <path id="Path_1927" data-name="Path 1927" class="cls-4" d="M167.35,320.676l14.881,105.768a1.779,1.779,0,0,0,2.17,1.485h0a1.811,1.811,0,0,0,1.371-1.909L175.28,318.93Z" transform="translate(-99.684 -84.465)"/>
      <path id="Path_1928" data-name="Path 1928" class="cls-4" d="M150.8,320.51,125.928,424.386a1.779,1.779,0,0,0,1.485,2.17h0a1.762,1.762,0,0,0,1.958-1.273l28.882-100.808Z" transform="translate(-125.881 -83.467)"/>
      <path id="Path_1929" data-name="Path 1929" class="cls-4" d="M174.965,319.72,159.138,425.342a1.795,1.795,0,0,0,1.632,2.056h0a1.779,1.779,0,0,0,1.844-1.436L182.7,323.032Z" transform="translate(-104.884 -83.966)"/>
      <path id="Path_1930" data-name="Path 1930" class="cls-4" d="M203.17,320.689l14.881,105.768a1.779,1.779,0,0,0,2.17,1.485h0a1.811,1.811,0,0,0,1.371-1.909L211.051,318.91Z" transform="translate(-77.055 -84.478)"/>
      <path id="Path_1931" data-name="Path 1931" class="cls-9" d="M126.775,258,144.887,375.76H273.7s1.909-33.94-3.769-45.933S194.133,343.55,191.6,342.881c-1.876-.473.9-61.271,4.34-85.029a11.781,11.781,0,0,0-11.667-13.462H138.426A11.781,11.781,0,0,0,126.775,258Z" transform="translate(-125.406 -131.554)"/>
      <path id="Path_1932" data-name="Path 1932" class="cls-4" d="M251.865,329.83c-5.678-11.993-75.794,13.723-78.323,13.054-1.876-.473.9-61.271,4.34-85.029a11.422,11.422,0,1,0-22.452.114l18.112,117.762h82.092S257.543,341.824,251.865,329.83Z" transform="translate(-107.345 -131.558)"/>
      <path id="Path_1933" data-name="Path 1933" class="cls-5" d="M256.4,237.48s-2.072,2.072-5.189,5.711" transform="translate(-46.707 -135.92)"/>
      <path id="Path_1934" data-name="Path 1934" class="cls-5" d="M255.769,240.06s-2.529,5.14-4.079,7.473" transform="translate(-46.404 -134.29)"/>
    </g>
    <g id="Plants--inject-1" transform="translate(36.839 363.376)">
      <path id="Path_1935" data-name="Path 1935" class="cls-12" d="M42.584,280.856c2.709,1.175,9.317,1.028,9.333,1.028s-1.42-4.324-1.55-4.585c-1.452-3.051-6.054-8.061-9.79-7.555a4.455,4.455,0,0,0-3.573,5.6C37.624,277.919,40.267,279.844,42.584,280.856Z" transform="translate(-36.839 -250.486)"/>
      <path id="Path_1936" data-name="Path 1936" class="cls-12" d="M129.217,265.764c-3.753-.408-8.159,4.732-9.578,7.816-.114.261-1.485,4.634-1.42,4.634h0c-.718.8-1.469,1.632-2.268,2.643-1.469,1.795-3.1,3.851-4.748,6.2a83.431,83.431,0,0,0-4.9,7.832,59.7,59.7,0,0,0-4.21,9.464.31.31,0,0,1,0,.114v-4.422c-.441-3.345-3.263-9.546-6.951-10.231a4.455,4.455,0,0,0-5.156,4.128c-.228,2.66,1.632,5.319,3.573,6.984,2.121,1.893,8,3.72,8.469,3.867a76.364,76.364,0,0,0-2.48,10.361c-.375,2.023-.669,4.063-.946,6.119V319.35c-.424-3.345-3.263-9.546-6.935-10.231a4.471,4.471,0,0,0-5.156,4.194c-.212,2.66,1.632,5.319,3.59,7s6.87,3.361,8.159,3.769c-.1.8-.212,1.632-.31,2.366-.441,3.786-.881,7.571-1.42,11.259-.2,1.305-.424,2.578-.653,3.851v-1.632c-.441-3.345-3.263-9.546-6.951-10.231a4.471,4.471,0,0,0-5.14,4.21c-.212,2.643,1.632,5.3,3.59,6.984a28.557,28.557,0,0,0,7.914,3.639c-.277,1.305-.555,2.594-.881,3.851-.245.848-.408,1.632-.7,2.513s-.538,1.632-.8,2.48c-.571,1.55-1.142,3.166-1.73,4.667-.408,1.061-.816,2.056-1.207,3.051.2-1.289.538-3.835.555-4.047a17.394,17.394,0,0,0-2.333-8.436,3.966,3.966,0,0,0,0-.979,4.455,4.455,0,0,0-5.5-3.8c-3.655.963-5.956,7.359-6.135,10.72,0,.2.131,2.366.228,3.737-.179-.8-.359-1.632-.555-2.382-.375-1.632-.816-3.263-1.256-4.9-.261-.832-.506-1.632-.767-2.5s-.587-1.632-.881-2.545c-.718-1.974-1.534-3.932-2.415-5.891,1.4-.343,6.4-1.632,8.4-3.149s4.112-4.047,4.1-6.706a4.455,4.455,0,0,0-4.9-4.569c-3.753.408-7.016,6.38-7.685,9.676,0,.212-.277,2.627-.375,3.965-.522-1.175-1.061-2.35-1.632-3.525-1.632-3.361-3.492-6.739-5.27-10.1l-1.632-3.1c.506-.114,6.527-1.485,8.713-3.263s4.112-4.03,4.1-6.706a4.471,4.471,0,0,0-4.9-4.569c-3.753.408-7,6.38-7.685,9.676,0,.261-.375,3.737-.408,4.634-1.175-2.268-2.333-4.553-3.378-6.837a78.715,78.715,0,0,1-3.688-9.513c.228,0,6.527-1.469,8.779-3.263,1.991-1.534,4.112-4.047,4.079-6.706a4.455,4.455,0,0,0-4.9-4.569c-3.753.408-7,6.38-7.685,9.676,0,.261-.392,4.014-.408,4.7a1.978,1.978,0,0,0-.2-.571,58.576,58.576,0,0,1-1.909-10.035c-.2-1.877-.294-3.671-.359-5.434,1.191-.147,6.527-.865,8.86-2.219s4.536-3.573,4.9-6.217a4.471,4.471,0,0,0-4.291-5.075c-3.786,0-7.669,5.581-8.713,8.779,0,.179-.424,2.007-.685,3.345V286.03c0-2.855.179-5.466.359-7.767.114-1.322.245-2.513.375-3.622,1.093-.751,5.45-3.818,6.788-6.021s2.382-5.254,1.4-7.734a4.455,4.455,0,0,0-6.135-2.513c-3.361,1.73-4.242,8.469-3.688,11.8,0,.277,1.322,4.683,1.371,4.65h0c-.147,1.061-.294,2.2-.424,3.459-.228,2.317-.457,4.9-.538,7.8a81.585,81.585,0,0,0,.228,9.236,58.332,58.332,0,0,0,1.632,10.215.31.31,0,0,1,0,.114c-.587-.93-2.333-3.476-2.5-3.655-2.2-2.545-7.963-6.184-11.422-4.7a4.455,4.455,0,0,0-1.991,6.331c1.289,2.333,4.357,3.492,6.853,3.851,2.807.408,8.713-1.305,9.187-1.436a79.6,79.6,0,0,0,3.573,9.921c.816,1.876,1.632,3.753,2.594,5.613-.538-.8-1.028-1.5-1.093-1.632-2.2-2.546-7.963-6.184-11.422-4.7a4.455,4.455,0,0,0-1.681,6.445c1.273,2.333,4.357,3.492,6.837,3.851s7.588-.979,8.926-1.371c.359.718.7,1.436,1.061,2.138,1.632,3.41,3.443,6.8,5.026,10.182.555,1.191,1.061,2.382,1.632,3.573l-.963-1.371c-2.2-2.545-7.963-6.168-11.422-4.7a4.471,4.471,0,0,0-1.974,6.347c1.289,2.333,4.357,3.492,6.837,3.851a28.848,28.848,0,0,0,8.7-1.305c.489,1.24.979,2.48,1.387,3.688.277.848.587,1.632.8,2.5s.473,1.632.7,2.513c.392,1.632.8,3.263,1.142,4.9.245,1.093.457,2.154.669,3.263-.555-1.191-1.632-3.508-1.779-3.688-1.795-2.856-6.935-7.31-10.59-6.38a4.471,4.471,0,0,0-2.9,5.972c.914,2.5,3.769,4.112,6.168,4.9,2.66.8,8.518,0,9.252,0,.359,1.746.669,3.459.963,5.075.979,5.6,1.632,10.313,1.974,13.592a16.1,16.1,0,0,0,.179,1.632H66.82l4.145,80.885H90.316l4.145-80.885H83.871l.245-.473c1.452-3.035,3.459-7.375,5.629-12.695.7-1.632,1.4-3.476,2.1-5.336.718.147,6.527,1.322,9.219.7,2.464-.555,5.434-1.942,6.527-4.357a4.455,4.455,0,0,0-2.464-6.168c-3.573-1.207-9.023,2.855-11.03,5.564-.114.163-1.207,2.04-1.876,3.263l.865-2.284c.571-1.55,1.093-3.133,1.632-4.814l.734-2.5c.277-.832.457-1.73.685-2.611.473-2.04.865-4.128,1.224-6.25,1.354.49,6.233,2.187,8.746,2.007s5.662-1.093,7.114-3.263a4.471,4.471,0,0,0-1.5-6.527c-3.263-1.632-9.366,1.469-11.748,3.835-.147.163-1.632,2.056-2.48,3.117.2-1.273.392-2.545.555-3.851.473-3.737.816-7.539,1.191-11.324.114-1.159.245-2.317.359-3.476.49.179,6.233,2.317,9.056,2.121,2.5-.179,5.646-1.093,7.1-3.263a4.471,4.471,0,0,0-1.5-6.527c-3.263-1.713-9.35,1.469-11.748,3.835-.179.179-2.366,2.921-2.888,3.639.277-2.545.571-5.075.963-7.571a76.838,76.838,0,0,1,2.17-9.954c.228,0,6.2,2.333,9.105,2.138,2.5-.18,5.646-1.11,7.1-3.263a4.455,4.455,0,0,0-1.5-6.527c-3.263-1.73-9.35,1.452-11.748,3.835-.179.179-2.529,3.133-2.921,3.688l.147-.571a57.989,57.989,0,0,1,3.949-9.431c.865-1.632,1.779-3.263,2.692-4.732,1.077.538,6,2.937,8.616,3.035s5.744-.473,7.441-2.529a4.455,4.455,0,0,0-.783-6.527c-3.149-2.089-9.464.408-12.091,2.513-.147.114-1.485,1.436-2.431,2.415.424-.669.848-1.371,1.273-1.991,1.632-2.382,3.166-4.455,4.6-6.3.816-1.028,1.632-1.942,2.3-2.79,1.322,0,6.657-.2,8.991-1.289s4.9-3.068,5.434-5.662a4.455,4.455,0,0,0-3.7-5.923ZM87.689,366.523c-2.268,5.222-4.357,9.48-5.842,12.434l-.832,1.632h-.245a15.568,15.568,0,0,0-.261-1.909c-.457-3.263-1.175-8.061-2.3-13.69-.343-1.779-.751-3.671-1.191-5.613a50.012,50.012,0,0,0,5.156-2.431,32.636,32.636,0,0,0,7.522,4.9C89.027,363.422,88.342,365.022,87.689,366.523Z" transform="translate(-36.745 -257.928)"/>
      <path id="Path_1937" data-name="Path 1937" class="cls-12" d="M84.937,283.923s1.207-4.389,1.24-4.683c.473-3.345-.587-10.051-4-11.7a4.471,4.471,0,0,0-6.054,2.627c-.914,2.5.245,5.564,1.632,7.685C79.39,280.4,84.937,283.923,84.937,283.923Z" transform="translate(-12.226 -252.101)"/>
    </g>
    <g id="Floor--inject-1" transform="translate(60.24 566.774)">
      <rect id="Rectangle_754" data-name="Rectangle 754" class="cls-13" width="663.704" height="8.126"/>
    </g>
  </g>
</svg>
