<svg xmlns="http://www.w3.org/2000/svg" xmlns:xlink="http://www.w3.org/1999/xlink" width="976.405" height="761.601" viewBox="0 0 976.405 761.601">
  <defs>
    <style>
      .cls-1, .cls-12, .cls-14, .cls-3 {
        fill: #fff;
      }

      .cls-1, .cls-15, .cls-17, .cls-5, .cls-7, .cls-8, .cls-9 {
        stroke: #263238;
        stroke-width: 1.232px;
      }

      .cls-1, .cls-15, .cls-17, .cls-7, .cls-8, .cls-9 {
        stroke-linecap: round;
        stroke-linejoin: round;
      }

      .cls-2 {
        fill: #8167f2;
      }

      .cls-3 {
        opacity: 0.7;
      }

      .cls-4, .cls-9 {
        fill: #64b4d2;
      }

      .cls-5, .cls-7 {
        fill: none;
      }

      .cls-5 {
        stroke-miterlimit: 10;
      }

      .cls-17, .cls-6 {
        fill: #8d3ddc;
      }

      .cls-16, .cls-8 {
        fill: #263238;
      }

      .cls-10 {
        clip-path: url(#clip-path);
      }

      .cls-11, .cls-14 {
        opacity: 0.5;
      }

      .cls-13 {
        clip-path: url(#clip-path-2);
      }

      .cls-15 {
        fill: #8a51e4;
      }
    </style>
    <clipPath id="clip-path">
      <path id="Path_2177" data-name="Path 2177" class="cls-1" d="M413.041,264.682c-6.009,10.907-11.035,19.61-11.035,19.61s-27.266-44.909-36.8-52.48-44.909-14.307-44.909-14.307a141.145,141.145,0,0,0-43.69,0s-35.436,6.8-44.909,14.307-36.826,52.48-36.826,52.48-5.432-9.431-11.762-20.958l-18.755,11.42c5.475,18.8,11.185,36.826,14.157,41.573,6.822,10.907,14.328,24.55,32.72,16.36s41.595-34.751,41.595-34.751l38.9.6h5.389l47.048-.6s23.182,26.582,41.573,34.751,25.919-5.453,32.72-16.36c2.994-4.769,8.725-22.861,14.221-41.723Z" transform="translate(-164.35 -215.805)"/>
    </clipPath>
    <clipPath id="clip-path-2">
      <path id="Path_2182" data-name="Path 2182" class="cls-1" d="M210.357,239.639s-8.854,19.076-6.8,31.351a129.8,129.8,0,0,1,2.032,14.97s-12.831,35.457-14.97,48.4a29.276,29.276,0,0,0,11.591,28.635c7.506,5.453,109.75,6.822,125.425,2.737s14.307-19.1,13.622-32.72-6.052-42.921-6.052-42.921,2.139-41.595-6.8-51.817" transform="translate(-190.19 -238.27)"/>
    </clipPath>
  </defs>
  <g id="_400_Error_Bad_Request-bro" data-name="400 Error Bad Request-bro" transform="translate(-18.384 -67.109)">
    <g id="background-simple--inject-2" transform="translate(57.499 67.109)">
      <path id="Path_2123" data-name="Path 2123" class="cls-2" d="M222.28,805.848s102.65,53.314,219.82-2.887,155.194-165.1,216.1-247c31.864-42.771,84-66.723,123.757-102.778,127.157-115.224,81.265-307.949-35.051-360.75-100.7-45.765-217.04-29.362-361.2,48.117S137.637,268.027,62,422.429,94.737,731.148,222.28,805.848Z" transform="translate(-37.003 -67.109)"/>
      <path id="Path_2124" data-name="Path 2124" class="cls-3" d="M222.28,805.848s102.65,53.314,219.82-2.887,155.194-165.1,216.1-247c31.864-42.771,84-66.723,123.757-102.778,127.157-115.224,81.265-307.949-35.051-360.75-100.7-45.765-217.04-29.362-361.2,48.117S137.637,268.027,62,422.429,94.737,731.148,222.28,805.848Z" transform="translate(-37.003 -67.109)"/>
    </g>
    <g id="Plants--inject-2" transform="translate(735.46 504.671)">
      <path id="Path_2125" data-name="Path 2125" class="cls-4" d="M417.294,505.7s-7.057-30.218-1.8-57.056,17.835-8.918,32.078-26.753,7.143-51.71,23.182-65.974S510,343.428,515.346,316.675s8.918-48.138,19.61-44.567-8.918,35.649-8.918,55.281,10.693,32.078,3.571,51.71-37.446,12.489-37.446,35.671,12.489,46.342,1.775,62.4-39.221,19.61-42.771,28.528-12.489,24.957-21.385,24.957S417.294,505.7,417.294,505.7Z" transform="translate(-286.251 -271.717)"/>
      <path id="Path_2126" data-name="Path 2126" class="cls-4" d="M479.249,440.566c1.8-5.346-1.775-51.71-17.814-60.628s-33.9-5.346-42.771-21.385-8.918-23.182-17.814-24.957-51.731-8.918-46.364,0,37.446-5.346,37.446,12.468-3.571,46.363,7.121,53.463,39.242,5.346,37.446,21.385-7.121,21.385,1.8,26.732,33.874,28.55,37.446,10.693Z" transform="translate(-354.023 -206.262)"/>
      <path id="Path_2127" data-name="Path 2127" class="cls-5" d="M422.642,493.635s-8.3-25.94,14.542-73.715,39.456-84.109,49.849-102.8" transform="translate(-277.571 -220.025)"/>
      <path id="Path_2128" data-name="Path 2128" class="cls-5" d="M453.47,474.59s-3.1-12.468-13.494-46.727-22.84-43.626-40.5-55.046-18.691-30.111-21.792-35.307" transform="translate(-327.089 -196.81)"/>
      <path id="Path_2129" data-name="Path 2129" class="cls-4" d="M433.52,432.781s2.138-18.691,18.691-23.888,32.185-3.122,35.307-14.542,3.1-22.84,10.372-29.084,16.616-9.345,17.664-6.223-10.393,5.2-10.393,15.569,15.569,36.355-7.271,46.748-41.53,1.026-49.828,8.3-13.516,12.468-13.516,12.468Z" transform="translate(-263.513 -173.691)"/>
      <path id="Path_2130" data-name="Path 2130" class="cls-5" d="M432.55,439.762s7.378-26.967,24.914-33.233,37.382,7.271,45.679-5.2,2.139-24.914,1.048-33.233" transform="translate(-264.618 -161.982)"/>
      <path id="Path_2131" data-name="Path 2131" class="cls-4" d="M475.025,399.66h-64.37a5.175,5.175,0,0,0-5.175,5.2h0a5.175,5.175,0,0,0,5.175,5.2h.535l5,13.152a5.389,5.389,0,0,0,5.026,3.464h43.263a5.389,5.389,0,0,0,5.026-3.464l5.026-13.152h.492a5.2,5.2,0,0,0,5.2-5.2h0a5.2,5.2,0,0,0-5.2-5.2Z" transform="translate(-295.438 -126.05)"/>
    </g>
    <g id="Text--inject-2" transform="translate(629.806 292.275)">
      <path id="Path_2132" data-name="Path 2132" class="cls-6" d="M311.889,311.423a1.668,1.668,0,0,1-.6-1.347V279a1.711,1.711,0,0,1,.6-1.326,1.882,1.882,0,0,1,1.39-.556h9.3q12.083,0,12.083,8.768a7.806,7.806,0,0,1-7.378,7.827h0a10.415,10.415,0,0,1,6.416,2.652,8.062,8.062,0,0,1,2.374,6.116,9.025,9.025,0,0,1-.663,3.486,8.723,8.723,0,0,1-1.989,2.994,9.131,9.131,0,0,1-3.593,2.139,15.975,15.975,0,0,1-5.175.77h-11.4A1.947,1.947,0,0,1,311.889,311.423Zm10.393-18.947a10.82,10.82,0,0,0,6.416-1.561,5.646,5.646,0,0,0,2.139-4.94,6.416,6.416,0,0,0-.47-2.481,4.277,4.277,0,0,0-1.2-1.668,5.6,5.6,0,0,0-1.839-1.005,10.561,10.561,0,0,0-2.138-.513c-.727,0-1.54-.107-2.459-.107h-7.506v12.275Zm1.433,16.4a10.693,10.693,0,0,0,6.309-1.454,6.266,6.266,0,0,0,1.946-5.3,5.475,5.475,0,0,0-2.438-5.09,14.734,14.734,0,0,0-7.549-1.518h-6.8v13.43Z" transform="translate(-297.023 -53.17)"/>
      <path id="Path_2133" data-name="Path 2133" class="cls-6" d="M326.989,305.289a6.159,6.159,0,0,1-2.374-5.218,8.917,8.917,0,0,1,.342-2.673,4.471,4.471,0,0,1,1.176-1.925,6.2,6.2,0,0,1,2.032-1.326,13.6,13.6,0,0,1,3.165-.834,35.72,35.72,0,0,1,4.277-.428c1.54,0,3.4-.107,5.624-.107V289.7a4.983,4.983,0,0,0-1.561-4.063,6.415,6.415,0,0,0-4.277-1.326,15.376,15.376,0,0,0-3.978.47,25.654,25.654,0,0,0-3.657,1.433,1.069,1.069,0,0,1-.535.15,1.284,1.284,0,0,1-.919-.428,1.476,1.476,0,0,1-.406-.962.962.962,0,0,1,.471-.855,16.851,16.851,0,0,1,9.089-2.267,10.437,10.437,0,0,1,6.843,2.01,7.506,7.506,0,0,1,2.459,6.18v14.97a1.412,1.412,0,0,1-.577,1.176,2.138,2.138,0,0,1-1.3.428,1.711,1.711,0,0,1-1.176-.406,1.347,1.347,0,0,1-.492-1.112v-3.251a8.255,8.255,0,0,1-7.955,5.218,10.008,10.008,0,0,1-6.266-1.775Zm12-3.122a9.388,9.388,0,0,0,2.245-6.416v-.813a60.04,60.04,0,0,0-8.255.406,7.335,7.335,0,0,0-3.828,1.454,4.127,4.127,0,0,0-1.112,3.165c0,3.186,1.882,4.769,5.667,4.769a6.865,6.865,0,0,0,5.282-2.566Z" transform="translate(-281.862 -47.807)"/>
      <path id="Path_2134" data-name="Path 2134" class="cls-6" d="M342.474,311.364a8.811,8.811,0,0,1-3.293-2.823,12.98,12.98,0,0,1-1.839-3.956,17.751,17.751,0,0,1-.642-4.855,15.551,15.551,0,0,1,.706-4.748,12.939,12.939,0,0,1,2.032-3.978,9.561,9.561,0,0,1,3.443-2.759,10.693,10.693,0,0,1,4.683-1.026,9.325,9.325,0,0,1,4.961,1.326,7.827,7.827,0,0,1,3.229,3.721V278.858a1.433,1.433,0,0,1,.535-1.219,1.86,1.86,0,0,1,1.262-.449,1.9,1.9,0,0,1,1.262.449,1.475,1.475,0,0,1,.513,1.219v31.437a1.369,1.369,0,0,1-.513,1.155,1.9,1.9,0,0,1-1.24.428,1.732,1.732,0,0,1-1.39-.47,1.6,1.6,0,0,1-.428-1.112v-2.908a8.3,8.3,0,0,1-3.443,3.807,10.415,10.415,0,0,1-5.154,1.283,10.222,10.222,0,0,1-4.684-1.112Zm8.939-2.245a6.2,6.2,0,0,0,2.545-2.31,11.419,11.419,0,0,0,1.326-3.251,17.108,17.108,0,0,0,.406-3.914,14.733,14.733,0,0,0-.449-3.7,11.444,11.444,0,0,0-1.347-3.187,6.886,6.886,0,0,0-2.459-2.31,7.249,7.249,0,0,0-3.593-.855,6.95,6.95,0,0,0-2.951.62,6.417,6.417,0,0,0-2.139,1.6,9.41,9.41,0,0,0-1.411,2.352,14.965,14.965,0,0,0-.813,2.759,17.935,17.935,0,0,0-.235,2.887,16.95,16.95,0,0,0,.363,3.507,12.531,12.531,0,0,0,1.155,3.208,6.008,6.008,0,0,0,2.245,2.438,6.628,6.628,0,0,0,3.464.962,8.98,8.98,0,0,0,3.892-.813Z" transform="translate(-268.092 -53.091)"/>
      <path id="Path_2135" data-name="Path 2135" class="cls-6" d="M358.438,311.5a1.732,1.732,0,0,1-.577-1.369V279.014a1.839,1.839,0,0,1,.577-1.347,1.9,1.9,0,0,1,1.39-.556H370.2a21.289,21.289,0,0,1,2.973.128,24.279,24.279,0,0,1,2.823.471,8.556,8.556,0,0,1,2.588.984,9.023,9.023,0,0,1,2.032,1.561,5.794,5.794,0,0,1,1.411,2.331,9.9,9.9,0,0,1,.492,3.208,7.676,7.676,0,0,1-1.754,5.09,8.853,8.853,0,0,1-5.24,2.844h0a6.886,6.886,0,0,1,4.277,2.417,10.073,10.073,0,0,1,1.86,5.133l.941,8.362a1.19,1.19,0,0,1,0,.15v.128a1.818,1.818,0,0,1-.513,1.369,1.711,1.711,0,0,1-1.283.513,2.373,2.373,0,0,1-1.454-.47,1.925,1.925,0,0,1-.727-1.347l-.813-7.057c-.128-1.112-.257-2.139-.385-2.78a10.359,10.359,0,0,0-.556-1.989,5.177,5.177,0,0,0-.813-1.39,4.279,4.279,0,0,0-1.24-.813,5.965,5.965,0,0,0-1.668-.428,16.787,16.787,0,0,0-2.288-.128h-9.046v14.563a1.625,1.625,0,0,1-.6,1.369,2.138,2.138,0,0,1-1.411.471,2.011,2.011,0,0,1-1.369-.3Zm11.655-18.969a18,18,0,0,0,3.229-.278,9.752,9.752,0,0,0,2.673-.962,4.554,4.554,0,0,0,1.925-1.989,6.97,6.97,0,0,0,.684-3.208,5.774,5.774,0,0,0-.535-2.588,4.747,4.747,0,0,0-1.326-1.711,6.245,6.245,0,0,0-1.968-.941,11.464,11.464,0,0,0-2.139-.449H361.946v12.211Z" transform="translate(-244.001 -53.182)"/>
      <path id="Path_2136" data-name="Path 2136" class="cls-6" d="M383.905,307.1a11.205,11.205,0,0,1-8.34-3.422,12.489,12.489,0,0,1-3.357-9.132,14.414,14.414,0,0,1,1.347-6.287,11.271,11.271,0,0,1,4.042-4.641,10.907,10.907,0,0,1,6.244-1.775,13.261,13.261,0,0,1,4.17.62,8.916,8.916,0,0,1,3.079,1.732,9.6,9.6,0,0,1,2.139,2.63,13,13,0,0,1,1.219,3.251,19.712,19.712,0,0,1,.428,3.678,1.2,1.2,0,0,1-.406.941,1.689,1.689,0,0,1-1.155.364H375.907a9.431,9.431,0,0,0,2.374,6.95,8.276,8.276,0,0,0,5.966,2.5,10.245,10.245,0,0,0,4.277-.834,16.124,16.124,0,0,0,3.614-2.288,1.5,1.5,0,0,1,.941-.364,1.069,1.069,0,0,1,.791.342,1.155,1.155,0,0,1,.321.834,1.711,1.711,0,0,1-.577,1.219,14.1,14.1,0,0,1-3.956,2.652,13.5,13.5,0,0,1-5.624,1.027Zm7.677-14.307a10.693,10.693,0,0,0-2.139-6.138,6.416,6.416,0,0,0-5.389-2.352,7.378,7.378,0,0,0-5.817,2.459,10.135,10.135,0,0,0-2.4,6.031Z" transform="translate(-227.681 -47.798)"/>
      <path id="Path_2137" data-name="Path 2137" class="cls-6" d="M404.755,315.416a1.5,1.5,0,0,1-.6-1.155v-12.19a7.784,7.784,0,0,1-3.229,3.7,9.367,9.367,0,0,1-4.961,1.326,10.457,10.457,0,0,1-4.683-1.026,9.561,9.561,0,0,1-3.443-2.759,13.067,13.067,0,0,1-2.031-3.956,15.756,15.756,0,0,1-.727-4.748,17.924,17.924,0,0,1,.642-4.876,13.515,13.515,0,0,1,1.9-4.042,8.554,8.554,0,0,1,3.293-2.823,10.222,10.222,0,0,1,4.641-1.026,10.072,10.072,0,0,1,5.132,1.3,8.34,8.34,0,0,1,3.464,3.807v-2.887a1.689,1.689,0,0,1,.406-1.155,1.86,1.86,0,0,1,1.411-.47,1.9,1.9,0,0,1,1.24.428,1.433,1.433,0,0,1,.513,1.2v30.2a1.5,1.5,0,0,1-.535,1.219,2.138,2.138,0,0,1-2.5,0Zm-4.876-11.634a6.565,6.565,0,0,0,2.459-2.31,11.489,11.489,0,0,0,1.369-3.186,14.73,14.73,0,0,0,.449-3.7,18.326,18.326,0,0,0-.406-3.913,11.059,11.059,0,0,0-1.326-3.229,6.139,6.139,0,0,0-2.566-2.31,8.555,8.555,0,0,0-3.914-.834,6.672,6.672,0,0,0-2.887.663,5.9,5.9,0,0,0-2.139,1.647,8.553,8.553,0,0,0-1.326,2.331,12.678,12.678,0,0,0-.749,2.695,19.59,19.59,0,0,0-.193,2.78,15.785,15.785,0,0,0,.235,2.887,13.083,13.083,0,0,0,.813,2.759,8.3,8.3,0,0,0,1.411,2.352,6.417,6.417,0,0,0,2.139,1.6,6.629,6.629,0,0,0,2.951.62A7.185,7.185,0,0,0,399.879,303.782Z" transform="translate(-213.01 -47.797)"/>
      <path id="Path_2138" data-name="Path 2138" class="cls-6" d="M401.619,304.458a9.794,9.794,0,0,1-2.352-7.185V283.778a1.54,1.54,0,0,1,.535-1.24,2.138,2.138,0,0,1,2.523,0,1.476,1.476,0,0,1,.535,1.24v13.537q0,7.014,5.945,7.014a6.843,6.843,0,0,0,5.026-1.946,8.3,8.3,0,0,0,2.267-5.517V283.778a1.454,1.454,0,0,1,.556-1.219,1.989,1.989,0,0,1,1.262-.449,1.968,1.968,0,0,1,1.262.428,1.519,1.519,0,0,1,.513,1.24v20.829a1.561,1.561,0,0,1-.535,1.24,1.945,1.945,0,0,1-1.283.428,1.86,1.86,0,0,1-1.24-.428,1.411,1.411,0,0,1-.535-1.2v-2.866a6.78,6.78,0,0,1-3.015,3.7,9.41,9.41,0,0,1-4.983,1.3,8.683,8.683,0,0,1-6.48-2.331Z" transform="translate(-196.893 -47.489)"/>
      <path id="Path_2139" data-name="Path 2139" class="cls-6" d="M423.465,307.1a11.205,11.205,0,0,1-8.34-3.422,12.489,12.489,0,0,1-3.357-9.131,14.414,14.414,0,0,1,1.347-6.287,11.228,11.228,0,0,1,4.021-4.641,11.034,11.034,0,0,1,6.266-1.775,13.343,13.343,0,0,1,4.17.62,8.918,8.918,0,0,1,3.08,1.732,10.031,10.031,0,0,1,2.139,2.63,13,13,0,0,1,1.219,3.251,19.719,19.719,0,0,1,.428,3.678,1.283,1.283,0,0,1-.406.941,1.732,1.732,0,0,1-1.155.364H415.467a9.43,9.43,0,0,0,2.374,6.95,8.19,8.19,0,0,0,5.966,2.5,10.309,10.309,0,0,0,4.277-.834,16.124,16.124,0,0,0,3.614-2.288,1.476,1.476,0,0,1,.92-.364,1.091,1.091,0,0,1,.813.342,1.155,1.155,0,0,1,.321.834,1.711,1.711,0,0,1-.577,1.219,14.413,14.413,0,0,1-3.956,2.652,13.557,13.557,0,0,1-5.624,1.027Zm7.677-14.307A10.692,10.692,0,0,0,429,286.653a6.415,6.415,0,0,0-5.389-2.352,7.356,7.356,0,0,0-5.817,2.459,10.008,10.008,0,0,0-2.31,6.116Z" transform="translate(-182.641 -47.798)"/>
      <path id="Path_2140" data-name="Path 2140" class="cls-6" d="M439.091,282.461a15.485,15.485,0,0,1,3.379,1.262,1.326,1.326,0,0,1,.749,1.2,1.09,1.09,0,0,1-.321.791,1.048,1.048,0,0,1-.855.342,3.039,3.039,0,0,1-.641-.107l-.813-.321-1.176-.449-1.283-.385a9.693,9.693,0,0,0-1.6-.321,11.038,11.038,0,0,0-1.69-.128c-4.277,0-6.416,1.326-6.416,3.935a2.566,2.566,0,0,0,.855,2.139,12.124,12.124,0,0,0,3.828,1.347l4.47,1.112a9.3,9.3,0,0,1,5.026,2.566,6.009,6.009,0,0,1,1.454,4.127,6.287,6.287,0,0,1-2.609,5.539,11.527,11.527,0,0,1-6.843,1.882,16.165,16.165,0,0,1-4.983-.791,12.828,12.828,0,0,1-3.871-1.8,1.432,1.432,0,0,1-.663-1.133,1.155,1.155,0,0,1,.364-.855,1.219,1.219,0,0,1,.9-.342,2.138,2.138,0,0,1,1.026.3,13.6,13.6,0,0,0,7.4,2.138,8.083,8.083,0,0,0,4.577-1.2,3.892,3.892,0,0,0,1.668-3.379,3.636,3.636,0,0,0-.984-2.673,6.843,6.843,0,0,0-3.315-1.518l-4.576-1.112c-.984-.235-1.775-.449-2.4-.642a11.816,11.816,0,0,1-1.925-.791,4.943,4.943,0,0,1-1.54-1.112,5.152,5.152,0,0,1-.877-1.561,6.416,6.416,0,0,1-.364-2.139,5.882,5.882,0,0,1,.813-3.1,5.625,5.625,0,0,1,2.139-2.032,10.694,10.694,0,0,1,3.015-1.069,16.522,16.522,0,0,1,3.507-.342A16.337,16.337,0,0,1,439.091,282.461Z" transform="translate(-167.514 -47.796)"/>
      <path id="Path_2141" data-name="Path 2141" class="cls-6" d="M440.311,303.783V289.262h-3.229q-1.411,0-1.411-1.155t1.411-1.219h3.229l.406-7.228a1.54,1.54,0,0,1,.6-1.027,1.69,1.69,0,0,1,1.091-.513,1.411,1.411,0,0,1,1.026.406,1.433,1.433,0,0,1,.449,1.112v7.25h4.683c.92,0,1.369.428,1.369,1.24s-.449,1.133-1.369,1.133h-4.683v14.264a6.586,6.586,0,0,0,.812,3.871,2.886,2.886,0,0,0,2.481,1.091h1.754a1.5,1.5,0,0,1,1.112.428,1.454,1.454,0,0,1,.406.984,1.2,1.2,0,0,1-.791,1.24,6.948,6.948,0,0,1-2.288.278h-1.5Q440.311,311.289,440.311,303.783Z" transform="translate(-155.411 -52.032)"/>
      <path id="Path_2142" data-name="Path 2142" class="cls-6" d="M363.282,326.041a13.9,13.9,0,0,1-3.336-9.944V303.651H316.812a12.681,12.681,0,0,1-8.854-2.994A9.838,9.838,0,0,1,304.622,293a14.842,14.842,0,0,1,1.775-6.758l38.729-67.407a22.5,22.5,0,0,1,20.722-12.019q9.388,0,14.307,4.448t4.9,15.269v58.339h8.875a10.693,10.693,0,0,1,7.357,2.417A8.811,8.811,0,0,1,404,294.263a9.3,9.3,0,0,1-2.5,6.907,10.222,10.222,0,0,1-7.57,2.481h-8.961v12.19a14.478,14.478,0,0,1-3.293,10.073,13.622,13.622,0,0,1-18.392.128Zm-3.336-41.167V228.609l-30.709,56.244Z" transform="translate(-304.618 -133.228)"/>
      <path id="Path_2143" data-name="Path 2143" class="cls-6" d="M383.83,329.106a37.018,37.018,0,0,1-13.451-9.174,48.161,48.161,0,0,1-8.747-13.986,74.444,74.444,0,0,1-4.919-17.3,128.309,128.309,0,0,1-1.433-19.675,124.4,124.4,0,0,1,1.433-19.354,75.3,75.3,0,0,1,4.876-17.108,48.307,48.307,0,0,1,8.554-13.965,37.53,37.53,0,0,1,13.451-9.174,52.1,52.1,0,0,1,36.911,0,37.125,37.125,0,0,1,13.366,9.046,48.63,48.63,0,0,1,8.811,13.879,73.867,73.867,0,0,1,4.983,17.215,122.091,122.091,0,0,1,1.476,19.61,125.111,125.111,0,0,1-1.433,19.589,74.4,74.4,0,0,1-4.9,17.3A48.673,48.673,0,0,1,434.043,320a37.19,37.19,0,0,1-13.409,9.217,46.9,46.9,0,0,1-18.434,3.443A47.667,47.667,0,0,1,383.83,329.106Zm28.977-19.653a19.8,19.8,0,0,0,6.287-9.773,68.688,68.688,0,0,0,2.887-13.622,156.915,156.915,0,0,0,.791-17.108c0-5.175-.128-9.73-.428-13.644a79.119,79.119,0,0,0-1.732-11.762,32.935,32.935,0,0,0-3.507-9.645,17.558,17.558,0,0,0-5.924-6.095,16.467,16.467,0,0,0-8.875-2.31,17.856,17.856,0,0,0-7.613,1.518,14.028,14.028,0,0,0-5.5,4.512,30.239,30.239,0,0,0-3.678,6.779,42.194,42.194,0,0,0-2.288,8.918c-.535,3.443-.9,6.843-1.091,10.244s-.3,7.207-.3,11.484.107,8.148.3,11.548.556,6.865,1.091,10.329a43.4,43.4,0,0,0,2.288,9,29.485,29.485,0,0,0,3.678,6.8,14.371,14.371,0,0,0,5.5,4.576,17.557,17.557,0,0,0,7.613,1.561A16.445,16.445,0,0,0,412.807,309.452Z" transform="translate(-246.939 -134.154)"/>
      <path id="Path_2144" data-name="Path 2144" class="cls-6" d="M433.9,329.106a37.018,37.018,0,0,1-13.451-9.174,48.162,48.162,0,0,1-8.747-13.986,74.445,74.445,0,0,1-4.919-17.3,128.316,128.316,0,0,1-1.433-19.674,124.384,124.384,0,0,1,1.433-19.354,75.3,75.3,0,0,1,4.876-17.108,48.312,48.312,0,0,1,8.661-13.965,37.53,37.53,0,0,1,13.451-9.174,52.1,52.1,0,0,1,36.911,0,37.3,37.3,0,0,1,13.366,9.046,48.631,48.631,0,0,1,8.811,13.879,73.864,73.864,0,0,1,4.983,17.215,122.088,122.088,0,0,1,1.476,19.61,125.1,125.1,0,0,1-1.433,19.589,74.4,74.4,0,0,1-4.9,17.3A48.673,48.673,0,0,1,484.22,320a37.383,37.383,0,0,1-13.409,9.217,46.9,46.9,0,0,1-18.434,3.443A47.584,47.584,0,0,1,433.9,329.106Zm28.977-19.653a19.8,19.8,0,0,0,6.287-9.773,68.695,68.695,0,0,0,2.887-13.622,156.909,156.909,0,0,0,.791-17.108c0-5.175-.128-9.73-.428-13.644a79.139,79.139,0,0,0-1.732-11.762,33.573,33.573,0,0,0-3.507-9.645,17.558,17.558,0,0,0-5.924-6.095,16.467,16.467,0,0,0-8.875-2.31,17.857,17.857,0,0,0-7.613,1.518,14.027,14.027,0,0,0-5.5,4.512,29.4,29.4,0,0,0-3.678,6.779,42.2,42.2,0,0,0-2.288,8.918c-.535,3.443-.9,6.843-1.091,10.244s-.3,7.207-.3,11.484.107,8.148.3,11.548.556,6.865,1.091,10.329a43.408,43.408,0,0,0,2.288,9,28.7,28.7,0,0,0,3.678,6.8,14.37,14.37,0,0,0,5.5,4.577,17.557,17.557,0,0,0,7.613,1.561A16.445,16.445,0,0,0,462.877,309.452Z" transform="translate(-189.932 -134.154)"/>
      <path id="Path_2145" data-name="Path 2145" class="cls-6" d="M348.3,213.782a2.138,2.138,0,0,1-.727-1.6V174.711a2.4,2.4,0,0,1,.62-1.6,2.139,2.139,0,0,1,1.583-.706h22.241a2.139,2.139,0,0,1,1.518.535,1.989,1.989,0,0,1,0,2.716,2.138,2.138,0,0,1-1.518.535H352.467v14.735h18.648a2.139,2.139,0,0,1,1.54.535,1.882,1.882,0,0,1,.513,1.326,1.732,1.732,0,0,1-.535,1.326,2.138,2.138,0,0,1-1.518.535H352.467V210.7H372.89a2.011,2.011,0,0,1,1.5.535,1.732,1.732,0,0,1,.535,1.326,1.839,1.839,0,0,1-.535,1.369,2.01,2.01,0,0,1-1.5.556H349.922a2.331,2.331,0,0,1-1.625-.706Z" transform="translate(-255.716 -172.399)"/>
      <path id="Path_2146" data-name="Path 2146" class="cls-6" d="M364.992,207.6a1.861,1.861,0,0,1-.62-1.476V180.954a1.732,1.732,0,0,1,.663-1.476,2.31,2.31,0,0,1,1.5-.513,2.139,2.139,0,0,1,1.518.535,1.9,1.9,0,0,1,.663,1.5v3.422a8.7,8.7,0,0,1,2.908-4.6,8.554,8.554,0,0,1,5.56-1.818,1.411,1.411,0,0,1,1.2.6,2.139,2.139,0,0,1,.471,1.369,1.668,1.668,0,0,1-1.818,1.711,9.175,9.175,0,0,0-3.849.77,6.544,6.544,0,0,0-2.609,1.967,8.554,8.554,0,0,0-1.39,2.523,7.485,7.485,0,0,0-.47,2.609v16.488a1.753,1.753,0,0,1-.663,1.454,2.481,2.481,0,0,1-1.583.535,2.288,2.288,0,0,1-1.476-.428Z" transform="translate(-236.591 -166.024)"/>
      <path id="Path_2147" data-name="Path 2147" class="cls-6" d="M374.752,207.6a1.861,1.861,0,0,1-.62-1.476V180.954a1.775,1.775,0,0,1,.642-1.476,2.416,2.416,0,0,1,1.518-.513,2.267,2.267,0,0,1,1.518.535,1.9,1.9,0,0,1,.663,1.5v3.422a8.7,8.7,0,0,1,2.908-4.6A8.383,8.383,0,0,1,386.92,178a1.476,1.476,0,0,1,1.219.6,2.139,2.139,0,0,1,.471,1.369,1.711,1.711,0,0,1-.471,1.219,1.753,1.753,0,0,1-1.369.492,9.068,9.068,0,0,0-3.828.77,6.416,6.416,0,0,0-2.673,1.968,9.177,9.177,0,0,0-1.39,2.523,7.98,7.98,0,0,0-.449,2.609v16.488a1.754,1.754,0,0,1-.663,1.454,2.523,2.523,0,0,1-1.582.535,2.139,2.139,0,0,1-1.433-.428Z" transform="translate(-225.478 -166.025)"/>
      <path id="Path_2148" data-name="Path 2148" class="cls-6" d="M386.83,204.519a17.45,17.45,0,0,1,0-22.284,15.273,15.273,0,1,1,0,22.262Zm17.921-20.081a9.923,9.923,0,0,0-14.97,0,16.168,16.168,0,0,0,0,17.878,8.918,8.918,0,0,0,7.378,3.358,9.174,9.174,0,0,0,7.549-3.336,16.231,16.231,0,0,0,0-17.878Z" transform="translate(-215.594 -165.937)"/>
      <path id="Path_2149" data-name="Path 2149" class="cls-6" d="M400.192,207.6a1.86,1.86,0,0,1-.62-1.476V180.954a1.732,1.732,0,0,1,.663-1.476,2.31,2.31,0,0,1,1.5-.513,2.139,2.139,0,0,1,1.518.535,1.9,1.9,0,0,1,.663,1.5v3.422a8.832,8.832,0,0,1,2.908-4.6,8.554,8.554,0,0,1,5.56-1.818,1.411,1.411,0,0,1,1.2.6,2.139,2.139,0,0,1,.47,1.369,1.668,1.668,0,0,1-1.818,1.711,9.174,9.174,0,0,0-3.849.77,6.544,6.544,0,0,0-2.609,1.968,8.554,8.554,0,0,0-1.39,2.523,7.485,7.485,0,0,0-.47,2.609v16.488a1.754,1.754,0,0,1-.663,1.454,2.48,2.48,0,0,1-1.582.535A2.288,2.288,0,0,1,400.192,207.6Z" transform="translate(-196.514 -166.024)"/>
    </g>
    <g id="Clock--inject-2" transform="translate(141.737 190.982)">
      <circle id="Ellipse_147" data-name="Ellipse 147" class="cls-7" cx="68.241" cy="68.241" r="68.241" transform="matrix(0.974, -0.227, 0.227, 0.974, 0, 31.003)"/>
      <circle id="Ellipse_148" data-name="Ellipse 148" class="cls-7" cx="56.543" cy="56.543" r="56.543" transform="matrix(0.987, -0.159, 0.159, 0.987, 17.185, 35.106)"/>
      <path id="Path_2150" data-name="Path 2150" class="cls-7" d="M97.86,163.35h36.077v52.031" transform="translate(-51.952 -81.409)"/>
    </g>
    <g id="Character--inject-2" transform="translate(221.413 272.282)">
      <path id="Path_2151" data-name="Path 2151" class="cls-8" d="M261.75,413.031a11.42,11.42,0,1,1,3.345,8.1,11.441,11.441,0,0,1-3.345-8.1Z" transform="translate(54.968 108.537)"/>
      <path id="Path_2152" data-name="Path 2152" class="cls-1" d="M264.42,410a5.731,5.731,0,1,1,5.731,5.71A5.731,5.731,0,0,1,264.42,410Z" transform="translate(58.007 111.565)"/>
      <path id="Path_2153" data-name="Path 2153" class="cls-8" d="M204.44,413.031a11.441,11.441,0,1,1,11.441,11.441A11.441,11.441,0,0,1,204.44,413.031Z" transform="translate(-10.282 108.537)"/>
      <path id="Path_2154" data-name="Path 2154" class="cls-1" d="M207.12,410a5.731,5.731,0,1,1,5.71,5.71A5.731,5.731,0,0,1,207.12,410Z" transform="translate(-7.231 111.565)"/>
      <path id="Path_2155" data-name="Path 2155" class="cls-8" d="M185.72,413.031a11.42,11.42,0,1,1,3.345,8.1,11.441,11.441,0,0,1-3.345-8.1Z" transform="translate(-31.596 108.537)"/>
      <path id="Path_2156" data-name="Path 2156" class="cls-1" d="M188.39,410a5.731,5.731,0,1,1,5.731,5.71A5.731,5.731,0,0,1,188.39,410Z" transform="translate(-28.556 111.565)"/>
      <path id="Path_2157" data-name="Path 2157" class="cls-8" d="M0,0H24.187V123.821H.064V0Z" transform="translate(247.536 508.48) rotate(180)"/>
      <rect id="Rectangle_785" data-name="Rectangle 785" class="cls-8" width="37.082" height="87.488" transform="translate(253.994 508.48) rotate(180)"/>
      <path id="Path_2158" data-name="Path 2158" class="cls-8" d="M.064,0H31.03V66.594H0V.107Z" transform="translate(291.269 363.894) rotate(180)"/>
      <path id="Path_2159" data-name="Path 2159" class="cls-9" d="M225.221,387.584H346.39a21.236,21.236,0,0,0,21.214-21.77L364.7,247.531a21.236,21.236,0,0,0-21.236-20.7H243.42a21.236,21.236,0,0,0-21,18.006L204.242,363.119a21.236,21.236,0,0,0,20.979,24.465Z" transform="translate(-10.789 -90.434)"/>
      <line id="Line_208" data-name="Line 208" class="cls-7" x2="53.164" y2="35.008" transform="translate(254.016 388.915)"/>
      <path id="Path_2160" data-name="Path 2160" class="cls-8" d="M263.044,359.319l9.067,6.095a5.967,5.967,0,0,1,.834,9.174l-.641.6a5.924,5.924,0,0,1-7.913.342l-8.255-6.865a5.817,5.817,0,0,1-.492-8.554h0a5.817,5.817,0,0,1,7.4-.791Z" transform="translate(46.146 59.299)"/>
      <path id="Path_2161" data-name="Path 2161" class="cls-9" d="M187.792,367.983H384.858a19.012,19.012,0,0,0,19.012-19.012h0a19.012,19.012,0,0,0-19.012-19.012H187.792a19.012,19.012,0,0,0-19.012,19.012h0a19.012,19.012,0,0,0,19.012,19.012Z" transform="translate(-50.882 26.983)"/>
      <path id="Path_2162" data-name="Path 2162" class="cls-9" d="M168.924,346.618A19.546,19.546,0,0,1,188.513,330H290.735a19.546,19.546,0,0,1,19.675,16.7,19.033,19.033,0,0,1-18.883,21.385H187.807a19.033,19.033,0,0,1-18.883-21.471Z" transform="translate(-50.898 27.027)"/>
      <path id="Path_2163" data-name="Path 2163" class="cls-8" d="M184,409.561H373.218a10.372,10.372,0,0,0-10.372-10.351h-168.5A10.351,10.351,0,0,0,184,409.561Z" transform="translate(-33.554 105.827)"/>
      <path id="Path_2164" data-name="Path 2164" class="cls-8" d="M199.807,409.561H261.4V399.21H210.072A10.372,10.372,0,0,0,199.7,409.561Z" transform="translate(-15.679 105.827)"/>
      <path id="Path_2165" data-name="Path 2165" class="cls-8" d="M263.043,296.785,249.4,319.261s-47.711,4.79-74.977,10.907-32.72,36.141-34.088,42.279c-1.518,6.843-9.966,149.89-7.25,150.575s23.182,2.716,23.182,2.716S190.782,386.732,201,384.7s161.545,1.369,184.043-10.907,27.951-47.711,14.97-72.24S263.043,296.785,263.043,296.785Z" transform="translate(-92.131 -19.353)"/>
      <path id="Path_2166" data-name="Path 2166" class="cls-8" d="M312.818,305.53s-63.408,0-94.1,2.716-49.764,25.9-48.4,46.363,26.154,154.659,26.154,154.659l23.845-2.138,12.831-143.8s21.385,13.858,104.339-7.442" transform="translate(-49.2 -0.831)"/>
      <path id="Path_2167" data-name="Path 2167" class="cls-1" d="M488.457,203.25c-2.139-1.369-8.854,16.36-8.854,16.36a121.116,121.116,0,0,0-12.959,0c-7.485.684-13.622,10.907-13.622,17.728s-31.372,61.333-31.372,61.333-27.266-44.909-36.8-52.48-44.909-14.307-44.909-14.307a141.145,141.145,0,0,0-43.69,0s-35.436,6.8-44.909,14.307-36.826,52.48-36.826,52.48-31.351-54.533-31.351-61.333-6.138-17.108-13.622-17.728a121.037,121.037,0,0,0-12.96,0s-6.822-17.728-8.854-16.36,1.347,23.182,3.4,27.951,19.1,8.169,19.1,8.169,21.129,80.43,27.929,91.337,14.328,24.55,32.72,16.36,41.595-34.751,41.595-34.751l38.9.6h5.389l47.048-.6s23.182,26.582,41.573,34.751,25.919-5.453,32.72-16.36S465.96,239.37,465.96,239.37s17.108-3.4,19.1-8.169S490.51,204.619,488.457,203.25Z" transform="translate(-75.57 -117.366)"/>
      <path id="Path_2168" data-name="Path 2168" class="cls-2" d="M413.041,264.682c-6.009,10.907-11.035,19.61-11.035,19.61s-27.266-44.909-36.8-52.48-44.909-14.307-44.909-14.307a141.145,141.145,0,0,0-43.69,0s-35.436,6.8-44.909,14.307-36.826,52.48-36.826,52.48-5.432-9.431-11.762-20.958l-18.755,11.42c5.475,18.8,11.185,36.826,14.157,41.573,6.822,10.907,14.328,24.55,32.72,16.36s41.595-34.751,41.595-34.751l38.9.6h5.389l47.048-.6s23.182,26.582,41.573,34.751,25.919-5.453,32.72-16.36c2.994-4.769,8.725-22.861,14.221-41.723Z" transform="translate(-55.926 -102.987)"/>
      <g id="Group_8010" data-name="Group 8010" class="cls-10" transform="translate(108.424 112.818)">
        <path id="Path_2169" data-name="Path 2169" class="cls-6" d="M290.329,264.022c-.364-4.47-.706-8.7,1.112-11.42a35.276,35.276,0,0,1,2.78-3.636l-2.695-4.277a36.577,36.577,0,0,0-4.277,5.239c-2.759,4.149-2.352,9.431-1.925,14.563.342,4.47.684,8.683-1.133,11.42-1.561,2.331-3.08,2.139-7.25,1.283a21.856,21.856,0,0,0-12.1,0,11.27,11.27,0,0,0-7.057,7.827c1.347,1.176,2.737,2.352,4.149,3.486.577-3.058,1.86-5.774,4.47-6.63a17.429,17.429,0,0,1,9.559.107c4.149.855,8.875,1.839,12.339-3.379C291.1,274.437,290.671,269.133,290.329,264.022Z" transform="translate(-57.976 -182.918)"/>
        <path id="Path_2170" data-name="Path 2170" class="cls-6" d="M252.341,275.911l1.625,1.818a22.318,22.318,0,0,0,4.17-2.267,10.693,10.693,0,0,1,4.555,0,38.729,38.729,0,0,0,15.2-1.005c8.276-2.374,8.554-11.356,8.854-19.247.15-4.405.3-8.982,1.818-11.741a6.608,6.608,0,0,1,7.741-3.251c-1.091-1.689-2.139-3.379-3.358-5.068a10.693,10.693,0,0,0-8.725,5.945c-2.138,3.785-2.245,8.961-2.417,13.943-.278,8.276-.791,13.387-5.261,14.67a33.788,33.788,0,0,1-13.409.855c-3.229-.278-6.009-.535-8.105,1.133a57.048,57.048,0,0,1-10.115,4.277Z" transform="translate(-72.618 -193.779)"/>
        <path id="Path_2171" data-name="Path 2171" class="cls-6" d="M209.589,277.618a21.857,21.857,0,0,0-12.1,0c-4.17.855-5.689,1.048-7.25-1.283-1.818-2.737-1.476-6.95-1.112-11.42.406-5.133.813-10.415-1.946-14.563a34.068,34.068,0,0,0-4.983-6.052l-2.695,4.277a30.863,30.863,0,0,1,3.571,4.47c1.818,2.716,1.476,6.95,1.112,11.42-.406,5.111-.834,10.415,1.946,14.563,3.464,5.218,8.191,4.277,12.339,3.379a17.429,17.429,0,0,1,9.559-.107,7.228,7.228,0,0,1,4.277,5.731c1.39-1.133,2.737-2.288,4.063-3.464A11.014,11.014,0,0,0,209.589,277.618Z" transform="translate(-147.101 -183.362)"/>
        <path id="Path_2172" data-name="Path 2172" class="cls-6" d="M219.743,270.571a33.9,33.9,0,0,1-13.43-.855c-4.47-1.283-4.983-6.416-5.261-14.67-.171-4.983-.342-10.158-2.417-13.943a10.842,10.842,0,0,0-10.008-6.009c-1.24,1.861-2.459,3.721-3.657,5.56,2.5-.855,6.95-1.561,9.324,2.823,1.518,2.759,1.668,7.335,1.818,11.741.278,7.913.6,16.895,8.854,19.247a38.73,38.73,0,0,0,15.205,1.005,10.693,10.693,0,0,1,4.555,0,17.6,17.6,0,0,0,3.229,1.818l1.262-1.39,8.854.128a58.231,58.231,0,0,1-10.244-4.405C225.666,270.036,222.95,270.293,219.743,270.571Z" transform="translate(-140.873 -193.85)"/>
        <g id="Group_8009" data-name="Group 8009" class="cls-11" transform="translate(32.399 41.238)">
          <path id="Path_2173" data-name="Path 2173" class="cls-12" d="M290.329,264.022c-.364-4.47-.706-8.7,1.112-11.42a35.276,35.276,0,0,1,2.78-3.636l-2.695-4.277a36.577,36.577,0,0,0-4.277,5.239c-2.759,4.149-2.352,9.431-1.925,14.563.342,4.47.684,8.683-1.133,11.42-1.561,2.331-3.08,2.139-7.25,1.283a21.856,21.856,0,0,0-12.1,0,11.27,11.27,0,0,0-7.057,7.827c1.347,1.176,2.737,2.352,4.149,3.486.577-3.058,1.86-5.774,4.47-6.63a17.429,17.429,0,0,1,9.559.107c4.149.855,8.875,1.839,12.339-3.379C291.1,274.437,290.671,269.133,290.329,264.022Z" transform="translate(-90.375 -224.156)"/>
          <path id="Path_2174" data-name="Path 2174" class="cls-12" d="M252.341,275.911l1.625,1.818a22.318,22.318,0,0,0,4.17-2.267,10.693,10.693,0,0,1,4.555,0,38.729,38.729,0,0,0,15.2-1.005c8.276-2.374,8.554-11.356,8.854-19.247.15-4.405.3-8.982,1.818-11.741a6.608,6.608,0,0,1,7.741-3.251c-1.091-1.689-2.139-3.379-3.358-5.068a10.693,10.693,0,0,0-8.725,5.945c-2.138,3.785-2.245,8.961-2.417,13.943-.278,8.276-.791,13.387-5.261,14.67a33.788,33.788,0,0,1-13.409.855c-3.229-.278-6.009-.535-8.105,1.133a57.048,57.048,0,0,1-10.115,4.277Z" transform="translate(-105.017 -235.018)"/>
          <path id="Path_2175" data-name="Path 2175" class="cls-12" d="M209.589,277.618a21.857,21.857,0,0,0-12.1,0c-4.17.855-5.689,1.048-7.25-1.283-1.818-2.737-1.476-6.95-1.112-11.42.406-5.133.813-10.415-1.946-14.563a34.068,34.068,0,0,0-4.983-6.052l-2.695,4.277a30.863,30.863,0,0,1,3.571,4.47c1.818,2.716,1.476,6.95,1.112,11.42-.406,5.111-.834,10.415,1.946,14.563,3.464,5.218,8.191,4.277,12.339,3.379a17.429,17.429,0,0,1,9.559-.107,7.228,7.228,0,0,1,4.277,5.731c1.39-1.133,2.737-2.288,4.063-3.464A11.014,11.014,0,0,0,209.589,277.618Z" transform="translate(-179.5 -224.6)"/>
          <path id="Path_2176" data-name="Path 2176" class="cls-12" d="M219.743,270.571a33.9,33.9,0,0,1-13.43-.855c-4.47-1.283-4.983-6.416-5.261-14.67-.171-4.983-.342-10.158-2.417-13.943a10.842,10.842,0,0,0-10.008-6.009c-1.24,1.861-2.459,3.721-3.657,5.56,2.5-.855,6.95-1.561,9.324,2.823,1.518,2.759,1.668,7.335,1.818,11.741.278,7.913.6,16.895,8.854,19.247a38.73,38.73,0,0,0,15.205,1.005,10.693,10.693,0,0,1,4.555,0,17.6,17.6,0,0,0,3.229,1.818l1.262-1.39,8.854.128a58.231,58.231,0,0,1-10.244-4.405C225.666,270.036,222.95,270.293,219.743,270.571Z" transform="translate(-173.272 -235.088)"/>
        </g>
      </g>
      <path id="Path_2178" data-name="Path 2178" class="cls-7" d="M413.041,264.682c-6.009,10.907-11.035,19.61-11.035,19.61s-27.266-44.909-36.8-52.48-44.909-14.307-44.909-14.307a141.145,141.145,0,0,0-43.69,0s-35.436,6.8-44.909,14.307-36.826,52.48-36.826,52.48-5.432-9.431-11.762-20.958l-18.755,11.42c5.475,18.8,11.185,36.826,14.157,41.573,6.822,10.907,14.328,24.55,32.72,16.36s41.595-34.751,41.595-34.751l38.9.6h5.389l47.048-.6s23.182,26.582,41.573,34.751,25.919-5.453,32.72-16.36c2.994-4.769,8.725-22.861,14.221-41.723Z" transform="translate(-55.926 -102.987)"/>
      <path id="Path_2179" data-name="Path 2179" class="cls-2" d="M210.357,239.639s-8.854,19.076-6.8,31.351a129.8,129.8,0,0,1,2.032,14.97s-12.831,35.457-14.97,48.4a29.276,29.276,0,0,0,11.591,28.635c7.506,5.453,109.75,6.822,125.425,2.737s14.307-19.1,13.622-32.72-6.052-42.921-6.052-42.921,2.139-41.595-6.8-51.817" transform="translate(-26.507 -77.409)"/>
      <g id="Group_8011" data-name="Group 8011" class="cls-13" transform="translate(163.683 160.861)">
        <path id="Path_2180" data-name="Path 2180" class="cls-6" d="M301.133,266.783a14.071,14.071,0,0,1-9.559-4.384c-9.3-8.554-15.5-9.966-22.091-5.175l-3.015,2.31c-6.822,5.218-13.28,10.137-23.374,3.914-2.31-1.411-4.405-2.93-6.245-4.277-6.779-4.919-9.73-6.758-14.585-2.78-3.614,2.951-6.416,4.7-9.623,4.277-4.085-.492-6.95-4.277-12.639-11.89l-.385-.513a10.692,10.692,0,0,0-7.485-4.854A12.831,12.831,0,0,0,183.47,247a2.465,2.465,0,1,1-3.486-3.486,17.686,17.686,0,0,1,12.489-5.026,15.205,15.205,0,0,1,11.1,6.822l.363.492c4.405,5.86,7.292,9.73,9.3,9.966,1.133.128,2.93-.834,5.9-3.251,7.977-6.544,14.114-2.139,20.615,2.609,1.861,1.347,3.785,2.737,5.924,4.063,7.207,4.448,11.185,1.411,17.793-3.614,1.005-.791,2.139-1.583,3.165-2.374,10.949-7.977,20.466-1.689,28.336,5.517,5.881,5.389,9.6,3.015,17.408-2.866,1.5-1.112,3.058-2.31,4.748-3.464l.77-.535c10.073-6.993,11.185-6.416,24.807,1.133l3.657,2.01c4.726,2.609,7.635,4.277,8.982,4.127s2.331-1.476,4.919-4.405c1.048-1.219,2.31-2.63,3.828-4.277,11.056-11.826,14.67-11.035,23.524-6.993l.727.321a2.487,2.487,0,1,1-2.139,4.491l-.706-.321c-7.357-3.358-8.682-3.956-17.878,5.881-1.476,1.583-2.695,2.973-3.742,4.17-7.1,8.062-8.554,7.635-20,1.326l-3.636-2.01c-12.061-6.629-12.061-6.629-19.61-1.39l-.791.535c-1.625,1.133-3.122,2.267-4.576,3.358C310.607,263.362,306.094,266.783,301.133,266.783Zm14.157,16.766c1.454-1.091,2.951-2.245,4.576-3.358l.791-.535c7.549-5.261,7.549-5.239,19.61,1.39l3.636,2.01c11.4,6.309,12.831,6.736,20-1.326,1.048-1.2,2.267-2.588,3.742-4.17,9.2-9.859,10.522-9.238,17.878-5.881l.706.321a2.469,2.469,0,0,0,2.053-4.491l-.727-.321c-8.832-4.042-12.468-4.833-23.524,6.993-1.518,1.647-2.78,3.058-3.828,4.277-2.588,2.93-3.871,4.277-4.919,4.405s-4.277-1.518-8.982-4.127l-3.657-2.01c-13.622-7.506-14.735-8.126-24.807-1.133l-.77.535c-1.689,1.155-3.251,2.331-4.748,3.464-7.806,5.881-11.527,8.255-17.408,2.866-7.87-7.207-17.386-13.516-28.336-5.539-1.112.813-2.138,1.6-3.165,2.4-6.608,5.026-10.586,8.062-17.793,3.614-2.139-1.326-4.063-2.716-5.924-4.063-6.416-4.7-12.639-9.153-20.615-2.609-2.973,2.417-4.7,3.4-5.9,3.251-2.01-.235-4.9-4.106-9.3-9.966l-.364-.513a15.248,15.248,0,0,0-11.1-6.8,17.686,17.686,0,0,0-12.489,5.026,2.465,2.465,0,1,0,3.486,3.486,12.831,12.831,0,0,1,8.661-3.593A10.522,10.522,0,0,1,199.552,272l.385.513c5.689,7.592,8.554,11.4,12.639,11.89,3.122.385,6.009-1.369,9.623-4.277,4.854-3.978,7.806-2.139,14.585,2.78,1.839,1.347,3.935,2.866,6.245,4.277,10.094,6.223,16.552,1.3,23.374-3.913l3.08-2.31c6.587-4.79,12.831-3.336,22.091,5.175a14.028,14.028,0,0,0,9.559,4.277C306.094,290.457,310.607,287.057,315.29,283.549Z" transform="translate(-202.716 -238.02)"/>
        <path id="Path_2181" data-name="Path 2181" class="cls-14" d="M301.133,266.783a14.071,14.071,0,0,1-9.559-4.384c-9.3-8.554-15.5-9.966-22.091-5.175l-3.015,2.31c-6.822,5.218-13.28,10.137-23.374,3.914-2.31-1.411-4.405-2.93-6.245-4.277-6.779-4.919-9.73-6.758-14.585-2.78-3.614,2.951-6.416,4.7-9.623,4.277-4.085-.492-6.95-4.277-12.639-11.89l-.385-.513a10.692,10.692,0,0,0-7.485-4.854A12.831,12.831,0,0,0,183.47,247a2.465,2.465,0,1,1-3.486-3.486,17.686,17.686,0,0,1,12.489-5.026,15.205,15.205,0,0,1,11.1,6.822l.363.492c4.405,5.86,7.292,9.73,9.3,9.966,1.133.128,2.93-.834,5.9-3.251,7.977-6.544,14.114-2.139,20.615,2.609,1.861,1.347,3.785,2.737,5.924,4.063,7.207,4.448,11.185,1.411,17.793-3.614,1.005-.791,2.139-1.583,3.165-2.374,10.949-7.977,20.466-1.689,28.336,5.517,5.881,5.389,9.6,3.015,17.408-2.866,1.5-1.112,3.058-2.31,4.748-3.464l.77-.535c10.073-6.993,11.185-6.416,24.807,1.133l3.657,2.01c4.726,2.609,7.635,4.277,8.982,4.127s2.331-1.476,4.919-4.405c1.048-1.219,2.31-2.63,3.828-4.277,11.056-11.826,14.67-11.035,23.524-6.993l.727.321a2.487,2.487,0,1,1-2.139,4.491l-.706-.321c-7.357-3.358-8.682-3.956-17.878,5.881-1.476,1.583-2.695,2.973-3.742,4.17-7.1,8.062-8.554,7.635-20,1.326l-3.636-2.01c-12.061-6.629-12.061-6.629-19.61-1.39l-.791.535c-1.625,1.133-3.122,2.267-4.576,3.358C310.607,263.362,306.094,266.783,301.133,266.783Zm14.157,16.766c1.454-1.091,2.951-2.245,4.576-3.358l.791-.535c7.549-5.261,7.549-5.239,19.61,1.39l3.636,2.01c11.4,6.309,12.831,6.736,20-1.326,1.048-1.2,2.267-2.588,3.742-4.17,9.2-9.859,10.522-9.238,17.878-5.881l.706.321a2.469,2.469,0,0,0,2.053-4.491l-.727-.321c-8.832-4.042-12.468-4.833-23.524,6.993-1.518,1.647-2.78,3.058-3.828,4.277-2.588,2.93-3.871,4.277-4.919,4.405s-4.277-1.518-8.982-4.127l-3.657-2.01c-13.622-7.506-14.735-8.126-24.807-1.133l-.77.535c-1.689,1.155-3.251,2.331-4.748,3.464-7.806,5.881-11.527,8.255-17.408,2.866-7.87-7.207-17.386-13.516-28.336-5.539-1.112.813-2.138,1.6-3.165,2.4-6.608,5.026-10.586,8.062-17.793,3.614-2.139-1.326-4.063-2.716-5.924-4.063-6.416-4.7-12.639-9.153-20.615-2.609-2.973,2.417-4.7,3.4-5.9,3.251-2.01-.235-4.9-4.106-9.3-9.966l-.364-.513a15.248,15.248,0,0,0-11.1-6.8,17.686,17.686,0,0,0-12.489,5.026,2.465,2.465,0,1,0,3.486,3.486,12.831,12.831,0,0,1,8.661-3.593A10.522,10.522,0,0,1,199.552,272l.385.513c5.689,7.592,8.554,11.4,12.639,11.89,3.122.385,6.009-1.369,9.623-4.277,4.854-3.978,7.806-2.139,14.585,2.78,1.839,1.347,3.935,2.866,6.245,4.277,10.094,6.223,16.552,1.3,23.374-3.913l3.08-2.31c6.587-4.79,12.831-3.336,22.091,5.175a14.028,14.028,0,0,0,9.559,4.277C306.094,290.457,310.607,287.057,315.29,283.549Z" transform="translate(-202.716 -238.02)"/>
      </g>
      <path id="Path_2183" data-name="Path 2183" class="cls-7" d="M210.357,239.639s-8.854,19.076-6.8,31.351a129.8,129.8,0,0,1,2.032,14.97s-12.831,35.457-14.97,48.4a29.276,29.276,0,0,0,11.591,28.635c7.506,5.453,109.75,6.822,125.425,2.737s14.307-19.1,13.622-32.72-6.052-42.921-6.052-42.921,2.139-41.595-6.8-51.817" transform="translate(-26.507 -77.409)"/>
      <path id="Path_2184" data-name="Path 2184" class="cls-15" d="M218.6,217.506l-2.908.577a19.248,19.248,0,0,0-.449,3.849c0,12.981,13.9,23.524,31.03,23.524s31.009-10.543,31.009-23.524v-1.112c-8.276-2.139-14.97-3.315-14.97-3.315a141.145,141.145,0,0,0-43.712,0Z" transform="translate(2.014 -102.988)"/>
      <path id="Path_2185" data-name="Path 2185" class="cls-1" d="M220.506,213.432s-2.139,16.36,0,21.813,14.97,15.676,27.951,11.591a21.385,21.385,0,0,0,14.97-19.76V208l-42.258,1.369Z" transform="translate(6.928 -111.873)"/>
      <ellipse id="Ellipse_149" data-name="Ellipse 149" class="cls-8" cx="48.395" cy="47.369" rx="48.395" ry="47.369" transform="translate(200.894 0)"/>
      <path id="Path_2186" data-name="Path 2186" class="cls-1" d="M219.873,195.059s-4.085-9.538-6.822-.684,3.422,19.781,7.506,20.444S219.873,195.059,219.873,195.059Z" transform="translate(-1.25 -131.673)"/>
      <path id="Path_2187" data-name="Path 2187" class="cls-1" d="M244.675,195.059s4.085-9.538,6.822-.684-3.422,19.781-7.506,20.444S244.675,195.059,244.675,195.059Z" transform="translate(32.865 -131.673)"/>
      <path id="Path_2188" data-name="Path 2188" class="cls-1" d="M267.056,179.667a16.638,16.638,0,0,0-12.981-3.144,51.883,51.883,0,0,1-12.617.9c-6.8-.663-12.254-3.4-17.707,2.139s-8.191,30.667-8.191,43.626,9.5,31.265,16.36,36.034,25.9,4.106,30.667,0,12.275-19.076,13.644-31.351-1.369-36.12-4.085-42.257a16.682,16.682,0,0,0-5.09-5.945Z" transform="translate(2.378 -148.124)"/>
      <ellipse id="Ellipse_150" data-name="Ellipse 150" class="cls-16" cx="2.545" cy="4.17" rx="2.545" ry="4.17" transform="translate(236.565 57.078)"/>
      <path id="Path_2189" data-name="Path 2189" class="cls-16" d="M238.76,193.91c0,2.31-1.133,4.17-2.545,4.17s-2.545-1.86-2.545-4.17,1.155-4.17,2.545-4.17S238.76,191.622,238.76,193.91Z" transform="translate(22.997 -132.662)"/>
      <path id="Path_2190" data-name="Path 2190" class="cls-16" d="M234.33,204.94c0,2.288-1.133,4.149-2.545,4.149s-2.545-1.861-2.545-4.149,1.155-4.17,2.545-4.17S234.33,202.631,234.33,204.94Z" transform="translate(17.954 -120.104)"/>
      <path id="Path_2191" data-name="Path 2191" class="cls-1" d="M228.689,194.07c-4.277,6.694,3.849,10.992,9.26,6.929,3.7-2.78,0-6.929,0-6.929" transform="translate(15.96 -127.733)"/>
      <path id="Path_2192" data-name="Path 2192" class="cls-7" d="M221.35,189.568s6.929-6.416,13.879-3.251" transform="translate(8.971 -137.558)"/>
      <path id="Path_2193" data-name="Path 2193" class="cls-7" d="M233.24,186.658s6.416-4.17,12.489,3.7" transform="translate(22.508 -137.429)"/>
      <path id="Path_2194" data-name="Path 2194" class="cls-1" d="M154.6,398.57s-40.953,8.019-40.953,12.19,52.18,16.018,57.741,16.7,6.416-26.176,6.416-26.176Z" transform="translate(-113.65 105.099)"/>
      <path id="Path_2195" data-name="Path 2195" class="cls-17" d="M174.812,418.18l-58.425-14.97c-1.711.791-2.737,1.561-2.737,2.139,0,4.277,52.18,16.018,57.741,16.7C172.823,422.35,173.935,420.7,174.812,418.18Z" transform="translate(-113.65 110.381)"/>
      <path id="Path_2196" data-name="Path 2196" class="cls-1" d="M203.243,401.893s-41.552,17.857-38.772,22.048,57.056,2.139,62.616,1.39,0-25.491,0-25.491Z" transform="translate(-55.94 106.544)"/>
      <path id="Path_2197" data-name="Path 2197" class="cls-17" d="M165.8,409.88c-1.219,1.091-1.775,2.01-1.369,2.63,2.78,4.17,57.056,2.138,62.616,1.39,1.347-.171,2.032-1.754,2.31-4.02Z" transform="translate(-55.985 117.975)"/>
    </g>
    <g id="Device--inject-2" transform="translate(131.466 358.145)">
      <rect id="Rectangle_786" data-name="Rectangle 786" class="cls-1" width="156.819" height="6.33" transform="translate(224.162 148.65) rotate(180)"/>
      <rect id="Rectangle_787" data-name="Rectangle 787" class="cls-1" width="156.819" height="6.33" transform="translate(179.937 148.65) rotate(180)"/>
      <path id="Path_2198" data-name="Path 2198" class="cls-1" d="M98.073,317.637H228.845L214.752,217.81H83.98Z" transform="translate(-57.484 -186.566)"/>
      <path id="Path_2199" data-name="Path 2199" class="cls-8" d="M95.543,317.637H226.315L212.222,217.81H81.45Z" transform="translate(-60.364 -186.566)"/>
      <path id="Path_2200" data-name="Path 2200" class="cls-1" d="M113.771,242.79,100.64,306.775h33.746l13.131-63.985Zm22.882,18.99a1.2,1.2,0,0,1-1.155.92l-19.119-.214a1.2,1.2,0,0,1-1.155-1.476l1.732-7.164a1.2,1.2,0,0,1,1.176-.92l19.119.192a1.176,1.176,0,0,1,1.133,1.454Z" transform="translate(-38.515 -158.125)"/>
      <circle id="Ellipse_151" data-name="Ellipse 151" class="cls-15" cx="24.08" cy="24.08" r="24.08" transform="translate(0 0)"/>
      <path id="Path_2201" data-name="Path 2201" class="cls-12" d="M90.06,227.507l-7.1,8.084a4.662,4.662,0,0,1-1.112,1.048,3.721,3.721,0,0,1-3.464.556,3.015,3.015,0,0,1-1.967-1.839,3.935,3.935,0,0,1,1.091-4.149l8.233-8.725-7.848-9.11a4.277,4.277,0,0,1-.984-2.566,2.823,2.823,0,0,1,.727-2.139,4.619,4.619,0,0,1,1.839-1.176,3.507,3.507,0,0,1,2.374,0,5.154,5.154,0,0,1,2.31,1.754l6.822,8.126,6.416-7.464a5.516,5.516,0,0,1,1.2-1.24,3.464,3.464,0,0,1,3.657-.684,3.315,3.315,0,0,1,1.946,1.882,2.759,2.759,0,0,1-.492,3.037l-8.554,9.345,8.554,10.03a4.641,4.641,0,0,1,.663,1.112,3.037,3.037,0,0,1-.535,3.122,3.636,3.636,0,0,1-2.737,1.39,4.577,4.577,0,0,1-3.956-2.138Z" transform="translate(-66.322 -198.551)"/>
    </g>
    <g id="Table--inject-2" transform="translate(57.43 504.699)">
      <path id="Path_2202" data-name="Path 2202" class="cls-1" d="M239.023,289.73l-6.8,256a6.245,6.245,0,0,1-6.245,6.095h0a6.266,6.266,0,0,1-6.2-6.18L216.44,289.73Z" transform="translate(167.364 -251.236)"/>
      <path id="Path_2203" data-name="Path 2203" class="cls-1" d="M200.4,289.73l-6.779,256a6.245,6.245,0,0,1-6.266,6.095h0a6.245,6.245,0,0,1-6.245-6.181L177.75,289.73Z" transform="translate(123.313 -251.236)"/>
      <path id="Path_2204" data-name="Path 2204" class="cls-1" d="M104.777,289.73,98,545.734a6.245,6.245,0,0,1-6.266,6.095h0a6.245,6.245,0,0,1-6.245-6.181L82.13,289.73Z" transform="translate(14.446 -251.236)"/>
      <path id="Path_2205" data-name="Path 2205" class="cls-1" d="M66,289.73l-6.694,256a6.245,6.245,0,0,1-6.138,6.095h0a6.266,6.266,0,0,1-6.416-6.18L43.46,289.73Z" transform="translate(-29.581 -251.236)"/>
      <rect id="Rectangle_788" data-name="Rectangle 788" class="cls-1" width="408.14" height="30.645" transform="translate(414.47 41.188) rotate(180)"/>
      <rect id="Rectangle_789" data-name="Rectangle 789" class="cls-1" width="114.005" height="30.645" transform="translate(414.47 41.188) rotate(180)"/>
      <rect id="Rectangle_790" data-name="Rectangle 790" class="cls-8" width="408.14" height="15.312" transform="translate(414.47 25.855) rotate(180)"/>
      <rect id="Rectangle_791" data-name="Rectangle 791" class="cls-17" width="420.8" height="16.873" transform="translate(420.8 16.873) rotate(180)"/>
      <rect id="Rectangle_792" data-name="Rectangle 792" class="cls-17" width="292.894" height="16.873" transform="translate(292.894 16.873) rotate(180)"/>
    </g>
    <g id="Floor--inject-2" transform="translate(19 805.292)">
      <line id="Line_209" data-name="Line 209" class="cls-7" x2="17.6" transform="translate(957.573)"/>
      <line id="Line_210" data-name="Line 210" class="cls-7" x2="928.938"/>
    </g>
  </g>
</svg>
