<svg xmlns="http://www.w3.org/2000/svg" xmlns:xlink="http://www.w3.org/1999/xlink" width="1920" height="1078" viewBox="0 0 1920 1078">
  <defs>
    <style>
      .cls-1, .cls-11, .cls-16, .cls-4 {
        fill: #fff;
      }

      .cls-1, .cls-11, .cls-12, .cls-15, .cls-7, .cls-8, .cls-9 {
        stroke: #263238;
      }

      .cls-1, .cls-11, .cls-12, .cls-15, .cls-18, .cls-7, .cls-8, .cls-9 {
        stroke-linecap: round;
      }

      .cls-1, .cls-15, .cls-18, .cls-7, .cls-8, .cls-9 {
        stroke-linejoin: round;
      }

      .cls-1, .cls-11, .cls-12, .cls-15, .cls-18, .cls-7, .cls-8 {
        stroke-width: 1.148px;
      }

      .cls-2 {
        clip-path: url(#clip-_401);
      }

      .cls-14, .cls-3, .cls-8 {
        fill: #8167f2;
      }

      .cls-4 {
        opacity: 0.8;
      }

      .cls-5 {
        fill: #8d3ddc;
      }

      .cls-6 {
        fill: #64b4d2;
      }

      .cls-10, .cls-7 {
        fill: #263238;
      }

      .cls-15, .cls-18, .cls-19, .cls-9 {
        fill: none;
      }

      .cls-9 {
        stroke-width: 2.297px;
      }

      .cls-11, .cls-12 {
        stroke-miterlimit: 10;
      }

      .cls-12 {
        fill: #545454;
      }

      .cls-13 {
        clip-path: url(#clip-path);
      }

      .cls-14 {
        opacity: 0.5;
      }

      .cls-17 {
        opacity: 0.25;
      }

      .cls-18 {
        stroke: #fff;
      }
    </style>
    <clipPath id="clip-path">
      <path id="Path_2245" data-name="Path 2245" class="cls-1" d="M289.328,259.451s-38.413-7.272-61.66,36.672c-19.6,36.982-100.574,231.6-125.657,292.112H202.154c21.15-96.21,61.994-271.367,79.734-277.9,24.535-9.061,61.851.644,61.851.644Z" transform="translate(-102.01 -259.001)"/>
    </clipPath>
    <clipPath id="clip-_401">
      <rect width="1920" height="1078"/>
    </clipPath>
  </defs>
  <g id="_401" data-name="401" class="cls-2">
    <rect class="cls-16" width="1920" height="1078"/>
    <g id="_401_Error_Unauthorized-bro" data-name="401 Error Unauthorized-bro" transform="translate(430.467 48.742)">
      <g id="background-simple--inject-2" transform="translate(50.533 82.057)">
        <path id="Path_2206" data-name="Path 2206" class="cls-3" d="M52.075,596.505s16.452,143.54,138.438,204.867,241.467,1.669,351.173-12.709c57.44-7.511,110.731,20.72,167.05,26.634C888.853,834.2,1030.2,621.97,1004.83,465.84,982.894,330.669,896.507,235.27,739.138,167.219S473.516,45,290.705,108.993,39.033,410.666,52.075,596.505Z" transform="translate(-50.533 -80.432)"/>
        <path id="Path_2207" data-name="Path 2207" class="cls-4" d="M52.075,596.505s16.452,143.54,138.438,204.867,241.467,1.669,351.173-12.709c57.44-7.511,110.731,20.72,167.05,26.634C888.853,834.2,1030.2,621.97,1004.83,465.84,982.894,330.669,896.507,235.27,739.138,167.219S473.516,45,290.705,108.993,39.033,410.666,52.075,596.505Z" transform="translate(-50.533 -80.432)"/>
      </g>
      <g id="Window--inject-2" transform="translate(653.729 79.258)">
        <path id="Path_2208" data-name="Path 2208" class="cls-5" d="M304.31,706.34H650.738V150.92H304.31ZM485.071,572.814H637.1v-13.5H485.071V435.33H637.1V421.882H485.071V300.517H637.1v-13.5H485.071V164.368H638.1v528.5H485.071Zm-168.1-408.422H472.41V287.021H316.971Zm0,136.149H472.41V421.93H316.971Zm0,134.837H472.41V559.366H316.971Zm0,137.436H472.41V692.892H316.971Z" transform="translate(-302.402 19.95)"/>
        <path id="Path_2209" data-name="Path 2209" class="cls-5" d="M650.677,237.4a173.894,173.894,0,0,0-346.357,0l-.811,9.084H651.488Zm-328.688-7.582a156.464,156.464,0,0,1,39.414-83.1l97.76,83.1ZM467.437,215.1,373.349,135.01a156.416,156.416,0,0,1,94.16-38.723Zm16.691-119a156.678,156.678,0,0,1,90.321,32.952l-90.321,84.837ZM491.5,229.813l95.566-89.772a156.225,156.225,0,0,1,45.947,89.772Z" transform="translate(-303.51 -79.258)"/>
      </g>
      <g id="Plants--inject-2" transform="translate(66.255 570.185)">
        <path id="Path_2210" data-name="Path 2210" class="cls-6" d="M240.422,327.068a40.345,40.345,0,0,0-19.767,12.089,86.334,86.334,0,0,0-11.922,16.214c-2.146,3.72-4.1,7.559-5.913,11.445-1.168,2.527-2.051,5.7-3.171,8.608-1.6,2.575-3.171,5.222-4.53,7.7,4.769-17.191,20.172-48.832,20.434-57.822.31-9.776-9.085,4.769-14.306,24.678a277.278,277.278,0,0,0-6.724,34.312c-.548,1.025-1.025,2-1.454,2.909-.954,2-2.6,5.413-4.769,9.848,4.769-14.592,6.509-31.927,3.624-34.073-4.173-3.1-5.675,4.507-5.651,18.551a120.841,120.841,0,0,1-4.936,29.638c-2.623,5.2-5.556,10.921-8.7,16.953,3.29-10.515,5.2-25.656,7.01-37.006,2.623-16.5,1.5-21.65-3.839-13.71s-4.411,19.433-3.147,33.5a58.608,58.608,0,0,1-4.769,26.228c-4.03,7.654-8.3,15.546-12.613,23.319a79.543,79.543,0,0,0,6.867-25.2c1.86-19.075-.6-36.6-5.007-31.641s-1.812,18.241-2.384,34.407a183.6,183.6,0,0,1-3.314,29.137l-1.335,2.384a79.758,79.758,0,0,0,1.383-24.988c.882-3.2.572-5.222-.5-6.2-.143-3.6.143-9.013-1.383-11.755-3.863-6.891-8.083,2.384-8.131,6.056a61.71,61.71,0,0,0,.572,8.369,22.175,22.175,0,0,0-3.863,4.769c-.572.978-1.192,2.074-1.836,3.267,0-1.145.143-2.384.191-3.481a17.1,17.1,0,0,0-1.908-8.989,56.129,56.129,0,0,0,4.983-14.664,8.012,8.012,0,0,0-.429-5.079,4.149,4.149,0,0,0-6.176-1.669c-7.344,3.887-9.3,13.233-10.134,20.72a124.484,124.484,0,0,1-3.815,19.075c-1.5,5.651-2.814,10.754-3.672,14.306A102.15,102.15,0,0,0,113,457.995c-.835-3.076-1.621-6.056-2.384-8.918a59.776,59.776,0,0,1,5.913-30.21c8.679-17.835,14.95-26.228,8.941-26.538s-14.736,8.989-15.975,23.677a164.329,164.329,0,0,0-.572,26.824c-1.908-6.843-3.791-13.281-5.746-19.838a43.372,43.372,0,0,1,1.073-21.817c4.1-12.113,16.333-33.62,9.9-31.927S99.982,383.411,99.123,396.62a71.865,71.865,0,0,0,2.265,20.506c-1.407-4.6-2.885-9.347-4.483-14.306-.668-2.146-1.383-4.411-2.074-6.772a2.664,2.664,0,0,0-.191-1.192,33.525,33.525,0,0,1,3.529-19.862c6.152-11.064,17.6-20.553,10.849-23.1S92.042,367.364,91.47,376.377a42.919,42.919,0,0,0,.811,10.205c-.262-.692-.548-1.407-.835-2.1-1.454-5.15-2.861-10.253-4.1-14.783a41.346,41.346,0,0,1,3.91-19.337c6.009-13.782,13.663-29.543,5.866-25.537-6.295,3.243-13.09,21.841-11.755,37.53-.525-2.051-1-3.815-1.383-5.246-1.025-8.989-2.957-30.163,0-42.776,1.931-8.417,5.079-16.381,6.056-25.036a5.318,5.318,0,0,0-.143-2.671c-2.1-5.222-8.894,4.936-10.014,6.6a40.368,40.368,0,0,0-6.176,22.342,85.575,85.575,0,0,0,2.384,19.981c.954,4.173,2.122,8.322,3.481,12.4.858,2.647,2.384,5.579,3.553,8.441.572,2.98,1.24,6.009,1.931,8.727-8.25-15.952-18.694-49.619-24.535-56.486-6.462-7.344-3.338,9.752,6.342,27.85a277.328,277.328,0,0,0,18.574,29.757c.31,1.121.62,2.17.93,3.123.668,2.122,1.788,5.746,3.219,10.468-6.557-13.853-17.025-27.778-20.6-27.4-5.15.572-1.049,7.153,8.536,17.43a121.6,121.6,0,0,1,16.524,24.988c1.621,5.6,3.386,11.779,5.2,18.336-4.769-9.943-13.71-22.318-20.124-31.832-9.347-13.853-13.686-16.858-12.184-7.415s10.038,17.215,20.6,26.634a58.99,58.99,0,0,1,14.354,22.509c2.265,8.321,4.53,17.025,6.676,25.656a79.616,79.616,0,0,0-12.16-23.129c-11.684-15.26-25.441-26.371-25.275-19.743S82.242,420.44,92.9,432.577a179.1,179.1,0,0,1,17.454,23.582c.215.858.429,1.741.62,2.6-4.769-8.751-12.375-15.88-19.767-22.461-2.6-2.384-6.533-7.392-9.9-8.465-7.487-2.384-4.268,7.272-1.788,9.967,8.012,8.775,19.314,14.187,26.729,23.415a81.067,81.067,0,0,1,7.487,11.064c.525,3.028.906,5.866,1.216,8.512a116.067,116.067,0,0,0-8.941-7.63c-9.061-6.1-14.306-14.473-21.293-22.533-2.1-2.384-5.651-5.365-9.013-5.508-4.769-.215-6.176,4.769-4.769,8.7,5.508,16.214,26.228,16.929,38.365,25.346a35.332,35.332,0,0,1,6.128,4.96,102.983,102.983,0,0,1,.405,15.069H87.965v11.612h8.274l6.724,41.345h55.7l6.724-41.345h8.274V499.2H131.766c1.908-2.384,3.958-4.769,6.009-7.487l8.822.262s30.616,1.335,41.846-4.769,1.216-11.922-9.538-8.8-31.879,12.661-36.553,12.518l-3.958-.119c2.194-2.837,4.387-5.794,6.462-8.8a205.053,205.053,0,0,0,24.821-7.916c8.8-3.481,19.075-6.295,26.562-12.184a8.107,8.107,0,0,0,3.147-4.006,4.149,4.149,0,0,0-3.362-5.413c-8.035-2.17-15.856,3.314-21.46,8.226a126.376,126.376,0,0,1-15.809,11.35c-4.96,3.076-9.394,5.937-12.423,7.892,2.217-3.29,4.268-6.6,6.009-9.824,1.5-2.814,2.957-5.508,4.34-8.155a59.8,59.8,0,0,1,24.941-18.05c18.5-7.153,28.78-8.918,24.655-13.281s-16.929-3.505-27.85,6.39a162.372,162.372,0,0,0-18.741,19.218c3.267-6.295,6.319-12.3,9.347-18.431a43.467,43.467,0,0,1,15.689-15.212c11.254-6.033,34.86-13.424,28.994-16.572s-20.005.668-29.638,9.752a71.535,71.535,0,0,0-12.351,16.548c2.122-4.34,4.268-8.822,6.533-13.567.978-2.051,2.027-4.173,3.1-6.366.238-.334.477-.668.691-1.025a33.381,33.381,0,0,1,16.142-12.089c11.922-3.887,26.9-3.028,23.677-9.538s-22.962-.262-29.543,5.913a44.61,44.61,0,0,0-6.366,8.012c.286-.668.572-1.383.835-2.1,2.384-4.769,4.769-9.538,7.153-13.591A41.3,41.3,0,0,1,210,376.52c13.806-5.961,30.163-12.28,21.722-14.664-6.819-1.931-24.488,7.01-34.192,19.409l2.551-4.769c5.389-7.3,18.431-24.082,29.161-31.307,7.153-4.769,14.9-8.512,21.46-14.163a5.652,5.652,0,0,0,1.717-2.051C254.371,323.8,242.473,326.591,240.422,327.068ZM115.767,471.609c1.788-2.742,4.96-7.8,8.465-14.306a90.282,90.282,0,0,0,3.7,8.7c-3.243,6.652-6.2,12.447-7.916,13.925l-2.957,2.623C116.72,478.906,116.291,475.234,115.767,471.609Zm20.267,19.29a94.439,94.439,0,0,1-7.01,8.274H118.151c-.167-4.435-.477-9.871-1-15.665l6.629-5.842s2.909-2.384,6.819-6.223a56.036,56.036,0,0,1,4.363,11.636,33.953,33.953,0,0,1,1.073,7.821Zm9.013-22.938a82.333,82.333,0,0,1-2.074,13.209c-1.693,2.575-3.338,4.912-4.912,7.153-.143-4.006-1.216-11.23-1.335-11.731a49.213,49.213,0,0,1-1.216-9.871,129.65,129.65,0,0,0,9.013-10.253,53.648,53.648,0,0,1,.525,11.493Z" transform="translate(-57.127 -285.15)"/>
      </g>
      <g id="Device--inject-2" transform="translate(491.948 491.953)">
        <path id="Path_2211" data-name="Path 2211" class="cls-1" d="M413.007,363.31l38.6,62.161a11.922,11.922,0,0,1-9.991,18.169H362.7a11.922,11.922,0,0,0,10.134-18.121l-37.34-60.826Z" transform="translate(-97.456 -98.714)"/>
        <path id="Path_2212" data-name="Path 2212" class="cls-7" d="M413.054,363.31l-77.564,1.383,14.354,23.391h78.589Z" transform="translate(-97.456 -98.714)"/>
        <rect id="Rectangle_793" data-name="Rectangle 793" class="cls-1" width="329.69" height="278.449" rx="2.91" transform="translate(431.956 278.449) rotate(180)"/>
        <rect id="Rectangle_794" data-name="Rectangle 794" class="cls-1" width="329.69" height="278.449" rx="2.91" transform="translate(419.486 278.449) rotate(180)"/>
        <path id="Path_2213" data-name="Path 2213" class="cls-8" d="M284.479,252.34H592.065a11.087,11.087,0,0,1,11.064,11.087v217.48H273.32V263.451a11.087,11.087,0,0,1,11.159-11.111Z" transform="translate(-183.524 -252.34)"/>
        <rect id="Rectangle_795" data-name="Rectangle 795" class="cls-1" width="301.983" height="202.244" transform="translate(405.633 213.332) rotate(180)"/>
        <rect id="Rectangle_796" data-name="Rectangle 796" class="cls-1" width="9.585" height="3.195" transform="translate(4.96 331.001)"/>
        <rect id="Rectangle_797" data-name="Rectangle 797" class="cls-1" width="9.585" height="3.195" transform="translate(17.74 331.001)"/>
        <rect id="Rectangle_798" data-name="Rectangle 798" class="cls-1" width="9.585" height="3.195" transform="translate(30.544 331.001)"/>
        <rect id="Rectangle_799" data-name="Rectangle 799" class="cls-1" width="9.585" height="3.195" transform="translate(43.324 331.001)"/>
        <rect id="Rectangle_800" data-name="Rectangle 800" class="cls-1" width="9.585" height="3.195" transform="translate(56.105 331.001)"/>
        <rect id="Rectangle_801" data-name="Rectangle 801" class="cls-1" width="9.585" height="3.195" transform="translate(68.909 331.001)"/>
        <rect id="Rectangle_802" data-name="Rectangle 802" class="cls-1" width="9.585" height="3.195" transform="translate(81.689 331.001)"/>
        <rect id="Rectangle_803" data-name="Rectangle 803" class="cls-1" width="9.585" height="3.195" transform="translate(94.47 331.001)"/>
        <rect id="Rectangle_804" data-name="Rectangle 804" class="cls-1" width="9.585" height="3.195" transform="translate(107.274 331.001)"/>
        <rect id="Rectangle_805" data-name="Rectangle 805" class="cls-1" width="9.585" height="3.195" transform="translate(120.054 331.001)"/>
        <rect id="Rectangle_806" data-name="Rectangle 806" class="cls-1" width="9.585" height="3.195" transform="translate(132.834 331.001)"/>
        <rect id="Rectangle_807" data-name="Rectangle 807" class="cls-1" width="9.585" height="3.195" transform="translate(145.639 331.001)"/>
        <rect id="Rectangle_808" data-name="Rectangle 808" class="cls-1" width="9.585" height="3.195" transform="translate(158.419 331.001)"/>
        <rect id="Rectangle_809" data-name="Rectangle 809" class="cls-1" width="9.585" height="3.195" transform="translate(171.199 331.001)"/>
        <rect id="Rectangle_810" data-name="Rectangle 810" class="cls-1" width="9.585" height="3.195" transform="translate(184.003 331.001)"/>
        <rect id="Rectangle_811" data-name="Rectangle 811" class="cls-1" width="9.585" height="3.195" transform="translate(196.784 331.001)"/>
        <rect id="Rectangle_812" data-name="Rectangle 812" class="cls-1" width="9.585" height="3.195" transform="translate(209.564 331.001)"/>
        <rect id="Rectangle_813" data-name="Rectangle 813" class="cls-1" width="9.585" height="3.195" transform="translate(222.368 331.001)"/>
        <rect id="Rectangle_814" data-name="Rectangle 814" class="cls-1" width="9.585" height="3.195" transform="translate(235.149 331.001)"/>
        <rect id="Rectangle_815" data-name="Rectangle 815" class="cls-1" width="9.585" height="3.195" transform="translate(247.929 331.001)"/>
        <rect id="Rectangle_816" data-name="Rectangle 816" class="cls-1" width="9.585" height="3.195" transform="translate(260.733 331.001)"/>
        <rect id="Rectangle_817" data-name="Rectangle 817" class="cls-1" width="277.281" height="10.348" transform="translate(0 334.673)"/>
        <rect id="Rectangle_818" data-name="Rectangle 818" class="cls-7" width="67.645" height="10.348" transform="translate(209.659 334.673)"/>
      </g>
      <g id="Text--inject-2" transform="translate(624.687 526.145)">
        <path id="Path_2214" data-name="Path 2214" class="cls-5" d="M294.25,367.749,336.692,267.39h25.465V367.749h11.016V388.97H362.157v26.944H339.243V388.97H294.25Zm44.993,0V311.954l-23.558,55.795Z" transform="translate(-287.288 -265.697)"/>
        <path id="Path_2215" data-name="Path 2215" class="cls-5" d="M331,304.02c0-23.844,12.518-37.34,35.432-37.34s35.432,13.567,35.432,37.34v77.23c0,23.844-12.518,37.34-35.432,37.34S331,405,331,381.25ZM354.343,382.7c0,10.611,4.769,14.64,12.089,14.64s12.113-4.03,12.113-14.64V302.541c0-10.611-4.769-14.64-12.113-14.64s-12.089,4.03-12.089,14.64Z" transform="translate(-236.411 -266.68)"/>
        <path id="Path_2216" data-name="Path 2216" class="cls-5" d="M373.09,286.06c18.05,0,22.08-8.7,25.68-18.67h15.689V415.914H391.14V302.607H373.09Z" transform="translate(-178.142 -265.697)"/>
        <path id="Path_2217" data-name="Path 2217" class="cls-5" d="M295.622,436.879c0,3.505,1.383,5.627,4.554,5.627s4.483-2.122,4.483-5.627V407.17h4.077v29.495c0,5.889-2.742,9.848-8.727,9.848s-8.679-3.958-8.679-9.848V407.17h4.292Z" transform="translate(-291.33 -72.187)"/>
        <path id="Path_2218" data-name="Path 2218" class="cls-5" d="M304.215,446.059H300.4V407.17h5.484l9.013,28.207V407.17h3.839v38.889h-4.506l-10.014-31.45Z" transform="translate(-278.774 -72.187)"/>
        <path id="Path_2219" data-name="Path 2219" class="cls-5" d="M314.988,438.215l-1.5,7.845H309.48l7.463-38.889h6.271l7.439,38.889h-4.34l-1.478-7.845Zm.548-3.72h8.679l-4.387-22.437Z" transform="translate(-266.203 -72.187)"/>
        <path id="Path_2220" data-name="Path 2220" class="cls-5" d="M324.016,436.879c0,3.505,1.383,5.627,4.554,5.627s4.483-2.122,4.483-5.627V407.17h4.053v29.495c0,5.889-2.742,9.848-8.727,9.848s-8.679-3.958-8.679-9.848V407.17h4.292Z" transform="translate(-252.055 -72.187)"/>
        <path id="Path_2221" data-name="Path 2221" class="cls-5" d="M335.3,446.059V411.1H328.15V407.17h18.717V411.1h-7.153v34.955Z" transform="translate(-240.357 -72.187)"/>
        <path id="Path_2222" data-name="Path 2222" class="cls-5" d="M341.506,428.558v17.5H337.19V407.17h4.316v17.5h9.538v-17.5h4.34v38.889h-4.34v-17.5Z" transform="translate(-227.842 -72.187)"/>
        <path id="Path_2223" data-name="Path 2223" class="cls-5" d="M346.55,416.8c0-5.961,2.957-9.8,8.894-9.8s8.941,3.839,8.941,9.8v20.1c0,5.889-2.933,9.776-8.941,9.776s-8.894-3.887-8.894-9.776Zm4.292,20.315c0,3.577,1.5,5.627,4.6,5.627s4.626-2.051,4.626-5.627V416.538c0-3.505-1.454-5.6-4.626-5.6s-4.6,2.1-4.6,5.6Z" transform="translate(-214.884 -72.422)"/>
        <path id="Path_2224" data-name="Path 2224" class="cls-5" d="M364.374,407.17c6.128,0,8.679,3.1,8.679,8.894v3.147c0,4.292-1.5,6.962-4.769,8.012,3.553,1.049,4.888,3.934,4.888,8.107v6.056a9.538,9.538,0,0,0,.787,4.769h-4.387a10.181,10.181,0,0,1-.739-4.769v-6.128c0-4.387-2.051-5.77-5.651-5.77h-3.076v16.691H355.79V407.17Zm-1.1,18.336c3.434,0,5.484-1.121,5.484-5.341v-3.72c0-3.505-1.264-5.341-4.483-5.341h-4.244v14.306Z" transform="translate(-202.092 -72.187)"/>
        <path id="Path_2225" data-name="Path 2225" class="cls-5" d="M369.256,407.17v38.889H364.94V407.17Z" transform="translate(-189.425 -72.187)"/>
        <path id="Path_2226" data-name="Path 2226" class="cls-5" d="M386.028,446.018H368.36v-3.887l13.329-31H368.98V407.2h17.168v3.887l-13.4,31h13.281Z" transform="translate(-184.69 -72.145)"/>
        <path id="Path_2227" data-name="Path 2227" class="cls-5" d="M391.307,424.385v3.839H381.77v13.853h11.66v3.934h-16V407.17h16V411.1H381.77v13.281Z" transform="translate(-172.134 -72.187)"/>
        <path id="Path_2228" data-name="Path 2228" class="cls-5" d="M394.948,407.17c6.056,0,8.822,3.672,8.822,9.657V436.45c0,5.937-2.766,9.538-8.822,9.538H385.84V407.17Zm0,34.955c3.1,0,4.6-1.955,4.6-5.508V416.612c0-3.553-1.5-5.508-4.769-5.508h-4.769v31Z" transform="translate(-160.491 -72.187)"/>
      </g>
      <g id="Character--inject-2" transform="translate(79.639 254.658)">
        <path id="Path_2229" data-name="Path 2229" class="cls-1" d="M361.407,203.86a73.106,73.106,0,0,1,6.676,31.76c0,19.075-9.18,37.578-6.676,45.113s3.362,34-1.812,39.176c-2.957,2.957-15.5-.858-15.5-.858s-3.362,10.014-6.7,10.014-12.518-1.669-15.856,4.173,1.669,12.542-1.669,15.88a45.3,45.3,0,0,1-7.535,5.842s-8.846,8.083-14.712,8.083S262.932,342.7,262.932,342.7s-22.008,14.092-31.164,20.816-14.306,29.614-14.306,29.614-49.548-35.17-41.178-67.741,106.582-78.923,138.295-97.307S361.407,203.86,361.407,203.86Z" transform="translate(93.129 -82.161)"/>
        <path id="Path_2230" data-name="Path 2230" class="cls-9" d="M255.37,239.757s2.814-12.947-8.87-12.947" transform="translate(191.656 -50.389)"/>
        <path id="Path_2231" data-name="Path 2231" class="cls-9" d="M245.6,224.244c-1.168-2.217,11.54-9.538,20.577-1.669" transform="translate(190.311 -61.176)"/>
        <path id="Path_2232" data-name="Path 2232" class="cls-10" d="M253.689,236.21c-1.455,3.028-3.982,4.769-5.651,4.053s-1.812-3.91-.358-6.939,4.006-4.769,5.651-4.077S255.168,233.158,253.689,236.21Z" transform="translate(191.906 -47.223)"/>
        <path id="Path_2233" data-name="Path 2233" class="cls-1" d="M221.307,250.579a6.629,6.629,0,1,1-6.629-6.629,6.629,6.629,0,0,1,6.629,6.629Z" transform="translate(138.426 -26.66)"/>
        <line id="Line_211" data-name="Line 211" class="cls-1" y2="23.391" transform="translate(353.104 230.547)"/>
        <path id="Path_2234" data-name="Path 2234" class="cls-1" d="M215.747,256.05s-10.134,28.851-8.584,31.188,18.336,1.168,19.5,0S215.747,256.05,215.747,256.05Z" transform="translate(136.976 -9.909)"/>
        <path id="Path_2235" data-name="Path 2235" class="cls-11" d="M247.749,304.263s20.816,13.448,15.451,14.116a27.945,27.945,0,0,1-17.454-4.03,30.211,30.211,0,0,0-16.142-4.03H216.18s5.365-9.538,12.089-10.754S247.749,304.263,247.749,304.263Z" transform="translate(149.681 50.105)"/>
        <path id="Path_2236" data-name="Path 2236" class="cls-11" d="M240.89,297.943s28.207,13.448,27.54,16.81-2.027,4.03-9.418,3.362-22.151-9.418-22.151-9.418L220.17,306S230.137,291.243,240.89,297.943Z" transform="translate(155.205 45.672)"/>
        <path id="Path_2237" data-name="Path 2237" class="cls-11" d="M199.27,311.772s26.872-14.092,32.928-17.454,18.145-2.027,26.872-2.027,36.958.668,38.293,6.056-8.059,6.724-17.478,6.724-17.454-1.359-24.845,6.7a66.024,66.024,0,0,0-11.421,18.813,131.143,131.143,0,0,0,21.459,2.694c8.727,0,22.151,3.362,20.816,7.392s-4.769,8.059-15.451,6.724-25.537.668-36.958,1.335-28.875-2.694-28.875-2.694Z" transform="translate(126.271 39.901)"/>
        <path id="Path_2238" data-name="Path 2238" class="cls-12" d="M220.147,289.176s7.153,0,2.17,15.88-7.916,46.138-7.916,46.138L191.32,274.75Z" transform="translate(115.265 15.979)"/>
        <path id="Path_2239" data-name="Path 2239" class="cls-8" d="M334.724,590.836a68.586,68.586,0,0,0,4.34-7.01C353.7,556.262,358.878,470.138,356.3,413.27s-4.435-90.106-15.618-110.779c0,0-26.467-29.829-53.172-42.752S211.57,284.06,187.369,321.113,110.424,545.079,94.854,580.392a28.087,28.087,0,0,0-2.384,10.444Z" transform="translate(-21.582 -8.424)"/>
        <path id="Path_2240" data-name="Path 2240" class="cls-8" d="M453.5,430.837a97.367,97.367,0,0,0,13.52-.358c2.074,0,24.774-3.338,18.67-9.538-1.884-1.884-7.439-1.669-9.871-1.979a160.8,160.8,0,0,0-37.244-.739l15.594-6.509a75.764,75.764,0,0,1,10.014-.62h6.271c3.791,0,13.186-1.335,15.069-5.1,3.028-6.056-22.866-8.8-26.61-8.8s-23.033,2.384-24.058,2.384l-3.839.763h-.692s18.074-5.174,25.823-5.174,18.1,2.6,20.673-5.174-17.215-5.15-34.454-4.292-29.28,11.183-39.6,19.814-30.163,45.637-51.694,64.593-66.334,36.338-66.334,36.338S258.836,359.9,247.653,317.7s-40.535-53.148-40.535-53.148L167.18,395c5.055,27.277,35.766,169.292,37.363,172.606a60.421,60.421,0,0,0,7.582,13.019H312.27a142.6,142.6,0,0,0,12.757-12.16c13.782-14.664,60.3-95.614,60.3-95.614s5.174-.858,17.239-7.773c7.821-4.459,20.053-16.262,29.543-14.139a96.522,96.522,0,0,0,23.725,1.454C462.32,452.2,470,451.915,474.91,447c4.03-4.03-4.411-3.29-6.676-3.481-7.153-.6-13.71-3.338-20.577-5.126-2.17-.572-10.277-3.648-12.375-2.6a65.471,65.471,0,0,0,6.033-3.433C444.1,430.551,448.324,430.837,453.5,430.837Z" transform="translate(81.846 1.858)"/>
        <path id="Path_2241" data-name="Path 2241" class="cls-7" d="M448.8,361.148a97.367,97.367,0,0,0,13.52-.358c2.074,0,24.774-3.338,18.67-9.538-1.884-1.884-7.439-1.669-9.871-1.979a160.8,160.8,0,0,0-37.244-.739l15.594-6.509a75.764,75.764,0,0,1,10.014-.62h6.271c3.791,0,13.186-1.335,15.069-5.1,3.028-6.056-22.866-8.8-26.61-8.8s-23.033,2.384-24.058,2.384l-3.839.763h-.692s18.074-5.174,25.823-5.174,18.1,2.6,20.673-5.174-17.215-5.15-34.454-4.292-29.28,11.183-39.6,19.814-30.163,45.637-51.694,64.593-66.334,36.338-66.334,36.338-12.065-66-23.272-121.246a164.809,164.809,0,0,0-86.2,48.952c10.849,51.646,28.136,131,29.376,133.526a60.418,60.418,0,0,0,7.582,13.019H307.672a142.576,142.576,0,0,0,12.757-12.16c13.782-14.664,60.3-95.614,60.3-95.614s5.174-.858,17.239-7.773C405.79,391,418.022,379.2,427.512,381.32a96.517,96.517,0,0,0,23.725,1.454c6.486-.191,14.163-.477,19.075-5.389,4.03-4.03-4.411-3.29-6.676-3.481-7.153-.6-13.71-3.338-20.577-5.126-2.17-.572-10.277-3.648-12.375-2.6a65.48,65.48,0,0,0,6.033-3.433C439.41,360.862,443.63,361.148,448.8,361.148Z" transform="translate(86.539 71.547)"/>
        <path id="Path_2242" data-name="Path 2242" class="cls-1" d="M447,361.148a97.367,97.367,0,0,0,13.52-.358c2.074,0,24.774-3.338,18.67-9.538-1.884-1.884-7.439-1.669-9.871-1.979a160.8,160.8,0,0,0-37.244-.739l15.594-6.509a75.764,75.764,0,0,1,10.014-.62h6.271c3.791,0,13.186-1.335,15.069-5.1,3.028-6.056-22.866-8.8-26.61-8.8s-23.033,2.384-24.058,2.384l-3.839.763h-.692s18.074-5.174,25.823-5.174,18.1,2.6,20.673-5.174-17.215-5.15-34.454-4.292-29.28,11.183-39.6,19.814-30.163,45.637-51.694,64.593-66.334,36.338-66.334,36.338-9.919-54.269-20.124-105.581A144.733,144.733,0,0,0,171.87,379.2c10.754,50.74,25.155,116.478,26.228,118.719a60.421,60.421,0,0,0,7.582,13.019H305.825a142.576,142.576,0,0,0,12.757-12.16c13.782-14.664,60.3-95.614,60.3-95.614s5.174-.858,17.239-7.773c7.821-4.459,20.053-16.262,29.543-14.139a96.525,96.525,0,0,0,23.725,1.454c6.486-.191,14.163-.477,19.075-5.389,4.03-4.03-4.411-3.291-6.676-3.481-7.153-.6-13.71-3.338-20.577-5.126-2.17-.572-10.277-3.648-12.375-2.6a65.443,65.443,0,0,0,6.033-3.433C437.61,360.862,441.831,361.148,447,361.148Z" transform="translate(88.339 71.547)"/>
        <line id="Line_212" data-name="Line 212" class="cls-1" x2="9.061" y2="44.35" transform="translate(366.576 508.233)"/>
        <path id="Path_2243" data-name="Path 2243" class="cls-5" d="M289.328,259.451s-38.413-7.272-61.66,36.672c-19.6,36.982-100.574,231.6-125.657,292.112H202.154c21.15-96.21,61.994-271.367,79.734-277.9,24.535-9.061,61.851.644,61.851.644Z" transform="translate(-8.375 -5.823)"/>
        <g id="Group_8012" data-name="Group 8012" class="cls-13" transform="translate(93.635 253.178)">
          <path id="Path_2244" data-name="Path 2244" class="cls-14" d="M202.172,588.235c21.15-96.21,61.994-271.367,79.734-277.9,24.535-9.061,61.851.644,61.851.644L289.3,259.451s-38.413-7.272-61.66,36.672c-19.6,36.982-100.574,231.6-125.657,292.112Z" transform="translate(-102.052 -259.001)"/>
        </g>
        <path id="Path_2246" data-name="Path 2246" class="cls-15" d="M289.328,259.451s-38.413-7.272-61.66,36.672c-19.6,36.982-100.574,231.6-125.657,292.112H202.154c21.15-96.21,61.994-271.367,79.734-277.9,24.535-9.061,61.851.644,61.851.644Z" transform="translate(-8.375 -5.823)"/>
        <rect id="Rectangle_819" data-name="Rectangle 819" class="cls-1" width="80.116" height="10.348" transform="translate(609.498 571.968)"/>
        <path id="Path_2247" data-name="Path 2247" class="cls-7" d="M387.941,249.808s-10.324,36.171-60.277,60.3-70.721,38.746-84.431,49.953-23.248,28.422-55.986,8.608-27.564-89.582-16.357-124.894,39.6-74.941,103.363-73.225,118.862,42.2,121.461,58.585S387.941,249.808,387.941,249.808Z" transform="translate(75.108 -128.348)"/>
        <path id="Path_2248" data-name="Path 2248" class="cls-16" d="M204.255,203.95a13.329,13.329,0,1,1-13.281-12.113,12.733,12.733,0,0,1,13.281,12.113Z" transform="translate(96.345 -98.822)"/>
        <path id="Path_2249" data-name="Path 2249" class="cls-7" d="M304.572,230.548s7.988-24.392-10.467-31-19.528,8.7-69.147,30.377-83.454,29.733-92.729,55.795,9.538,39.819,9.538,39.819-37.411,17.6-44.54,44.8,15.046,55.771,66.763,67.693,88.962-11.087,100.621-30.568,14.974-45.3,14.974-45.3,13.114,13.138,29.137-21.2S304.572,230.548,304.572,230.548Z" transform="translate(-16.8 -90.274)"/>
        <g id="Group_8013" data-name="Group 8013" class="cls-17" transform="translate(116.138 115.428)">
          <path id="Path_2250" data-name="Path 2250" class="cls-18" d="M196.395,318.375c7.749-32.738-12.065-117.145-12.065-117.145" transform="translate(-10.549 -201.23)"/>
          <path id="Path_2251" data-name="Path 2251" class="cls-18" d="M180.564,337.267c-34.884,7.654-59.61-33.93-35.361-60.9a39.1,39.1,0,0,1,34.717-12.208c7.153,1.168,14.592,5.007,17.335,11.779a20.84,20.84,0,0,1-.6,14.926C191.1,305.531,154,324.749,154,296.828c0-12.709,18.932-25.108,23.1-16.166s1.168,15.022-5.77,15.022" transform="translate(-78.148 -114.732)"/>
          <path id="Path_2252" data-name="Path 2252" class="cls-18" d="M180.353,278.567c-9.228,0-13.853,23.1,2.384,25.418s41.87-7.559,23.1-31.188c-9.347-11.922-49.667-17.335-61.231,4.6s2.384,49.691,40.535,55.485c25.871,3.91,60.611-3.791,62.4-35.766,1.145-20.792,1.145-87.817,1.145-87.817" transform="translate(-70.999 -190.058)"/>
          <path id="Path_2253" data-name="Path 2253" class="cls-18" d="M153.052,230.59s-40.535,24.273-27.73,48.546,68.194,20.792,68.194,20.792" transform="translate(-95.702 -160.584)"/>
          <path id="Path_2254" data-name="Path 2254" class="cls-18" d="M150.319,255.31s-45.065,5.77-38.15,49.691" transform="translate(-111.447 -126.362)"/>
        </g>
        <rect id="Rectangle_820" data-name="Rectangle 820" class="cls-19" width="538.491" height="582.316" transform="translate(60.778)"/>
        <line id="Line_213" data-name="Line 213" class="cls-15" x2="870.493" transform="translate(0 582.507)"/>
      </g>
    </g>
  </g>
</svg>
