<svg xmlns="http://www.w3.org/2000/svg" xmlns:xlink="http://www.w3.org/1999/xlink" width="1920" height="1080" viewBox="0 0 1920 1080">
  <defs>
    <style>
      .cls-1 {
        clip-path: url(#clip-_403);
      }

      .cls-2, .cls-6 {
        fill: #8167f2;
      }

      .cls-15, .cls-20, .cls-3, .cls-8 {
        fill: #fff;
      }

      .cls-3 {
        opacity: 0.7;
      }

      .cls-17, .cls-4 {
        fill: none;
      }

      .cls-11, .cls-12, .cls-14, .cls-15, .cls-16, .cls-17, .cls-18, .cls-19, .cls-4, .cls-5, .cls-6, .cls-7, .cls-8, .cls-9 {
        stroke: #263238;
        stroke-width: 1.166px;
      }

      .cls-11, .cls-12, .cls-18, .cls-19, .cls-4, .cls-5, .cls-6, .cls-7, .cls-8, .cls-9 {
        stroke-linecap: round;
        stroke-linejoin: round;
      }

      .cls-10, .cls-14, .cls-5 {
        fill: #263238;
      }

      .cls-16, .cls-7 {
        fill: #8a51e4;
      }

      .cls-9 {
        fill: #4c4c4c;
      }

      .cls-11 {
        fill: #ccc;
      }

      .cls-12, .cls-13 {
        fill: #8d3ddc;
      }

      .cls-14, .cls-15, .cls-16, .cls-17 {
        stroke-miterlimit: 10;
      }

      .cls-18 {
        fill: #64b4d2;
      }

      .cls-19 {
        fill: #92e3a9;
      }
    </style>
    <clipPath id="clip-_403">
      <rect width="1920" height="1080"/>
    </clipPath>
  </defs>
  <g id="_403" data-name="403" class="cls-1">
    <rect class="cls-20" width="1920" height="1080"/>
    <g id="_403_Error_Forbidden-bro" data-name="403 Error Forbidden-bro" transform="translate(433.63 25.042)">
      <g id="background-simple--inject-2" transform="translate(76.896 70.958)">
        <path id="Path_2255" data-name="Path 2255" class="cls-2" d="M55.645,544.441s5.416,168.124,145.746,280.206,334.8,120.092,492.216,130.763,278.348-78.5,296.487-213.237S888.028,567.885,822.753,414.5,763.386,210.692,625.3,116.356s-354.127-36.4-467.376,125.159S55.645,544.441,55.645,544.441Z" transform="translate(-55.356 -70.958)"/>
        <path id="Path_2256" data-name="Path 2256" class="cls-3" d="M55.645,544.441s5.416,168.124,145.746,280.206,334.8,120.092,492.216,130.763,278.348-78.5,296.487-213.237S888.028,567.885,822.753,414.5,763.386,210.692,625.3,116.356s-354.127-36.4-467.376,125.159S55.645,544.441,55.645,544.441Z" transform="translate(-55.356 -70.958)"/>
      </g>
      <g id="Padlock--inject-2" transform="translate(99.863 157.089)">
        <path id="Path_2257" data-name="Path 2257" class="cls-4" d="M101.76,276.757V216.264c0-42.817,35.587-77.652,79.319-77.652S260.4,173.448,260.4,216.264v60.493h31.62V216.264c0-59.882-49.765-108.614-110.938-108.614S70.14,156.382,70.14,216.264v60.493Z" transform="translate(-58.403 -107.65)"/>
        <rect id="Rectangle_821" data-name="Rectangle 821" class="cls-4" width="242.205" height="200.351" transform="translate(0 169.53)"/>
        <path id="Path_2258" data-name="Path 2258" class="cls-4" d="M157.736,230.013a26.385,26.385,0,0,0-52.746,0,25.821,25.821,0,0,0,13.85,22.723L114.4,298.229h33.92l-4.437-45.493a25.821,25.821,0,0,0,13.85-22.723Z" transform="translate(-11.446 22.732)"/>
      </g>
      <g id="Character--inject-2" transform="translate(259.916 216.494)">
        <path id="Path_2259" data-name="Path 2259" class="cls-5" d="M335.905,270.833l-60.3-3.967v-.986l-7.418.493-7.394-.493v.986l-60.3,3.967L156,636.559h44.483L266.7,344.964h2.981l66.22,291.595h44.483Z" transform="translate(-104.521 41.46)"/>
        <path id="Path_2260" data-name="Path 2260" class="cls-6" d="M184.929,423.78,174.06,440.587l-33.615,14.836a11.455,11.455,0,0,0-5.915,9.883v12.84H230.4a127.255,127.255,0,0,0,0-20.751c-.986-9.883-.986-33.615-.986-33.615Z" transform="translate(-133.45 254.215)"/>
        <path id="Path_2261" data-name="Path 2261" class="cls-5" d="M134.53,442.31v10.869H230.4s.446-4.695.446-10.869Z" transform="translate(-133.45 279.183)"/>
        <path id="Path_2262" data-name="Path 2262" class="cls-6" d="M277.852,423.78l10.868,16.807,33.615,14.836a11.456,11.456,0,0,1,5.915,9.883v12.84H232.383a127.256,127.256,0,0,1,0-20.751c.986-9.882.986-33.615.986-33.615Z" transform="translate(-2.173 254.215)"/>
        <path id="Path_2263" data-name="Path 2263" class="cls-5" d="M328.311,442.31v10.869H232.4s-.422-4.695-.446-10.869Z" transform="translate(-2.186 279.183)"/>
        <path id="Path_2264" data-name="Path 2264" class="cls-7" d="M204.492,195.51S134.07,294.477,134.07,301.73s11.2,63.263,28.99,68.521,27.676-3.944,30.962-22.394-7.911-44.812-7.911-44.812L218.976,273.4Z" transform="translate(-134.07 -53.357)"/>
        <path id="Path_2265" data-name="Path 2265" class="cls-8" d="M169.41,260.612s20.422-3.31,25.7-2,9.225,13.85,9.225,13.85,1.972,18.451-1.338,22.394-19.108,8.568-25.681,9.883-20.446-13.826-25.821-23.052S155.56,256.645,169.41,260.612Z" transform="translate(-112.65 31.258)"/>
        <path id="Path_2266" data-name="Path 2266" class="cls-7" d="M178.882,203.4l-14.812,4.483L187.4,363.629H326.088l21.1-154.858-18.85-7.183L258.764,186.33Z" transform="translate(-93.648 -65.726)"/>
        <path id="Path_2267" data-name="Path 2267" class="cls-5" d="M266.225,216.818,263.1,239.259l-24.249,5.822-24.695-9.859,1.807-20.211Z" transform="translate(-26.156 -27.082)"/>
        <circle id="Ellipse_152" data-name="Ellipse 152" class="cls-9" cx="4.272" cy="4.272" r="4.272" transform="translate(209.999 203.632)"/>
        <path id="Path_2268" data-name="Path 2268" class="cls-5" d="M200.162,209.39l13.028,15.258L196.57,330.563l17.512,27.84,20.657-29.178L217.227,225.094l14.812-14.366-15.7-20.188Z" transform="translate(-49.857 -60.053)"/>
        <path id="Path_2269" data-name="Path 2269" class="cls-5" d="M227.015,187.29,167.32,202.1l1.807,7.183,58.333-16.174Z" transform="translate(-89.269 -64.432)"/>
        <path id="Path_2270" data-name="Path 2270" class="cls-5" d="M213.846,186.52l59.695,14.812-1.784,7.183L213.4,192.365Z" transform="translate(-27.18 -65.47)"/>
        <path id="Path_2271" data-name="Path 2271" class="cls-7" d="M245.263,192.83s22.582,5.094,36.408,13,17.136,25.7,9.225,45.469-32.277,17.136-43.474,11.737-14.507-25.023-12.535-33.591" transform="translate(1.05 -56.968)"/>
        <path id="Path_2272" data-name="Path 2272" class="cls-7" d="M197.767,184.822l-6.737,4.484,1.784,45.328L221.992,214l30.516,21.08,2.7-44.882-8.075-6.737Z" transform="translate(-57.322 -69.593)"/>
        <path id="Path_2273" data-name="Path 2273" class="cls-5" d="M267.51,196.261s16.573-4.038,19.695-20.61-26.737-36.737-47.441-40.3-51.056,17.911-55.986,32.7,14.319,29.554,34.929,32.7S267.51,196.261,267.51,196.261Z" transform="translate(-68.145 -134.952)"/>
        <path id="Path_2274" data-name="Path 2274" class="cls-8" d="M199.3,166.094s-8.967-13.9-11.2-1.808,7.16,17.465,11.2,17.019S199.3,166.094,199.3,166.094Z" transform="translate(-61.72 -102.086)"/>
        <path id="Path_2275" data-name="Path 2275" class="cls-8" d="M218.55,166.094s8.967-13.9,11.2-1.808-7.042,17.465-11.2,17.019S218.55,166.094,218.55,166.094Z" transform="translate(-22.729 -102.086)"/>
        <path id="Path_2276" data-name="Path 2276" class="cls-8" d="M193.52,173.9v29.624l25.117,23.357,28.286-24.249V174.816Z" transform="translate(-53.967 -82.474)"/>
        <path id="Path_2277" data-name="Path 2277" class="cls-8" d="M192.154,169.989s-1.362,27.77.892,36.737,17.019,27.77,28.662,31.807,27.77-20.164,31.361-28.169,2.23-42.112,2.23-42.112-4.906-11.737-14.765-15.211S200.206,143.229,192.154,169.989Z" transform="translate(-56.357 -114.948)"/>
        <path id="Path_2278" data-name="Path 2278" class="cls-10" d="M202.329,166.876c0,2.113-.962,3.826-2.16,3.826s-2.16-1.714-2.16-3.826.962-3.826,2.16-3.826S202.329,164.764,202.329,166.876Z" transform="translate(-47.917 -97.093)"/>
        <path id="Path_2279" data-name="Path 2279" class="cls-10" d="M214.039,166.876c0,2.113-.962,3.826-2.16,3.826s-2.16-1.714-2.16-3.826.962-3.826,2.16-3.826S214.039,164.764,214.039,166.876Z" transform="translate(-32.139 -97.093)"/>
        <path id="Path_2280" data-name="Path 2280" class="cls-8" d="M203.965,169.287a3,3,0,1,0,0,5.845,4.085,4.085,0,0,0,2.606-.869,7.535,7.535,0,0,0,11.315.188,4.225,4.225,0,0,0,2.347.681,3,3,0,1,0,0-5.845" transform="translate(-44.882 -88.8)"/>
        <line id="Line_214" data-name="Line 214" class="cls-11" x2="9.366" transform="translate(162.652 98.867)"/>
        <path id="Path_2281" data-name="Path 2281" class="cls-5" d="M191.48,168.866s.329,9.014,3.333,6.667,3.991-17.652,1.338-19.648S191.48,164.218,191.48,168.866Z" transform="translate(-56.716 -107.088)"/>
        <path id="Path_2282" data-name="Path 2282" class="cls-5" d="M216.11,168.866s.352,9.014,3.333,6.667,4.014-17.652,1.338-19.648S216.11,164.218,216.11,168.866Z" transform="translate(-23.529 -107.088)"/>
        <path id="Path_2283" data-name="Path 2283" class="cls-7" d="M191.635,171.371s1.009.822.986,1.221c4.343,2.347,14.319,6.667,30.516,7.535A62.347,62.347,0,0,0,256,172.075c0-1.2,0-1.9,0-1.925-.4-10.493-8.192-17.488-17.84-20.164a45.939,45.939,0,0,0-28.732,1.432,28.169,28.169,0,0,0-11.9,8.568C196.33,161.3,189.992,170.056,191.635,171.371Z" transform="translate(-56.871 -116.917)"/>
        <path id="Path_2284" data-name="Path 2284" class="cls-7" d="M191.92,158.4a106.08,106.08,0,0,0,30.516,2.23c19.272-.892,32.676-2.23,32.676-2.23a53.145,53.145,0,0,1-32.394,14.225,35.54,35.54,0,0,1-30.8-14.225Z" transform="translate(-56.123 -103.359)"/>
        <path id="Path_2285" data-name="Path 2285" class="cls-5" d="M170.96,216.818l3.122,22.441,24.249,5.822L223,235.221l-1.784-20.211Z" transform="translate(-84.364 -27.082)"/>
        <circle id="Ellipse_153" data-name="Ellipse 153" class="cls-9" cx="4.272" cy="4.272" r="4.272" transform="translate(108.121 203.632)"/>
        <rect id="Rectangle_822" data-name="Rectangle 822" class="cls-12" width="142.323" height="22.394" transform="translate(91.69 296.472)"/>
        <rect id="Rectangle_823" data-name="Rectangle 823" class="cls-12" width="43.497" height="27.676" rx="2.67" transform="translate(81.807 297.786)"/>
        <rect id="Rectangle_824" data-name="Rectangle 824" class="cls-12" width="43.497" height="27.676" rx="2.67" transform="translate(195.14 297.786)"/>
        <rect id="Rectangle_825" data-name="Rectangle 825" class="cls-8" width="30.962" height="19.765" transform="translate(149.671 297.786)"/>
        <path id="Path_2286" data-name="Path 2286" class="cls-4" d="M171.789,249.27s-19.765-1.315-27.019-13.85" transform="translate(-119.653 0.418)"/>
        <ellipse id="Ellipse_154" data-name="Ellipse 154" class="cls-7" cx="32.629" cy="34.272" rx="32.629" ry="34.272" transform="translate(239.271 123.163)"/>
        <ellipse id="Ellipse_155" data-name="Ellipse 155" class="cls-7" cx="25.54" cy="22.887" rx="25.54" ry="22.887" transform="translate(246.36 117.2)"/>
        <ellipse id="Ellipse_156" data-name="Ellipse 156" class="cls-8" cx="25.54" cy="22.887" rx="25.54" ry="22.887" transform="translate(246.36 100.37)"/>
        <path id="Path_2287" data-name="Path 2287" class="cls-8" d="M232.42,192.176s.446,33.756,2.16,43.709,8.662,22.934,18.192,22.934a59.93,59.93,0,0,0,18.615-3.451s11.244,6.056,22.066,4.319,9.084-16.878,9.084-23.474-1.291-55.4-1.291-55.4.869-4.695-3.474-5.61a37.084,37.084,0,0,0-6.479-.868v-10.4a7.888,7.888,0,0,0-7.371-3.451c-5.61,0-6.056,1.291-6.056,1.291v-9.53s-4.695-7.582-10.822-3.9a8.638,8.638,0,0,0-4.319,6.925l-.446,9.108s-10.375-3.9-11.244,2.16-2.606,43.38-2.606,43.38a95.922,95.922,0,0,0-3.451-17.324C242.819,186.965,232.42,186.965,232.42,192.176Z" transform="translate(-1.553 -118.262)"/>
        <line id="Line_215" data-name="Line 215" class="cls-4" x2="0.869" y2="39.812" transform="translate(260.726 46.215)"/>
        <line id="Line_216" data-name="Line 216" class="cls-4" x2="0.446" y2="42.84" transform="translate(276.313 43.609)"/>
        <line id="Line_217" data-name="Line 217" class="cls-4" x1="0.869" y2="29.859" transform="translate(288.872 56.168)"/>
        <line id="Line_218" data-name="Line 218" class="cls-4" x2="39.389" y2="1.714" transform="translate(255.116 85.604)"/>
        <path id="Path_2288" data-name="Path 2288" class="cls-4" d="M239.24,174a10.586,10.586,0,0,0,4.249,8.4c4.272,2.676,13.9,9.624,14.953,20.845" transform="translate(7.637 -82.339)"/>
      </g>
      <g id="Text--inject-2" transform="translate(661.367 183.591)">
        <path id="Path_2289" data-name="Path 2289" class="cls-13" d="M360.483,141.759V146.9H347.971v18.216h15.375v5.258H342.22V119.2h21.127v5.188H347.971v17.465Z" transform="translate(-258.465 -118.59)"/>
        <path id="Path_2290" data-name="Path 2290" class="cls-13" d="M364.848,119.16c8.028,0,11.408,4.085,11.408,11.737v4.178c0,5.634-1.972,9.131-6.361,10.516,4.695,1.385,6.432,5.188,6.432,10.681v7.981a12.887,12.887,0,0,0,1.009,6.127h-5.775a13.382,13.382,0,0,1-.939-6.2v-8.052c0-5.775-2.7-7.606-7.465-7.606h-4.014v21.9h-5.7V119.254Zm-1.479,24.131c4.554,0,7.253-1.479,7.253-7.042v-4.906c0-4.695-1.69-7.042-5.915-7.042h-5.563v18.944Z" transform="translate(-243.347 -118.644)"/>
        <path id="Path_2291" data-name="Path 2291" class="cls-13" d="M377.118,119.16c8.052,0,11.408,4.085,11.408,11.737v4.178c0,5.634-1.972,9.131-6.361,10.516,4.695,1.385,6.432,5.188,6.432,10.681v7.981a12.606,12.606,0,0,0,1.033,6.127h-5.775a13.286,13.286,0,0,1-.962-6.2v-8.052c0-5.775-2.7-7.606-7.465-7.606h-4.014v21.9h-5.7V119.254Zm-1.338,24.131c4.53,0,7.23-1.479,7.23-7.042v-4.906c0-4.695-1.667-7.042-5.915-7.042h-5.563v18.944Z" transform="translate(-226.814 -118.644)"/>
        <path id="Path_2292" data-name="Path 2292" class="cls-13" d="M377.8,131.8c0-7.817,3.873-12.864,11.737-12.864s11.737,5.047,11.737,12.864v26.479c0,7.746-3.873,12.864-11.737,12.864S377.8,166.029,377.8,158.283Zm5.634,26.76c0,4.695,1.972,7.394,6.056,7.394s6.08-2.7,6.08-7.394V131.522c0-4.695-1.9-7.394-6.08-7.394s-6.056,2.77-6.056,7.394Z" transform="translate(-210.524 -118.94)"/>
        <path id="Path_2293" data-name="Path 2293" class="cls-13" d="M401.6,119.16c8.052,0,11.408,4.085,11.408,11.737v4.178c0,5.634-1.972,9.131-6.361,10.516,4.695,1.385,6.432,5.188,6.432,10.681v7.981a12.607,12.607,0,0,0,1.033,6.127h-5.775a13.287,13.287,0,0,1-.962-6.2v-8.052c0-5.775-2.7-7.606-7.465-7.606H395.9v21.9h-5.8V119.254Zm-1.455,24.131c4.531,0,7.23-1.479,7.23-7.042v-4.906c0-4.695-1.667-7.042-5.915-7.042H395.9v18.944Z" transform="translate(-193.951 -118.644)"/>
        <path id="Path_2294" data-name="Path 2294" class="cls-13" d="M339.391,278.556v5.188H327.654V305.9h-5.7V254.73h20.329v5.188H327.654v18.638Z" transform="translate(-285.777 64.024)"/>
        <path id="Path_2295" data-name="Path 2295" class="cls-13" d="M332.33,267.384c0-7.817,3.9-12.864,11.737-12.864s11.737,5.047,11.737,12.864v26.479c0,7.746-3.873,12.864-11.737,12.864s-11.737-5.117-11.737-12.864Zm5.634,26.76c0,4.695,1.972,7.394,6.08,7.394s6.056-2.7,6.056-7.394V267.079c0-4.695-1.9-7.394-6.056-7.394s-6.08,2.77-6.08,7.394Z" transform="translate(-271.79 63.741)"/>
        <path id="Path_2296" data-name="Path 2296" class="cls-13" d="M356.048,254.73c8.028,0,11.408,4.084,11.408,11.737v4.178c0,5.634-1.972,9.131-6.361,10.516,4.695,1.385,6.432,5.188,6.432,10.681v7.981a12.606,12.606,0,0,0,1.033,6.127h-5.775a12.981,12.981,0,0,1-.962-6.2V291.7c0-5.775-2.7-7.606-7.465-7.606h-4.014V305.95h-5.7V254.777Zm-1.455,24.108c4.531,0,7.23-1.479,7.23-7.042V266.89c0-4.695-1.69-7.042-5.915-7.042h-5.563v18.99Z" transform="translate(-255.204 64.024)"/>
        <path id="Path_2297" data-name="Path 2297" class="cls-13" d="M368.389,254.757c7.981,0,11.127,3.8,11.127,11.338v2.347c0,5.422-1.549,8.779-6.009,10.164,4.977,1.408,6.878,5.352,6.878,10.986v4.3c0,7.7-3.732,12-11.737,12H356.91V254.71ZM367,276.47c4.531,0,6.878-1.455,6.878-6.807v-3c0-4.53-1.549-6.714-5.634-6.714h-5.634v16.432Zm1.69,24.272c4.155,0,6.056-2.183,6.056-7.042V289.17c0-5.7-2.347-7.606-7.16-7.606h-4.976v19.084Z" transform="translate(-238.671 63.997)"/>
        <path id="Path_2298" data-name="Path 2298" class="cls-13" d="M374.824,254.73V305.9h-5.7V254.73Z" transform="translate(-222.219 64.024)"/>
        <path id="Path_2299" data-name="Path 2299" class="cls-13" d="M386.022,254.73c7.981,0,11.737,4.695,11.737,12.723v25.821c0,7.84-3.662,12.653-11.737,12.653H374.05V254.754Zm0,45.986c4.108,0,6.08-2.559,6.08-7.23V267.1c0-4.695-1.972-7.23-6.15-7.23H379.8v40.8Z" transform="translate(-215.577 64.024)"/>
        <path id="Path_2300" data-name="Path 2300" class="cls-13" d="M398.375,254.73c7.958,0,11.62,4.695,11.62,12.723v25.821c0,7.84-3.662,12.653-11.62,12.653h-12V254.754Zm0,45.986c4.084,0,6.056-2.559,6.056-7.23V267.1c0-4.695-1.972-7.23-6.127-7.23h-6.15v40.8Z" transform="translate(-198.963 64.024)"/>
        <path id="Path_2301" data-name="Path 2301" class="cls-13" d="M416.953,277.383V282.5H404.441v18.216h15.375V305.9H398.69V254.73h21.127v5.188H404.441v17.465Z" transform="translate(-182.377 64.024)"/>
        <path id="Path_2302" data-name="Path 2302" class="cls-13" d="M415.017,305.9H409.9V254.73h7.277l11.737,37v-37h5.047V305.9h-5.939l-13.075-41.385Z" transform="translate(-167.272 64.024)"/>
        <path id="Path_2303" data-name="Path 2303" class="cls-13" d="M306.54,279.147l52.23-123.5h31.338v123.5h13.568v26.1H390.108V338.4H361.939V305.25h-55.4Zm55.352,0V210.462l-28.967,68.662Z" transform="translate(-306.54 -69.477)"/>
        <path id="Path_2304" data-name="Path 2304" class="cls-13" d="M352.48,200.7c0-29.225,15.4-45.939,43.591-45.939s43.615,16.714,43.615,45.939v95.046c0,29.249-15.422,45.939-43.615,45.939s-43.591-16.69-43.591-45.939Zm28.709,96.877c0,13.052,5.751,18,14.883,18s14.883-4.953,14.883-18V198.985c0-13.075-5.728-18.028-14.883-18.028s-14.883,4.953-14.883,18.028Z" transform="translate(-244.64 -70.676)"/>
        <path id="Path_2305" data-name="Path 2305" class="cls-13" d="M453.761,201.755c0-16.432-5.728-20.892-14.883-20.892S424,185.816,424,198.891v11.737H396.86V200.7c0-29.225,14.6-45.939,42.817-45.939s42.817,16.714,42.817,45.939v4.695c0,19.577-6.268,31.854-20.117,37.558,14.366,6.268,20.117,19.836,20.117,38.38V295.7c0,29.249-14.624,45.939-42.817,45.939S396.86,324.947,396.86,295.7V280.557H424v16.972c0,13.052,5.751,18,14.883,18s14.883-4.437,14.883-20.61V280.557c0-16.972-5.728-23.239-18.779-23.239h-9.624V231.262h11.221c10.7,0,17.23-4.695,17.23-19.319Z" transform="translate(-184.842 -70.676)"/>
      </g>
      <g id="security-barrier--inject-2" transform="translate(77.774 587.989)">
        <path id="Path_2306" data-name="Path 2306" class="cls-14" d="M106.084,625.045H72.61L117.234,313.99h33.474Z" transform="translate(-32.986 -265.211)"/>
        <path id="Path_2307" data-name="Path 2307" class="cls-15" d="M141,625.045h33.451L129.831,313.99H96.38Z" transform="translate(-0.958 -265.211)"/>
        <path id="Path_2308" data-name="Path 2308" class="cls-14" d="M308.381,625.045H274.93l44.6-311.055H353Z" transform="translate(236.082 -265.211)"/>
        <path id="Path_2309" data-name="Path 2309" class="cls-15" d="M343.314,625.045h33.451L332.141,313.99H298.69Z" transform="translate(267.713 -265.211)"/>
        <rect id="Rectangle_826" data-name="Rectangle 826" class="cls-16" width="638.33" height="61.878"/>
        <rect id="Rectangle_827" data-name="Rectangle 827" class="cls-16" width="638.33" height="61.878" transform="translate(15.563)"/>
        <path id="Path_2310" data-name="Path 2310" class="cls-10" d="M66.81,355.088h54.178l28-61.878H94.815Z" transform="translate(-40.801 -293.21)"/>
        <path id="Path_2311" data-name="Path 2311" class="cls-10" d="M205.343,293.21H151.165l-28,61.878h54.178Z" transform="translate(34.031 -293.21)"/>
        <path id="Path_2312" data-name="Path 2312" class="cls-10" d="M374.369,293.21H320.191L292.21,355.088h54.178Z" transform="translate(259.065 -293.21)"/>
        <path id="Path_2313" data-name="Path 2313" class="cls-10" d="M318.043,293.21h-54.2L235.86,355.088h54.178Z" transform="translate(184.054 -293.21)"/>
        <path id="Path_2314" data-name="Path 2314" class="cls-10" d="M261.693,293.21H207.515l-28,61.878h54.178Z" transform="translate(109.042 -293.21)"/>
        <line id="Line_219" data-name="Line 219" class="cls-17" x1="105.633" transform="translate(540.872 27.441)"/>
        <line id="Line_220" data-name="Line 220" class="cls-17" x1="16.667" transform="translate(627.857 37.793)"/>
        <line id="Line_221" data-name="Line 221" class="cls-17" x2="105.633" transform="translate(12.864 35.211)"/>
        <line id="Line_222" data-name="Line 222" class="cls-17" x2="133.427" transform="translate(14.718 23.568)"/>
        <rect id="Rectangle_828" data-name="Rectangle 828" class="cls-5" width="181.079" height="13.591" transform="translate(641.88 346.266)"/>
        <path id="Path_2315" data-name="Path 2315" class="cls-18" d="M464.342,587.373H344.39L391.409,331.6h25.915Z" transform="translate(328.053 -241.483)"/>
        <path id="Path_2316" data-name="Path 2316" class="cls-8" d="M356.98,390.29h60.868L412,358.6H362.8Z" transform="translate(345.017 -205.103)"/>
        <line id="Line_223" data-name="Line 223" class="cls-19" x2="3.005" y2="17.488" transform="translate(774.367 303.191)"/>
        <line id="Line_224" data-name="Line 224" class="cls-19" x2="30.469" y2="176.947" transform="translate(740.119 104.248)"/>
      </g>
      <g id="Floor--inject-2" transform="translate(39.37 947.823)">
        <line id="Line_225" data-name="Line 225" class="cls-4" x2="16.221" transform="translate(958.779)"/>
        <line id="Line_226" data-name="Line 226" class="cls-4" x2="936.127"/>
      </g>
    </g>
  </g>
</svg>
