<svg xmlns="http://www.w3.org/2000/svg" xmlns:xlink="http://www.w3.org/1999/xlink" width="975" height="917.472" viewBox="0 0 975 917.472">
  <defs>
    <style>
      .cls-1, .cls-8 {
        fill: #263238;
      }

      .cls-1, .cls-10, .cls-11, .cls-12, .cls-15, .cls-16, .cls-4, .cls-7, .cls-9 {
        stroke: #263238;
      }

      .cls-1, .cls-10, .cls-11, .cls-12, .cls-14, .cls-15, .cls-7, .cls-9 {
        stroke-linecap: round;
        stroke-linejoin: round;
      }

      .cls-1, .cls-10, .cls-11, .cls-12, .cls-14, .cls-16, .cls-4, .cls-7, .cls-9 {
        stroke-width: 1.082px;
      }

      .cls-10, .cls-15, .cls-2 {
        fill: #8167f2;
      }

      .cls-16, .cls-3, .cls-9 {
        fill: #fff;
      }

      .cls-3 {
        opacity: 0.7;
      }

      .cls-14, .cls-4, .cls-7 {
        fill: none;
      }

      .cls-16, .cls-4 {
        stroke-miterlimit: 10;
      }

      .cls-11, .cls-5 {
        fill: #8d3ddc;
      }

      .cls-6 {
        fill: #64b4d2;
      }

      .cls-12 {
        fill: #8a51e4;
      }

      .cls-13 {
        clip-path: url(#clip-path);
      }

      .cls-14 {
        stroke: #fff;
      }

      .cls-15 {
        stroke-width: 0.541px;
      }
    </style>
    <clipPath id="clip-path">
      <path id="Path_2687" data-name="Path 2687" class="cls-1" d="M265.378,262.692,280,305.847a14.217,14.217,0,0,0,15.248,9.59l64.229-7a14.241,14.241,0,0,0,12.467-12.9l3.98-45.385a10.046,10.046,0,0,0-11.148-10.885l-90.937,10.165a10.093,10.093,0,0,0-8.463,13.258Z" transform="translate(-264.849 -239.203)"/>
    </clipPath>
  </defs>
  <g id="Oops_404_Error_with_a_broken_robot-bro" data-name="Oops! 404 Error with a broken robot-bro" transform="translate(-42.94 -59.44)">
    <g id="background-simple--inject-2" transform="translate(62.165 73.61)">
      <path id="Path_2606" data-name="Path 2606" class="cls-2" d="M51.247,548.447S56.786,720.02,200,834.363s341.6,122.546,502.234,133.412,284.019-80.1,302.61-217.582S900.689,572.366,834.1,415.867s-60.669-207.952-201.573-304.2S271.173,74.527,155.659,239.42,51.247,548.447,51.247,548.447Z" transform="translate(-50.959 -65.35)"/>
      <path id="Path_2607" data-name="Path 2607" class="cls-3" d="M51.247,548.447S56.786,720.02,200,834.363s341.6,122.546,502.234,133.412,284.019-80.1,302.61-217.582S900.689,572.366,834.1,415.867s-60.669-207.952-201.573-304.2S271.173,74.527,155.659,239.42,51.247,548.447,51.247,548.447Z" transform="translate(-50.959 -65.35)"/>
    </g>
    <g id="Floor--inject-2" transform="translate(42.94 591.443)">
      <line id="Line_238" data-name="Line 238" class="cls-4" x1="940.555"/>
    </g>
    <g id="Text--inject-2" transform="translate(110.837 304.472)">
      <path id="Path_2608" data-name="Path 2608" class="cls-5" d="M115.52,174.506c0-6.593,3.045-11.436,9.9-11.436s10.022,4.795,10.022,11.436v23.16c0,6.593-3.045,11.436-10.022,11.436s-9.9-4.795-9.9-11.436Zm2.973,23.352c0,4.795,1.942,8.535,6.929,8.535s7.049-3.62,7.049-8.535V174.314c0-4.795-2.014-8.535-7.049-8.535s-6.929,3.62-6.929,8.535Z" transform="translate(-9.407 -162.877)"/>
      <path id="Path_2609" data-name="Path 2609" class="cls-5" d="M125.8,174.506c0-6.593,3.045-11.436,9.878-11.436s10.022,4.795,10.022,11.436v23.16c0,6.593-3.021,11.436-10.022,11.436s-9.878-4.795-9.878-11.436Zm2.973,23.352c0,4.795,1.942,8.535,6.9,8.535s7.049-3.62,7.049-8.535V174.314c0-4.795-1.99-8.535-7.049-8.535s-6.9,3.62-6.9,8.535Z" transform="translate(4.959 -162.877)"/>
      <path id="Path_2610" data-name="Path 2610" class="cls-5" d="M145.524,163.23c7,0,9.71,4.411,9.71,11v4.915c0,7.192-3.309,10.717-10.477,10.717h-5.634v18.629H136.15V163.23Zm-.767,23.975c5.227,0,7.5-2.4,7.5-7.816v-5.3c0-4.915-1.678-8.08-6.737-8.08h-6.4V187.2Z" transform="translate(19.424 -162.654)"/>
      <path id="Path_2611" data-name="Path 2611" class="cls-5" d="M165.278,174.5v.959h-2.853v-1.151c0-4.795-1.8-8.415-6.713-8.415s-6.737,3.572-6.737,8.343c0,11,16.351,11.2,16.351,23.663,0,6.521-2.829,11.316-9.758,11.316s-9.758-4.795-9.758-11.316v-2.4h2.853v2.4c0,4.795,1.87,8.343,6.857,8.343s6.833-3.5,6.833-8.343c0-10.861-16.351-11.052-16.351-23.663,0-6.785,2.973-11.172,9.59-11.244S165.278,167.977,165.278,174.5Z" transform="translate(32.923 -162.99)"/>
      <path id="Path_2612" data-name="Path 2612" class="cls-5" d="M158.691,179.74v5.682h-2.9V179.74Z" transform="translate(46.87 -139.581)"/>
      <path id="Path_2613" data-name="Path 2613" class="cls-5" d="M162.091,179.74v5.682h-2.9V179.74Z" transform="translate(51.622 -139.581)"/>
      <path id="Path_2614" data-name="Path 2614" class="cls-5" d="M165.461,179.74v5.682h-2.9V179.74Z" transform="translate(56.331 -139.581)"/>
      <path id="Path_2615" data-name="Path 2615" class="cls-5" d="M71.26,316.894,122.207,196.42h30.568V316.894h13.234v25.461H152.775V374.7H125.252V342.356H71.26Zm53.992,0V249.908L97.009,316.894Z" transform="translate(-71.26 -116.271)"/>
      <path id="Path_2616" data-name="Path 2616" class="cls-5" d="M115.14,240.379c0-28.506,15.032-44.809,42.532-44.809s42.532,16.3,42.532,44.809V333.09c0,28.53-15.032,44.833-42.532,44.833s-42.532-16.3-42.532-44.833Zm28,94.509c0,12.731,5.61,17.574,14.529,17.574s14.529-4.8,14.529-17.574V238.605c0-12.731-5.61-17.574-14.529-17.574s-14.529,4.795-14.529,17.574Z" transform="translate(-9.938 -117.459)"/>
      <path id="Path_2617" data-name="Path 2617" class="cls-5" d="M155.4,316.894,206.347,196.42h30.568V316.894h13.234v25.461H236.915V374.7H209.392V342.356H155.4Zm53.992,0V249.908l-28.266,66.986Z" transform="translate(46.325 -116.271)"/>
      <path id="Path_2618" data-name="Path 2618" class="cls-5" d="M81.732,288.64c6.857,0,9.59,4.315,9.59,10.765V304.2c0,7.025-3.237,10.525-10.261,10.525H75.547v18.221h-3V288.64Zm-.743,23.448c5.131,0,7.336-2.4,7.336-7.672v-5.2c0-4.8-1.63-7.912-6.593-7.912H75.475v20.786Z" transform="translate(-69.457 12.606)"/>
      <path id="Path_2619" data-name="Path 2619" class="cls-5" d="M86.437,323.166l-2.23,9.806H81.57l9.59-44.4H95.4l9.878,44.4h-2.829l-2.206-9.806Zm.432-2.541H99.791l-6.521-28.77Z" transform="translate(-56.852 12.508)"/>
      <path id="Path_2620" data-name="Path 2620" class="cls-5" d="M112.41,299.728v3.285H109.6v-3.476c0-4.8-1.822-8.367-6.713-8.367s-6.713,3.62-6.713,8.367V322.6c0,4.8,1.846,8.3,6.713,8.3s6.713-3.548,6.713-8.3v-9.59h-5.874v-2.637h8.679v11.987c0,6.4-2.805,11.2-9.59,11.2s-9.59-4.795-9.59-11.2V299.68c0-6.4,2.781-11.22,9.59-11.22S112.41,293.327,112.41,299.728Z" transform="translate(-40.557 12.355)"/>
      <path id="Path_2621" data-name="Path 2621" class="cls-5" d="M118.212,309.163v2.661H106.225V330.26h14.553V332.9H103.3V288.64h17.478V291.3H106.225v17.861Z" transform="translate(-26.484 12.606)"/>
      <path id="Path_2622" data-name="Path 2622" class="cls-5" d="M119.291,332.97H116.63V288.64h3.812l13.306,37.425V288.64h2.661v44.33h-3.237l-13.881-39.511Z" transform="translate(-7.856 12.606)"/>
      <path id="Path_2623" data-name="Path 2623" class="cls-5" d="M126.89,299.7c0-6.473,2.973-11.22,9.59-11.22s9.806,4.8,9.806,11.22v22.68c0,6.449-2.973,11.2-9.806,11.2s-9.59-4.795-9.59-11.2Zm2.9,22.872c0,4.8,1.894,8.343,6.785,8.343s6.9-3.548,6.9-8.343V299.509c0-4.8-1.966-8.367-6.9-8.367s-6.785,3.548-6.785,8.367Z" transform="translate(6.483 12.383)"/>
      <path id="Path_2624" data-name="Path 2624" class="cls-5" d="M145.391,332.97V291.3H136.4V288.64h20.954V291.3h-9.039V332.97Z" transform="translate(19.773 12.606)"/>
      <path id="Path_2625" data-name="Path 2625" class="cls-5" d="M165.079,310.241V312.9H153.691V332.97h-2.9V288.64h16.782V291.3H153.691v18.94Z" transform="translate(39.883 12.606)"/>
      <path id="Path_2626" data-name="Path 2626" class="cls-5" d="M159.55,299.7c0-6.473,2.973-11.22,9.59-11.22s9.83,4.8,9.83,11.22v22.68c0,6.449-3,11.2-9.83,11.2s-9.59-4.795-9.59-11.2Zm2.9,22.872c0,4.8,1.918,8.343,6.785,8.343s6.9-3.548,6.9-8.343V299.509c0-4.8-1.966-8.367-6.9-8.367s-6.785,3.548-6.785,8.367Z" transform="translate(52.125 12.383)"/>
      <path id="Path_2627" data-name="Path 2627" class="cls-5" d="M172.607,322.235c0,4.8,1.774,8.415,6.641,8.415s6.665-3.668,6.665-8.415V288.67h2.709v33.565c0,6.329-2.661,11.2-9.422,11.2s-9.59-4.8-9.59-11.2V288.67h2.925Z" transform="translate(66.184 12.648)"/>
      <path id="Path_2628" data-name="Path 2628" class="cls-5" d="M182.291,332.97H179.63V288.64h3.812l13.306,37.425V288.64h2.661v44.33h-3.237l-13.881-39.511Z" transform="translate(80.187 12.606)"/>
      <path id="Path_2629" data-name="Path 2629" class="cls-5" d="M199.59,288.64c6.857,0,9.83,4.507,9.83,11.029v22.3c0,6.521-2.973,11-9.83,11H190V288.64Zm0,41.62c4.939,0,6.953-3.38,6.953-8.247v-22.56c0-4.795-2.086-8.223-6.953-8.223h-6.785V330.26Z" transform="translate(94.679 12.606)"/>
    </g>
    <g id="Plants--inject-2" transform="translate(786.564 59.44)">
      <path id="Path_2630" data-name="Path 2630" class="cls-6" d="M442.466,113.863s0-11.844-16.567-28.386S398.688,59.44,398.688,59.44s-8.271,27.212,7.192,43.778a293.257,293.257,0,0,0,36.586,31.887Z" transform="translate(-300.606 -59.44)"/>
      <path id="Path_2631" data-name="Path 2631" class="cls-6" d="M432.422,144.723s0-11.844-16.543-28.386S388.668,90.3,388.668,90.3s-8.271,27.212,7.192,43.778a292.034,292.034,0,0,0,36.658,31.935Z" transform="translate(-314.608 -16.313)"/>
      <path id="Path_2632" data-name="Path 2632" class="cls-6" d="M416.52,119.384s1.271-11.772,19.468-26.492,29.8-22.992,29.8-22.992,5.346,27.931-11.676,42.771a291.8,291.8,0,0,1-39.823,27.883Z" transform="translate(-275.714 -44.822)"/>
      <path id="Path_2633" data-name="Path 2633" class="cls-6" d="M405.709,152.6s2.4-11.58,22.153-24.311,32.055-19.731,32.055-19.731,2.4,28.338-16.111,41.309a290.878,290.878,0,0,1-42.555,23.543Z" transform="translate(-293.937 9.205)"/>
      <path id="Path_2634" data-name="Path 2634" class="cls-6" d="M405.446,198.323s0-11.844,16.567-28.386S449.2,143.9,449.2,143.9s8.3,27.212-7.192,43.778a292.05,292.05,0,0,1-36.658,31.935Z" transform="translate(-288.207 58.593)"/>
      <path id="Path_2635" data-name="Path 2635" class="cls-6" d="M429,211.3s1.678-11.7-12.371-30.448S393.4,151.22,393.4,151.22s-11.987,25.749.815,44.33a291.873,291.873,0,0,0,31.719,36.826Z" transform="translate(-312.028 68.822)"/>
      <path id="Path_2636" data-name="Path 2636" class="cls-6" d="M398.526,236.723s0-11.82,16.543-28.386S442.28,182.3,442.28,182.3s8.271,27.212-7.193,43.778a289.786,289.786,0,0,1-36.658,31.935Z" transform="translate(-297.878 112.256)"/>
      <path id="Path_2637" data-name="Path 2637" class="cls-6" d="M403.278,268.145s-3-11.46,8.823-31.671,19.755-32.055,19.755-32.055,14.888,24.215,4.22,44.138A293.33,293.33,0,0,1,408.7,288.74Z" transform="translate(-291.577 143.169)"/>
      <path id="Path_2638" data-name="Path 2638" class="cls-7" d="M441.622,80.87a334.3,334.3,0,0,1-4.531,36.73c-6.545,33.829-22.9,55.646-29.441,86.19s12.227,69.887,7.192,109.134-20.283,61.04-15.919,87.245,27.259,97.075,27.259,97.075" transform="translate(-298.274 -29.492)"/>
      <line id="Line_239" data-name="Line 239" class="cls-7" y1="13.69" x2="17.837" transform="translate(140.662 68.736)"/>
      <line id="Line_240" data-name="Line 240" class="cls-7" x1="7.456" y1="13.282" transform="translate(134.021 53.368)"/>
      <path id="Path_2639" data-name="Path 2639" class="cls-7" d="M402.52,144.6s14.936-11.2,30.3-22.393" transform="translate(-292.162 28.281)"/>
      <path id="Path_2640" data-name="Path 2640" class="cls-7" d="M421.1,145.49s-12.443-24.407-26.54-40.59" transform="translate(-303.286 4.09)"/>
      <path id="Path_2641" data-name="Path 2641" class="cls-7" d="M405.64,198.537a184.606,184.606,0,0,1,32.031-42.747" transform="translate(-287.802 75.209)"/>
      <path id="Path_2642" data-name="Path 2642" class="cls-7" d="M419.653,206.911A208.065,208.065,0,0,0,403.47,176.2c-8.7-12.875-9.95-14.529-9.95-14.529" transform="translate(-304.74 83.426)"/>
      <path id="Path_2643" data-name="Path 2643" class="cls-7" d="M398.47,243.216A196.874,196.874,0,0,1,411.92,216a172.728,172.728,0,0,1,17.43-22.824" transform="translate(-297.822 127.461)"/>
      <path id="Path_2644" data-name="Path 2644" class="cls-7" d="M405.467,274.7a50.8,50.8,0,0,1,4.459-26.2c6.234-11.987,13.282-27.811,16.183-34.02" transform="translate(-288.372 157.214)"/>
      <path id="Path_2645" data-name="Path 2645" class="cls-6" d="M370.47,170.6s-1.295-7.408,7.312-19.588S392,131.83,392,131.83s8.151,16.159.312,28.219a183.434,183.434,0,0,1-19.54,23.975Z" transform="translate(-337.048 41.725)"/>
      <path id="Path_2646" data-name="Path 2646" class="cls-6" d="M380.1,188.891s-1.295-7.432,7.312-19.612S401.63,150.1,401.63,150.1s8.151,16.159.312,28.219a183.433,183.433,0,0,1-19.54,23.975Z" transform="translate(-323.59 67.257)"/>
      <path id="Path_2647" data-name="Path 2647" class="cls-6" d="M392.741,168.251s-2.062-7.192-15.08-14.5-21.17-11.2-21.17-11.2-.336,18.1,11.988,25.557a185.562,185.562,0,0,0,28,13.162Z" transform="translate(-356.49 56.706)"/>
      <path id="Path_2648" data-name="Path 2648" class="cls-6" d="M405.758,187.431s-2.805-6.977-16.519-12.827-22.249-8.895-22.249-8.895,1.582,18.029,14.577,24.143a186.329,186.329,0,0,0,29.25,10.141Z" transform="translate(-341.815 89.072)"/>
      <path id="Path_2649" data-name="Path 2649" class="cls-6" d="M405.544,217.009s-1.295-7.408-13.474-15.991S372.2,187.64,372.2,187.64s-2.254,17.957,9.182,26.684a187.128,187.128,0,0,0,26.373,16.039Z" transform="translate(-334.793 119.719)"/>
      <path id="Path_2650" data-name="Path 2650" class="cls-6" d="M387.4,230.2s-2.4-7.192,4.435-20.427,11.364-21.1,11.364-21.1,10.357,14.84,4.292,27.883a185.27,185.27,0,0,1-15.9,26.54Z" transform="translate(-313.866 121.172)"/>
      <path id="Path_2651" data-name="Path 2651" class="cls-6" d="M396.669,249.077s.863-7.48,12.539-16.782,19.18-14.385,19.18-14.385,3.261,17.813-7.672,27.164A184.608,184.608,0,0,1,395.23,262.6Z" transform="translate(-302.35 162.021)"/>
      <path id="Path_2652" data-name="Path 2652" class="cls-6" d="M414.094,240.329s-1.295-7.408-13.474-16.015-19.875-13.354-19.875-13.354-2.254,17.957,9.182,26.684A187.122,187.122,0,0,0,416.3,253.683Z" transform="translate(-322.845 152.309)"/>
      <path id="Path_2653" data-name="Path 2653" class="cls-6" d="M410.372,261.493s.623-7.5-8.967-18.892-15.847-17.981-15.847-17.981-6.737,16.782,2.134,28.147a187.287,187.287,0,0,0,21.578,22.225Z" transform="translate(-319.29 171.398)"/>
      <path id="Path_2654" data-name="Path 2654" class="cls-7" d="M369.9,147.32a214.526,214.526,0,0,0,6.833,22.536c7.768,20.5,20.4,32.39,27.835,50.851s0,45.169,7.312,69.216,19.372,35.962,19.468,52.961-6.569,63.869-6.569,63.869" transform="translate(-337.749 63.372)"/>
      <line id="Line_241" data-name="Line 241" class="cls-7" x1="12.659" y1="6.641" transform="translate(24.551 223.207)"/>
      <line id="Line_242" data-name="Line 242" class="cls-7" y1="9.134" x2="3.237" transform="translate(34.98 210.932)"/>
      <path id="Path_2655" data-name="Path 2655" class="cls-7" d="M396.494,183.885s-10.573-5.418-21.434-10.765" transform="translate(-330.538 99.427)"/>
      <path id="Path_2656" data-name="Path 2656" class="cls-7" d="M381,188.386A151.2,151.2,0,0,1,393.3,160" transform="translate(-322.237 81.092)"/>
      <path id="Path_2657" data-name="Path 2657" class="cls-7" d="M401.044,217.918A118.149,118.149,0,0,0,376.35,194.59" transform="translate(-328.735 129.432)"/>
      <path id="Path_2658" data-name="Path 2658" class="cls-7" d="M388.16,226.711a131.864,131.864,0,0,1,6.809-21c4.076-9.015,4.675-10.189,4.675-10.189" transform="translate(-312.23 130.731)"/>
      <path id="Path_2659" data-name="Path 2659" class="cls-7" d="M395.29,246.971a110.3,110.3,0,0,1,13.642-14.145,73.422,73.422,0,0,0,8.847-7.7" transform="translate(-302.266 172.111)"/>
      <path id="Path_2660" data-name="Path 2660" class="cls-7" d="M409.98,245.213a126.4,126.4,0,0,0-11.388-15.584,111.088,111.088,0,0,0-13.4-12.419" transform="translate(-316.381 161.043)"/>
      <path id="Path_2661" data-name="Path 2661" class="cls-7" d="M405.362,266.371a32.078,32.078,0,0,0-5.658-15.943c-5.2-6.881-11.34-15.991-13.833-19.588" transform="translate(-315.431 180.091)"/>
      <path id="Path_2662" data-name="Path 2662" class="cls-6" d="M469.305,341.033H396.4a6.9,6.9,0,0,1-6.881-6.881L378.68,252.11H487l-10.813,82.042A6.9,6.9,0,0,1,469.305,341.033Z" transform="translate(-325.479 209.816)"/>
      <path id="Path_2663" data-name="Path 2663" class="cls-6" d="M491,267.88H383.613a8.463,8.463,0,0,1-8.463-8.463h0a8.463,8.463,0,0,1,8.463-8.487H491a8.487,8.487,0,0,1,8.487,8.487h0A8.487,8.487,0,0,1,491,267.88Z" transform="translate(-330.412 208.167)"/>
    </g>
    <g id="Character--inject-2" transform="translate(328.12 279.288)">
      <path id="Path_2664" data-name="Path 2664" class="cls-8" d="M438.3,373.858A11.292,11.292,0,0,1,428.13,357.6a19.18,19.18,0,0,0-7.6-25.2c-16.926-10.837-56.293-12.563-70.079-12.347h-.192a11.317,11.317,0,1,1-.216-22.632c5.778-.12,56.964-.527,82.666,15.919,25.342,16.231,21.41,42.46,15.775,54.088a11.34,11.34,0,0,1-10.189,6.425Z" transform="translate(77.281 49.036)"/>
      <path id="Path_2665" data-name="Path 2665" class="cls-9" d="M426.117,393.264l-2.493,8.463-37.761-62.1-.983-13.4Z" transform="translate(141.629 89.328)"/>
      <path id="Path_2666" data-name="Path 2666" class="cls-9" d="M401.04,365.826l11.8-5.826,2.11-8.08-11.412,5.442Z" transform="translate(164.213 125.23)"/>
      <path id="Path_2667" data-name="Path 2667" class="cls-9" d="M382.81,324.21l43.706-1.51,13.905,70.055L429.01,398.2Z" transform="translate(138.737 84.395)"/>
      <path id="Path_2668" data-name="Path 2668" class="cls-9" d="M400.877,324.57l43.706,73.507L430.2,405.03,365.61,352.381Z" transform="translate(114.7 87.008)"/>
      <path id="Path_2669" data-name="Path 2669" class="cls-9" d="M431.638,388.819l-1.99,7.456L364.58,344.609l2.469-8.439Z" transform="translate(113.26 103.219)"/>
      <path id="Path_2670" data-name="Path 2670" class="cls-9" d="M393.71,362.183l14.385-6.953-1.966,7.456-14.409,6.953Z" transform="translate(151.188 129.855)"/>
      <circle id="Ellipse_168" data-name="Ellipse 168" class="cls-10" cx="22.153" cy="22.153" r="22.153" transform="translate(492.837 422.423) rotate(-45)"/>
      <path id="Path_2671" data-name="Path 2671" class="cls-9" d="M189.17,393.264l2.493,8.463,37.737-62.1,1.007-13.4Z" transform="translate(-131.874 89.328)"/>
      <path id="Path_2672" data-name="Path 2672" class="cls-9" d="M198.316,365.826,186.52,360l-2.11-8.08,11.412,5.442Z" transform="translate(-138.527 125.23)"/>
      <path id="Path_2673" data-name="Path 2673" class="cls-9" d="M242.022,324.21l-43.706-1.51L184.41,392.755l11.412,5.442Z" transform="translate(-138.527 84.395)"/>
      <path id="Path_2674" data-name="Path 2674" class="cls-9" d="M236.42,324.57l-43.73,73.507L207.1,405.03l64.565-52.649Z" transform="translate(-126.955 87.008)"/>
      <path id="Path_2675" data-name="Path 2675" class="cls-9" d="M198.7,388.819l1.99,7.456,65.068-51.666-2.493-8.439Z" transform="translate(-118.556 103.219)"/>
      <path id="Path_2676" data-name="Path 2676" class="cls-9" d="M207.1,362.183,192.69,355.23l1.99,7.456,14.409,6.953Z" transform="translate(-126.955 129.855)"/>
      <path id="Path_2677" data-name="Path 2677" class="cls-8" d="M214.564,458.675a11.316,11.316,0,0,1-7.192-20.091c89.954-73.2,71.637-182.354,71.445-183.456a11.316,11.316,0,0,1,22.273-3.98c.887,5.011,20.762,123.471-79.429,204.986A11.268,11.268,0,0,1,214.564,458.675Z" transform="translate(-112.268 -28.252)"/>
      <circle id="Ellipse_169" data-name="Ellipse 169" class="cls-10" cx="44.306" cy="44.306" r="44.306" transform="translate(139.164 232.378) rotate(-80.83)"/>
      <circle id="Ellipse_170" data-name="Ellipse 170" class="cls-10" cx="22.153" cy="22.153" r="22.153" transform="translate(69.541 422.416) rotate(-45)"/>
      <ellipse id="Ellipse_171" data-name="Ellipse 171" class="cls-11" cx="70.319" cy="65.595" rx="70.319" ry="65.595" transform="translate(238.283 246.966)"/>
      <path id="Path_2678" data-name="Path 2678" class="cls-1" d="M278.71,275.689l6.569,25.629A28.194,28.194,0,0,0,315.7,321.049h0a28.147,28.147,0,0,0,24.622-26.564l1.295-25.845Z" transform="translate(-6.743 8.846)"/>
      <path id="Path_2679" data-name="Path 2679" class="cls-8" d="M347.961,230.172a65.955,65.955,0,0,1-19.611-2.685l1.822-5.346c.312,0,31.791,10.237,63.845-13.21l3.333,4.579a82.81,82.81,0,0,1-49.388,16.663Z" transform="translate(62.629 -74.598)"/>
      <path id="Path_2680" data-name="Path 2680" class="cls-8" d="M384.125,259.279c-25.941-37.9-55.454-35.051-55.742-35.027l-.623-5.61c1.343-.144,33.205-3.237,61.016,37.449Z" transform="translate(61.804 -61.174)"/>
      <path id="Path_2681" data-name="Path 2681" class="cls-8" d="M380.351,281.274c-33.565-10.333-53.728-55.022-54.591-56.917l5.179-2.4c.192.456,20,44.234,51.091,53.8Z" transform="translate(59.01 -56.389)"/>
      <line id="Line_243" data-name="Line 243" class="cls-4" y1="6.042" x2="9.063" transform="translate(456.814 132.102)"/>
      <line id="Line_244" data-name="Line 244" class="cls-4" x2="6.042" y2="12.059" transform="translate(445.738 191.488)"/>
      <path id="Path_2682" data-name="Path 2682" class="cls-4" d="M346.78,244.73a65.936,65.936,0,0,0,14.6,2.014" transform="translate(88.385 -24.568)"/>
      <path id="Path_2683" data-name="Path 2683" class="cls-10" d="M240.63,228.057,249,286.58,457.22,265.29l-.767-60.8Z" transform="translate(-59.959 -80.803)"/>
      <path id="Path_2684" data-name="Path 2684" class="cls-12" d="M244.12,251.14l37.233,94.222L441.7,329.394l10.645-99.544Z" transform="translate(-55.082 -45.363)"/>
      <path id="Path_2685" data-name="Path 2685" class="cls-8" d="M265.378,262.692,280,305.847a14.217,14.217,0,0,0,15.248,9.59l64.229-7a14.241,14.241,0,0,0,12.467-12.9l3.98-45.385a10.046,10.046,0,0,0-11.148-10.885l-90.937,10.165a10.093,10.093,0,0,0-8.463,13.258Z" transform="translate(-26.113 -32.292)"/>
      <g id="Group_8027" data-name="Group 8027" class="cls-13" transform="translate(238.736 206.91)">
        <path id="Path_2686" data-name="Path 2686" class="cls-14" d="M265.07,273.578l26.516-2.35L300,248.38l19.8,35.6,10.07-26.54,5.035,8.415,48.046-5.73" transform="translate(-264.541 -226.378)"/>
      </g>
      <path id="Path_2688" data-name="Path 2688" class="cls-7" d="M265.378,262.692,280,305.847a14.217,14.217,0,0,0,15.248,9.59l64.229-7a14.241,14.241,0,0,0,12.467-12.9l3.98-45.385a10.046,10.046,0,0,0-11.148-10.885l-90.937,10.165a10.093,10.093,0,0,0-8.463,13.258Z" transform="translate(-26.113 -32.292)"/>
      <circle id="Ellipse_172" data-name="Ellipse 172" class="cls-9" cx="11.652" cy="11.652" r="11.652" transform="translate(361.442 200.335)"/>
      <path id="Path_2689" data-name="Path 2689" class="cls-10" d="M337.6,262.893a10.933,10.933,0,1,1-10.933-10.933A10.933,10.933,0,0,1,337.6,262.893Z" transform="translate(44.993 -14.464)"/>
      <path id="Path_2690" data-name="Path 2690" class="cls-10" d="M275.017,251.436a11.628,11.628,0,1,1-5.645-6.916A11.652,11.652,0,0,1,275.017,251.436Z" transform="translate(-43.783 -26.791)"/>
      <circle id="Ellipse_173" data-name="Ellipse 173" class="cls-9" cx="10.933" cy="10.933" r="10.933" transform="translate(214.082 266.578) rotate(-57)"/>
      <ellipse id="Ellipse_174" data-name="Ellipse 174" class="cls-10" cx="30.976" cy="29.873" rx="30.976" ry="29.873" transform="translate(235.382 329.32)"/>
      <path id="Path_2691" data-name="Path 2691" class="cls-1" d="M257.37,372.022l28.362-63.678a12.2,12.2,0,0,1,14.793-6.689h0a12.2,12.2,0,0,1,8.319,14.385l-18.677,83.721Z" transform="translate(-36.565 54.205)"/>
      <path id="Path_2692" data-name="Path 2692" class="cls-12" d="M303.967,290l61.927,145.744-74.322,10.213s-44.45-45.193-74.322-131.167Z" transform="translate(-92.633 38.697)"/>
      <path id="Path_2693" data-name="Path 2693" class="cls-9" d="M253.42,298.014l2.9-13.834,61.951,148.645-2.925,10.933Z" transform="translate(-42.085 30.563)"/>
      <path id="Path_2694" data-name="Path 2694" class="cls-9" d="M306.868,284.18l-84.512,25.485L217.25,322.8l86.717-24.79Z" transform="translate(-92.633 30.563)"/>
      <line id="Line_245" data-name="Line 245" class="cls-7" y1="26.229" x2="85.255" transform="translate(130.443 340.972)"/>
      <line id="Line_246" data-name="Line 246" class="cls-7" y1="23.304" x2="85.998" transform="translate(136.988 359.193)"/>
      <line id="Line_247" data-name="Line 247" class="cls-7" y1="23.304" x2="86.717" transform="translate(143.557 375.232)"/>
      <line id="Line_248" data-name="Line 248" class="cls-7" y1="24.79" x2="84.536" transform="translate(153.028 393.429)"/>
      <line id="Line_249" data-name="Line 249" class="cls-7" y1="22.201" x2="84.32" transform="translate(161.994 411.65)"/>
      <line id="Line_250" data-name="Line 250" class="cls-7" y1="19.731" x2="82.354" transform="translate(171.248 428.409)"/>
      <line id="Line_251" data-name="Line 251" class="cls-7" y1="18.149" x2="76.768" transform="translate(181.917 443.729)"/>
      <line id="Line_252" data-name="Line 252" class="cls-9" y1="12.611" x2="76.264" transform="translate(189.469 460.487)"/>
      <ellipse id="Ellipse_175" data-name="Ellipse 175" class="cls-10" cx="30.976" cy="29.873" rx="30.976" ry="29.873" transform="translate(317.879 329.32)"/>
      <path id="Path_2695" data-name="Path 2695" class="cls-1" d="M359.944,372.022l-28.362-63.678a12.2,12.2,0,0,0-14.793-6.689h0a12.179,12.179,0,0,0-8.3,14.385l18.677,83.721Z" transform="translate(34.44 54.205)"/>
      <path id="Path_2696" data-name="Path 2696" class="cls-12" d="M369.841,290,307.89,435.744l74.322,10.213s44.45-45.193,74.322-131.167Z" transform="translate(34.036 38.697)"/>
      <path id="Path_2697" data-name="Path 2697" class="cls-9" d="M371.546,298.014l-2.925-13.834L306.67,432.825l2.925,10.933Z" transform="translate(32.331 30.563)"/>
      <path id="Path_2698" data-name="Path 2698" class="cls-9" d="M332.51,284.18l84.536,25.485,5.107,13.138-86.717-24.79Z" transform="translate(68.443 30.563)"/>
      <line id="Line_253" data-name="Line 253" class="cls-7" x1="85.255" y1="26.229" transform="translate(399.49 340.972)"/>
      <line id="Line_254" data-name="Line 254" class="cls-7" x1="85.998" y1="23.304" transform="translate(392.202 359.193)"/>
      <line id="Line_255" data-name="Line 255" class="cls-7" x1="86.717" y1="23.304" transform="translate(384.913 375.232)"/>
      <line id="Line_256" data-name="Line 256" class="cls-7" x1="84.536" y1="24.79" transform="translate(377.625 393.429)"/>
      <line id="Line_257" data-name="Line 257" class="cls-7" x1="84.296" y1="22.201" transform="translate(368.898 411.65)"/>
      <line id="Line_258" data-name="Line 258" class="cls-7" x1="82.33" y1="19.731" transform="translate(361.61 428.409)"/>
      <line id="Line_259" data-name="Line 259" class="cls-7" x1="76.792" y1="18.149" transform="translate(356.503 443.729)"/>
      <line id="Line_260" data-name="Line 260" class="cls-7" x1="76.264" y1="12.611" transform="translate(349.454 460.487)"/>
      <line id="Line_261" data-name="Line 261" class="cls-4" x2="8.056" y2="3.524" transform="translate(460.339 204.051)"/>
      <line id="Line_262" data-name="Line 262" class="cls-4" x2="8.056" y2="12.587" transform="translate(455.304 207.072)"/>
      <line id="Line_263" data-name="Line 263" class="cls-4" x1="1.51" y2="8.056" transform="translate(449.262 207.575)"/>
      <line id="Line_264" data-name="Line 264" class="cls-4" x2="19.612" transform="translate(470.408 155.238)"/>
      <line id="Line_265" data-name="Line 265" class="cls-4" x2="28.171" y2="8.056" transform="translate(455.304 156.245)"/>
      <line id="Line_266" data-name="Line 266" class="cls-4" y1="2.517" x2="18.101" transform="translate(465.877 143.178)"/>
      <line id="Line_267" data-name="Line 267" class="cls-4" x2="5.035" y2="14.601" transform="translate(400.953 208.079)"/>
      <line id="Line_268" data-name="Line 268" class="cls-4" x2="14.073" y2="23.16" transform="translate(407.498 207.072)"/>
      <line id="Line_269" data-name="Line 269" class="cls-4" x2="13.57" y2="4.531" transform="translate(412.533 193.502)"/>
      <path id="Path_2699" data-name="Path 2699" class="cls-15" d="M378.644,233.1l-4.531,4.939,3.285,5.85-6.114-2.805-4.531,4.939.767-6.665-6.09-2.805L368,235.235l.791-6.665,3.285,5.85Z" transform="translate(108.858 -47.151)"/>
      <path id="Path_2700" data-name="Path 2700" class="cls-15" d="M381.584,205.391l-4.555,4.939,3.309,5.85-6.114-2.805-4.531,4.939.767-6.665-6.09-2.805,6.569-1.319.767-6.665,3.309,5.85Z" transform="translate(112.967 -85.876)"/>
      <path id="Path_2701" data-name="Path 2701" class="cls-15" d="M350.934,253.881,346.4,258.82l3.285,5.85-6.09-2.805-4.555,4.939.767-6.665-6.09-2.805,6.569-1.319.791-6.665,3.285,5.85Z" transform="translate(70.134 -18.112)"/>
      <ellipse id="Ellipse_176" data-name="Ellipse 176" class="cls-9" cx="33.829" cy="33.445" rx="33.829" ry="33.445" transform="translate(170.026 59.098)"/>
      <ellipse id="Ellipse_177" data-name="Ellipse 177" class="cls-9" cx="33.829" cy="33.445" rx="33.829" ry="33.445" transform="translate(317.448 49.964)"/>
      <ellipse id="Ellipse_178" data-name="Ellipse 178" class="cls-10" cx="42.556" cy="40.662" rx="42.556" ry="40.662" transform="translate(240.704 113.042)"/>
      <path id="Path_2702" data-name="Path 2702" class="cls-1" d="M270.43,211.4l5.874,25.8a28.123,28.123,0,0,0,29.849,20.547h0a28.171,28.171,0,0,0,25.365-25.869l1.99-25.8Z" transform="translate(-18.314 -78.581)"/>
      <path id="Path_2703" data-name="Path 2703" class="cls-10" d="M263.553,168.728,247.61,232.573l158.81-12.923-23.543-60.8Z" transform="translate(-50.205 -144.585)"/>
      <path id="Path_2704" data-name="Path 2704" class="cls-12" d="M247.61,197.133l28.1,69.911,124.646-12.155,6.066-70.678Z" transform="translate(-50.205 -109.144)"/>
      <path id="Path_2705" data-name="Path 2705" class="cls-10" d="M302.275,213.286c-.432,9.926-9.11,17.741-19.492,18.533s-20.547-5.706-22.776-15.536c-2.4-11.268,6.018-22.345,19.324-23.184S302.731,201.97,302.275,213.286Z" transform="translate(-33.449 -96.792)"/>
      <path id="Path_2706" data-name="Path 2706" class="cls-9" d="M289.417,208.67a12.515,12.515,0,0,1-11.988,11.988,13.066,13.066,0,0,1-14.145-10.094c-1.175-6.809,4.172-13.21,11.987-13.738a12.755,12.755,0,0,1,14.145,11.844Z" transform="translate(-28.526 -91.624)"/>
      <path id="Path_2707" data-name="Path 2707" class="cls-10" d="M331.75,210.452c-.408,9.926-9.087,17.741-19.468,18.533s-20.57-5.706-22.776-15.56c-2.517-11.244,6.018-22.321,19.324-23.184S332.23,199.136,331.75,210.452Z" transform="translate(7.73 -100.79)"/>
      <path id="Path_2708" data-name="Path 2708" class="cls-9" d="M318.887,205.823A12.491,12.491,0,0,1,306.9,217.81a13.09,13.09,0,0,1-14.145-10.117c-1.175-6.809,4.172-13.186,11.988-13.714a12.707,12.707,0,0,1,14.145,11.844Z" transform="translate(12.658 -95.61)"/>
      <path id="Path_2709" data-name="Path 2709" class="cls-1" d="M281.052,221.884a5.658,5.658,0,0,1-.575-11.292l30.4-3.045A5.662,5.662,0,1,1,312,218.815l-30.28,3.045Z" transform="translate(-11.459 -76.571)"/>
      <circle id="Ellipse_179" data-name="Ellipse 179" class="cls-10" cx="11.484" cy="11.484" r="11.484" transform="translate(204.789 32.582)"/>
      <circle id="Ellipse_180" data-name="Ellipse 180" class="cls-10" cx="9.806" cy="9.806" r="9.806" transform="translate(199.371 27.571)"/>
      <path id="Path_2710" data-name="Path 2710" class="cls-10" d="M260.73,168.654a7.72,7.72,0,1,1-2.253-5.474,7.72,7.72,0,0,1,2.253,5.474Z" transform="translate(-53.447 -141.706)"/>
      <line id="Line_270" data-name="Line 270" class="cls-7" x1="17.55" y1="16.303" transform="translate(180.143 7.936)"/>
      <circle id="Ellipse_181" data-name="Ellipse 181" class="cls-10" cx="11.484" cy="11.484" r="11.484" transform="translate(317.568 24.646)"/>
      <circle id="Ellipse_182" data-name="Ellipse 182" class="cls-10" cx="9.806" cy="9.806" r="9.806" transform="translate(326.343 19.635)"/>
      <path id="Path_2711" data-name="Path 2711" class="cls-10" d="M306.27,165.344a7.72,7.72,0,1,0,2.253-5.474,7.72,7.72,0,0,0-2.253,5.474Z" transform="translate(31.772 -146.332)"/>
      <line id="Line_271" data-name="Line 271" class="cls-7" y1="16.279" x2="17.55" transform="translate(347.632 0)"/>
      <path id="Path_2712" data-name="Path 2712" class="cls-9" d="M309.095,341.422c0,5.538-3.668,10.022-8.2,10.022s-8.176-4.483-8.176-10.022S296.388,331.4,300.9,331.4,309.095,335.883,309.095,341.422Z" transform="translate(12.836 96.553)"/>
      <path id="Path_2713" data-name="Path 2713" class="cls-16" d="M321.952,345.927h-.623l-22.752-3.333A4.244,4.244,0,0,1,299.8,334.2l22.752,3.309a4.244,4.244,0,0,1-.6,8.463Z" transform="translate(16.186 100.439)"/>
      <path id="Path_2714" data-name="Path 2714" class="cls-9" d="M174.777,363.215c-2.973-4.675-2.4-10.429,1.534-12.827s9.3-.6,12.275,4.052,2.278,10.429-1.558,12.851S177.726,367.89,174.777,363.215Z" transform="translate(-154.619 121.606)"/>
      <path id="Path_2715" data-name="Path 2715" class="cls-16" d="M167.233,361.594a4,4,0,0,1,.551-.288l21-9.374a4.244,4.244,0,0,1,3.452,7.744l-21,9.374a4.244,4.244,0,0,1-4-7.456Z" transform="translate(-165.272 124.834)"/>
      <path id="Path_2716" data-name="Path 2716" class="cls-9" d="M401.386,318.421c-2.973-4.675-2.278-10.405,1.534-12.827s9.3-.6,12.275,4.052,2.278,10.429-1.534,12.851S404.335,323.1,401.386,318.421Z" transform="translate(162.117 58.993)"/>
      <path id="Path_2717" data-name="Path 2717" class="cls-16" d="M393.874,316.894l.527-.288,21-9.374a4.244,4.244,0,1,1,3.452,7.744l-20.978,9.374a4.244,4.244,0,0,1-4-7.456Z" transform="translate(151.456 62.15)"/>
      <path id="Path_2718" data-name="Path 2718" class="cls-16" d="M241.27,357c-9.59,0-17.31,4.6-17.31,10.261s7.744,10.261,17.31,10.261,17.334-4.6,17.334-10.261S250.836,357,241.27,357Zm0,15.56c-4.939,0-8.943-2.4-8.943-5.3s4-5.3,8.943-5.3,8.967,2.4,8.967,5.3S246.233,372.56,241.27,372.56Z" transform="translate(-83.256 132.329)"/>
      <path id="Path_2719" data-name="Path 2719" class="cls-9" d="M311.758,360.485l-11.82-4.8-11.844,4.8-2.925,10.549,8.2,8.463h13.138l8.176-8.463Zm-8.487,13.474h-6.665l-4.172-4.292,1.486-5.346,6.018-2.4,5.994,2.4,1.486,5.346Z" transform="translate(2.285 130.498)"/>
      <path id="Path_2720" data-name="Path 2720" class="cls-9" d="M405.332,296.595,393.489,291.8l-11.844,4.795-2.925,10.573,8.2,8.463h13.138l8.2-8.463Zm-8.511,13.5h-6.665l-4.148-4.292,1.462-5.37,6.018-2.4,6.018,2.4,1.486,5.37Z" transform="translate(133.021 41.212)"/>
      <path id="Path_2721" data-name="Path 2721" class="cls-9" d="M332.971,381.538a2.924,2.924,0,0,1-.983-.168,8.391,8.391,0,0,1-3.884-3.332c-1.319-2.038-2.4-5.658-.312-11.268a13.282,13.282,0,0,1,9.23-8.415,18.029,18.029,0,0,1,15.656,3.572,2.827,2.827,0,1,1-3.6,4.363,12.466,12.466,0,0,0-10.6-2.4,7.768,7.768,0,0,0-5.394,4.963c-2.134,5.634.432,7.193.959,7.336a2.877,2.877,0,0,1,1.51,3.668A2.781,2.781,0,0,1,332.971,381.538Z" transform="translate(60.213 133.516)"/>
      <path id="Path_2722" data-name="Path 2722" class="cls-9" d="M385.551,390.734a8.51,8.51,0,0,1-2.637-.407l-46.008-14.984a8.487,8.487,0,1,1,5.251-16.135l46.032,14.984a8.487,8.487,0,0,1-2.637,16.543Z" transform="translate(66.085 134.726)"/>
      <path id="Path_2723" data-name="Path 2723" class="cls-7" d="M332.78,372.478s1.822-11.7,16.447-11.988" transform="translate(68.82 137.206)"/>
      <path id="Path_2724" data-name="Path 2724" class="cls-7" d="M336.89,373.538s1.846-11.676,16.447-11.988" transform="translate(74.564 138.688)"/>
      <path id="Path_2725" data-name="Path 2725" class="cls-7" d="M340.55,374.908s1.822-11.676,16.423-11.987" transform="translate(79.678 140.602)"/>
      <path id="Path_2726" data-name="Path 2726" class="cls-7" d="M344.36,375.988s1.822-11.676,16.423-11.987" transform="translate(85.003 142.111)"/>
      <path id="Path_2727" data-name="Path 2727" class="cls-7" d="M348.17,377.348s1.822-11.676,16.423-11.988" transform="translate(90.327 144.012)"/>
      <path id="Path_2728" data-name="Path 2728" class="cls-9" d="M357.341,385.819a2.734,2.734,0,0,1-.959-.192,8.3,8.3,0,0,1-3.908-3.308c-1.319-2.038-2.4-5.658-.312-11.292a13.378,13.378,0,0,1,9.23-8.415,18.029,18.029,0,0,1,15.656,3.6,2.827,2.827,0,1,1-3.6,4.363,12.443,12.443,0,0,0-10.6-2.4,7.7,7.7,0,0,0-5.394,4.939c-2.134,5.658.432,7.193.959,7.336a2.853,2.853,0,0,1-1.079,5.466Z" transform="translate(94.27 139.472)"/>
    </g>
  </g>
</svg>
