<svg xmlns="http://www.w3.org/2000/svg" xmlns:xlink="http://www.w3.org/1999/xlink" width="1920" height="1080" viewBox="0 0 1920 1080">
  <defs>
    <style>
      .cls-1 {
        clip-path: url(#clip-_500);
      }

      .cls-13, .cls-2 {
        fill: #8167f2;
      }

      .cls-12, .cls-3, .cls-6 {
        fill: #fff;
      }

      .cls-3 {
        opacity: 0.7;
      }

      .cls-4 {
        fill: #64b4d2;
      }

      .cls-15, .cls-18, .cls-5, .cls-8 {
        fill: none;
      }

      .cls-11, .cls-12, .cls-13, .cls-14, .cls-15, .cls-17, .cls-18, .cls-5, .cls-8, .cls-9 {
        stroke: #263238;
      }

      .cls-5 {
        stroke-miterlimit: 10;
      }

      .cls-11, .cls-12, .cls-13, .cls-14, .cls-15, .cls-5, .cls-9 {
        stroke-width: 1.257px;
      }

      .cls-11, .cls-7 {
        fill: #8d3ddc;
      }

      .cls-11, .cls-12, .cls-13, .cls-14, .cls-15, .cls-17, .cls-18, .cls-8, .cls-9 {
        stroke-linecap: round;
        stroke-linejoin: round;
      }

      .cls-8 {
        stroke-width: 2.513px;
      }

      .cls-16, .cls-9 {
        fill: #263238;
      }

      .cls-10, .cls-14 {
        fill: #8a51e4;
      }

      .cls-17 {
        fill: #666;
        stroke-width: 0.923px;
      }

      .cls-18 {
        stroke-width: 1.073px;
      }
    </style>
    <clipPath id="clip-_500">
      <rect width="1920" height="1080"/>
    </clipPath>
  </defs>
  <g id="_500" data-name="500" class="cls-1">
    <rect class="cls-6" width="1920" height="1080"/>
    <g id="_500_Internal_Server_Error-bro" data-name="500 Internal Server Error-bro" transform="translate(433.331 55.289)">
      <g id="background-simple--inject-2" transform="translate(38.669 51.711)">
        <path id="Path_2317" data-name="Path 2317" class="cls-2" d="M39.159,530.315s8.063,165.359,147.6,271.482S517.241,910,671.883,915.79s271.848-85.572,287.531-218.742S856.43,528.564,789.886,379.5s-61.56-198.812-198.7-287.554S243.2,66.673,134.656,229.127,39.159,530.315,39.159,530.315Z" transform="translate(-38.669 -51.711)"/>
        <path id="Path_2318" data-name="Path 2318" class="cls-3" d="M39.159,530.315s8.063,165.359,147.6,271.482S517.241,910,671.883,915.79s271.848-85.572,287.531-218.742S856.43,528.564,789.886,379.5s-61.56-198.812-198.7-287.554S243.2,66.673,134.656,229.127,39.159,530.315,39.159,530.315Z" transform="translate(-38.669 -51.711)"/>
      </g>
      <g id="Plants--inject-2" transform="translate(743.504 510.786)">
        <path id="Path_2319" data-name="Path 2319" class="cls-4" d="M422.973,512.053s-7.641-32.472-1.91-61.147,19.1-9.551,34.4-28.674,7.641-55.416,24.832-70.72,42.045-13.371,47.776-42.045,9.573-51.686,21.034-47.776-9.551,38.2-9.551,59.259,11.461,34.382,3.82,55.416-40.135,13.371-40.135,38.2,13.371,49.686,1.91,66.9-42.045,21.011-45.866,30.562S445.8,538.8,436.344,538.8,422.973,512.053,422.973,512.053Z" transform="translate(-282.568 -261.257)"/>
        <path id="Path_2320" data-name="Path 2320" class="cls-4" d="M492.521,439.248c1.91-5.73-1.91-55.416-19.1-64.967s-36.315-5.73-45.866-22.944-9.573-24.832-19.124-26.742-55.416-9.573-49.686,0,40.135-5.753,40.135,13.371-3.82,49.686,7.641,57.327,42.045,5.73,40.135,22.944-7.641,22.922,1.91,28.674,36.315,30.562,40.135,11.461Z" transform="translate(-358.25 -188.137)"/>
        <path id="Path_2321" data-name="Path 2321" class="cls-5" d="M428.321,496.748s-8.989-27.843,15.573-79.035S486.187,327.578,497.31,307.6" transform="translate(-272.859 -203.457)"/>
        <path id="Path_2322" data-name="Path 2322" class="cls-5" d="M463.6,475.293s-3.326-13.371-14.472-50.09-24.472-46.742-43.394-58.989-20.023-32.27-23.371-37.843" transform="translate(-328.18 -177.552)"/>
        <path id="Path_2323" data-name="Path 2323" class="cls-4" d="M439.31,429.426s2.247-20.023,20.045-25.6S493.85,400.5,497.2,388.257s3.326-24.495,11.124-31.169,17.8-10.023,18.922-6.742-11.236,5.573-11.236,16.7,16.7,38.944-7.775,50.068-44.517,1.124-53.416,8.989-14.472,13.348-14.472,13.348Z" transform="translate(-257.151 -151.73)"/>
        <path id="Path_2324" data-name="Path 2324" class="cls-5" d="M438.32,436.367s7.8-28.944,26.719-35.618,39.978,7.8,48.967-5.573,2.247-26.7,1.1-35.6" transform="translate(-258.386 -138.626)"/>
        <path id="Path_2325" data-name="Path 2325" class="cls-4" d="M485.273,391.77h-68.99a5.551,5.551,0,0,0-5.573,5.551h0a5.573,5.573,0,0,0,5.573,5.573h.562l5.371,14.09a5.776,5.776,0,0,0,5.393,3.708h46.36a5.8,5.8,0,0,0,5.393-3.708l5.371-14.09h.539a5.573,5.573,0,0,0,5.573-5.573h0a5.551,5.551,0,0,0-5.573-5.551Z" transform="translate(-292.822 -98.478)"/>
      </g>
      <g id="Text--inject-2" transform="translate(618.446 348.265)">
        <rect id="Rectangle_829" data-name="Rectangle 829" class="cls-2" width="351.352" height="63.012" rx="4.73" transform="translate(0 145.364)"/>
        <path id="Path_2326" data-name="Path 2326" class="cls-6" d="M314.934,281.482a1.438,1.438,0,0,1-.472-1.169V259.886a1.46,1.46,0,0,1,.494-1.169,1.753,1.753,0,0,1,1.191-.427,1.709,1.709,0,0,1,1.169.427,1.483,1.483,0,0,1,.472,1.169v20.45a1.461,1.461,0,0,1-.494,1.191,1.775,1.775,0,0,1-1.191.4A1.708,1.708,0,0,1,314.934,281.482Z" transform="translate(-287.81 -95.96)"/>
        <path id="Path_2327" data-name="Path 2327" class="cls-6" d="M318.99,277.7a1.281,1.281,0,0,1-.449-1.034V263.047a1.3,1.3,0,0,1,.45-1.034,1.618,1.618,0,0,1,1.056-.36,1.551,1.551,0,0,1,1.056.36,1.191,1.191,0,0,1,.449.989v1.438a4.652,4.652,0,0,1,2.045-2.247,6.743,6.743,0,0,1,3.348-.809,5.933,5.933,0,0,1,4.337,1.6,6.45,6.45,0,0,1,1.618,4.809v8.989a1.258,1.258,0,0,1-.427,1.034,1.64,1.64,0,0,1-2.112,0,1.259,1.259,0,0,1-.427-1.034v-8.989a4.765,4.765,0,0,0-.989-3.236,3.483,3.483,0,0,0-2.764-1.1,4.292,4.292,0,0,0-3.214,1.348,5.415,5.415,0,0,0-1.416,3.685v8.27a1.258,1.258,0,0,1-.472,1.034,1.6,1.6,0,0,1-1.056.382A1.506,1.506,0,0,1,318.99,277.7Z" transform="translate(-282.72 -92.11)"/>
        <path id="Path_2328" data-name="Path 2328" class="cls-6" d="M330.49,280.16a5.506,5.506,0,0,1-1.124-3.8v-9.528h-2.023a1.3,1.3,0,0,1-.831-.247.989.989,0,0,1-.292-.719.876.876,0,0,1,.292-.7,1.034,1.034,0,0,1,.831-.292h2.023l.4-4.7a1.281,1.281,0,0,1,.472-.9,1.46,1.46,0,0,1,.966-.382,1.079,1.079,0,0,1,1.146,1.191v4.787h3.056a1.1,1.1,0,0,1,.809.292.989.989,0,0,1,.292.719c0,.629-.382.944-1.1.944h-2.944v8.989a4.765,4.765,0,0,0,.494,2.45,1.685,1.685,0,0,0,1.528.741h1.3a1.034,1.034,0,0,1,.854.36,1.258,1.258,0,0,1,.135,1.483.966.966,0,0,1-.539.359,2.876,2.876,0,0,1-.764.157h-1.933A3.91,3.91,0,0,1,330.49,280.16Z" transform="translate(-273.141 -95.201)"/>
        <path id="Path_2329" data-name="Path 2329" class="cls-6" d="M336.1,277.358a7.213,7.213,0,0,1-2.921-2.989,8.989,8.989,0,0,1-1.1-4.494,9.6,9.6,0,0,1,.922-4.2,7.438,7.438,0,0,1,2.742-3.1,7.8,7.8,0,0,1,4.292-1.191,8.47,8.47,0,0,1,3.393.652,5.753,5.753,0,0,1,2.247,1.775,8.448,8.448,0,0,1,1.281,2.539,11.753,11.753,0,0,1,.494,3.056,1.145,1.145,0,0,1-.27.786.967.967,0,0,1-.809.315H335.025a5.888,5.888,0,0,0,1.528,4.315,5.281,5.281,0,0,0,3.82,1.506,6.293,6.293,0,0,0,2.652-.539,11.073,11.073,0,0,0,2.247-1.438.989.989,0,0,1,.629-.225.876.876,0,0,1,.674.315,1.012,1.012,0,0,1,.27.719,1.326,1.326,0,0,1-.449.944,9.236,9.236,0,0,1-6.337,2.247A8.652,8.652,0,0,1,336.1,277.358Zm8.787-8.742a6.741,6.741,0,0,0-1.3-3.8,4.022,4.022,0,0,0-3.393-1.461,4.494,4.494,0,0,0-2.09.449A4.338,4.338,0,0,0,336.553,265a6.45,6.45,0,0,0-.966,1.663,6.877,6.877,0,0,0-.427,1.955Z" transform="translate(-265.833 -92.107)"/>
        <path id="Path_2330" data-name="Path 2330" class="cls-6" d="M341.238,277.706a1.326,1.326,0,0,1-.427-1.034V263.031a1.281,1.281,0,0,1,.45-1.034,1.685,1.685,0,0,1,1.056-.337,1.641,1.641,0,0,1,1.056.337,1.259,1.259,0,0,1,.449.989v2.023a4.921,4.921,0,0,1,1.663-2.584,4.494,4.494,0,0,1,2.989-1.034,1.011,1.011,0,0,1,.854.4,1.416,1.416,0,0,1,.292.921,1.393,1.393,0,0,1-.27.854,1.056,1.056,0,0,1-.809.36,4.922,4.922,0,0,0-3.483,1.146,4.09,4.09,0,0,0-1.214,3.1v8.517a1.236,1.236,0,0,1-.472,1.034,1.73,1.73,0,0,1-2.112,0Z" transform="translate(-254.945 -92.095)"/>
        <path id="Path_2331" data-name="Path 2331" class="cls-6" d="M346.569,277.7a1.259,1.259,0,0,1-.427-1.034V263.047a1.236,1.236,0,0,1,.449-1.034,1.73,1.73,0,0,1,2.112,0,1.169,1.169,0,0,1,.427.989v1.438a4.7,4.7,0,0,1,2.068-2.247,6.743,6.743,0,0,1,3.326-.809,5.978,5.978,0,0,1,4.36,1.6,6.45,6.45,0,0,1,1.618,4.809v8.989a1.281,1.281,0,0,1-.45,1.034,1.551,1.551,0,0,1-1.034.382,1.6,1.6,0,0,1-1.056-.382,1.281,1.281,0,0,1-.449-1.034v-8.989a4.764,4.764,0,0,0-.966-3.236,3.551,3.551,0,0,0-2.786-1.1,4.337,4.337,0,0,0-3.214,1.348,5.641,5.641,0,0,0-1.416,3.685v8.27a1.3,1.3,0,0,1-.449,1.034,1.663,1.663,0,0,1-1.079.382,1.551,1.551,0,0,1-1.034-.472Z" transform="translate(-248.298 -92.11)"/>
        <path id="Path_2332" data-name="Path 2332" class="cls-6" d="M355.691,277.2a4.18,4.18,0,0,1-1.618-3.528,6.248,6.248,0,0,1,.2-1.663,4.156,4.156,0,0,1,.562-1.236,2.877,2.877,0,0,1,1.011-.921,7.677,7.677,0,0,1,1.461-.607,12.29,12.29,0,0,1,2.022-.36c.809,0,1.663-.135,2.517-.18h3.146v-1.8a3.348,3.348,0,0,0-.944-2.629,3.8,3.8,0,0,0-2.629-.831,10.29,10.29,0,0,0-2.022.2,11.384,11.384,0,0,0-1.6.449c-.382.135-.854.337-1.416.584a.764.764,0,0,1-.4,0,.921.921,0,0,1-.742-.36,1.213,1.213,0,0,1-.315-.787.832.832,0,0,1,.472-.764,12.158,12.158,0,0,1,6.09-1.438,7.191,7.191,0,0,1,4.742,1.416,5.258,5.258,0,0,1,1.73,4.337v9.641a1.214,1.214,0,0,1-.472,1.011,1.6,1.6,0,0,1-1.034.382,1.64,1.64,0,0,1-1.034-.359,1.326,1.326,0,0,1-.427-1.011V275.18a5.236,5.236,0,0,1-5.079,3.214,6.741,6.741,0,0,1-4.225-1.191Zm7.865-2.247a5.685,5.685,0,0,0,1.438-4v-.494h-3.348a16.085,16.085,0,0,0-2.247.27,3.528,3.528,0,0,0-1.483.562,2.248,2.248,0,0,0-.742.9,3.4,3.4,0,0,0-.225,1.348,2.7,2.7,0,0,0,.876,2.247,4.022,4.022,0,0,0,2.449.7,4.494,4.494,0,0,0,3.281-1.6Z" transform="translate(-238.409 -92.176)"/>
        <path id="Path_2333" data-name="Path 2333" class="cls-6" d="M362.929,281.487a1.415,1.415,0,0,1-.427-1.124v-20.54a1.416,1.416,0,0,1,.449-1.1,1.551,1.551,0,0,1,1.079-.382,1.483,1.483,0,0,1,1.034.382,1.415,1.415,0,0,1,.427,1.1v20.629a1.415,1.415,0,0,1-.449,1.1,1.573,1.573,0,0,1-1.079.4A1.55,1.55,0,0,1,362.929,281.487Z" transform="translate(-227.894 -95.898)"/>
        <path id="Path_2334" data-name="Path 2334" class="cls-6" d="M370.413,279.624a.607.607,0,0,1-.2-.494,1.663,1.663,0,0,1,.517-1.079,1.371,1.371,0,0,1,1.011-.562.742.742,0,0,1,.427.135,10.4,10.4,0,0,0,6.517,2.247,7.19,7.19,0,0,0,3.933-.966,3.056,3.056,0,0,0,1.528-2.786,4.112,4.112,0,0,0-.225-1.483,2.247,2.247,0,0,0-.7-1.079,4.626,4.626,0,0,0-1.168-.786c-.45-.2-1.034-.427-1.73-.674l-4.742-1.6a9.707,9.707,0,0,1-3.933-2.247,5.214,5.214,0,0,1-1.281-3.73,5.371,5.371,0,0,1,1.124-3.393,6.92,6.92,0,0,1,3.011-2.247,11.572,11.572,0,0,1,4.27-.742,12.853,12.853,0,0,1,4.494.764,9.55,9.55,0,0,1,3.259,1.753,1.079,1.079,0,0,1,.382.831,1.348,1.348,0,0,1-.382.921,1.169,1.169,0,0,1-.921.427,1.258,1.258,0,0,1-.719-.247,14.165,14.165,0,0,0-2.539-1.214,9.73,9.73,0,0,0-3.258-.539,7.551,7.551,0,0,0-3.978.9,2.9,2.9,0,0,0-1.483,2.629,2.81,2.81,0,0,0,.764,2.067,6.316,6.316,0,0,0,2.449,1.326l4.764,1.551a15.456,15.456,0,0,1,2.449.966,7.958,7.958,0,0,1,1.82,1.258,4.5,4.5,0,0,1,1.214,1.753,6.406,6.406,0,0,1,.4,2.359,5.978,5.978,0,0,1-2.382,5.056,10.608,10.608,0,0,1-6.495,1.8,11.393,11.393,0,0,1-8.2-2.876Z" transform="translate(-218.277 -96.148)"/>
        <path id="Path_2335" data-name="Path 2335" class="cls-6" d="M383.361,277.359a7.348,7.348,0,0,1-2.921-2.989,9.3,9.3,0,0,1-1.079-4.494,9.6,9.6,0,0,1,.9-4.2,7.348,7.348,0,0,1,2.764-3.1,7.708,7.708,0,0,1,4.27-1.191,8.314,8.314,0,0,1,3.393.652,5.617,5.617,0,0,1,2.247,1.775,8,8,0,0,1,1.3,2.539,11.774,11.774,0,0,1,.472,3.056,1.146,1.146,0,0,1-.27.786.922.922,0,0,1-.786.315H382.372a5.8,5.8,0,0,0,1.528,4.315,5.258,5.258,0,0,0,3.82,1.506,6.179,6.179,0,0,0,2.629-.539,11.79,11.79,0,0,0,2.382-1.438.989.989,0,0,1,.629-.225.944.944,0,0,1,.674.315,1.012,1.012,0,0,1,.27.719,1.281,1.281,0,0,1-.472.944,9.146,9.146,0,0,1-6.315,2.247,8.7,8.7,0,0,1-4.157-.989Zm8.809-8.742a6.854,6.854,0,0,0-1.3-3.8,4.068,4.068,0,0,0-3.393-1.461,4.63,4.63,0,0,0-2.112.449A4.339,4.339,0,0,0,383.81,265a5.8,5.8,0,0,0-.944,1.663,6.9,6.9,0,0,0-.449,1.955Z" transform="translate(-206.864 -92.107)"/>
        <path id="Path_2336" data-name="Path 2336" class="cls-6" d="M388.5,277.706a1.259,1.259,0,0,1-.427-1.034V263.032a1.213,1.213,0,0,1,.449-1.034,1.82,1.82,0,0,1,2.112,0,1.236,1.236,0,0,1,.427.989v2.023a5.079,5.079,0,0,1,1.663-2.584,4.494,4.494,0,0,1,3.011-1.034.966.966,0,0,1,.831.4,1.438,1.438,0,0,1,.315.921,1.281,1.281,0,0,1-.292.854.989.989,0,0,1-.809.36,4.9,4.9,0,0,0-3.371,1.079,4.023,4.023,0,0,0-1.236,3.1v8.517a1.281,1.281,0,0,1-.449,1.034,1.64,1.64,0,0,1-1.079.36,1.528,1.528,0,0,1-1.146-.315Z" transform="translate(-196.002 -92.095)"/>
        <path id="Path_2337" data-name="Path 2337" class="cls-6" d="M398.959,277.445a4.9,4.9,0,0,1-1.056-1.73l-5.169-12.36a1.01,1.01,0,0,1,0-.449,1.259,1.259,0,0,1,.472-.989,1.461,1.461,0,0,1,1.034-.427,1.281,1.281,0,0,1,1.236.944l5.056,12.449,5.056-12.45a1.258,1.258,0,0,1,1.213-.944,1.505,1.505,0,0,1,1.056.427,1.258,1.258,0,0,1,.472.989,1.01,1.01,0,0,1,0,.449l-5.169,12.36a4.9,4.9,0,0,1-1.056,1.73,2.382,2.382,0,0,1-2.966,0Z" transform="translate(-190.215 -91.969)"/>
        <path id="Path_2338" data-name="Path 2338" class="cls-6" d="M404.611,277.359a7.213,7.213,0,0,1-2.921-2.989,9.3,9.3,0,0,1-1.079-4.494,9.6,9.6,0,0,1,.9-4.2,7.439,7.439,0,0,1,2.742-3.1,7.8,7.8,0,0,1,4.292-1.191,8.314,8.314,0,0,1,3.393.652,5.617,5.617,0,0,1,2.247,1.775,8,8,0,0,1,1.3,2.539,12.81,12.81,0,0,1,.472,3.056,1.146,1.146,0,0,1-.27.786.944.944,0,0,1-.787.315H403.734a5.865,5.865,0,0,0,1.506,4.315,5.326,5.326,0,0,0,3.82,1.506,6.292,6.292,0,0,0,2.652-.539,11.791,11.791,0,0,0,2.382-1.438.943.943,0,0,1,.629-.225.854.854,0,0,1,.652.315,1.034,1.034,0,0,1,.292.719,1.281,1.281,0,0,1-.472.944,9.19,9.19,0,0,1-6.315,2.247A8.7,8.7,0,0,1,404.611,277.359Zm8.809-8.742a6.742,6.742,0,0,0-1.326-3.8,4,4,0,0,0-3.393-1.461,4.5,4.5,0,0,0-2.09.449A4.338,4.338,0,0,0,405.06,265a6.45,6.45,0,0,0-.966,1.663,6.878,6.878,0,0,0-.427,1.955Z" transform="translate(-180.361 -92.107)"/>
        <path id="Path_2339" data-name="Path 2339" class="cls-6" d="M409.749,277.706a1.259,1.259,0,0,1-.427-1.034V263.032a1.214,1.214,0,0,1,.449-1.034,1.686,1.686,0,0,1,1.056-.337,1.641,1.641,0,0,1,1.034.337,1.258,1.258,0,0,1,.449.989v2.023a4.921,4.921,0,0,1,1.663-2.584,4.494,4.494,0,0,1,3.011-1.034.966.966,0,0,1,.831.4,1.438,1.438,0,0,1,.315.921,1.393,1.393,0,0,1-.292.854.989.989,0,0,1-.809.359,4.876,4.876,0,0,0-3.461,1.146,4.023,4.023,0,0,0-1.236,3.1v8.517a1.281,1.281,0,0,1-.45,1.034,1.685,1.685,0,0,1-1.079.36,1.529,1.529,0,0,1-1.056-.382Z" transform="translate(-169.499 -92.095)"/>
        <path id="Path_2340" data-name="Path 2340" class="cls-6" d="M419.637,281.45a1.505,1.505,0,0,1-.517-1.124V259.9a1.551,1.551,0,0,1,.472-1.124,1.416,1.416,0,0,1,1.1-.494h12.27a1.236,1.236,0,0,1,.966.382,1.3,1.3,0,0,1,.36.944,1.348,1.348,0,0,1-.36.944,1.236,1.236,0,0,1-.966.382H422.468v7.528h9.865a1.281,1.281,0,0,1,.989.382,1.371,1.371,0,0,1,.337.921,1.416,1.416,0,0,1-.337.921,1.348,1.348,0,0,1-.989.382H422.4v8.18h10.921a1.168,1.168,0,0,1,.966.4,1.416,1.416,0,0,1,0,1.888,1.236,1.236,0,0,1-.966.382H420.716a1.573,1.573,0,0,1-1.079-.472Z" transform="translate(-157.274 -95.974)"/>
        <path id="Path_2341" data-name="Path 2341" class="cls-6" d="M428.519,277.706a1.259,1.259,0,0,1-.427-1.034V263.031a1.281,1.281,0,0,1,.45-1.034,1.82,1.82,0,0,1,2.112,0,1.236,1.236,0,0,1,.427.989v2.023a4.921,4.921,0,0,1,1.663-2.584,4.494,4.494,0,0,1,2.989-1.034.966.966,0,0,1,.831.4,1.326,1.326,0,0,1,.315.921,1.393,1.393,0,0,1-.27.854,1.056,1.056,0,0,1-.832.359,4.9,4.9,0,0,0-3.393,1.079,4.112,4.112,0,0,0-1.236,3.1v8.517a1.214,1.214,0,0,1-.449,1.034,1.6,1.6,0,0,1-1.056.36,1.55,1.55,0,0,1-1.124-.315Z" transform="translate(-146.089 -92.095)"/>
        <path id="Path_2342" data-name="Path 2342" class="cls-6" d="M433.879,277.706a1.258,1.258,0,0,1-.427-1.034V263.031A1.281,1.281,0,0,1,433.9,262a1.82,1.82,0,0,1,2.112,0,1.236,1.236,0,0,1,.427.989v2.023a4.922,4.922,0,0,1,1.663-2.584,4.494,4.494,0,0,1,2.989-1.034.966.966,0,0,1,.831.4,1.326,1.326,0,0,1,.315.921,1.393,1.393,0,0,1-.27.854,1.057,1.057,0,0,1-.832.36,4.9,4.9,0,0,0-3.461,1.146,4.113,4.113,0,0,0-1.236,3.1v8.517a1.213,1.213,0,0,1-.449,1.034,1.6,1.6,0,0,1-1.056.359A1.55,1.55,0,0,1,433.879,277.706Z" transform="translate(-139.403 -92.095)"/>
        <path id="Path_2343" data-name="Path 2343" class="cls-6" d="M440.523,276.006a9.551,9.551,0,0,1,0-12.247,7.933,7.933,0,0,1,6.045-2.4,8.023,8.023,0,0,1,6.067,2.382,9.573,9.573,0,0,1,0,12.27,8.832,8.832,0,0,1-12.113,0Zm9.978-1.371a8.706,8.706,0,0,0-.022-9.483,5.236,5.236,0,0,0-7.8,0,8.7,8.7,0,0,0,0,9.483,4.7,4.7,0,0,0,3.933,1.663,4.832,4.832,0,0,0,3.888-1.663Z" transform="translate(-133.351 -92.148)"/>
        <path id="Path_2344" data-name="Path 2344" class="cls-6" d="M447.769,277.706a1.259,1.259,0,0,1-.427-1.034V263.032a1.214,1.214,0,0,1,.449-1.034,1.685,1.685,0,0,1,1.056-.337,1.641,1.641,0,0,1,1.034.337,1.258,1.258,0,0,1,.45.989v2.023a4.921,4.921,0,0,1,1.663-2.584A4.5,4.5,0,0,1,455,261.391a.966.966,0,0,1,.831.4,1.438,1.438,0,0,1,.315.921,1.392,1.392,0,0,1-.292.854.989.989,0,0,1-.809.359,4.876,4.876,0,0,0-3.461,1.146,4.022,4.022,0,0,0-1.236,3.1v8.517a1.281,1.281,0,0,1-.45,1.034,1.685,1.685,0,0,1-1.078.36,1.529,1.529,0,0,1-1.056-.382Z" transform="translate(-122.08 -92.095)"/>
        <path id="Path_2345" data-name="Path 2345" class="cls-7" d="M318.322,295.39a8,8,0,0,1-2.742-6.18,10.719,10.719,0,0,1,2.854-7.146,8.36,8.36,0,0,1,6.4-3.258,6.36,6.36,0,0,1,2.247.427,7.639,7.639,0,0,1,2.247,1.236,37.956,37.956,0,0,0,23.753,8.652c6.427,0,11.393-1.685,14.854-5.079s5.191-8.36,5.191-14.966a18.742,18.742,0,0,0-19.551-20.225,30.652,30.652,0,0,0-18.652,6.742,6.742,6.742,0,0,1-4.494,1.416,13.483,13.483,0,0,1-8.427-3.056,9.956,9.956,0,0,1-3.865-8.247V198.94q0-7.011,3.371-9.573t11.236-2.562h49.663a8.7,8.7,0,0,1,6.495,2.494,9.191,9.191,0,0,1,2.427,6.742,8.831,8.831,0,0,1-2.562,6.742,10,10,0,0,1-7.079,2.449H339.109l-.427,31.461,2.494-1.483a33.168,33.168,0,0,1,8.157-3.011,47.688,47.688,0,0,1,12.045-1.483,35.731,35.731,0,0,1,26.36,10.135q10.18,10.157,10.2,27.821a37.259,37.259,0,0,1-21.708,34.809,52.181,52.181,0,0,1-22.472,4.7A53.259,53.259,0,0,1,318.322,295.39Z" transform="translate(-286.412 -185.128)"/>
        <path id="Path_2346" data-name="Path 2346" class="cls-7" d="M386.534,306.291a36.18,36.18,0,0,1-13.124-8.989,47.194,47.194,0,0,1-8.539-13.663,72.655,72.655,0,0,1-4.787-16.854,122.282,122.282,0,0,1-1.393-19.191,118.7,118.7,0,0,1,1.393-18.9,74.157,74.157,0,0,1,4.742-16.742,46.248,46.248,0,0,1,8.472-13.618,36.339,36.339,0,0,1,13.1-8.989,50.765,50.765,0,0,1,35.956,0,36.54,36.54,0,0,1,13.034,8.831,47.187,47.187,0,0,1,8.584,13.483,72.269,72.269,0,0,1,4.876,16.787,128.855,128.855,0,0,1,0,38.2,70.985,70.985,0,0,1-4.787,16.877,47.191,47.191,0,0,1-8.539,13.641,37.012,37.012,0,0,1-13.056,8.989,45.98,45.98,0,0,1-17.978,3.326A46.587,46.587,0,0,1,386.534,306.291Zm28.248-19.236a19.214,19.214,0,0,0,6.157-9.528,67.24,67.24,0,0,0,2.809-13.281,154.236,154.236,0,0,0,.787-16.674q0-7.573-.427-13.326a77.491,77.491,0,0,0-1.685-11.461,33.551,33.551,0,0,0-3.416-9.416,17.168,17.168,0,0,0-5.686-5.865,15.955,15.955,0,0,0-8.674-2.247,17.484,17.484,0,0,0-7.416,1.483,13.484,13.484,0,0,0-5.371,4.495,29.081,29.081,0,0,0-3.6,6.607,40.773,40.773,0,0,0-2.247,8.7c-.517,3.371-.876,6.742-1.079,10s-.27,7.034-.27,11.236,0,7.933.27,11.236.562,6.742,1.079,10.068a41.683,41.683,0,0,0,2.247,8.787,28.941,28.941,0,0,0,3.6,6.742,14.09,14.09,0,0,0,5.371,4.494,17.147,17.147,0,0,0,7.416,1.528,16.044,16.044,0,0,0,10.135-3.573Z" transform="translate(-232.645 -186.051)"/>
        <path id="Path_2347" data-name="Path 2347" class="cls-7" d="M433.014,306.294A36.18,36.18,0,0,1,419.89,297.3a47.71,47.71,0,0,1-8.539-13.663,72.652,72.652,0,0,1-4.787-16.854,125.051,125.051,0,0,1-1.393-19.191,121.358,121.358,0,0,1,1.393-18.9,74.161,74.161,0,0,1,4.742-16.742,46.72,46.72,0,0,1,8.472-13.618,36.427,36.427,0,0,1,13.124-8.989,50.7,50.7,0,0,1,35.955,0,36.54,36.54,0,0,1,13.034,8.832,46.765,46.765,0,0,1,8.584,13.483,71.2,71.2,0,0,1,4.876,16.787A118.473,118.473,0,0,1,496.79,247.6a124.271,124.271,0,0,1-1.393,19.1,73.147,73.147,0,0,1-4.787,16.877,47.6,47.6,0,0,1-8.539,13.641,36.9,36.9,0,0,1-13.079,8.989,45.977,45.977,0,0,1-17.978,3.326,46.677,46.677,0,0,1-18-3.236Zm28.27-19.236a19.348,19.348,0,0,0,6.135-9.528,67.236,67.236,0,0,0,2.809-13.281,154.251,154.251,0,0,0,.787-16.674q0-7.573-.427-13.326a77.475,77.475,0,0,0-1.685-11.461,33.551,33.551,0,0,0-3.416-9.416,16.967,16.967,0,0,0-5.775-5.933,15.888,15.888,0,0,0-8.674-2.247,17.551,17.551,0,0,0-7.416,1.483,13.484,13.484,0,0,0-5.371,4.494,29.035,29.035,0,0,0-3.573,6.607,42.09,42.09,0,0,0-2.247,8.7c-.517,3.371-.876,6.742-1.056,10s-.292,7.034-.292,11.236,0,7.933.292,11.236.539,6.742,1.056,10.068a43.036,43.036,0,0,0,2.247,8.787,28.9,28.9,0,0,0,3.573,6.742,14.09,14.09,0,0,0,5.371,4.494,17.215,17.215,0,0,0,7.416,1.528A16.158,16.158,0,0,0,461.284,287.057Z" transform="translate(-174.674 -186.054)"/>
      </g>
      <g id="Server--inject-2" transform="translate(43.908 355.241)">
        <path id="Path_2348" data-name="Path 2348" class="cls-8" d="M153,338.867a53.551,53.551,0,0,1,39.731,9.888c18.36,14.112,32.315,50,39.529,100.248S243.5,520.914,285.9,528.06s144.024,4.247,204.721,2.831S548.51,473,497.7,467.362s-86,7.91-139.013-3.82,47.192-27.259,123.462-15.955,110.114,14.112,151.08,9.888" transform="translate(98.688 -9.649)"/>
        <path id="Path_2349" data-name="Path 2349" class="cls-8" d="M153,305.1s41.147.315,52.428,42.7,15.528,101.664,16.944,148.316,2.831,86.136,56.473,97.417,199.081,7.056,238.609-1.416,83.3-46.585,50.832-55.057-77.664,0-60.675,11.236,62.135,8.472,115.777,1.416" transform="translate(98.688 -51.03)"/>
        <path id="Path_2350" data-name="Path 2350" class="cls-8" d="M301.138,370.713s25.146-2.247,34.967,26.225-2.247,34.967,3.281,49.169,39.956.944,39.8,12.719c-.157,10.742-13.775,13.775-92.248,9.146-102.608-6.045-170.5,9.843-165.036,19.686s87.439,2.247,67.754,17.483-67.754-2.247-104.923-3.281S41,509.5,41,509.5" transform="translate(-41 30.752)"/>
        <rect id="Rectangle_830" data-name="Rectangle 830" class="cls-9" width="263.059" height="484.05" rx="3.56" transform="translate(8.112)"/>
        <rect id="Rectangle_831" data-name="Rectangle 831" class="cls-10" width="250.362" height="185.418" transform="translate(14.405 72.518)"/>
        <rect id="Rectangle_832" data-name="Rectangle 832" class="cls-10" width="250.362" height="185.418" transform="translate(14.405 288.071)"/>
        <rect id="Rectangle_833" data-name="Rectangle 833" class="cls-11" width="142.136" height="144.945" transform="translate(91.574 310.655)"/>
        <rect id="Rectangle_834" data-name="Rectangle 834" class="cls-11" width="142.136" height="35.776" transform="translate(91.574 93.237)"/>
        <rect id="Rectangle_835" data-name="Rectangle 835" class="cls-11" width="142.136" height="35.776" transform="translate(91.574 161.934)"/>
        <path id="Path_2351" data-name="Path 2351" class="cls-9" d="M230.609,226.16l-2.742,7.528H101.956l-2.742-7.528H72.54v33.079H99.214l2.742-7.528H227.868l2.742,7.528h30.2V226.16Z" transform="translate(-1.663 -149.485)"/>
        <path id="Path_2352" data-name="Path 2352" class="cls-9" d="M230.609,242.22l-2.742,7.506H101.956l-2.742-7.506H72.54v33.057H99.214l2.742-7.506H227.868l2.742,7.506h30.2V242.22Z" transform="translate(-1.663 -129.455)"/>
        <path id="Path_2353" data-name="Path 2353" class="cls-9" d="M230.609,258.27l-2.742,7.528H101.956l-2.742-7.528H72.54v33.079H99.214l2.742-7.528H227.868l2.742,7.528h30.2V258.27Z" transform="translate(-1.663 -109.437)"/>
        <path id="Path_2354" data-name="Path 2354" class="cls-9" d="M230.609,274.32l-2.742,7.528H101.956l-2.742-7.528H72.54V307.4H99.214l2.742-7.506H227.868l2.742,7.506h30.2V274.32Z" transform="translate(-1.663 -89.419)"/>
        <path id="Path_2355" data-name="Path 2355" class="cls-9" d="M230.609,290.38l-2.742,7.506H101.956l-2.742-7.506H72.54v33.079H99.214l2.742-7.528H227.868l2.742,7.528h30.2V290.38Z" transform="translate(-1.663 -69.389)"/>
        <path id="Path_2356" data-name="Path 2356" class="cls-9" d="M230.609,322.49,227.868,330H101.956l-2.742-7.506H72.54v33.057H99.214l2.742-7.506H227.868l2.742,7.506h30.2V322.49Z" transform="translate(-1.663 -29.341)"/>
        <path id="Path_2357" data-name="Path 2357" class="cls-9" d="M230.609,338.54l-2.742,7.528H101.956l-2.742-7.528H72.54v33.079H99.214l2.742-7.506H227.868l2.742,7.506h30.2V338.54Z" transform="translate(-1.663 -9.323)"/>
        <path id="Path_2358" data-name="Path 2358" class="cls-9" d="M230.609,354.6l-2.742,7.506H101.956L99.214,354.6H72.54v33.057H99.214l2.742-7.506H227.868l2.742,7.506h30.2V354.6Z" transform="translate(-1.663 10.707)"/>
        <path id="Path_2359" data-name="Path 2359" class="cls-9" d="M230.609,370.65l-2.742,7.528H101.956l-2.742-7.528H72.54v33.079H99.214l2.742-7.528H227.868l2.742,7.528h30.2V370.65Z" transform="translate(-1.663 30.725)"/>
        <path id="Path_2360" data-name="Path 2360" class="cls-9" d="M230.609,386.71l-2.742,7.506H101.956l-2.742-7.506H72.54v33.057H99.214l2.742-7.506H227.868l2.742,7.506h30.2V386.71Z" transform="translate(-1.663 50.755)"/>
        <rect id="Rectangle_836" data-name="Rectangle 836" class="cls-6" width="239.666" height="22.585" transform="translate(19.438 263.711)"/>
        <circle id="Ellipse_157" data-name="Ellipse 157" class="cls-9" cx="6.315" cy="6.315" r="6.315" transform="translate(27.034 268.452)"/>
        <circle id="Ellipse_158" data-name="Ellipse 158" class="cls-11" cx="6.315" cy="6.315" r="6.315" transform="translate(48.068 268.452)"/>
        <path id="Path_2361" data-name="Path 2361" class="cls-9" d="M84.379,317.815a6.315,6.315,0,1,0-6.315,6.315A6.315,6.315,0,0,0,84.379,317.815Z" transform="translate(-2.648 -43.048)"/>
        <rect id="Rectangle_837" data-name="Rectangle 837" class="cls-6" width="239.666" height="22.585" transform="translate(19.438 47.236)"/>
        <path id="Path_2362" data-name="Path 2362" class="cls-12" d="M65.659,221.5a6.315,6.315,0,1,0-6.315,6.315A6.315,6.315,0,0,0,65.659,221.5Z" transform="translate(-25.996 -163.167)"/>
        <path id="Path_2363" data-name="Path 2363" class="cls-11" d="M75.009,221.5a6.315,6.315,0,1,0-6.315,6.315,6.315,6.315,0,0,0,6.315-6.315Z" transform="translate(-14.335 -163.167)"/>
        <path id="Path_2364" data-name="Path 2364" class="cls-12" d="M84.379,221.5a6.315,6.315,0,1,0-6.315,6.315A6.315,6.315,0,0,0,84.379,221.5Z" transform="translate(-2.648 -163.167)"/>
        <rect id="Rectangle_838" data-name="Rectangle 838" class="cls-6" width="239.666" height="22.585" transform="translate(19.438 18.18)"/>
        <path id="Path_2365" data-name="Path 2365" class="cls-11" d="M65.659,208.555a6.315,6.315,0,1,0-6.315,6.315A6.315,6.315,0,0,0,65.659,208.555Z" transform="translate(-25.996 -179.318)"/>
        <path id="Path_2366" data-name="Path 2366" class="cls-9" d="M75.009,208.555a6.315,6.315,0,1,0-6.315,6.315,6.315,6.315,0,0,0,6.315-6.315Z" transform="translate(-14.335 -179.318)"/>
        <path id="Path_2367" data-name="Path 2367" class="cls-9" d="M84.379,208.555a6.315,6.315,0,1,0-6.315,6.315,6.315,6.315,0,0,0,6.315-6.315Z" transform="translate(-2.648 -179.318)"/>
        <rect id="Rectangle_839" data-name="Rectangle 839" class="cls-9" width="39.529" height="16.944" transform="translate(20.045 77.237)"/>
        <rect id="Rectangle_840" data-name="Rectangle 840" class="cls-9" width="39.529" height="16.944" transform="translate(20.045 113.934)"/>
        <rect id="Rectangle_841" data-name="Rectangle 841" class="cls-11" width="39.529" height="16.944" transform="translate(20.045 150.653)"/>
        <rect id="Rectangle_842" data-name="Rectangle 842" class="cls-11" width="39.529" height="16.944" transform="translate(20.045 187.35)"/>
        <rect id="Rectangle_843" data-name="Rectangle 843" class="cls-11" width="39.529" height="16.944" transform="translate(20.045 224.07)"/>
        <rect id="Rectangle_844" data-name="Rectangle 844" class="cls-11" width="39.529" height="16.944" transform="translate(20.045 292.767)"/>
        <rect id="Rectangle_845" data-name="Rectangle 845" class="cls-9" width="39.529" height="16.944" transform="translate(20.045 329.487)"/>
        <rect id="Rectangle_846" data-name="Rectangle 846" class="cls-13" width="39.529" height="16.944" transform="translate(20.045 366.184)"/>
        <rect id="Rectangle_847" data-name="Rectangle 847" class="cls-9" width="39.529" height="16.944" transform="translate(20.045 402.903)"/>
        <rect id="Rectangle_848" data-name="Rectangle 848" class="cls-11" width="39.529" height="16.944" transform="translate(20.045 439.6)"/>
      </g>
      <g id="Character--inject-2" transform="translate(313.141 103.148)">
        <path id="Path_2368" data-name="Path 2368" class="cls-12" d="M274.433,146.36S236.545,156,226.028,170.405s-53.147,112.361-53.147,112.361-13.82,15.506,1.124,30.45,44.832,20.472,55.911,7.191,27.1-75.844,29.326-83.035,18.809-68.091,20.472-71.394S282.973,148.338,274.433,146.36Z" transform="translate(-159.261 11.677)"/>
        <path id="Path_2369" data-name="Path 2369" class="cls-11" d="M262.683,146.36S224.8,156,214.278,170.405c-6.36,8.7-24.472,48.023-37.8,77.709,6.472-1.3,33.439-5.3,65.012,10.607,3.034-10.607,5.281-18.989,6-21.349,2.247-7.191,18.809-68.091,20.472-71.394S271.223,148.338,262.683,146.36Z" transform="translate(-147.511 12.014)"/>
        <path id="Path_2370" data-name="Path 2370" class="cls-12" d="M273.849,89.913a36.27,36.27,0,0,1,14.944,16.045c4.495,10.517,4.495,26.562,4.495,26.562s70.855-2.247,97.979-2.764,45.394,6.09,45.933,19.371-5.528,39.3-20.472,49.259-61.439-6.09-85.237-12.719-32.113-4.494-49.259-6.742-22.158-8.854-24.922-19.371,2.764-30.45,2.764-46.495S257.8,86.587,273.849,89.913Z" transform="translate(-47.665 -56.273)"/>
        <path id="Path_2371" data-name="Path 2371" class="cls-12" d="M449.484,121.382S439.529,146.4,421.259,160c-13.1,9.759-30.787,15.322-39.708,17.662-31.933-8.831-77.012-12.982-103.372-7.242,0,0-36.809,8.655-43.214,9.449s-21.618,51.111-24.832,85.707,7.214,120.325,7.214,126.618,4,110.9,10.4,140,13.618,68.442,14.4,73.917,6.4,46.364,6.4,59.765-6.494,45.635-6.494,45.635-28.809,18.877-40.023,29.872,8.247,22.608,22.472,25.169c24.135,4.416,52.81-18.877,52.81-18.877l32.158-12.562c8.517-3.356,11.034-12.342,11.236-20.4l1.483-58.242q7.551,30.909,12.4,62.459c1.3,8.61,2.652,17.662,7.933,24.617a33.925,33.925,0,0,0,11.1,9.692c3.191,1.457,6.584,1.148,9.8,2.959,5.91,3.356,8.337,10.6,14.068,14.24A76.357,76.357,0,0,0,418.338,780.7s32,1.59,33.708-15.719-41.641-45.613-41.641-45.613S404,604.56,399.169,566.806s-17.618-99.086-17.618-125.845S394.36,288.38,394.36,288.38s1.3-3.312,3.3-8.7l2.112-1.148c18.27-10.332,69.192-50.581,85.8-76.147,15.91-24.462,21.663-70.363,22.113-83.786" transform="translate(-119.793 -19.723)"/>
        <path id="Path_2372" data-name="Path 2372" class="cls-9" d="M377.709,449.8c1.6-17.618-41.641-46.427-41.641-46.427s-.494-8.989-1.3-22.809a323.081,323.081,0,0,1-76.585,8.989q1.146,6.741,2.247,13.483c1.3,8.764,2.652,17.978,7.933,25.056a34.114,34.114,0,0,0,11.1,9.865c3.191,1.483,6.584,1.169,9.8,3.011,5.91,3.416,8.337,10.787,14.068,14.495a75.3,75.3,0,0,0,40.832,10.45S376.091,467.415,377.709,449.8Z" transform="translate(-45.614 295.178)"/>
        <path id="Path_2373" data-name="Path 2373" class="cls-9" d="M309.4,420.539c8.517-3.416,11.034-12.562,11.236-20.764,0-3.1.157-6.2.225-9.3a353.87,353.87,0,0,1-75.709-10.832c-1.528,9.348-3.011,16.877-3.011,16.877s-28.809,19.214-40.023,30.4,8.247,23.011,22.472,25.618c24.135,4.494,52.81-19.214,52.81-19.214Z" transform="translate(-119.706 294.03)"/>
        <path id="Path_2374" data-name="Path 2374" class="cls-12" d="M376.113,435.167v-.787a55.034,55.034,0,0,1-23.843,9.663c-25.3,4.494-48.36-8.427-54.54-14.045s-10.112-10.135-19.686-16.315S259.82,392.29,259.82,392.29l-.36.562c1.191,7.3,2.854,14.607,7.236,20.495a34.112,34.112,0,0,0,11.1,9.865c3.191,1.483,6.584,1.169,9.8,3.011,5.91,3.416,8.337,10.787,14.068,14.495a75.3,75.3,0,0,0,40.832,10.449S374.495,452.785,376.113,435.167Z" transform="translate(-44.017 309.808)"/>
        <path id="Path_2375" data-name="Path 2375" class="cls-12" d="M309.338,407.593c7.438-2.989,10.292-10.315,11.056-17.573-7.371,4.494-24.4,14.315-35.214,18.629-14.045,5.618-23.6,22.472-51.147,22.472-19.641,0-30.4-7.685-34.967-12.112-2.427,9.483,13.483,18.36,25.438,20.584,24.135,4.494,52.81-19.214,52.81-19.214Z" transform="translate(-119.649 306.976)"/>
        <path id="Path_2376" data-name="Path 2376" class="cls-11" d="M407.368,139.67a137.89,137.89,0,0,1-31.821,12.787c-31.933-8.989-77.012-13.214-103.372-7.371,0,0-36.809,8.809-43.214,9.618s-21.618,52.023-24.832,87.237c-1.978,21.753,1.236,63.282,3.978,93.417,66.72,24.45,137.867,16.068,172.654,9.416,3.506-39.911,7.483-79.619,7.483-79.619s1.3-3.371,3.3-8.854l2.112-1.169c12.427-7.146,39.888-28.337,61.439-49.439C411.84,193.221,406.6,159.108,407.368,139.67Z" transform="translate(-113.79 3.474)"/>
        <path id="Path_2377" data-name="Path 2377" class="cls-14" d="M325,176.328a42.7,42.7,0,0,0-18.2-34.135c-20.45-1.978-40.45-1.843-54.967,1.371,0,0-10.18,2.449-20.764,4.854a41.236,41.236,0,0,0-11.236,27.91c0,24.967,23.551,45.214,52.585,45.214S325,201.295,325,176.328Z" transform="translate(-93.445 5.535)"/>
        <path id="Path_2378" data-name="Path 2378" class="cls-12" d="M329.615,653.27a95.731,95.731,0,0,0,37.439,5.258c27.618-1.191,37.214-8.809,37.214-8.809s-6.4-116.855-11.236-155.283-17.618-100.855-17.618-128.091c0-16.045,4.494-67.124,8.112-106.361l-1.73.2A32.248,32.248,0,0,1,345.839,227.2l.764-25.551a333.135,333.135,0,0,1-62.45-1.8c-37.214-4.2-75.641-16.809-75.641-16.809l-4.045,1.236c0,1.191-.247,2.382-.36,3.551-3.191,35.236,7.214,122.473,7.214,128.878s4,112.878,10.4,142.5,13.618,69.664,14.4,75.237,6.4,47.192,6.4,60.832-6.157,45.214-6.382,46.36c4.809,1.506,14.877,4.495,33.012,9.663,27.6,7.82,45.416-1.6,45.416-1.6,0-9.6,1.6-64.023,1.6-64.023S326.334,631.742,329.615,653.27Z" transform="translate(-113.812 48.828)"/>
        <path id="Path_2379" data-name="Path 2379" class="cls-15" d="M219.479,198.05l71.888,11.82v44.315l-40.383,40.4L218.49,255.174Z" transform="translate(-95.116 74.521)"/>
        <path id="Path_2380" data-name="Path 2380" class="cls-15" d="M262.978,363.331c-5.191-29.214-8.989-58.068-8.989-78.787L225.18,265.33" transform="translate(-86.772 155.775)"/>
        <path id="Path_2381" data-name="Path 2381" class="cls-15" d="M265.958,416.761s-12.135-46.9-22.158-98.271" transform="translate(-63.549 219.981)"/>
        <path id="Path_2382" data-name="Path 2382" class="cls-15" d="M263.19,260.735a30.249,30.249,0,0,0,2.966,7.416c8.877,15.731,21.663,17.731,21.663,17.731L289.8,244.51" transform="translate(-39.365 131.145)"/>
        <path id="Path_2383" data-name="Path 2383" class="cls-15" d="M266.319,241a35.218,35.218,0,0,0-3.258,9.461" transform="translate(-39.527 127.147)"/>
        <path id="Path_2384" data-name="Path 2384" class="cls-15" d="M280.22,297c1.034,5.461,2.09,10.832,3.124,15.955" transform="translate(-18.125 194.977)"/>
        <path id="Path_2385" data-name="Path 2385" class="cls-15" d="M274.15,262.92s5.079,30.36,10.944,62.18" transform="translate(-25.696 153.238)"/>
        <path id="Path_2386" data-name="Path 2386" class="cls-12" d="M237.724,139.239l-.449,23.6s-8.135,6.517-9.753,23.6S242.174,219.4,260.466,219.4s34.18-14.247,37.034-27.259-.831-31.731-.831-31.731l-1.214-28.472s-17.978,11.371-34.989,8.135-21.955-9.371-21.955-9.371Z" transform="translate(-83.99 -6.809)"/>
        <path id="Path_2387" data-name="Path 2387" class="cls-12" d="M226.423,110.227s-1.1,13.483,1.82,16.787,6.944,5.843,7.685,2.921,1.079-18.247,1.82-21.528S226.783,101.013,226.423,110.227Z" transform="translate(-85.476 -37.193)"/>
        <path id="Path_2388" data-name="Path 2388" class="cls-12" d="M231.76,129.351s-3.348,26.967-3.348,40.023-5.056,17.978,11.236,26.472,30.4,9.573,41.663,5.618,17.461-13.483,17.978-21.394.562-20.225.562-20.225,15.731-14.068,12.4-24.719-10.7,2.809-10.7,2.809a86.945,86.945,0,0,0,4.494-28.719c-.562-14.652-11.82-16.337-16.337-16.337s-32.09-8.472-45.012-.112S231.76,129.351,231.76,129.351Z" transform="translate(-83.666 -56.541)"/>
        <path id="Path_2389" data-name="Path 2389" class="cls-9" d="M270.261,135.777a86.944,86.944,0,0,0,4.494-28.719c-.562-14.652-11.82-16.337-16.337-16.337h-.292c-2.382,4-5.326,10.157-5.326,10.157L255.047,102s-2.247,12.4,2.247,14.09,2.247,5.618,2.247,12.382,3.955,11.82,6.2,11.82c1.775,0,4.494-4.494,5.708-6.45A21.373,21.373,0,0,0,270.261,135.777Z" transform="translate(-52.324 -54.495)"/>
        <path id="Path_2390" data-name="Path 2390" class="cls-15" d="M242.51,111.49s-4.742,4.36-2.562,7.663,10.225,5.1,12.427,1.079a6.742,6.742,0,0,0-1.461-8.382" transform="translate(-69.068 -28.591)"/>
        <path id="Path_2391" data-name="Path 2391" class="cls-16" d="M240.733,111.773c0,2.247-.9,4-2.022,4s-2-1.8-2-4,.9-4.023,2-4.023S240.733,109.548,240.733,111.773Z" transform="translate(-72.392 -33.255)"/>
        <ellipse id="Ellipse_159" data-name="Ellipse 159" class="cls-16" cx="2" cy="4.023" rx="2" ry="4.023" transform="translate(188.611 75.573)"/>
        <path id="Path_2392" data-name="Path 2392" class="cls-15" d="M246.62,106.042s7.663-5.124,14.966,2.921" transform="translate(-60.032 -37.39)"/>
        <path id="Path_2393" data-name="Path 2393" class="cls-17" d="M248.041,121.591a7.618,7.618,0,0,0-6.247-.27,6.449,6.449,0,0,0-3.64,3.91s-4.674,3.753.247,5.393,15.73,1.528,18.45,1.416a4.2,4.2,0,0,0,3.6-4.652,2.517,2.517,0,0,0-1.146-2.247,8.989,8.989,0,0,0-11.259-3.551Z" transform="translate(-73.093 -17.006)"/>
        <path id="Path_2394" data-name="Path 2394" class="cls-18" d="M236.57,123.751a52.923,52.923,0,0,1,22.674,1.348" transform="translate(-72.566 -14.11)"/>
        <path id="Path_2395" data-name="Path 2395" class="cls-11" d="M229.274,116.465l60.158,8.472s25.349-6.742,27.618-11.82-6.2-30.4-10.719-36.607S258.465,81,244.937,83.252s-23.551,5.6-22.922,12.472S229.274,116.465,229.274,116.465Z" transform="translate(-90.754 -74.6)"/>
        <path id="Path_2396" data-name="Path 2396" class="cls-12" d="M244.614,93.23s-34.36,28.158-34.922,30.944,50.113,3.933,65.888.562S304.772,101.7,304.772,101.7Z" transform="translate(-106.094 -51.365)"/>
        <path id="Path_2397" data-name="Path 2397" class="cls-11" d="M229.1,308.667l94.383-55.349A18.607,18.607,0,0,0,352.5,233.206l-19.708,11.528-4.494-7.753,19.731-11.551a18.607,18.607,0,0,0-31.753,15.461l-94.5,55.349a18.607,18.607,0,0,0-29.012,20.113l19.191-11.236,4.494,7.775-19.191,11.236a18.584,18.584,0,0,0,31.731-15.461Z" transform="translate(-128.133 100.71)"/>
        <path id="Path_2398" data-name="Path 2398" class="cls-12" d="M256.277,241.05S267.9,249.365,267.9,257.1s-13.843,16.068-23.236,16.607-11.079-9.955-9.416-15.483S256.277,241.05,256.277,241.05Z" transform="translate(-74.925 127.026)"/>
        <path id="Path_2399" data-name="Path 2399" class="cls-12" d="M223.165,218.292s64.2,35.955,73.057,34.877,21.034-8.854,27.686-6.742,24.9,30.45,26.562,35.439-13.281,22.7-16.607,25.461-13.843,13.843-16.045,14.944-16.607,13.843-23.8,13.843-19.371-5.551-20.495-8.315,1.663-6.629,1.663-6.629L241.48,305.664s-64.225-34.877-75.282-52.585S182.8,203.82,182.8,203.82" transform="translate(-163.589 81.207)"/>
        <path id="Path_2400" data-name="Path 2400" class="cls-15" d="M223.11,248.93a8.989,8.989,0,0,1,7.73,7.753c1.124,7.191-1.64,19.933-1.64,19.933" transform="translate(-89.354 136.613)"/>
        <path id="Path_2401" data-name="Path 2401" class="cls-15" d="M228.77,244.25s7.753.562,7.753,7.753v19.933" transform="translate(-82.294 130.943)"/>
        <path id="Path_2402" data-name="Path 2402" class="cls-15" d="M232.47,235.39S246.852,245.907,247.953,252a70.473,70.473,0,0,1,0,16.045" transform="translate(-77.68 120.17)"/>
        <path id="Path_2403" data-name="Path 2403" class="cls-12" d="M266.669,312.939c3.236,0,11.8-21.438,11.8-29.483s3.753-66.99,12.337-94.383c6.157-19.618,11.461-34.764,13.978-41.8-6.539-1.663-13.483-3.146-20.719-4.494-4.292,13.011-17.393,53.619-22.742,79.439-6.427,31.079-4.831,68.068-4.292,71.282S263.5,312.939,266.669,312.939Z" transform="translate(-47.766 7.43)"/>
        <rect id="Rectangle_849" data-name="Rectangle 849" class="cls-12" width="24.113" height="20.36" rx="1.23" transform="translate(209.677 252.97) rotate(7.56)"/>
        <rect id="Rectangle_850" data-name="Rectangle 850" class="cls-12" width="15.124" height="12.787" rx="1.23" transform="translate(213.632 257.305) rotate(7.56)"/>
        <path id="Path_2404" data-name="Path 2404" class="cls-12" d="M212.567,302.649c3.236,0,11.8-21.438,11.8-29.483s3.753-66.99,12.337-94.383c5.438-17.349,9.146-28.427,11.236-34.2-8.382,1.888-16.337,3.618-18.989,3.955-1.978.247-4.764,5.258-7.8,13.079-3.551,11.011-7.888,25.326-11.236,39.281a293.433,293.433,0,0,0-5.708,34.877,296.633,296.633,0,0,0-.157,35.349,2.626,2.626,0,0,0,.135.944C204.5,275.323,209.354,302.649,212.567,302.649Z" transform="translate(-113.688 9.657)"/>
        <rect id="Rectangle_851" data-name="Rectangle 851" class="cls-12" width="24.113" height="20.36" rx="1.23" transform="translate(89.868 236.895) rotate(6.09)"/>
        <rect id="Rectangle_852" data-name="Rectangle 852" class="cls-12" width="15.124" height="12.787" rx="1.23" transform="translate(93.914 241.102) rotate(6.09)"/>
      </g>
    </g>
  </g>
</svg>
