<svg xmlns="http://www.w3.org/2000/svg" xmlns:xlink="http://www.w3.org/1999/xlink" width="1920" height="1078" viewBox="0 0 1920 1078">
  <defs>
    <style>
      .cls-1 {
        fill: #64b4d2;
      }

      .cls-12, .cls-2, .cls-5, .cls-9 {
        fill: #fff;
      }

      .cls-13, .cls-17, .cls-2, .cls-22 {
        stroke: #263238;
        stroke-linecap: round;
        stroke-linejoin: round;
        stroke-width: 1.191px;
      }

      .cls-3 {
        clip-path: url(#clip-_503);
      }

      .cls-4 {
        fill: #8167f2;
      }

      .cls-5 {
        opacity: 0.7;
      }

      .cls-22, .cls-6 {
        fill: #263238;
      }

      .cls-7 {
        clip-path: url(#clip-path);
      }

      .cls-17, .cls-8 {
        fill: #8d3ddc;
      }

      .cls-10 {
        clip-path: url(#clip-path-2);
      }

      .cls-11 {
        fill: #8a51e4;
      }

      .cls-12, .cls-16 {
        opacity: 0.5;
      }

      .cls-13 {
        fill: none;
      }

      .cls-14 {
        clip-path: url(#clip-path-3);
      }

      .cls-15 {
        clip-path: url(#clip-path-4);
      }

      .cls-18 {
        clip-path: url(#clip-path-5);
      }

      .cls-19 {
        clip-path: url(#clip-path-6);
      }

      .cls-20 {
        clip-path: url(#clip-path-7);
      }

      .cls-21 {
        clip-path: url(#clip-path-8);
      }
    </style>
    <clipPath id="clip-path">
      <path id="Path_2417" data-name="Path 2417" class="cls-1" d="M306.53,492.742a56.354,56.354,0,1,1,29.438-31.578,56.377,56.377,0,0,1-29.438,31.578Z" transform="translate(-226.751 -385.053)"/>
    </clipPath>
    <clipPath id="clip-path-2">
      <path id="Path_2445" data-name="Path 2445" class="cls-2" d="M384.2,195.642a90.672,90.672,0,0,0-22.446-22.378A331.251,331.251,0,0,0,326.3,154.9l-7.361-41.018A140.211,140.211,0,0,0,337.8,91.547c6.654-10.733,4.558-17.934.3-25.363s-10.163-2.621-11.052.775a75.943,75.943,0,0,0-1.185,10.824S321.9,50.438,319.6,44.216s-11.075-.228-10.3,1.846c0,0-2.643-7.771-8.09-7.862s-7,9.115-7,9.115-7-3.236-10.915.82-2.051,14.22-2.051,14.22S275,64.634,274.043,73.5s-.182,24.383,2.279,28.644a45.756,45.756,0,0,1,3.3,6.335c-3.1,37.008-2.985,34.569-3.9,49.336-.638,10.391,6.175,34.547,15.952,44.6s44.756,27.8,44.756,27.8S372.966,220.8,384.2,195.642Z" transform="translate(-273.646 -38.2)"/>
    </clipPath>
    <clipPath id="clip-path-3">
      <path id="Path_2456" data-name="Path 2456" class="cls-2" d="M307.839,126.574s-10.186,1.071-13.4,3.828-27.665,23.677-31.63,36.073,11.1,49.5,27.551,63.806,37.008,29.465,54.463,26.343,37.509-30.012,39.583-37.327-66.222-91.152-66.222-91.152S313.331,123.27,307.839,126.574Z" transform="translate(-262.169 -125.426)"/>
    </clipPath>
    <clipPath id="clip-path-4">
      <path id="Path_2463" data-name="Path 2463" class="cls-2" d="M370.544,104.665s-10.8-3.646-26.89,3.19S287.322,138.323,281.42,158.9c-3.9,13.513,38.74,76.613,65.379,87,7.155,2.78,13.673,5.811,28.325-6.13s45.371-45.1,53.415-59.7-4.558-25.5-8.773-31.9S381.847,99.834,370.544,104.665Z" transform="translate(-281.171 -103.694)"/>
    </clipPath>
    <clipPath id="clip-path-5">
      <circle id="Ellipse_162" data-name="Ellipse 162" class="cls-2" cx="60.388" cy="60.388" r="60.388" transform="translate(0 33.695) rotate(-16.2)"/>
    </clipPath>
    <clipPath id="clip-path-6">
      <path id="Path_2475" data-name="Path 2475" class="cls-2" d="M400.307,135.122s-23.449-6.335-32.678,11.28,1.185,61.527,1.185,61.527-17.137,27.847-21.489,30.878-16.612,1.709-28.69,7.862-8.09,12.465-4.877,14.584,13.058-4.216,15.952-3.988,2.575,5.446-8.819,17.273-16.612,12.123-13.354,17.592a8.409,8.409,0,0,0,9.115,4.079,5.857,5.857,0,0,0,3.19,7c4.694,2.279,6.7.524,6.7.524s-.456,5.948,3.9,7.771a18.526,18.526,0,0,0,10.46,0s4.125,4.831,8.295,4.033,13.673-12.419,21.193-22.309,36.461-45.052,47.855-66.609,5.993-43.3,3.669-56.583S409.057,138.039,400.307,135.122Z" transform="translate(-306.58 -134.013)"/>
    </clipPath>
    <clipPath id="clip-path-7">
      <path id="Path_2486" data-name="Path 2486" class="cls-2" d="M325.559,175.485s9.48,27.346,21.671,29.374,29.146-18.663,32.587-34.182-8.659-28.006-26.161-43.593-42.591-24.657-63.806-12.83-52.572,45.576-52.572,45.576-19.62-17.25-30.035-8.34,3.168,36.165,12.761,47.4S247.1,226.6,263.9,222.679s30.1-35.435,41.018-44.71S323.144,172.682,325.559,175.485Z" transform="translate(-203.494 -108.848)"/>
    </clipPath>
    <clipPath id="clip-path-8">
      <path id="Path_2495" data-name="Path 2495" class="cls-2" d="M330.616,210.92s27.733,8.158,36.461-.547S377.1,175.211,358.235,164c-13.673-8.067-27.824-9.115-50.68-4.011s-44.8,20.35-47.467,44.414,6.609,69.321,6.609,69.321-25.409,5.948-24.224,19.62,31.288,18.435,45.986,17.137,38.147-5.993,44.687-21.922-11.394-45.075-12.625-59.249S326.948,211.239,330.616,210.92Z" transform="translate(-242.432 -156.872)"/>
    </clipPath>
    <clipPath id="clip-_503">
      <rect width="1920" height="1078"/>
    </clipPath>
  </defs>
  <g id="_503" data-name="503" class="cls-3">
    <rect class="cls-9" width="1920" height="1078"/>
    <g id="_503_Error_Service_Unavailable-bro" data-name="503 Error Service Unavailable-bro" transform="translate(417.643 27.8)">
      <g id="background-simple--inject-2" transform="translate(63.349 127.88)">
        <path id="Path_2405" data-name="Path 2405" class="cls-4" d="M58.9,521.95S57.805,683.4,188.061,794.322,504.328,917.6,654.743,931.6s269.588-68.572,292.072-197.46S855.6,564.434,798.749,415.706s-49.325-196.981-178.1-290.8S282.652,81.444,168.2,233.8,58.9,521.95,58.9,521.95Z" transform="translate(-58.865 -77.554)"/>
        <path id="Path_2406" data-name="Path 2406" class="cls-5" d="M58.9,521.95S57.805,683.4,188.061,794.322,504.328,917.6,654.743,931.6s269.588-68.572,292.072-197.46S855.6,564.434,798.749,415.706s-49.325-196.981-178.1-290.8S282.652,81.444,168.2,233.8,58.9,521.95,58.9,521.95Z" transform="translate(-58.865 -77.554)"/>
      </g>
      <g id="planet-3--inject-2" transform="translate(814.713 486.382)">
        <path id="Path_2407" data-name="Path 2407" class="cls-6" d="M407.314,300.8a34.934,34.934,0,1,1,26.665,2.188,34.957,34.957,0,0,1-26.665-2.187Z" transform="translate(-388.311 -234.739)"/>
        <path id="Path_2408" data-name="Path 2408" class="cls-1" d="M411.38,241.85l16.954,23.791a34.57,34.57,0,0,0-.775-13.855Z" transform="translate(-358.81 -225.646)"/>
        <path id="Path_2409" data-name="Path 2409" class="cls-1" d="M395.78,239.651l40.289,56.833A34.57,34.57,0,0,0,444.3,286.5L410.5,234.82a34.911,34.911,0,0,0-14.721,4.831Z" transform="translate(-378.76 -234.636)"/>
        <path id="Path_2410" data-name="Path 2410" class="cls-1" d="M412.911,279.467,395.41,254.4l9.115,23.745a35.505,35.505,0,0,0,8.386,1.322Z" transform="translate(-379.233 -209.597)"/>
        <path id="Path_2411" data-name="Path 2411" class="cls-1" d="M432.412,294.922,392.4,240.39c-.387.479-.752,1-1.117,1.5l28.986,55.534A35.254,35.254,0,0,0,432.412,294.922Z" transform="translate(-384.514 -227.513)"/>
      </g>
      <g id="planet-2--inject-2" transform="translate(422.354 829.212)">
        <path id="Path_2412" data-name="Path 2412" class="cls-6" d="M306.53,492.742a56.354,56.354,0,1,1,29.438-31.578,56.377,56.377,0,0,1-29.438,31.578Z" transform="translate(-202.896 -385.053)"/>
        <g id="Group_8014" data-name="Group 8014" class="cls-7" transform="translate(23.855)">
          <path id="Path_2413" data-name="Path 2413" class="cls-1" d="M319.983,465.824l-38.466-60.388L325.2,447.412c.114-1.162.205-2.279.251-3.509L273.7,385.246a55.151,55.151,0,0,0-13.263.5l10.391,16.521-17.182-15.04h0l13.673,24.748-27.642-18.549c-.684.433-1.367.866-2.028,1.322l51.3,56.97-40.7-30.969,14.47,22.788-21.079-14.584,55.192,61.664a56.013,56.013,0,0,0,17.25-14.972l-11.234-18.755,13.946,14.858a54.128,54.128,0,0,0,3.19-5.925Z" transform="translate(-212.812 -385.049)"/>
          <path id="Path_2414" data-name="Path 2414" class="cls-1" d="M299.736,466.264,255.641,415.4l19.6,30.262-48.31-37.874a56.355,56.355,0,0,0,48.812,60.5l-17.41-15.473,27.027,15.952a57.518,57.518,0,0,0,14.379-2.507Z" transform="translate(-226.77 -355.978)"/>
          <path id="Path_2415" data-name="Path 2415" class="cls-1" d="M260.69,386.87l24.725,28.713L280.4,404.622l8,6.153a56.127,56.127,0,0,0-27.71-23.9Z" transform="translate(-183.349 -382.73)"/>
          <path id="Path_2416" data-name="Path 2416" class="cls-1" d="M246.151,416.718,232.8,398.26a57.449,57.449,0,0,0-5.7,16.658Z" transform="translate(-226.304 -368.165)"/>
        </g>
        <path id="Path_2418" data-name="Path 2418" class="cls-6" d="M380.237,397.866c-4.1-8.978-22.287-10.232-46.442-4.74a51.71,51.71,0,0,1,4.352,4.307c18.048-4.147,30.923-3.783,33.589,2.005,4.694,10.277-24.588,33.749-65.424,52.412s-77.707,25.5-82.424,15.222c-2.415-5.287,4.216-14.083,16.772-23.927a53.973,53.973,0,0,1-.524-6.039c-17.524,13.673-26.844,26.981-22.993,35.367,6.495,14.22,48.288,9.115,93.431-11.554S386.731,412.086,380.237,397.866Z" transform="translate(-216.282 -378.937)"/>
      </g>
      <g id="planet-1--inject-2" transform="translate(178.76 292.698)">
        <circle id="Ellipse_160" data-name="Ellipse 160" class="cls-1" cx="55.671" cy="55.671" r="55.671" transform="translate(0)"/>
        <path id="Path_2419" data-name="Path 2419" class="cls-6" d="M178.307,163.6a43.024,43.024,0,0,1,12.738-8.09,54.53,54.53,0,0,0-14.356-5.173,129.064,129.064,0,0,0-14.675,11.394c-19.917,18.094-14.493,16.293-43.434,27.14a45.285,45.285,0,0,0-7.68,3.692,54.828,54.828,0,0,0-1.39,12.146,55.556,55.556,0,0,0,3.942,20.509c10.346-3.145,24.11-8.249,30.468-14.607C154.767,199.813,156.59,183.519,178.307,163.6Z" transform="translate(-109.51 -149.109)"/>
        <path id="Path_2420" data-name="Path 2420" class="cls-6" d="M116.19,214.018a56.081,56.081,0,0,0,14.562,11.1c10.369-7.247,15.2-14.949,29.966-21.649,12.966-5.9,34.364-7.2,47.718-7.361a55.421,55.421,0,0,0,3.851-20.259A19.876,19.876,0,0,0,212.15,173a160.336,160.336,0,0,0-46.009,10.551C145.085,191.914,134.876,206.84,116.19,214.018Z" transform="translate(-100.968 -120.132)"/>
        <path id="Path_2421" data-name="Path 2421" class="cls-6" d="M142.67,174.987c9.844,4.922,25.067,2.279,36.8-1a55.876,55.876,0,0,0-9.366-15.564C154.428,161.36,129.043,168.173,142.67,174.987Z" transform="translate(-72.073 -138.777)"/>
      </g>
      <g id="Text--inject-2" transform="translate(207.94 473.234)">
        <path id="Path_2422" data-name="Path 2422" class="cls-8" d="M145.93,385.564l1.162-1.914a16.635,16.635,0,0,0,11.553,4.421c7.019,0,10.118-3.054,10.118-6.836,0-10.505-21.876-4.216-21.876-17.114,0-4.968,3.806-9.32,12.419-9.32a18.686,18.686,0,0,1,10.551,3.168l-.957,2.051a17.25,17.25,0,0,0-9.594-2.962c-6.836,0-9.867,3.145-9.867,7.019,0,10.505,21.876,4.284,21.876,17,0,4.968-3.965,9.275-12.625,9.275a17.979,17.979,0,0,1-12.761-4.785Z" transform="translate(-91.877 -67.945)"/>
        <path id="Path_2423" data-name="Path 2423" class="cls-8" d="M184.182,372.138H161.713a11.166,11.166,0,0,0,19.415,6.836l1.458,1.664a12.488,12.488,0,0,1-9.867,4.239,12.807,12.807,0,0,1-13.445-13.263,12.533,12.533,0,0,1,25.067,0C184.251,371.636,184.182,371.887,184.182,372.138Zm-22.423-1.96h20.031a10.027,10.027,0,0,0-20.031,0Z" transform="translate(-74.823 -62.472)"/>
        <path id="Path_2424" data-name="Path 2424" class="cls-8" d="M186,358.741V361.2h-.615c-5.811,0-9.252,3.851-9.252,10.3v13.673H173.63V358.946h2.393v5.72A9.958,9.958,0,0,1,186,358.741Z" transform="translate(-56.454 -62.953)"/>
        <path id="Path_2425" data-name="Path 2425" class="cls-8" d="M206.488,358.81l-11.827,26.138h-2.552L180.35,358.81h2.666l10.391,23.38,10.528-23.38Z" transform="translate(-47.861 -62.817)"/>
        <path id="Path_2426" data-name="Path 2426" class="cls-8" d="M193.86,356.291a2.051,2.051,0,0,1,2.051-2.051,2.028,2.028,0,1,1-2.051,2.051Zm.8,8.363h2.507v26.138h-2.507Z" transform="translate(-30.584 -68.661)"/>
        <path id="Path_2427" data-name="Path 2427" class="cls-8" d="M198.7,371.99a12.738,12.738,0,0,1,13.217-13.263,11.531,11.531,0,0,1,9.913,4.808L219.98,364.9a9.548,9.548,0,0,0-8.067-3.92,11.029,11.029,0,0,0,0,22.036,9.548,9.548,0,0,0,8.067-3.919l1.846,1.367a11.622,11.622,0,0,1-9.913,4.786A12.761,12.761,0,0,1,198.7,371.99Z" transform="translate(-24.414 -62.939)"/>
        <path id="Path_2428" data-name="Path 2428" class="cls-8" d="M235.623,372.547H213.154a11.166,11.166,0,0,0,19.415,6.836l1.458,1.664a12.488,12.488,0,0,1-9.867,4.239,12.829,12.829,0,0,1-13.468-13.263,12.511,12.511,0,0,1,12.533-13.263,12.374,12.374,0,0,1,12.442,13.172C235.668,372.046,235.623,372.3,235.623,372.547Zm-22.423-1.96H233.23a10.027,10.027,0,0,0-20.031,0Z" transform="translate(-9.088 -62.881)"/>
        <path id="Path_2429" data-name="Path 2429" class="cls-8" d="M230.91,375.067V354.9h2.484v20.076c0,8.751,4.216,12.852,11.508,12.852s11.394-4.1,11.394-12.852V354.9h2.552v20.167c0,10.027-5.355,15.131-14.06,15.131S230.91,385.094,230.91,375.067Z" transform="translate(16.795 -67.817)"/>
        <path id="Path_2430" data-name="Path 2430" class="cls-8" d="M271.491,369.81v15.268h-2.507V369.992c0-5.9-3.145-9.115-8.454-9.115a9.32,9.32,0,0,0-9.913,10.164v13.923H248.11V358.94h2.416v5.651a10.756,10.756,0,0,1,10.346-5.857C267.229,358.735,271.491,362.5,271.491,369.81Z" transform="translate(38.791 -62.947)"/>
        <path id="Path_2431" data-name="Path 2431" class="cls-8" d="M283.076,368.423V384.99h-2.393v-4.558a10.027,10.027,0,0,1-9.411,4.854c-5.857,0-9.411-2.985-9.411-7.452,0-3.942,2.507-7.315,9.753-7.315h8.978v-2.1c0-4.854-2.666-7.452-7.771-7.452a13.491,13.491,0,0,0-9,3.3l-1.253-1.8a15.952,15.952,0,0,1,10.46-3.715C279.475,358.67,283.076,361.974,283.076,368.423Zm-2.484,8.842v-4.9h-8.91c-5.424,0-7.315,2.279-7.315,5.264,0,3.4,2.643,5.492,7.247,5.492a8.956,8.956,0,0,0,8.978-5.834Z" transform="translate(56.374 -62.882)"/>
        <path id="Path_2432" data-name="Path 2432" class="cls-8" d="M299.335,358.81l-11.8,26.138h-2.552L273.22,358.81h2.643l10.528,23.38L296.9,358.81Z" transform="translate(70.901 -62.817)"/>
        <path id="Path_2433" data-name="Path 2433" class="cls-8" d="M306.842,368.423V384.99h-2.279v-4.558a10,10,0,0,1-9.411,4.854c-5.857,0-9.411-2.985-9.411-7.452,0-3.942,2.507-7.315,9.753-7.315h8.978v-2.1c0-4.854-2.666-7.452-7.771-7.452a13.49,13.49,0,0,0-9,3.3l-1.253-1.8a15.951,15.951,0,0,1,10.46-3.715C303.241,358.67,306.842,361.974,306.842,368.423Zm-2.484,8.842v-4.9h-8.91c-5.4,0-7.315,2.279-7.315,5.264,0,3.4,2.643,5.492,7.247,5.492a8.956,8.956,0,0,0,8.978-5.834Z" transform="translate(86.912 -62.882)"/>
        <path id="Path_2434" data-name="Path 2434" class="cls-8" d="M299.18,356.291a2.051,2.051,0,0,1,2.051-2.051,2.028,2.028,0,1,1,0,4.056,2.005,2.005,0,0,1-2.051-2.005Zm.8,8.363h2.507v26.138h-2.507Z" transform="translate(104.099 -68.661)"/>
        <path id="Path_2435" data-name="Path 2435" class="cls-8" d="M305.26,354h2.507v37.144H305.26Z" transform="translate(111.874 -68.968)"/>
        <path id="Path_2436" data-name="Path 2436" class="cls-8" d="M331.112,368.423V384.99h-2.279v-4.558a10,10,0,0,1-9.411,4.854c-5.857,0-9.411-2.985-9.411-7.452,0-3.942,2.507-7.315,9.776-7.315h8.956v-2.1c0-4.854-2.666-7.452-7.771-7.452a13.491,13.491,0,0,0-9,3.3l-1.253-1.8a15.952,15.952,0,0,1,10.46-3.715C327.511,358.67,331.112,361.974,331.112,368.423Zm-2.484,8.842v-4.9h-8.91c-5.4,0-7.315,2.279-7.315,5.264,0,3.4,2.643,5.492,7.269,5.492a8.956,8.956,0,0,0,8.956-5.834Z" transform="translate(117.948 -62.882)"/>
        <path id="Path_2437" data-name="Path 2437" class="cls-8" d="M349.824,378.019A12.67,12.67,0,0,1,336.9,391.281a11.668,11.668,0,0,1-10.71-6.358V391.1H323.8V354h2.507v16.977a11.667,11.667,0,0,1,10.6-6.176,12.647,12.647,0,0,1,12.921,13.217Zm-2.507,0a10.551,10.551,0,1,0-10.551,11.029,10.414,10.414,0,0,0,10.551-11.029Z" transform="translate(135.583 -68.968)"/>
        <path id="Path_2438" data-name="Path 2438" class="cls-8" d="M338.63,354h2.484v37.144H338.63Z" transform="translate(154.547 -68.968)"/>
        <path id="Path_2439" data-name="Path 2439" class="cls-8" d="M367.982,372.137H345.513a11.166,11.166,0,0,0,19.415,6.836l1.459,1.664a12.488,12.488,0,0,1-9.867,4.239,12.807,12.807,0,0,1-13.445-13.263,12.533,12.533,0,0,1,25.067,0A1.385,1.385,0,0,0,367.982,372.137Zm-22.332-1.846H365.7a10.027,10.027,0,0,0-20.031,0Z" transform="translate(160.22 -62.472)"/>
        <path id="Path_2440" data-name="Path 2440" class="cls-8" d="M300.366,386c0,39.583-29.055,74.061-92.907,74.061-30.969,0-63.533-8.614-85.25-23.95l20.509-39.583c16.909,12.761,40.221,20.1,63.533,20.1,25.842,0,41.816-10.847,41.816-29.032,0-17.569-11.394-29.055-52.048-29.055h-57.2l11.394-125.79H286.534v41.5H193.4L189.89,316.7h18.23C274.183,316.7,300.366,346.392,300.366,386Zm21.056-41.52c0-73.742,40.859-115.558,95.71-115.558s95.709,41.816,95.709,115.558S472.3,460.058,417.132,460.058,321.422,418.242,321.422,344.478Zm139.508,0c0-50.749-17.866-71.828-43.73-71.828s-43.3,21.079-43.3,71.828,17.866,71.828,43.3,71.828S460.93,395.249,460.93,344.478Zm239.137,43.434c0,37.669-29.055,72.147-92.588,72.147-31.288,0-63.533-8.614-85.25-23.95l20.122-39.583c16.931,12.761,40.54,20.1,63.806,20.1,25.864,0,41.816-10.528,41.816-28.713,0-16.931-12.442-27.459-41.816-27.459H582.573V326.27l45.986-52.048h-95.14V232.748H689.858V266.27l-50.453,57.448C679.627,330.121,700.067,355.006,700.067,387.912Z" transform="translate(-122.21 -228.92)"/>
      </g>
      <g id="Character--inject-2" transform="translate(55.357 38.2)">
        <path id="Path_2441" data-name="Path 2441" class="cls-2" d="M325.92,94.2h0A7.93,7.93,0,0,1,328.4,83.282L341.325,75.1a7.93,7.93,0,0,1,10.961,2.484h0A7.93,7.93,0,0,1,349.8,88.546l-12.9,8.135A7.953,7.953,0,0,1,325.92,94.2Z" transform="translate(289.492 7.415)"/>
        <path id="Path_2442" data-name="Path 2442" class="cls-9" d="M384.2,195.642a90.672,90.672,0,0,0-22.446-22.378A331.251,331.251,0,0,0,326.3,154.9l-7.361-41.018A140.211,140.211,0,0,0,337.8,91.547c6.654-10.733,4.558-17.934.3-25.363s-10.163-2.621-11.052.775a75.943,75.943,0,0,0-1.185,10.824S321.9,50.438,319.6,44.216s-11.075-.228-10.3,1.846c0,0-2.643-7.771-8.09-7.862s-7,9.115-7,9.115-7-3.236-10.915.82-2.051,14.22-2.051,14.22S275,64.634,274.043,73.5s-.182,24.383,2.279,28.644a45.756,45.756,0,0,1,3.3,6.335c-3.1,37.008-2.985,34.569-3.9,49.336-.638,10.391,6.175,34.547,15.952,44.6s44.756,27.8,44.756,27.8S372.966,220.8,384.2,195.642Z" transform="translate(224.147 -38.2)"/>
        <g id="Group_8015" data-name="Group 8015" class="cls-10" transform="translate(497.792)">
          <path id="Path_2443" data-name="Path 2443" class="cls-11" d="M335.35,190.742s36.461-9.457,47.627-34.615c0,0-.729-1.071-2.028-2.78l-9.48-7.907a317.448,317.448,0,0,0-40.038,5.948c-20.008,4.558-35.572-5.2-41.5-27.346S278.54,69.1,278.54,69.1h0c-3.1,37.008-2.985,34.569-3.9,49.336-.638,10.391,6.175,34.547,15.952,44.6S335.35,190.742,335.35,190.742Z" transform="translate(-272.423 1.315)"/>
          <path id="Path_2444" data-name="Path 2444" class="cls-12" d="M335.35,190.742s36.461-9.457,47.627-34.615c0,0-.729-1.071-2.028-2.78l-9.48-7.907a317.448,317.448,0,0,0-40.038,5.948c-20.008,4.558-35.572-5.2-41.5-27.346S278.54,69.1,278.54,69.1h0c-3.1,37.008-2.985,34.569-3.9,49.336-.638,10.391,6.175,34.547,15.952,44.6S335.35,190.742,335.35,190.742Z" transform="translate(-272.423 1.315)"/>
        </g>
        <path id="Path_2446" data-name="Path 2446" class="cls-13" d="M384.2,195.642a90.672,90.672,0,0,0-22.446-22.378A331.251,331.251,0,0,0,326.3,154.9l-7.361-41.018A140.211,140.211,0,0,0,337.8,91.547c6.654-10.733,4.558-17.934.3-25.363s-10.163-2.621-11.052.775a75.943,75.943,0,0,0-1.185,10.824S321.9,50.438,319.6,44.216s-11.075-.228-10.3,1.846c0,0-2.643-7.771-8.09-7.862s-7,9.115-7,9.115-7-3.236-10.915.82-2.051,14.22-2.051,14.22S275,64.634,274.043,73.5s-.182,24.383,2.279,28.644a45.756,45.756,0,0,1,3.3,6.335c-3.1,37.008-2.985,34.569-3.9,49.336-.638,10.391,6.175,34.547,15.952,44.6s44.756,27.8,44.756,27.8S372.966,220.8,384.2,195.642Z" transform="translate(224.147 -38.2)"/>
        <path id="Path_2447" data-name="Path 2447" class="cls-2" d="M323.473,138.956l-4.558-25.067a140.22,140.22,0,0,0,18.868-22.332c6.654-10.733,4.558-17.934.3-25.363s-10.163-2.621-11.052.775a75.951,75.951,0,0,0-1.185,10.824s-3.965-27.346-6.267-33.567S308.5,44,309.276,46.072c0,0-2.643-7.771-8.09-7.862s-7,9.115-7,9.115-7-3.236-10.915.82-2.051,14.22-2.051,14.22-6.244,2.279-7.2,11.143-.182,24.383,2.279,28.644a45.756,45.756,0,0,1,3.3,6.335c-1.367,16.362-2.119,25.067-2.6,30.855Z" transform="translate(224.105 -38.187)"/>
        <path id="Path_2448" data-name="Path 2448" class="cls-2" d="M279.54,130.725a41.78,41.78,0,0,0,2.757,3.965c9.616-8.044,31.265-27.346,41.018-43.912-2.735-.866-4.558-1.367-4.558-1.367S298.614,115.821,279.54,130.725Z" transform="translate(231.668 27.39)"/>
        <path id="Path_2449" data-name="Path 2449" class="cls-13" d="M309.923,55.553s-21.535-.8-23.813,17.364" transform="translate(240.072 -16.015)"/>
        <line id="Line_227" data-name="Line 227" class="cls-13" x2="0.729" y2="22.902" transform="translate(533.426 7.817)"/>
        <line id="Line_228" data-name="Line 228" class="cls-13" x2="1.481" y2="20.714" transform="translate(518.331 9.161)"/>
        <line id="Line_229" data-name="Line 229" class="cls-13" x2="2.324" y2="12.921" transform="translate(505.356 24.201)"/>
        <path id="Path_2450" data-name="Path 2450" class="cls-13" d="M310.411,51.21S286.1,55.289,276.73,63.242" transform="translate(228.067 -21.562)"/>
        <path id="Path_2451" data-name="Path 2451" class="cls-8" d="M306.238,137.035c7.93-6.836,7.315-20.509-1.413-30.741-8.409-9.844-21.284-12.738-29.305-6.836,2.712,10.482,7.68,22.241,13.832,28.508a89.146,89.146,0,0,0,14.607,10.8,13.669,13.669,0,0,0,2.279-1.732Z" transform="translate(226.518 36.361)"/>
        <path id="Path_2452" data-name="Path 2452" class="cls-13" d="M306.238,137.035c7.93-6.836,7.315-20.509-1.413-30.741-8.409-9.844-21.284-12.738-29.305-6.836,2.712,10.482,7.68,22.241,13.832,28.508a89.146,89.146,0,0,0,14.607,10.8,13.669,13.669,0,0,0,2.279-1.732Z" transform="translate(226.518 36.361)"/>
        <path id="Path_2453" data-name="Path 2453" class="cls-9" d="M307.839,126.574s-10.186,1.071-13.4,3.828-27.665,23.677-31.63,36.073,11.1,49.5,27.551,63.806,37.008,29.465,54.463,26.343,37.509-30.012,39.583-37.327-66.222-91.152-66.222-91.152S313.331,123.27,307.839,126.574Z" transform="translate(209.456 73.544)"/>
        <g id="Group_8016" data-name="Group 8016" class="cls-14" transform="translate(471.625 198.97)">
          <path id="Path_2454" data-name="Path 2454" class="cls-11" d="M307.928,126.574s-2.005.205-4.558.684l2.279,3.851s-2.1,21.6,12.716,46.077,40.768,40.016,40.016,48.9,2.279,20.76-20.008,19.279-45.941-39.286-54.1-57.813c-4.239-9.639-7.885-24.269-12.055-35.595a47.65,47.65,0,0,0-9.48,14.516c-3.965,12.4,11.1,49.5,27.551,63.806s37.008,29.465,54.463,26.343,37.509-30.012,39.583-37.327-66.222-91.152-66.222-91.152S313.42,123.27,307.928,126.574Z" transform="translate(-262.258 -125.426)"/>
          <path id="Path_2455" data-name="Path 2455" class="cls-12" d="M307.928,126.574s-2.005.205-4.558.684l2.279,3.851s-2.1,21.6,12.716,46.077,40.768,40.016,40.016,48.9,2.279,20.76-20.008,19.279-45.941-39.286-54.1-57.813c-4.239-9.639-7.885-24.269-12.055-35.595a47.65,47.65,0,0,0-9.48,14.516c-3.965,12.4,11.1,49.5,27.551,63.806s37.008,29.465,54.463,26.343,37.509-30.012,39.583-37.327-66.222-91.152-66.222-91.152S313.42,123.27,307.928,126.574Z" transform="translate(-262.258 -125.426)"/>
        </g>
        <path id="Path_2457" data-name="Path 2457" class="cls-13" d="M307.839,126.574s-10.186,1.071-13.4,3.828-27.665,23.677-31.63,36.073,11.1,49.5,27.551,63.806,37.008,29.465,54.463,26.343,37.509-30.012,39.583-37.327-66.222-91.152-66.222-91.152S313.331,123.27,307.839,126.574Z" transform="translate(209.456 73.544)"/>
        <path id="Path_2458" data-name="Path 2458" class="cls-9" d="M370.544,104.665s-10.8-3.646-26.89,3.19S287.322,138.323,281.42,158.9c-3.9,13.513,38.74,76.613,65.379,87,7.155,2.78,13.673,5.811,28.325-6.13s45.371-45.1,53.415-59.7-4.558-25.5-8.773-31.9S381.847,99.834,370.544,104.665Z" transform="translate(233.8 45.707)"/>
        <g id="Group_8018" data-name="Group 8018" class="cls-15" transform="translate(514.971 149.4)">
          <path id="Path_2459" data-name="Path 2459" class="cls-8" d="M415.715,137.12l-27.779,8.842s-28.9,34.182-39.264,43-43-12.6-54.121-22.993l-3.281-3.054c13.285,18.048,29.807,35.276,42.614,40.289,7.155,2.78,13.673,5.811,28.325-6.13s45.371-45.1,53.415-59.7A.822.822,0,0,0,415.715,137.12Z" transform="translate(-268.255 -60.948)"/>
          <path id="Path_2460" data-name="Path 2460" class="cls-8" d="M373.03,176.791l14.949,1.937c6.631-13.946-5.218-24.383-9.389-30.627s-37.919-48.288-49.222-43.457a25.2,25.2,0,0,0-6.358-.934c-13.673,10.3-12.123,22.127.365,43.434S373.03,176.791,373.03,176.791Z" transform="translate(-239.995 -103.673)"/>
          <g id="Group_8017" data-name="Group 8017" class="cls-16" transform="translate(23.015 0.037)">
            <path id="Path_2461" data-name="Path 2461" class="cls-9" d="M415.715,137.12l-27.779,8.842s-28.9,34.182-39.264,43-43-12.6-54.121-22.993l-3.281-3.054c13.285,18.048,29.807,35.276,42.614,40.289,7.155,2.78,13.673,5.811,28.325-6.13s45.371-45.1,53.415-59.7A.822.822,0,0,0,415.715,137.12Z" transform="translate(-291.27 -60.985)"/>
            <path id="Path_2462" data-name="Path 2462" class="cls-9" d="M373.03,176.791l14.949,1.937c6.631-13.946-5.218-24.383-9.389-30.627s-37.919-48.288-49.222-43.457a25.2,25.2,0,0,0-6.358-.934c-13.673,10.3-12.123,22.127.365,43.434S373.03,176.791,373.03,176.791Z" transform="translate(-263.01 -103.71)"/>
          </g>
        </g>
        <path id="Path_2464" data-name="Path 2464" class="cls-13" d="M370.544,104.665s-10.8-3.646-26.89,3.19S287.322,138.323,281.42,158.9c-3.9,13.513,38.74,76.613,65.379,87,7.155,2.78,13.673,5.811,28.325-6.13s45.371-45.1,53.415-59.7-4.558-25.5-8.773-31.9S381.847,99.834,370.544,104.665Z" transform="translate(233.8 45.707)"/>
        <rect id="Rectangle_853" data-name="Rectangle 853" class="cls-2" width="73.742" height="62.94" rx="5.89" transform="matrix(0.589, 0.808, -0.808, 0.589, 580.929, 164.112)"/>
        <path id="Path_2465" data-name="Path 2465" class="cls-2" d="M1022.555,332.441c-34.09-88.873-119.371-87.893-194.6-86.959-25.926.319-50.416.638-72.968-2.279-76.092-9.617-97.846-87.779-98.051-88.873a5.437,5.437,0,0,0-10.512,2.78c.228.866,23.692,86.23,107.172,96.8,23.327,2.962,49.345,2.621,74.519,2.279,75.248-.934,152.914-1.914,184.313,79.963A112.586,112.586,0,0,1,992.023,448.91c-23.35,26.867-56.482,37.76-90.868,29.875-32.448-7.452-64.508-17.706-95.52-27.619-51.328-16.407-104.39-33.384-160.712-38.1-96.569-8.113-163.745,38.9-241.456,93.294-15.643,10.961-31.81,22.264-48.752,33.521l-9.645,6.426c-48.09,32.085-97.8,65.265-154.054,71.258-43.735,4.558-88.2-15.815-110.706-50.931a85.956,85.956,0,0,1-12.085-65.356,72.355,72.355,0,0,1,34.318-46.282c29.119-17.342,80.561-23.107,124.433-18.23l.753-10.824c-46.038-4.9-99.761,1.39-130.75,19.826a84.115,84.115,0,0,0-39.334,53.21,96.775,96.775,0,0,0,13.5,73.879c22.574,35.253,63.414,56.56,106.761,56.628a136.367,136.367,0,0,0,14.252-.752c58.9-6.267,112.052-41.725,158.911-72.921l9.623-6.426c17.079-11.394,33.292-22.788,48.98-33.658,76-53.21,141.626-99.173,234.319-91.38,55.091,4.558,107.559,21.4,158.3,37.623,31.24,9.981,63.528,20.3,96.409,27.847,38.445,8.819,75.431-3.327,101.517-33.316A123.518,123.518,0,0,0,1022.555,332.441Z" transform="translate(-55.357 105.738)"/>
        <path id="Path_2466" data-name="Path 2466" class="cls-17" d="M321.712,125.216a7.406,7.406,0,1,1-7.406-7.406A7.406,7.406,0,0,1,321.712,125.216Z" transform="translate(266.686 63.758)"/>
        <path id="Path_2467" data-name="Path 2467" class="cls-17" d="M312.892,132.623a7.406,7.406,0,1,1-7.383-7.383,7.406,7.406,0,0,1,7.383,7.383Z" transform="translate(255.394 73.273)"/>
        <circle id="Ellipse_161" data-name="Ellipse 161" class="cls-9" cx="60.388" cy="60.388" r="60.388" transform="translate(578.648 108.399) rotate(-16.2)"/>
        <g id="Group_8019" data-name="Group 8019" class="cls-18" transform="translate(578.648 74.704)">
          <path id="Path_2468" data-name="Path 2468" class="cls-11" d="M420.409,90.426a61.528,61.528,0,0,0-6.836-6.836,60.32,60.32,0,0,1-97.122,62.462A60.365,60.365,0,1,0,420.409,90.426Z" transform="translate(-299.685 -54.858)"/>
          <path id="Path_2469" data-name="Path 2469" class="cls-12" d="M420.409,90.426a61.528,61.528,0,0,0-6.836-6.836,60.32,60.32,0,0,1-97.122,62.462A60.365,60.365,0,1,0,420.409,90.426Z" transform="translate(-299.685 -54.858)"/>
        </g>
        <circle id="Ellipse_163" data-name="Ellipse 163" class="cls-13" cx="60.388" cy="60.388" r="60.388" transform="translate(578.648 108.399) rotate(-16.2)"/>
        <line id="Line_230" data-name="Line 230" class="cls-13" y1="15.04" x2="17.592" transform="translate(707.12 176.368)"/>
        <path id="Path_2470" data-name="Path 2470" class="cls-6" d="M379.532,120.95a4.647,4.647,0,1,0-6.552-.513,4.647,4.647,0,0,0,6.552.513Z" transform="translate(349.857 57.303)"/>
        <path id="Path_2471" data-name="Path 2471" class="cls-2" d="M357.067,143.047h0a7.93,7.93,0,0,1,.889-11.189l11.576-9.936a7.976,7.976,0,0,1,11.212.889h0A7.93,7.93,0,0,1,379.877,134l-11.6,9.936A7.953,7.953,0,0,1,357.067,143.047Z" transform="translate(328.486 66.602)"/>
        <path id="Path_2472" data-name="Path 2472" class="cls-9" d="M400.307,135.122s-23.449-6.335-32.678,11.28,1.185,61.527,1.185,61.527-17.137,27.847-21.489,30.878-16.612,1.709-28.69,7.862-8.09,12.465-4.877,14.584,13.058-4.216,15.952-3.988,2.575,5.446-8.819,17.273-16.612,12.123-13.354,17.592a8.409,8.409,0,0,0,9.115,4.079,5.857,5.857,0,0,0,3.19,7c4.694,2.279,6.7.524,6.7.524s-.456,5.948,3.9,7.771a18.526,18.526,0,0,0,10.46,0s4.125,4.831,8.295,4.033,13.673-12.419,21.193-22.309,36.461-45.052,47.855-66.609,5.993-43.3,3.669-56.583S409.057,138.039,400.307,135.122Z" transform="translate(266.322 84.565)"/>
        <g id="Group_8020" data-name="Group 8020" class="cls-19" transform="translate(572.902 218.578)">
          <path id="Path_2473" data-name="Path 2473" class="cls-11" d="M410.724,169.556c-2.279-13.285-12.852-32.063-21.6-34.98l-.547-.137a128.318,128.318,0,0,1,9.366,60.867c-2.962,37.782-37.623,67.589-48.174,78.55-8.454,8.8-19.1,21.124-34.433,30.24a7.406,7.406,0,0,0,3.9,6.836,18.527,18.527,0,0,0,10.46,0s4.125,4.831,8.295,4.033,13.673-12.419,21.193-22.309,36.461-45.052,47.855-66.609S413.048,182.842,410.724,169.556Z" transform="translate(-295.395 -133.468)"/>
          <path id="Path_2474" data-name="Path 2474" class="cls-12" d="M410.724,169.556c-2.279-13.285-12.852-32.063-21.6-34.98l-.547-.137a128.318,128.318,0,0,1,9.366,60.867c-2.962,37.782-37.623,67.589-48.174,78.55-8.454,8.8-19.1,21.124-34.433,30.24a7.406,7.406,0,0,0,3.9,6.836,18.527,18.527,0,0,0,10.46,0s4.125,4.831,8.295,4.033,13.673-12.419,21.193-22.309,36.461-45.052,47.855-66.609S413.048,182.842,410.724,169.556Z" transform="translate(-295.395 -133.468)"/>
        </g>
        <path id="Path_2476" data-name="Path 2476" class="cls-13" d="M400.307,135.122s-23.449-6.335-32.678,11.28,1.185,61.527,1.185,61.527-17.137,27.847-21.489,30.878-16.612,1.709-28.69,7.862-8.09,12.465-4.877,14.584,13.058-4.216,15.952-3.988,2.575,5.446-8.819,17.273-16.612,12.123-13.354,17.592a8.409,8.409,0,0,0,9.115,4.079,5.857,5.857,0,0,0,3.19,7c4.694,2.279,6.7.524,6.7.524s-.456,5.948,3.9,7.771a18.526,18.526,0,0,0,10.46,0s4.125,4.831,8.295,4.033,13.673-12.419,21.193-22.309,36.461-45.052,47.855-66.609,5.993-43.3,3.669-56.583S409.057,138.039,400.307,135.122Z" transform="translate(266.322 84.565)"/>
        <path id="Path_2477" data-name="Path 2477" class="cls-13" d="M349.17,264.75c4.17-.8,13.673-12.419,21.193-22.309,4.261-5.583,15.382-19.279,26.3-34.022-7.315-25.067-28.964-32.564-38.6-34.638-4.352,6.517-8.819,12.761-10.733,14.106-4.352,3.031-16.612,1.709-28.69,7.862s-8.09,12.465-4.877,14.584,13.058-4.216,15.952-3.988,2.575,5.446-8.819,17.273-16.612,12.192-13.354,17.661a8.409,8.409,0,0,0,9.115,4.079,5.857,5.857,0,0,0,3.19,7c4.694,2.279,6.7.524,6.7.524s-.456,5.948,3.9,7.771a18.526,18.526,0,0,0,10.46,0S345,265.547,349.17,264.75Z" transform="translate(266.308 135.47)"/>
        <path id="Path_2478" data-name="Path 2478" class="cls-13" d="M311,215.318a76.522,76.522,0,0,0,22.788-18.048" transform="translate(271.938 165.524)"/>
        <path id="Path_2479" data-name="Path 2479" class="cls-13" d="M315.33,218.784a74.836,74.836,0,0,0,23.882-18.344" transform="translate(277.482 169.584)"/>
        <path id="Path_2480" data-name="Path 2480" class="cls-13" d="M321.63,221.994s13.126-9.822,19.37-17.934" transform="translate(285.546 174.22)"/>
        <path id="Path_2481" data-name="Path 2481" class="cls-2" d="M389.147,177.169c.479-1.732.843-3.464,1.162-5.173-19.1-12.738-43.16-8.568-55.99-4.854.41,1.983.684,3.145.684,3.145l-1.983,3.19C363.693,166.071,380.6,171.608,389.147,177.169Z" transform="translate(300.146 122.14)"/>
        <path id="Path_2482" data-name="Path 2482" class="cls-17" d="M354.892,195.139a23.2,23.2,0,0,0,5.97,4.968c.934-1.618,1.823-3.167,2.621-4.558a65.447,65.447,0,0,0,6.654-37.1,21.74,21.74,0,0,0-13.149,5.173A22.423,22.423,0,0,0,354.892,195.139Z" transform="translate(321.101 115.815)"/>
        <path id="Path_2483" data-name="Path 2483" class="cls-9" d="M325.559,175.485s9.48,27.346,21.671,29.374,29.146-18.663,32.587-34.182-8.659-28.006-26.161-43.593-42.591-24.657-63.806-12.83-52.572,45.576-52.572,45.576-19.62-17.25-30.035-8.34,3.168,36.165,12.761,47.4S247.1,226.6,263.9,222.679s30.1-35.435,41.018-44.71S323.144,172.682,325.559,175.485Z" transform="translate(134.343 52.301)"/>
        <g id="Group_8021" data-name="Group 8021" class="cls-20" transform="translate(337.838 161.149)">
          <path id="Path_2484" data-name="Path 2484" class="cls-11" d="M348.618,162.609c-18.527-8.887-13.331-31.128-31.9-37.053s-17.045,6.677-31.9,30.4-42.249,22.218-60.776,16.293a182.053,182.053,0,0,1-17.3-6.586,77.959,77.959,0,0,0,9.115,13.923c9.594,11.234,27.026,27.551,43.8,23.631s30.1-35.435,41.018-44.71,18.367-5.287,20.76-2.484c0,0,9.48,27.346,21.671,29.374s29.146-18.663,32.587-34.182a23.608,23.608,0,0,0,.433-7.748l-.866-.182S367.076,171.473,348.618,162.609Z" transform="translate(-199.344 -89.34)"/>
          <path id="Path_2485" data-name="Path 2485" class="cls-12" d="M348.618,162.609c-18.527-8.887-13.331-31.128-31.9-37.053s-17.045,6.677-31.9,30.4-42.249,22.218-60.776,16.293a182.053,182.053,0,0,1-17.3-6.586,77.959,77.959,0,0,0,9.115,13.923c9.594,11.234,27.026,27.551,43.8,23.631s30.1-35.435,41.018-44.71,18.367-5.287,20.76-2.484c0,0,9.48,27.346,21.671,29.374s29.146-18.663,32.587-34.182a23.608,23.608,0,0,0,.433-7.748l-.866-.182S367.076,171.473,348.618,162.609Z" transform="translate(-199.344 -89.34)"/>
        </g>
        <path id="Path_2487" data-name="Path 2487" class="cls-13" d="M325.559,175.485s9.48,27.346,21.671,29.374,29.146-18.663,32.587-34.182-8.659-28.006-26.161-43.593-42.591-24.657-63.806-12.83-52.572,45.576-52.572,45.576-19.62-17.25-30.035-8.34,3.168,36.165,12.761,47.4S247.1,226.6,263.9,222.679s30.1-35.435,41.018-44.71S323.144,172.682,325.559,175.485Z" transform="translate(134.343 52.301)"/>
        <path id="Path_2488" data-name="Path 2488" class="cls-13" d="M265.748,119.18c-15.131,13.263-28.439,27.6-28.439,27.6s-19.62-17.25-30.035-8.34,3.168,36.164,12.761,47.4,27.026,27.551,43.821,23.631c15.131-3.532,27.346-29.624,37.646-41.36a202.336,202.336,0,0,1-35.754-48.926Z" transform="translate(134.358 65.531)"/>
        <path id="Path_2489" data-name="Path 2489" class="cls-13" d="M256.146,109.192a51.408,51.408,0,0,0-5.606-.342,158.467,158.467,0,0,1,3.737,63.806,12.761,12.761,0,0,1,5.583-.228C261.114,156.272,262.048,129.5,256.146,109.192Z" transform="translate(194.528 52.292)"/>
        <path id="Path_2490" data-name="Path 2490" class="cls-17" d="M277.128,144.388a20.031,20.031,0,1,1,7-13.656A20.031,20.031,0,0,1,277.128,144.388Z" transform="translate(186.33 52.596)"/>
        <path id="Path_2491" data-name="Path 2491" class="cls-13" d="M263.849,199.581a25.066,25.066,0,0,0,10.619-6.107c-10.733,1.777-30.559,1.185-48.584-20.509-17.547-21.056-17.843-37.441-16.111-46.054a11.1,11.1,0,0,0-2.484,1.572c-10.437,8.91,3.168,36.165,12.761,47.4S247.055,203.5,263.849,199.581Z" transform="translate(134.358 75.427)"/>
        <path id="Path_2492" data-name="Path 2492" class="cls-9" d="M330.616,210.92s27.733,8.158,36.461-.547S377.1,175.211,358.235,164c-13.673-8.067-27.824-9.115-50.68-4.011s-44.8,20.35-47.467,44.414,6.609,69.321,6.609,69.321-25.409,5.948-24.224,19.62,31.288,18.435,45.986,17.137,38.147-5.993,44.687-21.922-11.394-45.075-12.625-59.249S326.948,211.239,330.616,210.92Z" transform="translate(184.188 113.839)"/>
        <g id="Group_8022" data-name="Group 8022" class="cls-21" transform="translate(426.62 270.711)">
          <path id="Path_2493" data-name="Path 2493" class="cls-11" d="M329.827,197.969s27.733,8.158,36.461-.547c5.7-5.674,8.181-18.823,4.056-30.422h0s2.279,11.873-14.083,14.835-42.978-2.962-54.828,11.85,5.173,45.211,6.654,65.219-3.008,26.594-23.016,28.872-37.9-12.078-42.021-3.373c6.13,10.551,31.516,14.242,44.664,13.08,14.721-1.3,38.147-5.993,44.687-21.922s-11.394-45.075-12.625-59.249S326.158,198.288,329.827,197.969Z" transform="translate(-241.643 -143.921)"/>
          <path id="Path_2494" data-name="Path 2494" class="cls-12" d="M329.827,197.969s27.733,8.158,36.461-.547c5.7-5.674,8.181-18.823,4.056-30.422h0s2.279,11.873-14.083,14.835-42.978-2.962-54.828,11.85,5.173,45.211,6.654,65.219-3.008,26.594-23.016,28.872-37.9-12.078-42.021-3.373c6.13,10.551,31.516,14.242,44.664,13.08,14.721-1.3,38.147-5.993,44.687-21.922s-11.394-45.075-12.625-59.249S326.158,198.288,329.827,197.969Z" transform="translate(-241.643 -143.921)"/>
        </g>
        <path id="Path_2496" data-name="Path 2496" class="cls-13" d="M330.616,210.92s27.733,8.158,36.461-.547S377.1,175.211,358.235,164c-13.673-8.067-27.824-9.115-50.68-4.011s-44.8,20.35-47.467,44.414,6.609,69.321,6.609,69.321-25.409,5.948-24.224,19.62,31.288,18.435,45.986,17.137,38.147-5.993,44.687-21.922-11.394-45.075-12.625-59.249S326.948,211.239,330.616,210.92Z" transform="translate(184.188 113.839)"/>
        <path id="Path_2497" data-name="Path 2497" class="cls-13" d="M260.791,191.384c2.005,20.031,5.925,39.173,5.925,39.173s-25.409,5.948-24.224,19.62,31.288,18.435,45.986,17.137,38.147-5.993,44.687-21.922c5.9-14.379-8.067-39.469-11.8-54.691a201.787,201.787,0,0,1-60.57.684Z" transform="translate(184.2 157.136)"/>
        <path id="Path_2498" data-name="Path 2498" class="cls-13" d="M257.049,167.06a49.663,49.663,0,0,0-3.509,4.353,159.243,159.243,0,0,1,54.03,33.977,12.694,12.694,0,0,1,3.054-4.558C298.3,190.235,277.034,173.919,257.049,167.06Z" transform="translate(198.384 126.841)"/>
        <circle id="Ellipse_164" data-name="Ellipse 164" class="cls-17" cx="20.053" cy="20.053" r="20.053" transform="translate(446.664 292.66) rotate(-17.46)"/>
        <path id="Path_2499" data-name="Path 2499" class="cls-13" d="M333.162,221.5a24.816,24.816,0,0,0,1.185-12.192c-4.786,9.776-16.772,25.568-44.847,27.665-27.346,2.051-40.859-7.224-46.829-13.673a10.437,10.437,0,0,0-.182,2.94c1.208,13.673,31.288,18.435,45.986,17.137S326.622,237.43,333.162,221.5Z" transform="translate(184.204 180.951)"/>
        <path id="Path_2500" data-name="Path 2500" class="cls-22" d="M392.767,106.882A213.705,213.705,0,0,1,376.428,82a51.478,51.478,0,1,0,44.459,55.284,208.054,208.054,0,0,1-28.12-30.4Z" transform="translate(281.074 17.222)"/>
        <path id="Path_2501" data-name="Path 2501" class="cls-9" d="M368.829,129.1a16.544,16.544,0,1,1,1.026-22.583,15.952,15.952,0,0,1-1.026,22.583Z" transform="translate(310.005 41.866)"/>
        <path id="Path_2502" data-name="Path 2502" class="cls-9" d="M350.221,101.252a4.922,4.922,0,1,1,.524-6.836A4.922,4.922,0,0,1,350.221,101.252Z" transform="translate(311.672 31.42)"/>
        <rect id="Rectangle_854" data-name="Rectangle 854" class="cls-6" width="14.698" height="21.238" transform="translate(160.159 524.671) rotate(5.62)"/>
      </g>
    </g>
  </g>
</svg>
