<svg xmlns="http://www.w3.org/2000/svg" xmlns:xlink="http://www.w3.org/1999/xlink" width="975" height="781.442" viewBox="0 0 975 781.442">
  <defs>
    <clipPath id="clip-path">
      <path id="Path_2570" data-name="Path 2570" d="M235.075,289.735S89.821,333.741,89.821,341.995s-4.16,170.993-.845,180.2,30.724,18.243,45.674,18.243v3.337H453.388l-15.729-88.011s89.657-3.337,91.214-9.967-78.645-139.4-86.12-143.585S321.417,285.6,308.135,285.6,266.621,279.7,235.075,289.735Z" transform="translate(-87.694 -283.877)" fill="#92e3a9" stroke="#263238" stroke-linecap="round" stroke-linejoin="round" stroke-width="1.177"/>
    </clipPath>
    <clipPath id="clip-path-2">
      <path id="Path_2578" data-name="Path 2578" d="M148.72,294.119s11.613,29.055,24.072,53.95,42.27,59.779,49.812,52.3,14.928-65.585,14.928-78.867V281.66s-23.226,19.088-41.491,19.088S148.72,294.119,148.72,294.119Z" transform="translate(-148.72 -281.66)" fill="#fff" stroke="#263238" stroke-linecap="round" stroke-linejoin="round" stroke-width="1.177"/>
    </clipPath>
    <clipPath id="clip-path-3">
      <path id="Path_2596" data-name="Path 2596" d="M180.779,262.26s-20.757,37.353-17.442,43.16,36.53,41.514,36.53,41.514S105.226,488.049,96.1,502.154s-10.79,34.862-6.674,46.5,29.055,22.4,46.5,21.58,30.7-22.425,35.6-42.27,49.923-166.166,54.083-177.712,9.945-20.757,4.138-26.563-28.21-27.387-28.21-27.387,6.674-5.807,5.807-12.459S192.392,263.906,180.779,262.26Z" transform="translate(-87.304 -262.26)" fill="#fff" stroke="#263238" stroke-linecap="round" stroke-linejoin="round" stroke-width="1.177"/>
    </clipPath>
    <clipPath id="clip-path-4">
      <path id="Path_2603" data-name="Path 2603" d="M238.048,334.708s-65.585,53.972-74.707,58.933-4.983,14.127-1.669,17.442,24.895,23.249,34.862,29.878,24.072-4.983,27.387-6.674-.823-9.144-.823-9.144,25.74-14.1,29.878-27.387a149.946,149.946,0,0,0,4.983-31.547s104.563,42.27,129.5,51.458,40.668,9.967,52.3-1.646,12.436-35.707,6.674-48.143-42.27-24.072-58.933-24.072S253.02,329.681,245.568,332.172Z" transform="translate(-157.799 -331.878)" fill="#fff" stroke="#263238" stroke-linecap="round" stroke-linejoin="round" stroke-width="1.177"/>
    </clipPath>
  </defs>
  <g id="_504_Error_Gateway_Timeout-bro" data-name="504 Error Gateway Timeout-bro" transform="translate(-27.75 -75.928)">
    <g id="background-simple--inject-2" transform="translate(91.62 75.928)">
      <path id="Path_2503" data-name="Path 2503" d="M57.923,567.089S73.593,703.7,189.709,762.064s229.84,1.594,334.224-12.084c54.671-7.17,105.38,19.719,159.011,25.34,171.428,17.993,305.981-184,281.833-332.587-20.895-128.648-103.1-219.43-252.9-284.23S459.036,42.182,285.04,103.176,45.527,390.217,57.923,567.089Z" transform="translate(-56.459 -75.928)" fill="#8167f2"/>
      <path id="Path_2504" data-name="Path 2504" d="M57.923,567.089S73.593,703.7,189.709,762.064s229.84,1.594,334.224-12.084c54.671-7.17,105.38,19.719,159.011,25.34,171.428,17.993,305.981-184,281.833-332.587-20.895-128.648-103.1-219.43-252.9-284.23S459.036,42.182,285.04,103.176,45.527,390.217,57.923,567.089Z" transform="translate(-56.459 -75.928)" fill="#fff" opacity="0.8"/>
    </g>
    <g id="Clock--inject-2" transform="translate(448.583 191.087)">
      <circle id="Ellipse_165" data-name="Ellipse 165" cx="98.556" cy="98.556" r="98.556" transform="translate(0 19.613) rotate(-5.711)" stroke-width="1.183" stroke="#263238" stroke-linecap="round" stroke-linejoin="round" fill="none"/>
      <circle id="Ellipse_166" data-name="Ellipse 166" cx="81.27" cy="81.27" r="81.27" transform="translate(11.08 39.92) rotate(-9.13)" stroke-width="1.177" stroke="#263238" stroke-linecap="round" stroke-linejoin="round" fill="none"/>
      <path id="Path_2505" data-name="Path 2505" d="M241.61,175.91h51.836v74.8" transform="translate(-189.246 -68.635)" fill="none" stroke="#263238" stroke-linecap="round" stroke-linejoin="round" stroke-width="1.177"/>
    </g>
    <g id="Plants--inject-2" transform="translate(27.75 185.723)">
      <path id="Path_2506" data-name="Path 2506" d="M126.8,185.771s0-13.148-18.421-31.569S78.145,125.28,78.145,125.28s-9.21,30.234,7.876,48.655a323.186,323.186,0,0,0,40.779,35.6Z" transform="translate(30.935 -125.28)" fill="#64b4d2"/>
      <path id="Path_2507" data-name="Path 2507" d="M114.79,222.691s0-13.148-18.421-31.569S66.135,162.2,66.135,162.2s-9.21,30.234,7.876,48.655a325.28,325.28,0,0,0,40.78,35.6Z" transform="translate(16.226 -80.063)" fill="#64b4d2"/>
      <path id="Path_2508" data-name="Path 2508" d="M99.514,192.828s1.379-13.081,21.647-29.456,33.126-25.562,33.126-25.562,5.962,31.146-12.992,47.543A322.584,322.584,0,0,1,97,216.366Z" transform="translate(57.064 -109.934)" fill="#64b4d2"/>
      <path id="Path_2509" data-name="Path 2509" d="M86.314,233.1s2.759-12.859,24.606-27.008,35.6-21.958,35.6-21.958,2.67,31.5-17.8,45.941a323.456,323.456,0,0,1-47.3,26.163Z" transform="translate(37.983 -54.11)" fill="#64b4d2"/>
      <path id="Path_2510" data-name="Path 2510" d="M86.35,286.958s0-13.148,18.4-31.547,30.256-28.922,30.256-28.922,9.21,30.257-7.9,48.655a322.053,322.053,0,0,1-40.757,35.6Z" transform="translate(44.021 -2.918)" fill="#64b4d2"/>
      <path id="Path_2511" data-name="Path 2511" d="M111.12,302.059s1.869-13.015-13.749-33.861S71.542,235.25,71.542,235.25s-13.348,28.632.912,49.3a323.855,323.855,0,0,0,35.307,40.935Z" transform="translate(18.939 7.653)" fill="#64b4d2"/>
      <path id="Path_2512" data-name="Path 2512" d="M78.05,332.948s0-13.148,18.4-31.547,30.256-28.922,30.256-28.922,9.21,30.256-7.9,48.655a322.057,322.057,0,0,1-40.757,35.6Z" transform="translate(33.855 52.684)" fill="#64b4d2"/>
      <path id="Path_2513" data-name="Path 2513" d="M83.775,369.836S80.46,357.11,93.63,334.6,115.566,299,115.566,299s16.552,26.942,4.694,49.078A323.747,323.747,0,0,1,89.8,392.751Z" transform="translate(40.411 84.696)" fill="#64b4d2"/>
      <path id="Path_2514" data-name="Path 2514" d="M126.047,151A375.517,375.517,0,0,1,121,191.824c-7.275,37.6-25.473,61.87-32.748,95.82S101.864,365.376,96.28,409,73.7,476.88,78.482,506,108.8,613.946,108.8,613.946" transform="translate(33.357 -93.78)" fill="none" stroke="#263238" stroke-linecap="round" stroke-linejoin="round" stroke-width="1.177"/>
      <line id="Line_231" data-name="Line 231" y1="15.239" x2="19.845" transform="translate(156.4 76.398)" fill="none" stroke="#263238" stroke-linecap="round" stroke-linejoin="round" stroke-width="1.177"/>
      <line id="Line_232" data-name="Line 232" x1="8.298" y1="14.772" transform="translate(149.014 59.334)" fill="none" stroke="#263238" stroke-linecap="round" stroke-linejoin="round" stroke-width="1.177"/>
      <path id="Path_2515" data-name="Path 2515" d="M82.91,225.4s16.6-12.459,33.683-24.917" transform="translate(39.808 -34.244)" fill="none" stroke="#263238" stroke-linecap="round" stroke-linejoin="round" stroke-width="1.177"/>
      <path id="Path_2516" data-name="Path 2516" d="M102.892,224.85S89.054,197.708,73.37,179.71" transform="translate(28.124 -59.415)" fill="none" stroke="#263238" stroke-linecap="round" stroke-linejoin="round" stroke-width="1.177"/>
      <path id="Path_2517" data-name="Path 2517" d="M86.64,288.24a206.01,206.01,0,0,1,35.6-47.52" transform="translate(44.376 14.404)" fill="none" stroke="#263238" stroke-linecap="round" stroke-linejoin="round" stroke-width="1.177"/>
      <path id="Path_2518" data-name="Path 2518" d="M101.222,298.108a233.8,233.8,0,0,0-18-34.216C73.524,249.587,72.1,247.74,72.1,247.74" transform="translate(26.568 22.89)" fill="none" stroke="#263238" stroke-linecap="round" stroke-linejoin="round" stroke-width="1.177"/>
      <path id="Path_2519" data-name="Path 2519" d="M78.05,341.161A220.365,220.365,0,0,1,93,310.9a194.557,194.557,0,0,1,19.377-25.384" transform="translate(33.855 68.579)" fill="none" stroke="#263238" stroke-linecap="round" stroke-linejoin="round" stroke-width="1.177"/>
      <path id="Path_2520" data-name="Path 2520" d="M86.407,377.982s-1.936-15.751,4.983-29.122,14.75-30.924,18-37.821" transform="translate(43.786 99.395)" fill="none" stroke="#263238" stroke-linecap="round" stroke-linejoin="round" stroke-width="1.177"/>
      <path id="Path_2521" data-name="Path 2521" d="M44.5,255.249s-1.446-8.232,8.12-21.78S68.441,212,68.441,212s9.055,17.954.334,31.369a205.541,205.541,0,0,1-21.714,26.7Z" transform="translate(-7.327 -20.372)" fill="#64b4d2"/>
      <path id="Path_2522" data-name="Path 2522" d="M56.043,277.087s-1.446-8.254,8.1-21.8,15.84-21.424,15.84-21.424,9.055,17.976.334,31.369a204.8,204.8,0,0,1-21.713,26.7Z" transform="translate(6.807 6.073)" fill="#64b4d2"/>
      <path id="Path_2523" data-name="Path 2523" d="M68.085,253.426s-2.225-8.054-16.775-16.107S27.75,224.86,27.75,224.86s-.356,20.023,13.348,28.432a207.132,207.132,0,0,0,31.146,14.617Z" transform="translate(-27.75 -4.775)" fill="#64b4d2"/>
      <path id="Path_2524" data-name="Path 2524" d="M83.445,276.748s-3.137-7.764-18.376-14.261S40.33,252.61,40.33,252.61s1.758,20.023,16.218,26.853a206.591,206.591,0,0,0,32.5,11.28Z" transform="translate(-12.342 28.822)" fill="#64b4d2"/>
      <path id="Path_2525" data-name="Path 2525" d="M83.685,311.549s-1.424-8.254-14.972-17.8S46.6,278.89,46.6,278.89s-2.492,20.023,10.234,29.656a205.4,205.4,0,0,0,29.411,17.8Z" transform="translate(-4.906 60.591)" fill="#64b4d2"/>
      <path id="Path_2526" data-name="Path 2526" d="M64.735,326.256s-2.581-7.965,4.939-22.715S82.311,280.07,82.311,280.07s11.5,16.508,4.783,31.013a206.3,206.3,0,0,1-17.8,29.5Z" transform="translate(17.025 61.965)" fill="#64b4d2"/>
      <path id="Path_2527" data-name="Path 2527" d="M75.833,349.836s.957-8.32,13.927-18.621,21.224-16.085,21.224-16.085,3.626,19.778-8.521,30.19A207.122,207.122,0,0,1,74.12,364.809Z" transform="translate(29.042 104.431)" fill="#64b4d2"/>
      <path id="Path_2528" data-name="Path 2528" d="M93.863,339.489s-1.424-8.254-14.973-17.8S56.8,306.83,56.8,306.83s-2.492,20.023,10.212,29.656a205.01,205.01,0,0,0,29.433,17.8Z" transform="translate(7.586 94.399)" fill="#64b4d2"/>
      <path id="Path_2529" data-name="Path 2529" d="M89.952,364.244s.712-8.343-9.967-21-17.62-20.023-17.62-20.023-7.475,18.688,2.38,31.28a206.9,206.9,0,0,0,23.938,24.761Z" transform="translate(11.32 114.186)" fill="#64b4d2"/>
      <path id="Path_2530" data-name="Path 2530" d="M43.82,230.57a237.3,237.3,0,0,0,7.609,25.073c8.632,22.781,22.67,36.018,30.924,56.531s0,50.212,8.143,76.954,21.535,40.045,21.647,58.911-7.3,70.991-7.3,70.991" transform="translate(-8.068 -0.067)" fill="none" stroke="#263238" stroke-linecap="round" stroke-linejoin="round" stroke-width="1.177"/>
      <line id="Line_233" data-name="Line 233" x1="14.083" y1="7.386" transform="translate(27.298 246.636)" fill="none" stroke="#263238" stroke-linecap="round" stroke-linejoin="round" stroke-width="1.177"/>
      <line id="Line_234" data-name="Line 234" y1="10.167" x2="3.604" transform="translate(38.912 233.054)" fill="none" stroke="#263238" stroke-linecap="round" stroke-linejoin="round" stroke-width="1.177"/>
      <path id="Path_2531" data-name="Path 2531" d="M73.877,273.449S62.108,267.442,50.05,261.48" transform="translate(-0.437 39.643)" fill="none" stroke="#263238" stroke-linecap="round" stroke-linejoin="round" stroke-width="1.177"/>
      <path id="Path_2532" data-name="Path 2532" d="M57.15,277.342a169.236,169.236,0,0,1,13.615-31.5" transform="translate(8.258 20.649)" fill="none" stroke="#263238" stroke-linecap="round" stroke-linejoin="round" stroke-width="1.177"/>
      <path id="Path_2533" data-name="Path 2533" d="M79,313.151A130.746,130.746,0,0,0,51.55,287.21" transform="translate(1.4 70.746)" fill="none" stroke="#263238" stroke-linecap="round" stroke-linejoin="round" stroke-width="1.177"/>
      <path id="Path_2534" data-name="Path 2534" d="M65.7,323.026a147.613,147.613,0,0,1,7.564-23.36c4.449-10.034,5.206-11.346,5.206-11.346" transform="translate(18.73 72.054)" fill="none" stroke="#263238" stroke-linecap="round" stroke-linejoin="round" stroke-width="1.177"/>
      <path id="Path_2535" data-name="Path 2535" d="M74.25,348.094s9.322-11.435,15.15-15.729a81.692,81.692,0,0,0,9.833-8.565" transform="translate(29.201 115.048)" fill="none" stroke="#263238" stroke-linecap="round" stroke-linejoin="round" stroke-width="1.177"/>
      <path id="Path_2536" data-name="Path 2536" d="M89.7,345.479a141.652,141.652,0,0,0-12.659-17.353A124.2,124.2,0,0,0,62.14,314.31" transform="translate(14.37 103.528)" fill="none" stroke="#263238" stroke-linecap="round" stroke-linejoin="round" stroke-width="1.177"/>
      <path id="Path_2537" data-name="Path 2537" d="M84.629,370.2a35.885,35.885,0,0,0-6.274-17.8c-5.807-7.653-12.637-17.8-15.4-21.78" transform="translate(15.374 123.227)" fill="none" stroke="#263238" stroke-linecap="round" stroke-linejoin="round" stroke-width="1.177"/>
      <path id="Path_2538" data-name="Path 2538" d="M156.488,455.185H72.637a6.252,6.252,0,0,1-6.252-6.252L54.35,356.14H174.775l-12.036,92.794a6.252,6.252,0,0,1-6.252,6.252Z" transform="translate(4.829 153.724)" fill="#64b4d2"/>
      <path id="Path_2539" data-name="Path 2539" d="M178.9,373.525H59.543a9.433,9.433,0,0,1-9.433-9.344h0a9.411,9.411,0,0,1,9.433-9.411H178.9a9.411,9.411,0,0,1,9.433,9.411h0A9.433,9.433,0,0,1,178.9,373.525Z" transform="translate(-0.364 152.046)" fill="#64b4d2"/>
    </g>
    <g id="Device--inject-2" transform="translate(509.279 464.347)">
      <path id="Path_2540" data-name="Path 2540" d="M422.857,366l36.931,59.49a11.391,11.391,0,0,1-9.678,17.4H374.692a11.391,11.391,0,0,0,9.678-17.353l-35.729-58.2Z" transform="translate(-120.938 -112.824)" fill="#fff" stroke="#263238" stroke-linecap="round" stroke-linejoin="round" stroke-width="1.177"/>
      <path id="Path_2541" data-name="Path 2541" d="M422.867,365.98l-74.217,1.335L362.4,389.7h75.174Z" transform="translate(-120.926 -112.849)" fill="#263238" stroke="#263238" stroke-linecap="round" stroke-linejoin="round" stroke-width="1.177"/>
      <rect id="Rectangle_855" data-name="Rectangle 855" width="315.424" height="266.39" rx="2.91" transform="translate(413.268 266.391) rotate(180)" stroke-width="1.177" stroke="#263238" stroke-linecap="round" stroke-linejoin="round" fill="#fff"/>
      <rect id="Rectangle_856" data-name="Rectangle 856" width="315.424" height="266.39" rx="2.91" transform="translate(401.343 266.391) rotate(180)" stroke-width="1.177" stroke="#263238" stroke-linecap="round" stroke-linejoin="round" fill="#fff"/>
      <path id="Path_2542" data-name="Path 2542" d="M295.5,252.2H589.722a10.59,10.59,0,0,1,10.612,10.59V470.87H284.91V262.879A10.59,10.59,0,0,1,295.5,252.2Z" transform="translate(-198.991 -252.2)" fill="#263238" stroke="#263238" stroke-linecap="round" stroke-linejoin="round" stroke-width="1.177"/>
      <rect id="Rectangle_857" data-name="Rectangle 857" width="288.927" height="193.508" transform="translate(388.106 204.12) rotate(180)" stroke-width="1.177" stroke="#263238" stroke-linecap="round" stroke-linejoin="round" fill="#fff"/>
      <rect id="Rectangle_858" data-name="Rectangle 858" width="9.166" height="3.048" transform="translate(4.739 316.692)" stroke-width="1.177" stroke="#263238" stroke-linecap="round" stroke-linejoin="round" fill="#fff"/>
      <rect id="Rectangle_859" data-name="Rectangle 859" width="9.166" height="3.048" transform="translate(16.975 316.692)" stroke-width="1.177" stroke="#263238" stroke-linecap="round" stroke-linejoin="round" fill="#fff"/>
      <rect id="Rectangle_860" data-name="Rectangle 860" width="9.166" height="3.048" transform="translate(29.211 316.692)" stroke-width="1.177" stroke="#263238" stroke-linecap="round" stroke-linejoin="round" fill="#fff"/>
      <rect id="Rectangle_861" data-name="Rectangle 861" width="9.166" height="3.048" transform="translate(41.447 316.692)" stroke-width="1.177" stroke="#263238" stroke-linecap="round" stroke-linejoin="round" fill="#fff"/>
      <rect id="Rectangle_862" data-name="Rectangle 862" width="9.166" height="3.048" transform="translate(53.683 316.692)" stroke-width="1.177" stroke="#263238" stroke-linecap="round" stroke-linejoin="round" fill="#fff"/>
      <rect id="Rectangle_863" data-name="Rectangle 863" width="9.166" height="3.048" transform="translate(65.919 316.692)" stroke-width="1.177" stroke="#263238" stroke-linecap="round" stroke-linejoin="round" fill="#fff"/>
      <rect id="Rectangle_864" data-name="Rectangle 864" width="9.166" height="3.048" transform="translate(78.155 316.692)" stroke-width="1.177" stroke="#263238" stroke-linecap="round" stroke-linejoin="round" fill="#fff"/>
      <rect id="Rectangle_865" data-name="Rectangle 865" width="9.166" height="3.048" transform="translate(90.391 316.692)" stroke-width="1.177" stroke="#263238" stroke-linecap="round" stroke-linejoin="round" fill="#fff"/>
      <rect id="Rectangle_866" data-name="Rectangle 866" width="9.166" height="3.048" transform="translate(102.627 316.692)" stroke-width="1.177" stroke="#263238" stroke-linecap="round" stroke-linejoin="round" fill="#fff"/>
      <rect id="Rectangle_867" data-name="Rectangle 867" width="9.166" height="3.048" transform="translate(114.863 316.692)" stroke-width="1.177" stroke="#263238" stroke-linecap="round" stroke-linejoin="round" fill="#fff"/>
      <rect id="Rectangle_868" data-name="Rectangle 868" width="9.166" height="3.048" transform="translate(127.099 316.692)" stroke-width="1.177" stroke="#263238" stroke-linecap="round" stroke-linejoin="round" fill="#fff"/>
      <rect id="Rectangle_869" data-name="Rectangle 869" width="9.166" height="3.048" transform="translate(139.336 316.692)" stroke-width="1.177" stroke="#263238" stroke-linecap="round" stroke-linejoin="round" fill="#fff"/>
      <rect id="Rectangle_870" data-name="Rectangle 870" width="9.166" height="3.048" transform="translate(151.572 316.692)" stroke-width="1.177" stroke="#263238" stroke-linecap="round" stroke-linejoin="round" fill="#fff"/>
      <rect id="Rectangle_871" data-name="Rectangle 871" width="9.166" height="3.048" transform="translate(163.785 316.692)" stroke-width="1.177" stroke="#263238" stroke-linecap="round" stroke-linejoin="round" fill="#fff"/>
      <rect id="Rectangle_872" data-name="Rectangle 872" width="9.166" height="3.048" transform="translate(176.021 316.692)" stroke-width="1.177" stroke="#263238" stroke-linecap="round" stroke-linejoin="round" fill="#fff"/>
      <rect id="Rectangle_873" data-name="Rectangle 873" width="9.166" height="3.048" transform="translate(188.258 316.692)" stroke-width="1.177" stroke="#263238" stroke-linecap="round" stroke-linejoin="round" fill="#fff"/>
      <rect id="Rectangle_874" data-name="Rectangle 874" width="9.166" height="3.048" transform="translate(200.494 316.692)" stroke-width="1.177" stroke="#263238" stroke-linecap="round" stroke-linejoin="round" fill="#fff"/>
      <rect id="Rectangle_875" data-name="Rectangle 875" width="9.166" height="3.048" transform="translate(212.73 316.692)" stroke-width="1.177" stroke="#263238" stroke-linecap="round" stroke-linejoin="round" fill="#fff"/>
      <rect id="Rectangle_876" data-name="Rectangle 876" width="9.166" height="3.048" transform="translate(224.966 316.692)" stroke-width="1.177" stroke="#263238" stroke-linecap="round" stroke-linejoin="round" fill="#fff"/>
      <rect id="Rectangle_877" data-name="Rectangle 877" width="9.166" height="3.048" transform="translate(237.202 316.692)" stroke-width="1.177" stroke="#263238" stroke-linecap="round" stroke-linejoin="round" fill="#fff"/>
      <rect id="Rectangle_878" data-name="Rectangle 878" width="9.166" height="3.048" transform="translate(249.438 316.692)" stroke-width="1.177" stroke="#263238" stroke-linecap="round" stroke-linejoin="round" fill="#fff"/>
      <rect id="Rectangle_879" data-name="Rectangle 879" width="265.3" height="9.9" transform="translate(0 320.185)" stroke-width="1.177" stroke="#263238" stroke-linecap="round" stroke-linejoin="round" fill="#fff"/>
      <rect id="Rectangle_880" data-name="Rectangle 880" width="64.718" height="9.9" transform="translate(200.583 320.185)" stroke-width="1.177" stroke="#263238" stroke-linecap="round" stroke-linejoin="round" fill="#263238"/>
    </g>
    <g id="Text--inject-2" transform="translate(580.203 407.194)">
      <path id="Path_2543" data-name="Path 2543" d="M297.169,419.65v2.981h-1.424v-3.048c0-5.517-2.069-10.123-8.031-10.123s-8.12,4.605-8.12,10.123v23.2c0,5.517,2.091,10.056,8.12,10.056s8.031-4.45,8.031-10.056v-10.3h-7.075v-1.313h8.5V442.72c0,6.3-2.581,11.48-9.522,11.48s-9.477-5.184-9.477-11.48V419.65c0-6.3,2.6-11.48,9.477-11.48S297.169,413.354,297.169,419.65Z" transform="translate(-278.17 -4.024)" fill="#8d3ddc"/>
      <path id="Path_2544" data-name="Path 2544" d="M292.838,443.03l-2.647,10.7H288.9l10.946-45.451h2l11.124,45.451h-1.424l-2.647-10.7Zm.267-1.29h15.573l-7.853-31.858Z" transform="translate(-265.029 -3.889)" fill="#8d3ddc"/>
      <path id="Path_2545" data-name="Path 2545" d="M310.146,453.695V409.689H300.29V408.31h21.2v1.379h-9.922v44.005Z" transform="translate(-251.079 -3.852)" fill="#8d3ddc"/>
      <path id="Path_2546" data-name="Path 2546" d="M326.385,430.046v1.29H313.036v21h15.885v1.357H311.59V408.31h17.331v1.379H313.036v20.356Z" transform="translate(-237.239 -3.852)" fill="#8d3ddc"/>
      <path id="Path_2547" data-name="Path 2547" d="M331.794,453.695h-2.069L321.56,408.31h1.424l7.9,43.449,7.853-43.182h1.758l7.386,42.915,7.653-43.182h1.29l-8.031,45.385h-1.78l-7.319-42Z" transform="translate(-225.029 -3.852)" fill="#8d3ddc"/>
      <path id="Path_2548" data-name="Path 2548" d="M343.09,443.03l-2.67,10.7h-1.29L350.1,408.28h2l11.124,45.451H361.8l-2.67-10.7Zm.245-1.29h15.573l-7.853-31.858Z" transform="translate(-203.51 -3.889)" fill="#8d3ddc"/>
      <path id="Path_2549" data-name="Path 2549" d="M361.268,435.363,350.7,408.31h1.424l9.922,25.1,9.922-25.1h1.491l-10.768,27.053v18.332h-1.424Z" transform="translate(-189.34 -3.852)" fill="#8d3ddc"/>
      <path id="Path_2550" data-name="Path 2550" d="M376.9,453.695V409.689H367V408.31h21.224v1.379H378.3v44.005Z" transform="translate(-169.376 -3.852)" fill="#8d3ddc"/>
      <path id="Path_2551" data-name="Path 2551" d="M379.784,408.31v45.385H378.36V408.31Z" transform="translate(-155.463 -3.852)" fill="#8d3ddc"/>
      <path id="Path_2552" data-name="Path 2552" d="M395.439,453.561h-1.624L382.58,410.468v43.227h-1.29V408.31h2.225l11.124,43.049,11.124-43.049h2.225v45.385h-1.424V410.468Z" transform="translate(-151.875 -3.852)" fill="#8d3ddc"/>
      <path id="Path_2553" data-name="Path 2553" d="M410.4,430.046v1.29H397.054v21h15.885v1.357H395.63V408.31h17.308v1.379H397.054v20.356Z" transform="translate(-134.312 -3.852)" fill="#8d3ddc"/>
      <path id="Path_2554" data-name="Path 2554" d="M405.65,419.65c0-6.363,2.736-11.48,9.611-11.48s9.722,5.117,9.722,11.48V442.72c0,6.363-2.736,11.48-9.722,11.48s-9.611-5.117-9.611-11.48Zm1.424,23.137c0,5.584,2.225,10.123,8.187,10.123s8.3-4.449,8.3-10.123v-23.2c0-5.584-2.225-10.123-8.3-10.123s-8.187,4.449-8.187,10.123Z" transform="translate(-122.04 -4.024)" fill="#8d3ddc"/>
      <path id="Path_2555" data-name="Path 2555" d="M418.071,442.549c0,5.451,1.936,10.189,7.965,10.189s7.987-4.739,7.987-10.189V408.31h1.29v34.172c0,6.229-2.469,11.546-9.344,11.546s-9.388-5.317-9.388-11.546V408.31H418Z" transform="translate(-108.654 -3.852)" fill="#8d3ddc"/>
      <path id="Path_2556" data-name="Path 2556" d="M436.576,453.695V409.689H426.72V408.31h21.2v1.379H438v44.005Z" transform="translate(-96.235 -3.852)" fill="#8d3ddc"/>
      <path id="Path_2557" data-name="Path 2557" d="M327.6,363.568V376.16c0,9.678,4.271,13.17,11.124,13.17s11.124-3.493,11.124-13.17V346.349c0-9.678-4.249-13.348-11.124-13.348S327.6,336.671,327.6,346.349v4.071H307.579l3.871-78.6h56.13v19.355H330.516L328.781,323.5a20.29,20.29,0,0,1,18.577-9.856c15.573,0,23.627,11.013,23.627,30.969V374.8c0,21.691-10.857,34.083-31.747,34.083S307.49,396.495,307.49,374.8V363.568Z" transform="translate(-242.261 -171.017)" fill="#8d3ddc"/>
      <path id="Path_2558" data-name="Path 2558" d="M341.59,305.2c0-21.691,11.435-34.083,32.326-34.083s32.326,12.392,32.326,34.083v70.458c0,21.691-11.413,34.083-32.326,34.083s-32.326-12.392-32.326-34.083Zm21.291,71.815c0,9.678,4.271,13.348,11.124,13.348s11.124-3.671,11.124-13.348V303.846c0-9.678-4.249-13.348-11.124-13.348s-11.124,3.671-11.124,13.348Z" transform="translate(-200.497 -171.874)" fill="#8d3ddc"/>
      <path id="Path_2559" data-name="Path 2559" d="M374.57,363.435l38.777-91.615h23.226v91.615h10.078V382.79H436.574v24.583h-21V382.746h-41Zm41,0V312.466L394.1,363.435Z" transform="translate(-160.105 -171.017)" fill="#8d3ddc"/>
      <path id="Path_2560" data-name="Path 2560" d="M346.037,248.373v1.29H332.688v21h15.84v1.379H331.22V226.66h17.308v1.357H332.644v20.356Z" transform="translate(-213.198 -226.326)" fill="#8d3ddc"/>
      <path id="Path_2561" data-name="Path 2561" d="M350.3,226.66c6.674,0,9.322,3.938,9.322,10.167v4.094c0,5.562-2.225,8.61-7.186,9.522,5.05.779,7.186,4.094,7.186,9.077v7.141a9.589,9.589,0,0,0,1.246,5.384H359.31a10.322,10.322,0,0,1-1.112-5.384v-7.141c0-6.674-4.027-8.432-9.922-8.432h-5.562v20.957H341.29V226.66Zm-2.024,23c6.3,0,9.922-1.624,9.922-8.61v-4.16c0-5.517-2.225-8.9-7.965-8.9h-7.52v21.669Z" transform="translate(-200.864 -226.326)" fill="#8d3ddc"/>
      <path id="Path_2562" data-name="Path 2562" d="M361.37,226.66c6.674,0,9.322,3.938,9.322,10.167v4.094c0,5.562-2.225,8.61-7.186,9.522,5.05.779,7.186,4.094,7.186,9.077v7.141a9.588,9.588,0,0,0,1.246,5.384H370.38a10.322,10.322,0,0,1-1.112-5.384v-7.141c0-6.674-4-8.432-9.9-8.432h-5.584v20.957H352.36V226.66Zm-2,23.071c6.274,0,9.9-1.624,9.9-8.61v-4.16c0-5.517-2.225-8.9-7.965-8.9h-7.52v21.6Z" transform="translate(-187.306 -226.326)" fill="#8d3ddc"/>
      <path id="Path_2563" data-name="Path 2563" d="M363.4,237.99c0-6.363,2.736-11.48,9.589-11.48s9.744,5.117,9.744,11.48v22.982c0,6.363-2.736,11.48-9.744,11.48s-9.589-5.117-9.589-11.48Zm1.424,23.137c0,5.584,2.225,10.123,8.165,10.123s8.3-4.449,8.3-10.123v-23.2c0-5.584-2.225-10.123-8.3-10.123s-8.165,4.449-8.165,10.123Z" transform="translate(-173.785 -226.51)" fill="#8d3ddc"/>
      <path id="Path_2564" data-name="Path 2564" d="M383.437,226.66c6.674,0,9.322,3.938,9.322,10.167v4.094c0,5.562-2.225,8.61-7.186,9.522,5.05.779,7.186,4.094,7.186,9.077v7.141A9.589,9.589,0,0,0,394,272.045h-1.557a10.322,10.322,0,0,1-1.112-5.384v-7.141c0-6.674-4-8.432-9.922-8.432h-5.629v20.957H374.36V226.66Zm-2.025,23c6.3,0,9.922-1.624,9.922-8.61v-4.16c0-5.517-2.225-8.9-7.965-8.9h-7.586v21.669Z" transform="translate(-160.362 -226.326)" fill="#8d3ddc"/>
    </g>
    <g id="Character--inject-2" transform="translate(56.361 323.988)">
      <path id="Path_2565" data-name="Path 2565" d="M192.894,255.029s11.368-19.644,15.573-11.368,3.115,25.829-3.092,34.105-8.276,12.392-11.368,6.185S192.894,255.029,192.894,255.029Z" transform="translate(143.339 -124.792)" fill="#fff" stroke="#263238" stroke-linecap="round" stroke-linejoin="round" stroke-width="1.177"/>
      <path id="Path_2566" data-name="Path 2566" d="M141.049,259.649s-13.348-16.53-16.552-5.161,12.414,25.829,16.552,27.9a20.023,20.023,0,0,0,10.323,1.046Z" transform="translate(60.605 -113.928)" fill="#fff" stroke="#263238" stroke-linecap="round" stroke-linejoin="round" stroke-width="1.177"/>
      <path id="Path_2567" data-name="Path 2567" d="M235.075,289.735S89.821,333.741,89.821,341.995s-4.16,170.993-.845,180.2,30.724,18.243,45.674,18.243v3.337H453.388l-15.729-88.011s89.657-3.337,91.214-9.967-78.645-139.4-86.12-143.585S321.417,285.6,308.135,285.6,266.621,279.7,235.075,289.735Z" transform="translate(17.055 -73.046)" fill="#8d3ddc"/>
      <g id="Group_8023" data-name="Group 8023" transform="translate(104.749 210.831)" clip-path="url(#clip-path)">
        <path id="Path_2568" data-name="Path 2568" d="M354.927,462.16C153.654,388.187,162.642,350.5,162.642,350.5L95.9,452.5a86.764,86.764,0,0,0,28.744,6.318v3.337Z" transform="translate(-77.643 -202.28)" opacity="0.3"/>
        <path id="Path_2569" data-name="Path 2569" d="M195.85,333.148s68.322-3.6,113.262-35.952L183.28,281Z" transform="translate(29.375 -287.399)" opacity="0.3"/>
      </g>
      <path id="Path_2571" data-name="Path 2571" d="M235.075,289.735S89.821,333.741,89.821,341.995s-4.16,170.993-.845,180.2,30.724,18.243,45.674,18.243v3.337H453.388l-15.729-88.011s89.657-3.337,91.214-9.967-78.645-139.4-86.12-143.585S321.417,285.6,308.135,285.6,266.621,279.7,235.075,289.735Z" transform="translate(17.055 -73.046)" fill="none" stroke="#263238" stroke-linecap="round" stroke-linejoin="round" stroke-width="1.177"/>
      <line id="Line_235" data-name="Line 235" x1="23.805" y1="71.392" transform="translate(425.772 270.44)" fill="none" stroke="#263238" stroke-linecap="round" stroke-linejoin="round" stroke-width="1.177"/>
      <path id="Path_2572" data-name="Path 2572" d="M101.08,311.38s39.667,22.247,52.37,74.573" transform="translate(32.706 -39.361)" fill="none" stroke="#263238" stroke-linecap="round" stroke-linejoin="round" stroke-width="1.177"/>
      <path id="Path_2573" data-name="Path 2573" d="M121.726,355.91s-26.563,17.442-32.37,21.58-7.475,48.166-1.669,60.6,30.724,18.265,47.32,9.967,24.072-47.32,18.265-67.232S121.726,355.91,121.726,355.91Z" transform="translate(12.627 15.177)" fill="#263238" stroke="#263238" stroke-linecap="round" stroke-linejoin="round" stroke-width="1.177"/>
      <path id="Path_2574" data-name="Path 2574" d="M144.62,301.952s2.492,39.845,9.945,66.409,21.58,61.425,21.58,61.425l47.32-37.353,63.917,15.773s-12.436-65.563-21.58-87.143-27.387-39.022-27.387-39.022S168.692,272.9,144.62,301.952Z" transform="translate(85.342 -76.964)" fill="#263238" stroke="#263238" stroke-linecap="round" stroke-linejoin="round" stroke-width="1.177"/>
      <path id="Path_2575" data-name="Path 2575" d="M148.72,294.119s11.613,29.055,24.072,53.95,42.27,59.779,49.812,52.3,14.928-65.585,14.928-78.867V281.66s-23.226,19.088-41.491,19.088S148.72,294.119,148.72,294.119Z" transform="translate(90.406 -75.76)" fill="#fff"/>
      <g id="Group_8024" data-name="Group 8024" transform="translate(239.126 205.9)" clip-path="url(#clip-path-2)">
        <path id="Path_2576" data-name="Path 2576" d="M237.532,281.66s-23.226,19.088-41.491,19.088-47.32-6.674-47.32-6.674,5.9,14.75,13.793,32.237a69.39,69.39,0,0,0,48.566,10.9c10.412-1.646,19.133-7.319,26.452-15.15Z" transform="translate(-148.72 -281.66)" fill="#8a51e4"/>
        <path id="Path_2577" data-name="Path 2577" d="M237.532,281.66s-23.226,19.088-41.491,19.088-47.32-6.674-47.32-6.674,5.9,14.75,13.793,32.237a69.39,69.39,0,0,0,48.566,10.9c10.412-1.646,19.133-7.319,26.452-15.15Z" transform="translate(-148.72 -281.66)" fill="#fff" opacity="0.7"/>
      </g>
      <path id="Path_2579" data-name="Path 2579" d="M148.72,294.119s11.613,29.055,24.072,53.95,42.27,59.779,49.812,52.3,14.928-65.585,14.928-78.867V281.66s-23.226,19.088-41.491,19.088S148.72,294.119,148.72,294.119Z" transform="translate(90.406 -75.76)" fill="none" stroke="#263238" stroke-linecap="round" stroke-linejoin="round" stroke-width="1.177"/>
      <path id="Path_2580" data-name="Path 2580" d="M131.379,297.174s17.575,57.843,28.922,73.416,42.381,31.013,65.118,29.967,41.336-23.76,45.474-46.5,1.023-74.418,1.023-74.418-4.116-22.737-21.691-52.7-106.454-5.184-115.687,17.553S131.379,297.174,131.379,297.174Z" transform="translate(66.932 -159.707)" fill="#fff" stroke="#263238" stroke-linecap="round" stroke-linejoin="round" stroke-width="1.177"/>
      <path id="Path_2581" data-name="Path 2581" d="M161.89,271.916s10.345,14.461,22.737-1.046" transform="translate(106.485 -88.975)" fill="none" stroke="#263238" stroke-linecap="round" stroke-linejoin="round" stroke-width="1.177"/>
      <path id="Path_2582" data-name="Path 2582" d="M147.49,263.145s9.3-8.276,21.713,0" transform="translate(89.021 -102.941)" fill="none" stroke="#263238" stroke-linecap="round" stroke-linejoin="round" stroke-width="1.177"/>
      <path id="Path_2583" data-name="Path 2583" d="M173.51,262.886s4.138-8.276,19.622-8.276" transform="translate(120.584 -108.89)" fill="none" stroke="#263238" stroke-linecap="round" stroke-linejoin="round" stroke-width="1.177"/>
      <path id="Path_2584" data-name="Path 2584" d="M145.17,260.5s6.207-10.323,26.875-12.392" transform="translate(86.2 -116.85)" fill="none" stroke="#263238" stroke-linecap="round" stroke-linejoin="round" stroke-width="2.355"/>
      <path id="Path_2585" data-name="Path 2585" d="M171.14,260.874s10.056-20.89,28.009-14.394" transform="translate(117.694 -120.381)" fill="none" stroke="#263238" stroke-linecap="round" stroke-linejoin="round" stroke-width="2.355"/>
      <path id="Path_2586" data-name="Path 2586" d="M178.858,284.821a5.718,5.718,0,1,1-5.74-5.117,5.451,5.451,0,0,1,5.74,5.117Z" transform="translate(113.252 -78.165)" fill="#263238"/>
      <path id="Path_2587" data-name="Path 2587" d="M160.984,264.225a3.137,3.137,0,1,1-3.137-3.115,3.137,3.137,0,0,1,3.137,3.115Z" transform="translate(97.801 -100.929)" fill="#263238"/>
      <path id="Path_2588" data-name="Path 2588" d="M185.454,258.987a3.115,3.115,0,1,1-.9-2.217,3.137,3.137,0,0,1,.9,2.217Z" transform="translate(127.485 -107.371)" fill="#263238"/>
      <path id="Path_2589" data-name="Path 2589" d="M197.679,201.524H161.5c-20.668,0-47.543,54.773-46.519,80.6s23.783,42.381,29.99,45.474,17.553,8.276,17.553,5.161,12.414-27.9,12.414-27.9-3.115,14.483,5.161,14.483,34.105-26.875,34.105-26.875,1.046,21.691,9.3,21.691,25.851-32.036,25.851-32.036l18.6,20.668,6.207-12.392s7.23,28.922,13.348,28.922S298.883,304.841,302,290.4s9.3-38.243-1.046-59.957-40.29-41.336-65.1-41.336S197.679,201.524,197.679,201.524Z" transform="translate(49.35 -189.11)" fill="#263238" stroke="#263238" stroke-linecap="round" stroke-linejoin="round" stroke-width="1.177"/>
      <path id="Path_2590" data-name="Path 2590" d="M175.441,204.818s-25.451,2.937-37.2,10.768a42.982,42.982,0,0,0-15.573,17.62l25.451-11.747s-16.641,12.726-18.6,18.6a160.7,160.7,0,0,0-3.893,18.6l15.573-4.894s-6.474,5.428-5.873,10.768,2.937,17.62,2.937,17.62l18.6-17.62,4.894,12.725,15.573-12.725.979,9.789,10.768-14.683,8.9,8.9,5.873-10.768s4.894,4.894,6.852-6.852,2.937-16.641,2.937-16.641L224.407,247l3.916,16.641,2.937-17.62,8.9,7.831,2.937-14.683,10.768,5.873,3.916-13.7,23.493,7.831s-6.852-24.472-12.726-31.324-34.261-9.789-34.261-9.789l-2.937-4.894s-33.371,6.852-37.2,8.9a44.5,44.5,0,0,0-8.9,6.852" transform="translate(58.737 -184.15)" fill="none" stroke="#6b6b6b" stroke-linecap="round" stroke-linejoin="round" stroke-width="1.177"/>
      <path id="Path_2591" data-name="Path 2591" d="M122.067,302.082a22.626,22.626,0,0,1-5.807-14.95c0-9.122,9.967-28.922,12.459-28.922s7.453,4.961,7.453,4.961-4.138,20.023-5.807,27.409a20.245,20.245,0,0,1-8.3,11.5Z" transform="translate(51.145 -104.48)" fill="#fff" stroke="#263238" stroke-linecap="round" stroke-linejoin="round" stroke-width="1.177"/>
      <path id="Path_2592" data-name="Path 2592" d="M126.048,307.71s-8.3-9.967-8.3-14.1,13.348-33.215,16.6-33.215,13.348,4.16,15.773,5.829,1.669,9.945,1.669,15.773-14.95,31.525-14.95,31.525Z" transform="translate(52.937 -101.811)" fill="#fff" stroke="#263238" stroke-linecap="round" stroke-linejoin="round" stroke-width="1.177"/>
      <path id="Path_2593" data-name="Path 2593" d="M180.779,262.26s-20.757,37.353-17.442,43.16,36.53,41.514,36.53,41.514S105.226,488.049,96.1,502.154s-10.79,34.862-6.674,46.5,29.055,22.4,46.5,21.58,30.7-22.425,35.6-42.27,49.923-166.166,54.083-177.712,9.945-20.757,4.138-26.563-28.21-27.387-28.21-27.387,6.674-5.807,5.807-12.459S192.392,263.906,180.779,262.26Z" transform="translate(16.578 -99.52)" fill="#fff"/>
      <g id="Group_8025" data-name="Group 8025" transform="translate(103.882 162.74)" clip-path="url(#clip-path-3)">
        <path id="Path_2594" data-name="Path 2594" d="M166.288,508.776c4.983-20.023,49.812-166.032,53.972-177.646s9.945-20.757,4.138-26.563c-5.228-5.228-23.894-23.226-27.542-26.7h-.133c3.248,4.249,20.423,27.253,18.643,40.557-1.958,14.683-77.332,191.884-87.121,203.631-7.5,8.9-27.542,14.505-36.575,16.619A66.163,66.163,0,0,0,130.6,551.135C148.023,550.267,161.371,528.687,166.288,508.776Z" transform="translate(-81.957 -243.142)" fill="#8a51e4"/>
        <path id="Path_2595" data-name="Path 2595" d="M166.288,508.776c4.983-20.023,49.812-166.032,53.972-177.646s9.945-20.757,4.138-26.563c-5.228-5.228-23.894-23.226-27.542-26.7h-.133c3.248,4.249,20.423,27.253,18.643,40.557-1.958,14.683-77.332,191.884-87.121,203.631-7.5,8.9-27.542,14.505-36.575,16.619A66.163,66.163,0,0,0,130.6,551.135C148.023,550.267,161.371,528.687,166.288,508.776Z" transform="translate(-81.957 -243.142)" fill="#fff" opacity="0.7"/>
      </g>
      <path id="Path_2597" data-name="Path 2597" d="M180.779,262.26s-20.757,37.353-17.442,43.16,36.53,41.514,36.53,41.514S105.226,488.049,96.1,502.154s-10.79,34.862-6.674,46.5,29.055,22.4,46.5,21.58,30.7-22.425,35.6-42.27,49.923-166.166,54.083-177.712,9.945-20.757,4.138-26.563-28.21-27.387-28.21-27.387,6.674-5.807,5.807-12.459S192.392,263.906,180.779,262.26Z" transform="translate(16.578 -99.52)" fill="none" stroke="#263238" stroke-linecap="round" stroke-linejoin="round" stroke-width="1.177"/>
      <path id="Path_2598" data-name="Path 2598" d="M137.188,270.47l-4.138,10.078,12.459,5.807.534.667" transform="translate(71.518 -89.465)" fill="none" stroke="#263238" stroke-linecap="round" stroke-linejoin="round" stroke-width="1.177"/>
      <path id="Path_2599" data-name="Path 2599" d="M246.1,350.5s7.475-12.459,16.619-15.773,44.829-6.674,58.933-1.669,22.4,23.249,24.895,33.193,1.669,24.094-6.674,31.547-19.088,5.829-30.724,2.492-34.862-16.6-47.32-24.072S246.945,355.465,246.1,350.5Z" transform="translate(208.376 -15.925)" fill="#263238" stroke="#263238" stroke-linecap="round" stroke-linejoin="round" stroke-width="1.177"/>
      <path id="Path_2600" data-name="Path 2600" d="M238.048,334.708s-65.585,53.972-74.707,58.933-4.983,14.127-1.669,17.442,24.895,23.249,34.862,29.878,24.072-4.983,27.387-6.674-.823-9.144-.823-9.144,25.74-14.1,29.878-27.387a149.946,149.946,0,0,0,4.983-31.547s104.563,42.27,129.5,51.458,40.668,9.967,52.3-1.646,12.436-35.707,6.674-48.143-42.27-24.072-58.933-24.072S253.02,329.681,245.568,332.172Z" transform="translate(100.901 -14.257)" fill="#fff"/>
      <g id="Group_8026" data-name="Group 8026" transform="translate(258.7 317.621)" clip-path="url(#clip-path-4)">
        <path id="Path_2601" data-name="Path 2601" d="M424.246,407.1a34.684,34.684,0,0,0,8.409-15.862C388.984,388.549,260.883,340.072,248,339.227c-14.683-.979-16.641,21.535-31.347,40.045s-23.4,23.582-36.108,25.54c-8.676,1.335-10.056,12.236-10.078,19.044,4,3.315,7.764,6.274,10.568,8.143,9.967,6.674,24.072-4.983,27.387-6.674s-.823-9.144-.823-9.144,25.74-14.1,29.878-27.387a149.946,149.946,0,0,0,4.983-31.547s104.563,42.27,129.5,51.458S412.611,418.717,424.246,407.1Z" transform="translate(-142.28 -322.914)" fill="#8a51e4"/>
        <path id="Path_2602" data-name="Path 2602" d="M424.246,407.1a34.684,34.684,0,0,0,8.409-15.862C388.984,388.549,260.883,340.072,248,339.227c-14.683-.979-16.641,21.535-31.347,40.045s-23.4,23.582-36.108,25.54c-8.676,1.335-10.056,12.236-10.078,19.044,4,3.315,7.764,6.274,10.568,8.143,9.967,6.674,24.072-4.983,27.387-6.674s-.823-9.144-.823-9.144,25.74-14.1,29.878-27.387a149.946,149.946,0,0,0,4.983-31.547s104.563,42.27,129.5,51.458S412.611,418.717,424.246,407.1Z" transform="translate(-142.28 -322.914)" fill="#fff" opacity="0.7"/>
      </g>
      <path id="Path_2604" data-name="Path 2604" d="M238.048,334.708s-65.585,53.972-74.707,58.933-4.983,14.127-1.669,17.442,24.895,23.249,34.862,29.878,24.072-4.983,27.387-6.674-.823-9.144-.823-9.144,25.74-14.1,29.878-27.387a149.946,149.946,0,0,0,4.983-31.547s104.563,42.27,129.5,51.458,40.668,9.967,52.3-1.646,12.436-35.707,6.674-48.143-42.27-24.072-58.933-24.072S253.02,329.681,245.568,332.172Z" transform="translate(100.901 -14.257)" fill="none" stroke="#263238" stroke-linecap="round" stroke-linejoin="round" stroke-width="1.177"/>
      <line id="Line_236" data-name="Line 236" x1="10.79" y2="4.983" transform="translate(313.562 410.932)" fill="#fff" stroke="#263238" stroke-linecap="round" stroke-linejoin="round" stroke-width="1.177"/>
      <path id="Path_2605" data-name="Path 2605" d="M200.96,345.105l4.138,14.1,11.635,5.807-6.652-27.387Z" transform="translate(153.886 -7.212)" fill="#263238" stroke="#263238" stroke-linecap="round" stroke-linejoin="round" stroke-width="1.177"/>
      <ellipse id="Ellipse_167" data-name="Ellipse 167" cx="19.511" cy="15.351" rx="19.511" ry="15.351" transform="translate(334.151 310.507)" fill="#fff" stroke="#263238" stroke-linecap="round" stroke-linejoin="round" stroke-width="1.177"/>
      <line id="Line_237" data-name="Line 237" x2="891.281" transform="translate(0 470.644)" fill="none" stroke="#263238" stroke-linecap="round" stroke-linejoin="round" stroke-width="1.177"/>
    </g>
  </g>
</svg>
