<svg xmlns="http://www.w3.org/2000/svg" xmlns:xlink="http://www.w3.org/1999/xlink" width="590.931" height="518.025" viewBox="0 0 590.931 518.025"><defs><style>.a,.ai,.ak,.al,.b,.ba,.c,.g,.i,.j{fill:#fff;}.a,.aa,.ae,.aj,.ak,.al,.an,.aq,.at,.aw,.ay,.b,.ba,.c,.d,.e,.l,.p,.t,.u,.w{stroke:#263238;}.a,.ay,.ba,.l,.p,.t,.u,.w,.x{stroke-linecap:round;}.a,.ak,.ay,.ba,.l,.p,.t,.u,.w,.x{stroke-linejoin:round;}.aa,.ae,.aj,.al,.an,.aq,.at,.aw,.b,.c,.d,.e{stroke-miterlimit:10;}.b{opacity:0.38;mix-blend-mode:overlay;isolation:isolate;}.d,.e,.f,.h,.l,.s,.u{fill:#8167f2;}.at,.e{stroke-width:1.004px;}.am,.g,.o,.q,.s,.t,.u{opacity:0.5;}.h,.i{opacity:0.8;}.aj,.av,.k,.m{fill:#263238;}.m{opacity:0.3;}.n{clip-path:url(#a);}.ae,.aq,.at,.aw,.ay,.o,.p,.w,.x{fill:none;}.ab,.q{fill:#48acf0;}.r{clip-path:url(#b);}.an,.t{fill:#92e3a9;}.v{clip-path:url(#c);}.w,.x{stroke-width:0.5px;}.x{stroke:#fff;}.y{clip-path:url(#d);}.z{clip-path:url(#e);}.aa,.af{fill:#8a51e4;}.ac{clip-path:url(#f);}.ad,.ag{fill:#64b4d2;}.ad{stroke:#707070;}.ah{clip-path:url(#g);}.ai,.av,.ax{opacity:0.2;}.al,.an,.aw,.ay,.ba{stroke-width:0.75px;}.ao{fill:#4193ca;opacity:0.46;}.ap{clip-path:url(#h);}.aq{opacity:0.43;}.ar{clip-path:url(#i);}.as{fill:rgba(129,103,242,0.54);}.au{clip-path:url(#j);}.az{clip-path:url(#k);}</style><clipPath id="a"><path class="a" d="M177.345,155.877h0l-8.032-53.217-23.8,4.878-11.873,7.652S119.47,126.3,119.47,127.443s23.965,41.241,23.965,41.241a44.425,44.425,0,0,0,33.91-12.808Z" transform="translate(-119.47 -102.66)"/></clipPath><clipPath id="b"><path class="a" d="M128.39,106.519a90.885,90.885,0,0,1,3.447,10.719c.759,3.826,11.1,10.34,12.238,10.719s1.913-12.253,1.913-12.253l-3.052-14.925Z" transform="translate(-128.39 -100.78)"/></clipPath><clipPath id="c"><path class="a" d="M120.42,96.587s3.286,13.684,10.34,20.445,14.6,6.82,17.218-5.228c2.147-9.931-3.184-23.176-3.184-23.176S127.591,74.462,120.42,96.587Z" transform="translate(-120.42 -84.162)"/></clipPath><clipPath id="d"><path class="a" d="M123.646,119.65l-13.246,53.3,38.846,11.011,1.913-6.893L125.646,165.3l8.66-30.668s-1.139-5.739-7.3-12.238" transform="translate(-110.4 -119.65)"/></clipPath><clipPath id="e"><path class="a" d="M213,143.5l-29.412-6.177L153.55,102.61l4.44,27.923,18.43,17.554,37.035,1.694Z" transform="translate(-153.55 -102.61)"/></clipPath><clipPath id="f"><path class="b" d="M504.623,410.763H133.377a8.208,8.208,0,0,1-8.207-8.207V194.83a8.207,8.207,0,0,1,8.207-8.207h1.008a8.251,8.251,0,0,0,7.638-5.17l5.652-14.21a7.988,7.988,0,0,1,3.286-3.943,10.515,10.515,0,0,1,5.316-1.46H251.7a10.544,10.544,0,0,1,3.753.686,7.959,7.959,0,0,1,3.943,3.447l9.712,16.546a8.207,8.207,0,0,0,7.083,4.06H504.623a8.207,8.207,0,0,1,8.207,8.207V402.556a8.207,8.207,0,0,1-8.207,8.207Z" transform="translate(-125.17 -161.84)"/></clipPath><clipPath id="g"><rect class="c" width="410.924" height="254.735" rx="5.27"/></clipPath><clipPath id="h"><path class="d" d="M398.881,236.756l-3.446-10.31-3.87-5.3a.526.526,0,0,0-.964.321v15.276l2.921,3.841Z" transform="translate(-390.599 -220.908)"/></clipPath><clipPath id="i"><path class="e" d="M446.444,245.159a15.714,15.714,0,0,0-2.921,5.973c-.424,2.8.248,13.6.248,13.6l-15.042,1.694s1.139-10.967,1.2-12.793a16.269,16.269,0,0,1,7.959-10.807C443.056,240.281,447.452,241.522,446.444,245.159Z" transform="translate(-428.73 -241.483)"/></clipPath><clipPath id="j"><path class="c" d="M453.456,252.787c12.472-16.473-17.6-33.589-25.5-17.218a30.84,30.84,0,0,0-2.6,6.367c-1.2.73-4.381,2.687-4.965,3.227s1.46,1.928,2.585,2.614c-2.147,5.272-1.825,10.821-1.212,12.077,1.066,2.161,6.323,2.191,9.785,1.548s4.834-3.958,5.842-4.863,6.031.248,7.8.774S451.031,256.044,453.456,252.787Z" transform="translate(-420.29 -228.942)"/></clipPath><clipPath id="k"><path class="c" d="M430.89,261.258s-6.908,7.813-9.653,11.026-2.76,37.693-2.76,42.76-2.746,18.824,1.84,21.585,32.64,1.84,35.4-2.76,4.586-59.744,4.133-64.8a14.063,14.063,0,0,0-7.828-10.573C448.824,257.023,430.89,261.258,430.89,261.258Z" transform="translate(-417.662 -258.186)"/></clipPath></defs><g transform="translate(-73.013 -74.473)"><g transform="translate(85.812 74.473)"><path class="f" d="M518.786,93.4c-72.289-41.314-136.313-7.3-168.339,28.916s-55.889,72.8-96.094,79.518S153.148,191.5,107.7,223.516,62.429,340.551,98.413,388.759s129.084,71.252,236.5,86.747a283.167,283.167,0,0,0,115.531-6.411l48.792-17.715c23.834-10.88,43.812-23.133,60.723-33.078,25.732-15.188,34.8-52.209,39.723-79.328A326.672,326.672,0,0,0,597.851,216.3C587.073,165.392,562.495,118.353,518.786,93.4Z" transform="translate(-72.424 -74.473)"/><path class="g" d="M518.786,93.4c-72.289-41.314-136.313-7.3-168.339,28.916s-55.889,72.8-96.094,79.518S153.148,191.5,107.7,223.516,62.429,340.551,98.413,388.759s129.084,71.252,236.5,86.747a283.167,283.167,0,0,0,115.531-6.411l48.792-17.715c23.834-10.88,43.812-23.133,60.723-33.078,25.732-15.188,34.8-52.209,39.723-79.328A326.672,326.672,0,0,0,597.851,216.3C587.073,165.392,562.495,118.353,518.786,93.4Z" transform="translate(-72.424 -74.473)"/><path class="h" d="M465.556,131.156c-1.636-26.988-20.066-35.838-31.749-22.987a22.811,22.811,0,0,0-4.191,23.366c4.1,11.084,11.157,30.756,15.363,46.148,6.192,22.724,4.118,40.277,11.347,30.989S467.615,165.242,465.556,131.156Z" transform="translate(91.312 -61.631)"/><path class="g" d="M465.556,131.156c-1.636-26.988-20.066-35.838-31.749-22.987a22.811,22.811,0,0,0-4.191,23.366c4.1,11.084,11.157,30.756,15.363,46.148,6.192,22.724,4.118,40.277,11.347,30.989S467.615,165.242,465.556,131.156Z" transform="translate(91.312 -61.631)"/><path class="f" d="M242.1,136.585c11.347-2.059,25.805-28.916,44.4-40.277s2.074-19.628-15.451-11.362c0,0-13.436,3.1-23.76,23.761S230.733,138.645,242.1,136.585Z" transform="translate(2.893 -71.193)"/><path class="g" d="M242.1,136.585c11.347-2.059,25.805-28.916,44.4-40.277s2.074-19.628-15.451-11.362c0,0-13.436,3.1-23.76,23.761S230.733,138.645,242.1,136.585Z" transform="translate(2.893 -71.193)"/><path class="f" d="M228.627,118.034c9.215-3.695,19.263-28.784,8.762-27.5a7.8,7.8,0,0,0-6.061,4.673C227.97,102.671,220.332,121.349,228.627,118.034Z" transform="translate(-2.229 -67.1)"/><path class="g" d="M228.627,118.034c9.215-3.695,19.263-28.784,8.762-27.5a7.8,7.8,0,0,0-6.061,4.673C227.97,102.671,220.332,121.349,228.627,118.034Z" transform="translate(-2.229 -67.1)"/></g><g transform="translate(73.013 570.533)"><ellipse class="f" cx="295.466" cy="10.982" rx="295.466" ry="10.982"/><ellipse class="i" cx="295.466" cy="10.982" rx="295.466" ry="10.982"/></g><g transform="translate(463.886 168.708)"><path class="j" d="M377.911,139a2.191,2.191,0,0,0-2.191,2.191v11.23H335.691v-11.23a2.191,2.191,0,1,0-4.381,0V424.068a2.191,2.191,0,1,0,4.381,0V360.789H375.72v63.279a2.191,2.191,0,1,0,4.381,0V141.147A2.191,2.191,0,0,0,377.911,139ZM375.72,356.452H335.691V342.257H375.72Zm0-18.591H335.691v-14.18H375.72Zm0-18.576H335.691V305.148H375.72Zm0-18.562H335.691V286.645H375.72Zm0-18.547H335.691V268.259H375.72Zm0-18.489H335.691V249.683H375.72Zm0-18.4H335.691V231.15H375.72Zm0-18.576H335.691V212.574H375.72Zm0-18.532H335.691V194H375.72Zm0-18.576H335.691v-14.21H375.72Zm0-18.591H335.691V156.8H375.72Z" transform="translate(-331.31 -139)"/></g><g transform="translate(141.271 80.756)"><path class="k" d="M139.874,82.2a13.465,13.465,0,0,0-13.406-2.673c-8.032,2.673-15.728,14.283-13.786,24.111,1.358,6.805,7.667,16.838,9.58,20.664s-.774,10.3-6.849,23.731-8.426,26.039,9.186,37.138,37.547-6.513,47.769-19.146-7.667-41.723-9.2-54.034S159.005,76.08,139.874,82.2Z" transform="translate(-110.155 -78.775)"/><path class="l" d="M171.065,139.1a42.176,42.176,0,0,1-33.735,12.18l-4.221,17.6,8.032,40.175,52.443-27.178-11.873-30.668Z" transform="translate(-99.945 -51.002)"/><path class="m" d="M171.065,139.1a42.176,42.176,0,0,1-33.735,12.18l-4.221,17.6,8.032,40.175,52.443-27.178-11.873-30.668Z" transform="translate(-99.945 -51.002)"/><path class="j" d="M177.345,155.877h0l-8.032-53.217-23.8,4.878-11.873,7.652S119.47,126.3,119.47,127.443s23.965,41.241,23.965,41.241a44.425,44.425,0,0,0,33.91-12.808Z" transform="translate(-106.224 -67.779)"/><g class="n" transform="translate(13.246 34.881)"><path class="o" d="M181.551,168.079l-10.719-12.253L162.8,102.61l-23.731,4.951-5.608,3.622,1.782,24.126A14.034,14.034,0,0,0,139.973,137c1.694,0,3.052-3.724,3.052-3.724l2.03-3.388a7.448,7.448,0,0,0,7.8.686c4.732-2.045,2.03-9.493,1.344-12.194s6.44-1.022,6.44-1.022,5.754,12.53,6.44,16.59-3.052,15.246-2.716,17.627.336,6.762-1.008,8.12-6.1,8.762-6.1,8.762,19.993,1.694,22.023,1.694a17.172,17.172,0,0,0,2.921-.57Z" transform="translate(-113.029 -102.683)"/></g><path class="p" d="M177.345,155.877h0l-8.032-53.217-23.8,4.878-11.873,7.652S119.47,126.3,119.47,127.443s23.965,41.241,23.965,41.241a44.425,44.425,0,0,0,33.91-12.808Z" transform="translate(-106.224 -67.779)"/><path class="q" d="M137.918,140.517s16.78-12.443,15.232-8.762S140.006,144.621,136.9,144.9,137.918,140.517,137.918,140.517Z" transform="translate(-98.736 -54.698)"/><path class="k" d="M137.58,123.938l.657.686,4.089,4.323,1.051,16.6,5.009-.789-3.958-15.553,6.338,13.173,5.272-5.272L144.707,126.83l-.277-8.164-5.8-2.906" transform="translate(-97.887 -61.748)"/><path class="a" d="M132.84,109.144s-4.98,2.293-4.98,6.878,5.389,15.495,8.762,17.788,9.157-8.207,9.157-8.207,8.762,4.206,11.1.38-5.36-16.459-10.325-19.905S132.84,109.144,132.84,109.144Z" transform="translate(-102.362 -66.669)"/><path class="j" d="M128.39,106.519a90.885,90.885,0,0,1,3.447,10.719c.759,3.826,11.1,10.34,12.238,10.719s1.913-12.253,1.913-12.253l-3.052-14.925Z" transform="translate(-102.118 -68.645)"/><g class="r" transform="translate(26.272 32.135)"><path class="s" d="M142.953,102A14.835,14.835,0,0,0,141,101.59l-10.559,3.724-1.387,3.622c.7,1.957,1.592,4.586,2.132,6.718a11.756,11.756,0,0,0,6.031,2.526c3.169.219,5.958-2.234,7.93-5.243Z" transform="translate(-128.086 -100.407)"/></g><path class="p" d="M128.39,106.519a90.885,90.885,0,0,1,3.447,10.719c.759,3.826,11.1,10.34,12.238,10.719s1.913-12.253,1.913-12.253l-3.052-14.925Z" transform="translate(-102.118 -68.645)"/><path class="a" d="M125,100.731s-4.221-3.432-4.221,0,3.841,5.36,6.893,5.36" transform="translate(-105.621 -69.369)"/><path class="a" d="M139.13,93.2s2.687-4.206,3.447.394a11.683,11.683,0,0,1-2.293,8.412Z" transform="translate(-97.173 -72.942)"/><path class="t" d="M125,100.731s-4.221-3.432-4.221,0,3.841,5.36,6.893,5.36" transform="translate(-105.621 -69.369)"/><path class="u" d="M139.13,93.2s2.687-4.206,3.447.394a11.683,11.683,0,0,1-2.293,8.412Z" transform="translate(-97.173 -72.942)"/><path class="j" d="M120.42,96.587s3.286,13.684,10.34,20.445,14.6,6.82,17.218-5.228c2.147-9.931-3.184-23.176-3.184-23.176S127.591,74.462,120.42,96.587Z" transform="translate(-105.787 -76.295)"/><g class="v" transform="translate(14.633 7.866)"><path class="s" d="M128.81,84.176l2.673,6.718s4.206-.935,6.572,4.147,4.746,12.53,3.388,18.3c-1.3,5.491-4.381,7.3-9.127,7.433,5.17,2.205,9.858,0,11.8-9,2.147-9.931-3.184-23.176-3.184-23.176S135.1,83.825,128.81,84.176Z" transform="translate(-116.557 -84.164)"/></g><path class="p" d="M120.42,96.587s3.286,13.684,10.34,20.445,14.6,6.82,17.218-5.228c2.147-9.931-3.184-23.176-3.184-23.176S127.591,74.462,120.42,96.587Z" transform="translate(-105.787 -76.295)"/><path class="k" d="M130,97.935c.409.774.336,1.606-.161,1.869s-1.227-.161-1.621-.935-.336-1.592.161-1.855S129.609,97.175,130,97.935Z" transform="translate(-102.314 -70.414)"/><path class="k" d="M135.213,96.37c.292.818.1,1.636-.423,1.811s-1.2-.321-1.46-1.139-.1-1.636.424-1.811S134.921,95.581,135.213,96.37Z" transform="translate(-99.901 -71.215)"/><path class="w" d="M136.625,93.176a3.286,3.286,0,0,0-3.972.234c-2.1,1.636,1.869,9.828,1.869,9.828s.073,2.585-3.242,1.387" transform="translate(-100.787 -72.402)"/><path class="w" d="M136.782,102.66a3.768,3.768,0,0,1-5.842,1.46" transform="translate(-100.944 -67.779)"/><path class="w" d="M130.544,94.777s-3.739-3.52-5.374,3.271" transform="translate(-103.6 -71.828)"/><path class="k" d="M146.846,85.728c-4.1-3.563-7.419-3.52-8.865-3.052a9.8,9.8,0,0,0-4.483-1.46c-11.479-1.533-13.012,7.3-13.012,15.7s-7.3,18.372-2.293,19.525a5.988,5.988,0,0,0,6.893-3.447s5.36-8.762,5.36-14.94,6.674-5.593,6.674-5.593h0a3.563,3.563,0,0,1,5.374-.613c3.038,2.6,3.388,5.652,5.842,6.44s6.557-3.154,6.557-3.154A57.772,57.772,0,0,0,146.846,85.728Z" transform="translate(-107.62 -77.732)"/><path class="x" d="M136.791,86.3s-4.615-3.709-8.762.453-3.695,12.034-5.082,17.13-5.1,6.017-5.1,6.017" transform="translate(-106.97 -76.012)"/><path class="x" d="M133.283,85.453s-4.98-4.936-11.245,1.314c-4.775,4.79-2.643,7.93-3.578,15.8" transform="translate(-106.689 -76.553)"/><path class="x" d="M132.41,84.483s8.762-4.162,12.5,6.484" transform="translate(-100.267 -76.517)"/><path class="j" d="M123.646,119.65l-13.246,53.3,38.846,11.011,1.913-6.893L125.646,165.3l8.66-30.668s-1.139-5.739-7.3-12.238" transform="translate(-110.4 -59.957)"/><g class="y" transform="translate(0 59.693)"><path class="s" d="M149.758,174.828l-25.513-11.771,8.66-30.668a23.541,23.541,0,0,0-3.257-7.141l-.832-.628v8.47c0,5.418-6.776,22.694-9.157,26.754s-6.09,9.142-6.09,9.142l7.448-3.388,28.229,11.3Z" transform="translate(-108.941 -117.362)"/></g><path class="p" d="M123.646,119.65l-13.246,53.3,38.846,11.011,1.913-6.893L125.646,165.3l8.66-30.668s-1.139-5.739-7.3-12.238" transform="translate(-110.4 -59.957)"/><path class="j" d="M213,143.5l-29.412-6.177L153.55,102.61l4.44,27.923,18.43,17.554,37.035,1.694Z" transform="translate(-90.534 -67.802)"/><g class="z" transform="translate(63.016 34.808)"><path class="s" d="M153.55,102.61l3.578,22.286,2.278,6.966.292.263c.862-.891,5.725-5.944,6.966-5.944s15.246,12.194,13.217,13.143l-2.045,1.008,34.889,5.754.248-2.673-29.354-6.163Z" transform="translate(-153.55 -102.61)"/></g><path class="p" d="M213,143.5l-29.412-6.177L153.55,102.61l4.44,27.923,18.43,17.554,37.035,1.694Z" transform="translate(-90.534 -67.802)"/><path class="aa" d="M501.567,426.761,127.022,371.879a4.542,4.542,0,0,1-3.826-5.155l31.194-212.793a4.527,4.527,0,0,1,5.141-3.826l7.1,1.037a4.513,4.513,0,0,0,4.586-2.22l9.419-16.283a4.294,4.294,0,0,1,1.139-1.314,10.442,10.442,0,0,1,7.638-1.869L283.824,143.3a10.427,10.427,0,0,1,5.652,2.716,4.382,4.382,0,0,1,.964,1.46l8.4,20.8a4.512,4.512,0,0,0,3.549,2.789l231.69,33.969a4.542,4.542,0,0,1,3.841,5.141L506.723,422.949a4.542,4.542,0,0,1-5.155,3.812Z" transform="translate(-104.532 -55.494)"/><path class="ab" d="M504.623,410.763H133.377a8.208,8.208,0,0,1-8.207-8.207V194.83a8.207,8.207,0,0,1,8.207-8.207h1.008a8.251,8.251,0,0,0,7.638-5.17l5.652-14.21a7.988,7.988,0,0,1,3.286-3.943,10.515,10.515,0,0,1,5.316-1.46H251.7a10.544,10.544,0,0,1,3.753.686,7.959,7.959,0,0,1,3.943,3.447l9.712,16.546a8.207,8.207,0,0,0,7.083,4.06H504.623a8.207,8.207,0,0,1,8.207,8.207V402.556a8.207,8.207,0,0,1-8.207,8.207Z" transform="translate(-103.6 -40.533)"/><g class="ac" transform="translate(21.57 121.307)"><path class="ad" d="M504.623,410.763H133.377a8.208,8.208,0,0,1-8.207-8.207V194.83a8.207,8.207,0,0,1,8.207-8.207h1.008a8.251,8.251,0,0,0,7.638-5.17l5.652-14.21a7.988,7.988,0,0,1,3.286-3.943,10.515,10.515,0,0,1,5.316-1.46H251.7a10.544,10.544,0,0,1,3.753.686,7.959,7.959,0,0,1,3.943,3.447l9.712,16.546a8.207,8.207,0,0,0,7.083,4.06H504.623a8.207,8.207,0,0,1,8.207,8.207V402.556a8.207,8.207,0,0,1-8.207,8.207Z" transform="translate(-125.17 -161.84)"/></g><path class="ae" d="M504.623,410.763H133.377a8.208,8.208,0,0,1-8.207-8.207V194.83a8.207,8.207,0,0,1,8.207-8.207h1.008a8.251,8.251,0,0,0,7.638-5.17l5.652-14.21a7.988,7.988,0,0,1,3.286-3.943,10.515,10.515,0,0,1,5.316-1.46H251.7a10.544,10.544,0,0,1,3.753.686,7.959,7.959,0,0,1,3.943,3.447l9.712,16.546a8.207,8.207,0,0,0,7.083,4.06H504.623a8.207,8.207,0,0,1,8.207,8.207V402.556a8.207,8.207,0,0,1-8.207,8.207Z" transform="translate(-103.6 -40.533)"/><path class="af" d="M217.414,181.7H158.005a5.345,5.345,0,0,1-5.345-5.345h0a5.345,5.345,0,0,1,5.345-5.36h59.409a5.36,5.36,0,0,1,5.36,5.36h0a5.345,5.345,0,0,1-5.36,5.345Z" transform="translate(-90.944 -36.316)"/><path class="aa" d="M504.623,435.578H133.377a8.207,8.207,0,0,1-8.207-8.207V219.646a8.207,8.207,0,0,1,8.207-8.207h1.008a8.237,8.237,0,0,0,7.638-5.17l5.652-14.195a7.93,7.93,0,0,1,3.286-3.943,10.384,10.384,0,0,1,5.316-1.46H251.7a10.544,10.544,0,0,1,3.753.686,7.915,7.915,0,0,1,3.943,3.461l9.712,16.561a8.207,8.207,0,0,0,7.083,4.06H504.623a8.207,8.207,0,0,1,8.207,8.207V427.371A8.207,8.207,0,0,1,504.623,435.578Z" transform="translate(-103.6 -29.102)"/><path class="ag" d="M236.552,154.662l-58.941-7.3a5.374,5.374,0,0,1-4.659-5.973h0a5.36,5.36,0,0,1,5.988-4.644l58.927,7.3a5.36,5.36,0,0,1,4.659,5.973h0a5.345,5.345,0,0,1-5.973,4.644Z" transform="translate(-81.62 -52.107)"/><path class="g" d="M236.552,154.662l-58.941-7.3a5.374,5.374,0,0,1-4.659-5.973h0a5.36,5.36,0,0,1,5.988-4.644l58.927,7.3a5.36,5.36,0,0,1,4.659,5.973h0a5.345,5.345,0,0,1-5.973,4.644Z" transform="translate(-81.62 -52.107)"/><path class="ag" d="M217.414,206.539H158.005a5.345,5.345,0,0,1-5.345-5.36h0a5.36,5.36,0,0,1,5.345-5.36h59.409a5.36,5.36,0,0,1,5.36,5.36h0A5.36,5.36,0,0,1,217.414,206.539Z" transform="translate(-90.944 -24.889)"/><path class="g" d="M217.414,206.539H158.005a5.345,5.345,0,0,1-5.345-5.36h0a5.36,5.36,0,0,1,5.345-5.36h59.409a5.36,5.36,0,0,1,5.36,5.36h0A5.36,5.36,0,0,1,217.414,206.539Z" transform="translate(-90.944 -24.889)"/><rect class="j" width="410.924" height="254.735" rx="5.27" transform="translate(9.931 244.812)"/><g class="ah" transform="translate(9.931 244.812)"><path class="af" d="M520.486,293.36A615.582,615.582,0,0,1,367,398.362C283.976,438.07,189.08,465.437,133.79,479.53H512.775a7.7,7.7,0,0,0,7.711-7.7Z" transform="translate(-109.562 -224.795)"/><path class="ai" d="M520.486,293.36A615.582,615.582,0,0,1,367,398.362C283.976,438.07,189.08,465.437,133.79,479.53H512.775a7.7,7.7,0,0,0,7.711-7.7Z" transform="translate(-109.562 -224.795)"/></g><rect class="ae" width="410.924" height="254.735" rx="5.27" transform="translate(9.931 244.812)"/><path class="ae" d="M121.27,267.379V257.156a7.711,7.711,0,0,1,7.711-7.7H145.7" transform="translate(-105.396 -0.194)"/><line class="ae" y1="142.797" transform="translate(15.874 279.642)"/><path class="ae" d="M401.176,401.4v16.167a7.7,7.7,0,0,1-7.7,7.711H380" transform="translate(13.721 69.757)"/><line class="ae" y2="195.546" transform="translate(414.896 263.592)"/><rect class="aj" width="130.164" height="70.318" rx="2.73" transform="translate(150.303 337.955)"/><rect class="c" width="130.164" height="21.38" rx="2.73" transform="translate(150.303 337.955)"/><path class="c" d="M137,166.171l2.673,4.98,5.681,4.089a2.205,2.205,0,0,0,2.483.088l.5-.321a1.738,1.738,0,0,0,.686-2.191l-3.227-7.419,2.176,1.694a1.679,1.679,0,0,0,2.322-.263h0a1.694,1.694,0,0,0,0-2.118l-5.068-6.411-6.338.978Z" transform="translate(-98.154 -42.163)"/><line class="w" x1="5.082" y1="6.674" transform="translate(45.155 126.17)"/><line class="w" x1="3.987" y1="5.287" transform="translate(43.271 127.791)"/><path class="c" d="M194.26,130.61l7.945.467,9.668,6.177s.54,1.884-.8,2.147-8.6-2.41-8.6-2.41l-7.755-.1Z" transform="translate(-71.792 -54.911)"/><path class="ak" d="M194.54,134.493l8.339,3.768s1.344-1.884-.54-2.687l-2.745-1.884" transform="translate(-71.663 -53.493)"/></g><g transform="translate(538.277 288.325)"><path class="j" d="M398.881,236.756l-3.446-10.31-3.87-5.3a.526.526,0,0,0-.964.321v15.276l2.921,3.841Z" transform="translate(-378.405 -220.908)"/><path class="c" d="M454.124,276.842l-28.916,1.022a5.622,5.622,0,0,1-5.2-3.052L397.957,231.76s-4.965,2.687-5.345,3.826,16.327,43.038,21.453,55.9a5.622,5.622,0,0,0,5.447,3.534l32.318-1.373" transform="translate(-377.481 -215.912)"/><line class="al" x1="4.527" y2="1.869" transform="translate(18.066 21.208)"/><g class="am" transform="translate(15.124 15.848)"><path class="d" d="M454.124,276.842l-28.916,1.022a5.622,5.622,0,0,1-5.2-3.052L397.957,231.76s-4.965,2.687-5.345,3.826,16.327,43.038,21.453,55.9a5.622,5.622,0,0,0,5.447,3.534l32.318-1.373" transform="translate(-392.606 -231.76)"/><line class="an" x1="4.527" y2="1.869" transform="translate(2.942 5.36)"/></g><path class="ao" d="M398.881,236.756l-3.446-10.31-3.87-5.3a.526.526,0,0,0-.964.321v15.276l2.921,3.841Z" transform="translate(-378.405 -220.908)"/><g class="ap" transform="translate(12.194)"><path class="f" d="M398.881,236.756l-3.446-10.31-3.87-5.3a.526.526,0,0,0-.964.321v15.276l2.921,3.841Z" transform="translate(-390.599 -220.908)"/></g><path class="aq" d="M398.881,236.756l-3.446-10.31-3.87-5.3a.526.526,0,0,0-.964.321v15.276l2.921,3.841Z" transform="translate(-378.405 -220.908)"/><path class="j" d="M446.444,245.159a15.714,15.714,0,0,0-2.921,5.973c-.424,2.8.248,13.6.248,13.6l-15.042,1.694s1.139-10.967,1.2-12.793a16.269,16.269,0,0,1,7.959-10.807C443.056,240.281,447.452,241.522,446.444,245.159Z" transform="translate(-360.85 -211.435)"/><g class="ar" transform="translate(67.88 30.048)"><path class="as" d="M446.107,244.789c-2.731-.745-6.046-1.577-8.85-2.249a16.327,16.327,0,0,0-7.609,10.588c0,.7-.2,2.746-.409,4.994,1.46-.336,3.782-.847,5.506-1.154a24.172,24.172,0,0,0,4.016-1.008l-.511,8.762h.336l4.907-.555s-.672-10.792-.248-13.6a15.348,15.348,0,0,1,2.862-5.783Z" transform="translate(-428.495 -240.997)"/></g><path class="at" d="M446.444,245.159a15.714,15.714,0,0,0-2.921,5.973c-.424,2.8.248,13.6.248,13.6l-15.042,1.694s1.139-10.967,1.2-12.793a16.269,16.269,0,0,1,7.959-10.807C443.056,240.281,447.452,241.522,446.444,245.159Z" transform="translate(-360.85 -211.435)"/><path class="j" d="M453.456,252.787c12.472-16.473-17.6-33.589-25.5-17.218a30.84,30.84,0,0,0-2.6,6.367c-1.2.73-4.381,2.687-4.965,3.227s1.46,1.928,2.585,2.614c-2.147,5.272-1.825,10.821-1.212,12.077,1.066,2.161,6.323,2.191,9.785,1.548s4.834-3.958,5.842-4.863,6.031.248,7.8.774S451.031,256.044,453.456,252.787Z" transform="translate(-364.736 -217.209)"/><g class="au" transform="translate(55.553 11.733)"><path class="s" d="M440.291,244.19s.263,1.241-2.249,2.249-3.008.248-3.753,2a6.251,6.251,0,0,1-5.009,4.513,59.994,59.994,0,0,1-7.2.92c1.986,1.11,5.929,1.022,8.762.511,3.447-.628,4.834-3.958,5.842-4.863s6.031.248,7.8.774a3.213,3.213,0,0,0,1.256,0,13.7,13.7,0,0,0,1.168-4.644Z" transform="translate(-419.465 -221.922)"/></g><path class="ae" d="M453.456,252.787c12.472-16.473-17.6-33.589-25.5-17.218a30.84,30.84,0,0,0-2.6,6.367c-1.2.73-4.381,2.687-4.965,3.227s1.46,1.928,2.585,2.614c-2.147,5.272-1.825,10.821-1.212,12.077,1.066,2.161,6.323,2.191,9.785,1.548s4.834-3.958,5.842-4.863,6.031.248,7.8.774S451.031,256.044,453.456,252.787Z" transform="translate(-364.736 -217.209)"/><path class="k" d="M426.788,239.333c-.321.7-.862,1.139-1.212.978s-.38-.862,0-1.563.862-1.139,1.212-.978S427.11,238.632,426.788,239.333Z" transform="translate(-362.428 -213.16)"/><path class="w" d="M426.12,235.833s1.46-1.212,1.753,1.577" transform="translate(-362.052 -214.157)"/><path class="w" d="M421.93,243.78s0,1.46,2.629,1.46" transform="translate(-363.981 -210.378)"/><path class="d" d="M422.256,309.22,421.1,323.5s-7.988,56.867-7.609,63.4,1.241,73.969,1.241,73.969l9.624,1.533,10.807-74.8,15.173-76.013Z" transform="translate(-367.871 -180.25)"/><path class="av" d="M422.256,309.22,421.1,323.5s-7.988,56.867-7.609,63.4,1.241,73.969,1.241,73.969l9.624,1.533,10.807-74.8,15.173-76.013Z" transform="translate(-367.871 -180.25)"/><path class="aw" d="M432.061,344.79s-3.695,21.745-6.484,32.406-2.775,21.292-2.775,32.859-4.162,32.888-4.162,32.888" transform="translate(-365.496 -163.874)"/><path class="d" d="M437.8,307.952c6.338-3.33,13.143-5.535,15.086-1.11,3.855,8.85-.759,22.3-.759,22.3l3.52,62.037,6.44,74.845-9.624-1.548s-14.779-63.162-17.087-67.017-5.944-57.934-5.944-57.934l-7.3-6.645" transform="translate(-363.889 -182.487)"/><g class="ax" transform="translate(58.241 121.875)"><path class="k" d="M437.8,307.952c6.338-3.33,13.143-5.535,15.086-1.11,3.855,8.85-.759,22.3-.759,22.3l3.52,62.037,6.44,74.845-9.624-1.548s-14.779-63.162-17.087-67.017-5.944-57.934-5.944-57.934l-7.3-6.645" transform="translate(-422.13 -304.362)"/></g><path class="aw" d="M438,339c.219,14.385,1.679,21.307,2.819,25.1,1.387,4.629.92,13.421.92,17.525s-1.855-.92,2.322,18.065S451,445.053,451,445.053" transform="translate(-356.582 -166.54)"/><path class="aw" d="M438,317.532s.453-.935,0,20.825v3.388" transform="translate(-356.582 -176.426)"/><path class="ay" d="M423.941,314.7l-.307,6.513-1.5,4.527,2.249,2.629" transform="translate(-363.889 -177.727)"/><path class="ay" d="M421.35,317.36s3.768,3.768,13.552,2.629" transform="translate(-364.248 -176.503)"/><path class="k" d="M445.472,320.082c7.3-1.46,7.769-3.476,10.3-5.17a21.073,21.073,0,0,0-1.46-8.076c-1.913-4.381-8.762-2.22-15.086,1.11l-3.067,4.849L419.7,311.451l-.526,6.455a53.771,53.771,0,0,0,26.3,2.176Z" transform="translate(-365.252 -182.481)"/><path class="al" d="M420.671,312.28l-.161,2.57,4.177.964.321-3.373Z" transform="translate(-364.635 -178.841)"/><path class="d" d="M440.8,317.128l-.7-6.4,2.117-.7,1.066,5.681" transform="translate(-355.616 -179.877)"/><path class="d" d="M429.846,318.7l-1.417-7.463h3.549l1.417,6.4" transform="translate(-360.988 -179.32)"/><g class="ax" transform="translate(67.442 130.153)"><path class="k" d="M440.8,317.128l-.7-6.4,2.117-.7,1.066,5.681" transform="translate(-423.057 -310.03)"/><path class="k" d="M429.846,318.7l-1.417-7.463h3.549l1.417,6.4" transform="translate(-428.43 -309.473)"/></g><path class="aj" d="M422.03,270.46s-1.212,8.105-4.848,21.906-7.3,30.347-7.3,30.347l2.03,8.5,6.061-8.908Z" transform="translate(-369.529 -198.095)"/><path class="aj" d="M428.32,264.092s-8.5,2.015-9.3,6.061a33.586,33.586,0,0,0-.818,5.666L431.154,265.3l16.2-6.484Z" transform="translate(-365.698 -203.454)"/><path class="j" d="M430.89,261.258s-6.908,7.813-9.653,11.026-2.76,37.693-2.76,42.76-2.746,18.824,1.84,21.585,32.64,1.84,35.4-2.76,4.586-59.744,4.133-64.8a14.063,14.063,0,0,0-7.828-10.573C448.824,257.023,430.89,261.258,430.89,261.258Z" transform="translate(-365.946 -203.745)"/><g class="az" transform="translate(51.716 54.441)"><path class="s" d="M450.5,258.483a3.666,3.666,0,0,0-1.2-.263l-1.986,1.037a18.839,18.839,0,0,1,6.513,10.778,57.291,57.291,0,0,1-.248,18.532c-.993,6.762-17.028,0-14.02,2.512s14.268,6.762,14.779,9.011-5.579,6-7.769,6.265,1.46,5.257,3.753,9.507,1.46,10.223-3.753,14.283-17.32,6.061-22.548,6.265c-1.694,0-2.746.438-3.067.935,8.032,1.8,30.77.628,33.238-3.49,2.76-4.6,4.586-59.745,4.133-64.8a14.063,14.063,0,0,0-7.828-10.573Z" transform="translate(-416.143 -258.171)"/></g><path class="ae" d="M430.89,261.258s-6.908,7.813-9.653,11.026-2.76,37.693-2.76,42.76-2.746,18.824,1.84,21.585,32.64,1.84,35.4-2.76,4.586-59.744,4.133-64.8a14.063,14.063,0,0,0-7.828-10.573C448.824,257.023,430.89,261.258,430.89,261.258Z" transform="translate(-365.946 -203.745)"/><path class="ba" d="M440.768,287c-7.4-2.307-13.888-8.762-13.888-8.762a31.325,31.325,0,0,0,12.5,18.985" transform="translate(-361.702 -194.513)"/><path class="c" d="M447.639,254.94l-22.066,5.053-1.373,6.44,24.812-6.44Z" transform="translate(-362.936 -205.24)"/><path class="aj" d="M430.042,424.25l-1.285-9.7-9.624-1.534-8.017,5.71-7.185,3.943v1.577Z" transform="translate(-372.268 -132.462)"/><path class="aj" d="M458.514,424.559l-1.2-9.011L447.693,414l-8.017,5.71-7.185,3.958v.891Z" transform="translate(-359.119 -132.011)"/><path class="a" d="M395.752,227.085l-5.929-3.432s-2.307-.277-1.314,2.293l5.929,4.571" transform="translate(-379.482 -219.648)"/><path class="a" d="M397.643,235.535a5.93,5.93,0,0,0-1.212-1.9l-1.11-1.2h0l-6.031-7.477s-1.869-1.256-1.46,1.46l3.739,7.3-6.645-6.236s-1.256-1.037-1.256.424,6.031,7.9,6.031,7.9l-6.659-3.125s-1.46,1.037-.409,2.074,6.645,3.125,6.645,3.125l-4.98-.2s-1.46,1.241-.424,1.665,6.864,1.65,6.864,1.65a8.294,8.294,0,0,0,2.5,1.46l1.46,2.7,5.593-2.819Z" transform="translate(-382.249 -219.175)"/><path class="j" d="M453.426,294.81,420.1,302.623a7.492,7.492,0,0,1-8.28-4.659l-21.03-58.416,5.593-2.819,23.235,43.038a5.2,5.2,0,0,0,5.608,2.643l25.484-7.2" transform="translate(-378.317 -213.624)"/><path class="ae" d="M453.426,294.81,420.1,302.623a7.492,7.492,0,0,1-8.28-4.659l-21.03-58.416,5.593-2.819,23.235,43.038a5.2,5.2,0,0,0,5.608,2.643l25.484-7.2" transform="translate(-378.317 -213.624)"/><line class="aw" x1="6.484" y2="3.242" transform="translate(14.722 28.612)"/><path class="aj" d="M434.334,239.206s-3.549,3.549-1.782,6.207a17.686,17.686,0,0,1,2.366,5.009s-1.46,3.549-.292,3.549.584-2.658,2.658-2.059,4.133,4.133,2.366,5.316a20.186,20.186,0,0,1-4.177,1.752.993.993,0,0,0-.2,1.811,14.063,14.063,0,0,0,6.44,2.337,22.578,22.578,0,0,0,5.608-.584s5.842-7.974,10.048-10.047,2.366-11.522,2.366-12.705-4.133-3.841-4.133-3.841,1.183-2.658-4.133-8.558-15.363-7.1-15.655-5.024a2.921,2.921,0,0,0,1.183,2.921s-8.865-3.841-13,.292S434.334,239.206,434.334,239.206Z" transform="translate(-363.372 -220.671)"/><path class="x" d="M430.84,233.6s7.185,8.762,17.831,9.609" transform="translate(-359.879 -215.065)"/><path class="x" d="M429.1,235.43s3.344,9.726,17.174,12.5" transform="translate(-360.68 -214.222)"/></g></g></svg>