<svg xmlns="http://www.w3.org/2000/svg" xmlns:xlink="http://www.w3.org/1999/xlink" width="800.161" height="787.486" viewBox="0 0 800.161 787.486">
  <defs>
    <clipPath id="clip-path">
      <rect id="Rectangle_763" data-name="Rectangle 763" width="123.602" height="123.602" rx="23" transform="translate(717 422.656) rotate(-45)" fill="#008c9e"/>
    </clipPath>
  </defs>
  <g id="Group_7922" data-name="Group 7922" transform="translate(11014.161 14173.744)">
    <g id="Mobile_browsers-bro" data-name="Mobile browsers-bro" transform="translate(-11059.075 -14184.507)">
      <g id="background-simple--inject-1" transform="translate(44.914 10.763)">
        <path id="Path_1951" data-name="Path 1951" d="M586.658,98.456C491.07,54.32,375.907,52.111,276.733,85.406,176.444,119.065,72.852,203.811,63.267,316.421c-7.012,82.638,57.956,134.211,69.325,211.257,6.91,46.791-14.874,87.137-18.238,132.327-2.857,38.4,10.923,75.2,36.476,103.734,79.031,88.677,233.264,122.944,326.116,35.665,36.476-34.348,68.9-81.585,118.385-98.506,99.478-33.963,251.522-42.555,266.478-175.287,9.119-80.9-40.65-155.854-82.5-220.518C727.05,224.4,677.422,140.4,586.658,98.456Z" transform="translate(-62.74 -62.612)" fill="#5eb6f2"/>
        <path id="Path_1952" data-name="Path 1952" d="M586.658,98.456C491.07,54.32,375.907,52.111,276.733,85.406,176.444,119.065,72.852,203.811,63.267,316.421c-7.012,82.638,57.956,134.211,69.325,211.257,6.91,46.791-14.874,87.137-18.238,132.327-2.857,38.4,10.923,75.2,36.476,103.734,79.031,88.677,233.264,122.944,326.116,35.665,36.476-34.348,68.9-81.585,118.385-98.506,99.478-33.963,251.522-42.555,266.478-175.287,9.119-80.9-40.65-155.854-82.5-220.518C727.05,224.4,677.422,140.4,586.658,98.456Z" transform="translate(-62.74 -62.612)" fill="#fff" opacity="0"/>
      </g>
      <g id="Stars--inject-1" transform="translate(164.366 144.791)">
        <path id="Path_1953" data-name="Path 1953" d="M190.412,170.451a7.741,7.741,0,1,0-7.741,7.741,7.741,7.741,0,0,0,7.741-7.741Z" transform="translate(-48.034 -38.894)" fill="#961d55"/>
        <path id="Path_1954" data-name="Path 1954" d="M130.842,254.461A7.741,7.741,0,1,0,123.1,262.2,7.741,7.741,0,0,0,130.842,254.461Z" transform="translate(-109.179 47.337)" fill="#961d55"/>
        <path id="Path_1955" data-name="Path 1955" d="M291.982,376.651a7.741,7.741,0,1,0-7.741,7.741A7.741,7.741,0,0,0,291.982,376.651Z" transform="translate(56.222 172.759)" fill="#961d55"/>
        <path id="Path_1956" data-name="Path 1956" d="M210.262,424a7.741,7.741,0,1,0-7.721,7.741A7.741,7.741,0,0,0,210.262,424Z" transform="translate(-27.659 221.361)" fill="#961d55"/>
        <path id="Path_1957" data-name="Path 1957" d="M172.842,213.981a7.741,7.741,0,1,0-7.741,7.741A7.741,7.741,0,0,0,172.842,213.981Z" transform="translate(-66.069 5.787)" fill="#961d55"/>
        <path id="Path_1958" data-name="Path 1958" d="M398.142,281.921a7.741,7.741,0,1,0-7.741,7.741A7.741,7.741,0,0,0,398.142,281.921Z" transform="translate(165.19 75.524)" fill="#961d55"/>
        <path id="Path_1959" data-name="Path 1959" d="M438.612,320.941a7.741,7.741,0,1,0-7.64,7.7,7.741,7.741,0,0,0,7.64-7.7Z" transform="translate(206.73 115.535)" fill="#961d55"/>
        <path id="Path_1960" data-name="Path 1960" d="M275.182,132.261A7.741,7.741,0,1,0,267.441,140,7.741,7.741,0,0,0,275.182,132.261Z" transform="translate(38.978 -78.094)" fill="#961d55"/>
        <path id="Path_1961" data-name="Path 1961" d="M288.932,109.351a7.741,7.741,0,1,0-7.741,7.741A7.741,7.741,0,0,0,288.932,109.351Z" transform="translate(53.091 -101.61)" fill="#961d55"/>
        <path id="Path_1962" data-name="Path 1962" d="M218.561,136.031a3.871,3.871,0,1,0-3.871,3.871,3.871,3.871,0,0,0,3.871-3.871Z" transform="translate(-11.195 -70.252)" fill="#961d55"/>
        <path id="Path_1963" data-name="Path 1963" d="M343.811,163.141a3.87,3.87,0,1,0-3.87,3.871A3.871,3.871,0,0,0,343.811,163.141Z" transform="translate(117.367 -42.425)" fill="#961d55"/>
        <path id="Path_1964" data-name="Path 1964" d="M131.5,137.181a3.85,3.85,0,1,0-1.128,2.743,3.871,3.871,0,0,0,1.128-2.743Z" transform="translate(-100.557 -69.072)" fill="#961d55"/>
        <path id="Path_1965" data-name="Path 1965" d="M189.921,202.091a3.871,3.871,0,1,0-3.85,3.87A3.87,3.87,0,0,0,189.921,202.091Z" transform="translate(-40.592 -2.445)" fill="#961d55"/>
        <path id="Path_1966" data-name="Path 1966" d="M177.321,243.331a3.87,3.87,0,1,0-3.87,3.871A3.87,3.87,0,0,0,177.321,243.331Z" transform="translate(-53.525 39.886)" fill="#961d55"/>
        <path id="Path_1967" data-name="Path 1967" d="M201.381,345.671a3.871,3.871,0,1,0-3.871,3.871A3.87,3.87,0,0,0,201.381,345.671Z" transform="translate(-28.829 144.932)" fill="#961d55"/>
        <path id="Path_1968" data-name="Path 1968" d="M120.051,328.871a3.871,3.871,0,1,0-3.87,3.871,3.87,3.87,0,0,0,3.87-3.871Z" transform="translate(-112.31 127.688)" fill="#961d55"/>
        <path id="Path_1969" data-name="Path 1969" d="M364.811,218.511a3.87,3.87,0,1,0-3.87,3.871,3.87,3.87,0,0,0,3.87-3.871Z" transform="translate(138.923 14.409)" fill="#961d55"/>
        <path id="Path_1970" data-name="Path 1970" d="M297.611,365.961a3.871,3.871,0,1,0-3.871,3.871,3.87,3.87,0,0,0,3.871-3.871Z" transform="translate(69.946 165.759)" fill="#961d55"/>
        <path id="Path_1971" data-name="Path 1971" d="M286.531,396.841a3.85,3.85,0,1,0-1.128,2.743A3.87,3.87,0,0,0,286.531,396.841Z" transform="translate(58.573 197.455)" fill="#961d55"/>
        <path id="Path_1972" data-name="Path 1972" d="M442.711,304.811a3.87,3.87,0,1,0-3.871,3.871,3.87,3.87,0,0,0,3.871-3.871Z" transform="translate(218.883 102.991)" fill="#961d55"/>
        <circle id="Ellipse_137" data-name="Ellipse 137" cx="3.871" cy="3.871" r="3.871" transform="translate(184.933 167.932)" fill="#961d55"/>
        <circle id="Ellipse_138" data-name="Ellipse 138" cx="3.871" cy="3.871" r="3.871" transform="translate(482.841 370.657)" fill="#961d55"/>
        <circle id="Ellipse_139" data-name="Ellipse 139" cx="3.871" cy="3.871" r="3.871" transform="translate(103.673 116.845)" fill="#961d55"/>
        <g id="Group_7919" data-name="Group 7919" opacity="0.8">
          <path id="Path_1973" data-name="Path 1973" d="M190.412,170.451a7.741,7.741,0,1,0-7.741,7.741,7.741,7.741,0,0,0,7.741-7.741Z" transform="translate(-48.034 -38.894)" fill="#961d55"/>
          <path id="Path_1974" data-name="Path 1974" d="M130.842,254.461A7.741,7.741,0,1,0,123.1,262.2,7.741,7.741,0,0,0,130.842,254.461Z" transform="translate(-109.179 47.337)" fill="#961d55"/>
          <path id="Path_1975" data-name="Path 1975" d="M291.982,376.651a7.741,7.741,0,1,0-7.741,7.741A7.741,7.741,0,0,0,291.982,376.651Z" transform="translate(56.222 172.759)" fill="#961d55"/>
          <path id="Path_1976" data-name="Path 1976" d="M210.262,424a7.741,7.741,0,1,0-7.721,7.741A7.741,7.741,0,0,0,210.262,424Z" transform="translate(-27.659 221.361)" fill="#961d55"/>
          <path id="Path_1977" data-name="Path 1977" d="M172.842,213.981a7.741,7.741,0,1,0-7.741,7.741A7.741,7.741,0,0,0,172.842,213.981Z" transform="translate(-66.069 5.787)" fill="#961d55"/>
          <path id="Path_1978" data-name="Path 1978" d="M398.142,281.921a7.741,7.741,0,1,0-7.741,7.741A7.741,7.741,0,0,0,398.142,281.921Z" transform="translate(165.19 75.524)" fill="#961d55"/>
          <path id="Path_1979" data-name="Path 1979" d="M438.612,320.941a7.741,7.741,0,1,0-7.64,7.7,7.741,7.741,0,0,0,7.64-7.7Z" transform="translate(206.73 115.535)" fill="#961d55"/>
          <path id="Path_1980" data-name="Path 1980" d="M275.182,132.261A7.741,7.741,0,1,0,267.441,140,7.741,7.741,0,0,0,275.182,132.261Z" transform="translate(38.978 -78.094)" fill="#961d55"/>
          <path id="Path_1981" data-name="Path 1981" d="M288.932,109.351a7.741,7.741,0,1,0-7.741,7.741A7.741,7.741,0,0,0,288.932,109.351Z" transform="translate(53.091 -101.61)" fill="#961d55"/>
          <path id="Path_1982" data-name="Path 1982" d="M218.561,136.031a3.871,3.871,0,1,0-3.871,3.871,3.871,3.871,0,0,0,3.871-3.871Z" transform="translate(-11.195 -70.252)" fill="#961d55"/>
          <path id="Path_1983" data-name="Path 1983" d="M343.811,163.141a3.87,3.87,0,1,0-3.87,3.871A3.871,3.871,0,0,0,343.811,163.141Z" transform="translate(117.367 -42.425)" fill="#961d55"/>
          <path id="Path_1984" data-name="Path 1984" d="M131.5,137.181a3.85,3.85,0,1,0-1.128,2.743,3.871,3.871,0,0,0,1.128-2.743Z" transform="translate(-100.557 -69.072)" fill="#961d55"/>
          <path id="Path_1985" data-name="Path 1985" d="M189.921,202.091a3.871,3.871,0,1,0-3.85,3.87A3.87,3.87,0,0,0,189.921,202.091Z" transform="translate(-40.592 -2.445)" fill="#961d55"/>
          <path id="Path_1986" data-name="Path 1986" d="M177.321,243.331a3.87,3.87,0,1,0-3.87,3.871A3.87,3.87,0,0,0,177.321,243.331Z" transform="translate(-53.525 39.886)" fill="#961d55"/>
          <path id="Path_1987" data-name="Path 1987" d="M201.381,345.671a3.871,3.871,0,1,0-3.871,3.871A3.87,3.87,0,0,0,201.381,345.671Z" transform="translate(-28.829 144.932)" fill="#961d55"/>
          <path id="Path_1988" data-name="Path 1988" d="M120.051,328.871a3.871,3.871,0,1,0-3.87,3.871,3.87,3.87,0,0,0,3.87-3.871Z" transform="translate(-112.31 127.688)" fill="#961d55"/>
          <path id="Path_1989" data-name="Path 1989" d="M364.811,218.511a3.87,3.87,0,1,0-3.87,3.871,3.87,3.87,0,0,0,3.87-3.871Z" transform="translate(138.923 14.409)" fill="#961d55"/>
          <path id="Path_1990" data-name="Path 1990" d="M297.611,365.961a3.871,3.871,0,1,0-3.871,3.871,3.87,3.87,0,0,0,3.871-3.871Z" transform="translate(69.946 165.759)" fill="#961d55"/>
          <path id="Path_1991" data-name="Path 1991" d="M286.531,396.841a3.85,3.85,0,1,0-1.128,2.743A3.87,3.87,0,0,0,286.531,396.841Z" transform="translate(58.573 197.455)" fill="#961d55"/>
          <path id="Path_1992" data-name="Path 1992" d="M442.711,304.811a3.87,3.87,0,1,0-3.871,3.871,3.87,3.87,0,0,0,3.871-3.871Z" transform="translate(218.883 102.991)" fill="#961d55"/>
          <circle id="Ellipse_140" data-name="Ellipse 140" cx="3.871" cy="3.871" r="3.871" transform="translate(184.933 167.932)" fill="#961d55"/>
          <circle id="Ellipse_141" data-name="Ellipse 141" cx="3.871" cy="3.871" r="3.871" transform="translate(482.841 370.657)" fill="#961d55"/>
          <circle id="Ellipse_142" data-name="Ellipse 142" cx="3.871" cy="3.871" r="3.871" transform="translate(103.673 116.845)" fill="#961d55"/>
        </g>
      </g>
      <g id="Character--inject-1" transform="translate(212.72 237.075)">
        <path id="Path_2067" data-name="Path 2067" d="M282.529,234.173s-20.953.851-33.031-4.316-21.825.588-25.27,9.767,3.161,18.968,19.819,28.147,27.58,6.89,34.186-.567S293.452,241.265,282.529,234.173Z" transform="translate(-46.695 -64.255)" fill="#fff"/>
        <path id="Path_2068" data-name="Path 2068" d="M263.95,275.232c-5.289,0-11.834-1.682-19.879-6.079-21.44-11.834-22.858-22.514-20.264-29.383a18.846,18.846,0,0,1,10.132-10.943,20.609,20.609,0,0,1,16.455.588c11.713,5.026,32.423,4.235,32.585,4.235h.324l.284.182a12.26,12.26,0,0,1,5.512,9.018c1.236,9.281-5.248,20.589-9.626,25.533A20,20,0,0,1,263.95,275.232Zm-22.818-45.858a16.211,16.211,0,0,0-6.383,1.277,16.84,16.84,0,0,0-9.058,9.788c-4.174,11.1,8.227,20.751,19.353,26.891,14.347,7.923,25.736,7.8,32.93-.344,4.458-5.026,10.132-15.766,9.139-23.912a10.335,10.335,0,0,0-4.357-7.437c-2.837,0-21.7.507-33.132-4.4A21.826,21.826,0,0,0,241.132,229.373Z" transform="translate(-47.204 -64.786)" fill="#263238"/>
        <path id="Path_2069" data-name="Path 2069" d="M266.93,235.909s-12.159,1.074-15.624,1.074-4.742-2.715-6.768-.669-7.457-3.4-7.457-3.4a10.74,10.74,0,0,1-4.053,10.132c-5.411,4.742,3.4,18.968,33.9,15.583S266.93,235.909,266.93,235.909Z" transform="translate(-38.289 -59.122)" opacity="0.17"/>
        <path id="Path_2070" data-name="Path 2070" d="M246.964,230.181a19.92,19.92,0,0,0-12.625-3.749c-7.761.284-15.219,12.159-14.935,16.374.344,5.269,7.741,12.929,14.935,14.935S251.827,244.244,246.964,230.181Z" transform="translate(-50.746 -65.795)" fill="#263238"/>
        <path id="Path_2071" data-name="Path 2071" d="M236.14,259.45a5.835,5.835,0,0,1-1.581-.223c-7.376-2.026-15.279-10.132-15.664-15.827-.182-2.817,2.29-7.842,5.775-11.713a15.239,15.239,0,0,1,10.132-5.755,20.629,20.629,0,0,1,13.314,4.053l.223.182.1.263a26.344,26.344,0,0,1-5.208,25.371,10.254,10.254,0,0,1-7.093,3.648Zm-.527-31.491h-.73a13.314,13.314,0,0,0-8.714,5.086c-3.425,3.789-5.39,8.248-5.249,10.132.284,4.519,7.032,12.017,14.185,14.023,2.026.547,4.377-.527,6.647-2.959a24.176,24.176,0,0,0,4.863-23.02,19.393,19.393,0,0,0-11-3.263Z" transform="translate(-51.27 -66.309)" fill="#263238"/>
        <path id="Path_2072" data-name="Path 2072" d="M209.8,242.256a27.4,27.4,0,0,1-10.132-11.186c-2.877-6.91,5.168-18.4,10.335-18.4s8.106,4.884,5.755,9.768-5.451,12.929-4.316,15.523S211.825,244.566,209.8,242.256Z" transform="translate(-71.618 -79.897)" fill="#fff"/>
        <path id="Path_2073" data-name="Path 2073" d="M211.358,244.473a2.432,2.432,0,0,1-1.743-.912,28.086,28.086,0,0,1-10.335-11.591c-1.763-4.256.223-9.727,2.675-13.415,2.026-3.08,5.411-6.383,8.592-6.383a7.4,7.4,0,0,1,6.424,3.364,8.106,8.106,0,0,1,.243,7.863c-3.222,6.849-5.026,13.01-4.3,14.651.912,2.026.851,5.208-.628,6.079a1.7,1.7,0,0,1-.932.344Zm0-2.026Zm-.892-28.249c-2.026,0-4.722,2.209-6.91,5.492s-4.053,7.984-2.493,11.49a26.587,26.587,0,0,0,9.646,10.72l.243.2.243.263a5.046,5.046,0,0,0-.2-3.486c-1.52-3.425,2.918-13.375,4.316-16.353a6.079,6.079,0,0,0-.122-5.917,5.451,5.451,0,0,0-4.641-2.412Z" transform="translate(-72.084 -80.412)" fill="#263238"/>
        <path id="Path_2074" data-name="Path 2074" d="M255.02,242.255a97.973,97.973,0,0,1-6.3-17.529c-2.594-10.132-6.079-11.206-10.132-11.206S231.979,219.6,228.453,221s-12.341-.871-17.509.871-7.478,13.78-4.6,20.67S218.4,256.622,228.169,259.2s13.212,2.878,14.084,2.594S257.046,257.474,255.02,242.255Z" transform="translate(-65.428 -79.025)" fill="#fff"/>
        <path id="Path_2075" data-name="Path 2075" d="M242.018,263.377a67.462,67.462,0,0,1-13.537-2.7c-9.97-2.634-19.434-9.889-22.494-17.245a23.75,23.75,0,0,1,.588-17.123,8.45,8.45,0,0,1,4.62-4.9,30.092,30.092,0,0,1,10.294-.567,20.813,20.813,0,0,0,7.153-.263,12.261,12.261,0,0,0,3.708-3.222c2.026-2.026,4.053-4.337,6.748-4.337,4.9,0,8.471,2.026,11.024,11.976a97.96,97.96,0,0,0,6.241,17.306v.324c1.52,11.571-5.836,18.238-13.253,20.609A3.768,3.768,0,0,1,242.018,263.377Zm-25.027-40.671a16.658,16.658,0,0,0-5.147.628,6.728,6.728,0,0,0-3.425,3.81,21.886,21.886,0,0,0-.567,15.523c2.8,6.708,11.9,13.618,21.156,16.07,11.47,3.04,13.314,2.655,13.5,2.594,3.3-1.054,13.577-5.39,11.976-18.238a100.311,100.311,0,0,1-6.322-17.549c-2.472-9.666-5.573-10.456-9.058-10.456-1.885,0-3.526,1.783-5.248,3.688a13.983,13.983,0,0,1-4.418,3.708,20.853,20.853,0,0,1-8.106.426C219.97,222.787,218.45,222.706,216.991,222.706Z" transform="translate(-65.862 -79.538)" fill="#263238"/>
        <path id="Path_2076" data-name="Path 2076" d="M213.521,200.512l-15.766,9.18a2.026,2.026,0,0,0-.507,2.959l31.815,37.368a2.026,2.026,0,0,0,2.574.365l13.476-9.3a2.026,2.026,0,0,0,.426-2.817L216.034,201A2.026,2.026,0,0,0,213.521,200.512Z" transform="translate(-73.922 -92.624)" fill="#263238"/>
        <path id="Path_2077" data-name="Path 2077" d="M231.073,252.2a2.938,2.938,0,0,1-2.249-1.054L197.008,213.8a2.979,2.979,0,0,1,.77-4.5l15.745-9.1a3,3,0,0,1,3.83.73l29.525,37.246a2.938,2.938,0,0,1,.608,2.27,3.02,3.02,0,0,1-1.236,2.026l-13.476,9.281a2.959,2.959,0,0,1-1.7.446Zm-16.049-50.458a.79.79,0,0,0-.466.142l-15.746,9.16a.932.932,0,0,0-.466.669.973.973,0,0,0,.2.77l31.815,37.368a.952.952,0,0,0,1.256.162l13.476-9.3a.811.811,0,0,0,.385-.628.932.932,0,0,0-.182-.729l-29.525-37.246a.993.993,0,0,0-.75-.365Zm-.973-.73Z" transform="translate(-74.451 -93.103)" fill="#263238"/>
        <path id="Path_2078" data-name="Path 2078" d="M229.745,222.639s-8.633,6.89-14.368,2.026,5.167-16.09,14.368-16.374,11.47,21.541,11.186,26.141" transform="translate(-56.507 -84.395)" fill="#fff"/>
        <path id="Path_2079" data-name="Path 2079" d="M241.437,235.937h0a1.054,1.054,0,0,1-.952-1.074c.243-3.688-1.277-18.238-6.262-23.284a5.026,5.026,0,0,0-3.891-1.783c-6.2.2-13.091,5.715-14.631,10.132a3.708,3.708,0,0,0,.892,4.438c5.046,4.3,12.99-2.026,13.071-2.026a1.033,1.033,0,0,1,1.439.142,1.054,1.054,0,0,1-.162,1.439c-.385.3-9.342,7.356-15.664,2.026a5.735,5.735,0,0,1-1.5-6.647c1.8-5.127,9.4-11.287,16.5-11.51a6.951,6.951,0,0,1,5.33,2.452c5.836,6.079,7.072,21.42,6.849,24.824A1.013,1.013,0,0,1,241.437,235.937Z" transform="translate(-57.013 -84.906)" fill="#263238"/>
        <path id="Path_2080" data-name="Path 2080" d="M216.555,250.281s-11.206-5.755-13.212-11.774,2.29-21.257,8.612-22.98,7.174,4.053,6.606,8.9-2.026,8.612-1.155,12.361,5.755,6.89,5.755,10.9S218.277,251.72,216.555,250.281Z" transform="translate(-67.735 -77.283)" fill="#fff"/>
        <path id="Path_2081" data-name="Path 2081" d="M219.887,252.727a5.674,5.674,0,0,1-3.384-1.033c-1.175-.628-11.571-6.2-13.618-12.321-1.4-4.215,0-12.382,3.08-18.238a11.368,11.368,0,0,1,6.241-6.079,6.079,6.079,0,0,1,5.775.831c2.391,2.026,2.452,6.079,2.026,9.18-.2,1.6-.466,3.04-.73,4.438a18.44,18.44,0,0,0-.446,7.559,13.01,13.01,0,0,0,2.574,4.4,11.55,11.55,0,0,1,3.2,6.748,4.053,4.053,0,0,1-2.411,4.053,5.493,5.493,0,0,1-2.31.466Zm-5.33-35.949a7.031,7.031,0,0,0-1.824.284,9.524,9.524,0,0,0-4.965,5.086c-2.8,5.208-4.174,12.949-2.959,16.6,1.864,5.573,12.6,11.145,12.726,11.186l.182.122a4.053,4.053,0,0,0,3.708.345,2.148,2.148,0,0,0,1.236-2.148,10.132,10.132,0,0,0-2.776-5.512,14.185,14.185,0,0,1-2.938-5.167,20.142,20.142,0,0,1,.425-8.41c.243-1.358.507-2.776.689-4.3.426-3.567,0-6.262-1.4-7.4a3.182,3.182,0,0,0-2.108-.689Z" transform="translate(-68.251 -77.844)" fill="#263238"/>
        <path id="Path_2082" data-name="Path 2082" d="M224.477,252.507s-18.522-2.857-16.8-17.65c.669-5.735,4.316-15.806,10.639-15.806s2.857,14.651,2.857,14.651,3.161-4.884,10.923,1.155" transform="translate(-62.891 -73.349)" fill="#fff"/>
        <path id="Path_2083" data-name="Path 2083" d="M224.985,254.023h-.142c-.2,0-19.494-3.182-17.65-18.765.628-5.451,4.316-16.7,11.632-16.7a4.053,4.053,0,0,1,3.263,1.56c2.128,2.675,1.641,8.329,1.094,11.713a6.3,6.3,0,0,1,1.358-.385c2.533-.446,5.451.608,8.693,3.121a1.034,1.034,0,0,1,.182,1.439,1.054,1.054,0,0,1-1.439.162,9.949,9.949,0,0,0-7.052-2.736,3.648,3.648,0,0,0-2.391,1.358l-3.06,4.519L220.709,234c.608-2.655,1.8-10.132-.2-12.625a2.027,2.027,0,0,0-1.682-.79c-5.573,0-9.018,9.707-9.626,14.915-1.6,13.638,15.239,16.414,15.948,16.516a1.008,1.008,0,0,1-.162,2.006Z" transform="translate(-63.399 -73.852)" fill="#263238"/>
        <ellipse id="Ellipse_144" data-name="Ellipse 144" cx="63.164" cy="61.928" rx="63.164" ry="61.928" transform="translate(204.952 1.013)" fill="#fff"/>
        <path id="Path_2084" data-name="Path 2084" d="M300.988,273.033c-35.4,0-64.178-28.249-64.178-62.941s28.776-62.941,64.178-62.941,64.178,28.249,64.178,62.941S336.369,273.033,300.988,273.033Zm0-123.856c-34.267,0-62.151,27.337-62.151,60.915s27.884,60.915,62.151,60.915,62.151-27.337,62.151-60.915-27.884-60.915-62.151-60.915Z" transform="translate(-32.871 -147.15)" fill="#263238"/>
        <ellipse id="Ellipse_145" data-name="Ellipse 145" cx="50.702" cy="49.709" rx="50.702" ry="49.709" transform="translate(217.414 13.233)" opacity="0.17"/>
        <path id="Path_2085" data-name="Path 2085" d="M362.253,202.906a61.32,61.32,0,0,0-24.317-48.756c5.816,60.793-29.079,38.887-70.6,51.006-14.185,4.053-23.02,9.95-28.674,15.948a63.043,63.043,0,0,0,60.388,43.71C333.964,264.814,362.253,237.092,362.253,202.906Z" transform="translate(-30.973 -139.965)" fill="#263238"/>
        <path id="Path_2086" data-name="Path 2086" d="M299.653,266.977a63.732,63.732,0,0,1-61.361-44.44l-.182-.567.405-.446c6.667-7.052,16.475-12.523,29.14-16.212a147.926,147.926,0,0,1,33.051-4.8c13.861-.892,24.824-1.581,31.207-9.078,5.573-6.525,7.356-17.995,5.613-36.071l-.2-2.31,1.844,1.419a62.171,62.171,0,0,1,24.662,49.567C363.831,238.728,335.035,266.977,299.653,266.977ZM240.4,222.395a61.705,61.705,0,0,0,59.253,42.555c34.267,0,62.151-27.337,62.151-60.915a60.084,60.084,0,0,0-22.048-46.608c1.4,17.306-.608,28.532-6.3,35.22-6.951,8.106-18.846,8.9-32.626,9.788a146.471,146.471,0,0,0-32.545,4.823c-12.159,3.506-21.48,8.633-27.884,15.239Z" transform="translate(-31.537 -141.094)" fill="#263238"/>
        <path id="Path_2087" data-name="Path 2087" d="M262.206,161.533a9.707,9.707,0,1,1-13.7,0,9.707,9.707,0,0,1,13.7,0Z" transform="translate(-23.798 -135.29)" fill="#fff"/>
        <path id="Path_2088" data-name="Path 2088" d="M255.828,179.589h0a10.679,10.679,0,1,1,.02-21.359h0a10.659,10.659,0,0,1,7.579,3.141h0a10.72,10.72,0,0,1-7.579,18.238Zm0-19.393a8.693,8.693,0,0,0,0,17.367h0a8.64,8.64,0,0,0,6.14-14.753h0a8.612,8.612,0,0,0-6.079-2.553Z" transform="translate(-24.269 -135.777)" fill="#263238"/>
        <path id="Path_2089" data-name="Path 2089" d="M292.956,252.268s-41.988,2.249-65.008,9.93-29.809,12.645-30.7,23.487-.466,21.663,25.29,29.789,53.275,6.323,73.58,4.053,25.29-21.683,25.29-36.577S305.6,251.356,292.956,252.268Z" transform="translate(-73.718 -39.289)" fill="#fff"/>
        <path id="Path_2090" data-name="Path 2090" d="M266.187,322.987a144.967,144.967,0,0,1-43.467-6.079c-25.7-8.106-26.952-19.231-25.979-30.842.932-11.227,7.68-16.455,31.39-24.317,22.8-7.6,64.481-9.95,65.272-9.99,5.593-.385,12.159,2.432,17.812,7.782,7.214,6.728,11.713,15.908,11.713,23.932,0,10.416-2.553,34.956-26.182,37.591a278.814,278.814,0,0,1-30.559,1.925Zm28.269-69.223h-.912c-.426,0-42.11,2.33-64.745,9.889s-29.181,12.422-30.012,22.595c-.77,9.119-1.7,20.447,24.581,28.755,25.229,7.964,52.363,6.323,73.175,4.053,22.007-2.452,24.317-25.675,24.317-35.564,0-7.478-4.235-16.09-11.064-22.453-4.9-4.7-10.517-7.275-15.34-7.275Zm-.993-.973Z" transform="translate(-74.224 -39.812)" fill="#263238"/>
        <path id="Path_2091" data-name="Path 2091" d="M271.808,263.5l-5.431,16.212s-13.557-17.63-14.894-10.841,0,11.51-2.026,11.51-7.457-5.411-7.457-2.7a6.971,6.971,0,0,1-2.7,4.742,27.554,27.554,0,0,0-6.789-2.027h-7.457c-2.715,0-9.484-4.742-9.484-4.742s-3.384,4.053-3.384,6.789,1.358,20.264,8.106,23.041,36.6,2.715,44.724,1.358,21.014-1.358,21.7-7.457S277.219,256.058,271.808,263.5Z" transform="translate(-58.143 -28.732)" opacity="0.17"/>
        <path id="Path_2092" data-name="Path 2092" d="M246.642,280.323c-15.239,0-33.355-1.783-33.538-1.8a1.018,1.018,0,1,1,.2-2.027c.182,0,18.238,1.8,33.335,1.8s34.105-.892,34.287-.892a1.013,1.013,0,0,1,1.074.952,1.034,1.034,0,0,1-.973,1.074C280.849,279.431,261.861,280.323,246.642,280.323Z" transform="translate(-58.145 -14.392)" fill="#263238"/>
        <path id="Path_2093" data-name="Path 2093" d="M228.486,357.939s-9.93,18.056-14.449,22.108-17.975,2.27-38.239-10.862-35.665-35.22-38.381-45.615a15.34,15.34,0,0,1,13.091-19.859c9.038-.912,17.164,13.091,26.648,17.164a51.148,51.148,0,0,0,26.182,4.053C210.916,324.077,232.539,344.382,228.486,357.939Z" transform="translate(-135.617 13.508)" fill="#fff"/>
        <path id="Path_2094" data-name="Path 2094" d="M208,383.463c-6.809,0-17.529-3.364-32.322-12.888-20.71-13.354-36.091-35.787-38.827-46.2a17.144,17.144,0,0,1,2.29-14.307,16.212,16.212,0,0,1,11.693-6.829c5.735-.588,10.8,4.053,16.212,9a43.67,43.67,0,0,0,10.983,8.248,50.662,50.662,0,0,0,25.675,4.053c4.357-.486,12.4,4.8,18.745,12.361,6.647,7.923,9.423,15.908,7.64,21.906v.2c-.426.729-10.132,18.238-14.672,22.392A10.741,10.741,0,0,1,208,383.462Zm-56.214-78.241a4.506,4.506,0,0,0-.75,0,14.186,14.186,0,0,0-10.234,5.958,15.137,15.137,0,0,0-2.026,12.645c2.634,10.132,17.671,31.937,37.955,45.007,19.738,12.706,33.092,14.59,37.145,10.923s13.415-20.264,14.185-21.764c1.54-5.33-1.094-12.584-7.275-19.92-5.735-6.849-13.354-12.057-16.941-11.632a52.525,52.525,0,0,1-26.709-4.053,45.333,45.333,0,0,1-11.571-8.612C160.866,309.355,156.347,305.221,151.787,305.221Zm77.228,53.215Z" transform="translate(-136.146 13.012)" fill="#263238"/>
        <path id="Path_2095" data-name="Path 2095" d="M211.846,272.829s-19.7,20.1-29.181,40.428-16.6,36.131-10.963,47.419c1.723,3.485,15,21.237,25.817,21.237s47.074-27.965,57.693-57.693c5.471-15.32,3.708-25.594,3.708-25.594S225.768,254.1,211.846,272.829Z" transform="translate(-101.752 -22.867)" fill="#fff"/>
        <path id="Path_2096" data-name="Path 2096" d="M198.049,383.44c-11.51,0-25.128-18.562-26.729-21.8-6.079-12,1.864-28.816,10.963-48.29s28.208-39.536,29.3-40.671a11.47,11.47,0,0,1,9.5-4.945c16.049,0,38.239,29.546,39.171,30.8l.142.2v.243c0,.426,1.743,10.7-3.749,26.1C246.319,354.138,209.944,383.44,198.049,383.44ZM221.09,269.757a9.4,9.4,0,0,0-7.9,4.195l-.1.1c-.182.2-19.677,20.264-28.978,40.144-8.856,19.008-16.515,35.4-10.983,46.608,1.479,2.938,14.509,20.67,24.925,20.67s46.041-27.114,56.74-57c4.884-13.638,3.911-23.264,3.708-24.865-2.026-2.7-23.02-29.849-37.408-29.849Zm-8.714,3.587Z" transform="translate(-102.282 -23.381)" fill="#263238"/>
        <path id="Path_2097" data-name="Path 2097" d="M230.01,277.2s-15.583-13.557-12.868-.669,7.457,25.736,4.742,32.423c-2.371,5.937-12.868,8.106-10.132,9.484s10.132-6.079-.669,3.384-14.185,9.5-13.557,13.557a20.385,20.385,0,0,0,2.026,6.079c.689,2.026-5.411,10.132-8.795,16.212s-12.929,8.592-8.815,14.915,21.683-9.484,29.14-15.583,16.941-10.862,21.014-19.657,10.132-20.264,11.51-31.856C243.567,305.676,248.308,283.3,230.01,277.2Z" transform="translate(-90.228 -20.049)" opacity="0.17"/>
        <path id="Path_2098" data-name="Path 2098" d="M182.873,369.707h-.344a1.013,1.013,0,0,1-.608-1.3c.182-.527,4.722-13.05,11.308-16.8,5.107-2.938,8.471-8.491,12.037-14.367.669-1.115,1.358-2.249,2.026-3.364a31.754,31.754,0,0,1,8.268-8.106,46.813,46.813,0,0,0,11.632-11.733c7.012-10.537,10.639-34.591,10.679-34.835a1.033,1.033,0,0,1,1.155-.851,1.013,1.013,0,0,1,.851,1.155c-.162.993-3.729,24.743-11,35.665a48.9,48.9,0,0,1-12.159,12.159,29.809,29.809,0,0,0-7.8,7.64c-.689,1.115-1.378,2.229-2.026,3.344-3.708,6.079-7.194,11.875-12.767,15.056-5.937,3.4-10.355,15.624-10.4,15.745A1.013,1.013,0,0,1,182.873,369.707Z" transform="translate(-89.274 -12.485)" fill="#263238"/>
        <path id="Path_2099" data-name="Path 2099" d="M191.575,348.886c-13.557-4.965-25.736-14.894-28.005-22.129-1.8-5.755-7.032-17.833-9.078-22.473a9.442,9.442,0,0,0-4.053-.547A15.34,15.34,0,0,0,137.347,323.6c2.715,10.4,18.056,32.524,38.381,45.615s33.862,14.894,38.381,10.821c2.715-2.452,7.437-10.011,10.72-15.624C216.926,354.966,204.058,353.446,191.575,348.886Z" transform="translate(-135.688 13.544)" fill="#fff"/>
        <path id="Path_2100" data-name="Path 2100" d="M208,383.455c-6.809,0-17.529-3.364-32.322-12.888-20.71-13.354-36.091-35.787-38.827-46.2a17.144,17.144,0,0,1,2.29-14.307,16.211,16.211,0,0,1,11.693-6.829,10.558,10.558,0,0,1,4.438.588l.405.162.182.405c2.148,4.863,7.336,16.819,9.139,22.575,2.229,7.133,14.509,16.759,27.377,21.48,3.121,1.155,6.3,2.026,9.382,3.04,9.362,2.837,18.238,5.512,24.317,12.787l.446.547-.365.628c-3.425,5.836-8.106,13.334-10.923,15.867A10.741,10.741,0,0,1,208,383.455Zm-56.295-78.241h-.669a14.185,14.185,0,0,0-10.234,5.958,15.138,15.138,0,0,0-2.026,12.645c2.634,10.132,17.671,31.937,37.955,45.007,19.738,12.706,33.092,14.57,37.145,10.923,2.026-1.783,5.593-7.011,10.132-14.753-5.735-6.424-14.084-8.937-22.919-11.612-3.1-.952-6.322-1.9-9.5-3.08h0c-13.6-4.985-26.182-15-28.593-22.777-1.723-5.512-6.647-16.88-8.876-21.967A8.7,8.7,0,0,0,151.706,305.214Z" transform="translate(-136.146 13.019)" fill="#263238"/>
        <path id="Path_2101" data-name="Path 2101" d="M219.648,372.022c-4.722-7.417-15.36-10.538-26.769-14.894-15.34-5.877-37.915-24.317-39.718-37.023-1.3-9.119-5.634-13.76-7.964-15.644a15.462,15.462,0,0,0-7.842,18.339c2.715,10.4,18.056,32.524,38.381,45.615s33.862,14.894,38.381,10.821A42.214,42.214,0,0,0,219.648,372.022Z" transform="translate(-135.655 14.32)" fill="#fff"/>
        <path id="Path_2102" data-name="Path 2102" d="M208.026,382.76c-6.809,0-17.529-3.364-32.322-12.888-20.71-13.354-36.091-35.787-38.827-46.2a16.516,16.516,0,0,1,8.369-19.515l.588-.284.507.405a24.8,24.8,0,0,1,8.329,16.212c1.7,12.017,23.284,30.255,39.09,36.334l4.337,1.621c9.99,3.708,18.623,6.93,22.939,13.678l.344.547-.365.547a41.542,41.542,0,0,1-5.715,7.437,10.741,10.741,0,0,1-7.275,2.107Zm-62.455-76.478a14.509,14.509,0,0,0-6.728,16.88c2.634,10.132,17.671,31.937,37.955,45.007,19.738,12.706,33.092,14.57,37.145,10.923a36.474,36.474,0,0,0,4.965-6.464c-4.053-5.816-12.159-8.835-21.561-12.321l-4.337-1.641c-14.55-5.552-38.5-24.317-40.387-37.814a23.162,23.162,0,0,0-7.052-14.57Z" transform="translate(-136.171 13.715)" fill="#263238"/>
        <path id="Path_2103" data-name="Path 2103" d="M166.186,318.139s23.345,12.746,32.91,30.782a10.821,10.821,0,0,0,6.708-7.782c1.783-6.363-10.963-19.819-23.345-26.182S165.476,311.411,166.186,318.139Z" transform="translate(-105.436 21.432)" fill="#a7205f"/>
        <path id="Path_2104" data-name="Path 2104" d="M199.022,350.641l-.385-.709c-9.281-17.569-32.261-30.255-32.423-30.4l-.466-.243v-.547c-.426-4.053,1.033-5.937,2.33-6.809,2.938-2.026,8.106-1.135,15.421,2.634,12.382,6.363,25.837,20.264,23.872,27.357a11.814,11.814,0,0,1-7.437,8.47Zm-31.43-32.606c3.425,2.026,23.264,13.678,32.423,30.133A10.132,10.132,0,0,0,205.3,341.4c1.54-5.532-10.416-18.623-22.838-25.027-8.633-4.438-12.159-3.627-13.354-2.756a4.62,4.62,0,0,0-1.52,4.418Z" transform="translate(-105.89 20.908)" fill="#263238"/>
        <path id="Path_2105" data-name="Path 2105" d="M191,278.9s2.979-16.333,25.229-18.805,28.208,40.529,21.278,51.938C237.608,312.03,215.317,279.89,191,278.9Z" transform="translate(-79.893 -31.326)" fill="#263238"/>
        <path id="Path_2106" data-name="Path 2106" d="M238.193,314.379,237.3,313.1c-.223-.324-22.291-31.754-45.717-32.707H190.43l.2-1.135c0-.182,3.364-17.1,26.121-19.636,6.93-.77,13.01,2.614,17.569,9.767,8.248,12.929,9.626,35.584,4.681,43.71ZM192.923,278.45c21.379,1.763,40.529,26,45.068,32.139,3.648-8.552,2.026-28.715-5.37-40.164-4.174-6.566-9.443-9.545-15.644-8.835C199.083,263.576,194.078,274.823,192.923,278.45Z" transform="translate(-80.478 -31.811)" fill="#263238"/>
        <path id="Path_2107" data-name="Path 2107" d="M312.2,196.286a33.5,33.5,0,0,1,32.423-5.613c18.846,6.647,22.716,56.234,15.462,103.774s-21.683,59.8-40.124,59.8S291,347.094,291,329.707,312.2,196.286,312.2,196.286Z" transform="translate(22.752 -104.468)" fill="#fff"/>
        <path id="Path_2108" data-name="Path 2108" d="M320.451,355.746c-9.808,0-17-2.026-22.027-5.958s-7.964-10.821-7.964-19.6c0-17.265,20.427-128.862,21.278-133.6v-.324l.243-.243a34.875,34.875,0,0,1,33.416-5.816c20,7.052,23.264,58.1,16.212,104.869-6.485,42.555-18.785,60.672-41.137,60.672Zm-6.768-158.428c-1.3,7.113-21.2,116.257-21.2,132.874,0,8.227,2.351,14.185,7.214,18.015s11.551,5.512,20.751,5.512h0c14.915,0,31.207-7.011,39.131-58.949,6.829-44.825,4.053-96.033-14.813-102.66A32.747,32.747,0,0,0,313.683,197.318Z" transform="translate(22.197 -104.953)" fill="#263238"/>
        <path id="Path_2109" data-name="Path 2109" d="M310.662,201.046s8.106-11.976,26.648-6.079,12.99,34.9,12.99,58.3-14.185,76.154-21.217,83.773S301.34,345.734,297,338.662,313.377,220.622,310.662,201.046Z" transform="translate(28.299 -99.744)" opacity="0.17"/>
        <path id="Path_2110" data-name="Path 2110" d="M375.8,249.1c0-31.613-13.091-65.92-21.217-65.474,0,0-61.867,35.686-74.046,48.777-11.571,12.422-27.6,55.727-26.506,68.9-1.013,1.216-4.154,5.249-3.81,8.612-3.3,6.647-8.977,19.494-8.977,29.4,0,14,3.161,40.184,16.718,46.507s53.275,15.36,71.8,5.431c16.88-9.058,25.087-29.768,22.98-46.345a12.849,12.849,0,0,0,2.29-1.52,7.133,7.133,0,0,0,1.641-9.828C374.864,318.6,375.8,275.238,375.8,249.1Z" transform="translate(-28.324 -109.718)" fill="#fff"/>
        <path id="Path_2111" data-name="Path 2111" d="M307.511,397.305c-19.251,0-41.1-6.079-49.466-9.97-16.82-7.842-17.306-43.406-17.306-47.439,0-9.95,5.552-22.716,8.957-29.606-.182-3.364,2.411-7.012,3.81-8.734-.709-13.476,14.915-56.578,26.79-69.345s71.756-47.5,74.29-48.959l.2-.122h.243a6.3,6.3,0,0,1,4.479,2.026c8.248,7.8,17.812,37.631,17.812,64.4,0,20.487,0,68.129-18.846,84.766a8.106,8.106,0,0,1-2.29,10.375,14.383,14.383,0,0,1-1.844,1.3c1.7,15.725-5.917,37.185-23.608,46.608C324.554,396.028,316.245,397.305,307.511,397.305Zm47.844-212.169c-4.154,2.411-61.989,36.01-73.56,48.452s-27.3,55.545-26.243,68.21v.426l-.284.324c-1.885,2.229-3.83,5.471-3.587,7.822v.3l-.142.263c-3.3,6.667-8.856,19.292-8.856,28.958,0,17.569,4.235,40.043,16.212,45.6,12.969,6.079,52.688,15.2,70.926,5.451,17.164-9.22,24.317-30.235,22.453-45.332V344.9l.628-.324a10.581,10.581,0,0,0,2.026-1.4,6.079,6.079,0,0,0,1.439-8.491l-.466-.77.689-.567c18.745-15.5,18.745-63.326,18.745-83.753,0-26.344-9.241-55.4-17.184-62.921A4.986,4.986,0,0,0,355.356,185.136Z" transform="translate(-28.837 -110.219)" fill="#263238"/>
        <path id="Path_2112" data-name="Path 2112" d="M301.176,209.249s-8.106,11.51-2.7,24.317,20.994,22.291,12.159,31.167-8.106,12.159-4.053,12.888,6.079,2.7,0,3.384-14.185-.689-8.815,2.715,16.941,3.384,10.132,5.411-39.982-2.026-37.955,2.026,2.027,4.762,18.968,9.5,25.756,1.358,21.7,5.411-16.212,2.715-15.6,4.742a15.3,15.3,0,0,0,4.053,4.742s2.715.689-8.815,2.026-40.529-12.746-33.112-7.356,16.941,8.106,18.238,10.841-.689,9.484-4.053,11.53-23.73,25.736-14.915,42.7,42.028,10.841,51.512,4.053,17.61-27.114,19.656-35.24-3.384-10.841,0-11.51,5.411,1.337,4.742-3.4-4.742-8.106-4.742-10.842,2.715-2.715,8.106-7.457,7.457-6.079,7.457-11.51-.669-8.815,3.384-12.159,5.431-3.384,5.431-8.106-1.358-9.484,0-14.185a113.214,113.214,0,0,0,3.384-12.159c2.026-8.815,1.216-22.9-5.492-33.132S312.706,197.718,301.176,209.249Z" transform="translate(-15.004 -88.311)" opacity="0.17"/>
        <path id="Path_2113" data-name="Path 2113" d="M282.771,325.437a1.02,1.02,0,0,1-.709-1.743c6.241-6.241,5.755-10.659,5.33-14.57a26.33,26.33,0,0,1-.2-2.776c0-4.924,6.079-8.531,10.821-11.409l.507-.324c.871-.507,1.175-.892,1.175-1.094,0-.689-2.027-2.189-3.81-3.526-1.419-1.033-3.019-2.209-4.722-3.668a4.864,4.864,0,0,1-1.844-3.465c-.2-3.425,3.2-7.153,7.538-11.875a64.845,64.845,0,0,0,9.443-12.159c6.079-11.308.851-40.529.79-40.914a1.029,1.029,0,1,1,2.026-.365c.223,1.236,5.431,30.4-.993,42.231A66.1,66.1,0,0,1,298.4,272.3c-3.688,4.053-7.174,7.822-7.012,10.4a2.837,2.837,0,0,0,1.135,2.026c1.641,1.4,3.222,2.553,4.6,3.587,2.857,2.026,4.722,3.465,4.641,5.228a3.709,3.709,0,0,1-2.148,2.756l-.527.3c-4.053,2.493-9.828,5.9-9.828,9.686a24.312,24.312,0,0,0,.2,2.574c.446,4.053,1.013,9.281-5.917,16.212a1.033,1.033,0,0,1-.77.365Z" transform="translate(13.269 -75.759)" fill="#263238"/>
        <path id="Path_2114" data-name="Path 2114" d="M257.326,219.734c1.581-1.216,10.132.547,11.936.831,11.855,2.026,16.82,4.742,13.435,13.9-2.148,5.816-2.959,16.657-9.139,20.852-3.931,2.675-20.264-.263-24.074-5.451s4.559-26.121,4.559-26.121A9.1,9.1,0,0,1,257.326,219.734Z" transform="translate(-20.883 -73.08)" fill="#a7205f"/>
        <path id="Path_2115" data-name="Path 2115" d="M268.876,257.844c-6.829,0-16.738-2.776-19.7-6.87-4.053-5.492,3.546-24.9,4.418-27.114a10.436,10.436,0,0,1,3.607-4.418h0c1.256-.952,4.56-.811,11.794.486l.912.162c7.133,1.175,12.3,2.675,14.367,6.221,1.337,2.29,1.277,5.147-.142,9.018a53.311,53.311,0,0,0-1.54,5.471c-1.4,5.593-3.141,12.584-7.984,15.887a11.044,11.044,0,0,1-5.735,1.155Zm-10.416-36.8a8.592,8.592,0,0,0-2.938,3.485c-2.29,5.775-7.5,21.379-4.7,25.25,3.567,4.945,19.434,7.417,22.676,5.208,4.195-2.857,5.755-9.16,7.153-14.712a56.493,56.493,0,0,1,1.6-5.674c1.2-3.263,1.3-5.573.3-7.275-1.439-2.452-5.188-4.053-12.949-5.248l-.932-.162c-7.883-1.439-9.788-1.175-10.213-.871Z" transform="translate(-21.389 -73.579)" fill="#263238"/>
        <path id="Path_2116" data-name="Path 2116" d="M274.314,248.947a8.957,8.957,0,1,1-2.623-6.354A8.977,8.977,0,0,1,274.314,248.947Z" transform="translate(-12.804 -51.875)" fill="#263238"/>
        <path id="Path_2117" data-name="Path 2117" d="M265.85,259.441a9.99,9.99,0,1,1,9.99-9.97,9.99,9.99,0,0,1-9.99,9.97Zm0-17.934a7.964,7.964,0,1,0,7.964,7.964A7.964,7.964,0,0,0,265.85,241.507Z" transform="translate(-13.318 -52.399)" fill="#263238"/>
        <path id="Path_2118" data-name="Path 2118" d="M267.914,258.137a8.957,8.957,0,1,1-8.957-8.957A8.957,8.957,0,0,1,267.914,258.137Z" transform="translate(-19.333 -42.422)" fill="#263238"/>
        <path id="Path_2119" data-name="Path 2119" d="M259.47,268.62a9.97,9.97,0,1,1,9.97-9.97A9.97,9.97,0,0,1,259.47,268.62Zm0-17.914a7.944,7.944,0,1,0,7.944,7.944,7.944,7.944,0,0,0-7.944-7.944Z" transform="translate(-19.846 -42.935)" fill="#263238"/>
        <path id="Path_2120" data-name="Path 2120" d="M296.339,265.161c-21.075,0-33.963-5.532-34.956-5.978a5.421,5.421,0,1,1,4.4-9.909c.567.243,41.319,17.306,97.411-13.78a5.42,5.42,0,1,1,5.248,9.484C339.685,260.865,314.8,265.161,296.339,265.161Z" transform="translate(-10.957 -57.167)" fill="#a7205f"/>
        <path id="Path_2121" data-name="Path 2121" d="M296.845,266.694c-21.521,0-34.814-5.816-35.361-6.079a6.441,6.441,0,0,1,5.228-11.774c.385.182,40.954,17.063,96.479-13.719a6.465,6.465,0,0,1,4.9-.567,6.343,6.343,0,0,1,3.728,3.182,6.424,6.424,0,0,1-2.513,8.734C345.013,259.865,320.595,266.694,296.845,266.694ZM264.118,250.34a4.448,4.448,0,0,0-1.723,8.511c.527.243,13.435,5.9,34.45,5.9,23.507,0,47.6-6.748,71.615-20.042a4.418,4.418,0,1,0-4.276-7.721c-56.416,31.268-97.877,14-98.283,13.82a4.357,4.357,0,0,0-1.885-.466Z" transform="translate(-11.463 -57.686)" fill="#a7205f"/>
        <path id="Path_2122" data-name="Path 2122" d="M313.809,277.358a120.41,120.41,0,0,1-59.638-16.5,5.431,5.431,0,0,1,5.816-9.16c.608.385,49.384,30.4,98.85,3.06a5.42,5.42,0,1,1,5.248,9.484A102.315,102.315,0,0,1,313.809,277.358Z" transform="translate(-17.424 -40.568)" fill="#a7205f"/>
        <path id="Path_2123" data-name="Path 2123" d="M314.439,278.939a122.216,122.216,0,0,1-60.226-16.617,6.4,6.4,0,0,1-2.817-4.053,6.465,6.465,0,0,1,9.727-6.89c.486.3,48.878,30.133,97.8,3.04a6.431,6.431,0,0,1,6.241,11.247,103.49,103.49,0,0,1-50.722,13.273ZM257.7,252.473a4.391,4.391,0,0,0-2.371,8.106,120.087,120.087,0,0,0,59.132,16.212,101.728,101.728,0,0,0,49.77-12.807,4.418,4.418,0,1,0-4.276-7.721c-49.952,27.681-99.3-2.776-99.863-3.1a4.418,4.418,0,0,0-2.411-.689Z" transform="translate(-18.054 -41.176)" fill="#a7205f"/>
        <path id="Path_2170" data-name="Path 2170" d="M33.639,0A34.379,34.379,0,0,1,62.484,15.112a29.063,29.063,0,0,1,4.794,16.035c0,17.2-15.061,31.146-33.639,31.146S0,48.348,0,31.146,15.061,0,33.639,0Z" transform="translate(240.009 238.715)" fill="#a7205f"/>
        <path id="Path_2124" data-name="Path 2124" d="M288.762,328.79c-19.109,0-34.652-14.428-34.652-32.18s15.543-32.16,34.652-32.16,34.652,14.428,34.652,32.16S307.872,328.79,288.762,328.79Zm0-62.313c-17.975,0-32.626,13.516-32.626,30.133s14.651,30.153,32.626,30.153,32.626-13.537,32.626-30.153S306.757,266.477,288.762,266.477Z" transform="translate(-15.114 -26.748)" fill="#a7205f"/>
        <path id="Path_2125" data-name="Path 2125" d="M252.933,367.116s1.8,13.537-2.249,18.5-21.217,14-30.7,21.217-8.106,9.95-6.789,15.36,14.915,8.572,39.293,8.572,48.756-18.5,52.829-24.824-8.592-28.006-9.484-36.131-1.358-10.821-1.358-10.821S271.9,375.222,252.933,367.116Z" transform="translate(-58.073 70.292)" fill="#fff"/>
        <path id="Path_2126" data-name="Path 2126" d="M252.993,432.714c-17.306,0-38.34-1.621-40.265-9.342l-.223-.851c-1.4-5.471-1.7-8.633,7.356-15.543,4.053-3.08,9.382-6.424,14.55-9.686,7.072-4.438,13.739-8.633,15.989-11.368,3.749-4.58,2.026-17.61,2.026-17.752l-.243-1.763,1.641.709c18.238,7.8,40.326-7.863,40.529-8.106l1.317-.952.263,1.6c0,.122.466,2.837,1.378,10.9a65.979,65.979,0,0,0,4.377,13.03c3.81,9.5,7.761,19.352,4.944,23.75C302.5,413.929,277.554,432.714,252.993,432.714Zm1.641-63.124c.345,3.891.77,13.395-2.675,17.61-2.452,3-9.261,7.275-16.455,11.814-5.147,3.222-10.456,6.566-14.408,9.565-8.43,6.424-7.822,8.775-6.626,13.435l.223.871c.466,1.824,4.58,7.8,38.3,7.8,23.831,0,47.946-18.1,51.978-24.317,2.249-3.526-1.844-13.719-5.127-21.906a66.188,66.188,0,0,1-4.519-13.557c-.527-4.722-.892-7.619-1.115-9.2C289.125,364.97,271.008,375.487,254.635,369.591Z" transform="translate(-58.579 69.338)" fill="#263238"/>
        <path id="Path_2127" data-name="Path 2127" d="M250.985,366.335a31.207,31.207,0,0,1-3.607,16.7c-4.519,8.106-23.466,12.159-26.182,17.61s7.214,7.234,22.129,0,22.575-23.02,23.466-30.7S255.97,361.37,250.985,366.335Z" transform="translate(-49.357 74.66)" fill="#fff"/>
        <path id="Path_2128" data-name="Path 2128" d="M227.038,406.941a8.105,8.105,0,0,1-5.775-1.743,3.607,3.607,0,0,1-.446-4.5c1.4-2.776,6.079-4.965,11.328-7.518,5.9-2.8,12.584-5.978,14.874-10.132a30.559,30.559,0,0,0,3.506-16.11v-.486l.345-.324a13.07,13.07,0,0,1,13.78-2.371,6.4,6.4,0,0,1,3.749,6.809c-.993,8.491-9.342,24.317-24.054,31.491A42.554,42.554,0,0,1,227.038,406.941ZM252.572,367.3a32.423,32.423,0,0,1-3.769,16.8c-2.634,4.722-9.605,8.106-15.786,10.983-4.782,2.27-9.3,4.438-10.375,6.586-.709,1.4-.142,2.026,0,2.168,1.8,1.824,9.423,1.925,20.71-3.546,14.023-6.789,21.967-21.865,22.919-29.91a4.377,4.377,0,0,0-2.634-4.742,11.145,11.145,0,0,0-11.064,1.662Z" transform="translate(-49.89 74.158)" fill="#263238"/>
        <path id="Path_2129" data-name="Path 2129" d="M305.317,386.112c1.074-1.7.952-4.5.2-7.822-13.233,9.828-31.856,21.4-48.067,23.162a78.058,78.058,0,0,1-44.177-7.781c-1.743,3-.912,5.329,0,8.693,1.358,5.411,14.915,8.572,39.293,8.572S301.244,392.435,305.317,386.112Z" transform="translate(-58.074 90.103)" fill="#fff"/>
        <path id="Path_2130" data-name="Path 2130" d="M253,412.832c-17.306,0-38.34-1.621-40.265-9.342l-.223-.851c-.75-2.938-1.4-5.492.405-8.592l.486-.851.871.446a76.52,76.52,0,0,0,43.589,7.7c16.212-1.763,34.754-13.476,47.561-22.98l1.236-.932.345,1.52c.932,4.053.831,6.789-.324,8.592C302.508,394.047,277.562,412.832,253,412.832Zm-38.725-16.921a9.22,9.22,0,0,0,.243,6.221l.223.871c.466,1.824,4.58,7.8,38.3,7.8,23.831,0,47.946-18.1,51.978-24.317h0a8.106,8.106,0,0,0,.365-5.512c-12.949,9.464-31.248,20.67-47.277,22.413A78.91,78.91,0,0,1,214.276,395.911Z" transform="translate(-58.588 89.22)" fill="#263238"/>
        <ellipse id="Ellipse_147" data-name="Ellipse 147" cx="25.695" cy="17.894" rx="25.695" ry="17.894" transform="matrix(0.993, -0.118, 0.118, 0.993, 186.879, 422.815)" fill="#a7205f"/>
        <path id="Path_2131" data-name="Path 2131" d="M253.242,391.748a31.552,31.552,0,0,1-14.753-3.425c-5.532-2.959-8.9-7.376-9.5-12.463a16.576,16.576,0,0,1,6.3-14.327,33.132,33.132,0,0,1,17.975-7.619c14.631-1.743,27.519,5.269,28.755,15.624a16.617,16.617,0,0,1-6.3,14.347,33.112,33.112,0,0,1-17.975,7.6A37.68,37.68,0,0,1,253.242,391.748Zm4.5-36.071a33.688,33.688,0,0,0-4.235.263,31.106,31.106,0,0,0-16.88,7.093,13.415,13.415,0,0,0,2.817,23.487,33.052,33.052,0,0,0,34.936-4.154,14.692,14.692,0,0,0,5.634-12.584c-.993-8.268-10.578-14.1-22.271-14.1Z" transform="translate(-40.954 64.81)" fill="#263238"/>
        <path id="Path_2132" data-name="Path 2132" d="M232.34,322.84s-11.47,17.975-5.147,58.159c3.323,21.136,7.7,35.524,20.791,37.327s33.5-3.465,36.375-15.016c2.432-9.707,15.847-55-1.155-68.717C273.457,326.731,249.95,308.838,232.34,322.84Z" transform="translate(-44.694 27.856)" fill="#fff"/>
        <path id="Path_2133" data-name="Path 2133" d="M253.832,420.219a38.95,38.95,0,0,1-5.471-.365c-13.375-1.844-18.056-15.381-21.642-38.158-6.3-40.1,4.8-58.118,5.289-58.868l.223-.243c18.927-15.056,43.913,5.107,52.14,11.753,16.313,13.172,5.654,53.863,2.148,67.217-.263,1.013-.486,1.864-.648,2.533C283.175,414.849,266.76,420.219,253.832,420.219Zm-20.264-96.175c-1.013,1.743-10.8,19.879-4.9,57.328,3.425,21.845,7.782,34.814,19.92,36.476s32.423-3.141,35.26-14.185c.162-.689.385-1.54.648-2.553,3.425-13.05,13.841-52.789-1.459-65.13-7.822-6.424-31.754-25.756-49.4-11.936Z" transform="translate(-45.212 27.322)" fill="#263238"/>
        <path id="Path_2134" data-name="Path 2134" d="M249.6,330.555s-18.968-5.411-16.941-.669,9.484,6.079,16.212,7.457,22.635,5.857,15.725,9.362-13.03,7.579-8.288,10.294,11.814,7.214,8.288,8.694-2.857,8.248-1.5,11.632,2.715,6.079.669,10.841.689,18.238,4.053,2.026a329.335,329.335,0,0,0,5.431-39.313c.669-8.106,0-14.185-2.026-14.915a63.6,63.6,0,0,0-11.51-2.715,56.151,56.151,0,0,1-10.112-2.7Z" transform="translate(-37.29 38.42)" opacity="0.17"/>
        <path id="Path_2135" data-name="Path 2135" d="M340.738,319.114s6.768-24.317-9.484-43.791-58.24,9.038-77.653,37.935-23.932,49.648-23.487,56.437,9.038,16.212,37.935,15.34S332.167,357.049,340.738,319.114Z" transform="translate(-39.774 -22.158)" fill="#fff"/>
        <path id="Path_2136" data-name="Path 2136" d="M264.713,386.648c-32.3,0-34.9-13.537-35.1-16.353-.446-6.89,3.911-27.661,23.649-57.065,13.881-20.65,41.684-43.629,62.394-44.724a19.535,19.535,0,0,1,16.9,6.708c16.212,19.292,9.93,43.71,9.687,44.683-8.795,38.806-45.17,65.8-73.641,66.69Zm52.444-116.156h-1.4c-20.082,1.054-47.2,23.568-60.793,43.832-18.035,26.85-23.811,48.067-23.3,55.788.486,7.174,10.436,15.239,36.881,14.408,27.742-.851,63.185-27.235,71.756-65.13h0c0-.243,6.424-24.115-9.281-42.88A17.164,17.164,0,0,0,317.158,270.492Z" transform="translate(-40.287 -22.698)" fill="#263238"/>
        <path id="Path_2137" data-name="Path 2137" d="M323.594,293.494s-14.915-24.317-17.63-21.683,10.132,22.291,2.715,25.067-17.61-7.457-18.967-4.742,14.185,14.185,6.768,22.291S274.8,325.269,273.439,336.11s-4.053,18.988-7.457,19.657-8.815,0-8.815,4.053,4.053,4.742,4.053,6.768-2.189,3.141-8.9,2.594-8.714.122-8.714,2.837a27.722,27.722,0,0,0,1.337,6.768s15.138,9.97,19.434,2.959,6.323-9.058,9.038-13.111,17.63-21.014,24.317-28.472,6.079-11.531,9.484-10.842,3.4-4.053,3.4-7.457a4.053,4.053,0,0,1,2.7-4.053,16.8,16.8,0,0,0,2.715-6.768C316.826,307.051,328.336,303.667,323.594,293.494Z" transform="translate(-25.892 -19.397)" opacity="0.17"/>
        <path id="Path_2138" data-name="Path 2138" d="M251.567,406.146a1.094,1.094,0,0,1-.426-.1,1.013,1.013,0,0,1-.507-1.337s4.438-9.849,4.438-17.65a32.422,32.422,0,0,0-2.31-11.267,41.18,41.18,0,0,1-2.209-8.491,32.709,32.709,0,0,1,.223-8.471,27.153,27.153,0,0,0-.2-10.416,38.906,38.906,0,0,0-2.979-8.106c-1.824-4.053-3.4-7.457-1.419-10.781a31.367,31.367,0,0,1,1.763-2.614,1.015,1.015,0,1,1,1.641,1.2,29.415,29.415,0,0,0-1.662,2.472c-1.439,2.391-.2,5.127,1.52,8.876a41.828,41.828,0,0,1,3.121,8.45,29.262,29.262,0,0,1,.223,11.125,29.888,29.888,0,0,0-.223,7.944,39.922,39.922,0,0,0,2.026,8.106A34.875,34.875,0,0,1,257,387c0,8.248-4.418,18.076-4.62,18.481A.993.993,0,0,1,251.567,406.146Z" transform="translate(-24.202 36.937)" fill="#263238"/>
        <path id="Path_2139" data-name="Path 2139" d="M248.174,381.732a1.074,1.074,0,0,1-.588-.2,1.033,1.033,0,0,1-.223-1.419l1.054-1.4c1.236-1.621,2.533-3.283,2.391-4.053,0,0,0-.243-.385-.466-1.723-1.135-5.228-4.5-4.458-7.052.426-1.337,1.8-2.026,4.053-2.026a47.7,47.7,0,0,1,4.782.3c2.817.263,6.079.567,6.87-.426a2.756,2.756,0,0,0,0-2.209c-1.115-3.891,3.04-7.214,9.93-12.726a145.136,145.136,0,0,0,22.8-21.642c16.8-20.264,22.291-52.525,22.291-52.829a1.013,1.013,0,0,1,1.155-.851,1.033,1.033,0,0,1,.851,1.175c0,.324-5.674,33.051-22.818,53.8A147.928,147.928,0,0,1,272.8,351.639c-6.079,4.823-10.011,8-9.261,10.578a4.215,4.215,0,0,1-.446,4.053c-1.52,1.824-4.8,1.5-8.592,1.135-1.54-.142-3.141-.284-4.6-.284s-2.026.324-2.168.588c-.284.912,1.662,3.465,3.648,4.782a2.7,2.7,0,0,1,1.256,1.824c.263,1.662-1.074,3.425-2.776,5.654-.345.426-.689.892-1.033,1.358a.993.993,0,0,1-.648.405Z" transform="translate(-23.586 -16.202)" fill="#263238"/>
        <path id="Path_2140" data-name="Path 2140" d="M234.609,313.44s10.132,21.561,52.039,23.1c0,0,2.756,1.54.3,8.612-.243.689-6.424,1.175-7.093,1.277A151.344,151.344,0,0,1,263,348.173c-10.132.426-26,.77-32.646-8.612C224.254,330.928,226.99,319.985,234.609,313.44Z" transform="translate(-42.93 23.538)" fill="#263238"/>
        <path id="Path_2141" data-name="Path 2141" d="M256.5,350.2c-9.22,0-20.852-1.3-26.465-9.22-6.789-9.626-2.918-21.1,4.418-27.479l1.013-.871.567,1.216c0,.2,10.477,21.014,51.168,22.514h.243l.2.122c.365.2,3.445,2.168.77,9.849-.3.892-1.277,1.236-7.072,1.844l-.811.1a155.819,155.819,0,0,1-16.982,1.743C261.526,350.1,259.114,350.2,256.5,350.2Zm-21.642-34.308c-6.079,5.9-8.977,15.685-3.161,23.912,6.566,9.281,22.96,8.572,31.775,8.106a152.315,152.315,0,0,0,16.759-1.723l.912-.1a38.711,38.711,0,0,0,5.471-.811c1.6-4.782.567-6.525.162-6.991C250.2,336.927,237.634,320.533,234.858,315.893Z" transform="translate(-43.442 22.706)" fill="#263238"/>
        <path id="Path_2142" data-name="Path 2142" d="M262.944,246.47A7.234,7.234,0,0,1,258.3,233.7c1.885-1.581,46.608-38.888,86.448-54.491a7.235,7.235,0,1,1,5.269,13.476c-37.692,14.732-81.97,51.715-82.416,52.08A7.275,7.275,0,0,1,262.944,246.47Z" transform="translate(-13.451 -114.751)" fill="#a7205f"/>
        <path id="Path_2143" data-name="Path 2143" d="M263.464,248.033a8.248,8.248,0,0,1-5.289-14.57c1.885-1.581,46.73-39.009,86.732-54.714a8.245,8.245,0,1,1,6,15.36c-37.53,14.651-81.686,51.533-82.132,51.9A8.106,8.106,0,0,1,263.464,248.033Zm84.523-67.744a6.263,6.263,0,0,0-2.27.426c-39.7,15.5-84.279,52.687-86.164,54.308a6.221,6.221,0,0,0-.77,8.754,6.383,6.383,0,0,0,8.754.77c.446-.385,44.886-37.469,82.72-52.262a6.2,6.2,0,0,0,.223-11.47,6.079,6.079,0,0,0-2.492-.527Z" transform="translate(-13.971 -115.301)" fill="#263238"/>
        <ellipse id="Ellipse_148" data-name="Ellipse 148" cx="36.8" cy="35.665" rx="36.8" ry="35.665" transform="translate(282.909 88.819)" fill="#a7205f"/>
        <path id="Path_2144" data-name="Path 2144" d="M313.093,263.837c-20.852,0-37.813-16.455-37.813-36.679s16.961-36.679,37.813-36.679,37.814,16.455,37.814,36.679S333.946,263.837,313.093,263.837Zm0-71.331c-19.738,0-35.787,15.543-35.787,34.652s16.049,34.652,35.787,34.652,35.787-15.543,35.787-34.652S332.831,192.507,313.093,192.507Z" transform="translate(6.616 -102.674)" fill="#263238"/>
        <path id="Path_2145" data-name="Path 2145" d="M328.112,195.9s-16.7-10.132-34.9,5.552-13.152,42.555,2.026,53.133,47.561,16.7,51.107,19.211,12.645,9.119,31.369,1.52,15.178-24.317,7.072-38.5S344.81,200.947,328.112,195.9Z" transform="translate(13.078 -100.415)" fill="#fff"/>
        <path id="Path_2146" data-name="Path 2146" d="M362.178,280.364a25.331,25.331,0,0,1-15.867-5.228,70.933,70.933,0,0,0-10.963-3.566c-11.9-3.364-29.85-8.45-40.164-15.664a35.26,35.26,0,0,1-14.064-26.81,33.923,33.923,0,0,1,11.956-27.924c17.752-15.259,34.45-6.606,35.969-5.735,17,5.208,48.9,26.992,57.146,41.421,6.079,10.781,8.106,20.264,5.634,27.418-1.9,5.492-6.343,9.686-13.212,12.483a43.955,43.955,0,0,1-16.434,3.607ZM315.57,194.138a33.781,33.781,0,0,0-32.423,34.855,33.173,33.173,0,0,0,13.192,25.25c10.031,7.012,27.8,12.159,39.556,15.381,6.728,1.9,10.294,2.959,11.551,3.85,3.384,2.411,12.26,8.754,30.4,1.4,6.3-2.553,10.355-6.343,12.057-11.267,2.878-8.308-1.378-18.582-5.471-25.736-7.842-13.739-39.617-35.544-56.072-40.529l-.243-.1a26.344,26.344,0,0,0-12.625-3.1Z" transform="translate(12.549 -100.902)" fill="#263238"/>
        <path id="Path_2147" data-name="Path 2147" d="M296.072,198.02s-11.429,9.241-10.882,20.123,9.261,15.786,17.954,15.786,16.212,3.81,18.5,7.6,3.81,3.81,8.106,3.81,1.641,2.736,9.261,2.736,9.788-.547,11.956-1.641-2.715-1.621,6.079-1.094,22.838,1.094,19.575-6.525-28.836-28.37-41.34-35.361S304.238,192.042,296.072,198.02Z" transform="translate(16.768 -97.812)" opacity="0.17"/>
        <path id="Path_2148" data-name="Path 2148" d="M345.663,241.873a7.336,7.336,0,0,1-7.3-5.593c-.547-2.189-6.626-3.485-15.036-5.289-2.918-.628-6.079-1.337-9.808-2.189a133.361,133.361,0,0,1-31.268-12.909,1.022,1.022,0,1,1,1.033-1.763,129.692,129.692,0,0,0,30.8,12.706c3.607.851,6.87,1.54,9.767,2.168,10.132,2.168,15.725,3.364,16.576,6.789a5.187,5.187,0,0,0,2.594,3.364,6.2,6.2,0,0,0,4.418.466,22.858,22.858,0,0,1,8.653,0,1.031,1.031,0,1,1-.385,2.026,21.744,21.744,0,0,0-7.782,0A8.98,8.98,0,0,1,345.663,241.873Z" transform="translate(13.258 -78.542)" fill="#263238"/>
        <ellipse id="Ellipse_149" data-name="Ellipse 149" cx="10.841" cy="9.95" rx="10.841" ry="9.95" transform="translate(352.984 121.222)" fill="#263238"/>
        <path id="Path_2149" data-name="Path 2149" d="M320.832,228.389a10.983,10.983,0,1,1,11.855-10.943,11.449,11.449,0,0,1-11.855,10.943Zm0-19.879a8.977,8.977,0,1,0,9.828,8.937A9.423,9.423,0,0,0,320.832,208.51Z" transform="translate(42.993 -86.275)" fill="#263238"/>
        <path id="Path_2150" data-name="Path 2150" d="M342.12,216.128s-26.628,14.084-28.836,41.481c-.689,8.592,45.838,1.783,52.688-3.546,11.956-9.4,2.918-26.567-1.6-32C356.751,213.007,348.2,211.062,342.12,216.128Z" transform="translate(45.617 -79.161)" fill="#263238"/>
        <path id="Path_2151" data-name="Path 2151" d="M326.4,263.237a26.872,26.872,0,0,1-11.409-1.743,3.506,3.506,0,0,1-2.209-3.445c2.168-26.79,27.5-41.258,29.282-42.251a12.381,12.381,0,0,1,11.348-2.452,24.52,24.52,0,0,1,12.159,8.592c3.566,4.3,8.572,13.739,7.68,22.291a15.928,15.928,0,0,1-6.241,11.226C362.511,258.941,340.849,263.237,326.4,263.237Zm23.608-48.31a10.294,10.294,0,0,0-6.728,2.492l-.162.122c-.263.142-26.161,14.185-28.37,40.671,0,.223,0,.851,1.155,1.5,8.106,4.337,44.48-1.723,49.83-5.917a13.982,13.982,0,0,0,5.451-9.849c.831-7.842-3.85-16.678-7.214-20.71a22.615,22.615,0,0,0-11.1-7.923,11.324,11.324,0,0,0-2.857-.385Zm-7.376,1.722Z" transform="translate(45.105 -79.682)" fill="#263238"/>
        <path id="Path_2152" data-name="Path 2152" d="M327.7,268.17s-14.185,6.079-19.717,11.125-16.7,18.724-13.658,23.264,10.619.507,12.645-1.52S317.1,289.914,317.1,289.914s-4.053,27.317-3.04,31.369,3.04,5.066,7.093,5.066,7.579-5.573,8.106-9.626,2.533-15.685,2.533-15.685,5.066,9.119,4.56,17.711,3.04,12.159,8.106,10.132,6.079-9.605,6.079-9.605a21.358,21.358,0,0,0,12.159-8.106c2.655-3.85,7.6-6.586,4.56-20.264s-6.586-18.238-6.586-18.238S339.855,270.176,327.7,268.17Z" transform="translate(25.632 -22.93)" fill="#fff"/>
        <path id="Path_2153" data-name="Path 2153" d="M342.328,330.946a5.431,5.431,0,0,1-3.242-1.034c-2.432-1.743-3.546-5.451-3.242-10.72a33.5,33.5,0,0,0-3.08-14.327c-.628,3.749-1.662,9.828-2.026,12.5-.527,4.276-4.337,10.5-9.1,10.5-4.053,0-6.849-.973-8.106-5.836-.851-3.384,1.459-20.791,2.533-28.37-2.553,2.857-6.545,7.3-7.923,8.673a14.773,14.773,0,0,1-9.95,3.85,5.572,5.572,0,0,1-4.256-2.493c-3.789-5.694,9.686-20.812,13.82-24.581,5.633-5.127,19.434-11.064,20.021-11.308l.263-.122h.3c11.976,2.026,32.626,4.519,32.828,4.559h.426l.263.345c.142.182,3.708,4.884,6.768,18.6,2.655,12-.689,16.049-3.384,19.332-.466.567-.932,1.115-1.337,1.7a22.169,22.169,0,0,1-12.159,8.349c-.405,2.026-2.026,7.863-6.586,9.727a8.106,8.106,0,0,1-2.837.649Zm-10.538-32.423,1.4,2.513c.2.385,5.188,9.464,4.681,18.238-.263,4.478.588,7.66,2.391,8.957a4.337,4.337,0,0,0,4.316.162c4.458-1.783,5.431-8.734,5.431-8.815l.1-.709.709-.142a20.508,20.508,0,0,0,11.51-7.68c.426-.628.932-1.216,1.439-1.844,2.533-3.08,5.411-6.566,2.959-17.59s-5.35-16.212-6.079-17.488c-3.08-.385-21.116-2.614-32.18-4.458-2.026.871-14.185,6.323-19.19,10.842-6.079,5.593-15.847,18.42-13.5,21.967a3.567,3.567,0,0,0,2.776,1.6,13.01,13.01,0,0,0,8.349-3.323c2.026-2.026,9.99-11,10.132-11.085l2.249-2.533-.486,3.344c-1.621,10.9-3.769,28.147-3.06,30.984.831,3.323,2.189,4.3,6.079,4.3,3.485,0,6.647-5.228,7.093-8.734.507-4.053,2.452-15.259,2.533-15.725Z" transform="translate(25.084 -23.433)" fill="#263238"/>
        <path id="Path_2154" data-name="Path 2154" d="M319.105,269.85s-17.265,9.565-15.056,11.409,6.241,2.553,7.721,10.274,2.574,8.45,5.877,3.688,6.606-1.479,9.545,5.512,6.262,2.938,7.721-3.688,7.356-.73,8.835,3.688,1.459-4.418,2.189-8.45,7.356,7.7,8.47,4.4-6.262-22.777-8.47-23.892S319.105,269.85,319.105,269.85Z" transform="translate(35.945 -21.205)" opacity="0.17"/>
        <path id="Path_2155" data-name="Path 2155" d="M312.032,262.17s-7.072,7.6-.993,14.671,24.783,8.612,32.423,6.586,6.586-14.671,3.04-17.711S312.032,262.17,312.032,262.17Z" transform="translate(40.789 -29.088)" fill="#263238"/>
        <path id="Path_2156" data-name="Path 2156" d="M335.823,285.785c-8.9,0-20.264-2.249-25.047-7.761-6.586-7.68.952-15.948,1.033-16.029l.3-.324h.446c5.228.1,31.41.669,35.057,3.789,2.493,2.148,3.708,7.842,2.655,12.442a8.653,8.653,0,0,1-6.079,7.011A34.127,34.127,0,0,1,335.823,285.785Zm-22.818-22.068c-1.216,1.459-5.492,7.4-.689,12.99,5.775,6.748,24.317,8.106,31.329,6.262a6.809,6.809,0,0,0,4.661-5.512c.952-4.195-.284-8.977-2.026-10.456-2.33-2.006-21.44-3.08-33.274-3.283Z" transform="translate(40.283 -29.601)" fill="#263238"/>
        <path id="Path_2157" data-name="Path 2157" d="M317.078,241.825s-9.605,50.094-7.072,57.673,18.238,13.658,29.343,11.125,26.344-27.316,31.349-55.14,4.58-24.216-7.579-26.242S329.723,231.713,317.078,241.825Z" transform="translate(41.823 -63.376)" fill="#fff"/>
        <path id="Path_2158" data-name="Path 2158" d="M334.343,312.8c-10.6,0-22.514-5.552-24.8-12.4-2.574-7.761,6.667-56.133,7.052-58.179v-.385l.284-.223c12.787-10.132,34.45-14.894,46.831-12.848,1.358.223,2.553.365,3.627.507,3.323.426,5.532.709,6.809,2.452,2.026,2.7.993,7.964-1.844,23.608l-.162.912C367.212,283.278,352.2,309.419,340,312.2A25.254,25.254,0,0,1,334.343,312.8Zm-15.827-69.831c-2.715,14.185-9.038,50.823-7.052,56.74,2.391,7.194,17.65,12.848,28.168,10.477,10.132-2.33,25.432-26.06,30.579-54.349l.162-.912c2.594-14.185,3.668-20.062,2.209-22.048-.75-1.033-2.513-1.256-5.431-1.641-1.074-.142-2.31-.284-3.688-.527-11.774-2.006-32.545,2.432-44.947,12.159Z" transform="translate(41.317 -63.854)" fill="#263238"/>
        <path id="Path_2159" data-name="Path 2159" d="M325.521,234.906c3.871,1.4,9.5,6.91,6.4,11.794-3.81,6.079-8.714,7.6-9.261,12.5s2.189,15.766,2.189,18.5,1.621,9.788-3.263,12.5-3.81,7.619-3.81,9.241,0,1.094-1.094,3.81,8.106,6.525,14.692,2.188a68.9,68.9,0,0,0,26.1-41.339c2.513-12.868,4.6-25.614,3.81-33.193A85.11,85.11,0,0,0,325.521,234.906Z" transform="translate(49.025 -61.624)" opacity="0.17"/>
        <path id="Path_2160" data-name="Path 2160" d="M312,301.928h-.2a1.013,1.013,0,0,1-.79-1.2,69.773,69.773,0,0,0,.973-18.238c-.973-9.849,3.3-21.075,7.62-30.782,5.228-11.774,4.337-18.461,4.316-18.522a1.034,1.034,0,0,1,.851-1.155,1.013,1.013,0,0,1,1.155.851c0,.284,1.034,7.255-4.478,19.656-4.215,9.443-8.369,20.386-7.437,29.748A70.929,70.929,0,0,1,313,301.057,1.013,1.013,0,0,1,312,301.928Z" transform="translate(43.27 -60.031)" fill="#263238"/>
        <path id="Path_2161" data-name="Path 2161" d="M322.283,303.645a110.916,110.916,0,0,0-1.013-20.264" transform="translate(53.822 -7.317)" fill="#fff"/>
        <path id="Path_2162" data-name="Path 2162" d="M322.776,305.159h0a1.013,1.013,0,0,1-.973-1.054,110.907,110.907,0,0,0-.993-20,1.013,1.013,0,0,1,.79-1.2,1.033,1.033,0,0,1,1.2.811,110.7,110.7,0,0,1,1.034,20.467,1.013,1.013,0,0,1-1.054.973Z" transform="translate(53.329 -7.818)" fill="#263238"/>
        <path id="Path_2163" data-name="Path 2163" d="M326,300.6s3.04-10.619.507-18.7" transform="translate(58.677 -8.836)" fill="#fff"/>
        <path id="Path_2164" data-name="Path 2164" d="M326.51,302.114a.609.609,0,0,1-.263,0,1.013,1.013,0,0,1-.709-1.236c0-.1,2.918-10.436.527-18.137a.993.993,0,0,1,.648-1.277,1.013,1.013,0,0,1,1.277.669c2.594,8.288-.365,18.846-.507,19.292A.993.993,0,0,1,326.51,302.114Z" transform="translate(58.167 -9.333)" fill="#263238"/>
        <path id="Path_2165" data-name="Path 2165" d="M308.4,194.48c-7.883,0-23.041,13.212-21.561,21.8.973,5.634,25.229,17.894,29.687,13.456a293.762,293.762,0,0,1,22.595-18.988C345.507,206.233,320.156,194.5,308.4,194.48Z" transform="translate(18.379 -98.568)" fill="#fff"/>
        <path id="Path_2166" data-name="Path 2166" d="M313.887,232.24a22.9,22.9,0,0,1-6.606-1.256c-7.8-2.492-20.123-9.322-20.933-13.982-.588-3.425,1.135-7.721,4.843-12.159,5.208-6.2,12.827-10.882,17.731-10.882h0c9.849,0,30.64,8.572,32.565,14.57a3,3,0,0,1-1.256,3.546c-6.323,4.519-19.859,16.212-22.473,18.866a5.289,5.289,0,0,1-3.871,1.3Zm-4.965-36.172c-4.3,0-11.389,4.458-16.212,10.132-3.3,3.931-4.863,7.64-4.377,10.477s10.923,9.646,19.535,12.382c4.235,1.358,7.417,1.56,8.45.507,2.634-2.634,16.313-14.509,22.716-19.089.608-.426.648-.811.507-1.256-1.419-4.418-20.264-13.172-30.64-13.172Z" transform="translate(17.86 -99.102)" fill="#263238"/>
      </g>
    </g>
    <g id="Mask_Group_7645" data-name="Mask Group 7645" transform="translate(-11674 -14356.256)" clip-path="url(#clip-path)">
      <g id="Group_7920" data-name="Group 7920" transform="translate(719.752 252.663)">
        <path id="Path_2167" data-name="Path 2167" d="M-22586.881-15422.174s12.5-272.768-17.3-272.768-93.541,39.2-126.848,39.2-21.186,233.563-21.186,233.563v91.676h165.33Z" transform="translate(22754.361 15694.941)" fill="#a7205f"/>
      </g>
      <g id="Group_7921" data-name="Group 7921" transform="translate(756.545 368.987)">
        <path id="Subtraction_12" data-name="Subtraction 12" d="M49,98a49.382,49.382,0,0,1-9.875-1A48.728,48.728,0,0,1,21.6,89.632,49.146,49.146,0,0,1,3.85,68.074,48.775,48.775,0,0,1,1,58.876a49.487,49.487,0,0,1,0-19.75A48.732,48.732,0,0,1,8.368,21.6,49.145,49.145,0,0,1,29.926,3.851,48.747,48.747,0,0,1,39.123,1a49.469,49.469,0,0,1,19.75,0A48.743,48.743,0,0,1,76.4,8.369,49.141,49.141,0,0,1,94.148,29.928,48.692,48.692,0,0,1,97,39.126a49.486,49.486,0,0,1,0,19.75A48.748,48.748,0,0,1,89.631,76.4,49.141,49.141,0,0,1,68.072,94.15,48.752,48.752,0,0,1,58.874,97,49.377,49.377,0,0,1,49,98Zm0-75.661A26.662,26.662,0,1,0,75.66,49,26.691,26.691,0,0,0,49,22.339Z" transform="translate(0.454 0.27)" fill="#fff"/>
        <path id="Path_2168" data-name="Path 2168" d="M-20566-14968.8h21.961s.836,14.26,10.252,20.217c4.164,2.633,9.957,5.884,15.281,6.2a25.907,25.907,0,0,0,12.133-2.583l-22.678,23.063s-16.83-4.864-26.064-16.589S-20566-14968.8-20566-14968.8Z" transform="translate(20605.73 15043.971)" fill="rgba(0,0,0,0.16)"/>
        <path id="Path_2169" data-name="Path 2169" d="M-20566-14968.8h21.961s.836,14.26,10.252,20.217c4.164,2.633,9.957,5.884,15.281,6.2a25.907,25.907,0,0,0,12.133-2.583l-22.678,23.063s-16.83-4.864-26.064-16.589S-20566-14968.8-20566-14968.8Z" transform="translate(20604.291 15036.404)" fill="#fff"/>
      </g>
    </g>
  </g>
</svg>
