<svg xmlns="http://www.w3.org/2000/svg" width="711.884" height="945.066" viewBox="0 0 711.884 945.066">
  <g id="Group_8331" data-name="Group 8331" transform="translate(11914.884 14162)">
    <g id="Group_8262" data-name="Group 8262" transform="translate(-11914.239 -14162)">
      <path id="Path_2731" data-name="Path 2731" d="M379.734,210.37A354.54,354.54,0,0,0,103.3,342.183l11.353,9.227a340.164,340.164,0,0,1,257.763-126.54v41.653C210.728,270.661,80.4,403.4,80.4,566.054a297.562,297.562,0,0,0,37.44,144.81l-36,21.8A342.662,342.662,0,0,1,80.989,401.5l-12.8-7.065A355.893,355.893,0,0,0,248.534,896.719l5.4-13.6A339.814,339.814,0,0,1,89.23,745.293l36.011-21.828c52.842,85.151,147.141,141.962,254.492,141.962,165.036,0,299.316-134.449,299.316-299.373a298.307,298.307,0,0,0-138.139-252.29l-7.939,12.311c82.248,52.725,131.359,142.358,131.359,239.9,0,102.814-54.779,193.106-136.694,243.168l-18.768-29.816a249.5,249.5,0,0,0,84.391-85.1l-12.528-7.54C537.862,757.868,462.7,800.522,379.638,800.522a233.441,233.441,0,0,1-184.185-89.316l-11.48,9.069c19.954,24.675,42,44.308,65.417,58.261l-18.053,30.449C149.63,758.9,95.009,668.736,95.009,566.054c0-157.015,127.723-284.716,284.708-284.716,39.624-.3,79.1,8.18,117.37,25.2l6.034-13.181C465.234,276.489,426.215,267.631,386.99,267V225.212C571.714,229.008,720.7,380.435,720.7,566.054,720.7,754.1,567.745,907.08,379.734,907.08a344.682,344.682,0,0,1-68.561-6.986l-2.922,14.315a358.148,358.148,0,0,0,71.451,7.2c196.061,0,355.667-159.546,355.667-355.657S575.795,210.37,379.734,210.37ZM262.094,785.812a251.121,251.121,0,0,0,234.137.923l18.815,29.922a284.309,284.309,0,0,1-271.037-.211Z" transform="translate(-24.13 -210.37)" fill="#64b4d2"/>
      <path id="Path_2732" data-name="Path 2732" d="M570.918,594.091a247.267,247.267,0,0,0,18.53-94.366c0-137.269-111.765-248.965-249.126-248.965a249.572,249.572,0,0,0-159.987,58.1l9.4,11.193a234.824,234.824,0,0,1,150.587-54.676c36.028-.274,71.881,8.336,106.383,25.547L426.4,334.17c-27.884-14.207-56.906-21.311-86.075-21.07a188.767,188.767,0,0,0-35.567,3.371l2.763,14.354a174.876,174.876,0,0,1,32.8-3.055c93.537,0,169.752,74.771,172.038,167.662H463.249a122.229,122.229,0,0,0-21.975-65.974l-11.988,8.375A107.385,107.385,0,0,1,448.7,499.725c0,56.045-43.744,103.479-99.587,107.982l1.159,14.564a121.853,121.853,0,0,0,44.458-12.4l25.516,42.14c-25.9,13.309-52.878,19.97-79.993,19.753a172.2,172.2,0,0,1-143.617-77.3l42.966-23.967A122.884,122.884,0,0,0,292.37,613l5.7-13.458a102.727,102.727,0,0,1-10.591-5.268L309.328,560.3a68.376,68.376,0,0,0,46.983,5.531l-3.43-14.2a53.02,53.02,0,1,1,28.263-17.2l11.115,9.455a68.115,68.115,0,0,0-83.217-104.585l-22.15-33.843c17.231-9.473,35.277-14.224,53.429-14.064a107.487,107.487,0,0,1,63.687,20.675l8.606-11.825a123.1,123.1,0,0,0-175.372,32.342l12.242,7.9c7.5-11.137,16.012-20.264,25.214-27.048l22.134,33.791a67.989,67.989,0,0,0,.333,105.085l-21.88,34.08a108.518,108.518,0,0,1-40.092-113.223l-14.1-3.556a123.259,123.259,0,0,0,10.972,88.387l-42.871,23.914a170.739,170.739,0,0,1-20.975-82.2,172.971,172.971,0,0,1,97.713-155.178l-6.351-13.169A187.84,187.84,0,0,0,153.739,492.4H105.947a231.873,231.873,0,0,1,47.221-133.924l-11.654-8.823A249.105,249.105,0,0,0,117,610.235l13.1-6.479a231.514,231.514,0,0,1-24.182-96.684h47.809C157.582,606.6,239.782,686.4,340.322,686.4c102.985,0,186.773-83.726,186.773-186.625,0-66.686-35.186-125.259-87.964-158.286l20.451-43.483c68.926,40.875,115.242,115.883,115.242,201.716a232.246,232.246,0,0,1-17.466,88.809Zm-137.98,50.515-25.484-42.139A123.708,123.708,0,0,0,462.868,510H512.09A171.871,171.871,0,0,1,432.938,644.605Z" transform="translate(15.282 -144.384)" fill="#64b4d2"/>
      <g id="Ellipse_220" data-name="Ellipse 220" transform="translate(228.239 716)" fill="none" stroke="#fff" stroke-width="4">
        <circle cx="12" cy="12" r="12" stroke="none"/>
        <circle cx="12" cy="12" r="10" fill="none"/>
      </g>
      <path id="Path_3255" data-name="Path 3255" stroke="#fff" d="M543.028,516.733,578.82,553.76s29.005-30.239,33.325-62.946S586.226,421.7,586.226,421.7l37.027-33.325s-26.845-38.879-65.416-46.9-82.694,8.64-82.694,8.64l-17.28-51.839s-28.079-4.628-48.136,8.64-32.09,34.559-32.09,34.559l-51.839-43.2s70.353-66.032,149.344-80.226,169.091,32.091,169.091,32.091L678.795,202s155.514,69.118,162.92,296.219c2.977,91.295-69.736,217.76-149.344,264.129-118.912,69.262-261.66,34.559-261.66,34.559l-20.982,50.6" fill="none" transform="translate(-165.498 -130.259)" stroke-linecap="round" stroke-linejoin="round" stroke-width="5" stroke-dasharray="9"/>
      <g id="Group_8328" data-name="Group 8328" transform="translate(15096.783 21448.008)">
        <rect id="Rectangle_1070" data-name="Rectangle 1070" width="71.429" height="71.429" rx="16" transform="matrix(0.695, 0.719, -0.719, 0.695, -14738.162, -21143.008)" fill="#fff"/>
        <g id="Final_QRIOCTBOX-02" data-name="Final QRIOCTBOX-02" transform="translate(-14780.609 -21134.135)">
          <g id="Layer_1" data-name="Layer 1" transform="translate(0 0)">
            <path id="Path_3500" data-name="Path 3500" d="M287.462,1034.588a25.87,25.87,0,0,1,48.948-11.69c.061-.972.1-1.946.1-2.925a44.534,44.534,0,0,0-1.438-11.249l-11-11a15.434,15.434,0,0,0-21.827,0L276.1,1023.864a15.436,15.436,0,0,0,0,21.829l18.633,18.632a44.172,44.172,0,0,0,15.955-4A25.871,25.871,0,0,1,287.462,1034.588Z" transform="translate(-271.58 -993.203)" fill="#8d3ddc" opacity="0.79"/>
            <path id="Path_3501" data-name="Path 3501" d="M524.04,1256.7h11.487a14.38,14.38,0,0,0,.627,4.207,14.376,14.376,0,1,0-11.666.586A26.02,26.02,0,0,1,524.04,1256.7Z" transform="translate(-487.915 -1206.691)" fill="#8859a4" opacity="0.79"/>
            <path id="Path_3502" data-name="Path 3502" d="M499.583,1008.693a25.868,25.868,0,0,1,25.868,25.868,26.174,26.174,0,0,1-.252,3.607,37.243,37.243,0,0,0,15.46-6.56,15.369,15.369,0,0,0-4.195-7.772L510.324,997.7a15.434,15.434,0,0,0-21.827,0l-7.1,7.1a37.211,37.211,0,0,0,2.147,9.47A25.751,25.751,0,0,1,499.583,1008.693Z" transform="translate(-457.835 -993.176)" fill="#64b4d2" opacity="0.57"/>
            <path id="Path_3503" data-name="Path 3503" d="M562.059,1233.6a14.33,14.33,0,0,0-10.279,4.328,37.4,37.4,0,0,0,24.147,13.863A14.376,14.376,0,0,0,562.06,1233.6Z" transform="translate(-520.311 -1206.598)" fill="#ba3a94" opacity="0.79"/>
            <path id="Path_3504" data-name="Path 3504" d="M524.04,1256.7h11.487a14.38,14.38,0,0,0,.627,4.207,14.376,14.376,0,1,0-11.666.586A26.02,26.02,0,0,1,524.04,1256.7Z" transform="translate(-487.915 -1206.691)" fill="#8167f2" opacity="0.79"/>
            <path id="Path_3505" data-name="Path 3505" d="M745.9,1141.9l-15.723-15.723h-.124a42.317,42.317,0,0,0-12.721,1.946,25.875,25.875,0,0,1,5.843,46.156,14.387,14.387,0,0,0,12.174,0l10.557-10.55A15.437,15.437,0,0,0,745.9,1141.9Z" transform="translate(-667.268 -1111.242)" fill="#8d3ddc" opacity="0.69"/>
            <path id="Path_3506" data-name="Path 3506" d="M489.181,1511.72a25.85,25.85,0,0,1-13.253-7.932c-.317.011-.633.019-.953.019A25.831,25.831,0,0,1,453.7,1492.65c-.01.389-.017.778-.017,1.169a42.287,42.287,0,0,0,2.134,13.286l8.078,8.078a15.433,15.433,0,0,0,21.827,0Z" transform="translate(-433.228 -1436.555)" fill="#8d3ddc" opacity="0.79"/>
          </g>
        </g>
      </g>
    </g>
    <g id="Labyrinth--inject-2" transform="translate(-11914.4 -13795.892)">
      <g id="Presentation-bro" transform="translate(0 0)">
        <g id="freepik--Character--inject-63" transform="translate(0 0)">
          <path id="Path_3225" data-name="Path 3225" d="M366.308,234.773s-20.989-15.226-22.332-16.238S324,225.641,322.986,230.723s-.331,6.425,1.012,7.107,38.57,10.825,39.6,11.156S366.308,234.773,366.308,234.773Z" transform="translate(-311.958 12.928)" fill="#8d3ddc" stroke="#263238" stroke-linecap="round" stroke-linejoin="round" stroke-width="1"/>
          <path id="Path_3226" data-name="Path 3226" d="M244.939,185.139a14.338,14.338,0,0,0-.289-9.524c-2.066-4.628-5.206-6.074-3.76-9.544s10.123-11.28,10.991-15.618,3.471-4.132,4.917-1.446a6.342,6.342,0,0,1-1.735,8.1,6.879,6.879,0,0,0-3.471,4.628c0,.868,2.066,2.066,2.066,2.066s8.656-7.809,10.681-8.388,2.6,0,2.6,3.471.558,18.242-1.756,23.448-12.4,10.329-12.4,10.329Z" transform="translate(-43.291 -63.148)" fill="#fff" stroke="#263238" stroke-linecap="round" stroke-linejoin="round" stroke-width="1"/>
          <path id="Path_3227" data-name="Path 3227" d="M227.156,224.361a2.933,2.933,0,0,1-1.591-3.781l44.727-114.12,2.066.682-41.318,115.5a2.954,2.954,0,0,1-3.925,1.715Z" transform="translate(-17.328 -106.439)" fill="#263238"/>
          <path id="Path_3228" data-name="Path 3228" d="M251.7,163.351a.33.33,0,0,1,.62,0A217.115,217.115,0,0,1,263.8,193.245a138.417,138.417,0,0,0,16.754,34.4s23.716-29.77,30.658-39.6,13.594-19.957,13.594-19.957l9.834,6.363a387.926,387.926,0,0,1-15.329,37.021c-7.231,14.151-23.82,37.806-33.943,47.35s-17.312,10.495-23.593,6.425c-2.748-1.777-12.4-18.8-12.4-18.8s-4.132-29.191-2.6-50.594A165.587,165.587,0,0,1,251.7,163.351Z" transform="translate(-123.161 -46.029)" fill="#8d3ddc" stroke="#263238" stroke-linecap="round" stroke-linejoin="round" stroke-width="1"/>
          <path id="Path_3229" data-name="Path 3229" d="M281.889,288.849c0-23.985.579-57.246.579-57.246a404.532,404.532,0,0,0,41.648,3.76c17.622.289,36.711-13.883,36.711-13.883s2.6,8.1,2.6,30.369-2.6,100.857-2.6,100.857-3.842,29.129-4.937,45.45-16.383,108.067-16.383,108.067,10.929,10.908,18.593,17.457,17.457,10.908,10.908,14.193-21.258-.537-24.543-1.611c-1.715-.578-6.342-4.979-10.867-7.251a12.4,12.4,0,0,0-4.607-1.4,9.606,9.606,0,0,1-4.586-1.632l-3.429-2.293s-1.095,13.1-1.095,18.593-3.264,18.593-7.644,19.647-8.594.578-12.953-8.14,1.4-46.132,1.4-46.132-3.243-18.077-4.9-30.741C293.872,461.7,281.889,306.326,281.889,288.849Z" transform="translate(-232.911 16.16)" fill="#263238" stroke="#263238" stroke-linecap="round" stroke-linejoin="round" stroke-width="1"/>
          <path id="Path_3230" data-name="Path 3230" d="M333.94,234.11s-2.5,9.214-6.693,13.821-13.387,4.132-13.387,4.132" transform="translate(-261.742 29.622)" fill="none" stroke="#fff" stroke-linecap="round" stroke-linejoin="round" stroke-width="0.75"/>
          <path id="Path_3231" data-name="Path 3231" d="M305.391,236.34l-1.26,23.014-4.607,5.454L297.85,241.36" transform="translate(-200.117 31.999)" fill="none" stroke="#fff" stroke-linecap="round" stroke-linejoin="round" stroke-width="0.75"/>
          <path id="Path_3232" data-name="Path 3232" d="M314.175,359.33a37.806,37.806,0,0,1-15.845,7.582" transform="translate(-209.894 163.094)" fill="none" stroke="#fff" stroke-linecap="round" stroke-linejoin="round" stroke-width="0.75"/>
          <path id="Path_3233" data-name="Path 3233" d="M307.36,360s8.264,12.4,17.849,2.81" transform="translate(-239.583 163.808)" fill="none" stroke="#fff" stroke-linecap="round" stroke-linejoin="round" stroke-width="0.75"/>
          <path id="Path_3234" data-name="Path 3234" d="M345.027,244.56l-10.8,15.122-9.462,221.981S309.6,449.993,304.1,425.884s-7.582-57.143-7.582-57.143" transform="translate(-237.006 40.761)" fill="none" stroke="#fff" stroke-linecap="round" stroke-linejoin="round" stroke-width="0.75"/>
          <path id="Path_3235" data-name="Path 3235" d="M354.108,159.91s28.922,4.917,32.373,6.074.868,52.329.868,52.329,1.446,74.579-1.157,82.388-18.593,10.33-25.08,11.61a86.4,86.4,0,0,1-35.43-.7c-6.755-1.487-16.052-2.252-17.849-10.329s-3.76-54.354-7.809-69.683-19.068-39.892-12.994-50.015,32.951-17.622,44.52-19.068S354.108,159.91,354.108,159.91Z" transform="translate(-257.697 -49.467)" fill="#8d3ddc" stroke="#263238" stroke-linecap="round" stroke-linejoin="round" stroke-width="1"/>
          <path id="Path_3236" data-name="Path 3236" d="M308.563,170.358l-3.739,19.667,20.225,94.556-11.28,19.068-14.151-16.775,1.735-95.692L291.23,173.829l5.785-11.259Z" transform="translate(-206.099 -46.632)" fill="#263238"/>
          <path id="Path_3237" data-name="Path 3237" d="M292.847,157.67a40.471,40.471,0,0,1,11.259,8.966c4.917,5.764,13.3,21.093,12.4,20.514s-23.985-14.75-23.985-14.75Z" transform="translate(-200.279 -51.855)" fill="#8d3ddc" stroke="#263238" stroke-linecap="round" stroke-linejoin="round" stroke-width="1"/>
          <path id="Path_3238" data-name="Path 3238" d="M312.908,156.27l18.221,19.957-5.206,18.2-21.4-27.167Z" transform="translate(-239.635 -53.347)" fill="#8d3ddc" stroke="#263238" stroke-linecap="round" stroke-linejoin="round" stroke-width="1"/>
          <path id="Path_3239" data-name="Path 3239" d="M355.709,139.69s11.858,2.314,13.3-8.1-14.75-25.142-37.868-25.142-41.318,19.357-40.492,38.157a65.591,65.591,0,0,0,11.858,33.819c1.157,1.735,10.7,6.941,14.75,7.52s6.941-5.206,4.917-12.726,4.338-9.524,1.735-16.527-6.074-6.941-7.231-9.255,11.569-7.231,23.138-6.652S355.709,139.69,355.709,139.69Z" transform="translate(-248.906 -106.45)" fill="#263238" stroke="#263238" stroke-linecap="round" stroke-linejoin="round" stroke-width="1"/>
          <path id="Path_3240" data-name="Path 3240" d="M343.954,117.724c-13.821-.331-33.178,2.066-35.554,18.159" transform="translate(-260.476 -94.462)" fill="none" stroke="#fff" stroke-linecap="round" stroke-linejoin="round" stroke-width="1"/>
          <path id="Path_3241" data-name="Path 3241" d="M308.841,118.819s-2.872-.516-7.231-.909" transform="translate(-211.335 -94.235)" fill="none" stroke="#fff" stroke-linecap="round" stroke-linejoin="round" stroke-width="1"/>
          <path id="Path_3242" data-name="Path 3242" d="M342.883,114.27s-24.481.95-27.683,22" transform="translate(-273.453 -98.115)" fill="none" stroke="#fff" stroke-linecap="round" stroke-linejoin="round" stroke-width="1"/>
          <path id="Path_3243" data-name="Path 3243" d="M329.218,158.627a4.854,4.854,0,0,0,.186,1.116c.62,3.553,2.5,14.689,3,21.444.578,8.078-5.206,7.788-7.52,5.475s-14.461-14.461-16.527-19.647S301.7,146.19,301.7,146.19Z" transform="translate(-235.121 -64.091)" fill="#fff" stroke="#263238" stroke-linecap="round" stroke-linejoin="round" stroke-width="1"/>
          <path id="Path_3244" data-name="Path 3244" d="M352.673,125.47s4.132,22.56,5.5,34.4,2.892,18.8-2.066,26.32-18.779,2.6-25.72-.289-21.113-12.147-21.113-12.147-9.834.578-13.883-4.338a7.437,7.437,0,0,1,2.6-11.28c2.314-.578,7.52,1.446,9.255,3.471s1.446,4.338,3.471,4.338,4.917.578,4.338-1.446-4.917-8.677-3.76-12.994,9.834-7.231,2.6-11.28-14.75-3.76-11.28-9.834,21.4-12.4,32.682-10.123A83.006,83.006,0,0,1,352.673,125.47Z" transform="translate(-245.871 -92.23)" fill="#fff" stroke="#263238" stroke-linecap="round" stroke-linejoin="round" stroke-width="1"/>
          <path id="Path_3245" data-name="Path 3245" d="M303.272,125.825s-6.755-1.446-6.342,5.5c.145,2.727,12.127,15.329,10.329,18.2a15.2,15.2,0,0,1-4.628,4.628" transform="translate(-200.229 -85.932)" fill="none" stroke="#263238" stroke-linecap="round" stroke-linejoin="round" stroke-width="1"/>
          <path id="Path_3246" data-name="Path 3246" d="M318.068,130.18a7.974,7.974,0,0,0-12.147,2.6" transform="translate(-229.466 -83.057)" fill="none" stroke="#263238" stroke-linecap="round" stroke-linejoin="round" stroke-width="1"/>
          <path id="Path_3247" data-name="Path 3247" d="M315.432,143.53s-1.735,4.338-8.656,3.76-8.966-2.066-8.966-2.066" transform="translate(-210.076 -66.927)" fill="none" stroke="#263238" stroke-linecap="round" stroke-linejoin="round" stroke-width="1"/>
          <path id="Path_3248" data-name="Path 3248" d="M306.157,135.843c.413,1.921,1.549,3.285,2.562,3.078s1.508-1.942,1.095-3.843-1.549-3.285-2.562-3.078S305.764,133.942,306.157,135.843Z" transform="translate(-221.563 -79.238)" fill="#263238"/>
          <path id="Path_3249" data-name="Path 3249" d="M298.068,132.677c.351,1.839,1.446,3.181,2.417,3s1.487-1.859,1.116-3.7-1.446-3.181-2.438-3S297.7,130.818,298.068,132.677Z" transform="translate(-196.637 -82.455)" fill="#263238"/>
          <path id="Path_3250" data-name="Path 3250" d="M374.973,214.159a67.987,67.987,0,0,0-4.607-16.734c-4.132-9.772-14.172-29.542-16.775-26.857s-7.231,11.28-10.123,26.32-11.858,61.3-15.618,69.393-4.628,11.259-2.314,14.461c0,0,8.1,11.569,18.8,6.941s28.613-48.569,28.613-48.569" transform="translate(-324.26 -38.372)" fill="#8d3ddc" stroke="#263238" stroke-linecap="round" stroke-linejoin="round" stroke-width="1"/>
          <path id="Path_3251" data-name="Path 3251" d="M248.331,149.358c1.715,3.884-3.76,7.045-6.9,7.706-2.6.558-5.309-3.8-3.367-5.764a13.387,13.387,0,0,1,6.384-3.285,3.966,3.966,0,0,1,3.677,1.012A1.774,1.774,0,0,1,248.331,149.358Z" transform="translate(-18.505 -62.26)" fill="#fff" stroke="#263238" stroke-linecap="round" stroke-linejoin="round" stroke-width="1"/>
          <path id="Path_3252" data-name="Path 3252" d="M240.479,154.986s7.231-1.632,9.338-.806,2.066,6.074.93,7.458-11.548.7-12.953-.455S236.967,156.122,240.479,154.986Z" transform="translate(-20.714 -55.823)" fill="#fff" stroke="#263238" stroke-linecap="round" stroke-linejoin="round" stroke-width="1"/>
          <path id="Path_3253" data-name="Path 3253" d="M252.776,158.863s.1,5.371-1.4,6.879-12.251-.351-13.077-2.211.93-6.425,1.88-6.2S248.562,159.793,252.776,158.863Z" transform="translate(-24.024 -52.221)" fill="#fff" stroke="#263238" stroke-linecap="round" stroke-linejoin="round" stroke-width="1"/>
          <path id="Path_3254" data-name="Path 3254" d="M253.368,162.653a9.751,9.751,0,0,1-1.508,5.371c-1.529,1.632-10.515-1.281-12.147-3.388a2.438,2.438,0,0,1,1.178-3.967,52.72,52.72,0,0,0,8.388,1.859C251.963,162.653,253.368,162.653,253.368,162.653Z" transform="translate(-26.723 -48.657)" fill="#fff" stroke="#263238" stroke-linecap="round" stroke-linejoin="round" stroke-width="1"/>
        </g>
      </g>
    </g>
  </g>
</svg>
