<svg xmlns="http://www.w3.org/2000/svg" xmlns:xlink="http://www.w3.org/1999/xlink" width="721.317" height="700" viewBox="0 0 721.317 700"><defs><style>.a,.b,.c,.f,.g,.i,.n{fill:#fff;}.a,.ab,.b,.c,.i,.k,.l,.q,.r,.t,.u,.y,.z{stroke:#263238;}.a,.ab,.c,.i,.q,.r,.y,.z{stroke-miterlimit:10;}.a,.ab,.b,.q,.r,.t,.u{stroke-width:1.004px;}.aa,.b,.k,.l,.t,.u{stroke-linejoin:round;}.d,.l,.q,.w{fill:#8167f2;}.e{opacity:0.7;}.g{opacity:0.8;}.h{fill:#263238;}.i,.k,.l{stroke-width:1.337px;}.ab,.j{fill:#8d3ddc;}.k{fill:#8a51e4;}.aa,.k,.l,.z{stroke-linecap:round;}.m{fill:#64b4d2;}.n{opacity:0.3;}.o{opacity:0.2;}.p{clip-path:url(#a);}.q,.t,.w{opacity:0.5;}.aa,.r,.u,.y,.z{fill:none;}.s{clip-path:url(#b);}.t{fill:#92e3a9;}.v{clip-path:url(#c);}.x{clip-path:url(#d);}.aa{stroke:#fff;stroke-width:0.5px;}.ac{clip-path:url(#e);}</style><clipPath id="a"><path class="a" d="M165.188,230.152l-58.525-19.106-5.207-13.756-11.89-.373L67.99,192.83l2.595,4.461L97.741,217l6.7,3.341,61.209,31.973Z" transform="translate(-67.99 -192.83)"/></clipPath><clipPath id="b"><path class="b" d="M94.134,196.8l-5.581-3.341L77.41,197.548l1.848,2.222Z" transform="translate(-77.41 -193.46)"/></clipPath><clipPath id="c"><path class="a" d="M138.758,145.858s-.906,8,1.351,13.134S154.9,181.528,154.9,181.528l-23.389,18.75s-9.7-19.55-11.552-22.713-4.07-16.777,1.955-26.535S136.607,138.642,138.758,145.858Z" transform="translate(-117.978 -141.747)"/></clipPath><clipPath id="d"><path class="c" d="M163.3,147.316c-1.44-8.886-11.623-26.961-27.779-26.268-10.486.462-15.391,2.577-19.941,5.154a58.648,58.648,0,0,0-10.308,7.713c-7.891,9.473-10.664,12.068-9.135,19.319a21.753,21.753,0,0,0,1.333,8.5c2.417,6.451,4.07,10.664,6.167,13.738-.64,3-2.31,10.93-2.4,12.743s5.332.551,8.069-.142c5.083,11.374,14.4,19.266,17.293,20.172,5.047,1.582,13.027-6.718,17.257-13.152s1.031-13.667,1.049-16.546,9.508-9.206,13.027-11.215S164.721,156.185,163.3,147.316Z" transform="translate(-95.733 -121.029)"/></clipPath><clipPath id="e"><path class="a" d="M206.225,171.54s12.6,8.584,12.885,28.863c.124,8.886-.8,17.186-2.844,31.742s-14.734,61.955-24.615,67.714-25.219-5.118-25.219-5.118L92.249,245.492,74.316,231.007,65.43,214.23l2.79-5.332L90.1,225.675,78.315,214.781l2.31-2.932,4.265,2.968,12.441,4.656,2.719,17.773,3.839,2.63,70.966,25.93s-.889-38.193-.231-45.5,1.564-25.664,9.384-38.975" transform="translate(-65.43 -171.54)"/></clipPath></defs><g transform="translate(-44.73 -43.816)"><g transform="translate(44.73 43.816)"><path class="d" d="M692.364,149c-44.218-100.824-150.356-138.786-234.1-71.09-32.7,26.41-53.1,68.442-93.146,85.309-37.571,15.818-85.166,11.161-125.795,19.728-86.517,18.128-203,86.908-194.113,192.886C49.1,422.256,80.417,473.814,95.9,517.25c17.773,49.977,28.436,112.5,75.48,142.376,80.652,51.292,177.94,9.366,250.594-31.991,39.1-22.234,60.622-35.9,102.726-28.276,38.975,7.109,74.076,31.991,112.163,2.47,28.6-22.162,30.96-67.074,54.971-93.448,27.05-29.716,54.473-31.866,68.531-76.529,17.044-54.189-8.069-88.046-25.042-136.458S713.194,196.437,692.364,149Z" transform="translate(-44.73 -43.816)"/><g class="e"><path class="f" d="M692.364,149c-44.218-100.824-150.356-138.786-234.1-71.09-32.7,26.41-53.1,68.442-93.146,85.309-37.571,15.818-85.166,11.161-125.795,19.728-86.517,18.128-203,86.908-194.113,192.886C49.1,422.256,80.417,473.814,95.9,517.25c17.773,49.977,28.436,112.5,75.48,142.376,80.652,51.292,177.94,9.366,250.594-31.991,39.1-22.234,60.622-35.9,102.726-28.276,38.975,7.109,74.076,31.991,112.163,2.47,28.6-22.162,30.96-67.074,54.971-93.448,27.05-29.716,54.473-31.866,68.531-76.529,17.044-54.189-8.069-88.046-25.042-136.458S713.194,196.437,692.364,149Z" transform="translate(-44.73 -43.816)"/></g></g><g transform="translate(81.164 709.586)"><ellipse class="d" cx="274.729" cy="17.115" rx="274.729" ry="17.115"/><ellipse class="g" cx="274.729" cy="17.115" rx="274.729" ry="17.115"/></g><g transform="translate(251.568 75.885)"><rect class="h" width="345.304" height="652.255" rx="19.43"/><rect class="i" width="314.611" height="509.008" transform="translate(15.338 71.624)"/><circle class="j" cx="68.194" cy="68.194" r="68.194" transform="translate(76.214 229.515) rotate(-45)"/><path class="j" d="M388.276,373.232H209.235a3.057,3.057,0,0,1-3.075-3.057h0a3.057,3.057,0,0,1,3.075-3.075H388.276a3.057,3.057,0,0,1,3.057,3.075h0A3.057,3.057,0,0,1,388.276,373.232Z" transform="translate(-126.094 175.392)"/><rect class="j" width="204.972" height="36.736" rx="4.01" transform="translate(70.166 336.045)"/><rect class="j" width="204.972" height="36.736" rx="4.01" transform="translate(70.166 404.754)"/><path class="h" d="M310.432,247.872,290.367,236.32v-9.544a31.385,31.385,0,0,0,6.167-12.032,6.469,6.469,0,0,0,2.151.373c2.488,0,4.07-7.713,4.337-13.223,2.9-6.132-1.049-9.722-1.049-9.722s1.635-1.635,2.719-8.193-3.821-3.821-7.642-9.828S290.492,161.6,277.944,161.6a17.239,17.239,0,0,0-16.386,10.379,41.52,41.52,0,0,0-9.277,1.084c-3.839,1.084-4.923,13.649-1.653,18.572A18.715,18.715,0,0,1,252.9,200.4c-.871-1.066-1.777-1.351-2.275,1.066-1.084,5.456,3.288,13.1,3.288,13.1l2.257-.64a31.991,31.991,0,0,0,6.416,12.85v9.544l-20.065,11.552a15.427,15.427,0,0,0-7.713,13.347v6.611a68.158,68.158,0,0,0,83.336,0V261.22A15.391,15.391,0,0,0,310.432,247.872Z" transform="translate(-103.826 15.66)"/><path class="f" d="M217.946,313.229a1.778,1.778,0,0,1-1.226-.515,1.653,1.653,0,0,1-.551-1.244,1.777,1.777,0,0,1,.266-.906l3.2-5.119-6.238.2a1.671,1.671,0,0,1-1.28-.48,1.777,1.777,0,0,1,0-2.364,1.617,1.617,0,0,1,1.28-.5l6.149.231-3.163-5.1a1.777,1.777,0,0,1-.267-.924,1.653,1.653,0,0,1,.551-1.244,1.778,1.778,0,0,1,1.226-.515,1.6,1.6,0,0,1,1.44.924l3.039,5.492,3-5.456a1.777,1.777,0,0,1,1.546-1,1.617,1.617,0,0,1,1.191.533,1.812,1.812,0,0,1,.267,2.133l-3.217,5.154,6.238-.231a1.617,1.617,0,0,1,1.28.5,1.653,1.653,0,0,1,.462,1.173,1.777,1.777,0,0,1-.462,1.191,1.671,1.671,0,0,1-1.28.48l-6.274-.2,3.128,5.065a1.782,1.782,0,0,1-1.511,2.719,1.564,1.564,0,0,1-1.422-.96l-2.968-5.332-2.95,5.332A1.67,1.67,0,0,1,217.946,313.229Z" transform="translate(-121.814 119.126)"/><path class="f" d="M234.178,313.229a1.777,1.777,0,0,1-1.226-.515,1.653,1.653,0,0,1-.551-1.244,1.778,1.778,0,0,1,.267-.906l3.2-5.119-6.22.2a1.778,1.778,0,0,1-1.3-.48,1.688,1.688,0,0,1,1.3-2.861l6.132.231-3.163-5.1a1.778,1.778,0,0,1-.267-.924,1.653,1.653,0,0,1,.551-1.244,1.777,1.777,0,0,1,1.226-.515,1.6,1.6,0,0,1,1.44.924l3.039,5.492,3-5.456a1.777,1.777,0,0,1,1.546-1,1.581,1.581,0,0,1,1.191.533,1.739,1.739,0,0,1,.267,2.133l-3.217,5.154,6.256-.2a1.581,1.581,0,0,1,1.262.5,1.653,1.653,0,0,1,.462,1.173,1.778,1.778,0,0,1-.462,1.191,1.635,1.635,0,0,1-1.262.48l-6.292-.2,3.128,5.065a1.782,1.782,0,0,1-1.511,2.719,1.564,1.564,0,0,1-1.422-.96l-2.968-5.332-2.95,5.332A1.671,1.671,0,0,1,234.178,313.229Z" transform="translate(-109.218 119.126)"/><path class="f" d="M250.408,313.229a1.777,1.777,0,0,1-1.244-.515,1.653,1.653,0,0,1-.551-1.244,1.778,1.778,0,0,1,.267-.906l3.2-5.118-6.22.2a1.688,1.688,0,0,1-1.3-2.844,1.671,1.671,0,0,1,1.3-.5l6.132.231-3.164-5.1a1.783,1.783,0,0,1,1.528-2.684,1.6,1.6,0,0,1,1.422.924l3.039,5.492,3-5.456a1.777,1.777,0,0,1,1.546-1,1.582,1.582,0,0,1,1.191.533,1.739,1.739,0,0,1,.267,2.133l-3.217,5.154,6.256-.231a1.617,1.617,0,0,1,1.777,1.671,1.777,1.777,0,0,1-.444,1.191,1.671,1.671,0,0,1-1.28.48l-6.274-.2,3.11,5.065a1.726,1.726,0,0,1-.284,2.186,1.671,1.671,0,0,1-1.209.533,1.546,1.546,0,0,1-1.4-.96l-2.986-5.332-2.95,5.332a1.653,1.653,0,0,1-1.511.96Z" transform="translate(-96.603 119.126)"/><path class="f" d="M266.624,313.229a1.79,1.79,0,0,1-1.777-1.76,1.67,1.67,0,0,1,.249-.906l3.2-5.119-6.22.2a1.674,1.674,0,1,1,0-3.341l6.149.231-3.146-5.1a1.783,1.783,0,0,1,1.529-2.684,1.6,1.6,0,0,1,1.44.924l3.021,5.492,3-5.456a1.777,1.777,0,0,1,1.546-1,1.581,1.581,0,0,1,1.191.533,1.739,1.739,0,0,1,.267,2.133l-3.217,5.154,6.256-.231a1.617,1.617,0,0,1,1.777,1.671,1.778,1.778,0,0,1-.444,1.191,1.672,1.672,0,0,1-1.28.48l-6.274-.2L277,310.51a1.777,1.777,0,0,1,.267.942,1.652,1.652,0,0,1-.551,1.244,1.671,1.671,0,0,1-1.209.533,1.546,1.546,0,0,1-1.4-.96l-2.986-5.332-2.95,5.332a1.653,1.653,0,0,1-1.546.96Z" transform="translate(-83.992 119.126)"/><path class="f" d="M282.844,313.229a1.762,1.762,0,0,1-1.511-2.666l3.181-5.119-6.22.2a1.674,1.674,0,1,1,0-3.341l6.149.231-3.164-5.1a1.769,1.769,0,0,1,1.511-2.684,1.6,1.6,0,0,1,1.44.924l3.021,5.492,3-5.456a1.777,1.777,0,0,1,1.546-1,1.618,1.618,0,0,1,1.209.533,1.765,1.765,0,0,1,.249,2.133l-3.217,5.154,6.256-.231a1.617,1.617,0,0,1,1.777,1.671,1.777,1.777,0,0,1-.444,1.191,1.671,1.671,0,0,1-1.28.48l-6.274-.2,3.11,5.065a1.778,1.778,0,0,1,.267.942,1.653,1.653,0,0,1-.551,1.244,1.671,1.671,0,0,1-1.209.533,1.546,1.546,0,0,1-1.4-.96l-2.986-5.332-2.95,5.332a1.653,1.653,0,0,1-1.511.96Z" transform="translate(-71.385 119.126)"/><path class="f" d="M299.077,313.229a1.778,1.778,0,0,1-1.226-.515,1.652,1.652,0,0,1-.551-1.244,1.777,1.777,0,0,1,.266-.906l3.181-5.118-6.22.2a1.674,1.674,0,0,1-1.3-2.844,1.617,1.617,0,0,1,1.28-.5l6.149.231-3.163-5.1a1.77,1.77,0,0,1,1.511-2.684,1.6,1.6,0,0,1,1.44.924l3.021,5.492,3.021-5.456a1.777,1.777,0,0,1,1.528-1,1.618,1.618,0,0,1,1.208.533,1.812,1.812,0,0,1,.267,2.133l-3.217,5.154,6.238-.231a1.617,1.617,0,0,1,1.28.5,1.653,1.653,0,0,1,.462,1.173,1.777,1.777,0,0,1-.462,1.191,1.671,1.671,0,0,1-1.28.48l-6.274-.2,3.11,5.065a1.8,1.8,0,0,1-1.493,2.719,1.546,1.546,0,0,1-1.4-.96l-2.986-5.332-2.95,5.332a1.652,1.652,0,0,1-1.439.96Z" transform="translate(-58.791 119.126)"/><rect class="j" width="314.611" height="19.71" transform="translate(15.338 72.299)"/><path class="k" d="M309.461,86.183H241.036a4.656,4.656,0,0,1-4.656-4.656h0a4.656,4.656,0,0,1,4.656-4.656h68.425a4.656,4.656,0,0,1,4.656,4.656h0a4.656,4.656,0,0,1-4.656,4.656Z" transform="translate(-102.605 -50.193)"/><path class="d" d="M285.073,412.909a18.661,18.661,0,1,0-18.643,18.643A18.661,18.661,0,0,0,285.073,412.909Z" transform="translate(-93.768 196.479)"/><rect class="l" width="18.91" height="18.91" transform="translate(163.206 599.933)"/></g><g transform="translate(568.607 387.503)"><path class="m" d="M420.368,320.379s-24.775-62.951-2.719-70.433c22.962-7.8,21.949,33.768,21.061,54.029-1.866,43.294-6.647,51.345-10.219,40.77Zm-7.447,49.106c6.807,8.886,8.726-.32-3.555-41.89-5.758-19.55-18.27-59.094-37.465-44.254-18.43,14.218,25.432,65.759,25.432,65.759ZM399.77,405.563c6.487,5.758,6.611-1.511-8.8-31.529-7.234-14.058-22.536-42.512-35.065-28.436-12.032,13.578,28.969,46.582,28.969,46.582Zm-14.218,42.9c6.487,5.776,6.611-1.511-8.8-31.511-7.233-14.058-22.536-42.53-35.065-28.436-11.961,13.614,28.916,46.618,28.916,46.618Zm41.055-87.335c-10.379,4.052-2.133,8.46,41.215,8.335,20.332,0,61.849-.924,53-23.513-8.478-21.7-70.22,5.936-70.22,5.936Zm-11.819,28.863c-10.984,1.9-3.768,7.873,38.744,16.369,19.923,4,60.782,11.375,56.606-12.441-4-22.962-70.006-8.14-70.006-8.14Zm-13.223,35.243c-9.349,1.351-3.377,6.558,32.364,14.733,16.76,3.839,51.15,11.037,48.164-9.277-2.844-19.55-59.005-8.5-59.005-8.5Zm-10.042,32.648c-9.153,2.328-2.666,6.878,33.768,11.215,17.062,2.026,52.02,5.545,46.92-14.342-4.923-19.088-59.592-2.186-59.592-2.186ZM445.09,325.711c-5.332,11.943,5.741,10.13,43.383-22.713,17.63-15.409,53-47.648,24.988-63.7-26.89-15.427-55.806,59.005-55.806,59.005Zm-52.18,174.7c-5.634,3.288-.107,4.568,25.735-.587,12.121-2.4,36.772-7.731,28.436-18.252-8.069-10.13-41.126,11.2-41.126,11.2Z" transform="translate(-339.496 -237.196)"/><path class="n" d="M420.368,320.379s-24.775-62.951-2.719-70.433c22.962-7.8,21.949,33.768,21.061,54.029-1.866,43.294-6.647,51.345-10.219,40.77Zm-7.447,49.106c6.807,8.886,8.726-.32-3.555-41.89-5.758-19.55-18.27-59.094-37.465-44.254-18.43,14.218,25.432,65.759,25.432,65.759ZM399.77,405.563c6.487,5.758,6.611-1.511-8.8-31.529-7.234-14.058-22.536-42.512-35.065-28.436-12.032,13.578,28.969,46.582,28.969,46.582Zm-14.218,42.9c6.487,5.776,6.611-1.511-8.8-31.511-7.233-14.058-22.536-42.53-35.065-28.436-11.961,13.614,28.916,46.618,28.916,46.618Zm41.055-87.335c-10.379,4.052-2.133,8.46,41.215,8.335,20.332,0,61.849-.924,53-23.513-8.478-21.7-70.22,5.936-70.22,5.936Zm-11.819,28.863c-10.984,1.9-3.768,7.873,38.744,16.369,19.923,4,60.782,11.375,56.606-12.441-4-22.962-70.006-8.14-70.006-8.14Zm-13.223,35.243c-9.349,1.351-3.377,6.558,32.364,14.733,16.76,3.839,51.15,11.037,48.164-9.277-2.844-19.55-59.005-8.5-59.005-8.5Zm-10.042,32.648c-9.153,2.328-2.666,6.878,33.768,11.215,17.062,2.026,52.02,5.545,46.92-14.342-4.923-19.088-59.592-2.186-59.592-2.186ZM445.09,325.711c-5.332,11.943,5.741,10.13,43.383-22.713,17.63-15.409,53-47.648,24.988-63.7-26.89-15.427-55.806,59.005-55.806,59.005Zm-52.18,174.7c-5.634,3.288-.107,4.568,25.735-.587,12.121-2.4,36.772-7.731,28.436-18.252-8.069-10.13-41.126,11.2-41.126,11.2Z" transform="translate(-339.496 -237.196)"/><path class="m" d="M419.334,337.762l-4.319-71.855m-9.348,95.563-27.3-61.8M476.118,343.5,410.7,352.887m-19.177,41.89L356.1,349.332m41.641,31.511,48.8,2.453m-60.356,32.4,37.323,3.7M377.178,437.84l-18.537-27.885m16.4,37.731,43.881.409m-52.767,81.914a1.12,1.12,0,0,0,1.031-1.191c-2.79-41.908,13.418-110.546,39.42-166.885,16.617-36.007,81.754-106.778,82.447-107.489a1.12,1.12,0,0,0,0-1.582,1.1,1.1,0,0,0-1.564,0c-.658.711-66.061,71.748-82.82,108.075-26.481,57.708-42.477,125.1-39.633,168.022a1.138,1.138,0,0,0,1.12,1.049Zm53.158-191.145a1.12,1.12,0,0,0,1.049-1.173l-4.248-71.89a1.1,1.1,0,0,0-1.173-1.049,1.12,1.12,0,0,0-1.048,1.173l4.319,71.855a1.1,1.1,0,0,0,1.1,1.049Zm-13.258,23.62a1.12,1.12,0,0,0,.569-1.457l-27.316-61.8a1.106,1.106,0,0,0-2.026.889l27.3,61.8a1.12,1.12,0,0,0,1.013.675,1.1,1.1,0,0,0,.533-.107Zm4.727-8.531,65.385-9.348a1.12,1.12,0,1,0-.3-2.2l-65.386,9.348a1.1,1.1,0,0,0,.142,2.2Zm-18.643,41.712a1.12,1.12,0,0,0,.2-1.564L356.9,348.568a1.122,1.122,0,1,0-1.777,1.368l35.51,45.6a1.1,1.1,0,0,0,.871.427,1.12,1.12,0,0,0,.711-.3Zm55.38-12.316a1.12,1.12,0,0,0-1.066-1.155l-48.715-2.47a1.12,1.12,0,0,0-.107,2.222l48.8,2.47h0a1.12,1.12,0,0,0,1.155-1.066Zm-22.98,36.15a1.1,1.1,0,0,0-1-1.226l-37.323-3.679a1.1,1.1,0,0,0-1.209,1,1.12,1.12,0,0,0,1,1.208l37.323,3.7h.107a1.1,1.1,0,0,0,1.173-1Zm-46.831,19.266a1.12,1.12,0,0,0,.32-1.546l-18.448-27.885a1.138,1.138,0,0,0-1.546-.3,1.12,1.12,0,0,0-.32,1.546l18.448,27.885a1.156,1.156,0,0,0,.942.5,1.067,1.067,0,0,0,.675-.2Zm42.334,9.331a1.138,1.138,0,0,0-1.1-1.12l-43.881-.409h0a1.1,1.1,0,0,0-1.1,1.1,1.084,1.084,0,0,0,1.1,1.12l43.881.409h0a1.12,1.12,0,0,0,1.173-1.1Zm-58.881,65.616c.089-.2,7.571-20.812,30.071-25.735a1.119,1.119,0,0,0,.853-1.333,1.137,1.137,0,0,0-1.333-.835c-23.726,5.19-31.6,26.961-31.689,27.174a1.137,1.137,0,0,0,.693,1.422h.356a1.1,1.1,0,0,0,1.12-.693Zm4.994,16.3a1.12,1.12,0,0,0,1.031-1.191c-2.79-41.908,13.418-110.546,39.42-166.885,16.617-36.007,81.754-106.778,82.447-107.489a1.12,1.12,0,0,0,0-1.582,1.1,1.1,0,0,0-1.564,0c-.658.711-66.061,71.748-82.82,108.075-26.481,57.708-42.477,125.1-39.633,168.022a1.138,1.138,0,0,0,1.12,1.049Zm53.158-191.145a1.12,1.12,0,0,0,1.048-1.173l-4.248-71.89a1.1,1.1,0,0,0-1.173-1.049,1.12,1.12,0,0,0-1.048,1.173l4.319,71.855a1.1,1.1,0,0,0,1.1,1.049Zm-13.258,23.62a1.119,1.119,0,0,0,.569-1.457l-27.316-61.8a1.106,1.106,0,0,0-2.026.889l27.3,61.8a1.12,1.12,0,0,0,1.013.675,1.1,1.1,0,0,0,.533-.107Zm4.728-8.531,65.385-9.348a1.12,1.12,0,1,0-.3-2.2l-65.386,9.348a1.1,1.1,0,0,0,.142,2.2Zm-18.643,41.712a1.12,1.12,0,0,0,.2-1.564L356.9,348.568a1.122,1.122,0,0,0-1.777,1.368l35.51,45.6a1.1,1.1,0,0,0,.871.427,1.12,1.12,0,0,0,.711-.3Zm55.38-12.316a1.12,1.12,0,0,0-1.066-1.155l-48.715-2.47a1.12,1.12,0,0,0-.107,2.222l48.8,2.47h0a1.12,1.12,0,0,0,1.155-1.066Zm-22.98,36.15a1.1,1.1,0,0,0-1-1.226l-37.323-3.679a1.1,1.1,0,0,0-1.208,1,1.12,1.12,0,0,0,1,1.208l37.323,3.7h.107a1.1,1.1,0,0,0,1.173-1Zm-46.831,19.266a1.12,1.12,0,0,0,.32-1.546l-18.448-27.885a1.137,1.137,0,0,0-1.546-.3,1.12,1.12,0,0,0-.32,1.546l18.448,27.885a1.156,1.156,0,0,0,.942.5,1.067,1.067,0,0,0,.675-.2Zm42.334,9.331a1.138,1.138,0,0,0-1.1-1.12l-43.881-.409h0a1.1,1.1,0,0,0-1.1,1.1,1.084,1.084,0,0,0,1.1,1.12l43.881.409h0a1.12,1.12,0,0,0,1.173-1.1Zm-58.881,65.616c.089-.2,7.571-20.812,30.071-25.735a1.119,1.119,0,0,0,.853-1.333,1.137,1.137,0,0,0-1.333-.835c-23.727,5.19-31.6,26.961-31.689,27.174a1.137,1.137,0,0,0,.693,1.422h.356a1.1,1.1,0,0,0,1.119-.693Z" transform="translate(-327.532 -225.272)"/><path class="o" d="M419.334,337.762l-4.319-71.855m-9.348,95.563-27.3-61.8M476.118,343.5,410.7,352.887m-19.177,41.89L356.1,349.332m41.641,31.511,48.8,2.453m-60.356,32.4,37.323,3.7M377.178,437.84l-18.537-27.885m16.4,37.731,43.881.409m-52.767,81.914a1.12,1.12,0,0,0,1.031-1.191c-2.79-41.908,13.418-110.546,39.42-166.885,16.617-36.007,81.754-106.778,82.447-107.489a1.12,1.12,0,0,0,0-1.582,1.1,1.1,0,0,0-1.564,0c-.658.711-66.061,71.748-82.82,108.075-26.481,57.708-42.477,125.1-39.633,168.022a1.138,1.138,0,0,0,1.12,1.049Zm53.158-191.145a1.12,1.12,0,0,0,1.049-1.173l-4.248-71.89a1.1,1.1,0,0,0-1.173-1.049,1.12,1.12,0,0,0-1.048,1.173l4.319,71.855a1.1,1.1,0,0,0,1.1,1.049Zm-13.258,23.62a1.12,1.12,0,0,0,.569-1.457l-27.316-61.8a1.106,1.106,0,0,0-2.026.889l27.3,61.8a1.12,1.12,0,0,0,1.013.675,1.1,1.1,0,0,0,.533-.107Zm4.727-8.531,65.385-9.348a1.12,1.12,0,1,0-.3-2.2l-65.386,9.348a1.1,1.1,0,0,0,.142,2.2Zm-18.643,41.712a1.12,1.12,0,0,0,.2-1.564L356.9,348.568a1.122,1.122,0,1,0-1.777,1.368l35.51,45.6a1.1,1.1,0,0,0,.871.427,1.12,1.12,0,0,0,.711-.3Zm55.38-12.316a1.12,1.12,0,0,0-1.066-1.155l-48.715-2.47a1.12,1.12,0,0,0-.107,2.222l48.8,2.47h0a1.12,1.12,0,0,0,1.155-1.066Zm-22.98,36.15a1.1,1.1,0,0,0-1-1.226l-37.323-3.679a1.1,1.1,0,0,0-1.209,1,1.12,1.12,0,0,0,1,1.208l37.323,3.7h.107a1.1,1.1,0,0,0,1.173-1Zm-46.831,19.266a1.12,1.12,0,0,0,.32-1.546l-18.448-27.885a1.138,1.138,0,0,0-1.546-.3,1.12,1.12,0,0,0-.32,1.546l18.448,27.885a1.156,1.156,0,0,0,.942.5,1.067,1.067,0,0,0,.675-.2Zm42.334,9.331a1.138,1.138,0,0,0-1.1-1.12l-43.881-.409h0a1.1,1.1,0,0,0-1.1,1.1,1.084,1.084,0,0,0,1.1,1.12l43.881.409h0a1.12,1.12,0,0,0,1.173-1.1Zm-58.881,65.616c.089-.2,7.571-20.812,30.071-25.735a1.119,1.119,0,0,0,.853-1.333,1.137,1.137,0,0,0-1.333-.835c-23.726,5.19-31.6,26.961-31.689,27.174a1.137,1.137,0,0,0,.693,1.422h.356a1.1,1.1,0,0,0,1.12-.693Zm4.994,16.3a1.12,1.12,0,0,0,1.031-1.191c-2.79-41.908,13.418-110.546,39.42-166.885,16.617-36.007,81.754-106.778,82.447-107.489a1.12,1.12,0,0,0,0-1.582,1.1,1.1,0,0,0-1.564,0c-.658.711-66.061,71.748-82.82,108.075-26.481,57.708-42.477,125.1-39.633,168.022a1.138,1.138,0,0,0,1.12,1.049Zm53.158-191.145a1.12,1.12,0,0,0,1.048-1.173l-4.248-71.89a1.1,1.1,0,0,0-1.173-1.049,1.12,1.12,0,0,0-1.048,1.173l4.319,71.855a1.1,1.1,0,0,0,1.1,1.049Zm-13.258,23.62a1.119,1.119,0,0,0,.569-1.457l-27.316-61.8a1.106,1.106,0,0,0-2.026.889l27.3,61.8a1.12,1.12,0,0,0,1.013.675,1.1,1.1,0,0,0,.533-.107Zm4.728-8.531,65.385-9.348a1.12,1.12,0,1,0-.3-2.2l-65.386,9.348a1.1,1.1,0,0,0,.142,2.2Zm-18.643,41.712a1.12,1.12,0,0,0,.2-1.564L356.9,348.568a1.122,1.122,0,0,0-1.777,1.368l35.51,45.6a1.1,1.1,0,0,0,.871.427,1.12,1.12,0,0,0,.711-.3Zm55.38-12.316a1.12,1.12,0,0,0-1.066-1.155l-48.715-2.47a1.12,1.12,0,0,0-.107,2.222l48.8,2.47h0a1.12,1.12,0,0,0,1.155-1.066Zm-22.98,36.15a1.1,1.1,0,0,0-1-1.226l-37.323-3.679a1.1,1.1,0,0,0-1.208,1,1.12,1.12,0,0,0,1,1.208l37.323,3.7h.107a1.1,1.1,0,0,0,1.173-1Zm-46.831,19.266a1.12,1.12,0,0,0,.32-1.546l-18.448-27.885a1.137,1.137,0,0,0-1.546-.3,1.12,1.12,0,0,0-.32,1.546l18.448,27.885a1.156,1.156,0,0,0,.942.5,1.067,1.067,0,0,0,.675-.2Zm42.334,9.331a1.138,1.138,0,0,0-1.1-1.12l-43.881-.409h0a1.1,1.1,0,0,0-1.1,1.1,1.084,1.084,0,0,0,1.1,1.12l43.881.409h0a1.12,1.12,0,0,0,1.173-1.1Zm-58.881,65.616c.089-.2,7.571-20.812,30.071-25.735a1.119,1.119,0,0,0,.853-1.333,1.137,1.137,0,0,0-1.333-.835c-23.727,5.19-31.6,26.961-31.689,27.174a1.137,1.137,0,0,0,.693,1.422h.356a1.1,1.1,0,0,0,1.119-.693Z" transform="translate(-327.532 -225.272)"/><path class="m" d="M399.564,391.03H349.25v10.415h4.39l9.082,56.819h23.371l9.082-56.819h4.39Z" transform="translate(-331.915 -117.626)"/><path class="n" d="M399.564,391.03H349.25v10.415h4.39l9.082,56.819h23.371l9.082-56.819h4.39Z" transform="translate(-331.915 -117.626)"/></g><g transform="translate(72.42 168.604)"><path class="a" d="M165.188,230.152l-58.525-19.106-5.207-13.756-11.89-.373L67.99,192.83l2.595,4.461L97.741,217l6.7,3.341,61.209,31.973Z" transform="translate(-54.341 -52.781)"/><path class="b" d="M94.134,196.8l-5.581-3.341L77.41,197.548l1.848,2.222Z" transform="translate(-47.019 -52.292)"/><path class="f" d="M165.188,230.152l-58.525-19.106-5.207-13.756-11.89-.373L67.99,192.83l2.595,4.461L97.741,217l6.7,3.341,61.209,31.973Z" transform="translate(-54.341 -52.781)"/><g class="p" transform="translate(13.649 140.048)"><path class="q" d="M165.188,230.152l-58.525-19.106-5.207-13.756-11.89-.373L67.99,192.83l2.595,4.461L97.741,217l6.7,3.341,61.209,31.973Z" transform="translate(-67.99 -192.83)"/></g><path class="r" d="M165.188,230.152l-58.525-19.106-5.207-13.756-11.89-.373L67.99,192.83l2.595,4.461L97.741,217l6.7,3.341,61.209,31.973Z" transform="translate(-54.341 -52.781)"/><path class="f" d="M94.134,196.8l-5.581-3.341L77.41,197.548l1.848,2.222Z" transform="translate(-47.019 -52.292)"/><g class="s" transform="translate(30.391 141.168)"><path class="t" d="M94.134,196.8l-5.581-3.341L77.41,197.548l1.848,2.222Z" transform="translate(-77.41 -193.46)"/></g><path class="u" d="M94.134,196.8l-5.581-3.341L77.41,197.548l1.848,2.222Z" transform="translate(-47.019 -52.292)"/><path class="f" d="M138.758,145.858s-.906,8,1.351,13.134S154.9,181.528,154.9,181.528l-23.389,18.75s-9.7-19.55-11.552-22.713-4.07-16.777,1.955-26.535S136.607,138.642,138.758,145.858Z" transform="translate(-15.487 -92.487)"/><g class="v" transform="translate(102.491 49.26)"><path class="w" d="M125.3,158.52l10.148,21.043-5.4,7.7-10.2-18.217Z" transform="translate(-116.531 -128.71)"/></g><path class="r" d="M138.758,145.858s-.906,8,1.351,13.134S154.9,181.528,154.9,181.528l-23.389,18.75s-9.7-19.55-11.552-22.713-4.07-16.777,1.955-26.535S136.607,138.642,138.758,145.858Z" transform="translate(-15.487 -92.487)"/><path class="f" d="M163.3,147.316c-1.44-8.886-11.623-26.961-27.779-26.268-10.486.462-15.391,2.577-19.941,5.154a58.648,58.648,0,0,0-10.308,7.713c-7.891,9.473-10.664,12.068-9.135,19.319a21.753,21.753,0,0,0,1.333,8.5c2.417,6.451,4.07,10.664,6.167,13.738-.64,3-2.31,10.93-2.4,12.743s5.332.551,8.069-.142c5.083,11.374,14.4,19.266,17.293,20.172,5.047,1.582,13.027-6.718,17.257-13.152s1.031-13.667,1.049-16.546,9.508-9.206,13.027-11.215S164.721,156.185,163.3,147.316Z" transform="translate(-32.777 -108.59)"/><g class="x" transform="translate(62.956 12.439)"><path class="w" d="M96.181,149.573a21.753,21.753,0,0,0,1.333,8.5c2.417,6.451,4.07,10.664,6.167,13.738-.64,3-2.31,10.93-2.4,12.743s5.332.551,8.069-.142c5.083,11.374,14.4,19.266,17.293,20.172,5.047,1.582,13.027-6.718,17.257-13.152a12.956,12.956,0,0,0,2.008-5.332c-.231-.835-.391-1.351-.391-1.351s-2.382,9.153-7.109,7.962-11.961-10.664-16-13.934-2.382-7.571-3.181-12.441-12.743-9.153-13.543-11.943,1.991-14.343,1.991-14.343,4.532-6.043,3.555-3.555a16.92,16.92,0,0,0,1.191,13.134A9.064,9.064,0,0,0,120.8,154.8l4.337-21.487-9.153-7.571-10.664,4.443C97.354,139.727,94.635,142.322,96.181,149.573Z" transform="translate(-95.707 -117.367)"/></g><path class="y" d="M163.3,147.316c-1.44-8.886-11.623-26.961-27.779-26.268-10.486.462-15.391,2.577-19.941,5.154a58.648,58.648,0,0,0-10.308,7.713c-7.891,9.473-10.664,12.068-9.135,19.319a21.753,21.753,0,0,0,1.333,8.5c2.417,6.451,4.07,10.664,6.167,13.738-.64,3-2.31,10.93-2.4,12.743s5.332.551,8.069-.142c5.083,11.374,14.4,19.266,17.293,20.172,5.047,1.582,13.027-6.718,17.257-13.152s1.031-13.667,1.049-16.546,9.508-9.206,13.027-11.215S164.721,156.185,163.3,147.316Z" transform="translate(-32.777 -108.59)"/><path class="z" d="M101.42,148.64l1.777,5.083s3.821,1.262,8.478-3.821" transform="translate(-28.357 -87.129)"/><path class="z" d="M108.81,164.783s4.23-.427,5.936-6.363" transform="translate(-22.613 -79.527)"/><path class="z" d="M99.75,147.921s1.262-3.821,8.886-3.821" transform="translate(-29.655 -90.657)"/><path class="h" d="M148.373,119.415a126.293,126.293,0,0,0-16.724-1.28s-16.742-9.651-32.826.64-8.353,28.312-8.353,32.808-5.154,4.514-1.937,10.308,14.094,2.595,14.094,2.595a15.462,15.462,0,0,1,5.812-11.286c5.794-4.5,10.415-5.474,12.334-4.177,0,0-1.28,9.651.64,13.507,0,0,6.434,3.217,8.371,3.217s-1.262,2.719,5.154,5.136a8.033,8.033,0,0,0,7.109-.835c.942-3.91,3-9.793,6.842-8.424,5.634,2.008,10.77,15.871,3.146,20.6,9.171,1.671,20.279-14.556,20.936-29.343S157.9,121.086,148.373,119.415Z" transform="translate(-39.196 -114.03)"/><path class="aa" d="M106.37,130.409s4.728-2.542,10.521,2.9,17.062,12.707,31.991,8.709" transform="translate(-24.51 -101.76)"/><path class="aa" d="M106,129.923s3.252-5.083,8.691-5.083,18.146,7.624,28.294,7.624" transform="translate(-24.797 -105.628)"/><path class="aa" d="M110.58,134.894s-6.167-7.607-11.961-1.44-2.115,12-2.115,12" transform="translate(-33.074 -100.806)"/><path class="aa" d="M90.05,146.249A18.839,18.839,0,0,0,96.2,133.915c.729-7.98,11.623-14.876,18.5-8.335" transform="translate(-37.195 -107.078)"/><path class="aa" d="M96.37,121.456s10.895-10.521,19.959,2.9" transform="translate(-32.283 -111.307)"/><path class="a" d="M171.874,410.81s6.7,10.415,5.954,17.115l-.729,6.7s-24.58,6.736-29.787,6.736-32.773-2.613-32.773-2.613l-1.191-4.727a1.564,1.564,0,0,1,.853-1.777l24.58-11.463,7.749-8.478Z" transform="translate(-19.119 116.646)"/><path class="ab" d="M150.878,427.739c6.665.516,19.319-3.555,26.659-6.149l-.515,4.656s-24.668,6.736-29.876,6.736-32.773-2.613-32.773-2.613l-.853-3.377C117.928,427.011,142.063,427.064,150.878,427.739Z" transform="translate(-18.952 125.025)"/><path class="a" d="M143.9,416.766l-35.776,15.569s-3.057,7.66,0,9.188,69.7,0,69.7,0,4.6-12.1-2.666-20.225S143.9,416.766,143.9,416.766Z" transform="translate(-24.202 120.661)"/><path class="ab" d="M177.83,432.511s-66.647,1.528-69.7,0c-1.475-.746-1.528-2.9-1.191-4.941H179a27.107,27.107,0,0,1-1.173,4.941Z" transform="translate(-24.204 129.673)"/><path class="ab" d="M125.971,267.016s-9.348,41.428-12.885,67.341-5.616,77.826-4.87,83.78,37.962,105.712,37.962,105.712l3.714,8.886,26.055-5.207s-11.908-37.962-16.369-58.81-14.218-55.1-14.218-61.049,23.1-119.663,24.757-127.128,9.153-18.928,9.153-18.928L129.383,260.6Z" transform="translate(-23.192 -0.106)"/><path class="ab" d="M119.786,269.821s-5.474,37.838-3.217,64.141,7.109,82.305,7.109,90.64,13.454,58.117,14.218,73.756c1.191,22.589-.48,33.768-.48,33.768l-.8,8.193s15.693,2.239,19.123,3.217a42.479,42.479,0,0,0,12.139,1.315s5.7-25.113,5.7-46.511-4.745-65.439-7.109-83.283,5.083-86.677,9.313-99.527,13.472-40.06,7.251-53.958S119.786,269.821,119.786,269.821Z" transform="translate(-17.007 -2.911)"/><path class="h" d="M191.055,255.65l-.569,16.92s-10.13,2.008-23.78,4.372c-11.268,1.955-39.562-.515-49.088-1.44a3.306,3.306,0,0,1-3-3.554l.924-15.285Z" transform="translate(-18.11 -3.954)"/><path class="a" d="M151.159,160.75s-16,17.293-22.02,28.045-8.406,27.228-10.664,40.2,3.857,43.436,2.133,57.423l-5.456,44.058s-1.173,2.986,2.755,6.256,23.1,4.461,40.433,5.332c6.327.32,25.219-3.75,28.312-3.946,3.732-.231,3.857-4.976,4.017-8.709.746-17.542,3.91-64.3,5.989-84.669C200.94,203.209,177.5,163.114,151.159,160.75Z" transform="translate(-17.812 -77.716)"/><path class="j" d="M193.332,236.293c.711-9.224,1.422-17.595,2.044-23.62.178-1.777.284-3.555.373-5.332l-42.494,7.109-36.5-12.441a202.221,202.221,0,0,0,1.28,22.607l35.812,10.024Z" transform="translate(-16.442 -45.646)"/><path class="j" d="M139.6,161.73c-2.417,2.684-7.216,8.14-11.783,13.934L154.8,203.087l8.886-3.555Z" transform="translate(-7.838 -76.954)"/><path class="h" d="M146.859,160.75s-16,17.293-22.02,28.045a54.544,54.544,0,0,0-4.319,10.273l32.168-37.163A30.218,30.218,0,0,0,146.859,160.75Z" transform="translate(-13.512 -77.716)"/><path class="j" d="M117.65,205.835l34.905,11.481,42.388-4.87a99.4,99.4,0,0,0-6.949-30.764l-34.177,13.7L123.266,181.54A160.787,160.787,0,0,0,117.65,205.835Z" transform="translate(-15.742 -61.557)"/><path class="j" d="M179.457,248.943a108.075,108.075,0,0,1-52.856-4.319l-8.513-2.915-2.648,21.327,9.7,2.719a146.321,146.321,0,0,0,56.748,4.372l7.838-.942a7.108,7.108,0,0,0,.675-2.755c.213-4.745.586-11.641,1.066-19.55Z" transform="translate(-17.46 -14.789)"/><path class="j" d="M182.609,232.961a107.666,107.666,0,0,1-52.856-4.336l-10.841-3.715a70.025,70.025,0,0,1-.16,11.623l-1.262,10.255,10.806,3.021a146.249,146.249,0,0,0,56.73,4.39l5.332-.64c.444-7.109.96-14.68,1.511-22.163Z" transform="translate(-15.867 -27.847)"/><rect class="h" width="44.094" height="2.364" transform="matrix(-0.779, -0.627, 0.627, -0.779, 34.364, 157.586)"/><path class="f" d="M206.225,171.54s12.6,8.584,12.885,28.863c.124,8.886-.8,17.186-2.844,31.742s-14.734,61.955-24.615,67.714-25.219-5.118-25.219-5.118L92.249,245.492,74.316,231.007,65.43,214.23l2.79-5.332L90.1,225.675,78.315,214.781l2.31-2.932,4.265,2.968,12.441,4.656,2.719,17.773,3.839,2.63,70.966,25.93s-.889-38.193-.231-45.5,1.564-25.664,9.384-38.975" transform="translate(-56.331 -69.329)"/><g class="ac" transform="translate(9.099 102.211)"><path class="w" d="M174.3,220.605c0,13.187.444,28.863.444,28.863l-70.895-25.824-3.839-2.63-2.719-17.773-12.441-4.656L80.6,195.564l-2.31,2.932,11.748,10.841L68.158,192.56,65.51,197.8,74.4,214.58l17.933,14.574,4.514,3,98.016,31.582Z" transform="translate(-65.368 -155.202)"/></g><path class="r" d="M206.225,171.54s12.6,8.584,12.885,28.863c.124,8.886-.8,17.186-2.844,31.742s-14.734,61.955-24.615,67.714-25.219-5.118-25.219-5.118L92.249,245.492,74.316,231.007,65.43,214.23l2.79-5.332L90.1,225.675,78.315,214.781l2.31-2.932,4.265,2.968,12.441,4.656,2.719,17.773,3.839,2.63,70.966,25.93s-.889-38.193-.231-45.5,1.564-25.664,9.384-38.975" transform="translate(-56.331 -69.329)"/><path class="a" d="M129.334,268.073l27.085,19.55,7.02-12.441s4.852-3.821,5.563-6.7-.2-7.553.533-10.433,4.354-5.581,4.692-12.547,0-12.778,0-12.778,5.865-24.117,5.225-34.6S168.7,169.1,160.6,168.688s-18.643.818-26.819,13.187-6.5,48.484-7.784,50.741.5,13.4.5,13.4a6.238,6.238,0,0,0-2.488,4.5c-.142,2.9,2.986,10.024,2.986,10.024Z" transform="translate(-10.809 -71.596)"/><path class="j" d="M126.024,199.41a50.158,50.158,0,0,1-.693,9.26c-1.137,2.026.16,11.179.444,13.045a105.5,105.5,0,0,0,47.115,3.555,17.579,17.579,0,0,0,.6-3.786,127.744,127.744,0,0,0,0-12.779s.515-2.151,1.226-5.421A171.54,171.54,0,0,1,126.024,199.41Z" transform="translate(-10.129 -47.667)"/><path class="j" d="M130.971,177.19c-2.541,5.1-3.963,12.761-4.781,20.527a105.871,105.871,0,0,0,50.67,6.167,67.783,67.783,0,0,0,.906-12.441,34.618,34.618,0,0,0-2.31-9.6,175.7,175.7,0,0,1-44.485-4.656Z" transform="translate(-9.105 -64.938)"/><path class="h" d="M125.68,220.45l2.293,7.34,27.085,19.55,7.02-12.441s4.852-3.821,5.563-6.7a7.89,7.89,0,0,0,.231-1.528,165.625,165.625,0,0,1-42.192-6.22Z" transform="translate(-9.501 -31.314)"/><path class="r" d="M142.007,533.7s.6-15.391,3.554-37.891-4.141-54.455-5.332-59.787.6-17.168-.587-21.327-6.949-21.9-3.555-42.477,6.149-74.983,6.149-74.983-8.549-6.949-11.055-16-.587-11.89-.587-11.89" transform="translate(-6.225 6.695)"/><line class="r" x1="3.288" y2="18.199" transform="translate(136.458 276.88)"/></g></g></svg>