<svg xmlns="http://www.w3.org/2000/svg" width="774.452" height="771.118" viewBox="0 0 774.452 771.118"><defs><style>.a,.d,.g{fill:#8167f2;}.b,.c,.e,.j{fill:#fff;}.b{opacity:0.2;}.c,.d{opacity:0.8;}.e,.f,.g,.k,.l{stroke:#263238;}.e,.f,.g,.h,.l{stroke-linecap:round;stroke-linejoin:round;}.f{fill:#263238;}.h,.k{fill:none;}.h{stroke:#fff;}.i,.l{fill:#8d3ddc;}.j{opacity:0.5;}.k{stroke-miterlimit:10;}.m{fill:#8a51e4;}</style></defs><g transform="translate(-55.72 -59.715)"><g transform="translate(102.361 96.714)"><path class="a" d="M690.247,144.695S598.006,62.2,468.236,80.817,237.06,200.031,152.736,279.36s-97.257,189.7-34.628,267.919,143.79,33.6,258.049,76.367,138.19,71.512,257.4,45.1S829.847,496.616,800.4,353.551,690.247,144.695,690.247,144.695Z" transform="translate(-78.873 -78.082)"/><path class="b" d="M690.247,144.695S598.006,62.2,468.236,80.817,237.06,200.031,152.736,279.36s-97.257,189.7-34.628,267.919,143.79,33.6,258.049,76.367,138.19,71.512,257.4,45.1S829.847,496.616,800.4,353.551,690.247,144.695,690.247,144.695Z" transform="translate(-78.873 -78.082)"/></g><g transform="translate(135.894 59.715)"><path class="a" d="M493.04,270c-9.146-4.976-13.315-.826-16.639-4.976s9.166-14.987-15.813-25.8c0,0-1.652-23.287-35.776-24.173s-24.959,23.307-34.1,29.129-11.643-3.324-20.809,2.5-5,17.465-12.469,19.137-17.485-7.494-26.631-1.672-9.166,10.817-13.315,10.817-12.49-3.324-17.465,0-10.817,7.494-10.817,7.494H499.708S502.206,274.991,493.04,270Z" transform="translate(100.955 97.829)"/><path class="c" d="M493.04,270c-9.146-4.976-13.315-.826-16.639-4.976s9.166-14.987-15.813-25.8c0,0-1.652-23.287-35.776-24.173s-24.959,23.307-34.1,29.129-11.643-3.324-20.809,2.5-5,17.465-12.469,19.137-17.485-7.494-26.631-1.672-9.166,10.817-13.315,10.817-12.49-3.324-17.465,0-10.817,7.494-10.817,7.494H499.708S502.206,274.991,493.04,270Z" transform="translate(100.955 97.829)"/><path class="a" d="M506.93,136.495c-12.771-6.99-18.593-1.168-23.247-6.99s12.792-20.87-22.1-36.038c0,0-2.317-32.553-50-33.722s-34.87,32.553-47.661,40.692-16.3-4.653-29.068,3.485-6.99,24.435-17.445,26.752-24.435-10.475-37.126-2.317-12.792,15.108-18.613,15.108-17.445-4.653-24.415,0S222.13,153.92,222.13,153.92H516.237S519.722,143.465,506.93,136.495Z" transform="translate(32.917 -59.715)"/><path class="c" d="M506.93,136.495c-12.771-6.99-18.593-1.168-23.247-6.99s12.792-20.87-22.1-36.038c0,0-2.317-32.553-50-33.722s-34.87,32.553-47.661,40.692-16.3-4.653-29.068,3.485-6.99,24.435-17.445,26.752-24.435-10.475-37.126-2.317-12.792,15.108-18.613,15.108-17.445-4.653-24.415,0S222.13,153.92,222.13,153.92H516.237S519.722,143.465,506.93,136.495Z" transform="translate(32.917 -59.715)"/><path class="d" d="M299.381,199.305c-9.146-5-13.315-.826-16.639-5s9.146-14.967-15.813-25.785c0,0-1.672-23.307-35.776-24.173s-24.959,23.307-34.124,29.129-11.643-3.324-20.789,2.5-5,17.465-12.489,19.137-17.465-7.494-26.631-1.672-9.146,10.817-13.315,10.817-12.469-3.324-17.465,0-10.818,7.494-10.818,7.494H305.988S308.526,204.3,299.381,199.305Z" transform="translate(-95.52 26.119)"/><path class="c" d="M299.381,199.305c-9.146-5-13.315-.826-16.639-5s9.146-14.967-15.813-25.785c0,0-1.672-23.307-35.776-24.173s-24.959,23.307-34.124,29.129-11.643-3.324-20.789,2.5-5,17.465-12.489,19.137-17.465-7.494-26.631-1.672-9.146,10.817-13.315,10.817-12.469-3.324-17.465,0-10.818,7.494-10.818,7.494H305.988S308.526,204.3,299.381,199.305Z" transform="translate(-95.52 26.119)"/></g><g transform="translate(109.828 166.254)"><path class="e" d="M254.352,359.742h1.571c3.163-.121,10.072-.342,11.966-.342,2.377,0,6.366,5.177,2.78,9.951s-6.043,10.354-11.14,11.543-4.391,4.391-8.058,8.36-13.537,4.794-18.714,3.586-.4-27.074.4-28.2S242.789,369.311,254.352,359.742Z" transform="translate(67.353 137.756)"/><path class="e" d="M259.488,379.17c5.177-1.188,7.554-6.768,11.14-11.543a6.486,6.486,0,0,0,.927-6.567,26.893,26.893,0,0,1-7.7,12.53c-3.586,2.8-6.366,1.209-8.36,3.586s-4.029,7.171-14.343,7.171a38.679,38.679,0,0,1-10.737-1.309c0,4.291.584,7.675,2.377,8.058,5.177,1.209,15.128.4,18.714-3.586S254.311,380.358,259.488,379.17Z" transform="translate(67.394 139.44)"/><path class="e" d="M276.418,372.408s-1.188,14.343-.4,17.123,8.763,5.58,13.154,4.774,12.348-6.366,12.348-6.366,17.526-6.768,23.891-10.757,8.36-8.763,3.586-9.951-20.708-4.391-25.483-5.58-4.794,3.183-15.149,5.58S276.418,372.408,276.418,372.408Z" transform="translate(113.375 139.836)"/><path class="e" d="M326.6,369.122a229.45,229.45,0,0,1-29.068,13.94,29.269,29.269,0,0,1-21.776.2,15.564,15.564,0,0,0,.262,2.981c.806,2.78,8.763,5.58,13.154,4.774s12.349-6.366,12.349-6.366,17.526-6.768,23.891-10.757c5.439-3.4,7.675-7.373,5.238-9.206A12.087,12.087,0,0,1,326.6,369.122Z" transform="translate(113.388 143.123)"/><path class="f" d="M251.5,228.161s-4.532,25.4-6.144,39.644-5.4,49.636-5.4,66.577-1.048,47.7-1.048,47.7-1.551,12.328-4.23,23.468-3.848,32.332-3.465,42.726.383,39.241.383,39.241a80.126,80.126,0,0,0,0,10.072c.383,3.848,1.148,8.461,5,8.461s10.777,0,13.477-2.3a18.855,18.855,0,0,0,5.761-12.711c.383-5.761,2.014-25.4,2.317-30.015s13.859-61.561,15.39-73.487,2.317-18.472,2.317-18.472l14.222-74.655,4.25.766S318.5,385.992,318.5,392.156s-2.7,34.245.383,50.018,2.619,69.6,2.619,69.6a11.905,11.905,0,0,0,5.761,3.465c3.465.766,13.477-1.551,17.324-7.7s5.379-17.324,5.379-20.406,3.465-66.174,3.465-82.35S351.9,369.01,351.9,367.459s-3.848-74.635-5-81.182-14.242-59.647-14.242-59.647S292.676,238.555,251.5,228.161Z" transform="translate(68.129 3.07)"/><path class="e" d="M227.387,199.31s-5,12.711-5.761,19.238,3.465,18.472,7.312,20.789,16.538-2.7,18.472-5.781,10.757-23.085,10.757-23.085a61.842,61.842,0,0,1-30.78-11.16Z" transform="translate(58.38 -24.644)"/><path class="f" d="M292.509,203.84,277.34,271.1h9.891l14.524-68.591Z" transform="translate(114.991 -21.398)"/><path class="e" d="M294.966,177.153s7.252-1.309,9.226,0,2.014,7.917,2.014,10.556S304.193,197.6,304.9,200.9s11.885,18.9,16.5,28.806-1.309,25.7-6.587,32.231-15.854-16.921-19.157-24.838-8.561-56.726-8.561-56.726Z" transform="translate(124.881 -47.711)"/><path class="e" d="M311.948,197.24s10.475,17.908,10.858,23.69-2.317,18.13-5,22.32-9.609.584-14.625-2.115a22.159,22.159,0,0,1-10.394-10.979c-2.317-5-8.541-17.526-8.541-17.526S301.191,208.017,311.948,197.24Z" transform="translate(122.001 -26.744)"/><path class="e" d="M281.207,160.825a52.6,52.6,0,0,0-13.839,5.4c-6.547,3.848-16.941,11.543-20.406,17.687s-13.839,32.714-18.855,42.726-6.527,13.456-6.527,13.456,6.043,8.863,14.222,12.328,22.32,4.23,22.32,4.23,2.014,39.241,3.082,45.023,14.242,9.226,33.48,10.072,46.171-6.144,49.636-10.072-1.148-45.023-1.148-45.023a120.378,120.378,0,0,0,18.472-4.23c7.7-2.7,17.707-15.793,17.707-15.793S365.491,202.766,362.792,197s-.766-8.058-11.543-15.773a125.382,125.382,0,0,0-21.937-12.348s-16.115-7.7-29.632-9.226S281.207,160.825,281.207,160.825Z" transform="translate(58.426 -65.347)"/><path class="e" d="M312.1,141.8s4.23,2.317,4.23,4.633-4.613,7.312-4.613,7.312a46.935,46.935,0,0,1,0,10.757c-.765,3.848,3.082,8.058,0,10.777s-12.308,2.7-12.308,2.7l-2.7,16.941-34.628-4.633-1.148-10.777s-9.246-7.7-12.328-16.115-2.679-10.777-2.014-16.115,6.547-16.559,18.13-19.238a62.972,62.972,0,0,1,30.781.383C303.644,130.6,312.1,141.8,312.1,141.8Z" transform="translate(83.328 -98.693)"/><path class="e" d="M271.22,147.261v0Z" transform="translate(108.783 -77.547)"/><path class="f" d="M286.765,177.221a20.144,20.144,0,0,0,9.951-8.763c-.141.282-.745,1.068-2.639,1.068-2.317,0-7.715-4.23-9.246-8.058s2.317-8.481,5-8.481,6.547,5.4,9.629,3.465,2.7-10.374,2.7-10.374a57.6,57.6,0,0,1,3.465-11.341,27.255,27.255,0,0,0-10.072-6.366,62.971,62.971,0,0,0-30.78-.383c-11.543,2.679-17.324,13.839-18.13,19.238s-1.148,7.7,2.014,16.115,12.328,16.115,12.328,16.115C267.507,179.92,279.453,180.3,286.765,177.221Z" transform="translate(83.286 -98.744)"/><path class="e" d="M245.65,169.09s6.909-11.16,10.374-12.691,28.484-1.531,33.48-.765,13.859,6.93,15.39,10.394,2.7,6.144,2.7,6.144v2.317s-16.539-7.7-32.231-7.7a203.459,203.459,0,0,0-29.713,2.3Z" transform="translate(82.843 -69.461)"/><path class="f" d="M287.011,164.746a175.637,175.637,0,0,1-11,20.023,94.036,94.036,0,0,0-10.072,22.682l12.087,1.249s8.4-22.159,13.436-29.391a83.9,83.9,0,0,1,6.728-8.823S293.4,164.443,287.011,164.746Z" transform="translate(103.426 -59.719)"/><path class="f" d="M251.591,162.061s-2.014,14.1-1.128,21.655a134.258,134.258,0,0,1,0,19.3l-8.823,2.941s-2.518-24.354-1.672-29.814,1.672-9.226,1.672-9.226S247.24,161.94,251.591,162.061Z" transform="translate(76.903 -62.433)"/><path class="g" d="M241.033,226.17s-5.862,2.014-8.058,12.087,3.787,21.011,15.954,26.047,31.929,7.554,50.361,8.4,33.581-.846,40.289-12.61,4.19-24.354-3.787-26.45-16.8,2.518-47.44-.423a358.932,358.932,0,0,1-47.319-7.051Z" transform="translate(69.532 2.603)"/><path class="g" d="M276.489,237.572c-7.756,9.045-9.689,31.022,5.822,31.022h.786c8.058-1.612,14.282-5.016,17.989-11.523,5.217-9.146,4.835-18.795.665-23.609l-6.245-4.21a24.838,24.838,0,0,0-19.016,8.32Z" transform="translate(108.167 5.726)"/><path class="g" d="M282,246.513s-.3,6.426,7.312,4.029a10.294,10.294,0,0,0,6.446-8.823,11.677,11.677,0,0,0,.1-1.43c.1-3.223-1.027-6.043-3.324-6.708-5.278-1.471-18.13,8.179-18.13,15.209s8.2,9.367,15.511,4.673,9.367-9.649,8.783-21.353" transform="translate(112.019 8.629)"/><path class="g" d="M241.938,179.27s33.581,2.941,51.65,3.344,26.872-1.249,32.231,4.633,12.087,68.853,15.108,80.195-2.014,14.705-14.685,19.318-32.755,4.613-55.86,0-33.178-8.058-35.7-18.13-.826-42.424-.826-60.433S232.269,179.693,241.938,179.27Z" transform="translate(70.319 -44.973)"/><path class="g" d="M321.179,244.88a65.268,65.268,0,0,0,15.511-3.606c-3.223-22.159-7.312-50.2-10.858-54.027-5.459-5.882-14.282-4.21-32.231-4.633s-51.65-3.344-51.65-3.344c-9.669.423-8.058,10.918-8.058,28.968,0,7.474-.3,17.364-.443,27.134C235.827,236.8,263.4,251.749,321.179,244.88Z" transform="translate(70.467 -44.973)"/><path class="f" d="M238.084,206.11a79.408,79.408,0,0,1-.483,18.271,109.9,109.9,0,0,0-1.43,15.37l8.158,3.364s1.45-12.973,2.417-18.734a133.328,133.328,0,0,0,.967-16.357Z" transform="translate(73.227 -17.746)"/><path class="f" d="M270.078,209.243s-.483,8.662-1.43,14.907-2.417,21.031-2.417,21.031h9.609S279.2,230.4,279.2,224.634s.483-15.874.483-15.874Z" transform="translate(103.72 -15.058)"/><path class="g" d="M299.529,264.521c-2.941-11.341-9.649-74.312-15.108-80.195a12.268,12.268,0,0,0-2.881-2.256c-3.505,1.128-8.662,3.908-6.366,10.233,3.364,9.226,6.728,54.591,5.036,68.853s-10.918,21.01-2.518,24.354l.463.181a48.694,48.694,0,0,0,6.688-1.853C297.434,279.307,302.47,275.943,299.529,264.521Z" transform="translate(111.818 -42.133)"/><line class="h" x1="16.458" y1="4.412" transform="translate(341.648 293.014)"/><path class="g" d="M242.57,136.831s4.653,26.188,4.653,29.229.766,3.848,13.094,4.613,29.229,1.551,38.858-3.445,26.55-16.559,30.015-24.173,1.148-8.843-8.058-8.843H309.59s-2.7-11.16-10.072-14.625-18.855-10.394-31.163-5S246.861,122.548,242.57,136.831Z" transform="translate(79.719 -112.603)"/><path class="f" d="M275.444,150.223a7.655,7.655,0,0,0-1.894,2.861c9.488-5.741,21.373-14.645,24.173-20.95,3.465-7.7,1.148-8.843-8.058-8.843H278.123s3.465,11.16,3.465,15.008S280.057,145.61,275.444,150.223Z" transform="translate(111.146 -101.761)"/><path class="f" d="M248.812,145.877s-3.223-11.261,2.679-12.328,12.348,13.416,12.348,13.416a40.571,40.571,0,0,1-15.028-1.088Z" transform="translate(85.16 -91.412)"/><path class="i" d="M329.273,544h75.743c-1.45-9.266-7.413-7.635-8.2-22-.4-7.232,6.285-16.115,5.721-25.664-.483-7.836-8.2-15.854-8.8-24.8-.524-8.058,6.043-17.042,5.419-25.744-.6-8.219-8.44-16.115-9.125-24.677s5.781-17.385,5.016-25.825-8.722-16.115-9.569-24.5,5.379-17.767,4.412-25.946c-1.007-8.682-9.206-16.115-10.314-24.173-1.229-8.924,4.573-18.432,3.223-26.188-1.672-9.427-10.435-16.236-12.288-23.186-3.445-12.953-3-25.442-7.071-26.188s-5.318,11.361-8.6,25.039c-1.652,6.869-10.233,13.839-11.643,23.267-1.148,7.635,4.915,16.921,3.928,25.785-.886,7.957-8.884,15.592-9.649,24.173-.745,8.058,5.741,17.082,5.117,25.563s-8.38,16.115-8.9,24.516,6.144,17.183,5.681,25.462-8.058,16.5-8.461,24.657c-.423,8.642,6.406,17.344,6.043,25.362-.363,8.863-7.876,17-8.058,24.757-.342,9.427,6.567,18.13,6.366,25.3-.463,15.551-7.594,12.328-7.856,24.858Z" transform="translate(165.773 21.79)"/><path class="j" d="M329.273,544h75.743c-1.45-9.266-7.413-7.635-8.2-22-.4-7.232,6.285-16.115,5.721-25.664-.483-7.836-8.2-15.854-8.8-24.8-.524-8.058,6.043-17.042,5.419-25.744-.6-8.219-8.44-16.115-9.125-24.677s5.781-17.385,5.016-25.825-8.722-16.115-9.569-24.5,5.379-17.767,4.412-25.946c-1.007-8.682-9.206-16.115-10.314-24.173-1.229-8.924,4.573-18.432,3.223-26.188-1.672-9.427-10.435-16.236-12.288-23.186-3.445-12.953-3-25.442-7.071-26.188s-5.318,11.361-8.6,25.039c-1.652,6.869-10.233,13.839-11.643,23.267-1.148,7.635,4.915,16.921,3.928,25.785-.886,7.957-8.884,15.592-9.649,24.173-.745,8.058,5.741,17.082,5.117,25.563s-8.38,16.115-8.9,24.516,6.144,17.183,5.681,25.462-8.058,16.5-8.461,24.657c-.423,8.642,6.406,17.344,6.043,25.362-.363,8.863-7.876,17-8.058,24.757-.342,9.427,6.567,18.13,6.366,25.3-.463,15.551-7.594,12.328-7.856,24.858Z" transform="translate(165.773 21.79)"/><line class="k" y2="270.498" transform="translate(527.56 291.785)"/><path class="k" d="M361.631,272.94,349.3,283.6,339.21,270.14" transform="translate(177.754 47.208)"/><path class="k" d="M361.631,296.31,349.3,306.966,339.21,293.51" transform="translate(177.754 70.915)"/><path class="k" d="M361.631,318.29,349.3,328.947,339.21,315.49" transform="translate(177.754 93.213)"/><path class="k" d="M361.631,344.45,349.3,355.106,339.21,341.65" transform="translate(177.754 119.75)"/><path class="k" d="M361.631,370.88,349.3,381.536,339.21,368.08" transform="translate(177.754 146.561)"/><path class="i" d="M114.207,565.847h98.264c-1.894-12.087-9.609-9.911-10.636-28.545-.5-9.367,8.179-20.99,7.413-33.3-.6-10.072-10.616-20.567-11.4-32.231-.705-10.475,7.836-22.159,7.01-33.4-.786-10.677-10.918-20.93-11.825-32.009s7.494-22.582,6.507-33.52-11.321-21.01-12.409-31.788c-1.128-11.1,6.97-23.045,5.741-33.661-1.33-11.261-11.946-20.99-13.4-31.365-1.612-11.563,5.922-23.911,4.17-33.9-2.176-12.228-13.537-21.071-15.934-30.076-4.472-16.821-3.908-33.017-9.186-34.064-5.62-1.128-6.889,14.746-11.16,32.493-2.135,8.924-13.275,17.949-15.108,30.216-1.471,9.891,6.386,21.937,5.1,33.46-1.148,10.314-11.5,20.144-12.51,31.425-.947,10.535,7.453,22.159,6.627,33.178-.806,10.717-10.858,20.93-11.563,31.808s8.058,22.28,7.393,33.017S116.826,425,116.322,435.594c-.544,11.2,8.3,22.5,7.876,32.9-.483,11.523-10.213,22.159-10.576,32.231-.443,12.207,8.541,23.488,8.259,32.795-.6,20.144-9.851,16.015-10.072,32.231Z" transform="translate(-52.928 -46.331)"/><line class="k" y2="350.954" transform="translate(103.522 164.009)"/><path class="k" d="M156.249,214.126l-16.015,13.819L127.14,210.48" transform="translate(-37.377 -13.313)"/><path class="k" d="M156.249,244.436l-16.015,13.819L127.14,240.81" transform="translate(-37.377 17.455)"/><path class="k" d="M156.249,272.956l-16.015,13.819L127.14,269.33" transform="translate(-37.377 46.386)"/><path class="k" d="M156.249,306.906l-16.015,13.819L127.14,303.26" transform="translate(-37.377 80.806)"/><path class="k" d="M156.249,341.186l-16.015,13.819L127.14,337.56" transform="translate(-37.377 115.601)"/><path class="i" d="M84.413,522.746h72.761c-1.39-8.9-7.111-7.333-7.876-21.131-.383-6.95,6.043-15.531,5.5-24.657-.463-7.514-7.876-15.229-8.44-23.831-.524-7.756,5.8-16.357,5.177-24.717-.564-7.917-8.058-15.491-8.743-23.71s5.54-16.72,4.814-24.818-8.38-15.551-9.186-23.529,5.157-17.062,4.23-24.919c-.967-8.34-8.843-15.551-9.911-23.226-1.189-8.561,4.391-17.707,3.082-25.1-1.591-9.045-10.072-15.592-11.784-22.28-3.3-12.429-2.9-24.435-6.789-25.221s-5.117,10.938-8.279,24.072c-1.591,6.607-9.83,13.3-11.18,22.34-1.088,7.353,4.734,16.256,3.787,24.777-.866,7.635-8.541,14.967-9.287,23.267-.705,7.816,5.52,16.418,4.915,24.576s-8.058,15.491-8.561,23.549,5.922,16.5,5.479,24.455-7.756,15.854-8.058,23.69c-.4,8.3,6.043,16.659,5.822,24.354-.342,8.521-7.554,16.337-7.816,23.79-.322,9.065,6.325,17.4,6.043,24.294-.443,14.967-7.292,11.865-7.534,23.891Z" transform="translate(-82.58 12.141)"/><path class="j" d="M84.413,522.746h72.761c-1.39-8.9-7.111-7.333-7.876-21.131-.383-6.95,6.043-15.531,5.5-24.657-.463-7.514-7.876-15.229-8.44-23.831-.524-7.756,5.8-16.357,5.177-24.717-.564-7.917-8.058-15.491-8.743-23.71s5.54-16.72,4.814-24.818-8.38-15.551-9.186-23.529,5.157-17.062,4.23-24.919c-.967-8.34-8.843-15.551-9.911-23.226-1.189-8.561,4.391-17.707,3.082-25.1-1.591-9.045-10.072-15.592-11.784-22.28-3.3-12.429-2.9-24.435-6.789-25.221s-5.117,10.938-8.279,24.072c-1.591,6.607-9.83,13.3-11.18,22.34-1.088,7.353,4.734,16.256,3.787,24.777-.866,7.635-8.541,14.967-9.287,23.267-.705,7.816,5.52,16.418,4.915,24.576s-8.058,15.491-8.561,23.549,5.922,16.5,5.479,24.455-7.756,15.854-8.058,23.69c-.4,8.3,6.043,16.659,5.822,24.354-.342,8.521-7.554,16.337-7.816,23.79-.322,9.065,6.325,17.4,6.043,24.294-.443,14.967-7.292,11.865-7.534,23.891Z" transform="translate(-82.58 12.141)"/><line class="k" y2="259.842" transform="translate(33.077 271.681)"/><path class="k" d="M115.484,262.349l-11.845,10.233L93.95,259.65" transform="translate(-71.046 36.567)"/><path class="k" d="M115.484,284.8l-11.845,10.233L93.95,282.1" transform="translate(-71.046 59.341)"/><path class="k" d="M115.484,305.919l-11.845,10.233L93.95,303.22" transform="translate(-71.046 80.765)"/><path class="k" d="M115.484,331.029l-11.845,10.233L93.95,328.35" transform="translate(-71.046 106.258)"/><path class="k" d="M115.484,356.419l-11.845,10.233L93.95,353.74" transform="translate(-71.046 132.015)"/><path class="i" d="M362.548,599.416h98.284c-1.894-12.087-9.609-9.911-10.636-28.524-.524-9.387,8.158-20.99,7.413-33.319-.624-10.072-10.636-20.547-11.4-32.231-.705-10.475,7.836-22.159,7.01-33.4-.786-10.677-10.938-20.91-11.825-32.009s7.494-22.582,6.507-33.52-11.321-20.99-12.409-31.788,6.97-23.025,5.721-33.641c-1.309-11.281-11.946-21.01-13.376-31.385-1.612-11.563,5.922-23.911,4.15-33.883-2.155-12.228-13.537-21.071-15.934-30.1-4.452-16.8-3.888-33-9.166-34.064-5.62-1.108-6.909,14.766-11.16,32.513-2.155,8.9-13.275,17.949-15.108,30.216-1.471,9.911,6.386,21.957,5.1,33.46-1.148,10.314-11.523,20.144-12.53,31.425-.947,10.556,7.474,22.159,6.648,33.2-.806,10.7-10.858,20.91-11.563,31.788s8.058,22.28,7.393,33.037-10.475,21.393-11,31.989c-.524,11.2,8.32,22.521,7.876,32.916-.463,11.5-10.213,22.159-10.556,32.231-.443,12.228,8.541,23.508,8.259,32.815-.6,20.144-9.851,16.015-10.173,32.231Z" transform="translate(198.915 -12.275)"/><line class="k" y2="350.954" transform="translate(603.665 231.654)"/><path class="k" d="M404.508,247.686l-15.995,13.819L375.42,244.06" transform="translate(214.486 20.752)"/><path class="k" d="M404.508,278.026l-15.995,13.819L375.42,274.38" transform="translate(214.486 51.509)"/><path class="k" d="M404.508,306.546l-15.995,13.8L375.42,302.9" transform="translate(214.486 80.441)"/><path class="k" d="M404.508,340.466l-15.995,13.819L375.42,336.84" transform="translate(214.486 114.871)"/><path class="k" d="M404.508,374.776,388.514,388.6,375.42,371.13" transform="translate(214.486 149.656)"/></g><g transform="translate(213.853 398.089)"><rect class="f" width="12.328" height="222.011" transform="translate(77.873 74.098) rotate(1.91)"/><path class="l" d="M207.148,233.77l-6.708,1.612v22.2l7.433,2.176Z" transform="translate(-67.044 -221.522)"/><path class="f" d="M139.22,227.69l.322,75.239,124.774,12.933-1.189,23.811,45.949-39.422-39.825-60.312-.1,23.831Z" transform="translate(-129.148 -227.69)"/><path class="l" d="M144.292,227.69l-10.072,1.128,1.269,77.415,9.125-3.3Z" transform="translate(-134.22 -227.69)"/><path class="l" d="M134.85,268.344l128.219,12.691,5.681-3.062L143.975,265.04Z" transform="translate(-133.581 -189.801)"/><path class="l" d="M198.662,274.522l-.322,21.01,4.815-.262,1.189-23.811Z" transform="translate(-69.175 -183.288)"/></g><g transform="translate(55.72 650.336)"><path class="e" d="M76.05,407.259s173.6-85.634,437.575-41.92c206.822,34.245,274.91,122.719,274.91,122.719" transform="translate(-35.097 -352.91)"/><path class="m" d="M393.6,367.674,361.068,354.52c-160.752,8.058-261.473,58.419-261.473,58.419L86.5,415.92a250.876,250.876,0,0,0-30.781,16.9l47.782.766,81.887-5.338-58.761,21.313,56.948-12.469,94.3-3.566L222.7,419.3l85.392-8.9-80.094,1.773,64.462-13.154,83.357-13.537L345.6,383.689l7.474-2.478Z" transform="translate(-55.72 -351.277)"/><path class="m" d="M394.5,367.5l18.13,11.079-44.318-1.007,20.144,11.079-12.087,4.029,29.209,14.1-28.2,4.029,27.195,22.159L254.5,433.976l42.3,16.115-16.115,7.051,102.736,16.115,111.8,28.2-47.339-26.188s107.772,29.209,111.8,31.224,27.195,11.079,30.216,12.087-36.26-30.217-36.26-30.217l40.289,10.072-40.289-45.325,18.13,2.014-13.094-11.079,26.188,11.079S512.347,396.709,394.5,367.5Z" transform="translate(145.929 -338.11)"/></g></g></svg>