<svg xmlns="http://www.w3.org/2000/svg" xmlns:xlink="http://www.w3.org/1999/xlink" width="393.338" height="386.733" viewBox="0 0 393.338 386.733"><defs><style>.a,.b,.f,.k{fill:#fff;}.a,.g,.l,.n{stroke:#263238;}.a,.g,.l,.n,.p{stroke-linecap:round;stroke-linejoin:round;}.c{fill:#e1fcff;}.d{fill:#008c9e;}.e{fill:#8a51e4;}.f{opacity:0.19;}.g,.o,.r,.s,.x{fill:none;}.h,.l,.p{fill:#263238;}.i{clip-path:url(#c);}.j,.n{fill:#8d3ddc;}.k{opacity:0.4;}.m{fill:#64b4d2;}.o,.p{stroke:#fff;}.o{stroke-miterlimit:10;stroke-width:2px;}.q{clip-path:url(#l);}.r{stroke:rgba(255,255,255,0.12);}.r,.s{opacity:0.79;}.s{stroke:rgba(0,0,0,0.17);}.t{clip-path:url(#q);}.u{clip-path:url(#r);}.v{fill:rgba(0,0,0,0.16);}.w{stroke:none;}.y{filter:url(#o);}.z{filter:url(#m);}.aa{filter:url(#j);}.ab{filter:url(#h);}.ac{filter:url(#f);}.ad{filter:url(#d);}.ae{filter:url(#a);}</style><filter id="a" x="123.5" y="75.5" width="190" height="122" filterUnits="userSpaceOnUse"><feOffset dx="-4" dy="-4" input="SourceAlpha"/><feGaussianBlur stdDeviation="3.5" result="b"/><feFlood flood-color="#fff" flood-opacity="0.659"/><feComposite operator="in" in2="b"/><feComposite in="SourceGraphic"/></filter><clipPath id="c"><path class="a" d="M93.38,244.81l4.49,36.44c0,5.84,10.9,10.58,24.35,10.58s24.35-4.74,24.35-10.58l4.49-36.44Z" transform="translate(-93.38 -244.81)"/></clipPath><filter id="d" x="212" y="177" width="28" height="28" filterUnits="userSpaceOnUse"><feOffset dx="4" dy="6" input="SourceAlpha"/><feGaussianBlur stdDeviation="3" result="e"/><feFlood flood-opacity="0.231"/><feComposite operator="in" in2="e"/><feComposite in="SourceGraphic"/></filter><filter id="f" x="286" y="178" width="25" height="25" filterUnits="userSpaceOnUse"><feOffset dx="4" dy="6" input="SourceAlpha"/><feGaussianBlur stdDeviation="3" result="g"/><feFlood flood-opacity="0.18"/><feComposite operator="in" in2="g"/><feComposite in="SourceGraphic"/></filter><filter id="h" x="273" y="178" width="25" height="25" filterUnits="userSpaceOnUse"><feOffset dx="4" dy="6" input="SourceAlpha"/><feGaussianBlur stdDeviation="3" result="i"/><feFlood flood-opacity="0.18"/><feComposite operator="in" in2="i"/><feComposite in="SourceGraphic"/></filter><filter id="j" x="263" y="168" width="25" height="25" filterUnits="userSpaceOnUse"><feOffset dx="-6" dy="-4" input="SourceAlpha"/><feGaussianBlur stdDeviation="3" result="k"/><feFlood flood-color="#b83673" flood-opacity="0"/><feComposite operator="in" in2="k"/><feComposite in="SourceGraphic"/></filter><clipPath id="l"><rect class="b" width="27" height="1" rx="0.5"/></clipPath><filter id="m" x="144.002" y="180.355" width="20.591" height="20.591" filterUnits="userSpaceOnUse"><feOffset dx="4" dy="6" input="SourceAlpha"/><feGaussianBlur stdDeviation="3" result="n"/><feFlood flood-opacity="0.18"/><feComposite operator="in" in2="n"/><feComposite in="SourceGraphic"/></filter><filter id="o" x="134.002" y="170.355" width="20.591" height="20.591" filterUnits="userSpaceOnUse"><feOffset dx="-6" dy="-4" input="SourceAlpha"/><feGaussianBlur stdDeviation="3" result="p"/><feFlood flood-color="#b83673"/><feComposite operator="in" in2="p"/><feComposite in="SourceGraphic"/></filter><clipPath id="q"><g class="ae" transform="matrix(1, 0, 0, 1, 0, 0)"><rect class="c" width="169" height="101" rx="50.5"/></g></clipPath><clipPath id="r"><rect class="d" width="50.4" height="50.4" rx="12" transform="translate(0 35.638) rotate(-45)"/></clipPath></defs><path class="e" d="M399.94,329.83s54.54-63.22,40.53-144.07S354.2,62.58,305.73,67.37,209,119.67,161.64,125.54,42.89,173.2,57.32,252.71,115.6,340,186.58,342.92,358,382.25,399.94,329.83Z" transform="translate(-55.429 -67.004)"/><path class="f" d="M399.94,329.83s54.54-63.22,40.53-144.07S354.2,62.58,305.73,67.37,209,119.67,161.64,125.54,42.89,173.2,57.32,252.71,115.6,340,186.58,342.92,358,382.25,399.94,329.83Z" transform="translate(-55.429 -67.004)"/><g transform="translate(9.571 191.996)"><line class="g" x2="379"/></g><g transform="translate(15.411 78.246)"><ellipse class="h" cx="32.2" cy="11.95" rx="32.2" ry="11.95" transform="translate(9.14 125.26)"/><path class="b" d="M93.38,244.81l4.49,36.44c0,5.84,10.9,10.58,24.35,10.58s24.35-4.74,24.35-10.58l4.49-36.44Z" transform="translate(-70.84 -145.25)"/><g class="i" transform="translate(22.54 99.56)"><path class="j" d="M118,244.81H93.38l4.49,36.44c0,5.84,10.9,10.58,24.35,10.58q1.31,0,2.58-.06C117.13,278.17,117,258.21,118,244.81Z" transform="translate(-93.38 -244.81)"/><path class="k" d="M118,244.81H93.38l4.49,36.44c0,5.84,10.9,10.58,24.35,10.58q1.31,0,2.58-.06C117.13,278.17,117,258.21,118,244.81Z" transform="translate(-93.38 -244.81)"/></g><path class="g" d="M93.38,244.81l4.49,36.44c0,5.84,10.9,10.58,24.35,10.58s24.35-4.74,24.35-10.58l4.49-36.44Z" transform="translate(-70.84 -145.25)"/><ellipse class="a" cx="28.84" cy="12.53" rx="28.84" ry="12.53" transform="translate(22.54 87.03)"/><ellipse class="l" cx="25.77" cy="10.9" rx="25.77" ry="10.9" transform="translate(25.61 88.33)"/><path class="g" d="M124.18,245.61s-2.3-21.22-16.63-37.28-10.82-14.09-10.82-14.09" transform="translate(-70.84 -145.25)"/><path class="g" d="M150,182.52s-17.2,17.21-20.07,36.71-1,22.65-1,22.65" transform="translate(-70.84 -145.25)"/><path class="g" d="M127,244.44s-3.36-12-6.8-36.11-1.72-36.7-1.72-36.7" transform="translate(-70.84 -145.25)"/><path class="m" d="M98.22,200.8s-4.81,5.22-12.21-5-4.94-22.14-4.94-22.14,3.77,5.75,9.48,8.17S104.6,198,98.22,200.8Z" transform="translate(-70.84 -145.25)"/><path class="m" d="M118.44,177.36s-6.88,1.72-7.45-10.89,8-21.22,8-21.22,0,6.88,3.44,12S125.33,178.51,118.44,177.36Z" transform="translate(-70.84 -145.25)"/><path class="m" d="M146.83,188.89s-6.7-2.33-.27-13.19,18.34-13.36,18.34-13.36-3.77,5.76-3.72,12S152,193.62,146.83,188.89Z" transform="translate(-70.84 -145.25)"/><path class="m" d="M126.47,242.74s4.59-20.65,14.34-30.39a31.3,31.3,0,0,1,21.79-9.18s-11.47,4.59-14.91,13.76-9.2,29.25-9.2,29.25H109.85s-3.45-7.45-13.2-16.06-25.81-14.33-25.81-14.33,17.78-6.31,30.4-1.15,21.79,27,21.79,27Z" transform="translate(-70.84 -145.25)"/><path class="m" d="M130.89,242.69s-11.38-7.81-23.8-6.51-13.45,11.39-14,14.32a33.761,33.761,0,0,0-.51,5.21s16-4.88,25.86-6.51S132.44,252.13,130.89,242.69Z" transform="translate(-70.84 -145.25)"/><path class="m" d="M126.65,242.69s7.16-7.81,15-6.51,8.46,11.39,8.78,14.32a51.788,51.788,0,0,1,.33,5.21s-10.09-4.88-16.27-6.51S125.67,252.13,126.65,242.69Z" transform="translate(-70.84 -145.25)"/></g><g transform="translate(71.131 50.116)"><path class="l" d="M169.61,117.12H386.07a8.14,8.14,0,0,1,8.14,8.14V276.58H161.47V125.25a8.14,8.14,0,0,1,8.14-8.13Z" transform="translate(-126.56 -117.12)"/><path class="a" d="M429.11,347.07H126.56l34.91-70.49H394.2Z" transform="translate(-126.56 -117.12)"/><rect class="n" width="204.54" height="134.21" transform="translate(49.01 12.62)"/><rect class="h" width="197.51" height="16.06" transform="translate(52.18 16.58)"/><line class="o" x2="19.58" transform="translate(147.97 25.73)"/><line class="o" x2="19.58" transform="translate(190.2 25.73)"/><path class="h" d="M369,139.5a.37.37,0,0,1-.14-.23.62.62,0,0,1,.16-.56l1.4-1.37a.7.7,0,0,0,.28-.51.39.39,0,0,0-.16-.32.6.6,0,0,0-.38-.12h-.34l-.14.06-.15.09-.13.07a.25.25,0,0,1-.17,0,.3.3,0,0,1-.17-.11.69.69,0,0,1-.1-.19.3.3,0,0,1,0-.21.34.34,0,0,1,.16-.18,2.23,2.23,0,0,1,1.24-.33,1.31,1.31,0,0,1,.92.35,1.06,1.06,0,0,1,.35.8,1.3,1.3,0,0,1-.16.62,1.94,1.94,0,0,1-.5.59l-1.07.85h1.4a.21.21,0,0,1,.19.11.49.49,0,0,1,.07.25.6.6,0,0,1-.07.27.23.23,0,0,1-.19.11h-2a.36.36,0,0,1-.3-.04Z" transform="translate(-126.56 -117.12)"/><path class="b" d="M258.4,146.55H186.1a4.81,4.81,0,0,1-4.81-4.82h0a4.81,4.81,0,0,1,4.81-4.81h72.3a4.81,4.81,0,0,1,4.81,4.81h0a4.81,4.81,0,0,1-4.81,4.82Z" transform="translate(-126.56 -117.12)"/><path class="p" d="M268.13,298.9l.4-8.59H256.24l-.82,8.59Z" transform="translate(-126.56 -117.12)"/><path class="p" d="M293.55,298.9l-.42-8.59h-12.3l.01,8.59Z" transform="translate(-126.56 -117.12)"/><path class="p" d="M359.74,308.08h13.14l-3.08-9.18H357.09Z" transform="translate(-126.56 -117.12)"/><path class="p" d="M255.42,298.9l.82-8.59h-12.3l-1.22,8.59Z" transform="translate(-126.56 -117.12)"/><path class="p" d="M230.01,298.9l1.63-8.59H219.35l-2.05,8.59Z" transform="translate(-126.56 -117.12)"/><path class="p" d="M344.38,298.9l-2.06-8.59h-12.3l1.65,8.59Z" transform="translate(-126.56 -117.12)"/><path class="p" d="M357.09,298.9l-2.48-8.59H342.32l2.06,8.59Z" transform="translate(-126.56 -117.12)"/><path class="p" d="M217.3,298.9l2.05-8.59h-12.3l-2.46,8.59Z" transform="translate(-126.56 -117.12)"/><path class="p" d="M306.26,298.9l-.83-8.59h-12.3l.42,8.59Z" transform="translate(-126.56 -117.12)"/><path class="p" d="M369.8,298.9l-2.89-8.59h-12.3l2.48,8.59Z" transform="translate(-126.56 -117.12)"/><path class="p" d="M331.67,298.9l-1.65-8.59h-12.3l1.24,8.59Z" transform="translate(-126.56 -117.12)"/><path class="p" d="M318.96,298.9l-1.24-8.59H305.43l.83,8.59Z" transform="translate(-126.56 -117.12)"/><path class="p" d="M280.84,298.9l-.01-8.59h-12.3l-.4,8.59Z" transform="translate(-126.56 -117.12)"/><path class="p" d="M191.88,298.9H179.17l-3.51,9.18h13.15Z" transform="translate(-126.56 -117.12)"/><path class="p" d="M194.75,290.31H182.46l-3.29,8.59h12.71Z" transform="translate(-126.56 -117.12)"/><path class="p" d="M204.59,298.9l2.46-8.59h-12.3l-2.87,8.59Z" transform="translate(-126.56 -117.12)"/><path class="p" d="M171.9,317.92l-4.04,10.58h14.13l3.53-10.58Z" transform="translate(-126.56 -117.12)"/><path class="p" d="M188.81,308.08H175.66l-3.76,9.84h13.62Z" transform="translate(-126.56 -117.12)"/><path class="p" d="M185.52,317.92l-3.53,10.58h14.13l3.02-10.58Z" transform="translate(-126.56 -117.12)"/><path class="p" d="M242.72,298.9l1.22-8.59h-12.3l-1.63,8.59Z" transform="translate(-126.56 -117.12)"/><path class="p" d="M241.4,308.08l1.32-9.18H230.01l-1.75,9.18Z" transform="translate(-126.56 -117.12)"/><path class="p" d="M228.26,308.08l1.75-9.18H217.3l-2.19,9.18Z" transform="translate(-126.56 -117.12)"/><path class="p" d="M254.55,308.08l.87-9.18h-12.7l-1.32,9.18Z" transform="translate(-126.56 -117.12)"/><path class="p" d="M204.59,298.9H191.88l-3.07,9.18h13.15Z" transform="translate(-126.56 -117.12)"/><path class="p" d="M362.57,317.92h13.62l-3.31-9.84H359.74Z" transform="translate(-126.56 -117.12)"/><path class="p" d="M215.11,308.08l2.19-9.18H204.59l-2.63,9.18Z" transform="translate(-126.56 -117.12)"/><path class="p" d="M188.81,308.08l-3.29,9.84h13.62l2.82-9.84Z" transform="translate(-126.56 -117.12)"/><path class="p" d="M333.44,308.08l-1.77-9.18H318.96l1.33,9.18Z" transform="translate(-126.56 -117.12)"/><path class="p" d="M320.29,308.08l-1.33-9.18h-12.7l.88,9.18Z" transform="translate(-126.56 -117.12)"/><path class="p" d="M359.74,308.08l-2.65-9.18H344.38l2.21,9.18Z" transform="translate(-126.56 -117.12)"/><path class="p" d="M280.85,308.08l-.01-9.18H268.13l-.43,9.18Z" transform="translate(-126.56 -117.12)"/><path class="p" d="M307.14,308.08l-.88-9.18H293.55l.45,9.18Z" transform="translate(-126.56 -117.12)"/><path class="p" d="M294,308.08l-.45-9.18H280.84l.01,9.18Z" transform="translate(-126.56 -117.12)"/><path class="p" d="M267.7,308.08l.43-9.18H255.42l-.87,9.18Z" transform="translate(-126.56 -117.12)"/><path class="p" d="M307.14,308.08l.96,9.84h13.61l-1.42-9.84Z" transform="translate(-126.56 -117.12)"/><path class="p" d="M320.29,308.08l1.42,9.84h13.62l-1.89-9.84Z" transform="translate(-126.56 -117.12)"/><path class="p" d="M201.96,308.08l-2.82,9.84h13.62l2.35-9.84Z" transform="translate(-126.56 -117.12)"/><path class="p" d="M333.44,308.08l1.89,9.84h13.62l-2.36-9.84Z" transform="translate(-126.56 -117.12)"/><path class="p" d="M280.85,308.08l.01,9.84h13.62l-.48-9.84Z" transform="translate(-126.56 -117.12)"/><path class="p" d="M346.59,308.08l2.36,9.84h13.62l-2.83-9.84Z" transform="translate(-126.56 -117.12)"/><path class="p" d="M294,308.08l.48,9.84H308.1l-.96-9.84Z" transform="translate(-126.56 -117.12)"/><path class="p" d="M228.26,308.08l-1.88,9.84H240l1.4-9.84Z" transform="translate(-126.56 -117.12)"/><path class="p" d="M215.11,308.08l-2.35,9.84h13.62l1.88-9.84Z" transform="translate(-126.56 -117.12)"/><path class="p" d="M267.7,308.08l-.46,9.84h13.62l-.01-9.84Z" transform="translate(-126.56 -117.12)"/><path class="p" d="M254.55,308.08l-.93,9.84h13.62l.46-9.84Z" transform="translate(-126.56 -117.12)"/><path class="p" d="M241.4,308.08l-1.4,9.84h13.62l.93-9.84Z" transform="translate(-126.56 -117.12)"/><path class="p" d="M346.59,308.08l-2.21-9.18H331.67l1.77,9.18Z" transform="translate(-126.56 -117.12)"/><path class="p" d="M194.75,290.31l2.94-8.8H185.81l-3.35,8.8Z" transform="translate(-126.56 -117.12)"/><path class="p" d="M182.46,290.31H171.1l-3.66,8.59h11.73Z" transform="translate(-126.56 -117.12)"/><path class="p" d="M185.81,281.51H174.85l-3.75,8.8h11.36Z" transform="translate(-126.56 -117.12)"/><path class="p" d="M179.17,298.9H167.44l-3.91,9.18h12.13Z" transform="translate(-126.56 -117.12)"/><path class="p" d="M175.66,308.08H163.53l-4.2,9.84H171.9Z" transform="translate(-126.56 -117.12)"/><path class="p" d="M171.9,317.92H159.33l-4.51,10.58h13.04Z" transform="translate(-126.56 -117.12)"/><path class="p" d="M382.5,298.9l3.53,9.18h11.63l-3.91-9.18Z" transform="translate(-126.56 -117.12)"/><path class="p" d="M389.81,317.92h12.05l-4.2-9.84H386.03Z" transform="translate(-126.56 -117.12)"/><path class="p" d="M393.87,328.5h12.5l-4.51-10.58H389.81Z" transform="translate(-126.56 -117.12)"/><path class="p" d="M293.13,290.31l-.43-8.8H280.82l.01,8.8Z" transform="translate(-126.56 -117.12)"/><path class="p" d="M382.5,298.9h11.25l-3.66-8.59H379.21Z" transform="translate(-126.56 -117.12)"/><path class="p" d="M376.19,317.92h13.62l-3.78-9.84H372.88Z" transform="translate(-126.56 -117.12)"/><path class="p" d="M207.05,290.31l2.52-8.8H197.69l-2.94,8.8Z" transform="translate(-126.56 -117.12)"/><path class="p" d="M366.91,290.31l2.89,8.59h12.7l-3.29-8.59Z" transform="translate(-126.56 -117.12)"/><path class="p" d="M390.09,290.31l-3.75-8.8H375.83l3.38,8.8Z" transform="translate(-126.56 -117.12)"/><path class="p" d="M379.21,290.31l-3.38-8.8H363.96l2.95,8.8Z" transform="translate(-126.56 -117.12)"/><path class="p" d="M335.33,317.92l2.04,10.58h14.12l-2.54-10.58Z" transform="translate(-126.56 -117.12)"/><path class="p" d="M379.74,328.5h14.13l-4.06-10.58H376.19Z" transform="translate(-126.56 -117.12)"/><path class="p" d="M366.91,290.31l-2.95-8.8H352.08l2.53,8.8Z" transform="translate(-126.56 -117.12)"/><path class="p" d="M362.57,317.92l3.05,10.58h14.12l-3.55-10.58Z" transform="translate(-126.56 -117.12)"/><path class="p" d="M348.95,317.92l2.54,10.58h14.13l-3.05-10.58Z" transform="translate(-126.56 -117.12)"/><path class="p" d="M372.88,308.08h13.15l-3.53-9.18H369.8Z" transform="translate(-126.56 -117.12)"/><path class="p" d="M256.24,290.31l.83-8.8H245.19l-1.25,8.8Z" transform="translate(-126.56 -117.12)"/><path class="p" d="M354.61,290.31l-2.53-8.8H340.2l2.12,8.8Z" transform="translate(-126.56 -117.12)"/><path class="p" d="M243.94,290.31l1.25-8.8H233.32l-1.68,8.8Z" transform="translate(-126.56 -117.12)"/><path class="p" d="M280.83,290.31l-.01-8.8H268.95l-.42,8.8Z" transform="translate(-126.56 -117.12)"/><path class="p" d="M231.64,290.31l1.68-8.8H221.44l-2.09,8.8Z" transform="translate(-126.56 -117.12)"/><path class="p" d="M219.35,290.31l2.09-8.8H209.57l-2.52,8.8Z" transform="translate(-126.56 -117.12)"/><path class="p" d="M268.53,290.31l.42-8.8H257.07l-.83,8.8Z" transform="translate(-126.56 -117.12)"/><path class="p" d="M342.32,290.31l-2.12-8.8H328.33l1.69,8.8Z" transform="translate(-126.56 -117.12)"/><path class="p" d="M330.02,290.31l-1.69-8.8H316.45l1.27,8.8Z" transform="translate(-126.56 -117.12)"/><path class="p" d="M305.43,290.31l-.86-8.8H292.7l.43,8.8Z" transform="translate(-126.56 -117.12)"/><path class="p" d="M335.33,317.92H199.14l-3.02,10.58H337.37Z" transform="translate(-126.56 -117.12)"/><path class="p" d="M317.72,290.31l-1.27-8.8H304.57l.86,8.8Z" transform="translate(-126.56 -117.12)"/><rect class="l" width="302.69" height="4.3" transform="translate(0 229.95)"/><g transform="translate(66.869 39.884)"><rect class="c" width="169" height="101"/><rect class="b" width="169" height="101"/><rect class="j" width="169" height="12" transform="translate(0 89)"/><g transform="translate(79 90)"><g class="ad" transform="matrix(1, 0, 0, 1, -217, -180)"><circle class="j" cx="5" cy="5" r="5" transform="translate(217 180)"/></g><circle class="j" cx="5" cy="5" r="5"/><path class="b" d="M588.375,653.367l3.1,1.857-3.1,1.857Z" transform="translate(-584.437 -650.023)"/></g><g transform="translate(153 91)"><g class="ac" transform="matrix(1, 0, 0, 1, -291, -181)"><circle class="j" cx="3.5" cy="3.5" r="3.5" transform="translate(291 181)"/></g><circle class="j" cx="3.5" cy="3.5" r="3.5"/><g transform="translate(2.285 2.285)"><path class="c" d="M1.173,1,.419.245H.9A.123.123,0,0,0,.9,0H.368A.369.369,0,0,0,0,.368V.9A.123.123,0,0,0,.245.9V.419L1,1.173A.123.123,0,1,0,1.173,1Z"/><g transform="translate(0 1.647)"><path class="c" d="M1.173,327.341a.123.123,0,0,0-.174,0l-.754.754v-.483a.123.123,0,0,0-.245,0v.534a.369.369,0,0,0,.368.368H.9a.123.123,0,0,0,0-.245H.419l.754-.754A.123.123,0,0,0,1.173,327.341Z" transform="translate(0 -327.305)"/></g><g transform="translate(1.647 1.647)"><path class="c" d="M328.391,327.487a.123.123,0,0,0-.123.123v.483l-.754-.754a.123.123,0,1,0-.174.174l.754.754h-.483a.123.123,0,1,0,0,.245h.534a.369.369,0,0,0,.368-.368v-.534A.123.123,0,0,0,328.391,327.487Z" transform="translate(-327.305 -327.303)"/></g><g transform="translate(1.647)"><path class="c" d="M328.145,0h-.534a.123.123,0,0,0,0,.245h.483L327.34,1a.123.123,0,0,0,.174.174l.754-.754V.9a.123.123,0,0,0,.245,0V.368A.369.369,0,0,0,328.145,0Z" transform="translate(-327.304)"/></g></g></g><g transform="translate(140 91)"><g class="ab" transform="matrix(1, 0, 0, 1, -278, -181)"><circle class="j" cx="3.5" cy="3.5" r="3.5" transform="translate(278 181)"/></g><g class="aa" transform="matrix(1, 0, 0, 1, -278, -181)"><circle class="j" cx="3.5" cy="3.5" r="3.5" transform="translate(278 181)"/></g></g><g class="q" transform="translate(8 94)"><rect class="b" width="27" height="1" rx="0.5"/><rect class="e" width="4" height="1"/><g class="r" transform="translate(-1 -2)"><rect class="w" width="28" height="3" rx="1.5"/><rect class="x" x="0.5" y="0.5" width="27" height="2" rx="1"/></g><g class="s"><rect class="w" width="28" height="3" rx="1.5"/><rect class="x" x="0.5" y="0.5" width="27" height="2" rx="1"/></g></g><g transform="translate(11.999 95.946) rotate(-122)"><g class="z" transform="matrix(-0.53, 0.85, -0.85, -0.53, 237.18, -28.67)"><circle class="b" cx="0.94" cy="0.94" r="0.94" transform="translate(150 185.95) rotate(-122)"/></g><g class="y" transform="matrix(-0.53, 0.85, -0.85, -0.53, 237.18, -28.67)"><circle class="b" cx="0.94" cy="0.94" r="0.94" transform="translate(150 185.95) rotate(-122)"/></g><circle class="j" cx="0.579" cy="0.579" r="0.579" transform="translate(0.356 0.35)"/></g><g transform="translate(140.631 91.861)"><path class="c" d="M1.018,4.413A.477.477,0,0,0,.79,4.47,2.612,2.612,0,0,1,.226,2.853,2.652,2.652,0,0,1,2.894.222a2.725,2.725,0,0,1,.531.052A.113.113,0,0,0,3.558.187.112.112,0,0,0,3.47.056,2.956,2.956,0,0,0,2.894,0,2.9,2.9,0,0,0,.847.835,2.824,2.824,0,0,0,.622,4.621a.463.463,0,0,0,.06.591.479.479,0,0,0,.671,0,.464.464,0,0,0,0-.662.475.475,0,0,0-.336-.137Zm.176.642a.251.251,0,0,1-.352,0,.243.243,0,0,1,0-.347.251.251,0,0,1,.352,0,.243.243,0,0,1,0,.347Zm0,0" transform="translate(0 0.001)"/><path class="c" d="M200.416,32.778a.464.464,0,0,0-.059-.591.48.48,0,0,0-.671,0,.464.464,0,0,0,0,.662.48.48,0,0,0,.564.08,2.612,2.612,0,0,1,.564,1.617,2.652,2.652,0,0,1-2.668,2.631,2.724,2.724,0,0,1-.526-.051.113.113,0,0,0-.133.087.112.112,0,0,0,.089.131,2.958,2.958,0,0,0,.571.055,2.9,2.9,0,0,0,2.046-.836,2.824,2.824,0,0,0,.225-3.786Zm-.571-.086a.243.243,0,0,1,0-.347.251.251,0,0,1,.352,0,.243.243,0,0,1,0,.347.251.251,0,0,1-.352,0Zm0,0" transform="translate(-195.327 -31.688)"/><path class="c" d="M75.546,77.928a.111.111,0,0,0,.111.111h.694a.111.111,0,0,0,.111-.111v-.215a1.738,1.738,0,0,0,.416-.173l.152.152a.111.111,0,0,0,.157,0l.49-.491a.111.111,0,0,0,0-.157l-.152-.152a1.737,1.737,0,0,0,.173-.416h.214a.111.111,0,0,0,.111-.111v-.694a.111.111,0,0,0-.111-.111H77.7a1.738,1.738,0,0,0-.173-.416l.151-.151a.111.111,0,0,0,0-.157l-.491-.49a.111.111,0,0,0-.157,0l-.151.151a1.738,1.738,0,0,0-.416-.173v-.213A.111.111,0,0,0,76.351,74h-.694a.111.111,0,0,0-.111.111v.213a1.736,1.736,0,0,0-.416.173l-.151-.151a.111.111,0,0,0-.157,0l-.491.49a.111.111,0,0,0,0,.157l.151.151a1.737,1.737,0,0,0-.173.416H74.1a.111.111,0,0,0-.111.111v.694a.111.111,0,0,0,.111.111h.214a1.738,1.738,0,0,0,.173.416l-.152.152a.111.111,0,0,0,0,.157l.49.491a.111.111,0,0,0,.078.033h0a.111.111,0,0,0,.078-.033l.152-.152a1.739,1.739,0,0,0,.416.173Zm-.373-.621a.111.111,0,0,0-.139.015l-.135.135-.334-.334.135-.135a.111.111,0,0,0,.015-.139,1.519,1.519,0,0,1-.21-.507.111.111,0,0,0-.108-.088h-.191v-.472h.19a.111.111,0,0,0,.108-.088,1.519,1.519,0,0,1,.21-.507.111.111,0,0,0-.015-.139l-.134-.134.334-.334.134.134a.111.111,0,0,0,.139.015,1.518,1.518,0,0,1,.507-.21.111.111,0,0,0,.088-.108v-.189h.472v.189a.111.111,0,0,0,.088.108,1.52,1.52,0,0,1,.507.21.111.111,0,0,0,.139-.015l.134-.134.334.334-.134.134a.111.111,0,0,0-.015.139,1.52,1.52,0,0,1,.21.507.111.111,0,0,0,.108.088H77.8v.472h-.191a.111.111,0,0,0-.108.088,1.519,1.519,0,0,1-.21.507.111.111,0,0,0,.015.139l.135.135-.334.334-.135-.135a.111.111,0,0,0-.139-.015,1.52,1.52,0,0,1-.507.21.111.111,0,0,0-.088.108v.191h-.472v-.191a.111.111,0,0,0-.088-.108A1.519,1.519,0,0,1,75.173,77.307Zm0,0" transform="translate(-73.148 -73.163)"/><path class="c" d="M175.239,174.305a.934.934,0,1,0-.934.934A.935.935,0,0,0,175.239,174.305Zm-1.642,0a.708.708,0,1,1,.708.708A.709.709,0,0,1,173.6,174.305Zm0,0" transform="translate(-171.449 -171.449)"/><path class="c" d="M338.191,18.035a.113.113,0,1,0-.08-.033A.114.114,0,0,0,338.191,18.035Zm0,0" transform="translate(-334.308 -17.607)"/><path class="c" d="M154.472,474.359a.113.113,0,1,0,.08.033A.114.114,0,0,0,154.472,474.359Zm0,0" transform="translate(-152.638 -469.072)"/></g><g class="u" transform="translate(48.801 9.8)"><g transform="translate(1.122 -33.678)"><path class="j" d="M-22686.072-15583.72s5.1-111.224-7.053-111.224-38.141,15.986-51.723,15.986-8.641,95.237-8.641,95.237v37.382h67.416Z" transform="translate(22754.363 15694.943)"/></g><g transform="translate(16.199 14.2)"><path class="b" d="M20,40a20.15,20.15,0,0,1-4.031-.406,19.894,19.894,0,0,1-7.151-3.009,20.057,20.057,0,0,1-7.246-8.8A19.866,19.866,0,0,1,.407,24.031a20.186,20.186,0,0,1,0-8.061A19.895,19.895,0,0,1,3.416,8.818a20.06,20.06,0,0,1,8.8-7.246A19.883,19.883,0,0,1,15.969.406a20.2,20.2,0,0,1,8.061,0,19.9,19.9,0,0,1,7.152,3.009,20.059,20.059,0,0,1,7.246,8.8,19.886,19.886,0,0,1,1.166,3.754,20.208,20.208,0,0,1,0,8.061,19.9,19.9,0,0,1-3.01,7.151,20.053,20.053,0,0,1-8.8,7.246,19.9,19.9,0,0,1-3.754,1.166A20.149,20.149,0,0,1,20,40ZM20,9.118A10.882,10.882,0,1,0,30.882,20,10.894,10.894,0,0,0,20,9.118Z"/><path class="v" d="M-20566-14968.8h8.953s.344,5.813,4.184,8.243c1.7,1.073,4.059,2.4,6.23,2.527a10.553,10.553,0,0,0,4.945-1.054l-9.246,9.4s-6.863-1.984-10.629-6.764S-20566-14968.8-20566-14968.8Z" transform="translate(20582.127 14999.003)"/><path class="b" d="M-20566-14968.8h8.953s.344,5.813,4.184,8.243c1.7,1.073,4.059,2.4,6.23,2.527a10.553,10.553,0,0,0,4.945-1.054l-9.246,9.4s-6.863-1.984-10.629-6.764S-20566-14968.8-20566-14968.8Z" transform="translate(20581.539 14995.918)"/></g></g></g></g><g transform="translate(42.031 199.478)"><path class="a" d="M153.29,453.07s22.36-46.88,25.8-55.91S230.7,365.33,233.28,361s6-17.63,8.61-23.22.43-7.75,2.15-12.48,4.73-10.32.43-10.32-9.89,4.73-12.05,12.47-10.75,14.2-10.75,14.2l.43-5.16c.43-5.17,5.59-21.08,7.74-24.52s15.06-17.2,16.78-17.63,5.59,3.44,9.46,3.44,4.73-3,2.58-4.73-3.87-7.32-9-10.76-10.75,0-10.75,0a68.25,68.25,0,0,0-4.73-6.88c-2.16-2.58-6.46-6.88-12.05-8.17a11.2,11.2,0,0,0-9.46,2.15,48.461,48.461,0,0,0-6-.86c-4.3-.43-7.31,2.15-11.61,9s-11.19,20.22-11.19,20.22,1.72-12.48,1.72-17.64.43-10.75-1.72-12.9-4.3.43-5.16,8.17-10.75,34.84-12,42.15-15.05,47.74-22.37,58.07-46.88,55.48-46.88,55.48M215.22,300.82s6-17.21,7.74-17.21,8.17,4.73,8.17,4.73Z" transform="translate(-97.46 -266.482)"/><path class="j" d="M163.16,336.22s7.33-22.93,8.55-28.83c.87-4.16,3.95.69,3.95.69s6-4.29,6-.69a10.89,10.89,0,0,0,2.25,6.31s-1.35-6.31,5-8.11,9,.9,7.66,8.11.9,4.5,2.25,2.7-.45-6.31,7.66-9.46,12.62,0,11.26,6.76-3.6,12.61-3.6,22.52,1.8,18.92,3.6,18.92,11.72-10.36,13.52-3.6-1.8,6.76-11.26,14.86-34.24,14.87-38.29,23-6.76,13.06-9.46,13.51-7.21-15.76-20.28-14-26.58,14.87-23.42,9.46,14.86-14,21.62-29.28S163.16,336.22,163.16,336.22Z" transform="translate(-97.46 -266.482)"/><path class="k" d="M163.16,336.22s7.33-22.93,8.55-28.83c.87-4.16,3.95.69,3.95.69s6-4.29,6-.69a10.89,10.89,0,0,0,2.25,6.31s-1.35-6.31,5-8.11,9,.9,7.66,8.11.9,4.5,2.25,2.7-.45-6.31,7.66-9.46,12.62,0,11.26,6.76-3.6,12.61-3.6,22.52,1.8,18.92,3.6,18.92,11.72-10.36,13.52-3.6-1.8,6.76-11.26,14.86-34.24,14.87-38.29,23-6.76,13.06-9.46,13.51-7.21-15.76-20.28-14-26.58,14.87-23.42,9.46,14.86-14,21.62-29.28S163.16,336.22,163.16,336.22Z" transform="translate(-97.46 -266.482)"/><path class="a" d="M212.64,269.42s-12,20.65-14.62,24.95-4.73,8.17-7.75,9.89-5.16,5.59-4.3,6.88" transform="translate(-97.46 -266.482)"/><path class="a" d="M183.82,297.81a23.72,23.72,0,0,1-5.16,6.45c-3.44,3-7.31,5.59-8.17,9a16.9,16.9,0,0,1-3,6" transform="translate(-97.46 -266.482)"/><path class="a" d="M215.22,300.82s-8.6,5.59-10.75,7.31-3,5.59-3,5.59" transform="translate(-97.46 -266.482)"/><line class="a" x1="7.75" y2="6.02" transform="translate(133.67 15.838)"/><path class="a" d="M448.06,426.11s-39.14-38.27-42.15-46-2.15-9.46-4.73-15-10.32-15.11-10.75-22-3.87-23.23-3.87-28.82-1.29-13.76-3-15.05-11.19-3.45-11.19-3.45-5.16-16.34-9-17.2S351.72,282,351.72,282s-1.72-3-3.87-7.74-6-4.73-10.75-3-14.2,5.59-14.2,5.59-10.75-8.17-14.19-3-7.74,14.62-8.6,18.06,5.09,3.32,6.38,2.46,6.13-4.42,6.13-4.42,9.42,7.12,11.14,11,5.16,21.93,5.59,25.37-1.29,14.19-1.29,14.19-8.17-14.62-12-18.92-9.46-6.88-13.76-6.88-7.31,4.73-3.87,6.88,7.31,4.73,8.17,7.74,9.46,18.5,10.32,24.09,6.88,16.77,12.47,20.21,26.24,7.74,30.11,11.62,31.4,58.49,31.4,58.49M330.64,285h6.89l7.31,14.2Z" transform="translate(-97.46 -266.482)"/><path class="j" d="M385.25,320.45s-5-14-10.81-11.26-6.76,4.06-6.76,4.06-3.16-5-8.56-3.16-7.21-1.8-7.21-1.8-7.21-4.5-11.71-.9-.9,13.51.9,21.62-2.25,23.88-3.15,25.23-13.07-4.05-14.42.9,4.05,15.77,14.87,19.37,18.92,5.41,23,9.46,14.42,33.34,23.43,35.59,18.92-10.81,28.38-9.91,21.62,7.66,16.67,1.8-25.68-27-27-34.68-6.31-13.07-8.56-16.67S388,334.87,386.6,329a43.5,43.5,0,0,1-1.35-8.55Z" transform="translate(-97.46 -266.482)"/><path class="k" d="M385.25,320.45s-5-14-10.81-11.26-6.76,4.06-6.76,4.06-3.16-5-8.56-3.16-7.21-1.8-7.21-1.8-7.21-4.5-11.71-.9-.9,13.51.9,21.62-2.25,23.88-3.15,25.23-13.07-4.05-14.42.9,4.05,15.77,14.87,19.37,18.92,5.41,23,9.46,14.42,33.34,23.43,35.59,18.92-10.81,28.38-9.91,21.62,7.66,16.67,1.8-25.68-27-27-34.68-6.31-13.07-8.56-16.67S388,334.87,386.6,329a43.5,43.5,0,0,1-1.35-8.55Z" transform="translate(-97.46 -266.482)"/><path class="a" d="M351.72,282l6,11.18s2.45,5.87,4.93,8.34,4.64,4.33,5.57,7.43,1.23,4.64,1.23,4.64" transform="translate(-97.46 -266.482)"/><line class="a" x2="6.03" y2="12.48" transform="translate(274.9 29.308)"/><line class="a" x2="7.74" y2="8.17" transform="translate(225.44 10.388)"/><path class="a" d="M380,311.14a56.61,56.61,0,0,0,.93,7.74" transform="translate(-97.46 -266.482)"/><path class="a" d="M349.06,304s3.71,2.78,4.33,6.49" transform="translate(-97.46 -266.482)"/><path class="a" d="M312.62,290s-3.4-1.36-3.4-4.08" transform="translate(-97.46 -266.482)"/><path class="a" d="M337.53,285s-2.46-1.89-2.46-4.27" transform="translate(-97.46 -266.482)"/></g></svg>