<svg xmlns="http://www.w3.org/2000/svg" width="192.881" height="192.881" viewBox="0 0 192.881 192.881">
  <g id="Group_8088" data-name="Group 8088" transform="translate(-76.214 -133.075)">
    <circle id="Ellipse_146" data-name="Ellipse 146" cx="68.194" cy="68.194" r="68.194" transform="translate(76.214 229.516) rotate(-45)" fill="#8d3ddc"/>
    <path id="Path_2057" data-name="Path 2057" d="M310.432,247.872,290.367,236.32v-9.544a31.385,31.385,0,0,0,6.167-12.032,6.469,6.469,0,0,0,2.151.373c2.488,0,4.07-7.713,4.337-13.223,2.9-6.132-1.049-9.722-1.049-9.722s1.635-1.635,2.719-8.193-3.821-3.821-7.642-9.828S290.492,161.6,277.944,161.6a17.239,17.239,0,0,0-16.386,10.379,41.52,41.52,0,0,0-9.277,1.084c-3.839,1.084-4.923,13.649-1.653,18.572A18.715,18.715,0,0,1,252.9,200.4c-.871-1.066-1.777-1.351-2.275,1.066-1.084,5.456,3.288,13.1,3.288,13.1l2.257-.64a31.991,31.991,0,0,0,6.416,12.85v9.544l-20.065,11.552a15.427,15.427,0,0,0-7.713,13.347v6.611a68.158,68.158,0,0,0,83.336,0V261.22A15.391,15.391,0,0,0,310.432,247.872Z" transform="translate(-103.826 15.66)" fill="#263238"/>
  </g>
</svg>
