<svg xmlns="http://www.w3.org/2000/svg" width="368.471" height="326.51" viewBox="0 0 368.471 326.51"><defs><style>.a,.m{fill:#8d3ddc;}.b,.e,.l{fill:#fff;}.b{opacity:0.33;}.c{fill:#263238;}.d{fill:#8167f2;}.f{fill:#64b4d2;}.g{opacity:0.3;}.h{fill:#8a51e4;}.i{opacity:0.6;}.j{fill:#48acf0;}.k{opacity:0.1;}.l{opacity:0.5;}.m{opacity:0.12;}</style></defs><g transform="translate(4.273 0)"><path class="a" d="M210.472,370.71c55.43,8.666,112.8-13.919,143.523-61.384a166.5,166.5,0,0,0,14.747-28.657c12.135-30.405,17.843-65.817,14.474-98.443-3.569-34.547-16.158-72.2-45.835-92.809-27.729-19.244-62.686-19.2-94.183-10.35-23.914,6.727-44.788,19.053-64.816,33.446-10.341,7.437-20.537,15.13-31.452,21.73s-22.877,10.878-34.338,16.386c-21.1,10.15-40.246,24.579-51.643,45.471-12.863,23.569-10.4,53.409,1.092,76.987C88.442,327.014,153.221,361.743,210.472,370.71Z" transform="translate(-52.316 -73.344)"/><path class="b" d="M210.472,370.715C265.9,379.382,323.271,356.8,354,309.322a166.083,166.083,0,0,0,14.747-28.648c12.135-30.414,17.843-65.817,14.474-98.453-3.569-34.538-16.158-72.153-45.835-92.8C309.653,70.214,274.7,70.305,243.2,79.108c-23.914,6.727-44.788,19.053-64.816,33.446-10.341,7.437-20.537,15.13-31.452,21.73s-22.877,10.869-34.338,16.386c-21.1,10.15-40.246,24.579-51.643,45.462-12.863,23.578-10.4,53.409,1.092,77C88.442,327.083,153.221,361.776,210.472,370.715Z" transform="translate(-52.316 -73.349)"/></g><g transform="translate(12.225 30.092)"><path class="c" d="M414.215,219.086H276.145a.455.455,0,0,1-.455-.455V123.455a.455.455,0,0,1,.455-.455h138.07a.455.455,0,0,1,.455.455v95.175A.455.455,0,0,1,414.215,219.086Zm-137.615-.91H413.76V123.91H276.6Z" transform="translate(-80.296 -107.888)"/><path class="c" d="M412.732,137.874a3.532,3.532,0,1,1,3.532-3.532,3.532,3.532,0,0,1-3.532,3.532Zm0-6.154a2.622,2.622,0,1,0,2.622,2.622,2.622,2.622,0,0,0-2.622-2.622Z" transform="translate(-92.267 -108.589)"/><path class="c" d="M403.734,134.387a3.077,3.077,0,1,1-3.077-3.077,3.077,3.077,0,0,1,3.077,3.077Z" transform="translate(-91.225 -108.634)"/><path class="c" d="M391.614,134.387a3.077,3.077,0,1,1-3.077-3.077A3.077,3.077,0,0,1,391.614,134.387Z" transform="translate(-90.139 -108.634)"/><rect class="d" width="119.418" height="66.363" transform="translate(205.526 36.559)"/><path class="e" d="M356.943,201.381h-.137a24.158,24.158,0,1,1,.127-48.316l.146,0a24.16,24.16,0,1,1-.137,48.321Zm0-47.41a23.248,23.248,0,1,0-.127,46.5l.137,0a23.25,23.25,0,1,0,.127-46.5Z" transform="translate(-85.409 -110.584)"/><path class="e" d="M353.868,167.89l-.118,22.139,16.231-11.061Z" transform="translate(-87.295 -111.914)"/><path class="c" d="M185.02,128.728H72.885a.455.455,0,0,1-.455-.455V111.3a.455.455,0,0,1,.455-.455H185.02a.464.464,0,0,1,.455.455v16.987a.455.455,0,0,1-.455.446Zm-111.68-.91H184.565V111.75H73.34Z" transform="translate(-62.07 -106.798)"/><path class="c" d="M87.148,120.35a3.259,3.259,0,1,1-3.25-3.25A3.259,3.259,0,0,1,87.148,120.35Z" transform="translate(-62.806 -107.359)"/><path class="c" d="M102.94,120.35a3.25,3.25,0,1,1-.955-2.3,3.25,3.25,0,0,1,.955,2.3Z" transform="translate(-64.223 -107.359)"/><path class="c" d="M118.738,120.35a3.259,3.259,0,1,1-3.25-3.25,3.259,3.259,0,0,1,3.25,3.25Z" transform="translate(-65.638 -107.359)"/><path class="c" d="M199.626,107.31h-7.6a.455.455,0,0,1,0-.91h7.6a.455.455,0,0,1,0,.91Z" transform="translate(-72.753 -106.4)"/><path class="c" d="M90.836,137.26H61.505a.455.455,0,0,1,0-.91H90.836a.455.455,0,0,1,0,.91Z" transform="translate(-61.05 -109.086)"/></g><g transform="translate(0 161.774)"><path class="f" d="M403.35,400.855a.446.446,0,0,1-.428-.291c-5.917-16.086,2.6-34.9,8.193-44.679,2.039-3.559,4.2-7.064,6.281-10.46,6.208-10.1,12.071-19.645,15.612-31.051,4.5-14.456,5.79-31.862,3.842-51.661a.455.455,0,0,1,.41-.492.464.464,0,0,1,.5.41c1.948,19.945.646,37.442-3.878,52.007-3.587,11.525-9.477,21.111-15.712,31.261-2.076,3.386-4.224,6.891-6.263,10.442-5.526,9.64-13.946,28.166-8.148,43.905a.455.455,0,0,1-.273.583Z" transform="translate(-79.3 -252.054)"/><path class="f" d="M401.41,405.313s6.809-18.962,15.266-16.987-14.565,18.844-14.565,18.844Z" transform="translate(-79.344 -263.348)"/><path class="f" d="M404.17,379.027c-.1-.6,1.165-19.845-5.289-19.208s1.165,20.828,4.024,22.312Z" transform="translate(-78.891 -260.804)"/><path class="f" d="M399.573,401.617s-4.943-16.432-10.132-15.193,11.343,19.5,11.343,19.5Z" transform="translate(-78.181 -263.185)"/><path class="f" d="M403.92,383.539s19.782-8.43,19.672-14.875S404.885,380.5,404.885,380.5Z" transform="translate(-79.569 -261.475)"/><path class="f" d="M410.537,366.234s-5.972-20.5-.7-23.2,2.3,20.3,2.3,20.3Z" transform="translate(-79.905 -259.281)"/><path class="f" d="M410.82,366.822s21.994-10.614,20.6-16.322-18.207,12.308-18.207,12.308Z" transform="translate(-80.188 -259.869)"/><path class="f" d="M421.808,347.353s-6.482-18.407-2.239-21.229,4.351,17.706,4.351,17.706Z" transform="translate(-80.843 -257.76)"/><path class="f" d="M422.17,348.065s16.477-6.873,16.122-12.872-14.01,9.349-14.01,9.349Z" transform="translate(-81.206 -258.472)"/><path class="f" d="M430.521,332.077s-6.1-14.884-3.323-17.87,4.552,15.239,4.552,15.239Z" transform="translate(-81.592 -256.686)"/><path class="f" d="M432.239,328.961s9.1-15.33,12.663-13.191c4.8,2.858-13.182,14.92-13.182,14.92Z" transform="translate(-82.062 -256.837)"/><path class="f" d="M436.892,315.141s-8.721-14.693-5.253-17.105,6.145,13.655,6.145,13.655Z" transform="translate(-81.982 -255.243)"/><path class="f" d="M438.659,310.2c.082-.382,6.445-17.761,11.261-16.559s-12.18,18.416-12.18,18.416Z" transform="translate(-82.602 -254.866)"/><path class="f" d="M440.22,296.429s-2.249-14.338-6.837-13.8,6.837,16.186,6.837,16.186Z" transform="translate(-82.114 -253.883)"/><path class="f" d="M441.534,290.094s4.015-14.511,8.839-14.374-9.1,17.66-9.1,17.66Z" transform="translate(-82.918 -253.264)"/><path class="f" d="M440.864,277.169s-4.807-13.983-9.231-11.88,9.231,15.749,9.231,15.749Z" transform="translate(-81.975 -252.31)"/><path class="f" d="M441.333,269.366s-4.843-16.96-.482-18.252S441.333,269.366,441.333,269.366Z" transform="translate(-82.718 -251.053)"/><g class="g" transform="translate(310.252)"><path class="f" d="M403.35,400.855a.446.446,0,0,1-.428-.291c-5.917-16.086,2.6-34.9,8.193-44.679,2.039-3.559,4.2-7.064,6.281-10.46,6.208-10.1,12.071-19.645,15.612-31.051,4.5-14.456,5.79-31.862,3.842-51.661a.455.455,0,0,1,.41-.492.464.464,0,0,1,.5.41c1.948,19.945.646,37.442-3.878,52.007-3.587,11.525-9.477,21.111-15.712,31.261-2.076,3.386-4.224,6.891-6.263,10.442-5.526,9.64-13.946,28.166-8.148,43.905a.455.455,0,0,1-.273.583Z" transform="translate(-389.552 -252.054)"/><path class="f" d="M401.41,405.313s6.809-18.962,15.266-16.987-14.565,18.844-14.565,18.844Z" transform="translate(-389.596 -263.348)"/><path class="f" d="M404.17,379.027c-.1-.6,1.165-19.845-5.289-19.208s1.165,20.828,4.024,22.312Z" transform="translate(-389.143 -260.804)"/><path class="f" d="M399.573,401.617s-4.943-16.432-10.132-15.193,11.343,19.5,11.343,19.5Z" transform="translate(-388.433 -263.185)"/><path class="f" d="M403.92,383.539s19.782-8.43,19.672-14.875S404.885,380.5,404.885,380.5Z" transform="translate(-389.821 -261.475)"/><path class="f" d="M410.537,366.234s-5.972-20.5-.7-23.2,2.3,20.3,2.3,20.3Z" transform="translate(-390.157 -259.281)"/><path class="f" d="M410.82,366.822s21.994-10.614,20.6-16.322-18.207,12.308-18.207,12.308Z" transform="translate(-390.44 -259.869)"/><path class="f" d="M421.808,347.353s-6.482-18.407-2.239-21.229,4.351,17.706,4.351,17.706Z" transform="translate(-391.095 -257.76)"/><path class="f" d="M422.17,348.065s16.477-6.873,16.122-12.872-14.01,9.349-14.01,9.349Z" transform="translate(-391.458 -258.472)"/><path class="f" d="M430.521,332.077s-6.1-14.884-3.323-17.87,4.552,15.239,4.552,15.239Z" transform="translate(-391.844 -256.686)"/><path class="f" d="M432.239,328.961s9.1-15.33,12.663-13.191c4.8,2.858-13.182,14.92-13.182,14.92Z" transform="translate(-392.314 -256.837)"/><path class="f" d="M436.892,315.141s-8.721-14.693-5.253-17.105,6.145,13.655,6.145,13.655Z" transform="translate(-392.234 -255.243)"/><path class="f" d="M438.659,310.2c.082-.382,6.445-17.761,11.261-16.559s-12.18,18.416-12.18,18.416Z" transform="translate(-392.854 -254.866)"/><path class="f" d="M440.22,296.429s-2.249-14.338-6.837-13.8,6.837,16.186,6.837,16.186Z" transform="translate(-392.366 -253.883)"/><path class="f" d="M441.534,290.094s4.015-14.511,8.839-14.374-9.1,17.66-9.1,17.66Z" transform="translate(-393.17 -253.264)"/><path class="f" d="M440.864,277.169s-4.807-13.983-9.231-11.88,9.231,15.749,9.231,15.749Z" transform="translate(-392.227 -252.31)"/><path class="f" d="M441.333,269.366s-4.843-16.96-.482-18.252S441.333,269.366,441.333,269.366Z" transform="translate(-392.97 -251.053)"/></g><path class="f" d="M156.665,410.37a.464.464,0,0,1-.437-.31,54.884,54.884,0,0,1,6.6-48.739.464.464,0,0,1,.637-.109.455.455,0,0,1,.118.628,53.919,53.919,0,0,0-6.491,47.92.464.464,0,0,1-.282.583.41.41,0,0,1-.146.027Z" transform="translate(-57.094 -260.923)"/><path class="f" d="M156.35,411.33s11.488-12.362,7.619-15.312S156.35,411.33,156.35,411.33Z" transform="translate(-57.371 -264.022)"/><path class="f" d="M153.723,404.918s-4.652-17.06-9.2-13.418S153.723,404.918,153.723,404.918Z" transform="translate(-56.227 -263.6)"/><path class="f" d="M153.73,396.3s11.033-10.232,8.421-13.418S154.64,391.406,153.73,396.3Z" transform="translate(-57.136 -262.824)"/><path class="f" d="M153.528,386.409s1.739-18.753-4.552-17.852S153.528,386.409,153.528,386.409Z" transform="translate(-56.534 -261.586)"/><path class="f" d="M158,371.569s13.837-11.707,9.4-14.784S158,371.569,158,371.569Z" transform="translate(-57.519 -260.501)"/><g class="g" transform="translate(87.35 95.927)"><path class="f" d="M156.606,410.37a.455.455,0,0,1-.428-.31,54.884,54.884,0,0,1,6.6-48.739.464.464,0,0,1,.637-.109.446.446,0,0,1,.109.628,53.946,53.946,0,0,0-6.482,47.92.464.464,0,0,1-.282.583.428.428,0,0,1-.155.027Z" transform="translate(-144.44 -356.85)"/><path class="f" d="M156.33,411.33s11.488-12.362,7.619-15.312S156.33,411.33,156.33,411.33Z" transform="translate(-144.719 -359.95)"/><path class="f" d="M153.7,404.918s-4.652-17.06-9.2-13.418S153.7,404.918,153.7,404.918Z" transform="translate(-143.576 -359.528)"/><path class="f" d="M153.71,396.3s11.033-10.232,8.411-13.418S154.62,391.406,153.71,396.3Z" transform="translate(-144.484 -358.752)"/><path class="f" d="M153.508,386.409s1.739-18.753-4.552-17.852S153.508,386.409,153.508,386.409Z" transform="translate(-143.882 -357.513)"/><path class="f" d="M158,371.569s13.837-11.707,9.4-14.784S158,371.569,158,371.569Z" transform="translate(-144.869 -356.429)"/></g><path class="f" d="M126.432,404.481a.464.464,0,0,1-.437-.328c-4.279-14.665-9.1-31.279-20.646-42.977-4.8-4.879-10.642-8.73-16.295-12.453a118.214,118.214,0,0,1-14.147-10.378A59.509,59.509,0,0,1,56,302.669a.459.459,0,1,1,.91-.118,58.589,58.589,0,0,0,18.58,35.121,117.835,117.835,0,0,0,14.037,10.287c5.69,3.751,11.579,7.638,16.441,12.581,11.67,11.834,16.559,28.594,20.874,43.359a.455.455,0,0,1-.31.564Z" transform="translate(-48.372 -255.634)"/><path class="f" d="M130.63,408.754s-8.3-16.432-14.565-11.834S130.63,408.754,130.63,408.754Z" transform="translate(-53.653 -264.059)"/><path class="f" d="M127.454,393.8c-.109-.291-2.731-16.222,4.251-18.125S127.454,393.8,127.454,393.8Z" transform="translate(-54.728 -262.216)"/><path class="f" d="M120.765,383.278s-15.057-13.655-19.244-8.675S120.765,383.278,120.765,383.278Z" transform="translate(-52.409 -262.033)"/><path class="f" d="M116.155,371.924s-10.014-18.817-3.1-20.938S116.155,371.924,116.155,371.924Z" transform="translate(-53.27 -260.001)"/><path class="f" d="M107.954,364.564s-19.272-11.907-20.7-6.627S107.954,364.564,107.954,364.564Z" transform="translate(-51.169 -260.515)"/><path class="f" d="M99.83,356.438S88,339.142,92.547,337.212C99.83,334.171,99.83,356.438,99.83,356.438Z" transform="translate(-51.556 -258.753)"/><path class="f" d="M85.655,349.055S67.1,338.067,63.425,343.32,85.655,349.055,85.655,349.055Z" transform="translate(-49.006 -259.198)"/><path class="f" d="M76.53,339.543s-9.34-19.317-4.288-20.209C80.08,317.95,76.53,339.543,76.53,339.543Z" transform="translate(-49.695 -257.169)"/><path class="f" d="M66.855,331.074S51.607,313.45,48.012,319.158,66.855,331.074,66.855,331.074Z" transform="translate(-47.621 -257.057)"/><path class="f" d="M59.587,314.662s-9.1-18.079-3.25-19.6S59.587,314.662,59.587,314.662Z" transform="translate(-48.227 -254.992)"/><g class="g" transform="translate(0 39.992)"><path class="f" d="M126.432,404.481a.464.464,0,0,1-.437-.328c-4.279-14.665-9.1-31.279-20.646-42.977-4.8-4.879-10.642-8.73-16.295-12.453a118.214,118.214,0,0,1-14.147-10.378A59.509,59.509,0,0,1,56,302.669a.459.459,0,1,1,.91-.118,58.589,58.589,0,0,0,18.58,35.121,117.835,117.835,0,0,0,14.037,10.287c5.69,3.751,11.579,7.638,16.441,12.581,11.67,11.834,16.559,28.594,20.874,43.359a.455.455,0,0,1-.31.564Z" transform="translate(-48.372 -295.627)"/><path class="f" d="M130.63,408.754s-8.3-16.432-14.565-11.834S130.63,408.754,130.63,408.754Z" transform="translate(-53.653 -304.051)"/><path class="f" d="M127.454,393.8c-.109-.291-2.731-16.222,4.251-18.125S127.454,393.8,127.454,393.8Z" transform="translate(-54.728 -302.208)"/><path class="f" d="M120.765,383.278s-15.057-13.655-19.244-8.675S120.765,383.278,120.765,383.278Z" transform="translate(-52.409 -302.025)"/><path class="f" d="M116.155,371.924s-10.014-18.817-3.1-20.938S116.155,371.924,116.155,371.924Z" transform="translate(-53.27 -299.993)"/><path class="f" d="M107.954,364.564s-19.272-11.907-20.7-6.627S107.954,364.564,107.954,364.564Z" transform="translate(-51.169 -300.508)"/><path class="f" d="M99.83,356.438S88,339.142,92.547,337.212C99.83,334.171,99.83,356.438,99.83,356.438Z" transform="translate(-51.556 -298.745)"/><path class="f" d="M85.655,349.055S67.1,338.067,63.425,343.32,85.655,349.055,85.655,349.055Z" transform="translate(-49.006 -299.191)"/><path class="f" d="M76.53,339.543s-9.34-19.317-4.288-20.209C80.08,317.95,76.53,339.543,76.53,339.543Z" transform="translate(-49.695 -297.162)"/><path class="f" d="M66.855,331.074S51.607,313.45,48.012,319.158,66.855,331.074,66.855,331.074Z" transform="translate(-47.621 -297.05)"/><path class="f" d="M59.587,314.662s-9.1-18.079-3.25-19.6S59.587,314.662,59.587,314.662Z" transform="translate(-48.227 -294.984)"/></g><path class="f" d="M374.942,409.069a.464.464,0,0,1-.364-.182c-20.428-26.4,1.693-63.4,1.921-63.769a.457.457,0,1,1,.783.473c-.228.364-22.03,36.814-1.985,62.74a.455.455,0,0,1-.082.637A.437.437,0,0,1,374.942,409.069Z" transform="translate(-76.162 -259.467)"/><path class="f" d="M368.72,404.549s-12.153-15.9-16.5-13.327,8.63,12.927,17.46,15.321Z" transform="translate(-74.856 -263.596)"/><path class="f" d="M367.75,396.232c0-.346,2.84-19.39,7.647-17.861S368.36,398.5,368.36,398.5Z" transform="translate(-76.326 -262.461)"/><path class="f" d="M365.393,386.271s-12.1-15.1-9.431-19.326,9.413,16.586,9.413,16.586Z" transform="translate(-75.235 -261.393)"/><path class="f" d="M367.15,376.991s13.209-9.313,10.624-12.5-10.624,10.3-10.624,10.3Z" transform="translate(-76.272 -261.181)"/><path class="f" d="M368.638,365.072s-6.3-16.887-2.412-20.3,3.432,16.868,3.432,16.868Z" transform="translate(-76.076 -259.421)"/><path class="f" d="M373.17,354s15.321-14.52,11.771-17.415S374.554,348.418,373.17,354Z" transform="translate(-76.812 -258.688)"/><g class="g" transform="translate(276.503 77.522)"><path class="f" d="M374.942,409.069a.464.464,0,0,1-.364-.182c-20.428-26.4,1.693-63.4,1.921-63.769a.457.457,0,1,1,.783.473c-.228.364-22.03,36.814-1.985,62.74a.455.455,0,0,1-.082.637A.437.437,0,0,1,374.942,409.069Z" transform="translate(-352.666 -336.989)"/><path class="f" d="M368.72,404.549s-12.153-15.9-16.5-13.327,8.63,12.927,17.46,15.321Z" transform="translate(-351.36 -341.118)"/><path class="f" d="M367.75,396.232c0-.346,2.84-19.39,7.647-17.861S368.36,398.5,368.36,398.5Z" transform="translate(-352.83 -339.983)"/><path class="f" d="M365.393,386.271s-12.1-15.1-9.431-19.326,9.413,16.586,9.413,16.586Z" transform="translate(-351.738 -338.915)"/><path class="f" d="M367.15,376.991s13.209-9.313,10.624-12.5-10.624,10.3-10.624,10.3Z" transform="translate(-352.776 -338.702)"/><path class="f" d="M368.638,365.072s-6.3-16.887-2.412-20.3,3.432,16.868,3.432,16.868Z" transform="translate(-352.579 -336.943)"/><path class="f" d="M373.17,354s15.321-14.52,11.771-17.415S374.554,348.418,373.17,354Z" transform="translate(-353.316 -336.21)"/></g></g><g transform="translate(55.825 25.502)"><path class="h" d="M298.226,408.978c-.983-17.506-1.657-29.631-1.657-29.631-62.576,15.157-96.441-9.176-96.441-9.176S197.4,387.4,193.92,408.978Z" transform="translate(-116.564 -125.461)"/><path d="M298.182,409.388H193.876a.446.446,0,0,1-.346-.164.464.464,0,0,1-.1-.364c3.468-21.575,6.208-38.808,6.208-38.808a.464.464,0,0,1,.273-.346.446.446,0,0,1,.437.046c.346.246,34.438,24.033,96.068,9.1a.446.446,0,0,1,.373.073.437.437,0,0,1,.182.346s.674,12.117,1.666,29.622a.464.464,0,0,1-.455.482Zm-103.778-.91H297.726c-.847-15.093-1.466-26.09-1.6-28.6-57.251,13.655-90.833-5.881-95.676-8.976-.564,3.4-3.013,18.789-6.036,37.579Z" transform="translate(-116.52 -125.416)"/><g class="i" transform="translate(76.905 244.253)"><path class="e" d="M298.226,408.978c-.983-17.506-1.657-29.631-1.657-29.631-62.576,15.157-96.441-9.176-96.441-9.176S197.4,387.4,193.92,408.978Z" transform="translate(-193.469 -369.714)"/><path class="j" d="M298.182,409.388H193.876a.446.446,0,0,1-.346-.164.464.464,0,0,1-.1-.364c3.468-21.575,6.208-38.808,6.208-38.808a.464.464,0,0,1,.273-.346.446.446,0,0,1,.437.046c.346.246,34.438,24.033,96.068,9.1a.446.446,0,0,1,.373.073.437.437,0,0,1,.182.346s.674,12.117,1.666,29.622a.464.464,0,0,1-.455.482Zm-103.778-.91H297.726c-.847-15.093-1.466-26.09-1.6-28.6-57.251,13.655-90.833-5.881-95.676-8.976-.564,3.4-3.013,18.789-6.036,37.579Z" transform="translate(-193.424 -369.669)"/></g><path class="e" d="M111.414,224.032c-.091,2.831-1.921,5.38-1.985,8.193-.055,2.64,1.438,5.043,1.948,7.629.546,2.786,0,5.644.355,8.439a20.182,20.182,0,0,0,1.466,5.234,7.965,7.965,0,0,0,2.513,3.341c1.821,1.347,4.415,1.293,6.609,1.293a10.078,10.078,0,0,0,6.372-1.821,14.11,14.11,0,0,0,3.314-4.479,9.732,9.732,0,0,0,1.557-4.379,6.81,6.81,0,0,0-.546-2.576c-1.821-4.47-6.372-7.656-7.137-12.408a24.8,24.8,0,0,1,.273-6.136c.182-2.039.064-4.269-1.174-5.917-2.048-2.731-6.846-3.3-10.014-3.3C110.34,217.159,111.533,220.655,111.414,224.032Z" transform="translate(-108.988 -111.741)"/><path class="c" d="M121.74,258.58c-2.13,0-4.488-.064-6.29-1.375a8.411,8.411,0,0,1-2.667-3.532,20.465,20.465,0,0,1-1.493-5.353,24.953,24.953,0,0,1-.127-3.942,21.566,21.566,0,0,0-.228-4.47,20.63,20.63,0,0,0-.91-2.913,10.378,10.378,0,0,1-.055-9.1,12.963,12.963,0,0,0,.965-3.924h0v-1.821c-.064-1.748-.127-3.4.91-4.452a4.179,4.179,0,0,1,3.132-1.029c2.931,0,8.111.428,10.4,3.477,1.111,1.475,1.511,3.45,1.265,6.227-.046.51-.1,1.02-.164,1.52a16.386,16.386,0,0,0-.118,4.506c.419,2.594,2.021,4.7,3.723,6.919a23.55,23.55,0,0,1,3.386,5.389,7.282,7.282,0,0,1,.583,2.731,10.114,10.114,0,0,1-1.611,4.552A14.93,14.93,0,0,1,129,256.614a10.414,10.414,0,0,1-6.655,1.93h-.61Zm-9.868-34.593a14.019,14.019,0,0,1-1.01,4.2,9.467,9.467,0,0,0,.055,8.484,21.431,21.431,0,0,1,.91,3.05,21.711,21.711,0,0,1,.246,4.661,24.17,24.17,0,0,0,.118,3.805,19.663,19.663,0,0,0,1.429,5.107,7.438,7.438,0,0,0,2.367,3.159c1.657,1.2,4.005,1.2,6.072,1.2h.264a9.513,9.513,0,0,0,6.09-1.739,13.883,13.883,0,0,0,3.2-4.351,9.376,9.376,0,0,0,1.5-4.16,6.372,6.372,0,0,0-.519-2.4,22.285,22.285,0,0,0-3.268-5.171c-1.684-2.221-3.432-4.552-3.9-7.283a17.3,17.3,0,0,1,.118-4.752c.055-.5.118-1,.155-1.5.228-2.54-.118-4.315-1.083-5.6-2.121-2.831-7.474-3.086-9.668-3.113a3.377,3.377,0,0,0-2.476.746c-.737.774-.692,2.167-.628,3.787,0,.628.055,1.274,0,1.921Z" transform="translate(-108.945 -111.696)"/><path class="e" d="M118.1,260.83l3.041,24.133s17.187-4.224,22.258-11.006l-9.75-21.447" transform="translate(-109.766 -114.911)"/><path class="c" d="M121.1,285.373a.474.474,0,0,1-.264-.082.455.455,0,0,1-.191-.319L117.6,260.84a.455.455,0,0,1,.391-.51.446.446,0,0,1,.51.4l2.977,23.614c2.813-.746,16.732-4.679,21.347-10.5l-9.64-21.193a.473.473,0,0,1,.228-.61.455.455,0,0,1,.6.228l9.759,21.447a.473.473,0,0,1-.055.464c-5.107,6.828-21.848,11-22.522,11.17Z" transform="translate(-109.72 -114.866)"/><path class="c" d="M149.652,274.443l5.462,12.2,56.2-33.045L222,239.35l7.355,17.888-15.021,35.175a283.115,283.115,0,0,1-36.878,21.848,194.571,194.571,0,0,1-18.8,8.357c-6.127,2.294-12.508,3.86-18.826,5.544a1.912,1.912,0,0,1-1.329,0c-.282-.146-.4-.492-.655-.7-4.624-3.723-16.222-36.914-17.415-47.483Z" transform="translate(-109.975 -113.731)"/><path class="c" d="M307.616,223.49l26,36.969a28.748,28.748,0,0,1,1.484,30.733c-10.014,17.66-26.026,44.606-34.374,52.4,0,0,3.9,7.975,3.3,10.924s-6.09,3.55-6.09,3.55l8.457,14.511S260.524,413.131,196,360.45l13.427-47.064-7.11-5.08,28.521-95.266,29.313-3.15,8.912,23.6,9.622-11.379,9.659,11.379Z" transform="translate(-116.751 -111.09)"/><path class="e" d="M316.426,284.683a.446.446,0,0,1-.428-.31.464.464,0,0,1,.282-.583c7.9-2.731,15.248-3.924,25.353-4.251a.473.473,0,0,1,.473.446.455.455,0,0,1-.446.464c-10.014.328-17.3,1.548-25.089,4.206A.373.373,0,0,1,316.426,284.683Z" transform="translate(-127.508 -117.335)"/><path class="e" d="M290.155,380.259a.464.464,0,0,1-.364-.737A43.633,43.633,0,0,1,307.3,365.867a.455.455,0,0,1,.355.838,42.613,42.613,0,0,0-17.133,13.336.464.464,0,0,1-.364.218Z" transform="translate(-125.153 -125.073)"/><path class="e" d="M153.6,310.3a.645.645,0,0,1-.182,0,.473.473,0,0,1-.246-.6,59.582,59.582,0,0,0,4.242-16.259.458.458,0,1,1,.91.1,60.992,60.992,0,0,1-4.306,16.513A.464.464,0,0,1,153.6,310.3Z" transform="translate(-112.908 -118.545)"/><path class="e" d="M164.335,305.053h-.055a.455.455,0,0,1-.4-.5,15.858,15.858,0,0,0-2.658-10.624.464.464,0,0,1,.109-.637.455.455,0,0,1,.637.118,16.8,16.8,0,0,1,2.822,11.279A.464.464,0,0,1,164.335,305.053Z" transform="translate(-113.625 -118.561)"/><path class="e" d="M223.1,277.565a.465.465,0,0,1-.155,0,.446.446,0,0,1-.273-.573c1.2-3.45,9.1-22.522,11.971-29.34a.455.455,0,1,1,.838.355c-2.831,6.627-10.778,25.926-11.953,29.285a.455.455,0,0,1-.428.273Z" transform="translate(-119.139 -114.449)"/><path class="e" d="M281.767,332.153a.455.455,0,0,1-.446-.337l-3.04-11.379-47.692-28.22a.455.455,0,1,1,.464-.783l47.847,28.3a.455.455,0,0,1,.209.273l2.2,8.193v-9.731a.473.473,0,0,1,.1-.291l20.382-25.134a.464.464,0,0,1,.646-.064.446.446,0,0,1,.064.637l-20.282,25.007V331.7a.464.464,0,0,1-.4.455Z" transform="translate(-119.832 -118.396)"/><path class="e" d="M283.8,367.532a.492.492,0,0,1-.228-.055l-55.312-30.951a.455.455,0,0,1-.182-.619.464.464,0,0,1,.628-.173l55.066,30.778,13.027-9.267a.464.464,0,0,1,.637.1.455.455,0,0,1-.109.637l-13.264,9.44A.474.474,0,0,1,283.8,367.532Z" transform="translate(-119.622 -122.368)"/><ellipse class="c" cx="51.762" cy="52.745" rx="51.762" ry="52.745" transform="translate(11.32 53.821)"/><circle class="d" cx="49.95" cy="49.95" r="49.95" transform="translate(16.591 53.32)"/><path class="c" d="M177.038,260.24a50.405,50.405,0,1,1,50.432-50.414,50.405,50.405,0,0,1-50.432,50.414Zm0-99.891a49.495,49.495,0,1,0,49.522,49.486A49.495,49.495,0,0,0,177.038,160.349Z" transform="translate(-110.533 -106.565)"/><path class="e" d="M160.33,193.78l15.512,43.714,31.306-34.675Z" transform="translate(-113.552 -109.645)"/><path class="e" d="M224.676,198.947a.464.464,0,0,1-.446-.355,39.372,39.372,0,0,0-21.366-26.518.458.458,0,0,1,.391-.828A40.319,40.319,0,0,1,225.1,198.383a.455.455,0,0,1-.337.546Z" transform="translate(-117.343 -107.621)"/><path class="e" d="M197.314,169.941a.409.409,0,0,1-.146,0,39.417,39.417,0,0,0-8.949-1.921.457.457,0,0,1,.091-.91,40.054,40.054,0,0,1,9.1,1.966.461.461,0,1,1-.146.91Z" transform="translate(-116.016 -107.253)"/><path class="e" d="M217.176,282.474s-9.6,19.945-16.832,22.121l-10.815-13.81-9.1-11.634-2.321-2.868h0l-.055-.091-9.731-17.56-1.092-1.975-.328-1.438-.774-3.386-.055-.246.137-.41,1.821-5.071,3.25-3.732v-.137l1.174-5.99.127-.646,3.1-1.912v-.046c-.218-.583-2.5-7.091-.719-10.878a4.242,4.242,0,0,1,1.821-2,4.97,4.97,0,0,1,1.138-.473,1.82,1.82,0,0,1,.291-.419c.282-.319.774-.564,1.347.246h0a5.125,5.125,0,0,1,.619,1.3c.1.246.2.537.3.856a1.743,1.743,0,0,0,.127.446c.046.155.1.328.155.5.109.364.228.728.346,1.092,1.675,5.207,4.807,14.056,5.043,14.693l7.565,2.494.91.291.446,1.22,2.64,7.228.173.473.082.583,1.675,13.855.064.064,14.283,14.1Z" transform="translate(-114.067 -111.958)"/><path class="c" d="M219.953,285.456a.446.446,0,0,1-.31-.127c-12.8-11.962-18.38-17.924-18.434-17.979a.465.465,0,0,1-.118-.264l-.856-8.767a50.7,50.7,0,0,0-1.966-9.467,10.815,10.815,0,0,0-2.731-4.925c-1.484-1.393-3.359-1.739-5.353-2.112-.737-.137-1.5-.273-2.249-.473a.446.446,0,0,1-.319-.555.455.455,0,0,1,.555-.328c.71.191,1.457.328,2.185.464,2.03.373,4.124.765,5.808,2.349a11.716,11.716,0,0,1,2.959,5.316,51.889,51.889,0,0,1,2.012,9.659l.847,8.612c.819.865,6.463,6.773,18.28,17.824a.455.455,0,0,1-.31.792Z" transform="translate(-115.998 -113.829)"/><path class="c" d="M189.929,247.074a.464.464,0,0,1-.419-.282c-.965-2.358-1.948-4.852-2.995-7.629h0c-.373-.956-.737-1.93-1.092-2.895-1.484-4-2.731-8.029-3.96-11.834-.118-.355-.237-.728-.346-1.092v-.127a3.771,3.771,0,0,1-.118-.391l-.473-1.457a.919.919,0,0,0-.064-.209,2.112,2.112,0,0,0-.391-.728l-.046-.055a.737.737,0,0,0-.838-.1,2.294,2.294,0,0,0-.528.255,4.845,4.845,0,0,0-.737.546A5.626,5.626,0,0,0,176.529,223l-.091.2c-.992,2.421-.446,5.371,0,7.528.173.91.355,1.821.555,2.8h0a.082.082,0,0,0,0,.046c.91,4.215,2.066,8.293,3.086,11.725a.455.455,0,0,1-.865.264c-1.029-3.45-2.2-7.547-3.113-11.834h0c-.209-.91-.4-1.884-.574-2.831-.419-2.267-1-5.371.091-8.038l.1-.228a6.809,6.809,0,0,1,1.62-2.23,5.727,5.727,0,0,1,.91-.646,3.448,3.448,0,0,1,.728-.337,2.048,2.048,0,0,1,.646-.118,1.593,1.593,0,0,1,1.156.482l.055.073a3.2,3.2,0,0,1,.564,1.047l.537,1.675a1.266,1.266,0,0,0,.109.373v.127c.109.364.228.728.346,1.083,1.193,3.787,2.467,7.811,3.951,11.78.355.974.719,1.939,1.083,2.895h0c1.056,2.731,2.03,5.253,2.995,7.6a.455.455,0,0,1-.255.592.373.373,0,0,1-.237.045Z" transform="translate(-114.867 -111.933)"/><path class="c" d="M172.843,250.16a.464.464,0,0,1-.437-.328,27.456,27.456,0,0,1-1.111-6.19,11.5,11.5,0,0,1,1.174-6.127l.073-.137a5.2,5.2,0,0,1,3.132-2.13.471.471,0,0,1,.246.91,4.279,4.279,0,0,0-2.6,1.748l-.064.109a10.542,10.542,0,0,0-1.047,5.617,26.263,26.263,0,0,0,1.083,5.981.464.464,0,0,1-.319.564Z" transform="translate(-114.532 -113.362)"/><path class="c" d="M199.589,305.62a.464.464,0,0,1-.355-.164L177.7,278.766l-.055-.082a174.2,174.2,0,0,1-9.8-17.679c-.6-1.3-1.074-2.431-1.438-3.45a22.511,22.511,0,0,1-.847-2.731.6.6,0,0,1,0-.127,3.48,3.48,0,0,1,.055-.746,3.88,3.88,0,0,1,.091-.674,15.321,15.321,0,0,1,1.821-5.216,11.37,11.37,0,0,1,3.4-3.887.455.455,0,0,1,.628.137.446.446,0,0,1-.137.628,10.705,10.705,0,0,0-3.1,3.578,14.274,14.274,0,0,0-1.739,4.916,5.406,5.406,0,0,0-.082.628,5.021,5.021,0,0,0-.055.619,21.543,21.543,0,0,0,.8,2.567c.355.992.819,2.1,1.411,3.377a175.685,175.685,0,0,0,9.7,17.506.529.529,0,0,1,.064.1l21.5,26.655a.45.45,0,0,1-.337.737Z" transform="translate(-114.022 -114.157)"/><path class="e" d="M223.33,285.229a44.2,44.2,0,0,1-4.643,9.34A209.605,209.605,0,0,1,201.6,316.964c-6.509-5.944-15.53-19.718-15.53-19.718,4.47-2.731,11.625-10.678,15.649-15.767,3.86-4.888,6.655-9.049,6.655-9.049Z" transform="translate(-115.86 -116.697)"/><path class="c" d="M201.535,317.374a.464.464,0,0,1-.31-.118c-6.472-5.917-15.476-19.663-15.6-19.809a.428.428,0,0,1-.064-.346.473.473,0,0,1,.2-.291c4.552-2.786,11.771-10.924,15.539-15.658s6.6-8.976,6.627-9.012a.464.464,0,0,1,.319-.2.455.455,0,0,1,.355.1l14.966,12.8a.473.473,0,0,1,.137.5,45.172,45.172,0,0,1-4.7,9.413A210.006,210.006,0,0,1,201.872,317.2a.464.464,0,0,1-.319.155Zm-14.9-20.027c1.484,2.221,9.1,13.509,14.866,18.926a206.732,206.732,0,0,0,16.741-21.985,44.25,44.25,0,0,0,4.5-8.949L208.4,273.077c-.819,1.183-3.259,4.7-6.372,8.648-3.714,4.67-10.751,12.553-15.394,15.612Z" transform="translate(-115.813 -116.653)"/><path class="k" d="M224.766,285.234c-1.074,3.15-4.843,8.539-6.773,11.57L202.08,282.967c3.869-4.888,7.711-10.487,7.711-10.487Z" transform="translate(-117.296 -116.702)"/><path class="e" d="M111.544,220.039c-.1-1.365-.127-2.986.328-3.541a5.307,5.307,0,0,1,1.739-1.238c6.236-3.25,12.481-6.5,18.926-9.34.564-.246,1.274-.482,1.775-.109a1.548,1.548,0,0,1,.4,1.466,8.484,8.484,0,0,1-2.285,4.37,20.665,20.665,0,0,1-5.608,4.47,18.325,18.325,0,0,0-2.094,1.2,19.116,19.116,0,0,0-2.367,2.258,20.478,20.478,0,0,1-1.821,1.629" transform="translate(-109.172 -110.706)"/><path class="c" d="M120.5,221.616a.428.428,0,0,1-.355-.173.446.446,0,0,1,.073-.637,19.51,19.51,0,0,0,1.766-1.593q.291-.291.546-.574a14.32,14.32,0,0,1,1.884-1.739,12.9,12.9,0,0,1,1.63-.956l.51-.273a19.946,19.946,0,0,0,5.462-4.379,7.874,7.874,0,0,0,2.185-4.115c0-.237.064-.819-.237-1.047s-.91,0-1.311.164c-6.427,2.831-12.745,6.136-18.9,9.331a4.68,4.68,0,0,0-1.593,1.111c-.155.191-.391.91-.228,3.232a.456.456,0,0,1-.91.064c-.146-2.121,0-3.314.428-3.869a5.762,5.762,0,0,1,1.884-1.347c6.145-3.2,12.49-6.509,18.944-9.349a2.194,2.194,0,0,1,2.239-.064,1.957,1.957,0,0,1,.583,1.884,8.73,8.73,0,0,1-2.4,4.615,21.1,21.1,0,0,1-5.726,4.552l-.519.273a9.686,9.686,0,0,0-3.277,2.522c-.182.2-.373.391-.555.583A21.455,21.455,0,0,1,120.8,221.5.464.464,0,0,1,120.5,221.616Z" transform="translate(-109.126 -110.662)"/><path class="e" d="M117.5,221.076a9.105,9.105,0,0,1,1.384-.555c4.552-1.375,9.513-1.047,14.11-2.34,2.321-.655,4.552-1.73,7.01-1.711.728,0,1.721.3,1.639,1.211s-.71,1.274-1.193,1.821a19.322,19.322,0,0,1-1.711,1.821,14.976,14.976,0,0,1-4.288,2.64,36.634,36.634,0,0,1-7.1,1.684c-2.33.446-4.552,1.165-6.837,1.821-.564.164-1.138.31-1.721.428" transform="translate(-109.712 -111.68)"/><path class="c" d="M118.745,228.323a.464.464,0,0,1-.446-.364.455.455,0,0,1,.355-.537c.51-.1,1.047-.237,1.684-.419l1.384-.4a55.715,55.715,0,0,1,5.462-1.429l1.557-.282a25.816,25.816,0,0,0,5.462-1.375,14.657,14.657,0,0,0,4.16-2.558,12.685,12.685,0,0,0,1.22-1.293l.455-.519c.091-.109.2-.218.3-.319a2.23,2.23,0,0,0,.774-1.238.51.51,0,0,0-.109-.373,1.584,1.584,0,0,0-1.083-.337,15.366,15.366,0,0,0-4.925,1.074c-.646.218-1.3.437-1.957.619a41.49,41.49,0,0,1-6.955,1.138,38.59,38.59,0,0,0-7.137,1.2,7.984,7.984,0,0,0-1.32.528.455.455,0,0,1-.61-.2.473.473,0,0,1,.2-.619,10.223,10.223,0,0,1,1.466-.583,39.626,39.626,0,0,1,7.283-1.238,40.963,40.963,0,0,0,6.809-1.1c.646-.182,1.274-.391,1.912-.61a16.386,16.386,0,0,1,5.225-1.12,2.44,2.44,0,0,1,1.748.637,1.347,1.347,0,0,1,.337,1.065,2.95,2.95,0,0,1-1.02,1.821l-.282.291-.437.51a15.358,15.358,0,0,1-1.3,1.384,15.64,15.64,0,0,1-4.424,2.731,27.365,27.365,0,0,1-5.653,1.42l-1.538.282c-1.821.355-3.641.91-5.407,1.411l-1.384.4c-.655.191-1.229.328-1.757.437Z" transform="translate(-109.664 -111.635)"/><path class="e" d="M116.54,228.384a8,8,0,0,1,3.168-1.557,23.67,23.67,0,0,1,6.618,0,65.6,65.6,0,0,0,11.579-.1,4.988,4.988,0,0,1,1.875,0c3.578,1.01-1.247,4.488-2.594,5.071-5.307,2.3-11.589,2.412-17.3,2.276" transform="translate(-109.626 -112.587)"/><path class="c" d="M122.693,234.6h-2.84a.455.455,0,0,1-.446-.464.464.464,0,0,1,.464-.446c5.853.146,11.98,0,17.087-2.239,1.083-.464,3.641-2.431,3.641-3.487,0-.31-.337-.555-.956-.728a4.661,4.661,0,0,0-1.675,0,66.1,66.1,0,0,1-11.7.109l-.91-.073a20.029,20.029,0,0,0-5.626,0,7.683,7.683,0,0,0-2.977,1.466.457.457,0,0,1-.564-.719,8.457,8.457,0,0,1,3.359-1.639,20.938,20.938,0,0,1,5.89-.055l.856.073a65.545,65.545,0,0,0,11.5-.1,5.343,5.343,0,0,1,2.048.064c1.284.364,1.593,1.038,1.62,1.538.127,1.821-3.4,4.06-4.169,4.388C132.88,234.206,127.764,234.6,122.693,234.6Z" transform="translate(-109.579 -112.547)"/><path class="e" d="M123.85,235.21s7.574,10.014,2.057,19.563" transform="translate(-110.281 -113.36)"/><path class="c" d="M125.862,255.184a.491.491,0,0,1-.228-.055.473.473,0,0,1-.173-.628c5.307-9.2-1.948-18.962-2.021-19.053a.458.458,0,1,1,.728-.555c.073.1,7.692,10.323,2.085,20.027A.455.455,0,0,1,125.862,255.184Z" transform="translate(-110.236 -113.315)"/><path class="e" d="M151.917,280.375s-2.995,4.87-12.49,8.657a63.769,63.769,0,0,1-18.261,4.005l-2.786-19.572s6.1,1.1,14.975-2.667a47.084,47.084,0,0,0,9.395-5.4Z" transform="translate(-109.791 -116.067)"/><path class="c" d="M121.121,293.448a.446.446,0,0,1-.446-.391l-2.786-19.572a.446.446,0,0,1,.127-.391.491.491,0,0,1,.4-.118c.055,0,6.081,1.02,14.72-2.64a46.664,46.664,0,0,0,9.294-5.344.473.473,0,0,1,.364-.082.5.5,0,0,1,.3.209l9.158,14.975a.464.464,0,0,1,0,.482c-.127.2-3.177,5.034-12.7,8.83a64.76,64.76,0,0,1-18.4,4.042Zm-2.221-19.5,2.64,18.553a63.558,63.558,0,0,0,17.706-3.933c8.066-3.223,11.388-7.283,12.107-8.248l-8.785-14.3a47.282,47.282,0,0,1-9.1,5.152C126.092,274.313,120.648,274.094,118.9,273.949Z" transform="translate(-109.746 -116.022)"/><path class="k" d="M153.392,280.378s-2.995,4.87-12.49,8.657l-6.072-18.207a47.082,47.082,0,0,0,9.395-5.4Z" transform="translate(-111.266 -116.07)"/><path class="e" d="M302.59,165.618s2.221,1.111,4.433-2.658,4.142-14.092-.728-14.975c-6.582-3.2-8.8,1.447-8.8,1.447l-4-14.411s-1.1-13.309-9.531-12.2-13.309,10.423-13.309,10.423l-22.84.91-.665,12.863s-3.769-2.658-4.879.665-1.111,14.42,8.193,17.961c0,0,3.641,16.523,14.8,25.562l5.462.319-1.211,12.936a21.848,21.848,0,0,0,12.863,11.306c9.322,2.886,17.934-15.257,17.934-15.257S300.532,178.026,302.59,165.618Z" transform="translate(-120.855 -103.277)"/><path class="a" d="M255.81,136.2a38.856,38.856,0,0,0,13.218,5.353,18.035,18.035,0,0,0,13.655-2.831,35.419,35.419,0,0,0,.91,9.413,11.3,11.3,0,0,0,5.371,7.164c.291,3.641.637,7.283.91,11,.246,3.086.382,7.082-.837,9.932a19.819,19.819,0,0,1-6.509,8.539c-3,2.23-5.462,3.05-9.868,5.944-.319.209-.164.965.1.692a21.847,21.847,0,0,0,11.6-4.606s7.528,14.647,7.729,25.835L301.6,200.5s-.564-25.863,2.685-35.03c0,0,4.679.173,5.9-8.566s-4.069-9.559-4.069-9.559-18.1-26.645-22.567-24.206S255.81,136.2,255.81,136.2Z" transform="translate(-122.114 -103.297)"/><path class="l" d="M255.81,136.2a38.856,38.856,0,0,0,13.218,5.353,18.035,18.035,0,0,0,13.655-2.831,35.419,35.419,0,0,0,.91,9.413,11.3,11.3,0,0,0,5.371,7.164c.291,3.641.637,7.283.91,11,.246,3.086.382,7.082-.837,9.932a19.819,19.819,0,0,1-6.509,8.539c-3,2.23-5.462,3.05-9.868,5.944-.319.209-.164.965.1.692a21.847,21.847,0,0,0,11.6-4.606s7.528,14.647,7.729,25.835L301.6,200.5s-.564-25.863,2.685-35.03c0,0,4.679.173,5.9-8.566s-4.069-9.559-4.069-9.559-18.1-26.645-22.567-24.206S255.81,136.2,255.81,136.2Z" transform="translate(-122.114 -103.297)"/><path class="c" d="M249.682,167.34h-.109c-4.251-.992-7.183-4.2-8.193-9.04-.965-4.433-.1-9.267,1.247-10.314a2.012,2.012,0,0,1,1.648-.4c2.03.346,4.024,3.4,4.106,3.523a.457.457,0,0,1-.765.5c-.51-.792-2.139-2.895-3.5-3.132a1.156,1.156,0,0,0-.91.228c-.91.692-1.875,5.034-.91,9.4.692,3.168,2.558,7.183,7.556,8.348a.455.455,0,0,1,.337.546.446.446,0,0,1-.51.337Z" transform="translate(-120.783 -105.5)"/><path class="e" d="M315.407,225.089a.6.6,0,0,1,0,.082,60.755,60.755,0,0,1-6.6,7.4h0c-.364.355-.746.7-1.12,1.038a78.225,78.225,0,0,1-16.668,11.743l-.137.082-4.033-24.251h0a56.258,56.258,0,0,0,15.175-12.8l.291-.31c.628-.692,1.7-1.675,2.03-2.185,1.111-1.721.91-.983.91-.983l-.728-3.45-.382-1.757.41.191C315.434,207.784,315.653,223.687,315.407,225.089Z" transform="translate(-124.897 -110.176)"/><path class="c" d="M290.818,245.9a.418.418,0,0,1-.2-.055.437.437,0,0,1-.246-.328l-4.042-24.251a.492.492,0,0,1,.127-.391.791.791,0,0,1,.228-.137,93.116,93.116,0,0,0,14.42-12.071l1.02-1.092a46.765,46.765,0,0,0,3.787-4.351.457.457,0,0,1,.746.528,48.153,48.153,0,0,1-3.869,4.442l-1.02,1.092a94.673,94.673,0,0,1-14.483,12.144l3.869,23.277a145.265,145.265,0,0,0,16.177-11.434c.382-.309.756-.637,1.12-.956,3.268-2.858,5.462-5.325,6.482-7.355.373-1.493-1.074-16.632-10.323-24.579a.455.455,0,1,1,.592-.692c9.722,8.32,11.015,23.842,10.605,25.489v.118c-1.12,2.194-3.368,4.761-6.718,7.692-.364.328-.756.655-1.138.974a147.689,147.689,0,0,1-16.723,11.78.8.8,0,0,1-.164.091A.419.419,0,0,1,290.818,245.9Z" transform="translate(-124.85 -110.165)"/><path class="e" d="M284.63,221.541l-10.715,24.288s-11.288-15.112-11.616-27.683c1.639-6.782,3.4-10.56,10.405-14.665l-.792,4.888S273.206,219.921,284.63,221.541Z" transform="translate(-122.696 -110.515)"/><path class="c" d="M273.871,246.237a.446.446,0,0,1-.373-.2c-.1-.146-10.442-15.376-11.689-27.893a.3.3,0,0,1,0-.127c2.312-12.49,10.077-14.565,10.405-14.638a.464.464,0,0,1,.555.337.446.446,0,0,1-.328.546c-.082,0-7.51,2.039-9.722,13.855,1.1,10.778,9.1,23.669,11.079,26.718l10.223-23.141a54.3,54.3,0,0,1-13.309-14.629.455.455,0,0,1,.146-.628.464.464,0,0,1,.628.146,52.444,52.444,0,0,0,13.355,14.565.464.464,0,0,1,.164.564L274.29,245.955a.455.455,0,0,1-.373.273Z" transform="translate(-122.651 -110.505)"/><path class="m" d="M316.854,224.989v.091c-1.174,2.294-3.641,4.916-6.582,7.483v-.073h0C308.889,220.5,302.99,209,302.99,209l3.532-4.1-.464-5.107C315.543,208.557,317.1,223.587,316.854,224.989Z" transform="translate(-126.344 -110.185)"/><path class="c" d="M272.955,208.067h-.127a.455.455,0,0,1-.319-.555,26.117,26.117,0,0,0,.555-9.213.454.454,0,0,1,.9-.118,26.644,26.644,0,0,1-.574,9.568.455.455,0,0,1-.437.319Z" transform="translate(-123.61 -110.004)"/><path class="c" d="M306.476,203.142a.455.455,0,0,1-.455-.428c-1.01-21,2.276-33.109,2.312-33.227a.473.473,0,0,1,.564-.319.455.455,0,0,1,.31.564c0,.118-3.277,12.1-2.285,32.936a.446.446,0,0,1-.428.473Z" transform="translate(-126.599 -107.437)"/><path class="c" d="M268.267,170.807a7.173,7.173,0,0,1-1.629-.228c-1.5-.355-3.3-.965-3.924-2.585a4.151,4.151,0,0,1,.81-3.814c.319-.446.674-.856,1.02-1.256a11.085,11.085,0,0,0,1.211-1.538c1.447-2.349,1.038-5.335.446-8.439a.464.464,0,0,1,.364-.537.455.455,0,0,1,.528.364c.6,3.159,1.056,6.463-.564,9.1a12.481,12.481,0,0,1-1.293,1.666,14.23,14.23,0,0,0-.974,1.183,3.441,3.441,0,0,0-.692,2.959c.464,1.22,1.994,1.721,3.277,2.021a3.4,3.4,0,0,0,2.494-.055.456.456,0,1,1,.482.774A2.949,2.949,0,0,1,268.267,170.807Z" transform="translate(-122.718 -105.935)"/><path class="c" d="M262.02,154.453c.082,1.7-.6,3.113-1.52,3.15s-1.721-1.3-1.821-3,.6-3.113,1.52-3.159S261.947,152.751,262.02,154.453Z" transform="translate(-122.37 -105.848)"/><path class="c" d="M282.58,153.963c.082,1.7-.6,3.113-1.52,3.15s-1.721-1.3-1.821-3,.6-3.113,1.52-3.159S282.507,152.261,282.58,153.963Z" transform="translate(-124.214 -105.805)"/><path class="c" d="M273.03,179.438a11.2,11.2,0,0,1-4.879-1,.455.455,0,0,1-.118-.637.446.446,0,0,1,.628-.118,11.588,11.588,0,0,0,6.6.628,9.531,9.531,0,0,0,6.2-4.37.473.473,0,0,1,.637-.137.464.464,0,0,1,.127.637,10.369,10.369,0,0,1-6.809,4.761A11.57,11.57,0,0,1,273.03,179.438Z" transform="translate(-123.202 -107.848)"/><path class="c" d="M273.845,143.953a.464.464,0,0,1-.364-.182.455.455,0,0,1,.091-.637c3.978-2.922,6.7-3.031,10.8-.446a.464.464,0,0,1,.146.628.455.455,0,0,1-.628.137c-3.8-2.394-6.081-2.294-9.768.41A.446.446,0,0,1,273.845,143.953Z" transform="translate(-123.69 -104.898)"/><path class="c" d="M255.444,145.763a.473.473,0,0,1-.3-.109.446.446,0,0,1-.055-.637,6.491,6.491,0,0,1,8.393-1.111.464.464,0,0,1,.109.637.455.455,0,0,1-.628.109,5.553,5.553,0,0,0-7.173.91A.446.446,0,0,1,255.444,145.763Z" transform="translate(-122.039 -105.078)"/><path class="c" d="M268.565,193.163a19.3,19.3,0,0,1-2.786-.164.455.455,0,0,1-.209-.082c-.246-.2-6.145-4.807-10.86-14.374-8.029-16.268-6.491-39.782-6.472-40.055a.456.456,0,1,1,.91.064c0,.237-1.538,23.5,6.372,39.554a43.6,43.6,0,0,0,10.514,13.974,28.13,28.13,0,0,0,9.495-.71c5.89-1.429,11.47-6.045,15.13-9.659a.446.446,0,0,1,.637,0,.437.437,0,0,1,0,.637c-3.732,3.7-9.458,8.411-15.549,9.9a30.853,30.853,0,0,1-7.183.91Z" transform="translate(-121.423 -104.649)"/><path class="c" d="M295.155,185.5a.491.491,0,0,1-.228-.055.464.464,0,0,1-.173-.619c4.506-8.075,5.462-13.236,5.508-13.282a.462.462,0,0,1,.91.164c-.046.209-1.029,5.344-5.617,13.555A.446.446,0,0,1,295.155,185.5Z" transform="translate(-125.601 -107.617)"/><path class="c" d="M307.926,168.347a3.837,3.837,0,0,1-3.514-1.639.456.456,0,1,1,.8-.437c0,.073,1.065,1.775,4.47.91,2.112-.528,4.6-6.309,4.67-10.86,0-1.748-.3-4.8-2.731-5.462-5.644-1.593-8.612,6.709-8.639,6.791a.464.464,0,0,1-.583.282.455.455,0,0,1-.273-.583c0-.091,3.277-9.185,9.741-7.374,2.258.637,3.477,2.9,3.432,6.372-.073,4.688-2.558,11.024-5.362,11.725a7.939,7.939,0,0,1-2.012.273Z" transform="translate(-126.264 -105.696)"/><path class="c" d="M298.391,151.429c-.692,1.466-3.386.173-4.379-1.111a3.8,3.8,0,0,1,0-4.552c-2.1-.61-4.47-1.557-5.38-3.55a6.7,6.7,0,0,1-.391-3.177c.191-2.922.91-5.835.61-8.748s-2.1-5.963-4.989-6.5c0,0-10.014,17.924-28.9,10.687,0,0-8.421,4.024-12.253-2.868s1.338-14.174,12.062-18.771c0,0-6.7-.191-6.509-3.641s16.45-4.406,27.947-1.884c0,0-1.356-6.036,12.817-4.315s18.762,5.717,20.5,15.612c10.387,5.662-1.284,29-1.284,29S302.752,142.117,298.391,151.429Z" transform="translate(-120.826 -101.477)"/><path class="c" d="M246.978,134.82a14.775,14.775,0,0,0-1.065,12.362l2.922,4.552-.455-15.476Z" transform="translate(-121.147 -104.358)"/><path class="c" d="M314.712,120.331a.364.364,0,0,1-.137,0,.455.455,0,0,1-.291-.574c3.86-11.834-4.379-17.3-4.734-17.56a.464.464,0,0,1-.127-.637.455.455,0,0,1,.628-.127c.091.055,9.176,6.136,5.1,18.607A.455.455,0,0,1,314.712,120.331Z" transform="translate(-126.914 -101.358)"/><path class="e" d="M251.98,131.014a12.18,12.18,0,0,1-7.592-2.4.455.455,0,1,1,.555-.71c2.822,2.2,7.073,2.795,11.388,1.584,3.732-1.056,7.119-3.213,10.387-5.3l.437-.282c3.641-2.321,7.283-4.479,11.252-5.344a18.762,18.762,0,0,1,14.256,2.731c2.03,1.347,3.1,2.858,3.177,4.479a.455.455,0,0,1-.437.473.428.428,0,0,1-.473-.428c-.064-1.32-.992-2.585-2.731-3.769a18.1,18.1,0,0,0-13.564-2.558c-3.86.828-7.283,2.858-10.924,5.216l-.437.282c-3.332,2.121-6.773,4.315-10.633,5.407A17.041,17.041,0,0,1,251.98,131.014Z" transform="translate(-121.069 -102.864)"/><path class="e" d="M300.562,119.834a.455.455,0,0,1-.437-.337,11.352,11.352,0,0,0-7.219-7.183c-3.141-1.12-6.928-1.265-11.579-.446-1.821.319-3.641.756-5.389,1.174-2.048.482-4.169.992-6.3,1.32-3.168.5-7.428.482-9.659-2.412a.455.455,0,1,1,.719-.555c1.957,2.54,5.872,2.531,8.8,2.066,2.085-.328,4.2-.828,6.227-1.311,1.775-.419,3.641-.856,5.462-1.174,4.816-.856,8.748-.692,12.035.482a12.244,12.244,0,0,1,7.792,7.792.455.455,0,0,1-.319.564Z" transform="translate(-122.477 -102.172)"/></g><g transform="translate(26.59 293.115)"><path class="c" d="M387.955,417.955h-308a3.132,3.132,0,0,1-3.122-3.122h0a3.122,3.122,0,0,1,3.122-3.122h308a3.122,3.122,0,0,1,3.122,3.122h0a3.132,3.132,0,0,1-3.122,3.122Z" transform="translate(-76.83 -396.799)"/><path class="e" d="M386.547,415.55H80.675a.455.455,0,1,1,0-.91H386.547a.455.455,0,0,1,0,.91Z" transform="translate(-77.134 -397.062)"/><circle class="e" cx="11.816" cy="11.816" r="11.816" transform="matrix(0.679, -0.735, 0.735, 0.679, 4.794, 17.359)"/><path class="c" d="M99.231,424.733A12.271,12.271,0,1,1,111.5,412.461,12.271,12.271,0,0,1,99.231,424.733Zm0-23.669a11.343,11.343,0,1,1,0,.036Z" transform="translate(-77.738 -395.766)"/><path class="d" d="M106.07,413.055a6.245,6.245,0,1,1-6.245-6.245A6.245,6.245,0,0,1,106.07,413.055Z" transform="translate(-78.332 -396.36)"/><path class="c" d="M99.78,419.68a6.7,6.7,0,1,1,6.7-6.7,6.7,6.7,0,0,1-6.7,6.7Zm0-12.49a5.776,5.776,0,1,1,0,.027Z" transform="translate(-78.287 -396.312)"/></g></svg>