<svg xmlns="http://www.w3.org/2000/svg" xmlns:xlink="http://www.w3.org/1999/xlink" width="616.875" height="559.26" viewBox="0 0 616.875 559.26"><defs><style>.a,.b,.d,.f,.g,.i,.m{fill:#fff;}.a,.aa,.ah,.ai,.b,.m,.p,.q,.t,.v{stroke:#263238;}.a,.aa,.af,.ah,.ai,.b,.p,.q,.t,.v{stroke-linecap:round;}.a,.p{stroke-miterlimit:10;}.aa,.af,.ah,.ai,.b,.q,.t,.v{stroke-linejoin:round;}.c{fill:#8167f2;}.d{opacity:0.5;}.e{fill:#64b4d2;}.f{opacity:0.7;}.ah,.h{fill:#8d3ddc;}.i{opacity:0.46;}.j{fill:#a7205f;}.k,.v{fill:#48acf0;}.k,.l{opacity:0.25;}.m{opacity:0.32;}.n{clip-path:url(#a);}.o{opacity:0.1;}.aa,.af,.ai,.p,.q{fill:none;}.r{clip-path:url(#b);}.s{clip-path:url(#c);}.t,.u{fill:#263238;}.w{clip-path:url(#d);}.x{clip-path:url(#e);}.y{clip-path:url(#f);}.z{clip-path:url(#g);}.aa{stroke-width:0.5px;}.ab{clip-path:url(#h);}.ac{clip-path:url(#i);}.ad{clip-path:url(#j);}.ae{clip-path:url(#k);}.af{stroke:#fff;}.ag{clip-path:url(#l);}.ai{stroke-width:2px;}</style><clipPath id="a"><path class="a" d="M145.43,421.208s62.423,2.773,112.528-4.379l-1.606-24.409L151.021,382.36Z" transform="translate(-145.43 -382.36)"/></clipPath><clipPath id="b"><path class="b" d="M258.4,386.369s-83.059,36.666-112.952,46.62l5.591-38.893,83.786-34.666Z" transform="translate(-145.45 -359.43)"/></clipPath><clipPath id="c"><path class="b" d="M171.907,392.452l80.422-3.364-16-34.939-79.15.424Z" transform="translate(-157.18 -354.15)"/></clipPath><clipPath id="d"><path class="b" d="M263.52,179.572s9.379,13.015,10.288,16.666,1.818,21.212,2.727,18.181S295,180.512,295.307,179s-5.151-11.2-5.151-11.2-12.121,8.773-17.848,10.288A38.83,38.83,0,0,1,263.52,179.572Z" transform="translate(-263.52 -167.8)"/></clipPath><clipPath id="e"><path class="b" d="M278.08,155.339s1.515-7.863,4.833-7.257,3.03,6.651,1.212,10.894a40.689,40.689,0,0,1-2.424,5.136Z" transform="translate(-278.08 -148.048)"/></clipPath><clipPath id="f"><path class="b" d="M253.472,161.185s-4.833-4.545-5.742,1.818,9.379,7.576,9.379,7.576Z" transform="translate(-247.672 -159.612)"/></clipPath><clipPath id="g"><path class="b" d="M247.328,155.8s13.318,36.636,18.181,42.09,17.848,8.47,28.454.3,7.257-17.257,4.833-24.53-12.409-32.393-13.924-35.711-8.773-5.151-12.409-2.424-2.121,6.06-8.167,7.576-13.318-.909-16.666,3.636A8.151,8.151,0,0,0,247.328,155.8Z" transform="translate(-246.099 -134.208)"/></clipPath><clipPath id="h"><path class="b" d="M272.95,219.1s-4.212,47.15-21.469,94.316-94.3,110.725-94.3,110.725l14.727,37.878s55.15-41.666,81.256-103.134,26.954-138.512,26.954-138.512Z" transform="translate(-157.18 -219.1)"/></clipPath><clipPath id="i"><path class="b" d="M243.14,167.06s0-7.863,1.818-9.379,10.606-5.757,12.409-4.848.3,2.121-.909,3.03-6.894,4.682-6.894,4.682l.848,8.636Z" transform="translate(-243.14 -152.707)"/></clipPath><clipPath id="j"><path class="b" d="M252.15,173.137s4.545,0,5.439-1.2,6.364-7.576,6.667-8.788,0-2.424-3.333-1.212a7.091,7.091,0,0,0-4.242,4.242l-4.227.3Z" transform="translate(-252.15 -161.439)"/></clipPath><clipPath id="k"><path class="b" d="M238.94,190.937s3.333-17.257,3.939-21.787,0-6.667,2.424-6.97a78.441,78.441,0,0,1,12.121.909c2.121.3,4.242.3,3.636,3.636s1.212,10.606-.909,12.712a8.576,8.576,0,0,1-5.454,2.121s1.212,3.03-2.409,4.848a30.073,30.073,0,0,1-4.848,2.121l-1.818,4.833Z" transform="translate(-238.94 -162.18)"/></clipPath><clipPath id="l"><path class="b" d="M260.537,226.793a50.228,50.228,0,0,1-9.7-8.166c-3.924-4.545-6.348-4.545-11.8-4.848s-11.2-5.136-12.712-4.833-1.818,3.03-.3,4.545,9.091,5.454,9.091,5.454l-16.333,6.363a7.7,7.7,0,0,0,3.03,2.106c2.121.909,4.242,0,5.151.909s6.363,2.727,9.682,3.939,14.227-.606,14.227-.606l7.273,4.848Z" transform="translate(-218.78 -208.931)"/></clipPath></defs><g transform="translate(-47.594 -56.08)"><g transform="translate(47.594 96.764)"><path class="c" d="M613.015,168.109S574.2,95.156,488.472,84.368,342.9,126.231,279.825,153.246c-33.03,14.151-70.771,8.651-105.831,15.5C61.845,190.608,19.619,327.8,66.391,405.755c40.423,67.529,111.6,102.649,219.965,110.755s184.329,17.606,281.373-48.635S658.3,264,613.015,168.109Z" transform="translate(-47.594 -82.932)"/><path class="d" d="M613.015,168.109S574.2,95.156,488.472,84.368,342.9,126.231,279.825,153.246c-33.03,14.151-70.771,8.651-105.831,15.5C61.845,190.608,19.619,327.8,66.391,405.755c40.423,67.529,111.6,102.649,219.965,110.755s184.329,17.606,281.373-48.635S658.3,264,613.015,168.109Z" transform="translate(-47.594 -82.932)"/></g><g transform="translate(102.875 56.08)"><path class="e" d="M105.806,102.837,102.73,78.852l5.545,20.287V64.7l3.682,26.454,3.7-17.848V90.534L117.5,56.08l1.833,35.075,6.773-15.394-3.076,19.075,7.379-8-10.454,19.075Z" transform="translate(-74.473 -56.08)"/><path class="f" d="M105.806,102.837,102.73,78.852l5.545,20.287V64.7l3.682,26.454,3.7-17.848V90.534L117.5,56.08l1.833,35.075,6.773-15.394-3.076,19.075,7.379-8-10.454,19.075Z" transform="translate(-74.473 -56.08)"/><path class="c" d="M125.535,114.555H105.021L102.46,83.51H128.1Z" transform="translate(-74.612 -41.95)"/><path class="c" d="M171.867,84l13.363,30.984H165.792l-6.682-12.757Z" transform="translate(-45.431 -41.698)"/><path class="c" d="M191.43,70.77H156.794L136.31,122.42h34.62Z" transform="translate(-57.175 -48.513)"/><path class="g" d="M181.873,75.18H156.207l-15.2,38.272h25.681Z" transform="translate(-54.754 -46.241)"/><rect class="h" width="492.747" height="394.946" transform="translate(11.727 82.907)"/><rect class="i" width="492.747" height="394.946" transform="translate(11.727 82.907)"/><rect class="h" width="22.954" height="69.801" transform="translate(25.484 90.089)"/><rect class="g" width="19.863" height="4.288" transform="translate(26.984 94.195)"/><rect class="g" width="19.863" height="4.288" transform="translate(26.984 150.163)"/><rect class="h" width="22.954" height="69.801" transform="translate(49.908 90.089)"/><rect class="g" width="19.863" height="4.288" transform="translate(51.408 94.195)"/><rect class="g" width="19.863" height="4.288" transform="translate(51.408 150.163)"/><rect class="h" width="22.954" height="69.801" transform="translate(74.332 90.089)"/><rect class="g" width="19.863" height="4.288" transform="translate(75.832 94.195)"/><rect class="g" width="19.863" height="4.288" transform="translate(75.832 150.163)"/><rect class="h" width="22.954" height="69.801" transform="translate(98.755 90.089)"/><rect class="g" width="19.863" height="4.288" transform="translate(100.255 94.195)"/><rect class="g" width="19.863" height="4.288" transform="translate(100.255 150.163)"/><rect class="h" width="22.954" height="69.801" transform="translate(123.164 90.089)"/><rect class="g" width="19.863" height="4.288" transform="translate(124.664 94.195)"/><rect class="g" width="19.863" height="4.288" transform="translate(124.664 150.163)"/><rect class="h" width="22.954" height="69.801" transform="translate(147.588 90.089)"/><rect class="g" width="19.863" height="4.288" transform="translate(149.088 94.195)"/><rect class="g" width="19.863" height="4.288" transform="translate(149.088 150.163)"/><rect class="h" width="22.954" height="69.801" transform="translate(156.89 163.466)"/><rect class="g" width="19.863" height="4.288" transform="translate(158.39 167.557)"/><rect class="g" width="19.863" height="4.288" transform="translate(158.39 223.54)"/><rect class="h" width="22.954" height="69.801" transform="translate(181.299 163.466)"/><rect class="g" width="19.863" height="4.288" transform="translate(182.814 167.557)"/><rect class="g" width="19.863" height="4.288" transform="translate(182.814 223.54)"/><rect class="h" width="22.954" height="69.801" transform="translate(205.723 163.466)"/><rect class="g" width="19.863" height="4.288" transform="translate(207.223 167.557)"/><rect class="g" width="19.863" height="4.288" transform="translate(207.223 223.54)"/><rect class="h" width="22.954" height="69.801" transform="translate(230.146 163.466)"/><rect class="g" width="19.863" height="4.288" transform="translate(231.646 167.557)"/><rect class="g" width="19.863" height="4.288" transform="translate(231.646 223.54)"/><rect class="h" width="22.954" height="69.801" transform="translate(254.57 163.466)"/><rect class="g" width="19.863" height="4.288" transform="translate(256.07 167.557)"/><rect class="g" width="19.863" height="4.288" transform="translate(256.07 223.54)"/><rect class="j" width="22.954" height="69.801" transform="translate(278.979 163.466)"/><rect class="g" width="19.863" height="4.288" transform="translate(280.494 167.557)"/><rect class="g" width="19.863" height="4.288" transform="translate(280.494 223.54)"/><rect class="h" width="22.954" height="69.801" transform="translate(333.114 163.466)"/><rect class="g" width="19.863" height="4.288" transform="translate(334.614 167.557)"/><rect class="g" width="19.863" height="4.288" transform="translate(334.614 223.54)"/><rect class="h" width="22.954" height="69.801" transform="translate(357.537 163.466)"/><rect class="g" width="19.863" height="4.288" transform="translate(359.037 167.557)"/><rect class="g" width="19.863" height="4.288" transform="translate(359.037 223.54)"/><rect class="h" width="22.954" height="69.801" transform="translate(381.946 163.466)"/><rect class="g" width="19.863" height="4.288" transform="translate(383.446 167.557)"/><rect class="g" width="19.863" height="4.288" transform="translate(383.446 223.54)"/><rect class="h" width="22.954" height="69.801" transform="translate(406.37 163.466)"/><rect class="g" width="19.863" height="4.288" transform="translate(407.87 167.557)"/><rect class="g" width="19.863" height="4.288" transform="translate(407.87 223.54)"/><rect class="h" width="22.954" height="69.801" transform="translate(430.793 163.466)"/><rect class="g" width="19.863" height="4.288" transform="translate(432.293 167.557)"/><rect class="g" width="19.863" height="4.288" transform="translate(432.293 223.54)"/><path class="h" d="M406.152,238.863l-21.712-6.909,24.272-66.044,21.727,6.924Z" transform="translate(70.641 0.495)"/><path class="g" d="M418.257,178.815l-18.787-5.985,1.5-4.061,18.787,5.985Z" transform="translate(78.383 1.969)"/><path class="g" d="M405.407,213.76l-18.787-5.985,1.5-4.045,18.788,5.985Z" transform="translate(71.764 19.977)"/><path class="h" d="M355.517,378.993l-21.727-6.924,24.272-66.029,21.727,6.909Z" transform="translate(44.55 72.679)"/><path class="g" d="M367.607,318.93l-18.787-5.985,1.5-4.045,18.787,5.97Z" transform="translate(52.292 74.152)"/><path class="g" d="M354.757,353.9l-18.787-5.985,1.5-4.061,18.787,5.985Z" transform="translate(45.673 92.155)"/><rect class="h" width="22.954" height="69.801" transform="translate(172.011 90.089)"/><rect class="g" width="19.863" height="4.288" transform="translate(173.511 94.195)"/><rect class="g" width="19.863" height="4.288" transform="translate(173.511 150.163)"/><rect class="h" width="22.954" height="69.801" transform="translate(23.166 238.267)"/><rect class="g" width="19.863" height="4.288" transform="translate(24.666 242.373)"/><rect class="g" width="19.863" height="4.288" transform="translate(24.666 298.342)"/><rect class="h" width="22.954" height="69.801" transform="translate(47.59 238.267)"/><rect class="g" width="19.863" height="4.288" transform="translate(49.09 242.373)"/><rect class="g" width="19.863" height="4.288" transform="translate(49.09 298.342)"/><rect class="h" width="22.954" height="69.801" transform="translate(72.014 238.267)"/><rect class="g" width="19.863" height="4.288" transform="translate(73.514 242.373)"/><rect class="g" width="19.863" height="4.288" transform="translate(73.514 298.342)"/><rect class="h" width="22.954" height="69.801" transform="translate(96.437 238.267)"/><rect class="g" width="19.863" height="4.288" transform="translate(97.937 242.373)"/><rect class="g" width="19.863" height="4.288" transform="translate(97.937 298.342)"/><rect class="h" width="22.954" height="69.801" transform="translate(120.846 238.267)"/><rect class="g" width="19.863" height="4.288" transform="translate(122.346 242.373)"/><rect class="g" width="19.863" height="4.288" transform="translate(122.346 298.342)"/><rect class="h" width="22.954" height="69.801" transform="translate(98.149 383.567)"/><rect class="g" width="19.863" height="4.288" transform="translate(99.649 387.673)"/><rect class="g" width="19.863" height="4.288" transform="translate(99.649 443.657)"/><rect class="h" width="22.954" height="69.801" transform="translate(122.558 383.567)"/><rect class="g" width="19.863" height="4.288" transform="translate(124.058 387.673)"/><rect class="g" width="19.863" height="4.288" transform="translate(124.058 443.657)"/><rect class="h" width="22.954" height="69.801" transform="translate(146.982 383.567)"/><rect class="g" width="19.863" height="4.288" transform="translate(148.482 387.673)"/><rect class="g" width="19.863" height="4.288" transform="translate(148.482 443.657)"/><rect class="h" width="22.954" height="69.801" transform="translate(171.405 383.567)"/><rect class="g" width="19.863" height="4.288" transform="translate(172.905 387.673)"/><rect class="g" width="19.863" height="4.288" transform="translate(172.905 443.657)"/><rect class="h" width="22.954" height="69.801" transform="translate(195.829 383.567)"/><rect class="g" width="19.863" height="4.288" transform="translate(197.329 387.673)"/><rect class="g" width="19.863" height="4.288" transform="translate(197.329 443.657)"/><rect class="h" width="22.954" height="69.801" transform="translate(145.269 238.267)"/><rect class="g" width="19.863" height="4.288" transform="translate(146.769 242.373)"/><rect class="g" width="19.863" height="4.288" transform="translate(146.769 298.342)"/><rect class="h" width="22.954" height="69.801" transform="translate(169.693 238.267)"/><rect class="g" width="19.863" height="4.288" transform="translate(171.193 242.373)"/><rect class="g" width="19.863" height="4.288" transform="translate(171.193 298.342)"/><rect class="h" width="22.954" height="69.801" transform="translate(193.89 238.267)"/><rect class="g" width="19.863" height="4.288" transform="translate(195.39 242.373)"/><rect class="g" width="19.863" height="4.288" transform="translate(195.39 298.342)"/><rect class="h" width="22.954" height="69.801" transform="translate(218.086 238.267)"/><rect class="g" width="19.863" height="4.288" transform="translate(219.586 242.373)"/><rect class="g" width="19.863" height="4.288" transform="translate(219.586 298.342)"/><path class="j" d="M300.539,279.137l-21.984,6.136L257.01,218.426l21.984-6.136Z" transform="translate(4.999 24.387)"/><path class="g" d="M279.138,219.266l-19.03,5.318-1.318-4.106L277.8,215.16Z" transform="translate(5.916 25.865)"/><path class="g" d="M290.533,254.656l-19.015,5.3-1.318-4.106,19.015-5.3Z" transform="translate(11.794 44.095)"/><rect class="h" width="22.954" height="69.801" transform="translate(242.282 238.267)"/><rect class="g" width="19.863" height="4.288" transform="translate(243.782 242.373)"/><rect class="g" width="19.863" height="4.288" transform="translate(243.782 298.342)"/><rect class="h" width="22.954" height="69.801" transform="translate(95.831 310.917)"/><rect class="g" width="19.863" height="4.288" transform="translate(97.331 315.023)"/><rect class="g" width="19.863" height="4.288" transform="translate(97.331 370.992)"/><rect class="h" width="22.954" height="69.801" transform="translate(120.24 310.917)"/><rect class="g" width="19.863" height="4.288" transform="translate(121.74 315.023)"/><rect class="g" width="19.863" height="4.288" transform="translate(121.74 370.992)"/><rect class="h" width="22.954" height="69.801" transform="translate(144.663 310.917)"/><rect class="g" width="19.863" height="4.288" transform="translate(146.163 315.023)"/><rect class="g" width="19.863" height="4.288" transform="translate(146.163 370.992)"/><rect class="h" width="22.954" height="69.801" transform="translate(169.087 310.917)"/><rect class="g" width="19.863" height="4.288" transform="translate(170.587 315.023)"/><rect class="g" width="19.863" height="4.288" transform="translate(170.587 370.992)"/><rect class="h" width="22.954" height="69.801" transform="translate(193.511 310.917)"/><rect class="g" width="19.863" height="4.288" transform="translate(195.011 315.023)"/><rect class="g" width="19.863" height="4.288" transform="translate(195.011 370.992)"/><rect class="h" width="22.954" height="69.801" transform="translate(217.919 310.917)"/><rect class="g" width="19.863" height="4.288" transform="translate(219.419 315.023)"/><rect class="g" width="19.863" height="4.288" transform="translate(219.419 370.992)"/><rect class="j" width="22.954" height="69.801" transform="translate(242.343 310.917)"/><rect class="g" width="19.863" height="4.288" transform="translate(243.843 315.023)"/><rect class="g" width="19.863" height="4.288" transform="translate(243.843 370.992)"/><rect class="h" width="22.954" height="69.801" transform="translate(327.705 310.917)"/><rect class="g" width="19.863" height="4.288" transform="translate(329.205 315.023)"/><rect class="g" width="19.863" height="4.288" transform="translate(329.205 370.992)"/><rect class="h" width="22.954" height="69.801" transform="translate(352.113 310.917)"/><rect class="g" width="19.863" height="4.288" transform="translate(353.628 315.023)"/><rect class="g" width="19.863" height="4.288" transform="translate(353.628 370.992)"/><rect class="h" width="22.954" height="69.801" transform="translate(376.537 310.917)"/><rect class="g" width="19.863" height="4.288" transform="translate(378.037 315.023)"/><rect class="g" width="19.863" height="4.288" transform="translate(378.037 370.992)"/><rect class="h" width="22.954" height="69.801" transform="translate(400.961 310.917)"/><rect class="g" width="19.863" height="4.288" transform="translate(402.461 315.023)"/><rect class="g" width="19.863" height="4.288" transform="translate(402.461 370.992)"/><rect class="h" width="22.954" height="69.801" transform="translate(425.384 310.917)"/><rect class="g" width="19.863" height="4.288" transform="translate(426.884 315.023)"/><rect class="g" width="19.863" height="4.288" transform="translate(426.884 370.992)"/><rect class="h" width="22.954" height="69.801" transform="translate(449.793 310.917)"/><rect class="g" width="19.863" height="4.288" transform="translate(451.308 315.023)"/><rect class="g" width="19.863" height="4.288" transform="translate(451.308 370.992)"/><rect class="h" width="22.954" height="69.801" transform="translate(474.217 310.917)"/><rect class="g" width="19.863" height="4.288" transform="translate(475.717 315.023)"/><rect class="g" width="19.863" height="4.288" transform="translate(475.717 370.992)"/><rect class="h" width="22.954" height="69.801" transform="translate(207.829 90.089)"/><rect class="g" width="19.863" height="4.288" transform="translate(209.329 94.195)"/><rect class="g" width="19.863" height="4.288" transform="translate(209.329 150.163)"/><rect class="h" width="22.954" height="69.801" transform="translate(233.874 90.089)"/><rect class="g" width="19.863" height="4.288" transform="translate(235.373 94.195)"/><rect class="g" width="19.863" height="4.288" transform="translate(235.373 150.163)"/><rect class="j" width="22.954" height="69.801" transform="translate(259.918 90.089)"/><rect class="g" width="19.863" height="4.288" transform="translate(261.418 94.195)"/><rect class="g" width="19.863" height="4.288" transform="translate(261.418 150.163)"/><rect class="h" width="22.954" height="69.801" transform="translate(285.963 90.089)"/><rect class="g" width="19.863" height="4.288" transform="translate(287.463 94.195)"/><rect class="g" width="19.863" height="4.288" transform="translate(287.463 150.163)"/><path class="h" d="M177.158,231.972l-9.257,2.3L148.78,167.913l9.257-2.3Z" transform="translate(-50.752 0.341)"/><path class="g" d="M159.1,172.366l-8,1.985-1.167-4.076,8-1.985Z" transform="translate(-50.16 1.721)"/><path class="g" d="M169.216,207.486l-8,2-1.167-4.076,7.985-2Z" transform="translate(-44.947 19.812)"/><rect class="h" width="9.576" height="68.711" transform="translate(125.346 165.936)"/><rect class="g" width="8.288" height="4.212" transform="translate(125.967 169.966)"/><rect class="g" width="8.288" height="4.212" transform="translate(125.967 225.071)"/><rect class="h" width="9.576" height="68.711" transform="translate(135.648 165.936)"/><rect class="g" width="8.288" height="4.212" transform="translate(136.27 169.966)"/><rect class="g" width="8.288" height="4.212" transform="translate(136.27 225.071)"/><path class="g" d="M102.16,194.63a26.333,26.333,0,0,1,0,19.984h66.5s8.212-2.121,8.212-9.985a14.439,14.439,0,0,0-8-9.788Z" transform="translate(-74.767 15.29)"/><path class="k" d="M171.7,196.3c-2.894-1.667-5.545-1.515-8.879-1.515H140.156l-31.817-.106c-.515,0-5.682.455-5.909,0a20.544,20.544,0,0,1,1.3,4.091h66.408v15.181a10.439,10.439,0,0,0,6.606-9.348,8.712,8.712,0,0,0-4.409-7.924Z" transform="translate(-74.628 15.315)"/><path class="h" d="M167.777,218.108h-66.8a2.136,2.136,0,0,1,0-4.257h66.8a8.2,8.2,0,1,0,0-16.378h-66.2a2.121,2.121,0,1,1,0-4.242h66.2a12.439,12.439,0,1,1,0,24.878Z" transform="translate(-76.385 14.568)"/><path class="g" d="M174.76,178.38a26.348,26.348,0,0,0,0,19.984h-66.5s-8.212-2.121-8.212-9.985a14.439,14.439,0,0,1,8-9.788Z" transform="translate(-75.854 6.919)"/><path class="l" d="M105.083,180.046c2.894-1.667,5.545-1.515,8.879-1.515h22.666l31.817-.091c.515,0,5.682.455,5.909,0a21.044,21.044,0,0,0-1.318,4.106H106.658v15.242a10.439,10.439,0,0,1-6.606-9.348,8.712,8.712,0,0,1,4.409-7.924Z" transform="translate(-75.856 6.95)"/><path class="h" d="M111.349,201.858h66.8a2.136,2.136,0,0,0,0-4.257h-66.8a8.182,8.182,0,0,1,0-16.363h66.2a2.136,2.136,0,0,0,0-4.257h-66.2a12.439,12.439,0,1,0,0,24.878Z" transform="translate(-76.441 6.198)"/><path class="g" d="M362.84,243.53a26.348,26.348,0,0,1,0,19.984h66.5s8.212-2.121,8.212-9.985a14.439,14.439,0,0,0-8-9.788Z" transform="translate(59.514 40.479)"/><path class="l" d="M432.381,245.2c-2.894-1.667-5.545-1.515-8.879-1.515H400.836l-31.817-.091c-.515,0-5.682.439-5.909,0a20.543,20.543,0,0,1,1.3,4.091h66.408v15.166a10.439,10.439,0,0,0,6.606-9.348,8.712,8.712,0,0,0-4.409-7.924Z" transform="translate(59.653 40.51)"/><path class="h" d="M428.452,267.008H361.665a2.136,2.136,0,0,1,0-4.257h66.8a8.182,8.182,0,0,0,0-16.363H362.256a2.136,2.136,0,0,1,0-4.257h66.2a12.439,12.439,0,0,1,0,24.878Z" transform="translate(57.901 39.758)"/><path class="g" d="M435.38,227.28a26.348,26.348,0,0,0,0,19.984H368.942s-8.212-2.121-8.212-9.985a14.439,14.439,0,0,1,8-9.788Z" transform="translate(58.427 32.108)"/><path class="l" d="M365.762,228.946c2.894-1.667,5.545-1.515,8.879-1.515h22.666l31.817-.091c.515,0,5.682.455,5.909,0a21.038,21.038,0,0,0-1.318,4.106H367.338v15.242a10.439,10.439,0,0,1-6.606-9.348,8.712,8.712,0,0,1,4.409-7.924Z" transform="translate(58.425 32.139)"/><path class="h" d="M372.029,250.758h66.8a2.136,2.136,0,0,0,0-4.257h-66.8a8.182,8.182,0,0,1,0-16.363h66.2a2.136,2.136,0,0,0,0-4.257h-66.2a12.439,12.439,0,0,0,0,24.878Z" transform="translate(57.84 31.387)"/><path class="g" d="M361.82,337.06a26.333,26.333,0,0,1,0,19.984h66.5s8.212-2.121,8.212-9.985a14.439,14.439,0,0,0-8.015-9.788Z" transform="translate(58.989 88.658)"/><path class="l" d="M431.361,338.731c-2.894-1.667-5.545-1.515-8.879-1.515H399.816L368,337.11c-.53,0-5.682.455-5.909,0a20.105,20.105,0,0,1,1.3,4.091H429.8v15.257a10.439,10.439,0,0,0,6.606-9.348A8.712,8.712,0,0,0,432,339.186Z" transform="translate(59.128 88.683)"/><path class="h" d="M427.421,360.538H360.665a2.136,2.136,0,0,1,0-4.258h66.8a8.2,8.2,0,1,0,0-16.378H361.226a2.121,2.121,0,1,1,0-4.242h66.2a12.439,12.439,0,0,1,0,24.878Z" transform="translate(57.386 87.937)"/><path class="g" d="M434.39,320.81a26.348,26.348,0,0,0,0,19.984H367.922s-8.212-2.121-8.212-9.985a14.439,14.439,0,0,1,8.015-9.712Z" transform="translate(57.902 80.287)"/><path class="l" d="M364.7,322.476c2.894-1.667,5.545-1.515,8.879-1.515h22.651l31.817-.091c.515,0,5.682.454,5.909,0a21.089,21.089,0,0,0-1.318,4.091H366.318v15.257a10.439,10.439,0,0,1-6.606-9.348,8.712,8.712,0,0,1,4.409-7.924Z" transform="translate(57.9 80.318)"/><path class="h" d="M371.009,344.288h66.8a2.136,2.136,0,0,0,0-4.257h-66.8a8.182,8.182,0,0,1,0-16.363h66.2a2.136,2.136,0,0,0,0-4.257h-66.2a12.439,12.439,0,0,0,0,24.878Z" transform="translate(57.315 79.566)"/><path class="g" d="M283.88,337.06a26.332,26.332,0,0,1,0,19.984h66.5s8.212-2.121,8.212-9.985a14.439,14.439,0,0,0-8.015-9.788Z" transform="translate(18.84 88.658)"/><path class="l" d="M353.421,338.731c-2.894-1.667-5.545-1.515-8.879-1.515H321.876l-31.817-.106c-.53,0-5.682.455-5.909,0a20.111,20.111,0,0,1,1.3,4.091h66.408v15.257a10.439,10.439,0,0,0,6.606-9.348,8.7,8.7,0,0,0-4.424-7.924Z" transform="translate(18.98 88.683)"/><path class="h" d="M349.512,360.538H282.665a2.136,2.136,0,0,1,0-4.258h66.8a8.2,8.2,0,1,0,0-16.378h-66.15a2.121,2.121,0,1,1,0-4.242h66.2a12.439,12.439,0,0,1,0,24.878Z" transform="translate(17.207 87.937)"/><path class="g" d="M283.88,320.81a26.348,26.348,0,0,1,0,19.984h66.5s8.212-2.121,8.212-9.985a14.439,14.439,0,0,0-8.015-9.712Z" transform="translate(18.84 80.287)"/><path class="l" d="M353.421,322.476c-2.894-1.667-5.545-1.515-8.879-1.515H321.876l-31.817-.091c-.53,0-5.682.454-5.909,0a20.542,20.542,0,0,1,1.3,4.091h66.408v15.257a10.439,10.439,0,0,0,6.606-9.348,8.7,8.7,0,0,0-4.424-7.924Z" transform="translate(18.98 80.318)"/><path class="h" d="M349.512,344.288H282.665a2.136,2.136,0,0,1,0-4.257h66.8a8.182,8.182,0,1,0,0-16.363h-66.15a2.136,2.136,0,0,1,0-4.257h66.2a12.439,12.439,0,1,1,0,24.878Z" transform="translate(17.207 79.566)"/><path class="g" d="M98.59,337.06a26.333,26.333,0,0,1,0,19.984h66.5s8.212-2.121,8.212-9.985a14.439,14.439,0,0,0-8.015-9.788Z" transform="translate(-76.606 88.658)"/><path class="l" d="M168.131,338.731c-2.894-1.667-5.545-1.515-8.879-1.515H136.586l-31.817-.106c-.53,0-5.682.455-5.909,0a20.107,20.107,0,0,1,1.3,4.091h66.408v15.257a10.439,10.439,0,0,0,6.606-9.348,8.712,8.712,0,0,0-4.409-7.924Z" transform="translate(-76.467 88.683)"/><path class="h" d="M164.207,360.538h-66.8a2.136,2.136,0,0,1,0-4.258h66.8a8.2,8.2,0,1,0,0-16.378h-66.2a2.121,2.121,0,1,1,0-4.242h66.2a12.439,12.439,0,0,1,0,24.878Z" transform="translate(-78.224 87.937)"/><path class="g" d="M171.19,320.81a26.348,26.348,0,0,0,0,19.984h-66.5s-8.212-2.121-8.212-9.985a14.439,14.439,0,0,1,8-9.788Z" transform="translate(-77.693 80.287)"/><path class="l" d="M101.513,322.476c2.894-1.667,5.545-1.515,8.879-1.515h22.666l31.817-.091c.515,0,5.682.454,5.909,0a21.09,21.09,0,0,0-1.318,4.091H103.088v15.257a10.439,10.439,0,0,1-6.606-9.348,8.712,8.712,0,0,1,4.409-7.924Z" transform="translate(-77.695 80.318)"/><path class="h" d="M107.779,344.288h66.8a2.136,2.136,0,0,0,0-4.257h-66.8a8.182,8.182,0,1,1,0-16.363h66.2a2.136,2.136,0,0,0,0-4.257h-66.2a12.439,12.439,0,1,0,0,24.878Z" transform="translate(-78.28 79.566)"/><path class="g" d="M308.26,243.53a26.348,26.348,0,0,1,0,19.984h66.5s8.212-2.121,8.212-9.985a14.484,14.484,0,0,0-8.015-9.788Z" transform="translate(31.399 40.479)"/><path class="l" d="M377.8,245.2c-2.909-1.667-5.561-1.515-8.894-1.515H346.251l-31.817-.091c-.515,0-5.667.439-5.894,0a21.842,21.842,0,0,1,1.3,4.091h66.408v15.166a10.454,10.454,0,0,0,6.606-9.348,8.757,8.757,0,0,0-4.424-7.924Z" transform="translate(31.543 40.51)"/><path class="h" d="M373.877,267.008h-66.8a2.136,2.136,0,0,1,0-4.257h66.8a8.182,8.182,0,1,0,0-16.363H307.666a2.136,2.136,0,0,1,0-4.257h66.211a12.439,12.439,0,0,1,0,24.878Z" transform="translate(29.781 39.758)"/><path class="g" d="M380.85,227.28a26.424,26.424,0,0,0,0,19.984h-66.5s-8.212-2.121-8.212-9.985a14.485,14.485,0,0,1,8.015-9.788Z" transform="translate(30.307 32.108)"/><path class="l" d="M311.172,228.946c2.909-1.667,5.561-1.515,8.894-1.515h22.651l31.817-.091c.515,0,5.667.455,5.894,0a21.786,21.786,0,0,0-1.3,4.106H312.748v15.242a10.454,10.454,0,0,1-6.606-9.348,8.757,8.757,0,0,1,4.424-7.924Z" transform="translate(30.305 32.139)"/><path class="h" d="M317.439,250.758h66.8a2.136,2.136,0,0,0,0-4.257h-66.8a8.182,8.182,0,0,1,0-16.363H383.65a2.136,2.136,0,0,0,0-4.257H317.439a12.439,12.439,0,0,0,0,24.878Z" transform="translate(29.72 31.387)"/><path class="h" d="M596.068,104H84.08v19.09H91V588.929H102.14v-6.288h480.1v6.288H593.3V123.045h2.773ZM174.017,345.085H582.235v63.271H174.017ZM102.14,335.54V272.269h480.1V335.54Zm0-72.817V199.452h480.1v63.271ZM402.421,123.045v66.862H102.14V123.045ZM102.14,481.173V417.9h480.1v63.271Z" transform="translate(-84.08 -31.396)"/><path class="m" d="M596.068,104H84.08v19.09H91V588.929H102.14v-6.288h480.1v6.288H593.3V123.045h2.773ZM174.017,345.085H582.235v63.271H174.017ZM102.14,335.54V272.269h480.1V335.54Zm0-72.817V199.452h480.1v63.271ZM402.421,123.045v66.862H102.14V123.045ZM102.14,481.173V417.9h480.1v63.271Z" transform="translate(-84.08 -31.396)"/><ellipse class="g" cx="7.621" cy="7.091" rx="7.621" ry="7.091" transform="translate(390.976 116.558)"/><ellipse class="g" cx="7.621" cy="7.091" rx="7.621" ry="7.091" transform="translate(420.369 116.558)"/></g><g transform="translate(193.827 143.72)"><path class="a" d="M256.773,416.541l-2.53,3.788,3.788,2.53-2.515,4.212,3.364,2.939-6.318,4.212,3.364,2.106-.833,2.954,3.364,1.682-3.364,5.045H151.942l-2.106-5.045,2.53-2.954-3.788-2.106,5.894-1.682-3.788-2.53,4.2-1.682-5.47-2.106,13.894-4.212-15.575-2.515,5.045-38.317,102.392,17.606Z" transform="translate(-144.245 24.61)"/><path class="l" d="M249.727,408.57s-48.484,5.212-78.18,1.515l15.151,3.651-28.151,1.515,26.575,4.167-28.136,2.606,22.409,4.7-26.605,2.2H249.2l-21.848-5.242,13.03-2.076-12-2.091,21.893-2.076-22.409-1.045,20.848-2.091L226.3,413.252S237.743,411.176,249.727,408.57Z" transform="translate(-141.639 37.854)"/><path class="g" d="M145.43,421.208s62.423,2.773,112.528-4.379l-1.606-24.409L151.021,382.36Z" transform="translate(-145.43 24.353)"/><g class="n" transform="translate(0 406.713)"><path class="o" d="M145.43,421.208s62.423,2.773,112.528-4.379l-1.606-24.409L151.021,382.36Z" transform="translate(-145.43 -382.36)"/></g><path class="p" d="M145.43,421.208s62.423,2.773,112.528-4.379l-1.606-24.409L151.021,382.36Z" transform="translate(-145.43 24.353)"/><line class="q" x1="1.879" y2="19.893" transform="translate(22.833 413.47)"/><line class="q" x1="0.621" y2="20.53" transform="translate(39.635 414.713)"/><line class="q" x1="0.621" y2="19.909" transform="translate(55.181 416.576)"/><line class="q" y2="16.181" transform="translate(70.12 420.925)"/><line class="q" x2="0.621" y2="12.439" transform="translate(86.907 424.667)"/><line class="q" x2="0.621" y2="9.954" transform="translate(101.846 427.152)"/><path class="g" d="M258.4,386.369s-83.059,36.666-112.952,46.62l5.591-38.893,83.786-34.666Z" transform="translate(-145.42 12.541)"/><g class="r" transform="translate(0.03 371.971)"><path class="o" d="M178.482,415.4c32.923-10.682,68.392-29.03,68.392-29.03L223.3,359.43,167.77,378.96Z" transform="translate(-133.953 -359.43)"/></g><path class="q" d="M258.4,386.369s-83.059,36.666-112.952,46.62l5.591-38.893,83.786-34.666Z" transform="translate(-145.42 12.541)"/><path class="g" d="M171.907,392.452l80.422-3.364-16-34.939-79.15.424Z" transform="translate(-139.377 9.821)"/><g class="s" transform="translate(17.803 363.971)"><path class="o" d="M171.907,392.452l80.422-3.364-16-34.939-79.15.424Z" transform="translate(-157.18 -354.15)"/></g><path class="q" d="M171.907,392.452l80.422-3.364-16-34.939-79.15.424Z" transform="translate(-139.377 9.821)"/><line class="q" x2="7.47" y2="24.878" transform="translate(39.014 369.926)"/><line class="q" x2="7.47" y2="26.136" transform="translate(53.317 368.668)"/><line class="q" x2="6.833" y2="24.893" transform="translate(67.635 368.047)"/><line class="q" x2="7.47" y2="24.272" transform="translate(82.559 368.047)"/><path class="t" d="M232.344,292.7l24.09,83.938-9.636,3.182L202.86,284.546S219.526,279.106,232.344,292.7Z" transform="translate(-115.847 -26.587)"/><path class="b" d="M249.045,345s6.227,10.485,6.227,13.984-11.272,3.106-16.318,3.879-16,8.106-20.545,6.167c0,0-2.712-1.515,0-4.667s15.318-9.182,21.06-16.242Z" transform="translate(-108.458 5.108)"/><path class="u" d="M320.257,157.766c0,1.515-1.758,2.939-1.909,4.439s1.273,3.257.955,4.727-2.318,2.515-2.788,3.939.561,3.454,0,4.833-2.8,1.97-3.545,3.273-.182,3.485-1.061,4.712-3.151,1.333-4.167,2.454-.894,3.379-2.015,4.394-3.348.651-4.545,1.515-1.515,3.121-2.879,3.879-3.409,0-4.788.561-2.182,2.727-3.621,3.2-3.333-.773-4.818-.47-2.7,2.212-4.212,2.379-3.03-1.515-4.545-1.515-3.121,1.606-4.545,1.515-2.758-2.061-4.212-2.379-3.394.924-4.818.455-2.242-2.576-3.621-3.182-3.5.182-4.8-.561-1.651-3.03-2.879-3.879-3.454-.545-4.545-1.515-1-3.273-2-4.394-3.273-1.242-4.167-2.454-.3-3.409-1.061-4.712-2.939-1.894-3.545-3.273.409-3.394,0-4.833-2.485-2.454-2.788-3.939,1.106-3.212.955-4.727-1.909-2.909-1.909-4.439,1.758-3.03,1.909-4.439-1.273-3.273-.955-4.742,2.318-2.5,2.788-3.939-.561-3.454,0-4.818,2.8-1.97,3.545-3.273.182-3.5,1.061-4.712,3.151-1.333,4.167-2.454.894-3.379,2.015-4.394,3.348-.652,4.545-1.515,1.515-3.121,2.879-3.879,3.409,0,4.788-.561,2.182-2.727,3.621-3.2,3.333.773,4.818.455,2.7-2.212,4.212-2.364,3.03,1.515,4.545,1.515,3.121-1.606,4.545-1.515,2.758,2.061,4.212,2.364,3.394-.909,4.818-.455,2.242,2.591,3.621,3.2,3.5-.2,4.8.561,1.651,3.03,2.879,3.879,3.454.53,4.545,1.515,1,3.273,2,4.394,3.273,1.227,4.167,2.454.3,3.409,1.061,4.712,2.939,1.879,3.545,3.273-.409,3.379,0,4.833S319,147.1,319.3,148.6s-1.106,3.212-.955,4.727S320.257,156.235,320.257,157.766Z" transform="translate(-100.641 -113.924)"/><path class="v" d="M247.917,184.232S232.765,217.838,225.19,236s-1.864,33.7,3.03,35.423c5.136,1.818,42.317-11.409,51.15-14.833,8.394-3.258,8.485-3.03,8.485-3.03s.606,28.151.606,31.484-6.06,15.439-5.454,19.075,8.788,10.606,33,13.015,38.151-3.333,40.56-6.667,2.424-7.576,2.424-14.227-3.333-44.5-8.167-74.241-17.56-42.423-23.621-45.711-16.348,1.212-26.636,8.166-16.045,20.59-17.56,24.242-30.575,27.848-32.7,29.969,4.242-52.075,4.242-52.075Z" transform="translate(-106.238 -82.361)"/><line class="q" x2="8.333" y2="2.924" transform="translate(139.164 107.553)"/><path class="b" d="M241.364,217.13a103.756,103.756,0,0,1-2.424,14.53" transform="translate(-97.261 -60.76)"/><line class="q" x1="3.636" y1="25.136" transform="translate(178.011 146.067)"/><path class="v" d="M271.959,182.763s-8.773,21.212-6.954,21.212,5.757-6.667,5.757-6.667l5.136,10.3s.909-24.242.3-25.136S273.171,179.49,271.959,182.763Z" transform="translate(-83.963 -79.377)"/><path class="g" d="M263.52,179.572s9.379,13.015,10.288,16.666,1.818,21.212,2.727,18.181S295,180.512,295.307,179s-5.151-11.2-5.151-11.2-12.121,8.773-17.848,10.288A38.83,38.83,0,0,1,263.52,179.572Z" transform="translate(-84.6 -86.171)"/><g class="w" transform="translate(178.92 81.629)"><path class="o" d="M263.52,179.572s9.379,13.015,10.288,16.666,1.818,21.212,2.727,18.181S295,180.512,295.307,179s-5.151-11.2-5.151-11.2-12.121,8.773-17.848,10.288A38.83,38.83,0,0,1,263.52,179.572Z" transform="translate(-263.52 -167.8)"/></g><path class="q" d="M263.52,179.572s9.379,13.015,10.288,16.666,1.818,21.212,2.727,18.181S295,180.512,295.307,179s-5.151-11.2-5.151-11.2-12.121,8.773-17.848,10.288A38.83,38.83,0,0,1,263.52,179.572Z" transform="translate(-84.6 -86.171)"/><path class="v" d="M273.625,189.35l-1.515,13.939,7.273-9.7Z" transform="translate(-80.175 -75.07)"/><path class="v" d="M273.11,198.921l6.06,8.788,21.2-29.969-8.182-6.97Z" transform="translate(-79.66 -84.641)"/><path class="g" d="M278.08,155.339s1.515-7.863,4.833-7.257,3.03,6.651,1.212,10.894a40.689,40.689,0,0,1-2.424,5.136Z" transform="translate(-77.1 -96.345)"/><g class="x" transform="translate(200.98 51.703)"><path class="o" d="M278.08,155.339s1.515-7.863,4.833-7.257,3.03,6.651,1.212,10.894a40.689,40.689,0,0,1-2.424,5.136Z" transform="translate(-278.08 -148.048)"/></g><path class="q" d="M278.08,155.339s1.515-7.863,4.833-7.257,3.03,6.651,1.212,10.894a40.689,40.689,0,0,1-2.424,5.136Z" transform="translate(-77.1 -96.345)"/><path class="g" d="M253.472,161.185s-4.833-4.545-5.742,1.818,9.379,7.576,9.379,7.576Z" transform="translate(-92.763 -90.389)"/><g class="y" transform="translate(154.909 69.223)"><path class="o" d="M253.472,161.185s-4.833-4.545-5.742,1.818,9.379,7.576,9.379,7.576Z" transform="translate(-247.672 -159.612)"/></g><path class="q" d="M253.472,161.185s-4.833-4.545-5.742,1.818,9.379,7.576,9.379,7.576Z" transform="translate(-92.763 -90.389)"/><path class="g" d="M247.328,155.8s13.318,36.636,18.181,42.09,17.848,8.47,28.454.3,7.257-17.257,4.833-24.53-12.409-32.393-13.924-35.711-8.773-5.151-12.409-2.424-2.121,6.06-8.167,7.576-13.318-.909-16.666,3.636A8.151,8.151,0,0,0,247.328,155.8Z" transform="translate(-93.574 -103.475)"/><g class="z" transform="translate(152.525 30.733)"><path class="o" d="M247.328,155.8s13.318,36.636,18.181,42.09,17.848,8.47,28.454.3,7.257-17.257,4.833-24.53-12.409-32.393-13.924-35.711-8.773-5.151-12.409-2.424-2.121,6.06-8.167,7.576-13.318-.909-16.666,3.636A8.151,8.151,0,0,0,247.328,155.8Z" transform="translate(-246.099 -134.208)"/></g><path class="q" d="M247.328,155.8s13.318,36.636,18.181,42.09,17.848,8.47,28.454.3,7.257-17.257,4.833-24.53-12.409-32.393-13.924-35.711-8.773-5.151-12.409-2.424-2.121,6.06-8.167,7.576-13.318-.909-16.666,3.636A8.151,8.151,0,0,0,247.328,155.8Z" transform="translate(-93.574 -103.475)"/><path class="b" d="M2.273,0H17.651a2.288,2.288,0,0,1,2.288,2.288V6.833a4.727,4.727,0,0,1-4.727,4.727H4.727A4.727,4.727,0,0,1,0,6.833V2.288A2.288,2.288,0,0,1,2.288,0Z" transform="translate(157.074 64.304) rotate(-20.16)"/><path class="b" d="M2.273,0H17.651a2.288,2.288,0,0,1,2.288,2.288V6.833a4.727,4.727,0,0,1-4.727,4.727H4.727A4.727,4.727,0,0,1,0,6.833V2.288A2.288,2.288,0,0,1,2.288,0Z" transform="translate(180.529 55.704) rotate(-20.16)"/><line class="aa" y1="10.424" x2="4.212" transform="translate(164.633 63.433)"/><line class="aa" x1="3.227" y2="8.182" transform="translate(168.845 60.221)"/><line class="aa" y1="10.409" x2="4.227" transform="translate(188.435 54.266)"/><line class="aa" x1="3.212" y2="8.182" transform="translate(192.662 51.039)"/><line class="q" y1="3.5" x2="9.53" transform="translate(173.405 54.812)"/><path class="q" d="M262,154.008a9.879,9.879,0,0,1,4.773-1.758" transform="translate(-85.383 -94.181)"/><path class="q" d="M265.48,149.694a11.742,11.742,0,0,1,11.8-4.773" transform="translate(-83.59 -98.064)"/><path class="q" d="M264.021,151.477a9.348,9.348,0,0,0-12.651.561" transform="translate(-90.858 -95.711)"/><path class="q" d="M263,163.127s.758,3.03,1.424,3.288c2.318.97,9.863-.939,9.727-4.333a10.606,10.606,0,0,0-1.106-3.151" transform="translate(-84.868 -90.74)"/><path class="q" d="M265.64,169.864a11.787,11.787,0,0,0,9.545-3.924" transform="translate(-83.508 -87.129)"/><path class="g" d="M272.95,219.1s-4.212,47.15-21.469,94.316-94.3,110.725-94.3,110.725l14.727,37.878s55.15-41.666,81.256-103.134,26.954-138.512,26.954-138.512Z" transform="translate(-139.377 -59.745)"/><g class="ab" transform="translate(17.803 159.355)"><path class="o" d="M217.42,320.613l11.485,20.5c19.515-57.574,20.212-120.74,20.212-120.74L241.95,219.1s-4.212,47.15-21.469,94.316C219.587,315.78,218.556,318.189,217.42,320.613Z" transform="translate(-126.149 -219.1)"/></g><path class="q" d="M272.95,219.1s-4.212,47.15-21.469,94.316-94.3,110.725-94.3,110.725l14.727,37.878s55.15-41.666,81.256-103.134,26.954-138.512,26.954-138.512Z" transform="translate(-139.377 -59.745)"/><path class="t" d="M189.464,274.966s-6.606,6.288-3.454,14.484S243.3,388.3,243.3,388.3l12.591-2.833s-25.181-82.483-29.908-92.559-8.5-16.363-11.636-18.575" transform="translate(-124.966 -31.295)"/><path class="b" d="M232.863,350.833s-16.045,11.015-22.984,13.848-4.712,6.3,0,6.3,22.727-2.212,30.3-3.151,11.651-.318,11.969-4.409-6.621-16.363-6.621-16.363Z" transform="translate(-114.502 6.169)"/><path class="g" d="M243.14,167.06s0-7.863,1.818-9.379,10.606-5.757,12.409-4.848.3,2.121-.909,3.03-6.894,4.682-6.894,4.682l.848,8.636Z" transform="translate(-95.098 -93.946)"/><g class="ac" transform="translate(148.042 58.761)"><path class="o" d="M243.14,167.06s0-7.863,1.818-9.379,10.606-5.757,12.409-4.848.3,2.121-.909,3.03-6.894,4.682-6.894,4.682l.848,8.636Z" transform="translate(-243.14 -152.707)"/></g><path class="q" d="M243.14,167.06s0-7.863,1.818-9.379,10.606-5.757,12.409-4.848.3,2.121-.909,3.03-6.894,4.682-6.894,4.682l.848,8.636Z" transform="translate(-95.098 -93.946)"/><path class="g" d="M252.15,173.137s4.545,0,5.439-1.2,6.364-7.576,6.667-8.788,0-2.424-3.333-1.212a7.091,7.091,0,0,0-4.242,4.242l-4.227.3Z" transform="translate(-90.457 -89.448)"/><g class="ad" transform="translate(161.693 71.991)"><path class="o" d="M252.15,173.137s4.545,0,5.439-1.2,6.364-7.576,6.667-8.788,0-2.424-3.333-1.212a7.091,7.091,0,0,0-4.242,4.242l-4.227.3Z" transform="translate(-252.15 -161.439)"/></g><path class="q" d="M252.15,173.137s4.545,0,5.439-1.2,6.364-7.576,6.667-8.788,0-2.424-3.333-1.212a7.091,7.091,0,0,0-4.242,4.242l-4.227.3Z" transform="translate(-90.457 -89.448)"/><path class="g" d="M238.94,190.937s3.333-17.257,3.939-21.787,0-6.667,2.424-6.97a78.441,78.441,0,0,1,12.121.909c2.121.3,4.242.3,3.636,3.636s1.212,10.606-.909,12.712a8.576,8.576,0,0,1-5.454,2.121s1.212,3.03-2.409,4.848a30.073,30.073,0,0,1-4.848,2.121l-1.818,4.833Z" transform="translate(-97.261 -89.066)"/><g class="ae" transform="translate(141.679 73.114)"><path class="o" d="M238.94,190.937s3.333-17.257,3.939-21.787,0-6.667,2.424-6.97a78.441,78.441,0,0,1,12.121.909c2.121.3,4.242.3,3.636,3.636s1.212,10.606-.909,12.712a8.576,8.576,0,0,1-5.454,2.121s1.212,3.03-2.409,4.848a30.073,30.073,0,0,1-4.848,2.121l-1.818,4.833Z" transform="translate(-238.94 -162.18)"/></g><path class="q" d="M238.94,190.937s3.333-17.257,3.939-21.787,0-6.667,2.424-6.97a78.441,78.441,0,0,1,12.121.909c2.121.3,4.242.3,3.636,3.636s1.212,10.606-.909,12.712a8.576,8.576,0,0,1-5.454,2.121s1.212,3.03-2.409,4.848a30.073,30.073,0,0,1-4.848,2.121l-1.818,4.833Z" transform="translate(-97.261 -89.066)"/><path class="q" d="M250.885,177.134l-.606-5.757-3.939-.606" transform="translate(-93.449 -84.641)"/><path class="q" d="M246.56,167.12s8.045.409,9.091,1.03,1.242,6.788,1.242,6.788" transform="translate(-93.336 -86.521)"/><line class="q" x2="10.757" y2="0.97" transform="translate(153.027 76.69)"/><path class="t" d="M334.572,272.486c-19.515-1.954-28.605-6.848-31.711-10.606l-2.742,3.424.318,2.515s-37.469-5.667-66.741-2.2-46.969,12.272-48.166,22.984l15.151,6.924c22.348,13.227,72.089,16.06,89.392,17.318s50.378,0,62.968-1.894,18.257-7.242,19.515-17.636c1.045-8.576,1.227-21.863,1.258-26.242C369.253,270.41,355.935,274.622,334.572,272.486Z" transform="translate(-124.774 -37.709)"/><line class="af" x2="19.515" y2="17.318" transform="translate(176.92 231.702)"/><line class="af" x2="14.166" y2="5.348" transform="translate(180.072 232.656)"/><path class="b" d="M239.663,232.975s-24.242,7.863-31.817,18.181l-29.636-52.62a144.6,144.6,0,0,1,44.8-4.242c23.3,1.818,38.742,18.181,45.105,28.787Z" transform="translate(-128.544 -72.666)"/><line class="q" x2="14.924" y2="27.363" transform="translate(72.604 131.052)"/><line class="q" x2="13.06" y2="24.878" transform="translate(86.907 128.567)"/><line class="q" x2="11.197" y2="21.772" transform="translate(101.225 127.946)"/><path class="v" d="M306.193,195.757s-3.333,8.47-2.727,13.636,2.424,39.06,2.424,39.06-27.545-1.818-38.454-5.757-20.272-8.485-20.272-8.485l-2.424,9.7s19.378,17.257,35.726,23.909,47.817,13.015,51.514,11.5,6.97-35.105,6.667-48.12.3-26.954-5.757-36.636" transform="translate(-94.274 -72.386)"/><line class="q" x1="2.5" y2="11.666" transform="translate(157.072 165.036)"/><path class="b" d="M285.1,230.12s7.257,8.773,11.2,11.2" transform="translate(-73.484 -54.069)"/><path class="g" d="M260.537,226.793a50.228,50.228,0,0,1-9.7-8.166c-3.924-4.545-6.348-4.545-11.8-4.848s-11.2-5.136-12.712-4.833-1.818,3.03-.3,4.545,9.091,5.454,9.091,5.454l-16.333,6.363a7.7,7.7,0,0,0,3.03,2.106c2.121.909,4.242,0,5.151.909s6.363,2.727,9.682,3.939,14.227-.606,14.227-.606l7.273,4.848Z" transform="translate(-107.646 -64.984)"/><g class="ag" transform="translate(111.134 143.947)"><path class="o" d="M260.537,226.793a50.228,50.228,0,0,1-9.7-8.166c-3.924-4.545-6.348-4.545-11.8-4.848s-11.2-5.136-12.712-4.833-1.818,3.03-.3,4.545,9.091,5.454,9.091,5.454l-16.333,6.363a7.7,7.7,0,0,0,3.03,2.106c2.121.909,4.242,0,5.151.909s6.363,2.727,9.682,3.939,14.227-.606,14.227-.606l7.273,4.848Z" transform="translate(-218.78 -208.931)"/></g><path class="q" d="M260.537,226.793a50.228,50.228,0,0,1-9.7-8.166c-3.924-4.545-6.348-4.545-11.8-4.848s-11.2-5.136-12.712-4.833-1.818,3.03-.3,4.545,9.091,5.454,9.091,5.454l-16.333,6.363a7.7,7.7,0,0,0,3.03,2.106c2.121.909,4.242,0,5.151.909s6.363,2.727,9.682,3.939,14.227-.606,14.227-.606l7.273,4.848Z" transform="translate(-107.646 -64.984)"/></g><g transform="translate(323.253 418.345)"><path class="b" d="M236.37,298a49.454,49.454,0,0,1,0,39.575H376.14s17.242-4.273,17.242-19.878c0,0-2.954-13.894-16.848-19.363Z" transform="translate(-226.012 -293.727)"/><path class="l" d="M382.492,301.3c-6.06-3.3-11.651-2.954-18.666-3.03H350.614l-34.408-.106L249.329,298c-1.091,0-11.939.894-12.409,0a39.862,39.862,0,0,1,2.742,8.106H379.235v30.211A21.075,21.075,0,0,0,393.1,317.7c.576-6.863-3.742-12.227-9.288-15.666C383.4,301.788,382.977,301.53,382.492,301.3Z" transform="translate(-225.728 -293.727)"/><line class="q" y2="31.105" transform="translate(153.537 8.712)"/><line class="q" x2="21.454" transform="translate(14.161 13.894)"/><line class="q" x2="23.999" transform="translate(20.889 16.848)"/><line class="q" x2="39.999" transform="translate(14.146 31.166)"/><line class="q" x1="18.106" transform="translate(134.977 15.575)"/><line class="q" x1="39.575" transform="translate(112.659 20.636)"/><line class="q" x1="13.469" transform="translate(94.978 20.636)"/><line class="q" x2="24.848" transform="translate(128.235 29.06)"/><line class="q" x2="16" transform="translate(13.313 36.636)"/><path class="u" d="M374.4,344.436H234a4.212,4.212,0,1,1,0-8.409H374.4c9.636,0,17.469-7.273,17.469-16.212S384.04,303.6,374.4,303.6H235.255a4.212,4.212,0,0,1,0-8.424H374.4c14.272,0,25.893,11.06,25.893,24.636S388.676,344.436,374.4,344.436Z" transform="translate(-229.533 -295.18)"/><path class="b" d="M388.957,330.2a49.438,49.438,0,0,0,0,39.575H249.187s-17.257-4.212-17.257-19.787c0,0,2.939-13.894,16.833-19.378Z" transform="translate(-228.299 -277.141)"/><path class="l" d="M242.524,333.543c6.06-3.3,11.666-3.03,18.666-3.03H274.4l34.408-.106,66.923-.2c1.091,0,11.939.894,12.424,0a38.8,38.8,0,0,0-2.758,8.106H245.827v30.2A21.03,21.03,0,0,1,231.948,350c-.591-6.863,3.727-12.242,9.288-15.681C241.66,334.028,242.1,333.786,242.524,333.543Z" transform="translate(-228.317 -277.135)"/><line class="q" y2="27.333" transform="translate(17.101 59.726)"/><line class="q" x1="21.469" transform="translate(135.401 62.741)"/><line class="q" x1="23.984" transform="translate(126.144 65.68)"/><line class="q" x1="39.999" transform="translate(116.871 79.998)"/><line class="q" x2="18.106" transform="translate(17.934 64.423)"/><line class="q" x2="39.575" transform="translate(18.783 69.468)"/><line class="q" x2="13.469" transform="translate(62.569 69.468)"/><line class="q" x1="24.848" transform="translate(17.934 77.892)"/><line class="q" x1="16" transform="translate(141.719 85.468)"/><path class="ah" d="M255.593,376.679H396a4.212,4.212,0,1,0,0-8.424H255.593c-9.636,0-17.469-7.273-17.469-16.212s7.833-16.212,17.469-16.212H394.742a4.212,4.212,0,1,0,0-8.409H255.593c-14.272,0-25.893,11.045-25.893,24.621S241.321,376.679,255.593,376.679Z" transform="translate(-229.447 -278.575)"/><path class="b" d="M236.37,362.58a49.453,49.453,0,0,1,0,39.575H376.14s17.272-4.212,17.272-19.787c0,0-2.954-13.894-16.848-19.378Z" transform="translate(-226.012 -260.461)"/><path class="l" d="M382.508,365.923c-6.06-3.3-11.651-3.03-18.666-3.03H350.63l-34.408-.091L249.3,362.59c-1.091,0-11.939.909-12.409,0a39.393,39.393,0,0,1,2.742,8.106H379.205v30.2a21.06,21.06,0,0,0,13.909-18.53c.576-6.864-3.742-12.227-9.288-15.682C383.417,366.408,382.993,366.241,382.508,365.923Z" transform="translate(-225.744 -260.456)"/><line class="q" y2="31.121" transform="translate(153.537 106.604)"/><line class="q" x2="21.454" transform="translate(14.161 111.801)"/><line class="q" x2="23.999" transform="translate(20.889 114.74)"/><line class="q" x2="39.999" transform="translate(14.146 129.058)"/><line class="q" x1="18.106" transform="translate(134.977 113.482)"/><line class="q" x1="39.575" transform="translate(112.659 118.528)"/><line class="q" x1="13.469" transform="translate(94.978 118.528)"/><line class="q" x2="24.848" transform="translate(128.235 126.952)"/><line class="q" x2="16" transform="translate(13.313 134.527)"/><path class="u" d="M374.318,409.056H233.912a4.212,4.212,0,1,1,0-8.424H374.318c9.636,0,17.469-7.273,17.469-16.212s-7.833-16.2-17.469-16.2H235.17a4.212,4.212,0,1,1,0-8.424H374.318c14.272,0,25.893,11.045,25.893,24.621S388.59,409.056,374.318,409.056Z" transform="translate(-229.447 -261.893)"/><path class="b" d="M388.957,394.81a49.453,49.453,0,0,0,0,39.575H249.187S231.93,430.173,231.93,414.6c0,0,2.939-13.894,16.833-19.363Z" transform="translate(-228.299 -243.859)"/><path class="l" d="M242.524,398.133c6.06-3.3,11.666-2.954,18.666-3.03H274.4L308.81,395l66.923-.2c1.091,0,11.939.894,12.424,0a39.229,39.229,0,0,0-2.758,8.106H245.827v30.227a21.045,21.045,0,0,1-13.879-18.53c-.591-6.864,3.727-12.227,9.288-15.682C241.66,398.648,242.1,398.406,242.524,398.133Z" transform="translate(-228.317 -243.864)"/><line class="q" y2="27.333" transform="translate(17.101 157.618)"/><line class="q" x1="21.469" transform="translate(135.401 160.633)"/><line class="q" x1="23.984" transform="translate(126.144 163.587)"/><line class="q" x1="39.999" transform="translate(116.871 177.89)"/><line class="q" x2="18.106" transform="translate(17.934 162.315)"/><line class="q" x2="39.575" transform="translate(18.783 167.375)"/><line class="q" x2="13.469" transform="translate(62.569 167.375)"/><line class="q" x1="24.848" transform="translate(17.934 175.784)"/><line class="q" x1="16" transform="translate(141.719 183.375)"/><path class="ah" d="M255.593,441.286H396a4.212,4.212,0,1,0,0-8.424H255.593c-9.636,0-17.469-7.257-17.469-16.2s7.833-16.212,17.469-16.212H394.742a4.212,4.212,0,0,0,0-8.424H255.593c-14.272,0-25.893,11.045-25.893,24.636S241.321,441.286,255.593,441.286Z" transform="translate(-229.447 -245.291)"/></g><g transform="translate(544.633 360.404)"><path class="e" d="M382.742,286.623c3.364,1.515,11.591,1.288,11.606,1.288s-1.773-5.394-1.924-5.712c-1.818-3.788-7.576-10.03-12.121-9.394a5.545,5.545,0,0,0-4.454,6.954C376.561,282.972,379.879,285.366,382.742,286.623Z" transform="translate(-375.647 -248.789)"/><path class="e" d="M490.333,266.759c-4.667-.515-10.2,5.879-11.909,9.712-.151.333-1.848,5.757-1.773,5.757h.106c-.879,1-1.818,2.091-2.818,3.288-1.818,2.242-3.864,4.8-5.894,7.712a97.782,97.782,0,0,0-6.06,9.757,73.754,73.754,0,0,0-5.227,11.757v-5.363c-.545-4.151-4.03-11.863-8.636-12.712a5.53,5.53,0,0,0-6.394,5.212c-.273,3.3,2.121,6.606,4.454,8.682,2.621,2.364,9.924,4.636,10.515,4.818a96.96,96.96,0,0,0-3.03,12.727c-.455,2.515-.818,5.06-1.167,7.576v-2.394c-.53-4.151-4.015-11.863-8.621-12.712a5.545,5.545,0,0,0-6.409,5.212c-.273,3.3,2.121,6.606,4.454,8.7s8.56,4.167,10.2,4.7l-.364,2.939c-.561,4.712-1.106,9.409-1.773,14-.242,1.621-.53,3.212-.818,4.788v-2.076c-.53-4.151-4.015-11.863-8.621-12.712a5.545,5.545,0,0,0-6.409,5.212c-.273,3.3,2.121,6.606,4.455,8.7s7.954,3.97,9.909,4.545c-.349,1.621-.682,3.227-1.091,4.788-.3,1.045-.515,2.091-.879,3.121s-.667,2.076-.985,3.03c-.712,1.939-1.424,3.939-2.167,5.8-.5,1.318-1,2.545-1.515,3.788.258-1.606.682-4.758.7-5.03a21.56,21.56,0,0,0-2.894-10.485,6.68,6.68,0,0,0,0-1.227,5.56,5.56,0,0,0-6.788-4.712c-4.545,1.212-7.409,9.091-7.576,13.348,0,.242.152,2.939.273,4.636-.227-.985-.439-1.939-.682-2.954-.47-2.015-1.015-4-1.515-6.136l-.939-3.03c-.288-1.03-.727-2.106-1.091-3.167-.894-2.454-1.924-4.894-3.03-7.318,1.758-.424,7.969-2.015,10.454-3.924s5.121-5.015,5.091-8.333a5.545,5.545,0,0,0-6.06-5.682c-4.651.515-8.7,7.939-9.545,12.121,0,.258-.333,3.257-.454,4.924-.667-1.515-1.318-2.924-2.045-4.379-2.076-4.2-4.318-8.379-6.545-12.56l-2.439-3.863c.621-.136,8.045-1.864,10.833-4.015,2.485-1.894,5.121-5.015,5.091-8.318a5.545,5.545,0,0,0-6.06-5.682c-4.651.5-8.7,7.924-9.545,12.03,0,.3-.455,4.636-.5,5.742-1.515-2.818-2.909-5.651-4.212-8.5a96.3,96.3,0,0,1-4.545-11.818c.288-.076,8.045-1.833,10.894-4.03,2.485-1.894,5.121-5.015,5.091-8.318a5.53,5.53,0,0,0-5.985-5.682c-4.667.5-8.712,7.924-9.56,12.03,0,.318-.485,4.985-.5,5.833l-.242-.7a73.715,73.715,0,0,1-2.379-12.484c-.258-2.333-.379-4.545-.439-6.757,1.515-.182,8.212-1.076,11.015-2.773s5.636-4.424,5.97-7.712a5.56,5.56,0,0,0-5.333-6.318c-4.7,0-9.53,6.939-10.818,10.924,0,.212-.545,2.5-.864,4.167v-3.03c0-3.545.227-6.788.455-9.666.136-1.636.3-3.03.454-4.545,1.364-.939,6.788-4.757,8.454-7.5s2.955-6.53,1.742-9.606a5.53,5.53,0,0,0-7.576-3.136c-4.167,2.151-5.258,10.606-4.545,14.666,0,.364,1.636,5.833,1.712,5.788h.076c-.182,1.333-.364,2.742-.53,4.3-.288,2.879-.576,6.06-.667,9.682a99.633,99.633,0,0,0,.273,11.5,72.189,72.189,0,0,0,2.136,12.7v.151c-.742-1.167-2.909-4.333-3.106-4.545-2.742-3.167-9.894-7.682-14.212-5.848a5.561,5.561,0,0,0-2.454,7.894c1.591,2.894,5.409,4.333,8.5,4.788,3.5.5,10.848-1.621,11.424-1.8a98.852,98.852,0,0,0,4.454,12.333c1.015,2.348,2.106,4.667,3.227,6.985-.667-.985-1.273-1.848-1.379-1.97-2.742-3.167-9.894-7.667-14.212-5.833a5.545,5.545,0,0,0-2.454,7.879c1.591,2.894,5.409,4.333,8.5,4.788s9.439-1.227,11.106-1.7l1.318,2.651c2.121,4.227,4.273,8.454,6.242,12.651.7,1.515,1.318,3.03,1.954,4.454-.591-.879-1.091-1.606-1.182-1.712-2.742-3.167-9.909-7.682-14.227-5.848a5.56,5.56,0,0,0-2.454,7.894c1.591,2.894,5.409,4.333,8.515,4.788s8.818-1.076,10.8-1.621c.606,1.515,1.212,3.03,1.727,4.545.333,1.045.727,2.03,1,3.03s.576,2.091.864,3.121c.485,2,1,4.076,1.409,6.06.3,1.379.576,2.682.833,4-.667-1.515-2.061-4.364-2.2-4.545-2.227-3.545-8.621-9.091-13.166-7.924a5.545,5.545,0,0,0-3.621,7.424c1.136,3.03,4.7,5.106,7.682,6.061,3.288,1.015,10.606.091,11.5,0,.439,2.182.833,4.3,1.182,6.318,1.227,6.954,1.985,12.8,2.47,16.894a18.84,18.84,0,0,0,.212,2H412.759l5.151,100.588h24.045L447.106,409.5H433.97c.091-.212.182-.394.288-.606,1.8-3.758,4.3-9.166,7-15.772.864-2.091,1.742-4.333,2.621-6.651.879.182,8.106,1.651,11.469.894,3.03-.7,6.742-2.424,8.106-5.439a5.545,5.545,0,0,0-3.03-7.666c-4.454-1.515-11.227,3.56-13.727,6.924-.136.2-1.515,2.53-2.318,4.015.349-.939.712-1.864,1.061-2.833.712-1.939,1.364-3.894,2.061-6.06.318-1.03.621-2.061.939-3.03s.545-2.167.833-3.242c.606-2.545,1.091-5.151,1.515-7.773,1.7.606,7.742,2.712,10.879,2.5s7.03-1.364,8.833-4.151a5.545,5.545,0,0,0-1.864-8.045c-4.167-2.151-11.636,1.818-14.606,4.773-.182.182-2.076,2.545-3.03,3.864.242-1.591.5-3.167.712-4.773.576-4.651,1.015-9.379,1.515-14.091.136-1.439.3-2.879.454-4.318.591.227,7.727,2.879,11.242,2.636,3.121-.227,7.03-1.364,8.848-4.136a5.545,5.545,0,0,0-1.879-8.045c-4.167-2.151-11.636,1.8-14.606,4.758-.227.227-2.939,3.621-3.591,4.545.333-3.167.7-6.318,1.182-9.409a97.069,97.069,0,0,1,2.712-12.394c.273.106,7.712,2.924,11.3,2.667,3.121-.212,7.045-1.364,8.848-4.136a5.546,5.546,0,0,0-1.864-8.045c-4.167-2.151-11.636,1.8-14.606,4.758-.242.242-3.167,3.894-3.636,4.545a2.466,2.466,0,0,1,.182-.712,71.2,71.2,0,0,1,4.909-11.727c1.061-2.076,2.2-4.015,3.348-5.879,1.333.667,7.454,3.636,10.712,3.773s7.136-.591,9.242-3.151a5.545,5.545,0,0,0-.97-8.2c-3.909-2.591-11.772.515-15.045,3.136-.182.136-1.833,1.788-3.03,3.03.53-.833,1.061-1.7,1.591-2.485,1.955-2.954,3.939-5.545,5.712-7.818,1.015-1.288,1.955-2.424,2.848-3.485,1.651,0,8.288-.227,11.2-1.591s6.06-3.818,6.742-7.045a5.53,5.53,0,0,0-4.742-6.848ZM438.7,392.029c-2.818,6.5-5.409,11.788-7.273,15.469-.379.727-.712,1.394-1.015,2h-.318c-.091-.727-.2-1.515-.318-2.394-.561-4.121-1.515-10.015-2.848-17.015-.439-2.212-.955-4.545-1.515-6.985a63.327,63.327,0,0,0,6.424-3.03c2.394,2.591,8.545,5.636,9.348,6.06C440.349,388.165,439.576,390.165,438.7,392.029Z" transform="translate(-375.406 -256.939)"/><path class="e" d="M439.168,290.191c.076,0,1.515-5.47,1.515-5.818.576-4.151-.758-12.5-4.97-14.545a5.561,5.561,0,0,0-7.576,3.348c-1.136,3.106.3,6.924,2,9.545C432.2,285.812,439.168,290.191,439.168,290.191Z" transform="translate(-348.817 -250.553)"/></g><g transform="translate(60.33 614.34)"><line class="ai" x2="598.471"/></g></g></svg>