<svg xmlns="http://www.w3.org/2000/svg" xmlns:xlink="http://www.w3.org/1999/xlink" width="743.401" height="619.956" viewBox="0 0 743.401 619.956"><defs><style>.a,.f,.g,.h,.p{fill:#fff;}.a,.ai,.b,.d,.h,.i,.j,.l,.x{stroke:#263238;}.a,.ai,.b,.d,.j,.l,.t,.x{stroke-linecap:round;stroke-linejoin:round;}.b{fill:#92e3a9;}.ai,.c,.j,.t{fill:none;}.d,.i,.m{fill:#8d3ddc;}.e{fill:#8167f2;}.f{opacity:0.4;}.h,.i{stroke-miterlimit:10;}.k,.l{fill:#263238;}.n{opacity:0.47;}.o{clip-path:url(#a);}.p{opacity:0.5;}.q{clip-path:url(#b);}.r{clip-path:url(#c);}.ad,.s{opacity:0.26;}.t{stroke:#fff;}.u{clip-path:url(#d);}.v{clip-path:url(#e);}.w{clip-path:url(#f);}.x{opacity:0.42;}.y{clip-path:url(#g);}.z{fill:#bdbdbd;}.aa{clip-path:url(#h);}.ab{clip-path:url(#i);}.ac{clip-path:url(#j);}.ae{clip-path:url(#k);}.af{fill:#a7205f;}.ag{clip-path:url(#l);}.ah{fill:#64b4d2;}.ai{stroke-width:2px;}</style><clipPath id="a"><path class="a" d="M325.549,277.413s-6.473,13.94-6.98,16.942,2.5,6.96,2.5,8.461-3.9,5.966-3.9,12.945-.507,22.908,5.478,26.885,15.928-.487,15.928-.487l9.456,18.424,37.842-21.914-5.478-8.461s7.974-21.446,1.95-37.842-27.295-18.931-35.854-19.5S328.551,271.389,325.549,277.413Z" transform="translate(-317.155 -272.459)"/></clipPath><clipPath id="b"><path class="a" d="M355.254,334.27s-10.957,14.934-14.934,22.4-20.919,51.295-28.386,66.736A148.172,148.172,0,0,0,301.6,451.13H406.041s11.951-59.6,11.951-85.491-5.966-45.309-7.974-50.281-9.456-8.968-9.456-8.968Z" transform="translate(-301.6 -306.39)"/></clipPath><clipPath id="c"><path class="b" d="M417.857,291.621s-34.391-6.882-44.022,1.365-4.133,58.489-6.882,71.551-9.631,26.827-6.882,40.572,8.949,23.4,11.7,30.278-.7,32.325-.7,32.325H471.51s17.878-47.454,17.878-83.229-11.015-66.716-27.509-78.414S417.857,291.621,417.857,291.621Z" transform="translate(-359.434 -288.93)"/></clipPath><clipPath id="d"><path class="b" d="M492.34,342.923s.682,103.915-2.067,112.181-12.38,8.247-28.191,8.929-112.123-2.047-112.123-2.047a129.913,129.913,0,0,1-16.513,1.365c-7.565,0-20.647-1.365-25.462-4.816s-8.929-4.133-11-3.431-7.565,7.565-12.38,7.565-10.333-2.067-6.882-2.749,22.011-20.646,26.144-20.646,33.689,7.565,39.207,6.882,103.876-19.945,103.876-19.945l-3.431-107.229s-3.451-18.58,13.764-25.462" transform="translate(-276.647 -293.52)"/></clipPath><clipPath id="e"><rect class="c" width="320.927" height="344.557"/></clipPath><clipPath id="f"><path class="d" d="M196.033,363.727s-9.124,13.842-5.284,20.568,17.781,20.646,46.576,18.716,11.522-50.4,14.876-80.168-9.1-34.079-19.2-26.4S210.441,341.092,205.7,347.33A111.125,111.125,0,0,0,196.033,363.727Z" transform="translate(-189.806 -293.108)"/></clipPath><clipPath id="g"><path class="a" d="M211.656,330.135s-.487,55.213,0,63.87-3.9,11.522,3.353,12.965,65.78,2.866,71.532,1.95,5.849-3.9,7.214-6.726,20.627-126.258,16.318-129.63-31.681-13.433-34.1-13.433-37.92,1.95-44.646,2.885-14.408-.975-14.876,2.866S211.656,330.135,211.656,330.135Z" transform="translate(-210.782 -259.13)"/></clipPath><clipPath id="h"><path class="b" d="M304.053,259.7s-28.8-2.476-34.645-1.189-19.5,34.45-21.446,38.992-23.4,25.345-23.4,25.345l-61.725-24.039L156.33,317s50.047,32.5,58.489,36.4,20.159,3.256,24.058,3.256a14.583,14.583,0,0,0,7.8-3.256l-18.853,43.535s30.551-36.38,39.636-53.927,29.907-68.9,31.857-70.186S304.053,259.7,304.053,259.7Z" transform="translate(-156.33 -258.14)"/></clipPath><clipPath id="i"><path class="a" d="M231.544,229.79s-8.617,13.257-8.071,16.026,1.95,5.6,1.95,7.8-9.748,9.963-8.617,11.7,6.648,4.426,6.648,4.426-.234,21.621,4.738,24.39,14.427-1.677,14.427-1.677l4.972,27.724,28.269-19.964V280.265s16.63-18.833,17.742-33.806-19.5-31.584-39.909-34.352-31.584,11.074-28.27,15.6S231.544,229.79,231.544,229.79Z" transform="translate(-216.713 -211.744)"/></clipPath><clipPath id="j"><path class="b" d="M256.8,259.35s-6.239,22.089-13.92,49.949-6.239,114.248-6.239,119.063,11.035,22.07,23.532,26.885A101.17,101.17,0,0,0,285.519,461s-8.637-57.124-8.637-73.442,7.682-41.78,7.682-41.78,11.522,28.815,16.318,32.656,24,8.149,23.532-9.612-16.806-81.143-21.134-87.382-24.975-12.478-24.975-12.478Z" transform="translate(-236.535 -259.35)"/></clipPath><clipPath id="k"><path class="a" d="M271.482,324.9s-18.248-8.169-19.691-8.169-15.831,7.682-18.716,7.682-4.328,1.95-2.4,3.373a10.411,10.411,0,0,0,5.283,1.443s-6.726,3.9-6.258,5.751,4.328,3.353,4.328,3.353a17.664,17.664,0,0,0,8.169,6.726c4.8,1.443,21.6-4.309,21.6-4.309l12.965-.975Z" transform="translate(-229.678 -316.73)"/></clipPath><clipPath id="l"><path class="b" d="M295.514,312.438,250.38,330.687l3.353,19.2s60.438-8.637,63.382-12.965-8.169-28.815-8.169-28.815" transform="translate(-250.38 -308.11)"/></clipPath></defs><g transform="translate(-60.878 -89.688)"><g transform="translate(60.878 89.689)"><path class="e" d="M685.541,175.845S602.467,83.1,473.812,90.062,237.089,190.311,147.64,263.461,35.771,448.09,90.36,533.776s137.819,47.61,245.925,101.868,129.045,85.783,248.05,69.874,207.186-157.49,190.829-306.246S685.541,175.845,685.541,175.845Z" transform="translate(-60.878 -89.689)"/><path class="f" d="M685.541,175.845S602.467,83.1,473.812,90.062,237.089,190.311,147.64,263.461,35.771,448.09,90.36,533.776s137.819,47.61,245.925,101.868,129.045,85.783,248.05,69.874,207.186-157.49,190.829-306.246S685.541,175.845,685.541,175.845Z" transform="translate(-60.878 -89.689)"/></g><g transform="translate(97.516 200.118)"><rect class="g" width="534.196" height="347.033"/><rect class="f" width="534.196" height="347.033"/><rect class="h" width="303.751" height="192.33" transform="translate(195.138 119.804)"/><path class="i" d="M277.8,204.515l-5.849-16.845H176.73V433.205H492.3V204.515ZM486.408,419.207H182.637V226.877H486.388Z" transform="translate(12.5 -107.073)"/><rect class="h" width="150.901" height="9.241" transform="translate(290.26 103.817)"/><path class="j" d="M185.628,198.82l-4.348,4.192,4.5,4.835" transform="translate(16.821 -96.484)"/><line class="j" x2="9.67" transform="translate(198.101 106.527)"/><path class="j" d="M196.236,198.82l4.367,4.192-4.523,4.835" transform="translate(30.875 -96.484)"/><line class="j" x1="9.67" transform="translate(221.808 106.527)"/><path class="j" d="M213.485,202.375a4.757,4.757,0,0,0-4.426-3.47,4.367,4.367,0,1,0,0,8.715,4.27,4.27,0,0,0,2.749-.994" transform="translate(38.777 -96.413)"/><path class="j" d="M207.56,202.886h3.373V198.87" transform="translate(41.777 -96.437)"/><path class="j" d="M224.707,201.786l-4.016-3.256-3.821,3.256v7.077h7.837Z" transform="translate(50.618 -96.76)"/><rect class="k" width="3.061" height="4.913" transform="translate(269.789 106.937)"/><line class="j" x1="2.301" y2="2.106" transform="translate(265.187 105.026)"/><line class="j" x2="2.164" y2="1.911" transform="translate(275.325 105.026)"/><line class="j" x2="6.122" y2="6.317" transform="translate(273.883 89.312)"/><line class="j" x1="6.317" y2="6.122" transform="translate(273.785 89.41)"/><line class="j" x2="12.107" transform="translate(482.882 105.513)"/><line class="j" x2="12.107" transform="translate(482.882 108.243)"/><line class="j" x2="12.107" transform="translate(482.882 110.953)"/><line class="j" x2="12.107" transform="translate(482.882 113.682)"/><line class="a" x2="15.246" transform="translate(419.363 142.498)"/><line class="a" x2="13.374" transform="translate(399.633 142.498)"/><line class="a" x2="27.86" transform="translate(366.821 142.498)"/><line class="a" x2="67.788" transform="translate(366.821 151.817)"/><line class="a" x2="9.963" transform="translate(424.647 161.117)"/><line class="a" x2="40.513" transform="translate(377.778 161.117)"/><line class="a" x2="5.322" transform="translate(366.821 161.117)"/><line class="a" x2="67.788" transform="translate(366.821 170.416)"/><rect class="l" width="15.071" height="46.303" transform="translate(375.38 248.05)"/><rect class="i" width="15.071" height="101.244" transform="translate(396.923 193.129)"/><rect class="l" width="15.071" height="71.083" transform="translate(418.467 223.29)"/><rect class="i" width="15.071" height="101.244" transform="translate(439.99 193.129)"/><rect class="l" width="15.071" height="145.403" transform="translate(461.534 148.971)"/><rect class="h" width="303.751" height="192.33" transform="translate(23.941 61.296)"/><path class="i" d="M189.969,174.524,184.12,157.66H88.92V403.2H404.466V174.524ZM398.578,389.2H94.925V196.867H398.676Z" transform="translate(-70.886 -135.571)"/><rect class="h" width="150.901" height="9.241" transform="translate(119.044 45.309)"/><path class="j" d="M97.827,168.81l-4.367,4.211,4.523,4.835" transform="translate(-66.575 -124.983)"/><line class="j" x2="9.69" transform="translate(26.885 48.039)"/><path class="j" d="M108.426,168.81l4.348,4.211-4.5,4.835" transform="translate(-52.511 -124.983)"/><line class="j" x1="9.69" transform="translate(50.593 48.039)"/><path class="j" d="M125.5,172.37a4.738,4.738,0,0,0-4.387-3.47,4.348,4.348,0,1,0,0,8.7,4.426,4.426,0,0,0,2.768-.975" transform="translate(-44.439 -124.897)"/><path class="j" d="M119.74,172.9h3.392V168.86" transform="translate(-41.619 -124.935)"/><path class="j" d="M136.9,171.766l-4.016-3.236-3.821,3.236v7.077H136.9Z" transform="translate(-32.768 -125.248)"/><rect class="k" width="3.061" height="4.913" transform="translate(98.573 48.429)"/><line class="j" x1="2.301" y2="2.106" transform="translate(93.991 46.518)"/><line class="j" x2="2.164" y2="1.93" transform="translate(104.129 46.518)"/><line class="j" x2="6.102" y2="6.297" transform="translate(102.687 30.824)"/><line class="j" x1="6.297" y2="6.102" transform="translate(102.589 30.921)"/><line class="j" x2="12.107" transform="translate(311.686 47.005)"/><line class="j" x2="12.107" transform="translate(311.686 49.735)"/><line class="j" x2="12.107" transform="translate(311.686 52.464)"/><line class="j" x2="12.107" transform="translate(311.686 55.194)"/><path class="k" d="M99.96,299.254V232.83l21.134,44.744,17.956-7.838,20.315,16.045,34.606-22.5L215.1,292.8l14.8-7.37,12.673,7.37,15.85-1.852,21.114,5.089,22.187-1.852,14.115,5.069Z" transform="translate(-60.402 -64.188)"/><line class="a" x2="23.025" transform="translate(262.01 119.804)"/><line class="a" x2="20.218" transform="translate(232.2 119.804)"/><line class="a" x2="42.112" transform="translate(182.641 119.804)"/><line class="a" x2="102.394" transform="translate(182.641 129.104)"/><line class="a" x2="15.051" transform="translate(269.984 138.423)"/><line class="a" x2="61.218" transform="translate(199.193 138.423)"/><line class="a" x2="8.032" transform="translate(182.641 138.423)"/><line class="a" x2="102.394" transform="translate(182.641 147.723)"/><line class="a" x1="23.025" transform="translate(262.01 162.696)"/><line class="a" x2="20.218" transform="translate(232.2 162.696)"/><line class="a" x2="42.112" transform="translate(182.641 162.696)"/><line class="a" x2="102.394" transform="translate(182.641 171.996)"/><line class="a" x1="15.051" transform="translate(269.984 181.315)"/><line class="a" x2="61.218" transform="translate(199.193 181.315)"/><line class="a" x2="8.032" transform="translate(182.641 181.315)"/><line class="a" x2="102.394" transform="translate(182.641 190.614)"/><path class="m" d="M127.934,230.085l-12.107,27.295a29.771,29.771,0,0,1-15.09-39.3,29.4,29.4,0,0,1,27.295-17.644Z" transform="translate(-62.115 -94.956)"/><g class="n" transform="translate(36.042 105.472)"><path class="g" d="M127.934,230.085l-12.107,27.295a29.771,29.771,0,0,1-15.09-39.3,29.4,29.4,0,0,1,27.295-17.644Z" transform="translate(-98.156 -200.429)"/></g><path class="k" d="M119.327,215.64l13.979,26.3a28.952,28.952,0,0,1-26.086.9Z" transform="translate(-53.508 -80.512)"/><path class="m" d="M113.43,224.794,136.572,206a29.751,29.751,0,0,1-4.484,41.936,28.776,28.776,0,0,1-4.757,3.158Z" transform="translate(-47.611 -89.666)"/><path class="k" d="M113.43,230.136V200.384a28.425,28.425,0,0,1,23.142,10.957Z" transform="translate(-47.611 -95.007)"/><circle class="g" cx="16.201" cy="16.201" r="16.201" transform="translate(49.618 118.985)"/><path class="m" d="M169.314,230.084l-12.107,27.295a29.751,29.751,0,0,1-15.09-39.3,29.381,29.381,0,0,1,27.2-17.644Z" transform="translate(-22.819 -94.956)"/><g class="n" transform="translate(116.718 105.473)"><path class="g" d="M169.314,230.084l-12.107,27.295a29.751,29.751,0,0,1-15.09-39.3,29.381,29.381,0,0,1,27.2-17.644Z" transform="translate(-139.537 -200.429)"/></g><path class="k" d="M160.688,215.64l14.018,26.3a28.952,28.952,0,0,1-26.086.9Z" transform="translate(-14.194 -80.512)"/><path class="m" d="M154.81,224.756l23.122-18.716a29.79,29.79,0,0,1-9.1,45.017Z" transform="translate(-8.315 -89.628)"/><path class="k" d="M154.81,230.136V200.384a28.387,28.387,0,0,1,23.122,10.957Z" transform="translate(-8.315 -95.007)"/><circle class="g" cx="16.201" cy="16.201" r="16.201" transform="translate(130.293 118.985)"/><line class="a" x2="191.258" transform="translate(38.505 82.274)"/><line class="a" x2="226.799" transform="translate(38.505 91.593)"/></g><g transform="translate(530.195 430.474)"><path class="a" d="M323.057,287.491s-9.456,10.957-8.461,12.946,8.968,6.96,9.456,3.9A124.072,124.072,0,0,0,326,289.889C326.059,286.458,326.547,285.542,323.057,287.491Z" transform="translate(-289.329 -243.594)"/><path class="g" d="M325.549,277.413s-6.473,13.94-6.98,16.942,2.5,6.96,2.5,8.461-3.9,5.966-3.9,12.945-.507,22.908,5.478,26.885,15.928-.487,15.928-.487l9.456,18.424,37.842-21.914-5.478-8.461s7.974-21.446,1.95-37.842-27.295-18.931-35.854-19.5S328.551,271.389,325.549,277.413Z" transform="translate(-286.829 -256.912)"/><g class="o" transform="translate(30.325 15.547)"><path class="m" d="M376.5,330.092s7.974-21.446,1.95-37.842-27.295-18.931-35.854-19.5c-1.384,0-2.807-.175-4.231-.234l-11.035,8.734s-9.085,13-5.186,18.19,6.492,10.411,5.186,18.853-9.924,23.044-1.287,23.4c1.774,0,4.582.312,7.915.643l.721-.292.195.39c12.751,1.287,32.11,3.8,32.11,3.8l1.95-.1,13.082-7.584Z" transform="translate(-313.34 -272.4)"/><path class="p" d="M376.5,330.092s7.974-21.446,1.95-37.842-27.295-18.931-35.854-19.5c-1.384,0-2.807-.175-4.231-.234l-11.035,8.734s-9.085,13-5.186,18.19,6.492,10.411,5.186,18.853-9.924,23.044-1.287,23.4c1.774,0,4.582.312,7.915.643l.721-.292.195.39c12.751,1.287,32.11,3.8,32.11,3.8l1.95-.1,13.082-7.584Z" transform="translate(-313.34 -272.4)"/></g><path class="j" d="M325.549,277.413s-6.473,13.94-6.98,16.942,2.5,6.96,2.5,8.461-3.9,5.966-3.9,12.945-.507,22.908,5.478,26.885,15.928-.487,15.928-.487l9.456,18.424,37.842-21.914-5.478-8.461s7.974-21.446,1.95-37.842-27.295-18.931-35.854-19.5S328.551,271.389,325.549,277.413Z" transform="translate(-286.829 -256.912)"/><path class="l" d="M380.017,269.506s-18.424-5.478-34.352-4.991-31.876,4.991-31.369,13.452,15.422,11.444,15.422,11.444,8.481.507,5.985,2.983-8.968,7.487-3.9,13.452,9.943,10.957,8.461,12.946.487,6.473,2.476,4.991-.994-7.487,4.484-9.475,10.957,6.473,8.968,11.951-5.478,4.991-3.49,8.968,14.447,10.45,22.908,10.45,10.957-10.957,19.925-28.386S398.48,274.477,380.017,269.506Z" transform="translate(-289.555 -264.484)"/><path class="a" d="M323.76,335.941l4.971,9.456,54.784-35.853-5.478-6.473S332.221,328.454,323.76,335.941Z" transform="translate(-280.556 -227.842)"/><path class="g" d="M355.254,334.27s-10.957,14.934-14.934,22.4-20.919,51.295-28.386,66.736A148.172,148.172,0,0,0,301.6,451.13H406.041s11.951-59.6,11.951-85.491-5.966-45.309-7.974-50.281-9.456-8.968-9.456-8.968Z" transform="translate(-301.6 -224.69)"/><g class="q" transform="translate(0 81.7)"><path class="d" d="M355.254,334.27s-10.957,14.934-14.934,22.4-20.919,51.295-28.386,66.736A148.172,148.172,0,0,0,301.6,451.13H406.041s11.951-59.6,11.951-85.491-5.966-45.309-7.974-50.281-9.456-8.968-9.456-8.968Z" transform="translate(-301.6 -306.39)"/><path class="d" d="M314.457,391.061s23.4-36.633,32.208-46.109,52.523-31.9,52.523-31.9l-6.9-7.487s-44.978,22.323-51.938,29.244S313.209,382.833,314.457,391.061Z" transform="translate(-289.443 -307.169)"/></g><path class="j" d="M355.254,334.27s-10.957,14.934-14.934,22.4-20.919,51.295-28.386,66.736A148.172,148.172,0,0,0,301.6,451.13H406.041s11.951-59.6,11.951-85.491-5.966-45.309-7.974-50.281-9.456-8.968-9.456-8.968Z" transform="translate(-301.6 -224.69)"/><path class="j" d="M371.792,320.69s-27.295,17.937-31.369,24.9-.487,17.937-.487,19.5-3.9,6.473-3.9,7.974v4.971L314.59,435.8h48.741s20.919-50.788,24.9-60.75,5.985-27.88,4-37.842" transform="translate(-289.264 -211.11)"/><path class="j" d="M329.89,350.428s11.951-13.959,29.868-15.948" transform="translate(-274.735 -198.015)"/></g><g transform="translate(481.114 350.324)"><path class="m" d="M417.857,291.621s-34.391-6.882-44.022,1.365-4.133,58.489-6.882,71.551-9.631,26.827-6.882,40.572,8.949,23.4,11.7,30.278-.7,32.325-.7,32.325H471.51s17.878-47.454,17.878-83.229-11.015-66.716-27.509-78.414S417.857,291.621,417.857,291.621Z" transform="translate(-197.599 -161.121)"/><g class="r" transform="translate(161.834 127.809)"><path class="s" d="M375.391,304.613c-9.748,16.26,1.306,105.28,3.9,113.741S363.05,419,368.9,423.54,385.783,435.9,385.783,435.9a203.148,203.148,0,0,0-19.184-7.155,38.021,38.021,0,0,1,.526,6.161,184.582,184.582,0,0,0,20.549,13.94l-21.348,1.794c-.448,4.894-.955,8.539-.955,8.539H465.814s17.878-47.454,17.878-83.229a151.853,151.853,0,0,0-6.18-44.022l-59.931-25.345S385.139,288.373,375.391,304.613Z" transform="translate(-353.796 -280.437)"/></g><path class="j" d="M417.857,291.621s-34.391-6.882-44.022,1.365-4.133,58.489-6.882,71.551-9.631,26.827-6.882,40.572,8.949,23.4,11.7,30.278-.7,32.325-.7,32.325H471.51s17.878-47.454,17.878-83.229-11.015-66.716-27.509-78.414S417.857,291.621,417.857,291.621Z" transform="translate(-197.599 -161.121)"/><path class="l" d="M421.266,230.053s-15.129-12.38-29.576-3.431-39.207,50.2-36.458,70.849,27.529,39.889,11.015,50.9-10.314,30.94-2.067,36.458l4.816.682s0-19.945,13.764-25.462,33.689-.682,38.505,5.517-4.114,37.823,7.565,46.089,28.211,9.631,24.78,17.878-15.149,21.329-7.584,33.027,26.144,23.4,32.344,19.243-2.749-8.929.682-11.7,31.642-12.38,26.827-24.078-15.129-17.9-10.314-22.713,22.694-16.494,20.627-33.007-41.273-28.893-42.638-46.791,23.4-19.945,15.129-60.438-33.631-58.489-45.972-58.489a44.412,44.412,0,0,0-21.446,5.459Z" transform="translate(-201.789 -223.374)"/><path class="t" d="M395.86,237.87c10.372,14.388,23.4,35.581,23.844,51.606.643,26.69-22.791,37.764-18.892,58.586s49.423,24.409,52.737,42.892-17.547,11.7-12.38,22.128,25.345,19.5,16.942,31.194" transform="translate(-163.008 -209.608)"/><path class="t" d="M389.39,229.62s2.184,2.5,5.478,6.668" transform="translate(-169.152 -217.443)"/><path class="t" d="M384.1,283.74c2.379,2.5,3.8,4.816,3.8,7.1" transform="translate(-174.176 -166.049)"/><path class="t" d="M365.336,243s-10.411,28.64,5.206,48.175c8.325,10.411,18.677,18.034,26.534,24.273" transform="translate(-195.223 -204.737)"/><path class="t" d="M411.77,303.87c3.022,1.092,6.317,1.95,9.748,3" transform="translate(-147.9 -146.933)"/><path class="t" d="M423.28,240s22.128,28,14.33,52.074-33.845,37.043-33.845,52.64a18.444,18.444,0,0,0,4.426,13.062" transform="translate(-155.53 -207.586)"/><path class="a" d="M281.172,369.932s-4.133,5.089-4.133,8.266-1.579,9.514.331,9.846,3.158-6.687,5.069-9.222,6.668-3.178,6.356-6.668S284.038,365.486,281.172,369.932Z" transform="translate(-276.426 -86.269)"/><path class="a" d="M323.783,379.273s-17.8-14.934-22.245-16.513-13.355,8.578-18.755,18.424-2.534,12.068.331,12.38,15.246-5.069,15.246-5.069a38.5,38.5,0,0,0,14.934,7.292c8.578,1.95,20.958-3.178,21.29-8.247S323.783,379.273,323.783,379.273Z" transform="translate(-273.279 -91.166)"/><path class="m" d="M492.34,342.923s.682,103.915-2.067,112.181-12.38,8.247-28.191,8.929-112.123-2.047-112.123-2.047a129.913,129.913,0,0,1-16.513,1.365c-7.565,0-20.647-1.365-25.462-4.816s-8.929-4.133-11-3.431-7.565,7.565-12.38,7.565-10.333-2.067-6.882-2.749,22.011-20.646,26.144-20.646,33.689,7.565,39.207,6.882,103.876-19.945,103.876-19.945l-3.431-107.229s-3.451-18.58,13.764-25.462" transform="translate(-276.215 -156.762)"/><g class="u" transform="translate(0.431 136.758)"><path class="s" d="M423.911,298.81a12.867,12.867,0,0,0-5.283,4.913c-9.748,16.26,1.306,105.28,3.9,113.741s-16.24.643-10.391,5.186,16.884,12.361,16.884,12.361-31.837-13.647-23.4-5.206,25.345,18.19,25.345,18.19L319.84,457.256c25.7.7,88.63,2.3,101.166,1.755,15.811-.682,25.443-.682,28.192-8.929s2.067-114.189,2.067-114.189Z" transform="translate(-235.63 -288.496)"/></g><path class="j" d="M492.34,342.923s.682,103.915-2.067,112.181-12.38,8.247-28.191,8.929-112.123-2.047-112.123-2.047a129.913,129.913,0,0,1-16.513,1.365c-7.565,0-20.647-1.365-25.462-4.816s-8.929-4.133-11-3.431-7.565,7.565-12.38,7.565-10.333-2.067-6.882-2.749,22.011-20.646,26.144-20.646,33.689,7.565,39.207,6.882,103.876-19.945,103.876-19.945l-3.431-107.229s-3.451-18.58,13.764-25.462" transform="translate(-276.215 -156.762)"/><path class="a" d="M378.61,391.772a37.043,37.043,0,0,1,1.345-23.512c-18.794,3.626-34.742,6.648-36.867,6.921-5.517.682-35.093-6.882-39.207-6.882s-22.635,19.945-26.144,20.646,2.067,2.749,6.882,2.749,10.313-6.882,12.38-7.565,6.18,0,11,3.431,17.9,4.816,25.462,4.816a129.915,129.915,0,0,0,16.513-1.365Z" transform="translate(-276.227 -85.787)"/><path class="a" d="M286.551,365.12a20.861,20.861,0,0,0-7.311,7.311c-1.95,4.133,0,16.825,3.178,16.825s5.4-3.49,5.4-7.935S286.551,365.12,286.551,365.12Z" transform="translate(-274.493 -88.769)"/><path class="a" d="M288.873,363.82s-5.089.312-7,4.133-1.579,20,1.6,20.646,4.445-4.777,4.445-8.266S288.873,363.82,288.873,363.82Z" transform="translate(-272.37 -90.003)"/><path class="a" d="M297.615,362.859s-7.623-1.287-10.8.955-3.9,21.914-1.6,23.493,6.044-2.534,6.044-4.757,4.445-14.291,4.445-14.291" transform="translate(-269.357 -91.265)"/></g><g transform="translate(184.371 312.513)"><g class="v"><path class="m" d="M196.033,363.727s-9.124,13.842-5.284,20.568,17.781,20.646,46.576,18.716,11.522-50.4,14.876-80.168-9.1-34.079-19.2-26.4S210.441,341.092,205.7,347.33A111.125,111.125,0,0,0,196.033,363.727Z" transform="translate(-61.938 -119.342)"/><g class="w" transform="translate(127.868 173.766)"><path class="x" d="M196.033,363.727s-9.124,13.842-5.284,20.568,17.781,20.646,46.576,18.716,11.522-50.4,14.876-80.168-9.1-34.079-19.2-26.4S210.441,341.092,205.7,347.33A111.125,111.125,0,0,0,196.033,363.727Z" transform="translate(-189.806 -293.108)"/></g><path class="j" d="M196.033,363.727s-9.124,13.842-5.284,20.568,17.781,20.646,46.576,18.716,11.522-50.4,14.876-80.168-9.1-34.079-19.2-26.4S210.441,341.092,205.7,347.33A111.125,111.125,0,0,0,196.033,363.727Z" transform="translate(-61.938 -119.342)"/><path class="l" d="M211,333.49s0,42.716.487,56.169,2.4,46.089,2.4,46.089h90.248l-4.8-97.481-1.443-4.8Z" transform="translate(-41.812 -81.014)"/><path class="a" d="M238.185,344.788l36.224,1.462-.39-7.974-1.443-4.8H237.62Z" transform="translate(-16.533 -81.004)"/><path class="a" d="M220.553,333.48H211V342.7l9.573.37Z" transform="translate(-41.812 -81.004)"/><path class="a" d="M217.47,333.48l.546,9.748,32.793,1.306-.331-11.054Z" transform="translate(-35.668 -81.004)"/><path class="g" d="M211.656,330.135s-.487,55.213,0,63.87-3.9,11.522,3.353,12.965,65.78,2.866,71.532,1.95,5.849-3.9,7.214-6.726,20.627-126.258,16.318-129.63-31.681-13.433-34.1-13.433-37.92,1.95-44.646,2.885-14.408-.975-14.876,2.866S211.656,330.135,211.656,330.135Z" transform="translate(-42.019 -151.608)"/><g class="y" transform="translate(168.762 107.522)"><path class="z" d="M241.062,268.578s-11.249-.546-13.394.526c-1.209.6-8.578,18.7-14.759,34.294-.721,10.158-1.267,17.9-1.267,17.9s-.487,55.213,0,63.87c.312,5.673-1.423,8.851-.643,10.781,2.437-8.461,6.317-23.064,10.781-43.828C229.287,317.3,241.062,268.578,241.062,268.578Z" transform="translate(-210.768 -250.29)"/></g><path class="j" d="M211.656,330.135s-.487,55.213,0,63.87-3.9,11.522,3.353,12.965,65.78,2.866,71.532,1.95,5.849-3.9,7.214-6.726,20.627-126.258,16.318-129.63-31.681-13.433-34.1-13.433-37.92,1.95-44.646,2.885-14.408-.975-14.876,2.866S211.656,330.135,211.656,330.135Z" transform="translate(-42.019 -151.608)"/><path class="a" d="M185.267,287.234s-17.274-8.637-23.512-10.08-26.417-6.239-27.86-4.328.487,3.9,2.418,3.9,14.388,5.283,14.388,5.283-1.423,11.522-1.423,14.408,15.363,8.637,18.716,9.124,10.119-2.086,10.119-2.086l4.757-1.287Z" transform="translate(-115.51 -139.023)"/><path class="a" d="M142.042,278.32s-1.95,12.965-.487,14.388,11.522,8.169,12.965,4.816.955-16.338.955-17.761S142.042,278.32,142.042,278.32Z" transform="translate(-108.275 -133.385)"/><path class="a" d="M174.024,283.329s-16.318-6.239-20.159-6.239-10.08,5.264-13.452,6.239.955,3.9,3.373,3.353,9.1-2.4,9.1-2.4a20.549,20.549,0,0,0,6.258,7.194c3.9,2.4,11.99.975,11.99.975" transform="translate(-110.018 -134.553)"/><path class="m" d="M304.053,259.7s-28.8-2.476-34.645-1.189-19.5,34.45-21.446,38.992-23.4,25.345-23.4,25.345l-61.725-24.039L156.33,317s50.047,32.5,58.489,36.4,20.159,3.256,24.058,3.256a14.583,14.583,0,0,0,7.8-3.256l-18.853,43.535s30.551-36.38,39.636-53.927,29.907-68.9,31.857-70.186S304.053,259.7,304.053,259.7Z" transform="translate(-93.728 -152.549)"/><g class="aa" transform="translate(62.602 105.591)"><path class="s" d="M236.892,307.288c-1.56,0-3.646-1.033-5.732-1.033s2.612,7.8,1.56,10.45S157,287.46,157,287.46l-.137,2.359c7.058,4.582,49.715,32.169,57.455,35.737,8.461,3.9,20.159,3.256,24.058,3.256a13.394,13.394,0,0,0,7.038-2.69c5.693-14.525,9.748-38.661,9.748-38.661S238.471,307.288,236.892,307.288Z" transform="translate(-155.827 -230.297)"/></g><path class="j" d="M304.053,259.7s-28.8-2.476-34.645-1.189-19.5,34.45-21.446,38.992-23.4,25.345-23.4,25.345l-61.725-24.039L156.33,317s50.047,32.5,58.489,36.4,20.159,3.256,24.058,3.256a14.583,14.583,0,0,0,7.8-3.256l-18.853,43.535s30.551-36.38,39.636-53.927,29.907-68.9,31.857-70.186S304.053,259.7,304.053,259.7Z" transform="translate(-93.728 -152.549)"/><path class="a" d="M235.993,258.94,228,266.524l.409,15.168,8.422-8.013Z" transform="translate(-25.668 -151.789)"/><path class="g" d="M231.544,229.79s-8.617,13.257-8.071,16.026,1.95,5.6,1.95,7.8-9.748,9.963-8.617,11.7,6.648,4.426,6.648,4.426-.234,21.621,4.738,24.39,14.427-1.677,14.427-1.677l4.972,27.724,28.269-19.964V280.265s16.63-18.833,17.742-33.806-19.5-31.584-39.909-34.352-31.584,11.074-28.27,15.6S231.544,229.79,231.544,229.79Z" transform="translate(-36.387 -196.607)"/><g class="ab" transform="translate(180.327 15.137)"><path class="m" d="M257.608,303.967l10.547-7.448V276.575s16.63-18.833,17.742-33.806c.721-9.748-7.8-20.257-19.5-27.139L237,227.815s-13.8,12.127-11.99,13.764,7.116,8.422,5.849,11.542c0,0-4.933,1.95-4.426,5.322s11.99,25.345,11.99,25.345l-3.529,4.972Z" transform="translate(-208.99 -208.054)"/><path class="p" d="M257.608,303.967l10.547-7.448V276.575s16.63-18.833,17.742-33.806c.721-9.748-7.8-20.257-19.5-27.139L237,227.815s-13.8,12.127-11.99,13.764,7.116,8.422,5.849,11.542c0,0-4.933,1.95-4.426,5.322s11.99,25.345,11.99,25.345l-3.529,4.972Z" transform="translate(-208.99 -208.054)"/></g><path class="j" d="M231.544,229.79s-8.617,13.257-8.071,16.026,1.95,5.6,1.95,7.8-9.748,9.963-8.617,11.7,6.648,4.426,6.648,4.426-.234,21.621,4.738,24.39,14.427-1.677,14.427-1.677l4.972,27.724,28.269-19.964V280.265s16.63-18.833,17.742-33.806-19.5-31.584-39.909-34.352-31.584,11.074-28.27,15.6S231.544,229.79,231.544,229.79Z" transform="translate(-36.387 -196.607)"/><path class="m" d="M256.8,259.35s-6.239,22.089-13.92,49.949-6.239,114.248-6.239,119.063,11.035,22.07,23.532,26.885A101.17,101.17,0,0,0,285.519,461s-8.637-57.124-8.637-73.442,7.682-41.78,7.682-41.78,11.522,28.815,16.318,32.656,24,8.149,23.532-9.612-16.806-81.143-21.134-87.382-24.975-12.478-24.975-12.478Z" transform="translate(-17.563 -151.399)"/><g class="ac" transform="translate(218.971 107.951)"><g class="ad" transform="translate(20.793 22.089)"><path d="M266.852,325.11h0c-10.918,2.827-19.652,4.855-19.652,4.855s13.374,26.768,18.736,26.768h3.782C268.139,343.748,266.852,331.388,266.852,325.11Z" transform="translate(-247.2 -218.992)"/><path d="M263.071,297.507c5.849,6.414,18.19,3.217,18.19,5.361s-9.631,6.96-5.849,14.447,25.716,39.636,19.282,45.524c-1.852,1.7-7.8,3.9-15.246,6.356,6.98,3.08,21.27,4.231,20.861-11.132-.487-17.761-16.806-81.143-21.134-87.382C279.136,270.68,257.164,291.073,263.071,297.507Z" transform="translate(-233.086 -270.68)"/><path d="M261.025,288.29a11.035,11.035,0,0,0-3.295,11.581c2.2,7.155,10.469,14.33,8.266,18.19s-18.755,1.111-18.19,6.629S265.451,348.4,265.451,348.4l7.155-32.539Z" transform="translate(-246.637 -253.957)"/></g></g><path class="j" d="M256.8,259.35s-6.239,22.089-13.92,49.949-6.239,114.248-6.239,119.063,11.035,22.07,23.532,26.885A101.17,101.17,0,0,0,285.519,461s-8.637-57.124-8.637-73.442,7.682-41.78,7.682-41.78,11.522,28.815,16.318,32.656,24,8.149,23.532-9.612-16.806-81.143-21.134-87.382-24.975-12.478-24.975-12.478Z" transform="translate(-17.563 -151.399)"/><path class="a" d="M259.137,254.4,234.26,272.083l1.7,15.6,27.392-24.858Z" transform="translate(-19.724 -156.1)"/><path class="g" d="M271.482,324.9s-18.248-8.169-19.691-8.169-15.831,7.682-18.716,7.682-4.328,1.95-2.4,3.373a10.411,10.411,0,0,0,5.283,1.443s-6.726,3.9-6.258,5.751,4.328,3.353,4.328,3.353a17.664,17.664,0,0,0,8.169,6.726c4.8,1.443,21.6-4.309,21.6-4.309l12.965-.975Z" transform="translate(-24.075 -96.91)"/><g class="ae" transform="translate(205.603 219.82)"><path class="af" d="M249.632,321.3c-5.849,1.306-17.722,13.277-17.722,13.277a17.664,17.664,0,0,0,8.169,6.726c4.8,1.443,21.6-4.309,21.6-4.309l12.965-.975-5.284-14.876S255.481,320,249.632,321.3Z" transform="translate(-227.558 -312.979)"/><path class="p" d="M249.632,321.3c-5.849,1.306-17.722,13.277-17.722,13.277a17.664,17.664,0,0,0,8.169,6.726c4.8,1.443,21.6-4.309,21.6-4.309l12.965-.975-5.284-14.876S255.481,320,249.632,321.3Z" transform="translate(-227.558 -312.979)"/></g><path class="j" d="M271.482,324.9s-18.248-8.169-19.691-8.169-15.831,7.682-18.716,7.682-4.328,1.95-2.4,3.373a10.411,10.411,0,0,0,5.283,1.443s-6.726,3.9-6.258,5.751,4.328,3.353,4.328,3.353a17.664,17.664,0,0,0,8.169,6.726c4.8,1.443,21.6-4.309,21.6-4.309l12.965-.975Z" transform="translate(-24.075 -96.91)"/><path class="m" d="M295.514,312.438,250.38,330.687l3.353,19.2s60.438-8.637,63.382-12.965-8.169-28.815-8.169-28.815" transform="translate(-4.416 -105.096)"/><g class="ag" transform="translate(245.964 203.014)"><path class="s" d="M251.57,344.011l1.033,5.849s60.438-8.637,63.382-12.965-8.169-28.815-8.169-28.815l-6.453,2.086c3.724,7.8,5.849,14.661,3.256,17.1C299.784,331.748,267.323,340.132,251.57,344.011Z" transform="translate(-249.25 -308.138)"/></g><path class="j" d="M295.514,312.438,250.38,330.687l3.353,19.2s60.438-8.637,63.382-12.965-8.169-28.815-8.169-28.815" transform="translate(-4.416 -105.096)"/><path class="a" d="M202.67,333.3s9.007-34.8,11.873-54" transform="translate(-49.722 -132.455)"/><path class="t" d="M223.05,358.26,236,369.061l2.164,43.2" transform="translate(-30.369 -57.472)"/><path class="j" d="M267.879,323.451l-12.751-23.4s-3.685-4.913,3.685-17.2" transform="translate(-0.781 -129.074)"/><path class="l" d="M250.58,212.107c-20.51-2.768-31.584,11.074-28.27,15.6a6.336,6.336,0,0,0,3.548,2.671l2.554-.468s18.833.565,17.742,6.648-12.2,6.668-7.8,11.7a22.086,22.086,0,0,0,3.9,3.392h-.643a9.085,9.085,0,0,1,2.651,3.782c.76,2.281-3.412,21.231-4.172,22.752s-4.933-.39-10.236-4.172a21.309,21.309,0,0,0-9.475-4.172l-.37,3.412s5.3,1.521,6.063,4.543-4.172,3.412-4.172,6.083-.37,7.428,3.217,10.352,14.427-1.677,14.427-1.677,8.13-5.654,9.28-11.7c.916-4.952,1.6-13.647,2.437-17.976a34.467,34.467,0,0,0,3.236-4.66s8.871-2.223,6.1,6.648-8.325,8.871-8.325,8.871a53.2,53.2,0,0,0,20.471,6.746v-.137s16.63-18.833,17.742-33.806S271.09,214.875,250.58,212.107Z" transform="translate(-33.256 -196.607)"/></g></g><g transform="translate(421.211 608.544)"><rect class="a" width="32.832" height="48.507"/><path class="a" d="M265.4,393.3h-3.49a2.71,2.71,0,1,1,0-5.42h3.431a5.127,5.127,0,0,0,5.128-5.128v-11.7a5.147,5.147,0,0,0-5.128-5.147h-4.406a2.71,2.71,0,1,1,0-5.4h4.406a10.547,10.547,0,0,1,10.547,10.547v11.7A10.567,10.567,0,0,1,265.4,393.3Z" transform="translate(-234.027 -351.381)"/></g><g transform="translate(164.298 596.71)"><path class="a" d="M229.646,409.447H140.431a1.735,1.735,0,0,1-1.6-1.033l-24.76-56.227a1.735,1.735,0,0,1,1.6-2.437h89.215a1.716,1.716,0,0,1,1.579,1.053l24.7,56.325a1.716,1.716,0,0,1-1.521,2.32Z" transform="translate(-113.924 -349.75)"/><path class="l" d="M217.076,402.991H140.923a1.482,1.482,0,0,1-1.345-.877l-21.075-48.1a1.482,1.482,0,0,1,1.345-2.086h76.133a1.521,1.521,0,0,1,1.365.9l21.075,48.058a1.482,1.482,0,0,1-1.345,2.106Z" transform="translate(-109.698 -347.68)"/><rect class="a" width="134.036" height="4.387" transform="translate(159.296 60.36) rotate(180)"/><rect class="a" width="64.981" height="4.387" transform="translate(90.24 60.36) rotate(180)"/></g><g transform="translate(62.406 520.133)"><path class="ah" d="M66.942,329.723a29.127,29.127,0,0,0,8.559.955s-1.306-3.9-1.423-4.211c-1.326-2.788-5.556-7.409-8.988-6.941a4.094,4.094,0,0,0-3.275,5.147A8.539,8.539,0,0,0,66.942,329.723Z" transform="translate(-61.662 -301.906)"/><path class="ah" d="M68.767,355.894a28.559,28.559,0,0,0,8.442-1.326,69.909,69.909,0,0,0,3.275,9.1c.741,1.735,1.56,3.451,2.379,5.147-.487-.721-.936-1.365-1.014-1.443-1.95-2.34-7.292-5.673-10.489-4.309a4.094,4.094,0,0,0-1.813,5.849,8.539,8.539,0,0,0,6.278,3.529,26.592,26.592,0,0,0,8.188-1.248c.331.643.643,1.306.975,1.95,1.579,3.139,3.158,6.239,4.6,9.358.526,1.092.994,2.184,1.462,3.275l-.877-1.267c-1.95-2.34-7.311-5.654-10.508-4.309a4.114,4.114,0,0,0-1.813,5.849,8.559,8.559,0,0,0,6.278,3.431A26.827,26.827,0,0,0,92.1,388.3c.448,1.131.9,2.262,1.287,3.373.253.78.526,1.5.741,2.3l.643,2.3c.351,1.462.721,3,1.033,4.445.234,1.014.409,1.95.624,2.944-.507-1.092-1.521-3.217-1.638-3.373-1.638-2.632-6.356-6.707-9.748-5.849a4.055,4.055,0,0,0-2.671,5.459,8.481,8.481,0,0,0,5.673,4.445,27.955,27.955,0,0,0,8.481,0c.312,1.618.624,3.178.877,4.66.9,5.147,1.462,9.456,1.813,12.478,0,.526.117,1.014.156,1.462H89l1.267,24.643H113.1l1.267-24.643H104.62c0-.136.136-.292.214-.448,1.326-2.768,3.178-6.746,5.167-11.7.643-1.54,1.287-3.2,1.95-4.894a28.13,28.13,0,0,0,8.461.643,8.5,8.5,0,0,0,5.985-3.919,4.094,4.094,0,0,0-2.262-5.673c-3.275-1.092-8.286,2.632-10.119,5.128-.117.136-1.111,1.95-1.716,2.963.253-.7.526-1.384.78-2.106.526-1.423,1.014-2.866,1.521-4.406l.7-2.3c.234-.76.39-1.6.6-2.4.448-1.95.819-3.782,1.131-5.732a27.293,27.293,0,0,0,8.032,1.852,8.656,8.656,0,0,0,6.531-3.061,4.094,4.094,0,0,0-1.384-5.946c-3.08-1.579-8.6,1.345-10.781,3.529-.136.137-1.54,1.95-2.281,2.846.175-1.17.37-2.34.526-3.529.409-3.431.741-6.921,1.072-10.391.117-1.072.234-2.125.331-3.2a28.421,28.421,0,0,0,8.305,1.95,8.559,8.559,0,0,0,6.531-3.061,4.075,4.075,0,0,0-1.384-5.849c-3.061-1.6-8.578,1.326-10.781,3.509-.156.175-2.164,2.671-2.651,3.334.253-2.34.526-4.66.877-6.941a70.967,70.967,0,0,1,1.95-9.144,29.126,29.126,0,0,0,8.344,1.95,8.656,8.656,0,0,0,6.531-3.061,4.114,4.114,0,0,0-1.384-5.946c-3.08-1.579-8.6,1.345-10.781,3.529-.175.175-2.34,2.866-2.69,3.392a5.584,5.584,0,0,0,.136-.546,53.151,53.151,0,0,1,3.7-8.676c.78-1.54,1.618-2.983,2.476-4.348a27.607,27.607,0,0,0,7.9,2.788,8.578,8.578,0,0,0,6.824-2.32,4.114,4.114,0,0,0-.7-6.063c-2.885-1.95-8.7.39-11.113,2.32-.136.1-1.345,1.306-2.223,2.2.39-.6.78-1.248,1.17-1.833,1.443-2.184,2.9-4.075,4.211-5.751l2.106-2.593a27.059,27.059,0,0,0,8.266-1.17,8.559,8.559,0,0,0,4.991-5.206,4.094,4.094,0,0,0-3.431-5.03c-3.451-.37-7.526,4.348-8.793,7.155-.1.253-1.365,4.27-1.306,4.27h0c-.663.741-1.345,1.54-2.086,2.418-1.345,1.657-2.846,3.548-4.348,5.693a73.928,73.928,0,0,0-4.5,7.194,53.338,53.338,0,0,0-3.9,8.676V349.09c-.39-3.061-2.963-8.754-6.356-9.378a4.114,4.114,0,0,0-4.738,3.9,8.6,8.6,0,0,0,3.295,6.395,28.483,28.483,0,0,0,7.8,3.548,74.63,74.63,0,0,0-2.281,9.417c-.331,1.852-.6,3.724-.858,5.6v-1.755c-.409-3.08-2.963-8.754-6.375-9.4a4.094,4.094,0,0,0-4.718,3.9,8.52,8.52,0,0,0,3.275,6.414,27.392,27.392,0,0,0,7.526,3.47,20.442,20.442,0,0,1-.253,2.164c-.429,3.47-.819,6.941-1.326,10.333-.175,1.189-.39,2.359-.585,3.529V385.7c-.39-3.08-2.963-8.754-6.356-9.4a4.114,4.114,0,0,0-4.738,3.9,8.617,8.617,0,0,0,3.295,6.414,26.182,26.182,0,0,0,7.311,3.392c-.253,1.189-.507,2.4-.8,3.548-.234.76-.39,1.54-.643,2.3s-.507,1.521-.741,2.281c-.526,1.423-1.053,2.9-1.6,4.289-.37.955-.741,1.95-1.111,2.788.195-1.189.507-3.529.526-3.724a15.967,15.967,0,0,0-2.145-7.8,3.471,3.471,0,0,0,0-.9,4.094,4.094,0,0,0-5.011-3.47c-3.334.877-5.459,6.765-5.615,9.846a27.551,27.551,0,0,0,.195,3.412c-.156-.721-.312-1.423-.507-2.184-.351-1.462-.741-2.944-1.15-4.523q-.351-1.111-.7-2.281c-.214-.76-.526-1.56-.8-2.34-.663-1.813-1.423-3.607-2.223-5.4a26.63,26.63,0,0,0,7.8-2.9,8.559,8.559,0,0,0,3.763-6.141,4.094,4.094,0,0,0-4.426-4.192c-3.431.37-6.414,5.849-7.038,8.89,0,.175-.253,2.4-.331,3.626-.507-1.072-.994-2.145-1.521-3.236-1.54-3.08-3.2-6.18-4.835-9.261l-1.482-2.846a27.781,27.781,0,0,0,8.013-2.963,8.539,8.539,0,0,0,3.743-6.141,4.075,4.075,0,0,0-4.679-4.348c-3.451.37-6.434,5.849-7.058,8.89,0,.214-.331,3.412-.37,4.231-1.092-2.086-2.145-4.172-3.119-6.278a71.563,71.563,0,0,1-3.373-8.715,28.777,28.777,0,0,0,8.052-2.983,8.559,8.559,0,0,0,3.763-6.141,4.094,4.094,0,0,0-4.367-4.114c-3.451.37-6.434,5.849-7.058,8.89,0,.234-.351,3.665-.37,4.309l-.175-.526a53.931,53.931,0,0,1-1.755-9.222c-.195-1.716-.273-3.373-.331-4.971a27.743,27.743,0,0,0,8.13-2.047,8.578,8.578,0,0,0,4.406-5.693,4.094,4.094,0,0,0-3.9-4.66c-3.451,0-7.019,5.108-7.974,8.052,0,.156-.409,1.852-.643,3.08v-2.184c0-2.612.175-5.011.351-7.136a27.216,27.216,0,0,1,.331-3.314,27.177,27.177,0,0,0,6.239-5.537,8.6,8.6,0,0,0,1.287-7.077,4.094,4.094,0,0,0-5.634-2.32c-3.08,1.6-3.9,7.8-3.373,10.82,0,.273,1.189,4.309,1.248,4.27h0c-.136.975-.273,1.95-.39,3.178-.214,2.125-.429,4.523-.487,7.155a70.188,70.188,0,0,0,.195,8.481,53.263,53.263,0,0,0,1.579,9.378v.1c-.546-.858-2.145-3.2-2.3-3.353-1.95-2.34-7.292-5.673-10.489-4.328a4.094,4.094,0,0,0-1.813,5.849,8.539,8.539,0,0,0,6.239,3.47Zm34.333,45.29a29.479,29.479,0,0,0,6.9,4.445c-.624,1.521-1.248,3-1.95,4.367-2.067,4.8-3.9,8.7-5.361,11.425-.273.546-.526,1.014-.76,1.462H101.7a7.42,7.42,0,0,0-.234-1.755c-.409-3.041-1.072-7.389-2.106-12.556-.312-1.638-.7-3.373-1.092-5.166A45.251,45.251,0,0,0,103.1,401.184Z" transform="translate(-61.401 -310.472)"/><path class="ah" d="M99.948,332.926s1.092-4.036,1.131-4.309c.429-3.061-.546-9.222-3.665-10.723a4.094,4.094,0,0,0-5.576,2.5,8.578,8.578,0,0,0,1.482,7.058,28.95,28.95,0,0,0,6.629,5.479Z" transform="translate(-33.215 -303.764)"/></g><g transform="translate(75.407 657.07)"><line class="ai" x2="727.872"/></g></g></svg>