<svg xmlns="http://www.w3.org/2000/svg" xmlns:xlink="http://www.w3.org/1999/xlink" width="818.135" height="703.65" viewBox="0 0 818.135 703.65"><defs><style>.a{fill:#92e3a9;}.a,.b,.e,.f,.g,.l,.q{stroke:#263238;}.a,.b,.e,.f,.g,.h,.l,.q,.s{stroke-linecap:round;}.a,.b,.e,.f,.g,.l,.q,.s{stroke-linejoin:round;}.b,.c,.d,.s{fill:#fff;}.d{opacity:0.7;}.e{fill:#8c3fdd;}.f,.h,.q{fill:none;}.g,.p{fill:#263238;}.h{stroke:#fff;stroke-miterlimit:10;}.i,.l{fill:#8558ea;}.j{clip-path:url(#a);}.k{opacity:0.24;}.m{clip-path:url(#b);}.n{fill:#6f98de;}.o{clip-path:url(#c);}.q{stroke-width:0.75px;}.r{clip-path:url(#d);}.s{stroke:#92e3a9;}</style><clipPath id="a"><path class="a" d="M296.581,264.974s-71.258,19.239-76.655,21.165-4.614,14.264-4.614,16.952-15.788,83.576-15.788,83.576a105.058,105.058,0,0,0-14.264,10.793c-6.159,5.778-3.852,13.481-3.852,15.407s.381,2.688-1.545,4.614-6.159-1.525-5.376,10.412-3.471,40.123,7.3,41.587,16.19.4,31.978-5a39.621,39.621,0,0,0,21.947-18.055v45.459H429.067s19.64-57.4,20.8-95.131,6.159-93.225-.762-103.617-43.533-21.947-75.892-25.8S302.359,263.43,296.581,264.974Z" transform="translate(-174.293 -264.029)"/></clipPath><clipPath id="b"><path class="b" d="M240,267.418s-6.54,230.164-3.852,230.164h47s.381-167.773,3.451-183.562,10.412-43.914,9.248-51.618-53.524-3.471-53.524-3.471A30.656,30.656,0,0,0,240,267.418Z" transform="translate(-235.497 -257.772)"/></clipPath><clipPath id="c"><path class="b" d="M286.319,286.76a87.99,87.99,0,0,1-47.646,1.745c-1.766,68.811-4.414,179.911-2.528,179.911h47S283.511,311.175,286.319,286.76Z" transform="translate(-235.496 -286.76)"/></clipPath><clipPath id="d"><path class="a" d="M287.923,297.255l7.322,40.825,8.025-45.459,31.2-3.451s-.281,48.528-.281,60.846,5.4,68.57,6.941,88.27-8.867,26.08-23.111,26.561-25.819-12.7-30.433-39.28.762-75.11-1.545-83.195S274,301.167,274,301.167Z" transform="translate(-274 -289.17)"/></clipPath></defs><g transform="translate(-2.24 -121.059)"><g transform="matrix(0.07, -0.998, 0.998, 0.07, 2.24, 770.676)"><path class="c" d="M119.214,65.98S11.886,142.675.993,282.021s70.115,268.3,132.987,374.506,174.675,145.405,270.669,98.5S473.118,613.3,544.276,504.4,650.882,377.293,651.2,247.134,517.915,2.786,362.238.078,119.214,65.98,119.214,65.98Z" transform="translate(0 0)"/><path class="d" d="M119.214,65.98S11.886,142.675.993,282.021s70.115,268.3,132.987,374.506,174.675,145.405,270.669,98.5S473.118,613.3,544.276,504.4,650.882,377.293,651.2,247.134,517.915,2.786,362.238.078,119.214,65.98,119.214,65.98Z" transform="translate(0 0)"/></g><g transform="translate(106.92 534.238)"><path class="e" d="M148.6,413.127H105.85L99.43,342.25h55.59Z" transform="translate(-96.581 -235.784)"/><rect class="b" width="61.268" height="6.139" rx="1.46" transform="translate(0 103.898)"/><path class="f" d="M100.78,294.135a13.642,13.642,0,0,1,3.751-4.955" transform="translate(-95.223 -289.18)"/><path class="f" d="M116.759,383.421s12.639-2.106,21.586-16.852-3.671-22.068-24.214-39.5c-12.779-10.813-15.568-23.071-14.2-32.1" transform="translate(-96.397 -283.354)"/><path class="f" d="M139.55,370.459a21.426,21.426,0,0,0,9.429-12.879c2.648-10.031-1.043-21.586-15.788-31.055s-22.649-12.037-29.49-21.064" transform="translate(-92.285 -272.8)"/><path class="f" d="M116.3,340.846a26.084,26.084,0,0,0,6.741-2.006" transform="translate(-79.608 -239.215)"/></g><g transform="translate(173.865 335.901)"><path class="g" d="M214.2,376.375c-9.549-10.653-13.441-22.509-10.552-38.779,5.015-28.086,35.83-59.322,35.83-78.962s13.742-65.38,55.731-68.088,63.294,18.4,72.221,64.618,8.486,54.306,18.878,75.872c4.273,8.887,9.108,17.855,10.873,27.665,3.511,19.46-17.614,28.969-32.56,34.325-41.968,15.006-94.489,24.916-134.01-2.267a91.44,91.44,0,0,1-16.41-14.384Z" transform="translate(-59.608 -190.315)"/><path class="h" d="M284.24,240.45a35.843,35.843,0,0,0,7.142,2.427" transform="translate(22.419 -139.872)"/><path class="h" d="M255.54,208.65s16.551,39.12,36.11,51.919c4.393,2.869,8.245,5.156,11.575,7" transform="translate(-6.458 -171.867)"/><path class="h" d="M268.879,214.66c-9.509,16.43-27.625,42.47-51.979,53.4" transform="translate(-45.335 -165.82)"/><path class="h" d="M248.23,207.52s-1.164,2.648-3.39,6.921" transform="translate(-17.223 -173.004)"/><path class="h" d="M238.146,241.66s-30.895,30.774-27.083,66.885" transform="translate(-51.535 -138.655)"/><path class="h" d="M233.882,245s-14.3,39.14-9.79,63.976" transform="translate(-38.985 -135.294)"/><path class="i" d="M296.581,264.974s-71.258,19.239-76.655,21.165-4.614,14.264-4.614,16.952-15.788,83.576-15.788,83.576a105.058,105.058,0,0,0-14.264,10.793c-6.159,5.778-3.852,13.481-3.852,15.407s.381,2.688-1.545,4.614-6.159-1.525-5.376,10.412-3.471,40.123,7.3,41.587,16.19.4,31.978-5a39.621,39.621,0,0,0,21.947-18.055v45.459H429.067s19.64-57.4,20.8-95.131,6.159-93.225-.762-103.617-43.533-21.947-75.892-25.8S302.359,263.43,296.581,264.974Z" transform="translate(-88.203 -116.149)"/><g class="j" transform="translate(86.09 147.88)"><path class="k" d="M337.174,275.4c1,1.184,1.424,2.187.562,2.588-2.648,1.264-15.086,5.276-16.591,10.552s-.883-16.049-3.772-9.81-6.8,30.935-22.629,80.727c-12.659,39.742-19.52,90.537-15.247,120.93h45s19.64-57.4,20.8-95.131,6.159-93.225-.762-103.617a23.913,23.913,0,0,0-7.363-6.239Z" transform="translate(-69.721 -252.587)"/><path class="l" d="M253.494,262.371a17.413,17.413,0,0,0-6.159,7.322c-2.688,5.376-25.418,47.365-27.344,49.291s10.392,1.545,15.407-.762,14.244-2.307,14.244-2.307l8.867,6.921,27.344,10.793s12.318-8.867,18.477-13.862,8.867-6.941,8.867-6.941a87.254,87.254,0,0,1,15.407,6.941c6.159,3.852,3.852,5.778,6.159,3.852s1.164-5.778-2.006-11.174S320.058,277.4,308.1,266.3,267.738,251.578,253.494,262.371Z" transform="translate(-128.518 -272.218)"/><path class="l" d="M264.43,306.93l53.163.381-1.164,15.026L289.085,336.2,264.43,322.718Z" transform="translate(-83.603 -220.864)"/><path class="l" d="M204.91,304.62l53.163.381-1.164,15.026L229.565,333.89,204.91,320.408Z" transform="translate(-143.488 -223.188)"/><path class="k" d="M225.9,444.054s-3.009-113.909-.742-126.748-13.582-51.3-12.839-30.915,6.018,51.1,6.46,58.74S201,349,202.5,358.813s12.037,9.79,15.106,24.9-22.649,14.324-22.649,22.629,9.068,19.6,1.525,26.4-11.8-2.307-11.8-2.307a38.879,38.879,0,0,1,1.485,22.389,123.775,123.775,0,0,0,17.193-4.855,39.622,39.622,0,0,0,21.947-18.055v16.37Z" transform="translate(-163.832 -247.409)"/></g><path class="f" d="M296.581,264.974s-71.258,19.239-76.655,21.165-4.614,14.264-4.614,16.952-15.788,83.576-15.788,83.576a105.058,105.058,0,0,0-14.264,10.793c-6.159,5.778-3.852,13.481-3.852,15.407s.381,2.688-1.545,4.614-6.159-1.525-5.376,10.412-3.471,40.123,7.3,41.587,16.19.4,31.978-5a39.621,39.621,0,0,0,21.947-18.055v45.459H429.067s19.64-57.4,20.8-95.131,6.159-93.225-.762-103.617-43.533-21.947-75.892-25.8S302.359,263.43,296.581,264.974Z" transform="translate(-88.203 -116.149)"/><path class="f" d="M211.279,322.09v66.644s-3.471-42.37-12.7-53.163" transform="translate(-63.767 -57.731)"/><path class="f" d="M179,340s20.422,7.322,24.655,22.328-.762,24.655-.762,24.655" transform="translate(-83.468 -39.711)"/><path class="l" d="M167.669,356.831s14.906-6.781,16.049-8.025,14.264-.622,19.74,13.341,1.5,20.663-1.224,22.168-17.032,5.677-20.984,5.677S160.688,362.007,167.669,356.831Z" transform="translate(-96.572 -31.284)"/><path class="c" d="M240,267.418s-6.54,230.164-3.852,230.164h47s.381-167.773,3.451-183.562,10.412-43.914,9.248-51.618-53.524-3.471-53.524-3.471A30.656,30.656,0,0,0,240,267.418Z" transform="translate(-26.624 -122.444)"/><g class="m" transform="translate(208.873 135.327)"><path class="n" d="M240,267.418s-6.54,230.164-3.852,230.164h47s.381-167.773,3.451-183.562,10.412-43.914,9.248-51.618-53.524-3.471-53.524-3.471A30.656,30.656,0,0,0,240,267.418Z" transform="translate(-235.497 -257.772)"/><path class="d" d="M240,267.418s-6.54,230.164-3.852,230.164h47s.381-167.773,3.451-183.562,10.412-43.914,9.248-51.618-53.524-3.471-53.524-3.471A30.656,30.656,0,0,0,240,267.418Z" transform="translate(-235.497 -257.772)"/></g><path class="f" d="M240,267.418s-6.54,230.164-3.852,230.164h47s.381-167.773,3.451-183.562,10.412-43.914,9.248-51.618-53.524-3.471-53.524-3.471A30.656,30.656,0,0,0,240,267.418Z" transform="translate(-26.624 -122.444)"/><path class="c" d="M286.319,286.76a87.99,87.99,0,0,1-47.646,1.745c-1.766,68.811-4.414,179.911-2.528,179.911h47S283.511,311.175,286.319,286.76Z" transform="translate(-26.624 -93.278)"/><g class="o" transform="translate(208.872 193.482)"><path class="p" d="M283.226,376.214c0-6.3,0-13.421.12-21.065H235.741c0,7.7-.181,14.805-.221,21.065Z" transform="translate(-235.472 -217.95)"/><path class="p" d="M236.2,335.15c-.141,7.222-.281,14.264-.4,21.065h47.465c0-6.881.12-13.943.2-21.065Z" transform="translate(-235.191 -238.073)"/><path class="p" d="M236.641,315.15c-.16,7-.321,14.043-.461,21.064h47.084c.1-7.182.2-14.264.321-21.064Z" transform="translate(-234.808 -258.196)"/><path class="p" d="M237.152,295.15c-.16,6.761-.341,13.822-.522,21.065h46.884c.181-7.884.4-15.026.642-21.065Z" transform="translate(-234.356 -278.319)"/></g><path class="f" d="M286.319,286.76a87.99,87.99,0,0,1-47.646,1.745c-1.766,68.811-4.414,179.911-2.528,179.911h47S283.511,311.175,286.319,286.76Z" transform="translate(-26.624 -93.278)"/><path class="b" d="M267.532,213s-6.941,21.947-36.973,41.607c0,0-2.006,27.344,6.159,47.746s29.651,36.592,38.9,34.666,27.344-22.73,33.5-37.354S315.3,258.84,315.3,258.84,284.083,238.5,267.532,213Z" transform="translate(-31.811 -167.491)"/><path class="f" d="M247.809,250.1s-.782,12.7,1.144,13.862,5.4.762,5.778-3.471" transform="translate(-14.394 -130.163)"/><path class="f" d="M245.81,261.775s11.937,2.307,18.477-1.545" transform="translate(-16.247 -119.971)"/><path class="f" d="M257.281,231.527s-16.169-4.313-23.111,7.724" transform="translate(-27.959 -149.606)"/><path class="f" d="M253.44,238.44s11.214-11.295,27.023-1.1" transform="translate(-8.57 -147.291)"/><path class="f" d="M236.4,243.18s7.322,6.941,19.259,2.006" transform="translate(-25.715 -137.125)"/><path class="f" d="M254.61,244.382s10.031,4.634,18.477-.762" transform="translate(-7.393 -136.683)"/><circle class="q" cx="16.169" cy="16.169" r="16.169" transform="translate(202.079 92.975)"/><circle class="q" cx="16.169" cy="16.169" r="16.169" transform="translate(240.677 92.975)"/><line class="q" x2="6.239" transform="translate(234.418 109.144)"/><line class="q" x2="9.469" transform="translate(273.016 109.144)"/><line class="q" x2="4.293" transform="translate(197.745 109.144)"/><path class="g" d="M248.955,245.753s4.113.181.261,1.6-7.744.722-11.736-2.668C237.48,244.69,245.123,245.693,248.955,245.753Z" transform="translate(-24.629 -135.606)"/><path class="g" d="M258.067,244.754s-4.012-.361-.461,1.545,7.583,1.745,12.037-1.123A86.8,86.8,0,0,1,258.067,244.754Z" transform="translate(-5.855 -135.569)"/><path class="b" d="M312.64,371.031l-6.159-63.555s-13.1-2.688-17.714-5.778-10.031-6.921-10.031-6.921-3.069,2.688-5.376,0-9.629-8.025-10.793-12.338,6.941-10.031,11.937-16.932,10.412-13.481,14.264-13.1,20.4,17.253,28.949,30.433,11.937,16.551,12.318,21.185,8.025,28.086,8.025,28.086l2.006,39.681Z" transform="translate(0.499 -127.857)"/><path class="f" d="M274.373,278.4s-7.583-7.483-7.583-9.73" transform="translate(4.862 -111.479)"/><path class="i" d="M287.923,297.255l7.322,40.825,8.025-45.459,31.2-3.451s-.281,48.528-.281,60.846,5.4,68.57,6.941,88.27-8.867,26.08-23.111,26.561-25.819-12.7-30.433-39.28.762-75.11-1.545-83.195S274,301.167,274,301.167Z" transform="translate(12.116 -90.853)"/><g class="r" transform="translate(286.116 198.317)"><path class="k" d="M301.7,464.366c11.616-1.725,19.52-8.847,18.176-26.08-1.545-19.64-6.941-75.872-6.941-88.27s.381-60.846.381-60.846l-5.055.562c-2.909,9.69-19.118,66.564-10.873,107.168,9.068,44.516,16.611,49.03,4.534,67.146Z" transform="translate(-252.794 -289.17)"/></g><path class="f" d="M287.923,297.255l7.322,40.825,8.025-45.459,31.2-3.451s-.281,48.528-.281,60.846,5.4,68.57,6.941,88.27-8.867,26.08-23.111,26.561-25.819-12.7-30.433-39.28.762-75.11-1.545-83.195S274,301.167,274,301.167Z" transform="translate(12.116 -90.853)"/><path class="b" d="M158.9,373.986s-.923,6.2,4.694,7.6,19.119-2.107,20.242-5a4.394,4.394,0,0,0-.883-4.755H170.634S161.346,368.971,158.9,373.986Z" transform="translate(-103.749 -8.497)"/><path class="g" d="M131.38,341.876l51.056,35.469,3.812-5.076-51.3-35.769Z" transform="translate(-131.38 -43.232)"/><path class="b" d="M143.236,350.1l3.972-5.055L134.951,336.5l-3.571,5.376Z" transform="translate(-131.38 -43.232)"/><path class="b" d="M173.578,393.126a34.1,34.1,0,0,0,21.486-8.967c9.148-8.907,9.77-14.866-2.588-27.665s-39.381,2.187-40.243,7.844S173.578,393.126,173.578,393.126Z" transform="translate(-110.424 -28.179)"/><path class="b" d="M201.543,374.284s-3.491,7.282-6.8,10.031-8.566,3.491-11.676-.943-6.3-18.2-9.008-18.477-16.21-4.714-20.061-10.031-3.651-9.429,4.835-6.9,31.2,5.477,31.2,5.477,5.376,3.23,9.108,14.565" transform="translate(-111.046 -32.468)"/><path class="b" d="M154.72,378.277c1.2,1.485,5.156,8.205,7.021,8.667s13.321-6.821,17.734-12.378-3.812-13.261-6.159-14.344S154.72,378.277,154.72,378.277Z" transform="translate(-107.897 -19.409)"/><path class="b" d="M155.828,360.733s-10.031,6.018-7.643,10.151,10.412,10.412,12.98,9.309,19.861-9.148,19.781-13.541-.361-9.629-9.208-8.907A79.344,79.344,0,0,0,155.828,360.733Z" transform="translate(-114.842 -21.926)"/><path class="b" d="M147.959,351.309s-4.875,9.91-.4,14.2,32.1,4.193,33.5-.863-8.947-6.139-16.551-9.409S149.022,348.962,147.959,351.309Z" transform="translate(-117.004 -29.173)"/><path class="b" d="M253.143,386.768s-.762-13.1-12.318-17.714-17.734-2.708-43.533,4.233a246.9,246.9,0,0,1-49.692,7.7v5.778Z" transform="translate(-115.06 -13.014)"/><path class="b" d="M200,386.768s.762-13.1,12.318-17.714,17.714-2.708,43.533,4.233a246.753,246.753,0,0,0,49.672,7.7v5.778Z" transform="translate(-62.339 -13.014)"/><rect class="g" width="217.626" height="4.233" transform="translate(29.851 371.447)"/></g><g transform="translate(76.808 595.265)"><line class="b" x2="699.461" transform="translate(0 116.316)"/><path class="b" d="M527.338,319.6H379.044L328.59,436.3H476.884Z" transform="translate(164.098 -319.6)"/><path class="g" d="M530.218,319.6H381.924L331.47,436.3H479.764Z" transform="translate(166.996 -319.6)"/><path class="s" d="M397.18,364.055c-3.812,6.018-10.953,8.386-15.949,5.216s-6.018-10.613-2.167-16.651,10.953-8.366,16.049-5.216S400.991,358.036,397.18,364.055Z" transform="translate(212.527 -293.038)"/><rect class="b" width="108.231" height="4.233" transform="translate(386.383 112.083)"/></g></g></svg>