<svg xmlns="http://www.w3.org/2000/svg" xmlns:xlink="http://www.w3.org/1999/xlink" width="815.807" height="871.728" viewBox="0 0 815.807 871.728">
  <defs>
    <style>
      .cls-1 {
        fill: none;
      }

      .cls-2 {
        fill: #8167f2;
      }

      .cls-12, .cls-3, .cls-4, .cls-7, .cls-9 {
        fill: #fff;
      }

      .cls-3 {
        opacity: 0.7;
      }

      .cls-5 {
        fill: #8d3ddc;
      }

      .cls-6 {
        fill: #64b4d2;
      }

      .cls-7 {
        opacity: 0.17;
      }

      .cls-8 {
        fill: #8a51e4;
      }

      .cls-9 {
        font-size: 25px;
        font-family: SegoeUI, Segoe UI;
        letter-spacing: 0.038em;
      }

      .cls-10 {
        fill: #9e6ee9;
      }

      .cls-11 {
        fill: #263238;
      }

      .cls-12 {
        opacity: 0.5;
      }

      .cls-13 {
        clip-path: url(#clip-path);
      }
    </style>
    <clipPath id="clip-path">
      <path id="Intersection_6" data-name="Intersection 6" class="cls-1" d="M0,117.192s22.916-82.03,25.567-85.783S93.756,9.055,96.947,7.437L111.866,0l.729.671a1.136,1.136,0,0,1-.392.318L97.285,8.448c-1.033.516-6.853,2.247-17.974,5.684C61.516,19.57,28.4,29.68,26.265,32.107s-15.908,51.45-25.1,84.321l12.988,3.706L45.608,61.718a1.106,1.106,0,0,1,.764-.562c.787-.178,79.895-17.052,84.568-18.625,4.224-1.393,9.953-7.84,10.988-14.019a1.071,1.071,0,0,1,.286-.606l.927.853c-1.08,6.382-6.944,13.324-11.728,14.919s-84.7,18.648-84.7,18.648L14.917,121.461Z"/>
    </clipPath>
  </defs>
  <g id="Group_8114" data-name="Group 8114" transform="translate(-882.126 -2366.642)">
    <path id="Path_2791" data-name="Path 2791" class="cls-2" d="M548.424,59S405.808,27.254,281.535,123.865,109.24,386.219,66.952,519.52s7.008,256.76,116.606,301.628S351.986,771,495,747.993s184.245-7.077,292.987-105.6,105.82-297.135-6.217-429.716S548.424,59,548.424,59Z" transform="translate(830.229 2312.634)"/>
    <path id="Path_2792" data-name="Path 2792" class="cls-3" d="M548.424,59S405.808,27.254,281.535,123.865,109.24,386.219,66.952,519.52s7.008,256.76,116.606,301.628S351.986,771,495,747.993s184.245-7.077,292.987-105.6,105.82-297.135-6.217-429.716S548.424,59,548.424,59Z" transform="translate(830.229 2312.634)"/>
    <path id="Path_2793" data-name="Path 2793" class="cls-4" d="M678.643,248.6c-.741-1.213-1.505-2.449-2.247-3.64L222.146,63.42A335.13,335.13,0,0,0,175.84,84.045Z" transform="translate(984.757 2324.369)"/>
    <path id="Path_2794" data-name="Path 2794" class="cls-4" d="M765.151,192.97l-1.258-2.247L140.708,116.58c-10.4,13.054-20.064,26.647-29.208,40.666Z" transform="translate(904.54 2390.646)"/>
    <path id="Path_2795" data-name="Path 2795" class="cls-4" d="M779,158.94,108.34,687.064c2.584,1.168,5.19,2.247,7.841,3.325A154.129,154.129,0,0,0,175.7,702.275l604.11-541.717Z" transform="translate(900.6 2443.46)"/>
    <path id="Path_2796" data-name="Path 2796" class="cls-4" d="M548.649,237.577c-2.719-3.8-5.549-7.549-8.425-11.234L331.679,70.4a256.757,256.757,0,0,0-42.127-12.47s-7.662-1.663-20.962-3.056Z" transform="translate(1100.395 2313.709)"/>
    <path id="Path_2797" data-name="Path 2797" class="cls-4" d="M819.816,154.855c-.292-.562-.607-1.123-.921-1.685L90.382,258.386c-6.875,17.974-13.323,36.105-19.412,53.922Z" transform="translate(854.009 2436.266)"/>
    <path id="Path_2798" data-name="Path 2798" class="cls-4" d="M502.288,169.925c-.472-1.1-.921-2.247-1.393-3.325L337.78,574.792A255.343,255.343,0,0,0,375.8,556.458Z" transform="translate(1186.658 2453.01)"/>
    <path id="Path_2799" data-name="Path 2799" class="cls-4" d="M435.8,183.3c-.944-2.808-1.932-5.594-2.966-8.38L398.32,464.932a233.885,233.885,0,0,0,24-36.4Z" transform="translate(1262.137 2463.383)"/>
    <path id="Path_2800" data-name="Path 2800" class="cls-4" d="M846.838,157.628l-.809-1.528L52,496.709a246.063,246.063,0,0,0,9.436,59.09Z" transform="translate(830.357 2439.919)"/>
    <path id="Path_2801" data-name="Path 2801" class="cls-4" d="M595.7,164.237c-.315-.7-.652-1.393-.966-2.067L258.93,611.321c17.974-2.7,34.331-4.808,49.429-6.74Z" transform="translate(1088.351 2447.486)"/>
    <rect id="Rectangle_895" data-name="Rectangle 895" class="cls-5" width="80.884" height="462.856" transform="translate(1528.116 2775.513)"/>
    <rect id="Rectangle_889" data-name="Rectangle 889" class="cls-6" width="80.884" height="242.111" transform="translate(997.4 2996.258)"/>
    <rect id="Rectangle_890" data-name="Rectangle 890" class="cls-7" width="80.884" height="242.111" transform="translate(997 2996)"/>
    <rect id="Rectangle_891" data-name="Rectangle 891" class="cls-2" width="80.884" height="275.051" transform="translate(1154.139 2963.317)"/>
    <rect id="Rectangle_892" data-name="Rectangle 892" class="cls-8" width="80.884" height="324.275" transform="translate(1340.878 2914.094)"/>
    <rect id="Rectangle_893" data-name="Rectangle 893" class="cls-7" width="80.884" height="324.275" transform="translate(1340.878 2914.094)"/>
    <rect id="Rectangle_896" data-name="Rectangle 896" class="cls-7" width="80.884" height="462.856" transform="translate(1528.116 2775.513)"/>
    <text id="S_T_E_P_01" data-name="S
T
E
P

01" class="cls-9" transform="translate(1037 3041)"><tspan x="-6.641" y="0">S</tspan><tspan x="-6.549" y="34">T</tspan><tspan x="-6.323" y="68">E</tspan><tspan x="-7.001" y="102">P</tspan><tspan x="0.475" y="136"></tspan><tspan x="-13.952" y="170">01</tspan></text>
    <text id="S_T_E_P_02" data-name="S
T
E
P

02" class="cls-9" transform="translate(1194 3041)"><tspan x="-6.641" y="0">S</tspan><tspan x="-6.549" y="34">T</tspan><tspan x="-6.323" y="68">E</tspan><tspan x="-7.001" y="102">P</tspan><tspan x="0.475" y="136"></tspan><tspan x="-13.952" y="170">02</tspan></text>
    <text id="S_T_E_P_03" data-name="S
T
E
P

03" class="cls-9" transform="translate(1381 3041)"><tspan x="-6.641" y="0">S</tspan><tspan x="-6.549" y="34">T</tspan><tspan x="-6.323" y="68">E</tspan><tspan x="-7.001" y="102">P</tspan><tspan x="0.475" y="136"></tspan><tspan x="-13.952" y="170">03</tspan></text>
    <text id="S_T_E_P_04" data-name="S
T
E
P

04" class="cls-9" transform="translate(1568 3041)"><tspan x="-6.641" y="0">S</tspan><tspan x="-6.549" y="34">T</tspan><tspan x="-6.323" y="68">E</tspan><tspan x="-7.001" y="102">P</tspan><tspan x="0.475" y="136"></tspan><tspan x="-13.952" y="170">04</tspan></text>
    <path id="Path_2878" data-name="Path 2878" class="cls-4" d="M442.787,266.354c-12.717-6.942-18.513-1.168-23.142-6.942s12.717-20.828-22-35.948c0,0-2.247-32.4-49.743-33.567s-34.713,32.421-47.452,40.442-16.2-4.628-28.916,3.483-6.943,24.287-17.368,26.6-24.287-10.4-37.027-2.247-12.717,15.053-18.513,15.053-17.345-4.628-24.288,0-15.053,10.4-15.053,10.4H452.043S455.526,273.3,442.787,266.354Z" transform="translate(964.122 2482.018)"/>
    <path id="Path_2879" data-name="Path 2879" class="cls-4" d="M445.984,150.7c-7.594-4.157-11.054-.7-13.818-4.157s7.617-12.425-13.121-21.389c0,0-1.37-19.345-29.68-20.041s-20.738,19.345-28.332,24.175-9.661-2.764-17.255,2.067-4.157,14.514-10.358,15.885-14.514-6.2-22.108-1.371-7.594,8.987-11.054,8.987-10.358-2.764-14.492,0-8.987,6.224-8.987,6.224H451.511S453.578,154.831,445.984,150.7Z" transform="translate(1110.604 2376.324)"/>
    <path id="Path_2810" data-name="Path 2810" class="cls-10" d="M165.969,170.76l34.623,51.676,68.167-6.4v13.84S204.3,251.733,196.3,253.845s-47.407-25.029-47.407-25.029S144.131,189.925,165.969,170.76Z" transform="matrix(0.996, -0.087, 0.087, 0.996, 1001.191, 2461.078)"/>
    <path id="Path_2811" data-name="Path 2811" class="cls-11" d="M196.061,255.711c-10.043,0-43.228-22.647-47.182-25.344a1.146,1.146,0,0,1-.494-.786c-.18-1.618-4.493-39.7,17.435-59.045a1.1,1.1,0,0,1,1.663.225l34.263,51.114,67.673-6.336a1.168,1.168,0,0,1,.876.292,1.146,1.146,0,0,1,.359.831V230.5a1.146,1.146,0,0,1-.764,1.078c-2.629.9-64.595,21.884-72.526,24A5.01,5.01,0,0,1,196.061,255.711Zm-45.43-26.961c15.727,10.784,40.621,26.018,46.059,24.58,7.392-1.977,64.325-21.232,71.627-23.681V217.831L201.363,224.1a1.1,1.1,0,0,1-1.056-.494L166.4,173.03c-18.783,17.727-16.2,51.316-15.772,55.787Z" transform="matrix(0.996, -0.087, 0.087, 0.996, 1000.48, 2460.508)"/>
    <g id="Group_8101" data-name="Group 8101" transform="matrix(0.996, -0.087, 0.087, 0.996, 1163.965, 2618.25)">
      <path id="Path_2812" data-name="Path 2812" class="cls-2" d="M227.992,217.932c2.943-4.7-34.578,13.481-36.33,12.9s2.921-8.223,0-11.728-7.617,8.2-10.56,0a108.3,108.3,0,0,0-9.369-18.176l-15.39-24.714c-10.6,19.929-7.437,45.722-7.437,45.722s39.431,27.163,47.407,25.029c5.594-1.483,38.847-12.627,58.416-19.187-14.626,1.528-39.184,3.954-42.441,3.55C207.479,230.829,225.071,222.606,227.992,217.932Z" transform="translate(-148.445 -163.964)"/>
      <path id="Path_2813" data-name="Path 2813" class="cls-12" d="M227.992,217.932c2.943-4.7-34.578,13.481-36.33,12.9s2.921-8.223,0-11.728-7.617,8.2-10.56,0a108.3,108.3,0,0,0-9.369-18.176l-15.39-24.714c-10.6,19.929-7.437,45.722-7.437,45.722s39.431,27.163,47.407,25.029c5.594-1.483,38.847-12.627,58.416-19.187-14.626,1.528-39.184,3.954-42.441,3.55C207.479,230.829,225.071,222.606,227.992,217.932Z" transform="translate(-148.445 -163.964)"/>
    </g>
    <line id="Line_274" data-name="Line 274" class="cls-4" x2="1.595" y2="13.863" transform="matrix(0.996, -0.087, 0.087, 0.996, 1278.313, 2654.751)"/>
    <path id="Path_2816" data-name="Path 2816" class="cls-11" d="M199.962,206.987a1.1,1.1,0,0,1-1.1-.989l-1.618-13.863a1.13,1.13,0,0,1,2.247-.247l1.6,13.84a1.146,1.146,0,0,1-.989,1.258Z" transform="matrix(0.996, -0.087, 0.087, 0.996, 1063.967, 2480.77)"/>
    <path id="Path_2817" data-name="Path 2817" class="cls-4" d="M202,195.934l5.864-8,19.165-1.056s1.078,15.974-1.6,18.648S202,209.775,202,209.775Z" transform="matrix(0.996, -0.087, 0.087, 0.996, 1069.448, 2475.281)"/>
    <path id="Path_2818" data-name="Path 2818" class="cls-11" d="M202.624,211.522a1.056,1.056,0,0,1-.764-.292,1.146,1.146,0,0,1-.359-.831v-13.84a1.055,1.055,0,0,1,.225-.674l5.842-7.976a1.168,1.168,0,0,1,.854-.472l19.187-1.056a1.1,1.1,0,0,1,1.168,1.056c.18,2.741.966,16.626-1.932,19.5s-20.6,4.314-24.13,4.493Zm1.123-14.6v12.267c8.4-.7,19.951-2.247,21.524-3.842s1.685-10.268,1.326-16.649l-17.525.966Z" transform="matrix(0.996, -0.087, 0.087, 0.996, 1068.772, 2474.714)"/>
    <path id="Path_2819" data-name="Path 2819" class="cls-4" d="M210.019,187.394s-2.674,20.76,0,20.76,11.728.539,11.728-4.246,1.6-18.109-1.618-18.648S210.019,187.394,210.019,187.394Z" transform="matrix(0.996, -0.087, 0.087, 0.996, 1077.749, 2472.438)"/>
    <path id="Path_2820" data-name="Path 2820" class="cls-11" d="M212.711,209.948h-2.067a1.685,1.685,0,0,1-1.258-.607c-2.067-2.247-.584-15.727.135-21.457a1.168,1.168,0,0,1,.719-.9c.741-.292,7.3-2.764,10.717-2.247s3.145,6.74,2.7,15.727c0,1.618-.157,3.056-.157,4.089a4.134,4.134,0,0,1-1.281,3.056C220.08,209.723,215.721,209.948,212.711,209.948Zm-1.64-2.089Zm0-.157h.427c2.247,0,7.414,0,9.234-1.685a1.977,1.977,0,0,0,.607-1.46c0-1.056,0-2.539.157-4.2.449-8.673.18-13.166-.831-13.346a25.03,25.03,0,0,0-8.987,1.842c-.989,8-1.505,17.053-.7,18.85ZM210.734,207.7Z" transform="matrix(0.996, -0.087, 0.087, 0.996, 1077.07, 2471.847)"/>
    <path id="Path_2821" data-name="Path 2821" class="cls-4" d="M203,194.3s4.246-8.515,7.459-8.987,6.92.539,6.92,2.134,3.19,12.245,0,13.323-4.786-2.674-4.786-2.674l-1.078-2.134a6.224,6.224,0,0,1-4.786,4.808" transform="matrix(0.996, -0.087, 0.087, 0.996, 1070.508, 2473.084)"/>
    <path id="Path_2822" data-name="Path 2822" class="cls-11" d="M216.827,202.742a5.527,5.527,0,0,1-4.651-3.415,7.37,7.37,0,0,1-4.494,3.19,1.155,1.155,0,0,1-.539-2.247,5.123,5.123,0,0,0,3.954-3.864,1.123,1.123,0,0,1,2.112-.337l1.056,2.134c.157.337,1.3,2.786,3.438,2.089.7-.225,1.191-2.089-.337-9.639a15.479,15.479,0,0,1-.427-2.606,7.077,7.077,0,0,0-5.617-1.034c-1.82.315-4.965,5.123-6.74,8.448a1.123,1.123,0,0,1-1.505.517,1.146,1.146,0,0,1-.494-1.505c.764-1.528,4.7-8.987,8.268-9.661a9.819,9.819,0,0,1,7.28,1.348,2.471,2.471,0,0,1,.966,1.887c0,.247.2,1.258.382,2.247,1.168,5.842,1.977,11.234-1.146,12.222a4.65,4.65,0,0,1-1.505.225Z" transform="matrix(0.996, -0.087, 0.087, 0.996, 1069.785, 2472.411)"/>
    <path id="Path_2823" data-name="Path 2823" class="cls-11" d="M143.362,233.188l1.685,94.926L89.44,430.9l10.11,6.74s79.2-85.939,82.007-93.8,19.1-78.637,19.1-78.637,5.617-23.029-3.932-35.387S155.158,207.912,143.362,233.188Z" transform="matrix(0.996, -0.087, 0.087, 0.996, 932.952, 2525.291)"/>
    <path id="Path_2824" data-name="Path 2824" class="cls-11" d="M100.17,439.388a1.278,1.278,0,0,1-.629-.18l-10.11-6.74a1.168,1.168,0,0,1-.359-1.483l55.473-102.52-1.685-94.634a1.213,1.213,0,0,1,0-.494A26.961,26.961,0,0,1,165.169,217c13.323-1.483,27.231,5.325,32.96,12.739,9.773,12.649,4.381,35.387,4.134,36.353-.652,2.876-16.334,70.908-19.12,78.749s-79,90.657-82.232,94.184A1.123,1.123,0,0,1,100.17,439.388Zm-8.65-8.223,8.47,5.639c22.468-24.377,78.906-86.5,81.131-92.724,2.741-7.706,18.9-77.805,19.053-78.5,0-.247,5.37-22.67-3.73-34.443-5.235-6.74-18.558-13.278-30.938-11.908a24.714,24.714,0,0,0-20.4,14.829l1.685,94.656a1.213,1.213,0,0,1-.135.562Z" transform="matrix(0.996, -0.087, 0.087, 0.996, 932.28, 2524.727)"/>
    <path id="Path_2828" data-name="Path 2828" class="cls-4" d="M110.508,319.11s.562,16.851,1.685,19.659,5.617,15.727,7.3,18.536-.562,4.494-3.37,4.494-9.549,0-12.357-2.808-7.3-12.357-11.234-16.851-14.6-10.11-11.234-15.727,19.1-14.042,19.1-14.042Z" transform="matrix(0.996, -0.087, 0.087, 0.996, 932.367, 2644.328)"/>
    <path id="Path_2829" data-name="Path 2829" class="cls-11" d="M116.758,363.585c-3.011,0-10.021,0-13.166-3.145a47.5,47.5,0,0,1-5.212-7.8,69.379,69.379,0,0,0-6.066-9.144,37.685,37.685,0,0,0-4.246-3.842c-4.494-3.707-10.043-8.313-7.1-13.211,3.482-5.819,18.873-14.11,19.524-14.447a1.1,1.1,0,0,1,1.146,0l10.11,6.74a1.146,1.146,0,0,1,.517.9c.225,6.74.831,17.368,1.6,19.277.315.786.876,2.247,1.573,4.2a151.8,151.8,0,0,0,5.662,14.177,3.864,3.864,0,0,1,.315,4.022A5.145,5.145,0,0,1,116.758,363.585Zm-15.727-49.249c-2.853,1.6-15.256,8.628-17.974,13.323-1.82,2.988,1.6,6.156,6.605,10.313a39.579,39.579,0,0,1,4.494,4.089,67.4,67.4,0,0,1,6.313,9.481,50.08,50.08,0,0,0,4.875,7.324c2.471,2.471,8.987,2.471,11.571,2.471a3.213,3.213,0,0,0,2.7-1.033,1.91,1.91,0,0,0-.292-1.752,146.046,146.046,0,0,1-5.842-14.559c-.674-1.865-1.236-3.37-1.55-4.134-1.078-2.719-1.618-16.154-1.73-19.479Z" transform="matrix(0.996, -0.087, 0.087, 0.996, 931.678, 2643.724)"/>
    <path id="Path_2830" data-name="Path 2830" class="cls-11" d="M94.309,331.282A159.121,159.121,0,0,1,84,317.24a15.278,15.278,0,0,0-2.7,3.1c-3.37,5.617,7.3,11.234,11.234,15.727s8.425,14.042,11.234,16.851,9.549,2.808,12.357,2.808,5.055-1.685,3.37-4.493C103.565,350.649,100.937,339.168,94.309,331.282Z" transform="matrix(0.996, -0.087, 0.087, 0.996, 932.896, 2650.377)"/>
    <path id="Path_2831" data-name="Path 2831" class="cls-11" d="M120.616,206.12s-.359,1.034-.9,2.808c-2.629,8.336-9.841,32.87-7.527,42.127,2.808,11.234,26.826,35.679,39.88,48.755,12.245,12.245,51.114,30.444,51.114,30.444s-16.851,44.935-20.783,55.607-17.974,48.305-17.974,48.305l11.234,6.74s46.62-64.594,56.169-77.513,20.827-31.792,17.412-37.633C218.664,273.7,182.4,245.438,182.4,245.438l3.932-15.166Z" transform="matrix(0.996, -0.087, 0.087, 0.996, 959.434, 2508.986)"/>
    <path id="Path_2832" data-name="Path 2832" class="cls-11" d="M176.272,442.618a1.08,1.08,0,0,1-.584-.157l-11.234-6.74a1.1,1.1,0,0,1-.472-1.348s14.042-37.633,17.974-48.305c3.572-9.684,17.974-48.036,20.423-54.641-6.156-2.921-39.161-18.918-50.485-30.242-17.3-17.3-37.5-38.532-40.195-49.272-2.247-9.369,4.494-33,7.549-42.689l.9-2.831a1.191,1.191,0,0,1,.584-.652,1.079,1.079,0,0,1,.876,0l65.718,24.153a1.123,1.123,0,0,1,.7,1.348l-3.752,14.447a313.964,313.964,0,0,1,66.549,80.187c4.741,8.066-13.728,33.7-17.48,38.869-9.436,12.762-55.7,76.862-56.169,77.491a1.078,1.078,0,0,1-.9.382Zm-9.863-8.335,9.549,5.729c5.5-7.639,46.733-64.729,55.585-76.7,10.717-14.492,20.221-31.657,17.345-36.4-30.129-51.271-66.3-79.715-66.572-80.03a1.1,1.1,0,0,1-.4-1.168l3.685-14.177-63.673-23.366q-.2.674-.539,1.685c-2.247,7.459-9.773,32.443-7.5,41.52,2.876,11.5,29.567,38.195,39.588,48.216,11.975,11.975,50.417,30.062,50.8,30.241a1.123,1.123,0,0,1,.584,1.415c-.18.449-16.9,45.048-20.783,55.585C180.473,396.537,168.543,428.553,166.408,434.283Z" transform="matrix(0.996, -0.087, 0.087, 0.996, 958.774, 2508.453)"/>
    <path id="Path_2836" data-name="Path 2836" class="cls-4" d="M157.967,228.467a1.034,1.034,0,0,1-.517-.135c-7.572-4.044-17.974-8.987-20-10a91.053,91.053,0,0,0-10.223,2.7,1.124,1.124,0,1,1-.831-2.089,102.581,102.581,0,0,1,10.942-2.9,1.124,1.124,0,0,1,.719,0c.135,0,12.02,5.729,20.446,10.223a1.123,1.123,0,0,1-.539,2.112Z" transform="matrix(0.996, -0.087, 0.087, 0.996, 977.841, 2519.721)"/>
    <path id="Path_2837" data-name="Path 2837" class="cls-4" d="M122.884,219.314a1.136,1.136,0,0,1-.337-2.247,64.326,64.326,0,0,1,21.344-2.247,1.123,1.123,0,0,1,0,2.247,62.912,62.912,0,0,0-20.558,2.247.921.921,0,0,1-.449,0Z" transform="matrix(0.996, -0.087, 0.087, 0.996, 972.587, 2518.565)"/>
    <path id="Path_2838" data-name="Path 2838" class="cls-4" d="M155.813,314.36l7.864,17.412s15.727,7.864,15.727,10.11-3.37,2.808-3.37,2.808H153.567c-2.808,0-10.11-7.3-16.851-11.234s-9.549-5.617-8.987-10.672S144.58,307.62,144.58,307.62Z" transform="matrix(0.996, -0.087, 0.087, 0.996, 990.235, 2633.321)"/>
    <path id="Path_2839" data-name="Path 2839" class="cls-11" d="M154.194,346.432c-1.887,0-4.494-1.932-8.875-5.325a81.905,81.905,0,0,0-8.538-6.066c-6.74-3.954-10.2-5.931-9.549-11.773.607-5.437,15.727-14.919,17.367-15.974a1.1,1.1,0,0,1,1.168,0L157,314.033a1.055,1.055,0,0,1,.449.494l7.706,17.053c10.6,5.325,16,8.987,16,10.942,0,2.516-2.719,3.64-4.314,3.909Zm-8.987-36.869c-6.134,3.864-15.39,10.784-15.727,13.975-.449,4.179,1.528,5.527,8.448,9.571a88.926,88.926,0,0,1,8.807,6.223c2.943,2.247,6.268,4.853,7.482,4.853h22.468s2.247-.494,2.247-1.685c-.562-1.191-8.291-5.707-15.121-9.1a1.19,1.19,0,0,1-.517-.539l-7.729-17.031Z" transform="matrix(0.996, -0.087, 0.087, 0.996, 989.556, 2632.762)"/>
    <path id="Path_2840" data-name="Path 2840" class="cls-11" d="M143.748,321.263a39.564,39.564,0,0,0-14.492-8.223,6.515,6.515,0,0,0-1.528,2.988c-.562,5.055,2.247,6.74,8.987,10.672s14.042,11.234,16.851,11.234h22.468s3.37-.562,3.37-2.809v-.2a149.505,149.505,0,0,1-19.637-2.382C146.4,329.868,151.05,327.891,143.748,321.263Z" transform="matrix(0.996, -0.087, 0.087, 0.996, 990.824, 2640.053)"/>
    <path id="Path_2841" data-name="Path 2841" class="cls-10" d="M187.5,150.3a58.191,58.191,0,0,0-28.444,14.042c-11.908,11.526-19.816,27.748-20.535,35.319s-10.942,43.992-14.784,51.518-12.649,20.378-6.853,27.725c2.921,3.685,61.247,23.052,67.021,23.052s7.572-5.392,8.291-8.628,7.909-32.8,13.683-43.61S224.618,231.749,226.1,206.5a73.379,73.379,0,0,0-10.448-42.509S198.668,149.944,187.5,150.3Z" transform="matrix(0.996, -0.087, 0.087, 0.996, 957.374, 2439.303)"/>
    <path id="Path_2842" data-name="Path 2842" class="cls-11" d="M184.529,303.671c-5.662,0-64.55-19.232-67.9-23.479-5.415-6.875.517-17.592,4.831-25.433.719-1.281,1.371-2.449,1.91-3.5,3.775-7.392,13.952-43.834,14.649-51.114.786-8.4,9.369-24.872,20.872-35.948a58.865,58.865,0,0,1,29.073-14.357h.135c11.481-.4,28.152,13.368,28.848,13.952a.967.967,0,0,1,.2.225,73.807,73.807,0,0,1,10.65,43.205c-1.056,18.513-8.4,27.725-14.289,35.139a59.538,59.538,0,0,0-6.021,8.56c-5.527,10.38-12.514,38.555-13.481,43.3C192.5,300.48,189.337,303.671,184.529,303.671Zm3.707-151.657c-1.123.18-16.671,2.943-27.792,13.728-12.133,11.773-19.524,27.68-20.221,34.6-.719,7.639-10.9,44.171-14.874,51.923-.562,1.078-1.213,2.247-1.932,3.572-4.022,7.28-9.526,17.278-5.033,22.962,2.494,2.966,59.966,22.625,66.122,22.625,3.685,0,6.021-2.539,7.19-7.751,1.056-4.808,8.133-33.3,13.8-43.879a59.743,59.743,0,0,1,6.246-8.987c6-7.527,12.784-16.087,13.8-33.881a73.155,73.155,0,0,0-10.155-41.677c-1.528-1.168-17.008-13.615-27.141-13.233Z" transform="matrix(0.996, -0.087, 0.087, 0.996, 956.703, 2438.771)"/>
    <path id="Path_2847" data-name="Path 2847" class="cls-11" d="M161.2,181.2a83.127,83.127,0,0,1-19.165-2.134,1.123,1.123,0,0,1-.786-1.371,1.1,1.1,0,0,1,1.348-.809,83.691,83.691,0,0,0,34.128.472,1.123,1.123,0,0,1,1.326.876,1.1,1.1,0,0,1-.854,1.326,76.147,76.147,0,0,1-16,1.64Z" transform="matrix(0.996, -0.087, 0.087, 0.996, 992.86, 2469.435)"/>
    <path id="Path_2848" data-name="Path 2848" class="cls-11" d="M171.179,190.361h0a90.993,90.993,0,0,1-33.162-10.74,1.123,1.123,0,1,1,1.123-1.932c.157,0,15.862,8.987,32.241,10.425a1.125,1.125,0,0,1-.112,2.247Z" transform="matrix(0.996, -0.087, 0.087, 0.996, 988.137, 2470.624)"/>
    <path id="Path_2849" data-name="Path 2849" class="cls-11" d="M149.948,198.264a1.168,1.168,0,0,1-.966-.539,1.123,1.123,0,0,1,.382-1.55,95.456,95.456,0,0,0,8.852-6.044,1.128,1.128,0,1,1,1.393,1.775,98.856,98.856,0,0,1-8.987,6.134A1.123,1.123,0,0,1,149.948,198.264Z" transform="matrix(0.996, -0.087, 0.087, 0.996, 1003.721, 2484.806)"/>
    <path id="Path_2850" data-name="Path 2850" class="cls-11" d="M124.624,216.716a1.136,1.136,0,1,1-.337-2.247,317.767,317.767,0,0,0,48.575-19.637,1.131,1.131,0,1,1,1.056,2A313.133,313.133,0,0,1,124.961,216.6.9.9,0,0,1,124.624,216.716Z" transform="matrix(0.996, -0.087, 0.087, 0.996, 972.575, 2493.546)"/>
    <path id="Path_2851" data-name="Path 2851" class="cls-11" d="M119.852,207.7a1.1,1.1,0,0,1-1.078-.809,1.123,1.123,0,0,1,.786-1.393s1.258-.337,3.46-.989a1.17,1.17,0,0,1,.652,2.247l-3.527,1.034Z" transform="matrix(0.996, -0.087, 0.087, 0.996, 967.937, 2506.164)"/>
    <path id="Path_2852" data-name="Path 2852" class="cls-11" d="M124.476,217.821a1.141,1.141,0,1,1-.4-2.247,336.251,336.251,0,0,0,33.544-14.851,1.121,1.121,0,0,1,1.056,1.977,347.424,347.424,0,0,1-33.7,14.986,1.146,1.146,0,0,1-.494.135Z" transform="matrix(0.996, -0.087, 0.087, 0.996, 972.982, 2500.881)"/>
    <path id="Path_2853" data-name="Path 2853" class="cls-2" d="M230.258,187.981s6.426,17.727,11.234,19.322,26.579-5.639,28.983-16.087-31.455-27.388-40.24-31.455-37.027-5.639-53.136-8.043-30.6-11.234-40.24-13.683-36.24,1.618-36.24,1.618l18.513,12.065s29.792,7.235,41.071,7.235,20.917-4.831,36.218,0,34.623,9.661,46.688,15.3,21.726,8.852,21.726,16.109S252.007,204.09,249.58,204.09s-8.066-19.322-14.492-20.94C235.089,183.15,227.023,179.129,230.258,187.981Z" transform="matrix(0.996, -0.087, 0.087, 0.996, 938.14, 2424.657)"/>
    <path id="Path_2854" data-name="Path 2854" class="cls-11" d="M243.891,209.24a7.1,7.1,0,0,1-2.112-.27c-5.212-1.73-11.234-18.154-11.975-20.019-1.168-3.19-1.1-5.3.2-6.471,1.842-1.64,5.19-.225,6.066.2,4.359,1.213,7.976,8.717,10.9,14.739a32.085,32.085,0,0,0,3.37,6.111c2.247-.27,14-6.313,14-12.537,0-5.527-6.74-8.628-16.289-12.9-1.528-.7-3.145-1.415-4.786-2.247a254.689,254.689,0,0,0-32.623-11.032c-4.786-1.415-9.526-2.809-13.93-4.2-10.066-3.168-17.66-2.067-24.984-.989a73.624,73.624,0,0,1-10.9,1.034c-11.234,0-40.1-6.965-41.34-7.257l-.337-.157-18.513-12.088a1.123,1.123,0,0,1,.449-2.045c1.078-.157,26.961-4.022,36.667-1.6a97.933,97.933,0,0,1,13.144,4.92,111.8,111.8,0,0,0,26.961,8.74c5.123.786,11.391,1.46,17.974,2.247,14.357,1.55,29.208,3.145,35.387,5.976,4.494,2.022,43.745,20.221,40.891,32.668-1.213,5.257-6.583,9.234-10.874,11.661A42.33,42.33,0,0,1,243.891,209.24Zm-11.975-21.052c2.4,6.74,7.414,17.592,10.56,18.648a18.424,18.424,0,0,0,8.2-1.078h-.494c-1.6,0-2.7-2.134-5.235-7.392s-6.156-12.739-9.526-13.481h-.247c-1.123-.562-3.1-1.1-3.685-.584-.135,0-.719.854.427,4.022Zm-48.53-31.859a45.227,45.227,0,0,1,14,2.247c4.494,1.371,9.1,2.764,13.885,4.179,11.93,3.483,24.265,7.1,32.938,11.234l4.763,2.247c9.841,4.494,17.615,7.954,17.615,14.941,0,6-7.549,11.369-12.6,13.638a45.482,45.482,0,0,0,6.246-2.9c5.5-3.078,8.987-6.74,9.773-10.2,1.842-7.976-23.321-22.715-39.61-30.107-5.864-2.674-21.187-4.336-34.713-5.8-6.74-.719-12.964-1.393-18.109-2.247a114.156,114.156,0,0,1-27.545-8.987,95.6,95.6,0,0,0-12.829-4.808c-7.437-1.865-25.658.27-32.825,1.236l15.727,10.313c2.539.629,30.062,7.167,40.622,7.167a73.631,73.631,0,0,0,10.582-1.011,80.268,80.268,0,0,1,12.088-1.079Z" transform="matrix(0.996, -0.087, 0.087, 0.996, 937.482, 2424.057)"/>
    <path id="Path_2855" data-name="Path 2855" class="cls-4" d="M192.631,124.624s8.987,10.447,8.987,12.267.359,4.314.359,5.392,12.627,6.74,12.627,8.987-8.291,7.212-8.291,7.212V178.7c0,3.954-2.247,5.033-6.134,6.471s-13.323-.359-13.323-.359L176.05,205.035l-24.13-17.974,6.74-14.761-2.247-4.314s-11.885-6.74-9.369-17.974,11.885-12.6,14.784-16.941,7.549-14.042,11.885-15.48S192.631,124.624,192.631,124.624Z" transform="matrix(0.996, -0.087, 0.087, 0.996, 993.211, 2395.029)"/>
    <path id="Path_2856" data-name="Path 2856" class="cls-11" d="M176.574,206.773a1.056,1.056,0,0,1-.674-.225l-24.13-17.974a1.123,1.123,0,0,1-.359-1.371l6.628-14.267-1.775-3.55c-1.91-1.213-12.043-8.268-9.616-19.053,1.8-7.864,6.74-11.234,10.672-13.773a15.052,15.052,0,0,0,4.269-3.55c.674-.989,1.438-2.247,2.247-3.707,2.9-4.9,6.493-10.987,10.2-12.222,4.494-1.505,17.188,5.819,19.659,7.324a.652.652,0,0,1,.27.225c3.482,4.022,9.279,11.054,9.279,12.986a32.2,32.2,0,0,0,.225,3.235,7.133,7.133,0,0,0,.135,1.8,44.424,44.424,0,0,0,4.157,2.561c5.752,3.325,8.47,5.078,8.47,6.74,0,2.247-4.965,5.774-8.291,7.841V179.34c0,4.673-2.719,6.021-6.875,7.527-3.527,1.281-10.672.247-13.1-.157L177.54,206.167a1.1,1.1,0,0,1-.741.562Zm-22.737-19.479L176.3,203.965l10.2-19.008a1.1,1.1,0,0,1,1.191-.584c2.539.494,9.728,1.505,12.739.4,3.909-1.415,5.392-2.247,5.392-5.415V159.142a1.123,1.123,0,0,1,.539-.966c3.954-2.4,7.594-5.347,7.751-6.268a41.34,41.34,0,0,0-7.347-4.853c-4.269-2.449-5.28-3.078-5.28-4.134a11.45,11.45,0,0,0-.135-1.955,26.22,26.22,0,0,1-.225-3.438,72.057,72.057,0,0,0-8.605-11.391c-5.437-3.235-14.874-7.931-17.637-7.01s-6.426,6.9-8.987,11.234c-.854,1.46-1.64,2.786-2.247,3.82a16.491,16.491,0,0,1-4.876,4.156c-3.819,2.539-8.156,5.415-9.728,12.4-2.247,10.245,8.717,16.716,8.83,16.783a1.146,1.146,0,0,1,.449.472l2.247,4.336a1.123,1.123,0,0,1,0,.966Zm49.788-44.329ZM203.49,142.471Z" transform="matrix(0.996, -0.087, 0.087, 0.996, 992.629, 2394.396)"/>
    <g id="Group_8100" data-name="Group 8100" transform="matrix(0.996, -0.087, 0.087, 0.996, 1149.582, 2499.225)">
      <path id="Path_2857" data-name="Path 2857" class="cls-2" d="M191.43,173.7c-12.312-4.089-11.234-11.706-11.728-22.85s-9.953-28.13-9.953-28.13l-5.168-.359c-.989,1.685-1.91,3.235-2.674,4.494-2.9,4.336-12.267,5.774-14.784,16.941s9.369,17.974,9.369,17.974l2.247,4.314L152,180.843l24.13,17.974L186.937,178.6s9.369,1.8,13.323.359a16.872,16.872,0,0,0,4.022-1.887A96.348,96.348,0,0,1,191.43,173.7Z" transform="translate(-146.595 -111.277)"/>
      <path id="Path_2858" data-name="Path 2858" class="cls-12" d="M191.43,173.7c-12.312-4.089-11.234-11.706-11.728-22.85s-9.953-28.13-9.953-28.13l-5.168-.359c-.989,1.685-1.91,3.235-2.674,4.494-2.9,4.336-12.267,5.774-14.784,16.941s9.369,17.974,9.369,17.974l2.247,4.314L152,180.843l24.13,17.974L186.937,178.6s9.369,1.8,13.323.359a16.872,16.872,0,0,0,4.022-1.887A96.348,96.348,0,0,1,191.43,173.7Z" transform="translate(-146.595 -111.277)"/>
      <path id="Path_2859" data-name="Path 2859" class="cls-11" d="M165.828,131.414a1.146,1.146,0,0,1-1.011-1.618,11.234,11.234,0,0,1,3.595-3.662c3.078-2.247,7.864.539,8.066.652a1.146,1.146,0,0,1,.4,1.55,1.1,1.1,0,0,1-1.528.4c-1.034-.607-4.044-1.91-5.617-.786a9.594,9.594,0,0,0-2.9,2.853A1.146,1.146,0,0,1,165.828,131.414Z" transform="translate(-124.228 -107.66)"/>
      <path id="Path_2860" data-name="Path 2860" class="cls-11" d="M173.692,133.235h-6.066a1.112,1.112,0,0,1-.449-2.134l5.752-2.539a1.127,1.127,0,1,1,.9,2.067l-.831.359h.741a1.124,1.124,0,1,1-.045,2.247Z" transform="translate(-122.004 -103.661)"/>
    </g>
    <path id="Path_2863" data-name="Path 2863" class="cls-11" d="M176.335,160.217a3.258,3.258,0,0,0,2.876,2.516,4.494,4.494,0,0,0,5.055-3.954c0-2.247-2.876-6.853-.719-8.291s6.111-1.8,5.392-5.774-4.673-2.876-3.954-7.19,14.042-4.336,17.3-3.977,3.235-6.471-.359-14.4-17.66-10.807-20.535-7.572a4.494,4.494,0,0,0-.359,6.134s-15.862-2.876-17.66,0,0,4.314,0,4.314-12.6-2.516-21.254,13.346,2.516,32.713,8.65,37.206,15.48,8.65,22.692,6.134-3.617-11.234-4.336-15.5S176.335,160.217,176.335,160.217Z" transform="matrix(0.996, -0.087, 0.087, 0.996, 982.815, 2386.98)"/>
    <path id="Path_2864" data-name="Path 2864" class="cls-11" d="M169.4,181.078c-7.909,0-16.019-5.19-18.671-7.077-6.381-4.494-17.974-22-8.987-38.555,6.74-12.514,16.244-14.042,20.378-14.042a5.324,5.324,0,0,1,.9-3.685c1.752-2.763,11.009-1.775,16.649-.876a5.752,5.752,0,0,1,1.483-5.392c1.326-1.483,4.224-2.022,7.931-1.46,5.46.809,12.065,4.022,14.469,9.3,2.921,6.426,3.685,12.357,1.91,14.806a2.853,2.853,0,0,1-2.7,1.191c-4.493-.494-15.57.135-16.064,3.033-.27,1.685.247,2.067,1.281,2.853a6,6,0,0,1,2.674,3.977c.719,3.842-2.247,5.145-4.179,6.021a10.609,10.609,0,0,0-1.685.876c-.719.472,0,2.674.472,4.134a11.615,11.615,0,0,1,.741,3.213,4.942,4.942,0,0,1-1.842,3.662,5.639,5.639,0,0,1-4.494,1.415,4.493,4.493,0,0,1-3.572-2.629,7.549,7.549,0,0,0-5.01.629,1.056,1.056,0,0,0-.225,1.056,16.693,16.693,0,0,0,2.921,5.01c2.247,3.123,4.494,6.358,3.707,8.987a4.494,4.494,0,0,1-3.056,2.741A15.324,15.324,0,0,1,169.4,181.078Zm-7.482-57.472c-3.662,0-11.93,1.393-18.2,12.919-8.358,15.3,2.4,31.455,8.291,35.634s15.188,8.268,21.681,6c1.393-.494,1.6-1.1,1.64-1.3.517-1.573-1.64-4.493-3.393-7.01a17.278,17.278,0,0,1-3.3-5.954,3.325,3.325,0,0,1,.876-3.033c2.112-2.067,7.077-1.236,7.639-1.123a1.1,1.1,0,0,1,.9.9,2.247,2.247,0,0,0,1.932,1.618,3.617,3.617,0,0,0,2.719-.876,2.853,2.853,0,0,0,1.056-1.977,11.934,11.934,0,0,0-.629-2.516c-.764-2.359-1.73-5.28.4-6.74a14.241,14.241,0,0,1,2.022-1.034c2.247-.966,3.258-1.573,2.9-3.595a3.752,3.752,0,0,0-1.82-2.561,4.494,4.494,0,0,1-2.247-5.01c1.034-6.224,18.334-4.92,18.513-4.9a.629.629,0,0,0,.629-.27c.921-1.281.854-6-2.134-12.559-2.045-4.494-8.043-7.324-12.762-8.043-3.19-.472-5.28,0-5.909.764a3.393,3.393,0,0,0-.359,4.628,1.146,1.146,0,0,1,.135,1.3,1.123,1.123,0,0,1-1.168.539c-8.066-1.46-15.727-1.708-16.514-.517-1.258,2.022-.247,2.853-.247,2.853a1.123,1.123,0,0,1-.921,1.977,10.664,10.664,0,0,0-1.73-.112Z" transform="matrix(0.996, -0.087, 0.087, 0.996, 982.146, 2386.418)"/>
    <path id="Path_2865" data-name="Path 2865" class="cls-4" d="M165.479,139.238s-2.247-7.909-7.909-8.628-8.987,5.752-5.774,11.885,10.088,10.447,12.245,9.728,3.258-4.7,3.258-4.7" transform="matrix(0.996, -0.087, 0.087, 0.996, 999.415, 2410.917)"/>
    <path id="Path_2866" data-name="Path 2866" class="cls-11" d="M164.217,154.046c-3.348,0-9.661-4.493-12.739-10.4a10.156,10.156,0,0,1,0-10.537,6.965,6.965,0,0,1,6.74-2.988c6.426.809,8.762,9.122,8.987,9.459a1.164,1.164,0,1,1-2.247.607s-2.045-7.212-6.987-7.841a4.673,4.673,0,0,0-4.673,2.045,8.043,8.043,0,0,0,0,8.2c3.168,5.954,9.5,9.639,10.9,9.189s2.247-2.808,2.516-3.909a1.161,1.161,0,0,1,2.247.584c-.135.472-1.326,4.494-3.977,5.46a2.517,2.517,0,0,1-.764.135Z" transform="matrix(0.996, -0.087, 0.087, 0.996, 998.693, 2410.347)"/>
    <path id="Path_2867" data-name="Path 2867" class="cls-10" d="M150.826,145.81l32.78,21.614-1.82,15.84-35.656-28.8Z" transform="matrix(0.996, -0.087, 0.087, 0.996, 995.594, 2430.343)"/>
    <path id="Path_2868" data-name="Path 2868" class="cls-11" d="M182.406,185.036a1.011,1.011,0,0,1-.7-.247l-35.656-28.8a1.146,1.146,0,0,1-.292-1.415l4.7-8.65a1.1,1.1,0,0,1,1.6-.4l32.78,21.546a1.146,1.146,0,0,1,.494,1.078l-1.8,15.727a1.146,1.146,0,0,1-.7.921,1.3,1.3,0,0,1-.427.247Zm-34.218-30.219,33.342,26.961,1.483-13.121L151.85,148.1Z" transform="matrix(0.996, -0.087, 0.087, 0.996, 994.924, 2429.795)"/>
    <path id="Path_2869" data-name="Path 2869" class="cls-10" d="M205.076,156.06,190.158,163.5c-3.19,1.618-68.729,20.221-71.38,23.973S93.21,273.251,93.21,273.251l14.919,4.269,31.792-59.135s79.917-17.053,84.7-18.648,10.65-8.538,11.728-14.919" transform="matrix(0.996, -0.087, 0.087, 0.996, 930.979, 2448.824)"/>
    <path id="Path_2870" data-name="Path 2870" class="cls-11" d="M108.775,279.275h-.315l-15.008-4.314a1.1,1.1,0,0,1-.764-1.393c2.247-8.4,23.029-82.321,25.725-86.118,1.73-2.4,19.614-8.223,54.214-18.76,8.987-2.741,16.649-5.1,17.592-5.55l14.919-7.459a1.1,1.1,0,0,1,1.505.494,1.123,1.123,0,0,1-.517,1.505l-14.919,7.459c-1.034.517-6.853,2.247-17.974,5.684-17.794,5.437-50.912,15.548-53.046,17.974s-15.907,51.451-25.1,84.321l12.986,3.707,31.455-58.416a1.1,1.1,0,0,1,.764-.562c.786-.18,79.895-17.053,84.568-18.626,4.224-1.393,9.953-7.841,10.987-14.02a1.078,1.078,0,0,1,1.281-.921,1.1,1.1,0,0,1,.921,1.281c-1.078,6.448-7.01,13.975-12.47,15.727-4.651,1.55-76.884,16.986-84.321,18.581l-31.7,58.663A1.124,1.124,0,0,1,108.775,279.275Z" transform="matrix(0.996, -0.087, 0.087, 0.996, 930.214, 2448.257)"/>
    <g id="Group_8094" data-name="Group 8094" class="cls-13" transform="matrix(0.996, -0.087, 0.087, 0.996, 1037.438, 2596.166)">
      <path id="Path_2871" data-name="Path 2871" class="cls-2" d="M155.481,169.492c-18.334,5.662-37.925,11.975-39.363,13.975-1.887,2.651-13.952,44.666-20.828,68.886,10.133-5.212,26.4-14.042,20.828-14.469-7.617-.607-8.785-4.7,1.168-11.728s29.208-21.1,24.04-22.265-23.434-3.527-12.312-9.391,72.683,0,83.8-5.28-14.065-7.617-28.714-9.369,13.481-1.753,13.481-1.753,9.976-.584,7.617-11.234-12.559-6.74-17.7-7.459c-1.371.7-14.334,4.494-28.826,8.987Z" transform="translate(-90.617 -152.057)"/>
      <path id="Path_2872" data-name="Path 2872" class="cls-12" d="M155.481,169.492c-18.334,5.662-37.925,11.975-39.363,13.975-1.887,2.651-13.952,44.666-20.828,68.886,10.133-5.212,26.4-14.042,20.828-14.469-7.617-.607-8.785-4.7,1.168-11.728s29.208-21.1,24.04-22.265-23.434-3.527-12.312-9.391,72.683,0,83.8-5.28-14.065-7.617-28.714-9.369,13.481-1.753,13.481-1.753,9.976-.584,7.617-11.234-12.559-6.74-17.7-7.459c-1.371.7-14.334,4.494-28.826,8.987Z" transform="translate(-90.617 -152.057)"/>
    </g>
    <path id="Path_2875" data-name="Path 2875" class="cls-4" d="M112.585,212.514s3.73,18.109,3.73,19.7-5.347,5.864-5.347,5.864l-3.19,4.786s-5.864,2.247-7.459,0a21.951,21.951,0,0,1-2.651-5.909s-6.942.539-8-4.246,8-24.512,8-24.512Z" transform="matrix(0.996, -0.087, 0.087, 0.996, 932.14, 2513.977)"/>
    <path id="Path_2876" data-name="Path 2876" class="cls-11" d="M103.633,245.542a4.336,4.336,0,0,1-3.595-1.393,21.076,21.076,0,0,1-2.584-5.392c-2.112,0-7.257-.584-8.268-5.168-1.1-5.01,7.122-23.164,8.066-25.231a1.146,1.146,0,0,1,1.326-.607L113.5,212a1.191,1.191,0,0,1,.809.876c.607,3.033,3.752,18.289,3.752,19.929s-3.46,4.875-5.617,6.74l-3.1,4.651a1.191,1.191,0,0,1-.562.427,16.448,16.448,0,0,1-5.145.921Zm-5.347-8.987a1.124,1.124,0,0,1,1.078.809,20.783,20.783,0,0,0,2.471,5.5c.674.9,3.707.449,5.842-.27l2.988-4.494a1.167,1.167,0,0,1,.225-.247,20.716,20.716,0,0,0,4.92-5.033c0-1.033-2.247-11.8-3.572-18.783l-13.346-3.8c-3.415,7.594-8.2,19.817-7.5,22.917.831,3.8,6.74,3.393,6.74,3.37Z" transform="matrix(0.996, -0.087, 0.087, 0.996, 931.469, 2513.426)"/>
    <line id="Line_275" data-name="Line 275" class="cls-4" x2="16.514" y2="4.786" transform="matrix(0.996, -0.087, 0.087, 0.996, 1049.297, 2702.077)"/>
    <path id="Path_2877" data-name="Path 2877" class="cls-11" d="M111.494,209.966h-.315l-16.514-4.741a1.146,1.146,0,0,1-.764-1.393,1.1,1.1,0,0,1,1.393-.764l16.514,4.786a1.134,1.134,0,0,1-.315,2.247Z" transform="matrix(0.996, -0.087, 0.087, 0.996, 936.893, 2507.075)"/>
  </g>
</svg>
