<svg xmlns="http://www.w3.org/2000/svg" xmlns:xlink="http://www.w3.org/1999/xlink" width="706" height="557.024" viewBox="0 0 706 557.024">
    <defs>
      <style>
        .cls-1, .cls-21 {
          fill: #92e3a9;
        }
  
        .cls-1, .cls-10, .cls-15, .cls-16, .cls-2, .cls-8 {
          stroke: #263238;
        }
  
        .cls-1, .cls-10, .cls-15, .cls-16, .cls-19, .cls-2, .cls-8 {
          stroke-linecap: round;
          stroke-linejoin: round;
        }
  
        .cls-2 {
          fill: #ccc;
        }
  
        .cls-3 {
          fill: #8167f2;
        }
  
        .cls-10, .cls-11, .cls-22, .cls-4 {
          fill: #fff;
        }
  
        .cls-4 {
          opacity: 0.7;
        }
  
        .cls-5 {
          fill: #8656e9;
        }
  
        .cls-6 {
          clip-path: url(#clip-path);
        }
  
        .cls-13, .cls-7, .cls-9 {
          opacity: 0.3;
        }
  
        .cls-16, .cls-19, .cls-24, .cls-8 {
          fill: none;
        }
  
        .cls-12 {
          clip-path: url(#clip-path-2);
        }
  
        .cls-13, .cls-23 {
          fill: #8d3ddc;
        }
  
        .cls-14 {
          clip-path: url(#clip-path-3);
        }
  
        .cls-15, .cls-18 {
          fill: #263238;
        }
  
        .cls-16 {
          stroke-width: 5px;
        }
  
        .cls-17 {
          clip-path: url(#clip-path-4);
        }
  
        .cls-19 {
          stroke: #666;
          stroke-width: 3px;
        }
  
        .cls-20 {
          clip-path: url(#clip-path-5);
        }
  
        .cls-22 {
          stroke: #707070;
        }
  
        .cls-25 {
          stroke: none;
        }
      </style>
      <clipPath id="clip-path">
        <path id="Path_3167" data-name="Path 3167" class="cls-1" d="M514.312,486.781c-11.514-44.776-26.281-165.6-29.144-171.9s-41.425-9.576-78.586-16.058-69.521-31.227-83.069-32.409a169.432,169.432,0,0,0-22.979-.585S150.673,300.734,127.67,301.916s-37.7,2.949-38.294,11.2c-.512,7.225-10.868,140.894-11.307,173.669" transform="translate(-78.07 -265.675)"/>
      </clipPath>
      <clipPath id="clip-path-2">
        <path id="Path_3173" data-name="Path 3173" class="cls-2" d="M218.12,219.86s-4.118,48.906-2.351,60.091S247,334.778,264.663,335.923s48.955-47.127,48.955-58.909V226.927s-27.109,14.73-54.827,7.664S220.5,221.042,220.5,221.042Z" transform="translate(-215.328 -219.86)"/>
      </clipPath>
      <clipPath id="clip-path-3">
        <path id="Path_3186" data-name="Path 3186" class="cls-2" d="M205.678,183.239s2.961,35.93,2.961,50.66,6.482,33.591,34.176,50.076,64.806,6.482,80.718-10.015,10.015-50.66,8.833-67.157-1.218-34.761-1.218-43.594S332.366,124.318,322.9,109s-68.924-17.679-93.669-4.715S198,140.839,199.769,147.882,205.678,183.239,205.678,183.239Z" transform="translate(-199.496 -95.875)"/>
      </clipPath>
      <clipPath id="clip-path-4">
        <path id="Path_3192" data-name="Path 3192" class="cls-2" d="M272.652,162.74s-1.218,20.627.585,30.642,8.833,23.564-5.3,27.1-20.03-3.533-18.861-13.548" transform="translate(-248.931 -162.74)"/>
      </clipPath>
      <clipPath id="clip-path-5">
        <path id="Path_3199" data-name="Path 3199" class="cls-2" d="M232.04,493.74l49-126.1s3.533-2.351,12.367-11.782,5.312-22.394,5.312-22.394a6.019,6.019,0,0,0,5.885,4.13c4.715,0,11.2-1.218,14.145-7.664s-.6-20.03-2.364-31.227-8.833-32.4-14.133-32.4-33.579,8.833-33.579,8.833-2.949-13.548-2.364-17.667,25.952-10.027,28.279-8.809,5.3,4.13,10.015,2.364,0-6.482-3.533-13.548-30.045-2.364-38.294,1.218-20.615,5.9-17.679,18.276,7.664,87.2,7.664,87.2,0,5.3-7.067,17.667c-5.982,10.466-77.9,103.563-99.968,132" transform="translate(-145.73 -233.812)"/>
      </clipPath>
    </defs>
    <g id="Group_8315" data-name="Group 8315" transform="translate(-1104 -1370)">
      <g id="Moral-bro" transform="translate(1162.378 1440)">
        <g id="freepik--background-simple--inject-2" transform="translate(0 0)">
          <path id="Path_3155" data-name="Path 3155" class="cls-3" d="M474.4,81.44s-60.98-49.8-140.309-27.718-112.518,90.4-158.012,137.385c-23.832,24.6-59.006,33.664-87.309,52.6-90.489,60.542-77.1,196.66-7.31,248.014,60.407,44.447,135.886,49.1,234.112,16.314S484.1,455.545,545.02,361.644,549.516,149.036,474.4,81.44Z" transform="translate(-24.991 -48.076)"/>
          <path id="Path_3156" data-name="Path 3156" class="cls-4" d="M474.4,81.44s-60.98-49.8-140.309-27.718-112.518,90.4-158.012,137.385c-23.832,24.6-59.006,33.664-87.309,52.6-90.489,60.542-77.1,196.66-7.31,248.014,60.407,44.447,135.886,49.1,234.112,16.314S484.1,455.545,545.02,361.644,549.516,149.036,474.4,81.44Z" transform="translate(-24.991 -48.076)"/>
        </g>
        <g id="freepik--character-2--inject-2" transform="translate(64.671 23.903)">
          <path id="Path_3157" data-name="Path 3157" class="cls-5" d="M514.312,486.781c-11.514-44.776-26.281-165.6-29.144-171.9s-41.425-9.576-78.586-16.058-69.521-31.227-83.069-32.409a169.432,169.432,0,0,0-22.979-.585S150.673,300.734,127.67,301.916s-37.7,2.949-38.294,11.2c-.512,7.225-10.868,140.894-11.307,173.669" transform="translate(-78.07 -24.46)"/>
          <g id="Group_8238" data-name="Group 8238" class="cls-6" transform="translate(0 241.215)">
            <g id="Group_8237" data-name="Group 8237" class="cls-7" transform="translate(-3.448 37.272)">
              <path id="Path_3158" data-name="Path 3158" d="M75.24,476.254h54.328c0-7.31-.5-16.546,4.313-25.208,8.626-15.522,31.044-62.138,28.461-79.341s-16.387-24.136-11.209-15.522,8.626,31.057,0,17.252-29.326-61.224-51.745-59.506c-6.3.487-10.49,2.437-13.256,4.874C85.389,356.949,75.593,449.693,75.24,476.254Z" transform="translate(-75.24 -292.419)"/>
              <path id="Path_3159" data-name="Path 3159" d="M432.705,466.2c-9.028-12.428-20.469-30.91-23-47.627-4.313-28.461-5.178-56.923-12.074-58.641S373.48,421.16,373.48,421.16l-1.73-17.277s-12.927,37.075-60.359,59.506q-3.168,1.486-6.421,2.778Z" transform="translate(-25.071 -282.369)"/>
              <path id="Path_3160" data-name="Path 3160" d="M265.869,298.086s-19.787,54.827-44.13,83.7S132.7,483.768,132.7,483.768h43.374s68.485-101.211,89.039-136.983S279.54,289.7,265.869,298.086Z" transform="translate(-62.692 -296.266)"/>
              <path id="Path_3161" data-name="Path 3161" d="M380.505,318.409s-29.107,17.8-32.567,41.108,17.874,22.82,23.685,1.56,22.345-39.2,21.578-45.251S380.505,318.409,380.505,318.409Z" transform="translate(-15.77 -292.465)"/>
            </g>
            <path id="Path_3162" data-name="Path 3162" class="cls-8" d="M361.883,379c-1.864,6.47-3.533,13.512-3.533,17.971,0,10.052,6.189,63.429,6.189,63.429" transform="translate(-16.861 -240.926)"/>
            <path id="Path_3163" data-name="Path 3163" class="cls-8" d="M365.725,366.41s-.938,2.583-2.205,6.4" transform="translate(-15.732 -243.676)"/>
            <line id="Line_277" data-name="Line 277" class="cls-8" x1="4.642" y1="25.525" transform="translate(336.847 130.471)"/>
            <path id="Path_3164" data-name="Path 3164" class="cls-8" d="M153.185,353.26a47.517,47.517,0,0,1,.634,16.022c-2.327,21.663-2.839,96.46-2.839,96.46" transform="translate(-62.148 -246.547)"/>
            <path id="Path_3165" data-name="Path 3165" class="cls-8" d="M147.59,344.2a12.184,12.184,0,0,1,3.85,4.471" transform="translate(-62.888 -248.526)"/>
            <path id="Path_3166" data-name="Path 3166" class="cls-8" d="M163.632,350.54s6.189,9.284,0,21.663-11.562,30.35-11.562,30.35" transform="translate(-61.91 -247.142)"/>
          </g>
          <path id="Path_3168" data-name="Path 3168" class="cls-8" d="M514.312,486.781c-11.514-44.776-26.281-165.6-29.144-171.9s-41.425-9.576-78.586-16.058-69.521-31.227-83.069-32.409a169.432,169.432,0,0,0-22.979-.585S150.673,300.734,127.67,301.916s-37.7,2.949-38.294,11.2c-.512,7.225-10.868,140.894-11.307,173.669" transform="translate(-78.07 -24.46)"/>
          <path id="Path_3169" data-name="Path 3169" class="cls-9" d="M202.253,283.429s-7.761,13.792-5.178,29.314,1.73,54.34,9.491,48.3,20.091-23.868,27.6-23.283,42.254-9.54,42.254-9.54,30.192,16.387,43.118,21.565,11.221,1.73,6.908-12.939-2.6-25.866-1.73-50.88-66.877-28.9-83.654-24.148S199.67,280.834,202.253,283.429Z" transform="translate(-52.196 -25.686)"/>
          <path id="Path_3170" data-name="Path 3170" class="cls-10" d="M231.191,246.935s-25.33,5.9-31.227,17.679,10.076,65.951,10.076,74.2.6,10.6.6,12.367,4.7,4.13,10.015-4.715,29.448-22.382,38.294-25.33,23.564-6.482,29.448-3.533,30.642,31.812,40.657,35.333.585-5.3,0-12.367,14.133-25.342,4.715-57.155-20.688-38.915-37.222-41.23S231.191,246.935,231.191,246.935Z" transform="translate(-51.736 -29.692)"/>
          <path id="Path_3171" data-name="Path 3171" class="cls-11" d="M218.12,219.86s-4.118,48.906-2.351,60.091S247,334.778,264.663,335.923s48.955-47.127,48.955-58.909V226.927s-27.109,14.73-54.827,7.664S220.5,221.042,220.5,221.042Z" transform="translate(-48.095 -34.465)"/>
          <g id="Group_8239" data-name="Group 8239" class="cls-12" transform="translate(167.234 185.395)">
            <path id="Path_3172" data-name="Path 3172" class="cls-13" d="M287.428,277.837c12.854-3.655,21.029-7.932,26.159-11.636V226.617s-27.109,14.73-54.827,7.664c-22.942-5.86-34.115-11.307-37.319-13-1.218.487-2.437.987-3.655,1.486-.877,11.075-3.594,47.42-2.1,56.874a32.411,32.411,0,0,0,3.192,8.3A110.757,110.757,0,0,1,220.1,275.1c1.377-7.31,4.581-5.495,9.613-1.377S258.162,286.074,287.428,277.837Z" transform="translate(-215.346 -219.55)"/>
          </g>
          <path id="Path_3174" data-name="Path 3174" class="cls-8" d="M218.12,219.86s-4.118,48.906-2.351,60.091S247,334.778,264.663,335.923s48.955-47.127,48.955-58.909V226.927s-27.109,14.73-54.827,7.664S220.5,221.042,220.5,221.042Z" transform="translate(-48.095 -34.465)"/>
          <path id="Path_3175" data-name="Path 3175" class="cls-10" d="M210.343,178.742s-4.715-24.745-13.548-27.1-10.015,25.33-4.715,41.242,19.494,23.564,22.979,15.315S210.343,178.742,210.343,178.742Z" transform="translate(-53.866 -49.393)"/>
          <path id="Path_3176" data-name="Path 3176" class="cls-8" d="M214,191.617s-14.73-29.461-20.03-28.876-1.767,14.73-1.767,14.73" transform="translate(-53.396 -46.941)"/>
          <path id="Path_3177" data-name="Path 3177" class="cls-8" d="M206.155,177.49s-8.845-5.9-8.845,7.067" transform="translate(-52.03 -44.01)"/>
          <path id="Path_3178" data-name="Path 3178" class="cls-10" d="M306.68,178.742s4.715-24.745,13.548-27.1,10.015,25.33,4.715,41.242-19.494,23.564-22.979,15.315S306.68,178.742,306.68,178.742Z" transform="translate(-29.363 -49.393)"/>
          <path id="Path_3179" data-name="Path 3179" class="cls-8" d="M302.29,191.617s14.73-29.461,20.03-28.876,1.767,14.73,1.767,14.73" transform="translate(-29.104 -46.941)"/>
          <path id="Path_3180" data-name="Path 3180" class="cls-8" d="M307.61,177.49s8.845-5.9,8.845,7.067" transform="translate(-27.942 -44.01)"/>
          <path id="Path_3181" data-name="Path 3181" class="cls-11" d="M205.678,183.239s2.961,35.93,2.961,50.66,6.482,33.591,34.176,50.076,64.806,6.482,80.718-10.015,10.015-50.66,8.833-67.157-1.218-34.761-1.218-43.594S332.366,124.318,322.9,109s-68.924-17.679-93.669-4.715S198,140.839,199.769,147.882,205.678,183.239,205.678,183.239Z" transform="translate(-51.552 -61.541)"/>
          <g id="Group_8240" data-name="Group 8240" class="cls-14" transform="translate(147.944 34.334)">
            <path id="Path_3182" data-name="Path 3182" class="cls-13" d="M267.545,111.458c-3.655-.731-32.9-3.253-47.688-3.728-17.057,13.244-21.59,31.5-20.079,37.563,1.767,7.079,5.9,35.333,5.9,35.333s2.961,35.955,2.961,50.685c0,11.16,3.74,24.7,17.593,37.77a20.115,20.115,0,0,0,4.289-12.635c0-13.719,1.828-24.246-3.655-33.384s-10.515-33.847-5.946-44.374,8.687-30.642,9.6-39.792,3.655-8.224,17.837-1.365a32.567,32.567,0,0,0,26.987.451S272.114,112.372,267.545,111.458Z" transform="translate(-199.494 -93.287)"/>
            <path id="Path_3183" data-name="Path 3183" class="cls-13" d="M250.187,163.776s-27.158-3.485-22.126,2,23.783,8.687,30.642,6.409S259.045,164.068,250.187,163.776Z" transform="translate(-193.394 -81.285)"/>
            <path id="Path_3184" data-name="Path 3184" class="cls-13" d="M271.891,152.715s-5.032,9.15,0,9.6,7.31-9.15,18.751-5.483,9.15-5.946,1.828-8.7S275.546,148.6,271.891,152.715Z" transform="translate(-184.175 -84.687)"/>
            <path id="Path_3185" data-name="Path 3185" class="cls-13" d="M317.8,205.747c-1.218-16.5-1.218-34.761-1.218-43.594s1.218-38.891-8.248-54.206c-1.767-2.875-5.3-5.3-10.052-7.237-3.472.3-15.132,1.767-15.132,1.767l-5.483,34.761s11.428-1.828,16.01-5.946,8.224-.463,9.15,10.064,4.569,16.46,7.31,22.406.914,28.815-1.828,44.361,3.655,17.837-2.291,34.761-22.869,34.3-36.551,41.62c-4.874,2.607-4.069,4.813-.171,6.311,16.2-1.949,31.044-8.967,39.671-17.91C324.866,256.42,318.981,222.244,317.8,205.747Z" transform="translate(-184.954 -94.82)"/>
          </g>
          <path id="Path_3187" data-name="Path 3187" class="cls-8" d="M205.678,183.239s2.961,35.93,2.961,50.66,6.482,33.591,34.176,50.076,64.806,6.482,80.718-10.015,10.015-50.66,8.833-67.157-1.218-34.761-1.218-43.594S332.366,124.318,322.9,109s-68.924-17.679-93.669-4.715S198,140.839,199.769,147.882,205.678,183.239,205.678,183.239Z" transform="translate(-51.552 -61.541)"/>
          <line id="Line_278" data-name="Line 278" class="cls-8" x2="12.866" transform="translate(191.518 135.904)"/>
          <line id="Line_279" data-name="Line 279" class="cls-8" y1="1.608" x2="15.279" transform="translate(246.199 135.904)"/>
          <path id="Path_3188" data-name="Path 3188" class="cls-15" d="M344.829,144.618v-1.036a7.92,7.92,0,0,0,.707-15.413,7.932,7.932,0,0,0-2.754-14.267,10.965,10.965,0,0,0-10.417-18.276,10.888,10.888,0,0,0,.39-2.754,11.014,11.014,0,0,0-17-9.284,14.267,14.267,0,0,0-26.147-3.46,14.28,14.28,0,0,0-27.426-3.436,14.267,14.267,0,0,0-25.757,3.582,11.526,11.526,0,0,0-18.41,6.092,7.883,7.883,0,0,0-11.636,7.006,8.018,8.018,0,0,0,.5,2.717,7.944,7.944,0,0,0-11.112,7.31,7.834,7.834,0,0,0,1.218,4.13,7.907,7.907,0,0,0-2.644,14.048,7.932,7.932,0,0,0-.256,15.413,7.846,7.846,0,0,0-.268,12.184,7.907,7.907,0,0,0,1.706,15.486,16.485,16.485,0,0,0,1.45,5.361c4.118,7.067,5.9,10.015,5.9,10.015s1.889,9.893,5.665,14.085c.792,10.21,2.571,34.541,2.571,46.006,0,14.73,6.482,33.591,34.176,50.076s64.806,6.482,80.718-10.015,10.015-50.66,8.833-67.157c-.695-9.747-.975-20.1-1.1-28.778a19.118,19.118,0,0,0,4.045-2.437c1.669-1.218,3.156-5.434,4.313-10.965a6.721,6.721,0,0,0,.695.073,7.92,7.92,0,0,0,5.885-13.256,7.883,7.883,0,0,0-3.838-12.964ZM324.811,244.732c-6.482,7.067-20.03-.585-27.1-7.651s-14.146-8.845-31.227-4.715-19.494,15.315-30.642,18.848-14.718-10.6-17.057-21.8-4.118-43.594-4.118-43.594c0-6.482,8.248-7.664,11.782-18.861s-4.715-17.667,1.218-32.994,24.124,5.714,24.477,6.092c8.395,8.687,25.294,8.529,36.551,7.542,6.384-.585,14.3-9.747,20.444-15.193a7.03,7.03,0,0,1,11.367,3.655c1.681,6.409,3.533,14.4,3.2,17.4-.585,5.3.8,5.081,5.519,13.329,2.327,4.069,1.962,1.5,2.339,4.337-.28,5.081-.524,14.206-1.377,28.315C328.929,218.854,331.293,237.7,324.811,244.732Z" transform="translate(-54.037 -67.695)"/>
          <line id="Line_280" data-name="Line 280" class="cls-16" x2="29.448" y2="3.533" transform="translate(182.404 114.034)"/>
          <path id="Path_3189" data-name="Path 3189" class="cls-16" d="M270.33,155.515s5.9-14.73,24.161-5.3" transform="translate(-36.084 -50.363)"/>
          <path id="Path_3190" data-name="Path 3190" class="cls-11" d="M272.652,162.74s-1.218,20.627.585,30.642,8.833,23.564-5.3,27.1-20.03-3.533-18.861-13.548" transform="translate(-40.757 -46.939)"/>
          <g id="Group_8241" data-name="Group 8241" class="cls-17" transform="translate(208.175 115.801)">
            <path id="Path_3191" data-name="Path 3191" class="cls-13" d="M250.069,209.629s11.428,7.31,18.751,2.741,5.982-15.205,4.593-22.236-1.852-12.525-1.852-12.525,8.236,24.7,5.495,32.47-15.559,12.354-24.209,9.15S250.069,209.629,250.069,209.629Z" transform="translate(-249.108 -159.493)"/>
          </g>
          <path id="Path_3193" data-name="Path 3193" class="cls-8" d="M272.652,162.74s-1.218,20.627.585,30.642,8.833,23.564-5.3,27.1-20.03-3.533-18.861-13.548" transform="translate(-40.757 -46.939)"/>
          <path id="Path_3194" data-name="Path 3194" class="cls-18" d="M250.615,170.062c0,3.582-1.718,6.482-3.826,6.482s-3.789-2.9-3.789-6.482,1.718-6.482,3.838-6.482S250.615,166.529,250.615,170.062Z" transform="translate(-42.052 -46.756)"/>
          <path id="Path_3195" data-name="Path 3195" class="cls-18" d="M288.684,167.442c0,3.57-1.718,6.482-3.826,6.482s-3.838-2.912-3.838-6.482,1.718-6.482,3.838-6.482S288.684,163.86,288.684,167.442Z" transform="translate(-33.749 -47.328)"/>
          <path id="Path_3196" data-name="Path 3196" class="cls-19" d="M262.11,221.651s5.3,1.218,12.367-7.651" transform="translate(-37.879 -35.745)"/>
          <path id="Path_3197" data-name="Path 3197" class="cls-11" d="M232.04,493.74l49-126.1s3.533-2.351,12.367-11.782,5.312-22.394,5.312-22.394a6.019,6.019,0,0,0,5.885,4.13c4.715,0,11.2-1.218,14.145-7.664s-.6-20.03-2.364-31.227-8.833-32.4-14.133-32.4-33.579,8.833-33.579,8.833-2.949-13.548-2.364-17.667,25.952-10.027,28.279-8.809,5.3,4.13,10.015,2.364,0-6.482-3.533-13.548-30.045-2.364-38.294,1.218-20.615,5.9-17.679,18.276,7.664,87.2,7.664,87.2,0,5.3-7.067,17.667c-5.982,10.466-77.9,103.563-99.968,132" transform="translate(-63.294 -31.418)"/>
          <g id="Group_8242" data-name="Group 8242" class="cls-20" transform="translate(82.436 202.394)">
            <path id="Path_3198" data-name="Path 3198" class="cls-13" d="M304.607,329.205a17.41,17.41,0,0,0,10.3-2.863c2.266-2.851,4.106-7.785-.926-14.621-8.37-11.416-26.634.755-33.481,6.092s-10.649,0-16.741-7.6c-4.727-5.909-11.428-24.684-15.741-37.94,2.437,26.281,4.752,63.441,4.752,63.441s0,5.3-7.067,17.667c-5.982,10.466-77.9,103.563-99.968,132h51.793C221.245,452.006,268.19,369.972,271.37,361.2c2.437-6.945,10.77-7.432,18.568-10.076,1.06-1.084,2.205-2.278,3.472-3.655,8.845-9.43,5.312-22.394,5.312-22.394A6.019,6.019,0,0,0,304.607,329.205Z" transform="translate(-145.73 -225.414)"/>
          </g>
          <path id="Path_3200" data-name="Path 3200" class="cls-8" d="M232.04,493.74l49-126.1s3.533-2.351,12.367-11.782,5.312-22.394,5.312-22.394a6.019,6.019,0,0,0,5.885,4.13c4.715,0,11.2-1.218,14.145-7.664s-.6-20.03-2.364-31.227-8.833-32.4-14.133-32.4-33.579,8.833-33.579,8.833-2.949-13.548-2.364-17.667,25.952-10.027,28.279-8.809,5.3,4.13,10.015,2.364,0-6.482-3.533-13.548-30.045-2.364-38.294,1.218-20.615,5.9-17.679,18.276,7.664,87.2,7.664,87.2,0,5.3-7.067,17.667c-5.982,10.466-77.9,103.563-99.968,132" transform="translate(-63.294 -31.418)"/>
          <path id="Path_3201" data-name="Path 3201" class="cls-8" d="M249.54,283.719s31.227-8.248,33.579-8.248,7.664,4.715,7.664,4.715" transform="translate(-40.624 -22.321)"/>
          <path id="Path_3202" data-name="Path 3202" class="cls-8" d="M253.89,300.427s27.694-7.067,32.4-7.067a11.562,11.562,0,0,1,7.664,2.948" transform="translate(-39.674 -18.414)"/>
          <path id="Path_3203" data-name="Path 3203" class="cls-8" d="M267.91,318.529s5.9-1.767,14.145-8.248" transform="translate(-36.612 -14.719)"/>
        </g>
      </g>
      <g id="Group_8245" data-name="Group 8245" transform="translate(1103.863 1370.302)">
        <path id="Path_2942" data-name="Path 2942" class="cls-21" d="M128.743,135.8a2.478,2.478,0,1,0-.726,1.766,2.491,2.491,0,0,0,.726-1.766Z" transform="translate(151.473 -69.663)"/>
        <path id="Path_2946" data-name="Path 2946" class="cls-21" d="M117.293,327.492a2.492,2.492,0,1,0-2.492,2.491A2.492,2.492,0,0,0,117.293,327.492Z" transform="translate(501.586 -222.349)"/>
        <g id="Rectangle_912" data-name="Rectangle 912" class="cls-22" transform="translate(430.136 9.698)">
          <rect class="cls-25" width="35" height="39"/>
          <rect class="cls-24" x="0.5" y="0.5" width="34" height="38"/>
        </g>
        <g id="Group_8205" data-name="Group 8205" transform="translate(90.087 107.185)">
          <circle id="Ellipse_219" data-name="Ellipse 219" class="cls-11" cx="29.5" cy="29.5" r="29.5" transform="translate(9.049 4.513)"/>
          <path id="Path_3145" data-name="Path 3145" class="cls-23" d="M40.471,2A38.471,38.471,0,1,0,78.943,40.471,38.585,38.585,0,0,0,40.471,2ZM54.129,55.091l-15.7-9.656a3.793,3.793,0,0,1-1.847-3.27V24.121a2.966,2.966,0,0,1,2.924-2.885,2.906,2.906,0,0,1,2.885,2.885v17.12l14.773,8.887a2.91,2.91,0,1,1-3.039,4.963Z" transform="translate(-2 -2)"/>
        </g>
        <path id="note-24px" class="cls-23" d="M73.687,20.538,55.35,2.2A7.585,7.585,0,0,0,50,0H7.593A7.615,7.615,0,0,0,0,7.593V53.186a7.55,7.55,0,0,0,7.555,7.555H68.334a7.615,7.615,0,0,0,7.593-7.593V25.929A7.616,7.616,0,0,0,73.687,20.538ZM49.352,5.694l20.88,20.88H53.148a3.807,3.807,0,0,1-3.8-3.8Z" transform="translate(551.044 176.272) rotate(-90)"/>
        <path id="video_library-24px" class="cls-23" d="M5.8,17.183a3.807,3.807,0,0,0-3.8,3.8V70.324a7.614,7.614,0,0,0,7.592,7.592H58.936a3.8,3.8,0,1,0,0-7.592H13.387a3.807,3.807,0,0,1-3.8-3.8V20.979A3.807,3.807,0,0,0,5.8,17.183ZM70.324,2H24.775a7.614,7.614,0,0,0-7.592,7.592V55.141a7.614,7.614,0,0,0,7.592,7.592H70.324a7.614,7.614,0,0,0,7.592-7.592V9.592A7.614,7.614,0,0,0,70.324,2ZM39.958,49.447V15.285L60.72,30.848a1.884,1.884,0,0,1,0,3.037Z" transform="translate(398.003 -1.065)"/>
        <rect id="Rectangle_911" data-name="Rectangle 911" class="cls-11" width="29" height="49" transform="translate(265.136 -0.302)"/>
        <path id="Path_3147" data-name="Path 3147" class="cls-23" d="M62.861,75.033H14.172a4.069,4.069,0,0,1-4.057-4.057V22.287a4.057,4.057,0,1,0-8.115,0V75.033a8.139,8.139,0,0,0,8.115,8.115H62.861a4.057,4.057,0,0,0,0-8.115ZM75.033,2H26.344a8.139,8.139,0,0,0-8.115,8.115V58.8a8.139,8.139,0,0,0,8.115,8.115H75.033A8.139,8.139,0,0,0,83.148,58.8V10.115A8.139,8.139,0,0,0,75.033,2Zm0,40.574L64.89,36.488,54.746,42.574V10.115H75.033Z" transform="translate(231.776 -1.79)"/>
        <g id="Group_8244" data-name="Group 8244" transform="translate(618.666 260.518)">
          <rect id="Rectangle_913" data-name="Rectangle 913" class="cls-11" width="62" height="46" transform="translate(13.47 9.18)"/>
          <path id="Path_3154" data-name="Path 3154" class="cls-23" d="M80.723,2H10.747a8.735,8.735,0,0,0-8.7,8.747L2,89.47,19.494,71.976H80.723a8.773,8.773,0,0,0,8.747-8.747V10.747A8.773,8.773,0,0,0,80.723,2ZM67.6,54.482H23.868a4.374,4.374,0,1,1,0-8.747H67.6a4.374,4.374,0,0,1,0,8.747Zm0-13.121H23.868a4.374,4.374,0,1,1,0-8.747H67.6a4.374,4.374,0,0,1,0,8.747Zm0-13.121H23.868a4.374,4.374,0,0,1,0-8.747H67.6a4.374,4.374,0,0,1,0,8.747Z" transform="translate(-2 -2)"/>
        </g>
        <g id="Group_8209" data-name="Group 8209" transform="translate(-0.001 243.621)">
          <g id="food_bank-24px" transform="translate(0 0)">
            <rect id="Rectangle_910" data-name="Rectangle 910" class="cls-24" width="121" height="121" transform="translate(0.137 0.078)"/>
            <path id="Path_3150" data-name="Path 3150" class="cls-23" d="M38.213,5.5,8.025,28.143A10.128,10.128,0,0,0,4,36.193V81.475A10.092,10.092,0,0,0,14.063,91.538H74.438A10.092,10.092,0,0,0,84.5,81.475V36.193a10.128,10.128,0,0,0-4.025-8.05L50.288,5.5A10.113,10.113,0,0,0,38.213,5.5Zm8.553,43.269a7.537,7.537,0,0,1-7.547,7.547v17.61A2.491,2.491,0,0,1,36.7,76.444h0a2.491,2.491,0,0,1-2.516-2.516V56.319a7.537,7.537,0,0,1-7.547-7.547V36.193a2.491,2.491,0,0,1,2.516-2.516h0a2.491,2.491,0,0,1,2.516,2.516V48.772h2.516V36.193A2.491,2.491,0,0,1,36.7,33.678h0a2.491,2.491,0,0,1,2.516,2.516V48.772h2.516V36.193a2.491,2.491,0,0,1,2.516-2.516h0a2.491,2.491,0,0,1,2.516,2.516ZM56.829,76.444h0a2.491,2.491,0,0,1-2.516-2.516V58.834H51.8a2.491,2.491,0,0,1-2.516-2.516V43.74a10.007,10.007,0,0,1,6.843-9.509,2.48,2.48,0,0,1,3.22,2.415V73.928A2.491,2.491,0,0,1,56.829,76.444Z" transform="translate(15.862 14.159)"/>
          </g>
          <ellipse id="Ellipse_218" data-name="Ellipse 218" class="cls-11" cx="30" cy="29.5" rx="30" ry="29.5" transform="translate(30.137 38.078)"/>
          <g id="help-24px" transform="translate(19.28 27.959)">
            <path id="Path_3151" data-name="Path 3151" class="cls-24" d="M0,0H80.966V80.966H0Z"/>
            <path id="Path_3152" data-name="Path 3152" class="cls-23" d="M35.736,2A33.736,33.736,0,1,0,69.472,35.736,33.748,33.748,0,0,0,35.736,2Zm3.374,57.351H32.362V52.6h6.747Zm6.983-26.145-3.036,3.1a11.816,11.816,0,0,0-3.509,5.7,15.476,15.476,0,0,0-.439,3.846H32.362V44.17A13.648,13.648,0,0,1,33.1,39.75a13.485,13.485,0,0,1,3.2-5.128l4.183-4.251A6.622,6.622,0,0,0,42.348,24.3a6.716,6.716,0,0,0-4.689-5.162,6.8,6.8,0,0,0-8.333,4.284,2.979,2.979,0,0,1-2.766,2.193H25.548a2.922,2.922,0,0,1-2.766-3.778,13.521,13.521,0,0,1,10.9-9.547c5.128-.81,10.02,1.855,13.056,6.072C50.715,23.861,49.534,29.765,46.093,33.206Z" transform="translate(4.747 4.747)"/>
          </g>
        </g>
      </g>
    </g>
  </svg>
